<svg id="5107d542-1314-41f3-96b4-2c730bbab67f" data-name="Layer 1" xmlns="http://www.w3.org/2000/svg" viewBox="0 0 194 116"><title>arrows-left</title><g style="opacity:0.05000000074505806"><path d="M-3.8,127.29a6.28,6.28,0,0,1-2.85-.69h0a6.17,6.17,0,0,1-2.43-2.25,6.06,6.06,0,0,1-.9-3.18V47a6.06,6.06,0,0,1,.91-3.18,6.17,6.17,0,0,1,2.43-2.25,6.25,6.25,0,0,1,3.24-.68A6.25,6.25,0,0,1-.29,41.91L54.32,79a6.17,6.17,0,0,1,2,2.19,6.05,6.05,0,0,1,0,5.71,6.19,6.19,0,0,1-2,2.19L-.29,126.21a6.25,6.25,0,0,1-3.14,1.07Zm-1-4.25a2.3,2.3,0,0,0,1.17.24,2.25,2.25,0,0,0,1.13-.38l54.6-37.1a2.17,2.17,0,0,0,.69-.76,2.05,2.05,0,0,0,0-1.94,2.15,2.15,0,0,0-.69-.76L-2.53,45.22a2.25,2.25,0,0,0-1.13-.38,2.24,2.24,0,0,0-1.17.24,2.18,2.18,0,0,0-.86.79A2.07,2.07,0,0,0-6,47v74.21a2.07,2.07,0,0,0,.31,1.08A2.17,2.17,0,0,0-4.83,123Z" style="fill:#010014"/><path d="M94.75,149.43a3.3,3.3,0,0,0,3.37-.21l42.47-29.15a3.23,3.23,0,0,0,0-5.33L98.13,85.58a3.28,3.28,0,0,0-4.65,1A3.22,3.22,0,0,0,93,88.25v58.31a3.22,3.22,0,0,0,.47,1.68A3.25,3.25,0,0,0,94.75,149.43Z" style="fill:#010014"/><path d="M53.75,46.36a3.3,3.3,0,0,0,3.37-.21L99.59,17a3.23,3.23,0,0,0,0-5.33L57.13-17.49a3.29,3.29,0,0,0-1.66-.57,3.29,3.29,0,0,0-1.72.36,3.25,3.25,0,0,0-1.28,1.19A3.22,3.22,0,0,0,52-14.82V43.49a3.22,3.22,0,0,0,.47,1.68A3.26,3.26,0,0,0,53.75,46.36Z" style="fill:#010014"/><path d="M142.26,78.17a5.3,5.3,0,0,1-2.43-.59h0A5.24,5.24,0,0,1,137,72.94V14.63A5.23,5.23,0,0,1,139.83,10a5.29,5.29,0,0,1,5.43.33l42.47,29.16a5.23,5.23,0,0,1,0,8.62L145.26,77.25a5.29,5.29,0,0,1-2.67.92ZM141.67,74a1.27,1.27,0,0,0,.67.14,1.31,1.31,0,0,0,.66-.22l42.46-29.15a1.25,1.25,0,0,0,.4-.45,1.21,1.21,0,0,0,0-1.14,1.24,1.24,0,0,0-.4-.44L143,13.61a1.29,1.29,0,0,0-.65-.22,1.28,1.28,0,0,0-1.17.6,1.21,1.21,0,0,0-.18.63V72.94a1.22,1.22,0,0,0,.18.63A1.26,1.26,0,0,0,141.67,74Z" style="fill:#010014"/></g></svg>