<svg viewBox="0 0 120 140" fill="none" xmlns="http://www.w3.org/2000/svg">
<g clip-path="url(#clip0)">
<rect width="120" height="140" fill="white"/>
<path opacity="0.05" fill-rule="evenodd" clip-rule="evenodd" d="M42.0625 -24C42.0625 -19.75 38.875 -16.5625 34.625 -16.5625H27.1875C24.2656 -16.5625 21.875 -14.1719 21.875 -11.25V-1.6875C21.875 3.97917 19.75 7.875 15.5 10C19.75 12.125 21.875 16.0208 21.875 21.6875V31.25C21.875 34.1719 24.2656 36.5625 27.1875 36.5625H31.4375C31.4375 40.8125 28.25 44 24 44C18.6875 44 14.4375 39.75 14.4375 34.4375L14.4368 23.2812C14.4373 16.9062 11.9583 12.4792 7 10C11.9583 7.52083 14.4375 3.09375 14.4374 -3.28125L14.4375 -14.4375C14.4375 -19.75 18.6875 -24 24 -24H42.0625ZM47.1596 -23.4435C62.9968 -20.5453 75 -6.67441 75 10C75 28.7777 59.7777 44 41 44C39.075 44 37.1874 43.84 35.3498 43.5326L47.1596 -23.4435Z" fill="#010014"/>
<path opacity="0.05" fill-rule="evenodd" clip-rule="evenodd" d="M90.3437 77C90.3437 82.375 86.3125 86.4063 80.9375 86.4063H71.5312C67.8359 86.4063 64.8125 89.4297 64.8125 93.125V105.219C64.8125 112.385 62.125 117.313 56.75 120C62.125 122.688 64.8125 127.615 64.8125 134.781V146.875C64.8125 150.57 67.8359 153.594 71.5312 153.594H76.9062C76.9062 158.969 72.875 163 67.5 163C60.7812 163 55.4062 157.625 55.4062 150.906L55.4053 136.797C55.4059 128.734 52.2708 123.135 46 120C52.2708 116.865 55.4062 111.266 55.4061 103.203L55.4062 89.0938C55.4062 82.375 60.7812 77 67.5 77H90.3437ZM96.7901 77.7039C116.819 81.3692 132 98.9118 132 120C132 143.748 112.748 163 89 163C86.5655 163 84.1782 162.798 81.8541 162.409L96.7901 77.7039Z" fill="#010014"/>
</g>
<defs>
<clipPath id="clip0">
<rect width="120" height="140" fill="white"/>
</clipPath>
</defs>
</svg>
