<svg id="6907b594-7f70-4e63-a7d9-826239367911" data-name="Layer 1" xmlns="http://www.w3.org/2000/svg" viewBox="0 0 181 163"><title>plus-right</title><path d="M177.05,96a18.3,18.3,0,0,0-18.3,18.3v27.45h-42.7A3.05,3.05,0,0,0,113,144.8v9.15a18.3,18.3,0,0,0,18.3,18.3h27.45v42.7A3.05,3.05,0,0,0,161.8,218h9.15a18.3,18.3,0,0,0,18.3-18.3V172.25h42.7A3.05,3.05,0,0,0,235,169.2v-9.15a18.3,18.3,0,0,0-18.3-18.3H189.25V99.05A3.05,3.05,0,0,0,186.2,96Z" style="fill:#010014;opacity:0.05000000074505806;isolation:isolate"/><path d="M59,66a11.7,11.7,0,0,0-11.7,11.7V95.25H20a2,2,0,0,0-2,1.95v5.85a11.7,11.7,0,0,0,11.7,11.7H47.25v27.3a2,2,0,0,0,2,1.95H55a11.7,11.7,0,0,0,11.7-11.7V114.75h27.3A2,2,0,0,0,96,112.8v-5.85a11.7,11.7,0,0,0-11.7-11.7H66.75V67.95A2,2,0,0,0,64.8,66Z" style="fill:#010014;opacity:0.05000000074505806;isolation:isolate"/><path d="M23.9,19a5.4,5.4,0,0,0-5.4,5.4v8.1H5.9a.9.9,0,0,0-.9.9v2.7a5.4,5.4,0,0,0,5.4,5.4h8.1V54.1a.9.9,0,0,0,.9.9h2.7a5.4,5.4,0,0,0,5.4-5.4V41.5H40.1a.9.9,0,0,0,.9-.9V37.9a5.4,5.4,0,0,0-5.4-5.4H27.5V19.9a.9.9,0,0,0-.9-.9Z" style="fill:#010014;opacity:0.05000000074505806;isolation:isolate"/><path d="M144.45-18a14.7,14.7,0,0,0-14.7,14.7v22H95.45A2.45,2.45,0,0,0,93,21.2v7.35a14.7,14.7,0,0,0,14.7,14.7h22.05v34.3A2.45,2.45,0,0,0,132.2,80h7.35a14.7,14.7,0,0,0,14.7-14.7V43.25h34.3A2.45,2.45,0,0,0,191,40.8V33.45a14.7,14.7,0,0,0-14.7-14.7H154.25v-34.3A2.45,2.45,0,0,0,151.8-18Z" style="fill:#010014;opacity:0.05000000074505806;isolation:isolate"/></svg>