<svg id="d9a9900a-870a-4920-8986-216edb4a59da" data-name="Layer 1" xmlns="http://www.w3.org/2000/svg" viewBox="0 0 216 163"><title>plus-left</title><path d="M172-10A12,12,0,0,0,160,2V20H132a2,2,0,0,0-2,2v6a12,12,0,0,0,12,12h18V68a2,2,0,0,0,2,2h6a12,12,0,0,0,12-12V40h28a2,2,0,0,0,2-2V32a12,12,0,0,0-12-12H180V-8a2,2,0,0,0-2-2Z" style="fill:#010014;opacity:0.05000000074505806;isolation:isolate"/><path d="M34,93a12.3,12.3,0,0,0-12.3,12.3v18.45H-6.95A2.05,2.05,0,0,0-9,125.8v6.15a12.3,12.3,0,0,0,12.3,12.3H21.75v28.7a2.05,2.05,0,0,0,2,2.05H30a12.3,12.3,0,0,0,12.3-12.3V144.25h28.7A2.05,2.05,0,0,0,73,142.2v-6.15a12.3,12.3,0,0,0-12.3-12.3H42.25V95.05a2,2,0,0,0-2-2.05Z" style="fill:#010014;opacity:0.05000000074505806;isolation:isolate"/><path d="M14.05-50A18.3,18.3,0,0,0-4.25-31.7V-4.25H-47a3,3,0,0,0-3,3V7.95a18.3,18.3,0,0,0,18.3,18.3H-4.25v42.7A3,3,0,0,0-1.2,72H7.95a18.3,18.3,0,0,0,18.3-18.3V26.25h42.7a3,3,0,0,0,3.05-3V14.05A18.3,18.3,0,0,0,53.7-4.25H26.25V-47a3,3,0,0,0-3-3Z" style="fill:#010014;opacity:0.05000000074505806;isolation:isolate"/><path d="M103.9,71a5.4,5.4,0,0,0-5.4,5.4v8.1H85.9a.9.9,0,0,0-.9.9v2.7a5.4,5.4,0,0,0,5.4,5.4h8.1v12.6a.9.9,0,0,0,.9.9h2.7a5.4,5.4,0,0,0,5.4-5.4V93.5h12.6a.9.9,0,0,0,.9-.9V89.9a5.4,5.4,0,0,0-5.4-5.4h-8.1V71.9a.9.9,0,0,0-.9-.9Z" style="fill:#010014;opacity:0.05000000074505806;isolation:isolate"/></svg>