<svg width="140" height="140" viewBox="0 0 140 140" fill="none" xmlns="http://www.w3.org/2000/svg">
<g clip-path="url(#clip0)">
<g opacity="0.05">
<path d="M133.166 41.166H116.5C114.187 41.166 112.333 43.0202 112.333 45.3327V78.666C112.333 79.7711 112.772 80.8309 113.553 81.6123C114.335 82.3937 115.395 82.8327 116.5 82.8327H141.5C142.605 82.8327 143.665 82.3937 144.446 81.6123C145.227 80.8309 145.666 79.7711 145.666 78.666V53.666L133.166 41.166ZM130.125 77.3535V73.1869H121.791V69.041H130.125V64.8744L136.375 71.1243L130.125 77.3535V77.3535ZM131.083 55.7494V44.291L142.541 55.7494H131.083Z" fill="#010014"/>
</g>
<g opacity="0.05">
<path d="M57.3337 87.334H20.0003C14.8203 87.334 10.667 91.4873 10.667 96.6673V171.334C10.667 173.809 11.6503 176.183 13.4007 177.934C15.151 179.684 17.525 180.667 20.0003 180.667H76.0003C78.4757 180.667 80.8496 179.684 82.6 177.934C84.3503 176.183 85.3337 173.809 85.3337 171.334V115.334L57.3337 87.334ZM50.5203 168.394V159.061H31.8537V149.774H50.5203V140.441L64.5203 154.441L50.5203 168.394V168.394ZM52.667 120.001V94.334L78.3337 120.001H52.667Z" fill="#010014"/>
</g>
<g opacity="0.05">
<path d="M72.8337 -25.167H49.5003C46.2628 -25.167 43.667 -22.5712 43.667 -19.3337V27.333C43.667 28.8801 44.2816 30.3638 45.3755 31.4578C46.4695 32.5518 47.9532 33.1663 49.5003 33.1663H84.5003C86.0474 33.1663 87.5311 32.5518 88.6251 31.4578C89.7191 30.3638 90.3337 28.8801 90.3337 27.333V-7.66699L72.8337 -25.167ZM68.5753 25.4955V19.6622H56.9087V13.858H68.5753V8.02468L77.3253 16.7747L68.5753 25.4955V25.4955ZM69.917 -4.75032V-20.792L85.9587 -4.75032H69.917Z" fill="#010014"/>
</g>
</g>
<defs>
<clipPath id="clip0">
<rect width="140" height="140" fill="white"/>
</clipPath>
</defs>
</svg>
