<svg xmlns="http://www.w3.org/2000/svg" width="140" height="24" fill="none" fill-rule="evenodd"><path d="M12.375 0A2.56 2.56 0 0 1 9.75 2.625H7.125A1.88 1.88 0 0 0 5.25 4.5v3.375c0 2-.75 3.375-2.25 4.125 1.5.75 2.25 2.125 2.25 4.125V19.5a1.88 1.88 0 0 0 1.875 1.875h1.5A2.56 2.56 0 0 1 6 24a3.36 3.36 0 0 1-3.375-3.375v-3.937c0-2.25-.875-3.812-2.625-4.687 1.75-.875 2.625-2.437 2.625-4.687V3.375A3.36 3.36 0 0 1 6 0h6.375zm1.8.196C19.764 1.22 24 6.115 24 12c0 6.627-5.373 12-12 12a12.09 12.09 0 0 1-1.994-.165L14.174.196z" fill="#675cff"/><path d="M46.03 0l.02 22.08h-3.87V20.3c-1.14 1.46-2.76 2.2-4.86 2.2-2.02 0-3.745-.765-5.175-2.295S30 16.8 30 14.58s.715-4.095 2.145-5.625S35.3 6.66 37.32 6.66c2.078 0 3.686.715 4.824 2.144l.036.046-.01-4.988C42.17 1.73 43.898 0 46.03 0zm9.44 6.66c2.2 0 4.015.76 5.445 2.28s2.145 3.4 2.145 5.64a8.95 8.95 0 0 1-.132 1.485l-.018.105H51.6l.016.056C52.148 18.07 53.553 19 55.83 19c1.46 0 2.57-.487 3.33-1.46l.03-.04 3.12 1.8-.045.064C60.786 21.45 58.62 22.5 55.77 22.5c-2.48 0-4.47-.75-5.97-2.25s-2.25-3.4-2.25-5.67c0-2.26.74-4.145 2.22-5.655s3.38-2.265 5.7-2.265zm31.32 0c1.46 0 2.8.35 4 1.05s2.1 1.64 2.73 2.82l-3.33 1.95-.026-.053c-.3-.595-.746-1.067-1.34-1.417-.6-.36-1.295-.54-2.055-.54-1.16 0-2.12.385-2.88 1.155s-1.14 1.755-1.14 2.955c0 1.18.38 2.155 1.14 2.925s1.72 1.155 2.88 1.155c.78 0 1.475-.175 2.085-.525S89.9 17.3 90.2 16.68l3.36 1.92-.037.065c-.658 1.15-1.575 2.073-2.753 2.77-1.2.7-2.53 1.065-4 1.065-2.26 0-4.145-.76-5.655-2.28s-2.265-3.4-2.265-5.64.755-4.12 2.265-5.64S84.53 6.66 86.8 6.66zm14.82 0c2.078 0 3.696.715 4.853 2.144l.037.046V7.08h3.87v15h-3.87V20.3l-.037.046c-1.157 1.43-2.775 2.144-4.853 2.144-2 0-3.715-.765-5.145-2.295S94.32 16.8 94.32 14.58s.715-4.095 2.145-5.625S99.6 6.66 101.6 6.66zm16.6 0c1.22 0 2.33.275 3.33.825s1.8 1.335 2.37 2.355l-3.3 1.8-.02-.042c-.482-.992-1.276-1.488-2.38-1.488-.5 0-.915.1-1.245.33s-.495.52-.495.9c0 .4.265.725.795.975s1.175.47 1.935.66a20 20 0 0 1 2.28.72c.76.3 1.405.775 1.935 1.455s.795 1.53.795 2.55c0 1.54-.575 2.725-1.725 3.555S119.9 22.5 118.17 22.5c-3.08 0-5.18-1.2-6.3-3.57l3.36-1.9.014.042c.447 1.272 1.422 1.908 2.926 1.908 1.38 0 2.07-.43 2.07-1.3 0-.4-.265-.725-.795-.975s-1.175-.475-1.935-.675a20.23 20.23 0 0 1-2.28-.75 4.68 4.68 0 0 1-1.935-1.425c-.53-.65-.795-1.465-.795-2.445 0-1.48.545-2.645 1.635-3.495S116.58 6.66 118.2 6.66zm-50.88.42l3.63 10.5 3.66-10.5h4.26l-5.7 15h-4.4l-5.7-15h4.26zM125.67 0l.064.001c2.108.034 3.807 1.753 3.81 3.87l.005 4.9c.94-1.4 2.43-2.1 4.47-2.1 1.64 0 2.994.55 4.065 1.65s1.605 2.62 1.605 4.56v9.2h-3.87v-8.73c0-1-.27-1.765-.8-2.295s-1.26-.795-2.16-.795c-1 0-1.8.3-2.4.93s-.9 1.55-.9 2.8v8.1h-3.87L125.67 0zM38.04 10.35c-1.2 0-2.195.395-2.985 1.185S33.87 13.34 33.87 14.58s.4 2.26 1.17 3.06c.8.78 1.8 1.17 3 1.17s2.2-.395 2.97-1.185 1.17-1.805 1.17-3.045-.4-2.255-1.17-3.045-1.77-1.185-2.97-1.185zm64.3 0c-1.2 0-2.2.395-2.97 1.185S98.2 13.34 98.2 14.58s.4 2.26 1.17 3.06c.78.78 1.77 1.17 2.97 1.17s2.195-.395 2.985-1.185 1.185-1.805 1.185-3.045-.395-2.255-1.185-3.045-1.785-1.185-2.985-1.185zm-46.86-.2c-1.04 0-1.9.265-2.58.795-.666.52-1.11 1.245-1.336 2.176l-.014.06h7.65c-.22-1.02-.675-1.78-1.365-2.28s-1.475-.75-2.355-.75z" fill="#f2f1ff"/></svg>