<svg id="17d1729a-bcf0-448e-b2c5-ad11fe03d3c4" data-name="Layer 1" xmlns="http://www.w3.org/2000/svg" viewBox="0 0 24 24"><title>create</title><path d="M14.81,12A5.63,5.63,0,1,0,9.19,6.38,5.63,5.63,0,0,0,14.81,12ZM14,3.84a.84.84,0,1,1,1.69,0V5.53h1.69a.84.84,0,0,1,0,1.69H15.66V8.91a.84.84,0,1,1-1.69,0V7.22H12.28a.84.84,0,0,1,0-1.69H14Z" style="fill:#f2f1ff"/><path d="M14.81,13.5a7.09,7.09,0,0,0,3.75-1.07V21a1.5,1.5,0,0,1-1.5,1.5h-9A4.5,4.5,0,0,1,3.56,18V4.5A1.5,1.5,0,0,1,5.06,3H8.54a7.13,7.13,0,0,0,6.28,10.5Z" style="fill:#f2f1ff"/></svg>