<svg xmlns="http://www.w3.org/2000/svg" xmlns:xlink="http://www.w3.org/1999/xlink" viewBox="0 0 1413.79 840.46"><style><![CDATA[.B{fill:#010014}.C{fill:#7066ff}.D{opacity:.4}.E{opacity:.3}.F{opacity:.15}.G{opacity:.7}.H{opacity:.5}.I{opacity:.1}.J{fill:#675cff}]]></style><defs><mask id="A" x="0" y="0" width="1413.79" height="840.46" maskUnits="userSpaceOnUse"><path d="M1011.12 5l368.95 213c45 26 45 68 0 94l-831.8 480.15c-39.2 22.63-99.2 25.94-144.5 9.93l-57.88 33.4c-11.48 6.63-30.1 6.63-41.57 0l-67.23-38.82H190v-8.53l.1-18.6-148.62-85.8c-41-23.7-45.4-60.53-13.1-87L3.94 582.6A7.88 7.88 0 0 1 0 575.78v-78.66a7.88 7.88 0 0 1 3.94-6.82l104.4-60.3a7.87 7.87 0 0 1 7.82 0l2.23 1.27.12.06.23.12a3.94 3.94 0 0 1 2 3.41V495L140 483.85l.1-37.85a2.17 2.17 0 0 1 .77-1.85l.12-.15 1.48-.86a1.57 1.57 0 0 1 .8-.2h.15a2.85 2.85 0 0 1 1.17.4l32.75 18.9L204 446.92v-37.28a8.69 8.69 0 0 1 3.89-6.5l17.73-10.24a8.64 8.64 0 0 1 7.79 0l32.08 18.52L969.55 5c11.45-6.66 30.1-6.66 41.57 0z" fill="#fff"/></mask><path id="B" d="M1011.12 5l368.95 213c45 26 45 68 0 94l-831.8 480.15c-39.2 22.63-99.2 25.94-144.5 9.93l-57.88 33.4c-11.48 6.63-30.1 6.63-41.57 0l-67.23-38.82H190v-8.53l.1-18.6-148.62-85.8c-41-23.7-45.4-60.53-13.1-87L3.94 582.6A7.88 7.88 0 0 1 0 575.78v-78.66a7.88 7.88 0 0 1 3.94-6.82l104.4-60.3a7.87 7.87 0 0 1 7.82 0l2.23 1.27.12.06.23.12a3.94 3.94 0 0 1 2 3.41V495L140 483.85l.1-37.85a2.17 2.17 0 0 1 .77-1.85l.12-.15 1.48-.86a1.57 1.57 0 0 1 .8-.2h.15a2.85 2.85 0 0 1 1.17.4l32.75 18.9L204 446.92v-37.28a8.69 8.69 0 0 1 3.89-6.5l17.73-10.24a8.64 8.64 0 0 1 7.79 0l32.08 18.52L969.55 5c11.45-6.66 30.1-6.66 41.57 0z"/><path id="C" d="M207.3 597.07L193.67 605c-4.3 2.5-4.28 5.48.07 8l3.34 1.93 5.93-3.45-2.87-1.66c-.76-.44-.76-1.14 0-1.6l13.18-7.66a5.79 5.79 0 0 0 2.84-3.23l.33-1.22 2.1-.2a13.89 13.89 0 0 0 5.57-1.66l13.18-7.65a3 3 0 0 1 2.72 0l2.87 1.66 6-3.48-3.34-1.93a13.68 13.68 0 0 0-13.78 0l-13.64 7.93a2.61 2.61 0 0 1-1 .3l-5.1.52c-1.73.2-3 1-3.36 2l-.87 3a1.05 1.05 0 0 1-.53.46z"/><path id="D" d="M214.53 617.65a3 3 0 0 1-1.39-.32l-2.88-1.65-5.93 3.45 3.34 1.93a13.62 13.62 0 0 0 13.78 0l13.64-7.93a2.46 2.46 0 0 1 1-.3l5.1-.52c1.73-.2 3-1 3.36-2l.88-3a1.14 1.14 0 0 1 .51-.57l13.64-7.92c4.25-2.47 4.27-5.5 0-8L256.2 589l-6 3.47 2.87 1.66a.83.83 0 0 1 0 1.57l-13.17 7.65a5.78 5.78 0 0 0-2.84 3.23l-.33 1.22-2.1.2a13.93 13.93 0 0 0-5.57 1.66l-13.18 7.66a3 3 0 0 1-1.34.34z"/><path id="E" d="M240.06 590.64l2.87 1.66 6-3.47v-4.05l-6 3.48-2.87-1.66a3 3 0 0 0-2.72 0l-13.18 7.65a13.91 13.91 0 0 1-5.57 1.66l-2.1.2-.33 1.22a5.81 5.81 0 0 1-2.84 3.23l-13.18 7.66a1 1 0 0 0-.6.82v4.05a1 1 0 0 1 .6-.82l13.17-7.66a5.81 5.81 0 0 0 2.84-3.23l.33-1.22 2.1-.2a13.93 13.93 0 0 0 5.57-1.66l13.17-7.66a3 3 0 0 1 2.72 0z"/><path id="F" d="M193.7 613c-2.18-1.26-3.26-2.64-3.26-4v4c0 1.38 1.08 2.76 3.26 4l3.34 1.93 5.93-3.45v-4.05l-5.93 3.45z"/><path id="G" d="M214.57 622.92a13.61 13.61 0 0 1-6.89-1.87l-3.34-1.93v4.05l3.34 1.93a13.62 13.62 0 0 0 13.78 0l13.64-7.93a2.49 2.49 0 0 1 1-.3l5.1-.52c1.73-.2 3-1 3.36-2l.87-3a1.14 1.14 0 0 1 .51-.57l13.64-7.93c2.12-1.24 3.2-2.6 3.2-4v-4c0 1.38-1.08 2.74-3.2 4L246 606.8a1.14 1.14 0 0 0-.51.57l-.88 3c-.32 1-1.63 1.76-3.36 2l-5.1.52a2.47 2.47 0 0 0-1 .3l-13.7 7.8a13.61 13.61 0 0 1-6.89 1.92z"/><path id="H" d="M186.33 548.53l-65.62-37.9-116.24 67.1 67.6 39a7.88 7.88 0 0 0 7.88 0l106.4-61.42a3.94 3.94 0 0 0 0-6.82z"/><path id="I" d="M184.37 561.65l-104.43 60.3a7.87 7.87 0 0 1-7.88 0L3.94 582.6A7.88 7.88 0 0 1 0 575.78v-78.66a7.88 7.88 0 0 1 3.94-6.82l104.4-60.3a7.87 7.87 0 0 1 7.82 0l2.63 1.5L8.4 492.88a7.87 7.87 0 0 0-3.94 6.82v78l67.6 39a7.87 7.87 0 0 0 7.88 0l108.35-64.83v2.9a7.88 7.88 0 0 1-3.92 6.82z"/><path id="J" d="M120.7 434.86v75.78L4.47 577.75v-78a7.87 7.87 0 0 1 3.94-6.82l106.4-61.48a3.94 3.94 0 0 1 5.91 3.41z"/><path id="K" d="M117 527.55l2.6-1.5a.53.53 0 0 0 0-1l-2.6-1.5a1.93 1.93 0 0 0-1.73 0l-2.6 1.5a.53.53 0 0 0 0 1l2.6 1.5a1.91 1.91 0 0 0 1.74 0z"/><path id="L" d="M110.47 531.32l2.6-1.5a.53.53 0 0 0 0-1l-2.6-1.5a1.91 1.91 0 0 0-1.73 0l-2.6 1.5a.53.53 0 0 0 0 1l2.6 1.5a1.93 1.93 0 0 0 1.73 0z"/><path id="M" d="M106.55 533.6l-2.6 1.5a1.91 1.91 0 0 1-1.74 0l-2.6-1.5a.53.53 0 0 1 0-1l2.6-1.5a1.93 1.93 0 0 1 1.74 0l2.6 1.5a.53.53 0 0 1 .01 1z"/><path id="N" d="M97.42 538.86l2.6-1.5a.53.53 0 0 0 0-1l-2.6-1.5a1.91 1.91 0 0 0-1.74 0l-2.6 1.5a.53.53 0 0 0 0 1l2.6 1.5a1.93 1.93 0 0 0 1.73 0z"/><path id="O" d="M93.5 541.13l-2.6 1.5a1.92 1.92 0 0 1-1.74 0l-2.6-1.5a.53.53 0 0 1 0-1l2.6-1.5a1.92 1.92 0 0 1 1.73 0l2.6 1.5a.53.53 0 0 1 .01 1z"/><path id="P" d="M84.36 546.4l2.64-1.5a.53.53 0 0 0 0-1l-2.6-1.5a1.91 1.91 0 0 0-1.74 0L80 543.9a.53.53 0 0 0 0 1l2.6 1.5a1.92 1.92 0 0 0 1.74 0z"/><path id="Q" d="M80.44 548.67l-2.6 1.5a1.92 1.92 0 0 1-1.73 0l-2.6-1.5a.53.53 0 0 1 0-1l2.6-1.5a1.92 1.92 0 0 1 1.73 0l2.6 1.5c.47.27.47.72-.01 1z"/><path id="R" d="M71.3 553.93l2.6-1.5a.53.53 0 0 0 0-1l-2.6-1.5a1.91 1.91 0 0 0-1.74 0l-2.57 1.5a.53.53 0 0 0 0 1l2.6 1.5a1.91 1.91 0 0 0 1.74 0z"/><path id="S" d="M58.24 561.47l2.6-1.5a.53.53 0 0 0 0-1l-2.6-1.5a1.92 1.92 0 0 0-1.73 0L53.9 559a.53.53 0 0 0 0 1l2.6 1.5a1.91 1.91 0 0 0 1.74 0z"/><path id="T" d="M54.32 563.74l-2.6 1.5a1.92 1.92 0 0 1-1.73 0l-2.6-1.5a.53.53 0 0 1 0-1l2.6-1.5a1.91 1.91 0 0 1 1.74 0l2.6 1.5c.5.26.48.72 0 1z"/><path id="U" d="M45.2 569l2.6-1.5c.48-.28.48-.73 0-1l-2.6-1.5a1.92 1.92 0 0 0-1.74 0l-2.6 1.5a.53.53 0 0 0 0 1l2.6 1.5a1.91 1.91 0 0 0 1.74 0z"/><path id="V" d="M41.28 571.28l-2.6 1.5a1.93 1.93 0 0 1-1.73 0l-2.6-1.5a.53.53 0 0 1 0-1l2.6-1.5a1.91 1.91 0 0 1 1.73 0l2.6 1.48a.54.54 0 0 1 .01 1.02z"/><path id="W" d="M30.42 572.54L27.8 574a.53.53 0 0 0 0 1l2.6 1.5a1.91 1.91 0 0 0 1.74 0l2.6-1.5a.53.53 0 0 0 0-1l-2.6-1.5a1.92 1.92 0 0 0-1.74 0z"/><path id="X" d="M126.1 529.82l-2.6 1.5a1.93 1.93 0 0 1-1.73 0l-2.6-1.5a.53.53 0 0 1 0-1l2.6-1.5a1.91 1.91 0 0 1 1.74 0l2.6 1.5a.53.53 0 0 1-.01 1z"/><path id="Y" d="M115.24 531.08l-2.6 1.5c-.48.28-.48.73 0 1l2.6 1.5a1.92 1.92 0 0 0 1.74 0l2.6-1.5a.53.53 0 0 0 0-1l-2.6-1.5a1.93 1.93 0 0 0-1.74 0z"/><path id="Z" d="M106.1 536.35l2.6-1.5a1.91 1.91 0 0 1 1.73 0l2.6 1.5a.53.53 0 0 1 0 1l-2.6 1.5a1.91 1.91 0 0 1-1.73 0l-2.6-1.5a.53.53 0 0 1 .01-1z"/><path id="a" d="M102.18 538.62l-2.6 1.5a.53.53 0 0 0 0 1l2.6 1.5a1.91 1.91 0 0 0 1.74 0l2.6-1.5a.53.53 0 0 0 0-1l-2.6-1.5a1.93 1.93 0 0 0-1.74 0z"/><path id="b" d="M93 543.9l2.6-1.5a1.91 1.91 0 0 1 1.74 0l2.6 1.5a.53.53 0 0 1 0 1l-2.6 1.5a1.91 1.91 0 0 1-1.73 0l-2.6-1.5a.53.53 0 0 1 0-1z"/><path id="c" d="M89.13 546.16l-2.6 1.5a.53.53 0 0 0 0 1l2.6 1.5a1.92 1.92 0 0 0 1.73 0l2.6-1.5a.53.53 0 0 0 0-1l-2.6-1.5a1.92 1.92 0 0 0-1.73 0z"/><path id="d" d="M80 551.43l2.6-1.5a1.93 1.93 0 0 1 1.74 0l2.6 1.5a.53.53 0 0 1 0 1l-2.6 1.5a1.92 1.92 0 0 1-1.74 0l-2.6-1.5a.53.53 0 0 1 0-1z"/><path id="e" d="M76.07 553.7l-2.6 1.5a.53.53 0 0 0 0 1l2.6 1.5a1.92 1.92 0 0 0 1.73 0l2.6-1.5a.53.53 0 0 0 0-1l-2.6-1.5a1.91 1.91 0 0 0-1.73 0z"/><path id="f" d="M53.88 566.52l2.6-1.5a1.92 1.92 0 0 1 1.73 0l2.6 1.5a.53.53 0 0 1 0 1L58.2 569a1.91 1.91 0 0 1-1.74 0l-2.6-1.5c-.47-.27-.46-.72.02-.98z"/><path id="g" d="M51.67 572.78l2.6-1.5c.48-.27.5-.73 0-1l-2.6-1.48a1.91 1.91 0 0 0-1.73 0l-2.6 1.5a.53.53 0 0 0 0 1l2.6 1.5a1.93 1.93 0 0 0 1.73 0z"/><path id="h" d="M43.4 576.55l-2.6-1.5a.53.53 0 0 1 0-1l2.6-1.5a1.93 1.93 0 0 1 1.74 0l2.6 1.5a.53.53 0 0 1 0 1l-2.6 1.5a1.91 1.91 0 0 1-1.74 0z"/><path id="i" d="M36.9 576.3l-2.6 1.5a.53.53 0 0 0 0 1l2.6 1.5a1.92 1.92 0 0 0 1.74 0l2.6-1.5a.53.53 0 0 0 0-1l-2.6-1.5a1.91 1.91 0 0 0-1.73 0z"/><path id="j" d="M132.58 533.6l-2.6 1.5a1.92 1.92 0 0 1-1.74 0l-2.6-1.5a.53.53 0 0 1 0-1l2.6-1.5a1.93 1.93 0 0 1 1.73 0l2.6 1.5a.53.53 0 0 1 0 1z"/><path id="k" d="M126.06 536.34l-2.6-1.5a1.91 1.91 0 0 0-1.74 0l-2.6 1.5a.53.53 0 0 0 0 1l2.6 1.5a1.91 1.91 0 0 0 1.73 0l2.6-1.5a.53.53 0 0 0 .01-1z"/><path id="l" d="M119.53 541.13l-2.6 1.5a1.92 1.92 0 0 1-1.73 0l-2.6-1.5a.53.53 0 0 1 0-1l2.6-1.5a1.92 1.92 0 0 1 1.74 0l2.6 1.5a.53.53 0 0 1-.01 1z"/><path id="m" d="M110.38 546.4l2.6-1.5a.53.53 0 0 0 0-1l-2.6-1.5a1.92 1.92 0 0 0-1.74 0l-2.6 1.5a.53.53 0 0 0 0 1l2.6 1.5a1.91 1.91 0 0 0 1.73 0z"/><path id="n" d="M106.46 548.67l-2.6 1.5a1.92 1.92 0 0 1-1.74 0l-2.6-1.5a.53.53 0 0 1 0-1l2.6-1.5a1.91 1.91 0 0 1 1.73 0l2.6 1.5c.5.27.5.72.02 1z"/><path id="o" d="M97.33 553.93l2.6-1.5a.53.53 0 0 0 0-1l-2.6-1.5a1.93 1.93 0 0 0-1.74 0l-2.6 1.5a.53.53 0 0 0 0 1l2.6 1.5a1.91 1.91 0 0 0 1.73 0z"/><path id="p" d="M93.4 556.2l-2.6 1.5a1.92 1.92 0 0 1-1.74 0l-2.6-1.5a.53.53 0 0 1 0-1l2.6-1.5a1.91 1.91 0 0 1 1.73 0l2.6 1.5c.5.27.5.73.01 1z"/><path id="q" d="M84.27 561.47l2.6-1.5a.53.53 0 0 0 0-1l-2.6-1.5a1.92 1.92 0 0 0-1.73 0l-2.6 1.53a.53.53 0 0 0 0 1l2.6 1.5a1.92 1.92 0 0 0 1.74 0z"/><path id="r" d="M80.35 563.74l-2.6 1.5a1.93 1.93 0 0 1-1.73 0l-2.6-1.5a.53.53 0 0 1 0-1l2.6-1.5a1.91 1.91 0 0 1 1.73 0l2.6 1.5a.53.53 0 0 1-.01 1z"/><path id="s" d="M58.17 576.55l2.6-1.5a.53.53 0 0 0 0-1l-2.6-1.5a1.92 1.92 0 0 0-1.74 0l-2.6 1.45a.53.53 0 0 0 0 1l2.6 1.5a1.91 1.91 0 0 0 1.73 0z"/><path id="t" d="M54.24 578.82l-2.6 1.5a1.92 1.92 0 0 1-1.73 0l-2.6-1.5a.53.53 0 0 1 0-1l2.6-1.5a1.91 1.91 0 0 1 1.74 0l2.6 1.5a.53.53 0 0 1-.01 1z"/><path id="u" d="M43.4 580.08l-2.6 1.5c-.48.28-.48.73 0 1l2.6 1.5a1.91 1.91 0 0 0 1.74 0l2.6-1.5a.53.53 0 0 0 0-1l-2.6-1.5a1.92 1.92 0 0 0-1.74 0z"/><path id="v" d="M132.13 536.35l2.6-1.5a1.91 1.91 0 0 1 1.74 0l2.6 1.5a.53.53 0 0 1 0 1l-2.6 1.5a1.91 1.91 0 0 1-1.74 0l-2.6-1.5a.53.53 0 0 1-.01-1z"/><path id="w" d="M128.2 538.62l-2.6 1.5a.53.53 0 0 0 0 1l2.6 1.5a1.92 1.92 0 0 0 1.73 0l2.6-1.5a.53.53 0 0 0 0-1l-2.6-1.5a1.9 1.9 0 0 0-1.73 0z"/><path id="x" d="M119.07 543.9l2.6-1.5a1.93 1.93 0 0 1 1.74 0l2.6 1.5a.53.53 0 0 1 0 1l-2.6 1.5a1.91 1.91 0 0 1-1.74 0l-2.6-1.5c-.48-.27-.48-.72 0-1z"/><path id="y" d="M106 551.43l2.6-1.5a1.93 1.93 0 0 1 1.74 0l2.6 1.5a.53.53 0 0 1 0 1l-2.6 1.5a1.91 1.91 0 0 1-1.74 0l-2.6-1.5a.53.53 0 0 1 .01-1z"/><path id="z" d="M102.1 553.7l-2.6 1.5a.53.53 0 0 0 0 1l2.6 1.5a1.93 1.93 0 0 0 1.73 0l2.6-1.5a.53.53 0 0 0 0-1l-2.6-1.5a1.91 1.91 0 0 0-1.73 0z"/><path id="AA" d="M79.9 566.52l2.6-1.5a1.92 1.92 0 0 1 1.73 0l2.6 1.5a.53.53 0 0 1 0 1l-2.6 1.48a1.92 1.92 0 0 1-1.75 0l-2.6-1.5a.53.53 0 0 1 .01-.98z"/><path id="AB" d="M76 568.77l-2.6 1.5c-.48.28-.48.75 0 1l2.6 1.5a1.94 1.94 0 0 0 1.74 0l2.6-1.5a.53.53 0 0 0 0-1l-2.6-1.5a1.91 1.91 0 0 0-1.74 0z"/><path id="AC" d="M66.85 574l2.6-1.5a1.92 1.92 0 0 1 1.73 0l2.6 1.5a.53.53 0 0 1 0 1l-2.6 1.5a1.91 1.91 0 0 1-1.73 0l-2.6-1.5a.53.53 0 0 1 0-1z"/><path id="AD" d="M62.93 576.3l-2.6 1.5a.53.53 0 0 0 0 1l2.6 1.5a1.92 1.92 0 0 0 1.74 0l2.6-1.5a.53.53 0 0 0 0-1l-2.6-1.5a1.91 1.91 0 0 0-1.74 0z"/><path id="AE" d="M101.13,494a1.51,1.51,0,0,0-1.52.15L26,536.67a4.68,4.68,0,0,0-2.13,3.68,1.49,1.49,0,0,0,.62,1.37l1.26.73a1.49,1.49,0,0,1-.62-1.37,4.69,4.69,0,0,1,2.13-3.69l73.58-42.48a1.52,1.52,0,0,1,1.52-.15Z"/><path id="AF" d="M24.5 531.43l1.26.73a1.5 1.5 0 0 1-.62-1.37 4.69 4.69 0 0 1 2.13-3.69l58.23-33.6a1.52 1.52 0 0 1 1.52-.15l-1.26-.73a1.51 1.51 0 0 0-1.52.15L26 526.38a4.69 4.69 0 0 0-2.13 3.69 1.49 1.49 0 0 0 .63 1.37z"/><path id="AG" d="M24.44,510.85l1.26.73a1.51,1.51,0,0,1-.62-1.37,4.69,4.69,0,0,1,2.13-3.69l64.3-37.12a1.51,1.51,0,0,1,1.52-.15l-1.26-.73a1.51,1.51,0,0,0-1.52.15L26,505.8a4.69,4.69,0,0,0-2.13,3.69,1.5,1.5,0,0,0,.62,1.36Z"/><path id="AH" d="M397.26 525l91.12-52.6 161.4 93.2-93.86 54.18a10.93 10.93 0 0 1-10.94 0l-147.72-85.3a5.47 5.47 0 0 1 0-9.47z"/><path id="AI" d="M400 543.2l145 83.72a10.93 10.93 0 0 0 10.94 0l94.6-54.62a10.94 10.94 0 0 0 5.47-9.47V453.6a10.94 10.94 0 0 0-5.47-9.47l-145-83.7a10.93 10.93 0 0 0-10.86 0L491 362.5l153.27 85.22a10.93 10.93 0 0 1 5.47 9.47v108.38l-93.86 54.18a10.93 10.93 0 0 1-10.94 0l-150.45-90v4a10.93 10.93 0 0 0 5.51 9.46z"/><path id="AJ" d="M488.4 367.15v105.22l161.4 93.2V457.18a10.93 10.93 0 0 0-5.47-9.47L496.6 362.4a5.47 5.47 0 0 0-8.2 4.74z"/><path id="AK" d="M493.54,495.85l-3.62-2.08a.73.73,0,0,1,0-1.39l3.6-2.08a2.67,2.67,0,0,1,2.41,0l3.63,2.08a.74.74,0,0,1,0,1.39l-3.6,2.08a2.66,2.66,0,0,1-2.41,0Z"/><path id="AL" d="M502.6 501.1L499 499a.73.73 0 0 1 0-1.39l3.6-2.08a2.65 2.65 0 0 1 2.41 0l3.63 2.08a.74.74 0 0 1 0 1.39l-3.6 2.08a2.68 2.68 0 0 1-2.41 0z"/><path id="AM" d="M508 504.24l3.63 2.08a2.65 2.65 0 0 0 2.41 0l3.6-2.08a.74.74 0 0 0 0-1.39l-3.63-2.08a2.68 2.68 0 0 0-2.41 0l-3.6 2.08a.73.73 0 0 0 0 1.39z"/><path id="AN" d="M520.72,511.55l-3.62-2.08a.74.74,0,0,1,0-1.39l3.6-2.08a2.66,2.66,0,0,1,2.41,0l3.63,2.08a.74.74,0,0,1,0,1.39l-3.6,2.08a2.68,2.68,0,0,1-2.41,0Z"/><path id="AO" d="M526.18 514.7l3.62 2.08a2.66 2.66 0 0 0 2.41 0l3.6-2.08a.73.73 0 0 0 0-1.39l-3.63-2.08a2.66 2.66 0 0 0-2.41 0l-3.6 2.08a.73.73 0 0 0 .01 1.39z"/><path id="AP" d="M538.86,522l-3.62-2.08a.73.73,0,0,1,0-1.39l3.6-2.08a2.65,2.65,0,0,1,2.41,0l3.62,2.08a.74.74,0,0,1,0,1.39l-3.6,2.08a2.66,2.66,0,0,1-2.41,0Z"/><path id="AQ" d="M544.3 525.17l3.63 2.08a2.67 2.67 0 0 0 2.41 0l3.6-2.08a.73.73 0 0 0 0-1.39l-3.62-2.08a2.67 2.67 0 0 0-2.41 0l-3.6 2.08a.73.73 0 0 0-.01 1.39z"/><path id="AR" d="M557 532.5l-3.63-2.08a.73.73 0 0 1 0-1.39l3.6-2.08a2.66 2.66 0 0 1 2.41 0L563 529a.73.73 0 0 1 0 1.39l-3.6 2.08a2.65 2.65 0 0 1-2.41 0z"/><path id="AS" d="M562.43 535.64l3.63 2.08a2.66 2.66 0 0 0 2.41 0l3.6-2.08a.73.73 0 0 0 0-1.39l-3.62-2.08a2.65 2.65 0 0 0-2.41 0l-3.6 2.08a.73.73 0 0 0-.01 1.39z"/><path id="AT" d="M575.13,543l-3.63-2.08a.73.73,0,0,1,0-1.39l3.6-2.08a2.67,2.67,0,0,1,2.41,0l3.62,2.08a.73.73,0,0,1,0,1.39l-3.6,2.08a2.65,2.65,0,0,1-2.41,0Z"/><path id="AU" d="M580.57 546.1l3.63 2.08a2.67 2.67 0 0 0 2.41 0l3.6-2.08a.74.74 0 0 0 0-1.39l-3.62-2.08a2.65 2.65 0 0 0-2.41 0l-3.6 2.08c-.68.38-.68 1-.01 1.4z"/><path id="AV" d="M593.26 553.43l-3.62-2.08c-.67-.4-.67-1 0-1.4l3.6-2.08a2.67 2.67 0 0 1 2.41 0l3.63 2.08a.73.73 0 0 1 0 1.39l-3.6 2.08a2.66 2.66 0 0 1-2.41 0z"/><path id="AW" d="M598.68 556.58l3.63 2.08a2.68 2.68 0 0 0 2.41 0l3.6-2.08a.74.74 0 0 0 0-1.39l-3.63-2.08a2.65 2.65 0 0 0-2.41 0l-3.6 2.06a.75.75 0 0 0 0 1.41z"/><path id="AX" d="M613.76,558.33l3.63,2.08a.73.73,0,0,1,0,1.39l-3.6,2.08a2.66,2.66,0,0,1-2.41,0l-3.62-2.08a.73.73,0,0,1,0-1.39l3.6-2.08a2.67,2.67,0,0,1,2.41,0Z"/><path id="AY" d="M480.9 499l3.63 2.08a2.68 2.68 0 0 0 2.41 0l3.6-2.08a.74.74 0 0 0 0-1.39l-3.62-2.08a2.66 2.66 0 0 0-2.41 0l-3.6 2.08a.73.73 0 0 0-.01 1.39z"/><path id="AZ" d="M496 500.76l3.62 2.08c.67.4.67 1 0 1.4l-3.6 2.08a2.67 2.67 0 0 1-2.41 0l-3.6-2.08a.73.73 0 0 1 0-1.39l3.6-2.08a2.68 2.68 0 0 1 2.41 0z"/><path id="Aa" d="M508.67 508.08L505 506a2.65 2.65 0 0 0-2.41 0l-3.6 2.08a.73.73 0 0 0 0 1.39l3.62 2.08a2.66 2.66 0 0 0 2.41 0l3.6-2.08a.73.73 0 0 0 .05-1.39z"/><path id="Ab" d="M514.1 511.23l3.63 2.08a.73.73 0 0 1 0 1.39l-3.6 2.08a2.67 2.67 0 0 1-2.41 0l-3.62-2.08a.73.73 0 0 1 0-1.39l3.6-2.08a2.68 2.68 0 0 1 2.41 0z"/><path id="Ac" d="M526.82 518.54l-3.63-2.08a2.65 2.65 0 0 0-2.41 0l-3.6 2.08a.73.73 0 0 0 0 1.39l3.63 2.08a2.65 2.65 0 0 0 2.41 0l3.6-2.08a.74.74 0 0 0 0-1.39z"/><path id="Ad" d="M532.24,521.7l3.63,2.08a.73.73,0,0,1,0,1.39l-3.6,2.08a2.66,2.66,0,0,1-2.41,0l-3.62-2.08a.73.73,0,0,1,0-1.39l3.6-2.08a2.66,2.66,0,0,1,2.41,0Z"/><path id="Ae" d="M544.93 529l-3.62-2.08a2.67 2.67 0 0 0-2.41 0l-3.6 2.08a.73.73 0 0 0 0 1.39l3.63 2.08a2.66 2.66 0 0 0 2.41 0l3.6-2.08a.73.73 0 0 0-.01-1.39z"/><path id="Af" d="M550.37,532.16l3.62,2.08a.73.73,0,0,1,0,1.39l-3.6,2.08a2.66,2.66,0,0,1-2.41,0l-3.63-2.08a.73.73,0,0,1,0-1.39l3.6-2.08a2.66,2.66,0,0,1,2.41,0Z"/><path id="Ag" d="M563.06 539.48l-3.62-2.08a2.67 2.67 0 0 0-2.41 0l-3.6 2.08a.73.73 0 0 0 0 1.39l3.63 2.08a2.65 2.65 0 0 0 2.41 0l3.6-2.08c.66-.38.66-1-.01-1.4z"/><path id="Ah" d="M568.5,542.63l3.62,2.08a.73.73,0,0,1,0,1.39l-3.6,2.08a2.67,2.67,0,0,1-2.41,0l-3.63-2.08a.74.74,0,0,1,0-1.39l3.6-2.08a2.66,2.66,0,0,1,2.41,0Z"/><path id="Ai" d="M581.2 550l-3.62-2.08a2.67 2.67 0 0 0-2.41 0l-3.6 2.08a.73.73 0 0 0 0 1.39l3.63 2.08a2.66 2.66 0 0 0 2.41 0l3.6-2.08c.66-.4.65-1.06-.01-1.4z"/><path id="Aj" d="M584.26 558.66l-3.63-2.08c-.67-.37-.67-1 0-1.4l3.6-2.06a2.65 2.65 0 0 1 2.41 0l3.63 2.08a.74.74 0 0 1 0 1.39l-3.6 2.08a2.68 2.68 0 0 1-2.41 0z"/><path id="Ak" d="M595.72,563.9l3.6-2.08a.74.74,0,0,0,0-1.39l-3.63-2.08a2.68,2.68,0,0,0-2.41,0l-3.6,2.08a.73.73,0,0,0,0,1.39l3.62,2.08a2.66,2.66,0,0,0,2.41,0Z"/><path id="Al" d="M604.78 563.56l3.63 2.08a.74.74 0 0 1 0 1.39l-3.6 2.08a2.68 2.68 0 0 1-2.41 0l-3.63-2.1a.73.73 0 0 1 0-1.39l3.6-2.08a2.65 2.65 0 0 1 2.41 0z"/><path id="Am" d="M471.9 504.24l3.63 2.08a2.66 2.66 0 0 0 2.41 0l3.6-2.08a.73.73 0 0 0 0-1.39l-3.62-2.08a2.68 2.68 0 0 0-2.41 0l-3.6 2.08a.73.73 0 0 0-.01 1.39z"/><path id="An" d="M481 508.07l3.6-2.08a2.65 2.65 0 0 1 2.41 0l3.62 2.08a.74.74 0 0 1 0 1.39l-3.6 2.08a2.66 2.66 0 0 1-2.41 0l-3.62-2.1a.74.74 0 0 1 0-1.38z"/><path id="Ao" d="M490 514.7l3.63 2.08a2.66 2.66 0 0 0 2.41 0l3.6-2.08a.73.73 0 0 0 0-1.39l-3.64-2.08a2.67 2.67 0 0 0-2.41 0l-3.6 2.08a.74.74 0 0 0 .01 1.39z"/><path id="Ap" d="M502.72,522l-3.62-2.08a.73.73,0,0,1,0-1.39l3.6-2.08a2.67,2.67,0,0,1,2.41,0l3.63,2.08a.74.74,0,0,1,0,1.39l-3.6,2.08a2.66,2.66,0,0,1-2.41,0Z"/><path id="Aq" d="M508.16 525.17l3.63 2.08a2.66 2.66 0 0 0 2.41 0l3.6-2.08a.73.73 0 0 0 0-1.39l-3.63-2.08a2.65 2.65 0 0 0-2.41 0l-3.6 2.08c-.67.38-.66 1 0 1.4z"/><path id="Ar" d="M520.85 532.5l-3.62-2.08a.73.73 0 0 1 0-1.39l3.6-2.08a2.68 2.68 0 0 1 2.41 0l3.63 2.08a.74.74 0 0 1 0 1.39l-3.6 2.08a2.66 2.66 0 0 1-2.41 0z"/><path id="As" d="M526.3 535.64l3.62 2.08a2.66 2.66 0 0 0 2.41 0l3.6-2.08a.73.73 0 0 0 0-1.39l-3.63-2.08a2.65 2.65 0 0 0-2.41 0l-3.6 2.08c-.65.38-.65 1 .01 1.4z"/><path id="At" d="M539,543l-3.62-2.08a.73.73,0,0,1,0-1.39l3.6-2.08a2.66,2.66,0,0,1,2.41,0l3.63,2.08a.73.73,0,0,1,0,1.39L541.4,543a2.66,2.66,0,0,1-2.41,0Z"/><path id="Au" d="M557.12 553.43l-3.63-2.08c-.66-.4-.67-1 0-1.4l3.6-2.08a2.67 2.67 0 0 1 2.41 0l3.63 2.08a.73.73 0 0 1 0 1.39l-3.6 2.08a2.65 2.65 0 0 1-2.41 0z"/><path id="Av" d="M562.55 556.58l3.63 2.08a2.68 2.68 0 0 0 2.41 0l3.6-2.08a.73.73 0 0 0 0-1.39l-3.62-2.08a2.66 2.66 0 0 0-2.41 0l-3.6 2.08a.73.73 0 0 0-.01 1.39z"/><path id="Aw" d="M575.23 563.9l-3.63-2.08a.74.74 0 0 1 0-1.39l3.6-2.08a2.67 2.67 0 0 1 2.41 0l3.62 2.08a.73.73 0 0 1 0 1.39l-3.6 2.08a2.66 2.66 0 0 1-2.41 0z"/><path id="Ax" d="M580.68 567l3.63 2.08a2.68 2.68 0 0 0 2.41 0l3.6-2.08a.74.74 0 0 0 0-1.39l-3.62-2.08a2.65 2.65 0 0 0-2.41 0l-3.6 2.08a.73.73 0 0 0-.01 1.39z"/><path id="Ay" d="M595.75 568.8l3.63 2.08c.67.38.67 1 0 1.4l-3.6 2.08a2.65 2.65 0 0 1-2.41 0l-3.62-2.08a.73.73 0 0 1 0-1.39l3.6-2.08a2.67 2.67 0 0 1 2.41 0z"/><path id="Az" d="M472.53 508.08L468.9 506a2.65 2.65 0 0 0-2.41 0l-3.6 2.08a.74.74 0 0 0 0 1.39l3.63 2.08a2.66 2.66 0 0 0 2.41 0l3.6-2.08a.73.73 0 0 0 0-1.39z"/><path id="BA" d="M478,511.23l3.62,2.08a.73.73,0,0,1,0,1.39l-3.6,2.08a2.66,2.66,0,0,1-2.41,0L472,514.7a.73.73,0,0,1,0-1.39l3.6-2.08a2.65,2.65,0,0,1,2.41,0Z"/><path id="BB" d="M490.66 518.54l-3.66-2.08a2.68 2.68 0 0 0-2.41 0l-3.6 2.08a.74.74 0 0 0 0 1.39l3.63 2.08a2.66 2.66 0 0 0 2.41 0l3.6-2.08c.7-.38.7-1 .03-1.4z"/><path id="BC" d="M496.1 521.7l3.63 2.08a.74.74 0 0 1 0 1.39l-3.6 2.08a2.66 2.66 0 0 1-2.41 0l-3.63-2.08a.73.73 0 0 1 0-1.39l3.6-2.08a2.65 2.65 0 0 1 2.41 0z"/><path id="BD" d="M508.8 529l-3.63-2.08a2.67 2.67 0 0 0-2.41 0l-3.6 2.08a.73.73 0 0 0 0 1.39l3.62 2.08a2.66 2.66 0 0 0 2.41 0l3.6-2.08a.73.73 0 0 0 .01-1.39z"/><path id="BE" d="M514.23,532.16l3.63,2.08a.73.73,0,0,1,0,1.39l-3.6,2.08a2.67,2.67,0,0,1-2.41,0l-3.62-2.08a.73.73,0,0,1,0-1.39l3.6-2.08a2.65,2.65,0,0,1,2.41,0Z"/><path id="BF" d="M526.92 539.48l-3.63-2.08a2.67 2.67 0 0 0-2.41 0l-3.6 2.08a.73.73 0 0 0 0 1.39l3.63 2.08a2.65 2.65 0 0 0 2.41 0l3.6-2.08a.73.73 0 0 0 0-1.39z"/><path id="BG" d="M532.36,542.63l3.63,2.08a.73.73,0,0,1,0,1.39l-3.6,2.08a2.68,2.68,0,0,1-2.41,0l-3.62-2.08a.73.73,0,0,1,0-1.39l3.6-2.08a2.65,2.65,0,0,1,2.41,0Z"/><path id="BH" d="M545,550l-3.63-2.08a2.66,2.66,0,0,0-2.41,0l-3.6,2.08a.73.73,0,0,0,0,1.39l3.63,2.08a2.66,2.66,0,0,0,2.43,0l3.6-2.08A.74.74,0,0,0,545,550Z"/><path id="BI" d="M550.5 553.08l3.62 2.08c.66.4.67 1 0 1.4l-3.6 2.08a2.69 2.69 0 0 1-2.41 0l-3.62-2.08a.74.74 0 0 1 0-1.39l3.6-2.08a2.66 2.66 0 0 1 2.41 0z"/><path id="BJ" d="M563.18 560.4l-3.62-2.08a2.67 2.67 0 0 0-2.41 0l-3.6 2.08a.73.73 0 0 0 0 1.39l3.63 2.08a2.65 2.65 0 0 0 2.41 0l3.6-2.08a.73.73 0 0 0-.01-1.39z"/><path id="BK" d="M568.62,563.56l3.62,2.08a.73.73,0,0,1,0,1.39l-3.6,2.08a2.68,2.68,0,0,1-2.41,0L562.6,567a.74.74,0,0,1,0-1.39l3.6-2.08a2.66,2.66,0,0,1,2.41,0Z"/><path id="BL" d="M581.32 570.88l-3.62-2.08a2.67 2.67 0 0 0-2.41 0l-3.6 2.08a.74.74 0 0 0 0 1.39l3.63 2.08a2.65 2.65 0 0 0 2.41 0l3.6-2.08a.74.74 0 0 0-.01-1.39z"/><path id="BM" d="M586.75,574l3.62,2.08a.73.73,0,0,1,0,1.39l-3.6,2.08a2.68,2.68,0,0,1-2.41,0l-3.63-2.08a.74.74,0,0,1,0-1.39l3.6-2.08a2.66,2.66,0,0,1,2.41,0Z"/><path id="BN" d="M615.46,503.4l-94.38-54.48a1.94,1.94,0,0,0-1.95-.19l-1.62.94a1.94,1.94,0,0,1,1.95.2l94.36,54.48a6,6,0,0,1,2.73,4.72,1.92,1.92,0,0,1-.8,1.76l1.62-.94a1.92,1.92,0,0,0,.8-1.76,6,6,0,0,0-2.71-4.72Z"/><path id="BO" d="M519.52 436.66L603 484.9a6 6 0 0 1 2.73 4.73 1.91 1.91 0 0 1-.8 1.76l1.62-.94a1.92 1.92 0 0 0 .8-1.76 6 6 0 0 0-2.73-4.73l-83.5-48.22a1.92 1.92 0 0 0-1.95-.19l-1.62.93a1.94 1.94 0 0 1 1.95.2z"/><path id="BP" d="M519.55 423.47L613.9 478a6 6 0 0 1 2.73 4.72 1.91 1.91 0 0 1-.8 1.76l1.62-.94a1.93 1.93 0 0 0 .8-1.76 6 6 0 0 0-2.73-4.72l-94.36-54.48a1.94 1.94 0 0 0-1.95-.19l-1.62.94a1.94 1.94 0 0 1 1.95.19z"/><path id="BQ" d="M519.6 410.27l68.3 39.44a6 6 0 0 1 2.73 4.72 1.92 1.92 0 0 1-.8 1.76l1.62-.94a1.91 1.91 0 0 0 .8-1.76 6 6 0 0 0-2.73-4.72l-68.3-39.44a1.95 1.95 0 0 0-2-.19l-1.62.94a2 2 0 0 1 2 .2z"/><path id="BR" d="M611.44,581a9.81,9.81,0,0,0-8.85,0l-20.16,11.64a9.82,9.82,0,0,0-4.43,7.67v23.28a9.82,9.82,0,0,0,4.43,7.67l20.16,11.64a9.82,9.82,0,0,0,8.85,0l20.16-11.64a9.82,9.82,0,0,0,4.42-7.67V600.33a9.82,9.82,0,0,0-4.42-7.67Z"/><path id="BS" d="M207.87 424.14l14.83 8.56a.9.9 0 0 1 .45.78v.6a.45.45 0 0 1-.67.39l-14.83-8.56a.9.9 0 0 1-.45-.78v-.6a.45.45 0 0 1 .67-.4z"/><path id="BT" d="M335.44 432.55a5.42 5.42 0 0 0-4.88 0L319.44 439a5.41 5.41 0 0 0-2.44 4.2V456a5.41 5.41 0 0 0 2.44 4.23l11.12 6.42a5.42 5.42 0 0 0 4.88 0l11.12-6.42A5.41 5.41 0 0 0 349 456v-12.8a5.41 5.41 0 0 0-2.44-4.23z"/><path id="BU" d="M256.86 722l-.05 9.6 31.77-.34-.7 18.4h16.57l.16-27.66z"/><path id="BV" d="M210.26 730.3l51.8 52.12 13.46-7.77-51.8-52.12z"/><path id="BW" d="M190.16 760.48h16.57l-.7 18.4 31.76-.34v9.6H190z"/><path id="BX" d="M626.47 429.83V439q0 8.16-5.35 8.15a21 21 0 0 1 5.28 14.27v9.16a9.76 9.76 0 0 0 4.42 7.65l3.54 2c0 4.08-2.68 5.6-6.22 3.55a17.47 17.47 0 0 1-8-13.77v-10.7A24.1 24.1 0 0 0 614 443q6.22 0 6.24-9.17v-10.7c0-5.1 3.57-7.12 8-4.56l15.07 8.7c0 4.07-2.68 5.6-6.22 3.55l-6.2-3.58c-2.42-1.37-4.42-.25-4.42 2.58z"/><path id="BY" d="M637.56 488.83l10-58.5c13.2 10.4 23.18 29.48 23.13 45.46 0 18-12.8 25.26-28.45 16.2a43.44 43.44 0 0 1-4.68-3.16z"/><path id="BZ" d="M627 415.5c1.45-.84 3.46-.7 5.68.58l15.06 8.7c0 2-.67 3.42-1.77 4.06l-4.4 2.56c1.1-.64 1.77-2 1.77-4.06l-15.06-8.7c-2.23-1.3-4.24-1.42-5.7-.57z"/><path id="Ba" d="M630.75 468v-9.16a21 21 0 0 0-4.8-13.69L628 444q2.8-1.62 2.8-7.52v-9.16a3.09 3.09 0 0 1 1.29-2.83l-4.4 2.56a3.09 3.09 0 0 0-1.3 2.84v9.15a12.09 12.09 0 0 1-1.08 5.66l-4.27 2.48a21 21 0 0 1 5.28 14.27v9.16a9.77 9.77 0 0 0 4.42 7.65l3.54 2c0 2-.66 3.42-1.76 4.06l4.4-2.54c1.1-.62 1.76-2 1.77-4.06l-3.55-2a9.8 9.8 0 0 1-4.4-7.72z"/><path id="Bb" d="M647.6 430.33l4.4-2.56c13.2 10.4 23.18 29.48 23.14 45.46 0 8.94-3.18 15.23-8.27 18.2l-4.4 2.56c5.1-3 8.25-9.25 8.27-18.2.04-15.98-9.94-35.06-23.14-45.46z"/><path id="Bc" d="M193.44 544.55a5.42 5.42 0 0 0-4.88 0L177.44 551a5.41 5.41 0 0 0-2.44 4.2V568a5.41 5.41 0 0 0 2.44 4.23l11.12 6.42a5.42 5.42 0 0 0 4.88 0l11.12-6.42A5.41 5.41 0 0 0 207 568v-12.8a5.41 5.41 0 0 0-2.44-4.23z"/><path id="Bd" d="M140.14 449.4l-.14 41.08a6.57 6.57 0 0 0 3 5.16l73.73 42.57c1.65 1 3 .2 3-1.7l.14-41.06z"/><path id="Be" d="M219.7 536.46l.14-41.06-79.7-46 1.5-.86 79.7 46-.14 41.08a2.12 2.12 0 0 1-.87 1.92l-1.48.86a2.15 2.15 0 0 0 .86-1.94z"/><path id="Bf" d="M142.5,443.17a2.11,2.11,0,0,1,2.13.21l73.73,42.56a6.58,6.58,0,0,1,3,5.16v3.43l-1.48.86V492a6.57,6.57,0,0,0-3-5.16l-73.73-42.56A2.1,2.1,0,0,0,141,444Z"/><path id="Bg" d="M152.33 451.06a3.28 3.28 0 0 1 1.49 2.58 1.05 1.05 0 0 1-.43 1l-.5.3a1.05 1.05 0 0 0 .43-1 3.28 3.28 0 0 0-1.49-2.58 1.05 1.05 0 0 0-1.05-.11l.5-.28a1.05 1.05 0 0 1 1.05.1z"/><path id="Bh" d="M148.22 448.7a3.29 3.29 0 0 1 1.49 2.58 1 1 0 0 1-.44 1l-.5.3a1.06 1.06 0 0 0 .44-1 3.28 3.28 0 0 0-1.49-2.58 1.06 1.06 0 0 0-1.05-.11l.5-.3a1.05 1.05 0 0 1 1.05.11z"/><path id="Bi" d="M143.06 446.2a1.05 1.05 0 0 1 1.05.1 3.28 3.28 0 0 1 1.49 2.58 1.05 1.05 0 0 1-.44 1l-.5.3a1.06 1.06 0 0 0 .44-1 3.29 3.29 0 0 0-1.49-2.58 1.05 1.05 0 0 0-1.05-.11z"/><path id="Bj" d="M148.72 482.4l45.74 26.42c.93.54 1.68.1 1.68-1a3.68 3.68 0 0 0-1.67-2.9l-45.75-26.42c-.93-.54-1.68-.1-1.68 1a3.68 3.68 0 0 0 1.67 2.9z"/><path id="Bk" d="M148.74 474.32l37.38 21.58c.93.54 1.68.1 1.7-1a3.69 3.69 0 0 0-1.67-2.9l-37.4-21.58c-.93-.54-1.68-.1-1.68 1a3.69 3.69 0 0 0 1.67 2.9z"/><path id="Bl" d="M148.76 466.24l50.53 29.17c.93.53 1.68.1 1.7-1a3.7 3.7 0 0 0-1.68-2.9l-50.53-29.17c-.93-.54-1.68-.1-1.68 1a3.69 3.69 0 0 0 1.67 2.9z"/><path id="Bm" d="M267.32 646.64a6.26 6.26 0 0 0-5.64 0l-12.86 7.42A6.26 6.26 0 0 0 246 659v14.8a6.26 6.26 0 0 0 2.82 4.89l12.86 7.42a6.26 6.26 0 0 0 5.64 0l12.86-7.42a6.26 6.26 0 0 0 2.82-4.89V659a6.26 6.26 0 0 0-2.82-4.89z"/><path id="Bn" d="M420 404.16l21.36 12.4c6.73 3.9 6.7 8.58-.1 12.5l-5.23 3-9.3-5.4 4.5-2.6c1.18-.7 1.2-1.8-.05-2.5l-20.64-12a9.06 9.06 0 0 1-4.45-5.06l-.52-1.9-3.3-.3a21.75 21.75 0 0 1-8.72-2.59l-20.63-12a4.68 4.68 0 0 0-4.26 0l-4.5 2.6-9.34-5.44 5.23-3a21.41 21.41 0 0 1 21.58 0L403 394.3a4.11 4.11 0 0 0 1.56.47l8 .8c2.7.3 4.75 1.5 5.27 3.06l1.36 4.64a1.64 1.64 0 0 0 .81.89z"/><path id="Bo" d="M408.7 436.38a4.72 4.72 0 0 0 2.17-.5l4.5-2.6 9.3 5.4-5.23 3a21.32 21.32 0 0 1-21.57 0l-21.36-12.4a3.87 3.87 0 0 0-1.56-.47l-8-.8c-2.7-.3-4.75-1.5-5.27-3.06l-1.37-4.64a1.79 1.79 0 0 0-.8-.9L338.15 407c-6.65-3.87-6.68-8.6.07-12.5l5.23-3 9.34 5.44-4.5 2.6a1.31 1.31 0 0 0 0 2.46l20.6 12a9.06 9.06 0 0 1 4.45 5.05l.52 1.92 3.3.3a21.78 21.78 0 0 1 8.72 2.6l20.63 12a4.71 4.71 0 0 0 2.16.51z"/><path id="Bp" d="M368.72 394.1l-4.5 2.6-9.36-5.43v-6.35l9.34 5.44 4.5-2.6a4.67 4.67 0 0 1 4.26 0l20.63 12a21.77 21.77 0 0 0 8.72 2.6l3.3.3.52 1.9a9.1 9.1 0 0 0 4.45 5.06l20.63 12a1.55 1.55 0 0 1 .64.51 1.56 1.56 0 0 1 .29.77v6.35a1.56 1.56 0 0 0-.93-1.28l-20.6-12a9.09 9.09 0 0 1-4.45-5.06l-.52-1.9-3.3-.3a21.79 21.79 0 0 1-8.72-2.6l-20.62-12a4.71 4.71 0 0 0-4.26 0z"/><path id="Bq" d="M441.28 429.07c3.4-2 5.1-4.13 5.1-6.28v6.36c0 2.16-1.7 4.32-5.1 6.28l-5.23 3-9.3-5.4v-6.33l9.3 5.4z"/><path id="Br" d="M348.33 405.87l4.5-2.6v-6.35l-4.5 2.6a1.49 1.49 0 0 0-.89 1.24v6.35a1.51 1.51 0 0 1 .88-1.24z"/><path id="Bs" d="M408.62 444.63a21.32 21.32 0 0 0 10.79-2.93l5.23-3v6.3l-5.23 3a21.32 21.32 0 0 1-21.57 0l-21.36-12.4a3.88 3.88 0 0 0-1.56-.47l-8-.8c-2.7-.3-4.75-1.5-5.27-3.06l-1.36-4.63a1.79 1.79 0 0 0-.8-.89l-21.36-12.4c-3.32-1.94-5-4.08-5-6.23v-6.34c0 2.15 1.7 4.3 5 6.23l21.36 12.4a1.79 1.79 0 0 1 .8.9l1.37 4.63c.5 1.57 2.55 2.76 5.27 3.06l8 .8a3.86 3.86 0 0 1 1.56.47l21.36 12.4a21.32 21.32 0 0 0 10.77 2.96z"/><path id="Bt" d="M345.67 550.64a6.26 6.26 0 0 0-5.64 0l-12.86 7.42a6.26 6.26 0 0 0-2.82 4.89v14.85a6.26 6.26 0 0 0 2.82 4.89L340 590.1a6.26 6.26 0 0 0 5.64 0l12.86-7.42a6.26 6.26 0 0 0 2.82-4.89V563a6.26 6.26 0 0 0-2.82-4.89z"/><path id="Bu" d="M490.35 665.22c24.9-9.93 59.2-8.5 81.24 4.3 24.83 14.42 24.7 37.8-.28 52.22a68.08 68.08 0 0 1-8.14 4z"/><path id="Bv" d="M543.1 726.65l5.65-3.26c5.6 3.26 5.6 8.16-.08 11.44-7.07 4.08-18.34 4.08-25.36 0l-14.75-8.57a38.45 38.45 0 0 0-27.44-4.48q5-8.6-7.67-15.94l-14.73-8.57c-7-4.08-7-10.6.08-14.7l24-13.9c5.62 3.26 5.6 8.16-.06 11.42l-9.9 5.7c-3.9 2.25-3.9 5.92 0 8.16l12.64 7.34q11.24 6.53 7 13.88a33.52 33.52 0 0 1 23.91 4.07l12.6 7.38a15.58 15.58 0 0 0 14.11 0z"/><path id="Bw" d="M590.13 695.46c0 9.5-6.25 19-18.82 26.3a68 68 0 0 1-8.14 4l-72.8-60.52v8.12l72.8 60.52a68.17 68.17 0 0 0 8.14-4c12.57-7.26 18.84-16.78 18.82-26.3z"/><path id="Bx" d="M472.9 694l9.9-5.7c2.84-1.64 4.26-3.7 4.26-5.75v-8.12c0 2.05-1.42 4.1-4.26 5.75l-9.9 5.7c-1.9 1.12-2.9 2.6-2.9 4.12v8c0-1.47 1-2.93 2.9-4z"/><path id="By" d="M523.32 734.8c7 4.08 18.3 4.08 25.36 0 2.83-1.62 4.25-3.65 4.26-5.7v8.05c0 2.05-1.4 4.1-4.26 5.75-7.06 4.08-18.34 4.08-25.36 0l-14.74-8.57a38.45 38.45 0 0 0-27.45-4.48v-8.12l.4-.07h.2q-1.9-4-8.25-7.7l-14.74-8.57c-3.5-2-5.24-4.66-5.24-7.3V690c0 2.64 1.75 5.27 5.24 7.3l14.74 8.57q9.07 5.26 9.07 11.15v4.52a41.09 41.09 0 0 1 9.9-.41v-5.87a7.89 7.89 0 0 0 1.18-4v8.12a6.92 6.92 0 0 1-.26 1.84 38.13 38.13 0 0 1 15.2 5.08z"/><path id="Bz" d="M512.24 555.82l.3 108.54a14.81 14.81 0 0 1-6.72 11.64l-166.37 96c-3.72 2.15-6.75.43-6.76-3.85l-.3-108.54z"/><path id="CA" d="M332.7 768.15l-.3-108.54 179.84-103.83-3.34-1.93-179.84 103.83.3 108.5c0 2.12.75 3.62 2 4.33l3.35 1.95c-1.25-.68-2-2.17-2-4.3z"/><path id="CB" d="M506.9 541.8c-1.22-.7-2.92-.6-4.75.48l-166.37 96a14.85 14.85 0 0 0-6.72 11.73v7.75l3.35 1.95v-7.75a14.83 14.83 0 0 1 6.72-11.65l166.37-96.1c1.87-1.08 3.57-1.18 4.75-.47z"/><path id="CC" d="M505.46 544.2c3.72-2.15 6.75-.42 6.77 3.87v7.75L332.4 659.66v-7.75a14.83 14.83 0 0 1 6.72-11.65z"/><path id="CD" d="M363,631.08a2.38,2.38,0,0,0-2.38.24,7.38,7.38,0,0,0-3.36,5.82,2.37,2.37,0,0,0,1,2.16l1.12.65a2.38,2.38,0,0,1-1-2.15,7.38,7.38,0,0,1,3.36-5.82,2.38,2.38,0,0,1,2.38-.24Z"/><path id="CE" d="M358.6 704.4l2.23 1.3a2.64 2.64 0 0 1-1.1-2.42 8.32 8.32 0 0 1 3.77-6.54l109.4-63.16a2.67 2.67 0 0 1 2.69-.26l-2.23-1.3a2.68 2.68 0 0 0-2.69.27l-109.4 63.15a8.32 8.32 0 0 0-3.77 6.54 2.64 2.64 0 0 0 1.1 2.42z"/><path id="CF" d="M363.4 660.25l130.46-75.32c2.1-1.2 3.8-.24 3.8 2.17a8.3 8.3 0 0 1-3.77 6.53L363.4 669c-2.1 1.2-3.8.22-3.8-2.16a8.32 8.32 0 0 1 3.77-6.54z"/><path id="CG" d="M363.47 687.2l94.43-54.5a8.34 8.34 0 0 0 3.77-6.54c0-2.38-1.7-3.37-3.8-2.16l-94.43 54.5a8.31 8.31 0 0 0-3.78 6.54c0 2.4 1.7 3.34 3.8 2.16z"/><path id="CH" d="M483.46 645.74L363.55 715a8.31 8.31 0 0 0-3.78 6.54c0 2.38 1.7 3.38 3.8 2.16l119.9-69.23a8.3 8.3 0 0 0 3.77-6.54c0-2.42-1.7-3.4-3.8-2.2z"/><path id="CI" d="M446.76 685.2l-83.2 48a8.32 8.32 0 0 0-3.77 6.54c0 2.38 1.7 3.37 3.8 2.16l83.2-48a8.29 8.29 0 0 0 3.77-6.53c0-2.38-1.7-3.38-3.8-2.17z"/><path id="CJ" d="M116.88 599.66v14.62q0 13-8.53 13a33.54 33.54 0 0 1 8.43 22.77v14.62a15.58 15.58 0 0 0 7 12.21l5.65 3.26c0 6.5-4.27 8.92-9.92 5.66-7.07-4.08-12.68-13.85-12.68-22v-17.06a38.44 38.44 0 0 0-9.84-26q9.92 0 10-14.63v-17.05c0-8.13 5.7-11.35 12.77-7.27l24 13.88c0 6.5-4.27 8.92-9.93 5.66l-9.83-5.7c-3.9-2.24-7.12-.44-7.12 4.04z"/><path id="CK" d="M134.58 693.8l16-93.33c21.06 16.6 37 47 36.9 72.52-.08 28.7-20.4 40.3-45.4 25.86a69.32 69.32 0 0 1-7.51-5.05z"/><path id="CL" d="M117.72 576.82c2.3-1.34 5.5-1.14 9.07.92l24 13.88-7 4.08-24-13.87c-3.56-2.05-6.76-2.26-9.07-.92z"/><path id="CM" d="M143.8 595.7l7-4.08c0 3.23-1.07 5.46-2.82 6.48l-7 4.08c1.76-1.03 2.82-3.25 2.82-6.48z"/><path id="CN" d="M123.73 660.58v-14.62a33.46 33.46 0 0 0-7.66-21.84l3.28-1.9q4.46-2.6 4.48-12V595.6c0-2.22.8-3.8 2.07-4.52l-7 4.08c-1.27.74-2.06 2.3-2.07 4.52v14.6q0 5.8-1.73 9l-6.8 4a33.54 33.54 0 0 1 8.44 22.73v14.62a15.59 15.59 0 0 0 7 12.21l5.65 3.26c0 3.23-1.06 5.46-2.8 6.48l7-4c1.75-1 2.8-3.24 2.82-6.48l-5.65-3.26a15.62 15.62 0 0 1-7.02-12.25z"/><path id="CO" d="M150.58 600.46l7-4.08c21.07 16.6 37 47 36.9 72.52 0 14.26-5.08 24.3-13.2 29l-7 4.08c8.12-4.72 13.16-14.75 13.2-29 .08-25.5-15.84-55.92-36.9-72.52z"/><path id="CP" d="M262.3 499.7c-1.67 1-1.66 2.56 0 3.53l2.45 1.4a9.12 9.12 0 0 1-8.52 0c-3-1.77-3.07-4.6 0-6.35l6.37-3.7q5.46-3.17 3.3-6.88a16.59 16.59 0 0 0 11.87-1.94l6.37-3.7a12 12 0 0 1 11 0l10.4 6a9.12 9.12 0 0 1-8.53 0l-4.28-2.47a6.73 6.73 0 0 0-6.09 0l-5.46 3.17a14.49 14.49 0 0 1-10.33 1.76q1.84 3.18-3 6z"/><path id="CQ" d="M263 508.23l45-18.3c7.45 6.22 6.43 14.8-3.1 20.33-10.72 6.23-28.17 6.23-39 0a23.14 23.14 0 0 1-2.9-2.03z"/><path id="CR" d="M262.3 503.2l5.46-3.17q3.5-2 3.52-4.27v-1.64a14.48 14.48 0 0 0 9.83-1.85l5.47-3.18a6.74 6.74 0 0 1 6.09 0l4.28 2.47a9.12 9.12 0 0 0 8.52 0v-3.5a9.11 9.11 0 0 1-8.53 0l-4.28-2.47a6.73 6.73 0 0 0-6.09 0l-5.46 3.17a14.5 14.5 0 0 1-10.33 1.76v3.4a8.37 8.37 0 0 1-3 2.58l-5.46 3.17a2.14 2.14 0 0 0-1.25 1.75v3.42a2.11 2.11 0 0 1 1.23-1.63z"/><path id="CS" d="M266 510.27c10.8 6.23 28.24 6.23 39 0 5.32-3.1 8-7.14 8-11.2v3.5c0 4.06-2.68 8.1-8 11.2-10.72 6.24-28.17 6.24-39 0a22.88 22.88 0 0 1-3-2v-2.9a9.19 9.19 0 0 1-6.8-.71 3.89 3.89 0 0 1-2.3-3.2v-3.5c0 1.15.77 2.3 2.3 3.2a9.12 9.12 0 0 0 8.52 0v3.5a7.21 7.21 0 0 1-1.17.53 23.87 23.87 0 0 0 2.45 1.58z"/></defs><use xlink:href="#B" fill="#fff"/><g mask="url(#A)" class="J"><use xlink:href="#B"/></g><g mask="url(#A)" class="B"><use xlink:href="#B" class="F"/></g><path d="M41.5 683.74c-45.92-26.5-45.92-69.48 0-96l290.94-168c11.48-6.63 30.1-6.63 41.57 0l262.86 151.8c45.92 26.5 45.92 69.5 0 96l-290.94 168c-11.48 6.63-30.1 6.63-41.57 0z" class="J"/><g class="C"><use xlink:href="#C"/><use xlink:href="#D"/><use xlink:href="#E"/><use xlink:href="#F"/><path d="M253.08,598.16l-2.87-1.66v-4.05l2.87,1.66a1,1,0,0,1,.57.79V599a1,1,0,0,0-.56-.79Z"/><use xlink:href="#G"/></g><g class="B G"><use xlink:href="#E"/><use xlink:href="#F"/><path d="M253.08,598.16l-2.87-1.66v-4.05l2.87,1.66a1,1,0,0,1,.57.79V599a1,1,0,0,0-.56-.79Z"/><use xlink:href="#G"/></g><g class="C"><use xlink:href="#C"/><use xlink:href="#D"/></g><g class="B D"><use xlink:href="#C"/><use xlink:href="#D"/></g><g class="C"><use xlink:href="#H"/><use xlink:href="#I"/></g><use xlink:href="#I" opacity=".25" class="B"/><use xlink:href="#J" class="C"/><g class="B"><use xlink:href="#J" class="H"/><path d="M116.24 438v68.6a2.52 2.52 0 0 1-1.25 2.18L10.83 568.9a1.25 1.25 0 0 1-1.89-1.1V499.2a2.51 2.51 0 0 1 1.25-2.19l104.16-60.13a1.25 1.25 0 0 1 1.89 1.09z" class="E"/></g><use xlink:href="#H" class="C"/><path d="M146.35,569.27c1.9,1.1,1.9,2.9,0,4L113,592.5a7.68,7.68,0,0,1-6.93,0L86.22,581c-1.9-1.1-1.9-2.9,0-4l33.32-19.23a7.68,7.68,0,0,1,6.93,0Z" class="B D"/><g opacity=".8" class="B"><path d="M117 528.22l2.6-1.5a.62.62 0 0 0 .25-.2.61.61 0 0 0 .11-.3v-.67a.6.6 0 0 1-.11.3.62.62 0 0 1-.25.2l-2.6 1.5a1.92 1.92 0 0 1-1.74 0l-2.6-1.5a.62.62 0 0 1-.24-.2.61.61 0 0 1-.11-.3v.66a.61.61 0 0 0 .11.3.62.62 0 0 0 .24.2l2.6 1.5a1.92 1.92 0 0 0 1.74 0zm-3.56 1.78v-.66a.6.6 0 0 1-.11.3.61.61 0 0 1-.25.2l-2.6 1.5a1.93 1.93 0 0 1-1.74 0l-2.6-1.5a.61.61 0 0 1-.36-.5v.66a.6.6 0 0 0 .36.5l2.6 1.5a1.93 1.93 0 0 0 1.74 0l2.6-1.5a.61.61 0 0 0 .25-.2.62.62 0 0 0 .11-.3zm-6.54 3.08v.68a.61.61 0 0 1-.36.5l-2.6 1.5a1.92 1.92 0 0 1-1.74 0l-2.6-1.5a.6.6 0 0 1-.35-.5v-.67a.61.61 0 0 0 .35.5l2.6 1.5a1.91 1.91 0 0 0 1.74 0l2.6-1.5a.6.6 0 0 0 .36-.52zm-6.52 4.42v-.66a.61.61 0 0 1-.36.49l-2.6 1.5a1.93 1.93 0 0 1-1.73 0l-2.6-1.5a.6.6 0 0 1-.36-.5v.67a.6.6 0 0 0 .11.3.61.61 0 0 0 .24.2l2.6 1.5a1.93 1.93 0 0 0 1.74 0l2.6-1.5a.61.61 0 0 0 .36-.5zm-6.53 3.12v.67a.61.61 0 0 1-.36.5l-2.6 1.5a1.92 1.92 0 0 1-1.74 0l-2.6-1.5a.6.6 0 0 1-.35-.5v-.67a.6.6 0 0 0 .35.5l2.6 1.5a1.92 1.92 0 0 0 1.74 0l2.6-1.5a.62.62 0 0 0 .25-.2.61.61 0 0 0 .1-.3zm-6.52 4.43v-.66a.61.61 0 0 1-.36.5l-2.6 1.5a1.92 1.92 0 0 1-1.74 0L80 544.9a.6.6 0 0 1-.36-.5v.67a.6.6 0 0 0 .11.3.62.62 0 0 0 .24.2l2.6 1.5a1.93 1.93 0 0 0 1.74 0l2.6-1.5a.62.62 0 0 0 .25-.2.6.6 0 0 0 .15-.31zm-6.53 3.1v.67a.6.6 0 0 1-.11.3.61.61 0 0 1-.25.2l-2.6 1.5a1.92 1.92 0 0 1-1.74 0l-2.6-1.5a.62.62 0 0 1-.35-.5v-.67a.6.6 0 0 0 .11.3.61.61 0 0 0 .24.2l2.6 1.5a1.91 1.91 0 0 0 1.73 0l2.6-1.5a.62.62 0 0 0 .36-.5zm-6.52 4.44v-.66a.61.61 0 0 1-.36.5l-2.6 1.5a1.91 1.91 0 0 1-1.73 0l-2.58-1.5a.61.61 0 0 1-.35-.5v.67a.62.62 0 0 0 .35.5l2.6 1.5a1.93 1.93 0 0 0 1.74 0l2.6-1.5a.62.62 0 0 0 .25-.2.6.6 0 0 0 .08-.31zm-6.54 3.1v.67a.6.6 0 0 1-.11.3.62.62 0 0 1-.25.2l-2.6 1.5a1.92 1.92 0 0 1-1.74 0l-2.6-1.5a.61.61 0 0 1-.35-.5v-.67a.6.6 0 0 0 .35.5l2.6 1.5a1.91 1.91 0 0 0 1.73 0l2.6-1.5a.62.62 0 0 0 .36-.5zm-6.54 4.43v-.67a.62.62 0 0 1-.11.3.61.61 0 0 1-.25.2l-2.6 1.5a1.92 1.92 0 0 1-1.74 0l-2.6-1.5a.61.61 0 0 1-.36-.5v.67a.6.6 0 0 0 .11.3.61.61 0 0 0 .24.2l2.6 1.5a1.93 1.93 0 0 0 1.74 0l2.6-1.5a.62.62 0 0 0 .36-.5zm-6.5 3.1v.67a.6.6 0 0 1-.36.5l-2.6 1.5a1.91 1.91 0 0 1-1.74 0l-2.6-1.5a.61.61 0 0 1-.24-.2.62.62 0 0 1-.11-.3v-.67a.61.61 0 0 0 .11.3.6.6 0 0 0 .24.2l2.6 1.5a1.92 1.92 0 0 0 1.74 0l2.6-1.5a.61.61 0 0 0 .36-.5zm-6.54 4.45V567a.61.61 0 0 1-.36.5l-2.6 1.5a1.91 1.91 0 0 1-1.73 0l-2.6-1.5a.61.61 0 0 1-.36-.5v.67a.6.6 0 0 0 .36.5l2.6 1.5a1.92 1.92 0 0 0 1.73 0l2.6-1.5a.61.61 0 0 0 .36-.5zm-6.53 3.1v.67a.62.62 0 0 1-.36.5l-2.6 1.5a1.92 1.92 0 0 1-1.74 0l-2.6-1.5a.61.61 0 0 1-.36-.5v-.67a.61.61 0 0 0 .11.3.6.6 0 0 0 .24.2l2.6 1.5a1.93 1.93 0 0 0 1.74 0l2.6-1.5a.61.61 0 0 0 .36-.5zm-11.23 5.78L27.8 575a.63.63 0 0 1-.25-.2.62.62 0 0 1-.11-.3v.67a.61.61 0 0 0 .11.3.6.6 0 0 0 .25.2l2.6 1.5a1.93 1.93 0 0 0 1.74 0l2.6-1.5a.61.61 0 0 0 .36-.5v-.67a.61.61 0 0 1-.36.5l-2.6 1.5a1.92 1.92 0 0 1-1.74 0zm95.7-46.05l-2.6 1.5a1.93 1.93 0 0 1-1.74 0l-2.6-1.5a.61.61 0 0 1-.35-.5v-.67a.62.62 0 0 0 .35.5l2.6 1.5a1.92 1.92 0 0 0 1.74 0l2.6-1.5a.61.61 0 0 0 .36-.5v.68a.62.62 0 0 1-.11.3.61.61 0 0 1-.25.19zm-10.88 4.6l-2.6-1.5a.62.62 0 0 1-.35-.49v.67a.61.61 0 0 0 .36.5l2.6 1.5a1.91 1.91 0 0 0 1.73 0l2.6-1.5a.59.59 0 0 0 .25-.2.6.6 0 0 0 .11-.3v-.68a.61.61 0 0 1-.36.5l-2.6 1.5a1.92 1.92 0 0 1-1.74 0zm-9.12 2.26l2.6 1.5a1.92 1.92 0 0 0 1.74 0l2.6-1.5a.62.62 0 0 0 .36-.5v.66a.61.61 0 0 1-.11.3.6.6 0 0 1-.25.2l-2.6 1.5a1.93 1.93 0 0 1-1.74 0l-2.6-1.5a.61.61 0 0 1-.24-.2.6.6 0 0 1-.11-.3v-.67a.61.61 0 0 0 .35.51zm-3.94 5.27l-2.6-1.5a.61.61 0 0 1-.37-.5v.67a.6.6 0 0 0 .35.5l2.6 1.5a1.92 1.92 0 0 0 1.75 0l2.6-1.5a.61.61 0 0 0 .25-.2.62.62 0 0 0 .11-.3v-.67a.61.61 0 0 1-.36.5l-2.6 1.5a1.92 1.92 0 0 1-1.74 0zM93 544.9l2.6 1.5a1.91 1.91 0 0 0 1.73 0l2.6-1.5a.6.6 0 0 0 .25-.2.61.61 0 0 0 .11-.3v.66a.6.6 0 0 1-.11.3.62.62 0 0 1-.25.2l-2.6 1.5a1.94 1.94 0 0 1-1.74 0l-2.6-1.5a.62.62 0 0 1-.25-.2.6.6 0 0 1-.11-.3v-.67a.61.61 0 0 0 .11.3.6.6 0 0 0 .25.21zm-3.9 5.26l-2.6-1.5a.6.6 0 0 1-.35-.5v.67a.61.61 0 0 0 .35.5l2.6 1.5a1.91 1.91 0 0 0 1.73 0l2.6-1.5a.61.61 0 0 0 .36-.5v-.67a.61.61 0 0 1-.36.5l-2.6 1.5a1.92 1.92 0 0 1-1.74 0zm-9.1 2.27l2.6 1.5a1.92 1.92 0 0 0 1.74 0l2.6-1.5a.62.62 0 0 0 .36-.5v.66a.62.62 0 0 1-.36.5l-2.6 1.5a1.93 1.93 0 0 1-1.74 0l-2.6-1.5a.61.61 0 0 1-.24-.2.62.62 0 0 1-.11-.3v-.67a.61.61 0 0 0 .11.3.62.62 0 0 0 .24.2zm-4 5.27l-2.6-1.5a.59.59 0 0 1-.25-.2.6.6 0 0 1-.11-.3v.67a.61.61 0 0 0 .11.3.62.62 0 0 0 .24.2l2.6 1.5a1.91 1.91 0 0 0 1.73 0l2.6-1.5a.61.61 0 0 0 .36-.5v-.67a.61.61 0 0 1-.36.5l-2.6 1.5a1.91 1.91 0 0 1-1.73 0zm-9.07 2.3l2.6 1.5a1.91 1.91 0 0 0 1.74 0l2.6-1.5a.62.62 0 0 0 .36-.5v.67a.61.61 0 0 1-.36.5l-2.6 1.5a1.92 1.92 0 0 1-1.74 0l-2.6-1.5a.62.62 0 0 1-.35-.5v-.67a.6.6 0 0 0 .11.3.61.61 0 0 0 .25.2zM63 565.24l-2.6-1.5a.59.59 0 0 1-.25-.2.6.6 0 0 1-.11-.3v.67a.61.61 0 0 0 .11.3.62.62 0 0 0 .24.2l2.6 1.5a1.91 1.91 0 0 0 1.73 0l2.6-1.5a.61.61 0 0 0 .25-.2.62.62 0 0 0 .11-.3v-.67a.62.62 0 0 1-.11.3.61.61 0 0 1-.25.2l-2.6 1.5a1.92 1.92 0 0 1-1.73 0zm-9.13 2.28l2.6 1.5a1.91 1.91 0 0 0 1.74 0l2.6-1.5a.61.61 0 0 0 .25-.2.62.62 0 0 0 .11-.3v.67a.61.61 0 0 1-.36.5l-2.6 1.5a1.92 1.92 0 0 1-1.74 0l-2.6-1.5a.6.6 0 0 1-.24-.2.62.62 0 0 1-.11-.3v-.7a.61.61 0 0 0 .35.5zm.77 3.9v-.67a.62.62 0 0 1-.11.3.61.61 0 0 1-.25.2l-2.6 1.5a1.93 1.93 0 0 1-1.74 0l-2.6-1.5a.62.62 0 0 1-.35-.5v.67a.61.61 0 0 0 .11.3.62.62 0 0 0 .24.2l2.6 1.5a1.92 1.92 0 0 0 1.74 0l2.6-1.5a.62.62 0 0 0 .25-.2.61.61 0 0 0 .11-.3zm-11.24 5.8l-2.6-1.5a.61.61 0 0 1-.36-.5v-.67a.61.61 0 0 0 .36.5l2.6 1.5a1.92 1.92 0 0 0 1.74 0l2.6-1.5a.61.61 0 0 0 .36-.5v.67a.61.61 0 0 1-.36.5l-2.6 1.5a1.93 1.93 0 0 1-1.74 0zm-6.53 3.1l-2.6-1.5a.61.61 0 0 1-.36-.5v.68a.61.61 0 0 0 .36.5l2.6 1.5a1.92 1.92 0 0 0 1.74 0l2.6-1.5a.61.61 0 0 0 .25-.2.62.62 0 0 0 .11-.3v-.67a.61.61 0 0 1-.36.5l-2.6 1.5a1.93 1.93 0 0 1-1.74 0zm95.7-46.06l-2.6 1.5a1.92 1.92 0 0 1-1.74 0l-2.6-1.5a.61.61 0 0 1-.36-.5v-.67a.6.6 0 0 0 .11.3.61.61 0 0 0 .24.2l2.6 1.5a1.92 1.92 0 0 0 1.74 0l2.6-1.5a.62.62 0 0 0 .36-.5v.67a.61.61 0 0 1-.36.5zm-6.53 3.1l-2.6 1.5a1.91 1.91 0 0 1-1.73 0l-2.6-1.5a.62.62 0 0 1-.24-.2.61.61 0 0 1-.11-.3v.67a.61.61 0 0 0 .11.3.6.6 0 0 0 .24.2l2.6 1.5a1.93 1.93 0 0 0 1.73 0L126 538a.61.61 0 0 0 .36-.5v-.65a.62.62 0 0 1-.36.5zm-6.52 4.44l-2.6 1.5a1.92 1.92 0 0 1-1.74 0l-2.6-1.5a.63.63 0 0 1-.24-.2.62.62 0 0 1-.11-.3v-.67a.61.61 0 0 0 .35.5l2.6 1.5a1.92 1.92 0 0 0 1.74 0l2.6-1.5a.61.61 0 0 0 .25-.2.6.6 0 0 0 .11-.3v.67a.6.6 0 0 1-.36.5zm-9.13 5.26l2.6-1.5a.61.61 0 0 0 .36-.5v-.66a.61.61 0 0 1-.11.3.6.6 0 0 1-.25.2l-2.6 1.5a1.92 1.92 0 0 1-1.74 0l-2.6-1.5a.61.61 0 0 1-.35-.5v.67a.61.61 0 0 0 .35.5l2.6 1.5a1.93 1.93 0 0 0 1.74 0z"/><path d="M106.47 549.33l-2.6 1.5a1.92 1.92 0 0 1-1.74 0l-2.6-1.5a.61.61 0 0 1-.36-.5v-.67a.6.6 0 0 0 .11.3.61.61 0 0 0 .24.2l2.6 1.5a1.92 1.92 0 0 0 1.74 0l2.6-1.5a.6.6 0 0 0 .36-.5v.67a.61.61 0 0 1-.35.5zm-9.14 5.27l2.6-1.5a.62.62 0 0 0 .36-.5v-.67a.61.61 0 0 1-.11.3.62.62 0 0 1-.25.2l-2.6 1.5a1.92 1.92 0 0 1-1.74 0l-2.6-1.5a.62.62 0 0 1-.24-.2.61.61 0 0 1-.11-.3v.67a.62.62 0 0 0 .11.3.6.6 0 0 0 .24.2l2.6 1.5a1.93 1.93 0 0 0 1.74 0zm-3.93 2.27l-2.6 1.5a1.91 1.91 0 0 1-1.74 0l-2.6-1.5a.61.61 0 0 1-.36-.5v-.67a.61.61 0 0 0 .11.3.6.6 0 0 0 .25.2l2.6 1.5a1.92 1.92 0 0 0 1.74 0l2.6-1.5a.61.61 0 0 0 .36-.5v.67a.61.61 0 0 1-.37.5zm-9.13 5.27l2.6-1.5a.61.61 0 0 0 .36-.5v-.67a.62.62 0 0 1-.11.3.61.61 0 0 1-.25.2l-2.6 1.5a1.92 1.92 0 0 1-1.74 0l-2.6-1.47a.61.61 0 0 1-.24-.2.6.6 0 0 1-.11-.3v.67a.59.59 0 0 0 .11.3.6.6 0 0 0 .24.2l2.6 1.5a1.92 1.92 0 0 0 1.73 0zm-3.9 2.26l-2.6 1.5a1.91 1.91 0 0 1-1.74 0l-2.6-1.5a.61.61 0 0 1-.35-.5v-.67a.62.62 0 0 0 .11.3.61.61 0 0 0 .24.2l2.6 1.5a1.93 1.93 0 0 0 1.74 0l2.6-1.5a.61.61 0 0 0 .25-.2.62.62 0 0 0 .11-.3v.67a.62.62 0 0 1-.11.3.61.61 0 0 1-.24.2zm-9.16 5.28l2.6-1.5a.62.62 0 0 0 .36-.49v-.7a.61.61 0 0 1-.36.5l-2.6 1.5a1.92 1.92 0 0 1-1.74 0l-2.6-1.5a.6.6 0 0 1-.36-.5v.66a.62.62 0 0 0 .35.5l2.6 1.5a1.92 1.92 0 0 0 1.73 0zm-3.9 2.27l-2.6 1.5a1.91 1.91 0 0 1-1.74 0l-2.6-1.5a.62.62 0 0 1-.24-.2.61.61 0 0 1-.11-.3v-.67a.6.6 0 0 0 .11.3.62.62 0 0 0 .24.2l2.6 1.5a1.93 1.93 0 0 0 1.74 0l2.6-1.5a.62.62 0 0 0 .25-.2.6.6 0 0 0 .11-.3v.67a.61.61 0 0 1-.36.5zm-9.13 5.27l2.6-1.5a.6.6 0 0 0 .25-.2.62.62 0 0 0 .11-.3v-.67a.62.62 0 0 1-.11.3.61.61 0 0 1-.25.2l-2.6 1.5a1.91 1.91 0 0 1-1.74 0l-2.6-1.5a.63.63 0 0 1-.24-.2.62.62 0 0 1-.11-.3v.67a.61.61 0 0 0 .11.3.6.6 0 0 0 .24.2l2.6 1.5a1.92 1.92 0 0 0 1.74 0zm-3.93 2.26l-2.6 1.52a1.91 1.91 0 0 1-1.74 0l-2.6-1.5a.6.6 0 0 1-.24-.2.61.61 0 0 1-.11-.3v-.67a.62.62 0 0 0 .11.3.63.63 0 0 0 .24.2l2.6 1.5a1.93 1.93 0 0 0 1.74 0l2.6-1.5a.62.62 0 0 0 .36-.5v.67a.61.61 0 0 1-.36.48zm-10.87 4.62l-2.6-1.5a.61.61 0 0 1-.36-.48v.66a.62.62 0 0 0 .11.3.61.61 0 0 0 .25.2l2.6 1.5a1.93 1.93 0 0 0 1.74 0l2.6-1.5a.61.61 0 0 0 .36-.5v-.67a.62.62 0 0 1-.11.3.61.61 0 0 1-.25.2l-2.6 1.5a1.91 1.91 0 0 1-1.74 0zm88.4-46.57v-.67a.6.6 0 0 0 .36.5l2.6 1.5a1.92 1.92 0 0 0 1.74 0l2.6-1.5a.61.61 0 0 0 .36-.5v.66a.61.61 0 0 1-.36.5l-2.6 1.5a1.93 1.93 0 0 1-1.74 0l-2.6-1.5a.62.62 0 0 1-.35-.49zm-6.53 3.1v.67a.62.62 0 0 0 .11.3.61.61 0 0 0 .24.2l2.6 1.5a1.92 1.92 0 0 0 1.74 0l2.6-1.5a.61.61 0 0 0 .36-.5v-.67a.6.6 0 0 1-.11.3.62.62 0 0 1-.25.2l-2.6 1.5a1.92 1.92 0 0 1-1.74 0l-2.6-1.5a.6.6 0 0 1-.25-.2.59.59 0 0 1-.11-.3zm-6.54 4.43v-.67a.61.61 0 0 0 .36.5l2.6 1.5a1.91 1.91 0 0 0 1.73 0l2.6-1.5a.61.61 0 0 0 .25-.2.62.62 0 0 0 .11-.3v.66a.62.62 0 0 1-.36.5l-2.6 1.5a1.93 1.93 0 0 1-1.73 0l-2.6-1.5a.61.61 0 0 1-.24-.2.6.6 0 0 1-.12-.29zm-6.5 3.1v.67a.61.61 0 0 0 .11.3.62.62 0 0 0 .25.2l2.6 1.5a1.91 1.91 0 0 0 1.74 0l2.6-1.5a.6.6 0 0 0 .36-.5v-.67a.62.62 0 0 1-.36.5l-2.6 1.5a1.92 1.92 0 0 1-1.74 0l-2.6-1.5a.62.62 0 0 1-.24-.2.6.6 0 0 1-.12-.3zm-6.54 4.43v-.67a.59.59 0 0 0 .11.3.61.61 0 0 0 .24.2l2.6 1.5a1.91 1.91 0 0 0 1.73 0l2.6-1.5a.6.6 0 0 0 .25-.2.61.61 0 0 0 .11-.3v.67a.61.61 0 0 1-.36.5l-2.6 1.5a1.93 1.93 0 0 1-1.74 0l-2.6-1.5a.61.61 0 0 1-.25-.2.6.6 0 0 1-.09-.3zm-6.53 3.1v.67a.6.6 0 0 0 .36.5l2.6 1.5a1.92 1.92 0 0 0 1.74 0l2.6-1.5a.6.6 0 0 0 .25-.2.62.62 0 0 0 .11-.3v-.67a.61.61 0 0 1-.11.3.63.63 0 0 1-.25.2l-2.6 1.5a1.93 1.93 0 0 1-1.74 0l-2.6-1.5a.6.6 0 0 1-.35-.5z"/><path d="M92.6 560.14v-.67a.59.59 0 0 0 .11.3.61.61 0 0 0 .24.2l2.6 1.5a1.91 1.91 0 0 0 1.73 0L99.9 560a.6.6 0 0 0 .36-.5v.67a.6.6 0 0 1-.11.3.61.61 0 0 1-.25.2l-2.6 1.5a1.93 1.93 0 0 1-1.74 0L93 560.64a.6.6 0 0 1-.36-.5zm-6.53 3.1v.67a.6.6 0 0 0 .35.5l2.6 1.5a1.92 1.92 0 0 0 1.74 0l2.6-1.5a.61.61 0 0 0 .36-.5v-.67a.61.61 0 0 1-.36.5l-2.6 1.5a1.93 1.93 0 0 1-1.74 0l-2.6-1.5a.61.61 0 0 1-.35-.5zm-6.52 4.44V567a.6.6 0 0 0 .36.5l2.6 1.5a1.92 1.92 0 0 0 1.75 0l2.6-1.5a.61.61 0 0 0 .25-.2.62.62 0 0 0 .11-.3v.67a.61.61 0 0 1-.36.5l-2.6 1.5a1.92 1.92 0 0 1-1.73 0l-2.6-1.5a.6.6 0 0 1-.37-.51zm-6.55 3.1v.67a.61.61 0 0 0 .36.5l2.6 1.5a1.92 1.92 0 0 0 1.74 0l2.6-1.5a.63.63 0 0 0 .25-.2.61.61 0 0 0 .11-.3v-.67a.6.6 0 0 1-.11.3.61.61 0 0 1-.25.2l-2.6 1.5a1.94 1.94 0 0 1-1.74 0l-2.6-1.5a.61.61 0 0 1-.35-.5zm-6.5 4.44v-.67a.61.61 0 0 0 .36.5l2.6 1.5a1.91 1.91 0 0 0 1.74 0l2.6-1.5a.61.61 0 0 0 .25-.2.62.62 0 0 0 .11-.3v.67a.62.62 0 0 1-.11.3.61.61 0 0 1-.25.2l-2.6 1.5a1.93 1.93 0 0 1-1.74 0l-2.6-1.5a.61.61 0 0 1-.35-.5zm-6.5 3.1v.68a.62.62 0 0 0 .35.5l2.6 1.5a1.91 1.91 0 0 0 1.73 0l2.6-1.5a.61.61 0 0 0 .25-.2.62.62 0 0 0 .11-.3v-.67a.62.62 0 0 1-.36.5l-2.6 1.5a1.93 1.93 0 0 1-1.73 0l-2.6-1.5a.6.6 0 0 1-.24-.2.62.62 0 0 1-.12-.31zm-6.57 4.45v-.66a.61.61 0 0 0 .35.5l2.6 1.5a1.91 1.91 0 0 0 1.74 0l2.6-1.5a.61.61 0 0 0 .36-.5v.67a.61.61 0 0 1-.36.5l-2.6 1.5a1.93 1.93 0 0 1-1.74 0l-2.6-1.5a.61.61 0 0 1-.35-.5zm-3.58 5.1l-2.6-1.5a.62.62 0 0 1-.36-.51v.67a.61.61 0 0 0 .36.5l2.6 1.5a1.92 1.92 0 0 0 1.73 0L54.2 587a.61.61 0 0 0 .36-.5v-.66a.62.62 0 0 1-.36.5l-2.6 1.5a1.92 1.92 0 0 1-1.73 0z"/></g><g class="C"><use xlink:href="#K"/><use xlink:href="#L"/><use xlink:href="#M"/><use xlink:href="#N"/><use xlink:href="#O"/><use xlink:href="#P"/><use xlink:href="#Q"/><use xlink:href="#R"/><path d="M67.38 556.2l-2.6 1.5a1.92 1.92 0 0 1-1.73 0l-2.6-1.5a.53.53 0 0 1 0-1l2.56-1.5a1.91 1.91 0 0 1 1.74 0l2.6 1.5a.53.53 0 0 1 .04 1z"/><use xlink:href="#S"/><use xlink:href="#T"/><use xlink:href="#U"/><use xlink:href="#V"/><use xlink:href="#W"/><use xlink:href="#X"/><use xlink:href="#Y"/><use xlink:href="#Z"/><use xlink:href="#a"/><use xlink:href="#b"/><use xlink:href="#c"/><use xlink:href="#d"/><use xlink:href="#e"/><path d="M66.93 559l2.6-1.5a1.92 1.92 0 0 1 1.74 0l2.6 1.5a.53.53 0 0 1 0 1l-2.6 1.5a1.91 1.91 0 0 1-1.74 0l-2.6-1.5a.53.53 0 0 1 0-1z"/><use xlink:href="#e" x="-13.07" y="7.54"/><use xlink:href="#f"/><use xlink:href="#g"/><use xlink:href="#h"/><use xlink:href="#i"/><use xlink:href="#j"/><use xlink:href="#k"/><use xlink:href="#l"/><use xlink:href="#m"/><use xlink:href="#n"/><use xlink:href="#o"/><use xlink:href="#p"/><use xlink:href="#q"/><use xlink:href="#r"/><use xlink:href="#U" x="26"/><use xlink:href="#r" x="-13.05" y="7.54"/><use xlink:href="#s"/><use xlink:href="#t"/><use xlink:href="#u"/><use xlink:href="#v"/><use xlink:href="#w"/><use xlink:href="#x"/><use xlink:href="#e" x="39.07" y="-7.54"/><use xlink:href="#y"/><use xlink:href="#z"/><path d="M93 559l2.6-1.5a1.92 1.92 0 0 1 1.74 0l2.55 1.5a.53.53 0 0 1 0 1l-2.6 1.5a1.91 1.91 0 0 1-1.74 0L93 560a.53.53 0 0 1 0-1z"/><use xlink:href="#z" x="-13.1" y="7.54"/><use xlink:href="#AA"/><use xlink:href="#AB"/><use xlink:href="#AC"/><use xlink:href="#AD"/><use xlink:href="#AC" x="-13.07" y="7.58"/><use xlink:href="#AD" x="-13.06" y="7.55"/></g><g class="B D"><use xlink:href="#K"/><use xlink:href="#L"/><use xlink:href="#M"/><use xlink:href="#N"/><use xlink:href="#O"/><use xlink:href="#P"/><use xlink:href="#Q"/><use xlink:href="#R"/><path d="M67.38 556.2l-2.6 1.5a1.92 1.92 0 0 1-1.73 0l-2.6-1.5a.53.53 0 0 1 0-1l2.56-1.5a1.91 1.91 0 0 1 1.74 0l2.6 1.5c.52.27.52.73.04 1z"/><use xlink:href="#S"/><use xlink:href="#T"/><use xlink:href="#U"/><use xlink:href="#V"/><use xlink:href="#W"/><use xlink:href="#X"/><use xlink:href="#Y"/><use xlink:href="#Z"/><use xlink:href="#a"/><use xlink:href="#b"/><use xlink:href="#c"/><use xlink:href="#d"/><use xlink:href="#e"/><path d="M66.93 559l2.6-1.5a1.93 1.93 0 0 1 1.74 0l2.6 1.5a.53.53 0 0 1 0 1l-2.6 1.5a1.91 1.91 0 0 1-1.74 0l-2.6-1.5a.53.53 0 0 1 0-1z"/><use xlink:href="#e" x="-13.07" y="7.54"/><use xlink:href="#f"/><use xlink:href="#g"/><use xlink:href="#h"/><use xlink:href="#i"/><use xlink:href="#j"/><use xlink:href="#k"/><use xlink:href="#l"/><use xlink:href="#m"/><use xlink:href="#n"/><use xlink:href="#o"/><use xlink:href="#p"/><use xlink:href="#q"/><use xlink:href="#r"/><use xlink:href="#U" x="26"/><use xlink:href="#r" x="-13.05" y="7.54"/><use xlink:href="#s"/><use xlink:href="#t"/><use xlink:href="#u"/><use xlink:href="#v"/><use xlink:href="#w"/><use xlink:href="#x"/><use xlink:href="#e" x="39.07" y="-7.54"/><use xlink:href="#y"/><use xlink:href="#z"/><path d="M93 559l2.6-1.5a1.93 1.93 0 0 1 1.74 0l2.55 1.5a.53.53 0 0 1 0 1l-2.6 1.5a1.91 1.91 0 0 1-1.74 0L93 560a.53.53 0 0 1 0-1z"/><use xlink:href="#z" x="-13.1" y="7.54"/><use xlink:href="#AA"/><use xlink:href="#AB"/><use xlink:href="#AC"/><use xlink:href="#AD"/><use xlink:href="#AC" x="-13.07" y="7.58"/><use xlink:href="#AD" x="-13.06" y="7.55"/></g><g class="C"><use xlink:href="#AE"/><use xlink:href="#AF"/><path d="M24.47 521.13l1.26.73a1.49 1.49 0 0 1-.62-1.37 4.7 4.7 0 0 1 2.13-3.69l47.58-27.46a1.49 1.49 0 0 1 1.52-.15l-1.26-.73a1.5 1.5 0 0 0-1.52.15L26 516.1a4.68 4.68 0 0 0-2.13 3.68 1.5 1.5 0 0 0 .62 1.35z"/><use xlink:href="#AG"/></g><g class="B"><use xlink:href="#AE" class="F"/><use xlink:href="#AF" class="F"/><path d="M24.47 521.13l1.26.73a1.49 1.49 0 0 1-.62-1.37 4.7 4.7 0 0 1 2.13-3.69l47.58-27.46a1.49 1.49 0 0 1 1.52-.15l-1.26-.73a1.49 1.49 0 0 0-1.52.15L26 516.1a4.68 4.68 0 0 0-2.13 3.68 1.5 1.5 0 0 0 .62 1.35z" class="F"/><use xlink:href="#AG" class="F"/></g><g class="C"><path d="M100.87 494.92L27.3 537.4a4.69 4.69 0 0 0-2.13 3.69c0 1.34 1 1.9 2.14 1.22l73.58-42.48a4.69 4.69 0 0 0 2.13-3.69c-.01-1.37-1-1.9-2.14-1.22zM27.3 532l58.24-33.62a4.69 4.69 0 0 0 2.13-3.69c0-1.34-1-1.9-2.14-1.22L27.27 527.1a4.69 4.69 0 0 0-2.13 3.69c0 1.35.96 1.9 2.15 1.2zm-.05-10.27l47.58-27.47a4.68 4.68 0 0 0 2.17-3.68c0-1.34-1-1.9-2.14-1.22l-47.63 27.46a4.69 4.69 0 0 0-2.13 3.69c.01 1.36.97 1.9 2.15 1.22zm-.03-10.3l64.3-37.12a4.71 4.71 0 0 0 2.13-3.69c0-1.34-1-1.9-2.14-1.22l-64.3 37.12a4.69 4.69 0 0 0-2.13 3.69c0 1.36.92 1.9 2.14 1.22z"/><use xlink:href="#AH"/><use xlink:href="#AI"/></g><use xlink:href="#AI" opacity=".25" class="B"/><use xlink:href="#AJ" class="C"/><g class="B"><use xlink:href="#AJ" class="H"/><path d="M494.6 371.46v95.3a3.5 3.5 0 0 0 1.74 3L641 553.3a1.74 1.74 0 0 0 2.63-1.52v-95.3a3.5 3.5 0 0 0-1.74-3l-144.67-83.52a1.74 1.74 0 0 0-2.62 1.51z" class="E"/></g><use xlink:href="#AH" class="C"/><path d="M452.78 553.78c-2.65 1.53-2.65 4 0 5.55L499 586a10.67 10.67 0 0 0 9.62 0l27.6-15.95c2.65-1.53 2.65-4 0-5.55L490 537.83a10.67 10.67 0 0 0-9.62 0z" class="B D"/><g opacity=".8" class="B"><path d="M493.54 496.78l-3.62-2.08a.84.84 0 0 1-.5-.69v-.93a.84.84 0 0 0 .16.41.85.85 0 0 0 .35.28l3.62 2.08a2.66 2.66 0 0 0 2.41 0l3.6-2.08a.85.85 0 0 0 .34-.28.84.84 0 0 0 .15-.41v.92a.84.84 0 0 1-.49.69l-3.6 2.08a2.66 2.66 0 0 1-2.41 0zm4.94 2.45v-.92a.85.85 0 0 0 .16.41.86.86 0 0 0 .34.28l3.63 2.08a2.67 2.67 0 0 0 2.41 0l3.6-2.08a.85.85 0 0 0 .49-.69v.93a.84.84 0 0 1-.15.42.83.83 0 0 1-.34.28L505 502a2.67 2.67 0 0 1-2.41 0l-3.6-2.08a.85.85 0 0 1-.5-.69zm9.07 4.3v.95a.85.85 0 0 0 .5.69l3.63 2.08a2.66 2.66 0 0 0 2.41 0l3.6-2.08a.84.84 0 0 0 .49-.69v-.92a.84.84 0 0 1-.49.69l-3.6 2.08a2.65 2.65 0 0 1-2.41 0l-3.68-2.1a.84.84 0 0 1-.5-.71zm9.05 6.16v-.92a.85.85 0 0 0 .5.68l3.62 2.08a2.68 2.68 0 0 0 2.41 0l3.6-2.08a.84.84 0 0 0 .49-.69v.93a.84.84 0 0 1-.49.69l-3.6 2.08a2.67 2.67 0 0 1-2.41 0l-3.63-2.08a.86.86 0 0 1-.5-.69zm9.08 4.3v.93a.84.84 0 0 0 .16.41.85.85 0 0 0 .34.28l3.63 2.08a2.66 2.66 0 0 0 2.41 0l3.6-2.08a.84.84 0 0 0 .49-.7V514a.84.84 0 0 1-.49.69l-3.6 2.08a2.66 2.66 0 0 1-2.41 0l-3.62-2.08a.85.85 0 0 1-.5-.7zm9.06 6.16v-.92a.86.86 0 0 0 .5.69l3.63 2.08a2.67 2.67 0 0 0 2.41 0l3.6-2.08a.84.84 0 0 0 .49-.7v.93a.84.84 0 0 1-.49.69l-3.6 2.08a2.67 2.67 0 0 1-2.41 0l-3.63-2.08a.85.85 0 0 1-.5-.69zm9.06 4.3v.93a.85.85 0 0 0 .5.7l3.63 2.08a2.65 2.65 0 0 0 2.41 0l3.6-2.08a.86.86 0 0 0 .34-.28.85.85 0 0 0 .15-.41v-.93a.84.84 0 0 1-.49.69l-3.6 2.08a2.66 2.66 0 0 1-2.41 0l-3.63-2.08a.86.86 0 0 1-.5-.69zm9.06 6.16v-.92a.85.85 0 0 0 .5.69l3.63 2.08a2.65 2.65 0 0 0 2.41 0l3.6-2.08a.84.84 0 0 0 .49-.7v.93a.86.86 0 0 1-.49.7l-3.6 2.08a2.68 2.68 0 0 1-2.41 0l-3.63-2.08a.87.87 0 0 1-.36-.33.85.85 0 0 1-.14-.37zm9.07 4.3v.93a.84.84 0 0 0 .16.41.86.86 0 0 0 .35.28l3.63 2.08a2.65 2.65 0 0 0 2.41 0l3.6-2.08a.85.85 0 0 0 .49-.69v-.93a.84.84 0 0 1-.49.69l-3.6 2.08a2.66 2.66 0 0 1-2.41 0l-3.63-2.08a.85.85 0 0 1-.5-.69zm9.07 6.16v-.92a.85.85 0 0 0 .5.69l3.63 2.08a2.66 2.66 0 0 0 2.41 0l3.6-2.08a.85.85 0 0 0 .34-.28.84.84 0 0 0 .15-.41v.93a.85.85 0 0 1-.49.7l-3.6 2.08a2.68 2.68 0 0 1-2.41 0l-3.62-2.08a.86.86 0 0 1-.5-.7zm9.06 4.3v.93a.83.83 0 0 0 .5.69l3.62 2.08a2.66 2.66 0 0 0 2.41 0l3.6-2.08a.85.85 0 0 0 .34-.28.84.84 0 0 0 .15-.41v-.93a.84.84 0 0 1-.15.41.85.85 0 0 1-.34.28l-3.6 2.08a2.67 2.67 0 0 1-2.41 0l-3.62-2.08a.84.84 0 0 1-.34-.28.85.85 0 0 1-.16-.41zm9.07 6.18v-.93a.85.85 0 0 0 .5.69l3.63 2.08a2.65 2.65 0 0 0 2.41 0l3.6-2.08a.85.85 0 0 0 .49-.69v.93a.84.84 0 0 1-.49.69l-3.6 2.08a2.67 2.67 0 0 1-2.41 0l-3.62-2.08a.85.85 0 0 1-.5-.69zm9.07 4.28v.93a.85.85 0 0 0 .5.7l3.63 2.08a2.66 2.66 0 0 0 2.41 0l3.6-2.08a.84.84 0 0 0 .49-.7v-.93a.84.84 0 0 1-.49.7l-3.6 2.08a2.68 2.68 0 0 1-2.41 0l-3.62-2.08a.84.84 0 0 1-.5-.7zm15.6 8.04l3.6-2.08a.85.85 0 0 0 .49-.69v.88a.84.84 0 0 1-.49.69l-3.6 2.08a2.68 2.68 0 0 1-2.41 0l-3.62-2.08a.86.86 0 0 1-.5-.69v-.93a.85.85 0 0 0 .16.42.84.84 0 0 0 .34.28l3.62 2.08a2.66 2.66 0 0 0 2.41 0zm-132.9-63.97l3.63 2.08a2.68 2.68 0 0 0 2.41 0l3.6-2.08a.85.85 0 0 0 .49-.7v-.93a.85.85 0 0 1-.15.41.87.87 0 0 1-.34.28l-3.6 2.08a2.68 2.68 0 0 1-2.41 0L480.9 499a.85.85 0 0 1-.5-.7v.92a.85.85 0 0 0 .5.7zm15.1 6.4l3.6-2.08a.85.85 0 0 0 .49-.68v.92a.84.84 0 0 1-.15.41.85.85 0 0 1-.34.28l-3.6 2.08a2.66 2.66 0 0 1-2.41 0l-3.6-2.08a.84.84 0 0 1-.5-.69v-.94a.84.84 0 0 0 .16.42.85.85 0 0 0 .35.28l3.63 2.08a2.67 2.67 0 0 0 2.41 0zm12.68 3.15l-3.6 2.08a2.66 2.66 0 0 1-2.41 0l-3.67-2.08a.86.86 0 0 1-.5-.69v.9a.85.85 0 0 0 .15.41.84.84 0 0 0 .34.28l3.63 2.08a2.67 2.67 0 0 0 2.41 0l3.6-2.08a.85.85 0 0 0 .49-.69v-.93a.84.84 0 0 1-.15.42.86.86 0 0 1-.29.29zm5.46 7.33l3.6-2.08a.86.86 0 0 0 .35-.28.84.84 0 0 0 .16-.42v.93a.84.84 0 0 1-.49.7l-3.6 2.08a2.67 2.67 0 0 1-2.43 0l-3.62-2.08a.85.85 0 0 1-.34-.28.84.84 0 0 1-.16-.42V514a.84.84 0 0 0 .5.7l3.62 2.08a2.67 2.67 0 0 0 2.41 0zm12.68 3.14l-3.6 2.08a2.65 2.65 0 0 1-2.41 0l-3.62-2.08a.84.84 0 0 1-.5-.69v.92a.85.85 0 0 0 .5.69l3.63 2.08a2.68 2.68 0 0 0 2.41 0l3.6-2.08a.85.85 0 0 0 .49-.69v-.93a.85.85 0 0 1-.49.7zm5.45 7.3l3.6-2.08a.83.83 0 0 0 .49-.7v.93a.84.84 0 0 1-.49.7l-3.6 2.08a2.66 2.66 0 0 1-2.41 0l-3.63-2.08a.85.85 0 0 1-.34-.28.84.84 0 0 1-.16-.41v-.93a.85.85 0 0 0 .5.7l3.62 2.08a2.67 2.67 0 0 0 2.41 0zm12.67 3.15l-3.6 2.08a2.66 2.66 0 0 1-2.41 0l-3.62-2.08a.86.86 0 0 1-.5-.69v.92a.85.85 0 0 0 .16.41.86.86 0 0 0 .34.28l3.63 2.08a2.68 2.68 0 0 0 2.41 0l3.6-2.08a.85.85 0 0 0 .34-.28.84.84 0 0 0 .15-.41v-.93a.84.84 0 0 1-.49.7zm5.46 7.32l3.6-2.08a.83.83 0 0 0 .5-.69v.93a.85.85 0 0 1-.15.41.87.87 0 0 1-.34.28l-3.6 2.08a2.65 2.65 0 0 1-2.41 0l-3.63-2.08a.85.85 0 0 1-.5-.7v-.93a.85.85 0 0 0 .5.69l3.63 2.08a2.66 2.66 0 0 0 2.41 0zm12.67 3.15l-3.6 2.08a2.65 2.65 0 0 1-2.41 0l-3.63-2.08a.84.84 0 0 1-.34-.28.85.85 0 0 1-.16-.41v.93a.85.85 0 0 0 .5.69l3.63 2.08a2.67 2.67 0 0 0 2.41 0l3.6-2.08a.86.86 0 0 0 .49-.69v-.93a.84.84 0 0 1-.5.69zm5.46 7.33l3.6-2.08a.84.84 0 0 0 .49-.69v.93a.85.85 0 0 1-.49.69l-3.6 2.08a2.65 2.65 0 0 1-2.41 0L562.5 547a.86.86 0 0 1-.35-.28.84.84 0 0 1-.16-.41v-.93a.85.85 0 0 0 .5.69l3.63 2.08a2.66 2.66 0 0 0 2.41 0zm12.67 3.15l-3.6 2.08a2.66 2.66 0 0 1-2.41 0l-3.63-2.08a.86.86 0 0 1-.5-.69v.93a.86.86 0 0 0 .16.41.85.85 0 0 0 .35.28l3.62 2.08a2.67 2.67 0 0 0 2.41 0l3.6-2.08a.84.84 0 0 0 .49-.69v-.93a.85.85 0 0 1-.49.69zm-1.08 5.45v-.93a.85.85 0 0 0 .5.7l3.63 2.08a2.68 2.68 0 0 0 2.41 0l3.6-2.08a.86.86 0 0 0 .49-.7v.93a.85.85 0 0 1-.49.7l-3.6 2.08a2.66 2.66 0 0 1-2.41 0l-3.62-2.08a.84.84 0 0 1-.5-.7zm15.6 8.03l3.6-2.08a.85.85 0 0 0 .49-.7v-.93a.85.85 0 0 1-.49.7l-3.6 2.08a2.65 2.65 0 0 1-2.41 0l-3.62-2.08a.85.85 0 0 1-.5-.7v.88a.85.85 0 0 0 .5.7l3.62 2.08a2.68 2.68 0 0 0 2.41 0zm9.08 4.3l3.6-2.08a.85.85 0 0 0 .49-.7v.93a.84.84 0 0 1-.49.69l-3.6 2.08a2.66 2.66 0 0 1-2.41 0l-3.62-2.05a.86.86 0 0 1-.34-.28.84.84 0 0 1-.16-.41v-.93a.84.84 0 0 0 .16.42.85.85 0 0 0 .34.28l3.62 2.08a2.68 2.68 0 0 0 2.41 0zm-132.9-63.96l3.62 2.08a2.66 2.66 0 0 0 2.41 0l3.6-2.08a.85.85 0 0 0 .49-.69v-.93a.84.84 0 0 1-.49.69l-3.6 2.08a2.66 2.66 0 0 1-2.41 0l-3.63-2.08a.86.86 0 0 1-.5-.69v.93a.85.85 0 0 0 .5.69zm9.1 4.3l3.63 2.08a2.66 2.66 0 0 0 2.41 0l3.6-2.08a.86.86 0 0 0 .49-.69v.93a.85.85 0 0 1-.49.69l-3.6 2.08a2.67 2.67 0 0 1-2.41 0l-3.63-2.1a.85.85 0 0 1-.34-.28.86.86 0 0 1-.16-.41v-.9a.86.86 0 0 0 .5.69zm9 6.15l3.63 2.08a2.65 2.65 0 0 0 2.41 0l3.6-2.08a.84.84 0 0 0 .49-.7V514a.85.85 0 0 1-.49.7l-3.6 2.08a2.67 2.67 0 0 1-2.41 0L490 514.7a.85.85 0 0 1-.5-.7v.93a.83.83 0 0 0 .16.42.84.84 0 0 0 .34.28zm12.72 7.32l-3.62-2.08a.85.85 0 0 1-.5-.7v-.92a.85.85 0 0 0 .5.69l3.62 2.08a2.65 2.65 0 0 0 2.41 0l3.6-2.08a.85.85 0 0 0 .49-.69v.93a.85.85 0 0 1-.49.69l-3.6 2.08a2.68 2.68 0 0 1-2.41 0z"/><path d="M508.16 526.1l3.62 2.08a2.66 2.66 0 0 0 2.41 0l3.6-2.08a.84.84 0 0 0 .34-.28.83.83 0 0 0 .15-.41v-.93a.83.83 0 0 1-.15.41.84.84 0 0 1-.34.28l-3.6 2.08a2.67 2.67 0 0 1-2.41 0l-3.62-2.08a.84.84 0 0 1-.5-.7v.93a.85.85 0 0 0 .5.7zm12.7 7.32l-3.62-2.08a.85.85 0 0 1-.5-.69v-.93a.83.83 0 0 0 .5.69l3.62 2.08a2.65 2.65 0 0 0 2.41 0l3.6-2.08a.85.85 0 0 0 .49-.69v.93a.85.85 0 0 1-.49.69l-3.6 2.08a2.69 2.69 0 0 1-2.41 0zm5.45 3.15l3.63 2.08a2.65 2.65 0 0 0 2.41 0l3.6-2.08a.84.84 0 0 0 .34-.28.83.83 0 0 0 .15-.41v-.93a.83.83 0 0 1-.49.69l-3.6 2.08a2.66 2.66 0 0 1-2.41 0l-3.62-2.08a.85.85 0 0 1-.34-.28.84.84 0 0 1-.16-.41v.93a.85.85 0 0 0 .16.41.84.84 0 0 0 .33.28zm12.7 7.3l-3.63-2.08a.85.85 0 0 1-.34-.28.86.86 0 0 1-.16-.41v-.93a.85.85 0 0 0 .5.69L539 543a2.66 2.66 0 0 0 2.41 0l3.6-2.08a.84.84 0 0 0 .49-.69v.93a.84.84 0 0 1-.49.69l-3.6 2.08a2.67 2.67 0 0 1-2.41 0zm5.42 3.12l3.63 2.08a2.65 2.65 0 0 0 2.41 0l3.6-2.08a.84.84 0 0 0 .49-.69v-.93a.84.84 0 0 1-.49.69l-3.6 2.08a2.68 2.68 0 0 1-2.41 0l-3.63-2.08a.86.86 0 0 1-.5-.69v.93a.85.85 0 0 0 .16.41.84.84 0 0 0 .34.28zm12.68 7.35l-3.63-2.08a.86.86 0 0 1-.5-.69v-.93a.85.85 0 0 0 .16.41.84.84 0 0 0 .34.28l3.63 2.08a2.65 2.65 0 0 0 2.41 0l3.6-2.08a.84.84 0 0 0 .49-.69v.92a.87.87 0 0 1-.15.41.86.86 0 0 1-.34.28l-3.6 2.08a2.67 2.67 0 0 1-2.41 0zm5.45 3.15l3.62 2.08a2.66 2.66 0 0 0 2.41 0l3.6-2.08a.85.85 0 0 0 .49-.69v-.93a.84.84 0 0 1-.49.69l-3.6 2.08a2.68 2.68 0 0 1-2.41 0l-3.63-2.08a.84.84 0 0 1-.34-.28.85.85 0 0 1-.16-.41v.93a.85.85 0 0 0 .5.69zm12.68 7.32l-3.62-2.08a.84.84 0 0 1-.34-.28.86.86 0 0 1-.16-.41v-.93a.86.86 0 0 0 .16.41.85.85 0 0 0 .34.28l3.63 2.08a2.65 2.65 0 0 0 2.41 0l3.6-2.08a.86.86 0 0 0 .34-.28.84.84 0 0 0 .15-.41v.88a.86.86 0 0 1-.15.41.85.85 0 0 1-.34.28l-3.6 2.08a2.67 2.67 0 0 1-2.41 0zm5.45 3.18l3.62 2.08a2.66 2.66 0 0 0 2.41 0l3.6-2.08a.84.84 0 0 0 .49-.69v-.93a.85.85 0 0 1-.49.69l-3.6 2.08a2.67 2.67 0 0 1-2.41 0l-3.62-2.15a.86.86 0 0 1-.5-.69v.93a.85.85 0 0 0 .16.42.83.83 0 0 0 .34.34zm15.1 6.36l3.6-2.08a.84.84 0 0 0 .33-.27.85.85 0 0 0 .16-.4v.92a.85.85 0 0 1-.49.7l-3.6 2.07a2.67 2.67 0 0 1-2.41 0l-3.62-2.08a.85.85 0 0 1-.5-.69v-.93a.86.86 0 0 0 .16.42.85.85 0 0 0 .35.28l3.63 2.08a2.65 2.65 0 0 0 2.41 0zM473 509.7v-.93a.84.84 0 0 1-.49.69l-3.6 2.08a2.66 2.66 0 0 1-2.41 0l-3.63-2.08a.86.86 0 0 1-.5-.69v.9a.86.86 0 0 0 .5.69l3.63 2.08a2.67 2.67 0 0 0 2.41 0l3.6-2.08a.85.85 0 0 0 .49-.68zm9.1 4.3v.93a.85.85 0 0 1-.49.69l-3.6 2.08a2.65 2.65 0 0 1-2.41 0l-3.6-2.07a.85.85 0 0 1-.5-.69V514a.85.85 0 0 0 .16.41.84.84 0 0 0 .34.28l3.63 2.08a2.66 2.66 0 0 0 2.41 0l3.6-2.08a.83.83 0 0 0 .49-.69zm9.06 6.17v-.93a.85.85 0 0 1-.15.41.87.87 0 0 1-.34.28l-3.6 2.08a2.65 2.65 0 0 1-2.41 0l-3.66-2.07a.85.85 0 0 1-.34-.28.86.86 0 0 1-.16-.41v.92a.85.85 0 0 0 .5.69l3.63 2.08a2.67 2.67 0 0 0 2.41 0l3.6-2.08a.85.85 0 0 0 .49-.69zm9.06 4.3v.93a.85.85 0 0 1-.15.41.84.84 0 0 1-.34.28l-3.6 2.08a2.65 2.65 0 0 1-2.41 0l-3.62-2.08a.83.83 0 0 1-.5-.69v-.93a.86.86 0 0 0 .16.41.85.85 0 0 0 .34.28l3.63 2.08a2.67 2.67 0 0 0 2.41 0l3.6-2.08a.85.85 0 0 0 .49-.69zm9.08 6.16v-.93a.85.85 0 0 1-.49.69l-3.6 2.08a2.65 2.65 0 0 1-2.41 0l-3.62-2.08a.84.84 0 0 1-.35-.28.85.85 0 0 1-.16-.42v.93a.85.85 0 0 0 .5.69l3.62 2.08a2.68 2.68 0 0 0 2.41 0l3.6-2.08a.85.85 0 0 0 .5-.69zm9.05 4.3v.93a.84.84 0 0 1-.5.69l-3.6 2.08a2.65 2.65 0 0 1-2.41 0l-3.62-2.08a.85.85 0 0 1-.5-.69v-.93a.85.85 0 0 0 .5.69l3.62 2.08a2.67 2.67 0 0 0 2.41 0l3.6-2.08a.84.84 0 0 0 .49-.69zm9.07 6.15v-.93a.84.84 0 0 1-.15.41.85.85 0 0 1-.34.28l-3.6 2.08a2.65 2.65 0 0 1-2.41 0l-3.62-2.08a.83.83 0 0 1-.5-.69v.93a.86.86 0 0 0 .16.41.85.85 0 0 0 .34.28l3.62 2.08a2.68 2.68 0 0 0 2.41 0l3.6-2.08a.84.84 0 0 0 .49-.69zm9.06 4.3v.93a.84.84 0 0 1-.49.69l-3.6 2.08a2.65 2.65 0 0 1-2.41 0l-3.63-2.1a.84.84 0 0 1-.34-.28.85.85 0 0 1-.16-.41v-.93a.85.85 0 0 0 .5.69l3.63 2.08a2.67 2.67 0 0 0 2.41 0l3.6-2.08a.84.84 0 0 0 .49-.69zm9.06 6.17v-.92a.84.84 0 0 1-.49.69l-3.6 2.08a2.66 2.66 0 0 1-2.43 0l-3.62-2.08a.86.86 0 0 1-.5-.69v.93a.86.86 0 0 0 .5.69l3.63 2.08a2.67 2.67 0 0 0 2.41 0l3.6-2.08a.84.84 0 0 0 .51-.7zm9.06 4.3v.93a.84.84 0 0 1-.49.69l-3.6 2.08a2.65 2.65 0 0 1-2.41 0l-3.63-2.08a.84.84 0 0 1-.34-.28.85.85 0 0 1-.16-.42v-.93a.85.85 0 0 0 .16.42.87.87 0 0 0 .34.28l3.63 2.08a2.69 2.69 0 0 0 2.41 0l3.6-2.08a.85.85 0 0 0 .49-.7zm9.08 6.12v-.92a.84.84 0 0 1-.49.69l-3.6 2.08a2.65 2.65 0 0 1-2.41 0l-3.63-2.08a.84.84 0 0 1-.34-.28.85.85 0 0 1-.16-.41v.92a.85.85 0 0 0 .5.69l3.63 2.08a2.68 2.68 0 0 0 2.41 0l3.6-2.08a.85.85 0 0 0 .34-.28.86.86 0 0 0 .15-.41zm9.06 4.35v.93a.85.85 0 0 1-.49.69l-3.6 2.08a2.65 2.65 0 0 1-2.41 0L562.6 568a.86.86 0 0 1-.34-.28.84.84 0 0 1-.16-.41v-.93a.85.85 0 0 0 .5.7l3.63 2.08a2.68 2.68 0 0 0 2.41 0l3.6-2.08a.84.84 0 0 0 .49-.7zm9.06 6.17v-.92a.85.85 0 0 1-.15.41.83.83 0 0 1-.34.28l-3.6 2.08a2.66 2.66 0 0 1-2.41 0l-3.63-2.08a.85.85 0 0 1-.5-.69v.93a.86.86 0 0 0 .16.41.85.85 0 0 0 .34.28l3.62 2.08a2.67 2.67 0 0 0 2.41 0l3.6-2.1a.85.85 0 0 0 .48-.7zm4.98 7.08l3.6-2.08a.86.86 0 0 0 .49-.71v.93a.85.85 0 0 1-.49.69l-3.6 2.08a2.66 2.66 0 0 1-2.41 0l-3.62-2.08a.84.84 0 0 1-.5-.69v-.92a.85.85 0 0 0 .5.7l3.63 2.08a2.68 2.68 0 0 0 2.41 0z"/></g><g class="C"><use xlink:href="#AK"/><use xlink:href="#AL"/><use xlink:href="#AM"/><use xlink:href="#AN"/><use xlink:href="#AO"/><use xlink:href="#AP"/><use xlink:href="#AQ"/><use xlink:href="#AR"/><use xlink:href="#AS"/><use xlink:href="#AT"/><use xlink:href="#AU"/><use xlink:href="#AV"/><use xlink:href="#AW"/><use xlink:href="#AX"/><use xlink:href="#AY"/><use xlink:href="#AZ"/><use xlink:href="#Aa"/><use xlink:href="#Ab"/><use xlink:href="#Ac"/><use xlink:href="#Ad"/><use xlink:href="#Ae"/><use xlink:href="#Af"/><use xlink:href="#Ag"/><use xlink:href="#Ah"/><use xlink:href="#Ai"/><use xlink:href="#Aj"/><use xlink:href="#Ak"/><use xlink:href="#Al"/><use xlink:href="#Am"/><use xlink:href="#An"/><use xlink:href="#Ao"/><use xlink:href="#Ap"/><use xlink:href="#Aq"/><use xlink:href="#Ar"/><use xlink:href="#As"/><use xlink:href="#At"/><use xlink:href="#AY" x="63.52" y="47.1"/><use xlink:href="#Au"/><use xlink:href="#Av"/><use xlink:href="#Aw"/><use xlink:href="#Ax"/><use xlink:href="#Ay"/><use xlink:href="#Az"/><use xlink:href="#BA"/><use xlink:href="#BB"/><use xlink:href="#BC"/><use xlink:href="#BD"/><use xlink:href="#BE"/><use xlink:href="#BF"/><use xlink:href="#BG"/><use xlink:href="#BH"/><use xlink:href="#BI"/><use xlink:href="#BJ"/><use xlink:href="#BK"/><use xlink:href="#BL"/><use xlink:href="#BM"/></g><g class="B D"><use xlink:href="#AK"/><use xlink:href="#AL"/><use xlink:href="#AM"/><use xlink:href="#AN"/><use xlink:href="#AO"/><use xlink:href="#AP"/><use xlink:href="#AQ"/><use xlink:href="#AR"/><use xlink:href="#AS"/><use xlink:href="#AT"/><use xlink:href="#AU"/><use xlink:href="#AV"/><use xlink:href="#AW"/><use xlink:href="#AX"/><use xlink:href="#AY"/><use xlink:href="#AZ"/><use xlink:href="#Aa"/><use xlink:href="#Ab"/><use xlink:href="#Ac"/><use xlink:href="#Ad"/><use xlink:href="#Ae"/><use xlink:href="#Af"/><use xlink:href="#Ag"/><use xlink:href="#Ah"/><use xlink:href="#Ai"/><use xlink:href="#Aj"/><use xlink:href="#Ak"/><use xlink:href="#Al"/><use xlink:href="#Am"/><use xlink:href="#An"/><use xlink:href="#Ao"/><use xlink:href="#Ap"/><use xlink:href="#Aq"/><use xlink:href="#Ar"/><use xlink:href="#As"/><use xlink:href="#At"/><use xlink:href="#AY" x="63.52" y="47.1"/><use xlink:href="#Au"/><use xlink:href="#Av"/><use xlink:href="#Aw"/><use xlink:href="#Ax"/><use xlink:href="#Ay"/><use xlink:href="#Az"/><use xlink:href="#BA"/><use xlink:href="#BB"/><use xlink:href="#BC"/><use xlink:href="#BD"/><use xlink:href="#BE"/><use xlink:href="#BF"/><use xlink:href="#BG"/><use xlink:href="#BH"/><use xlink:href="#BI"/><use xlink:href="#BJ"/><use xlink:href="#BK"/><use xlink:href="#BL"/><use xlink:href="#BM"/></g><g class="C"><use xlink:href="#BN"/><use xlink:href="#BO"/><use xlink:href="#BP"/><use xlink:href="#BQ"/></g><g class="B"><use xlink:href="#BN" class="F"/><use xlink:href="#BO" class="F"/><use xlink:href="#BP" class="F"/><use xlink:href="#BQ" class="F"/></g><path d="M613.84 504.34l-94.36-54.48c-1.5-.88-2.74-.18-2.74 1.56a6 6 0 0 0 2.73 4.73l94.36 54.48c1.5.87 2.74.17 2.74-1.57a6 6 0 0 0-2.73-4.72zM519.5 443l83.5 48.18c1.5.88 2.74.17 2.74-1.56a6 6 0 0 0-2.73-4.73l-83.52-48.22c-1.5-.88-2.74-.17-2.75 1.56a6 6 0 0 0 2.76 4.77zm.03-13.24l94.38 54.48c1.5.88 2.74.17 2.74-1.57a6 6 0 0 0-2.73-4.72l-94.37-54.48c-1.5-.88-2.74-.18-2.74 1.56a6 6 0 0 0 2.73 4.73zm.04-13.2l68.3 39.43c1.5.87 2.74.17 2.75-1.57a6 6 0 0 0-2.73-4.72l-68.3-39.44c-1.5-.88-2.74-.18-2.75 1.56a6 6 0 0 0 2.73 4.73zM638.44 621a9.81 9.81 0 0 0-8.85 0l-20.16 11.64a9.82 9.82 0 0 0-4.43 7.67v23.28a9.82 9.82 0 0 0 4.43 7.67l20.16 11.64a9.82 9.82 0 0 0 8.85 0l20.16-11.64a9.82 9.82 0 0 0 4.42-7.67v-23.26a9.82 9.82 0 0 0-4.42-7.67z" class="C"/><path d="M634 680.36c0 2.8 2 4 4.42 2.56l20.16-11.64a9.82 9.82 0 0 0 4.42-7.67v-23.28c0-2.8-2-4-4.42-2.55l-20.16 11.64a9.82 9.82 0 0 0-4.42 7.67z" class="B E"/><use xlink:href="#BR" class="C"/><g class="B"><use xlink:href="#BR" class="D"/><path d="M607 640.36c0 2.8 2 4 4.42 2.55l20.16-11.64a9.82 9.82 0 0 0 4.42-7.67v-23.27c0-2.8-2-4-4.42-2.55l-20.16 11.64a9.81 9.81 0 0 0-4.42 7.66z" class="E"/></g><path d="M225.63 392.9a8.64 8.64 0 0 1 7.79 0L273.5 416a8.64 8.64 0 0 1 3.9 6.75v46.28a8.64 8.64 0 0 1-3.9 6.74L255.76 486a8.64 8.64 0 0 1-7.79 0l-40.07-23.14a8.64 8.64 0 0 1-3.89-6.75V409.9a8.64 8.64 0 0 1 3.89-6.74z" class="C"/><g class="B"><path d="M274.2 428.4c0-.5-.35-.7-.78-.45l-17.58 10.15a1.73 1.73 0 0 0-.78 1.35v1.9c0 .5.35.7.78.45l17.6-10.15a1.73 1.73 0 0 0 .78-1.35zm0 7.37c0-.5-.35-.7-.78-.45l-17.6 10.15a1.73 1.73 0 0 0-.78 1.35v1.88c0 .5.35.7.78.45l17.6-10.15a1.73 1.73 0 0 0 .78-1.35zm-12.76 17.53l-9.57 5.53v7.37l9.57-5.53z" class="D"/><path d="M267.82 449.6l-6.38 3.68v7.37l6.38-3.68z" opacity=".6"/><path d="M277.4 444.08l-9.57 5.53v7.4l9.57-5.53z" class="D"/></g><path d="M263.5 457.1c-.63-.36-.63-1.54 0-2.63s1.65-1.68 2.27-1.3.63 1.54 0 2.63-1.64 1.67-2.27 1.3z" class="C"/><path d="M251.86 483.8c0 2.47-1.75 3.5-3.9 2.25L207.9 462.9a8.64 8.64 0 0 1-3.89-6.75V409.9c0-2.47 1.75-3.48 3.9-2.25l40.1 23.14a8.64 8.64 0 0 1 3.89 6.74z" class="B E"/><g class="B E"><path d="M207.87 413.1l14.83 8.56a.9.9 0 0 1 .45.78v.56a.45.45 0 0 1-.67.39l-14.83-8.56a.9.9 0 0 1-.45-.78v-.6a.46.46 0 0 1 .06-.23.45.45 0 0 1 .16-.17.44.44 0 0 1 .23-.06.45.45 0 0 1 .22.1zm0 3.68l14.83 8.56a.9.9 0 0 1 .45.78v.6a.45.45 0 0 1-.67.39l-14.83-8.56a.9.9 0 0 1-.45-.78v-.6a.45.45 0 0 1 .68-.39zm0 3.68L222.7 429a.9.9 0 0 1 .45.78v.6a.45.45 0 0 1-.67.39l-14.83-8.56a.89.89 0 0 1-.33-.33.9.9 0 0 1-.12-.45v-.6a.45.45 0 0 1 .45-.45.45.45 0 0 1 .22.08z"/><use xlink:href="#BS"/><path d="M207.87 444.5l14.83 8.56a.9.9 0 0 1 .45.78v.6a.45.45 0 0 1-.67.39l-14.83-8.56a.9.9 0 0 1-.45-.78v-.6a.45.45 0 0 1 .67-.39zm0 3.7l14.83 8.56a.9.9 0 0 1 .45.78v.6a.45.45 0 0 1-.22.39.44.44 0 0 1-.45 0l-14.83-8.56a.9.9 0 0 1-.45-.78v-.6a.45.45 0 0 1 .23-.39.44.44 0 0 1 .23-.06.45.45 0 0 1 .21.06z"/><use xlink:href="#BS" y="27.73"/><path d="M207.87 455.55l14.83 8.56a.9.9 0 0 1 .45.78v.6a.45.45 0 0 1-.45.45.45.45 0 0 1-.22-.06l-14.83-8.56a.9.9 0 0 1-.45-.78v-.6a.44.44 0 0 1 .06-.22.45.45 0 0 1 .61-.16z"/></g><path d="M356.44 419.55a5.42 5.42 0 0 0-4.88 0L340.44 426a5.41 5.41 0 0 0-2.44 4.2V443a5.41 5.41 0 0 0 2.44 4.23l11.12 6.42a5.42 5.42 0 0 0 4.88 0l11.12-6.42A5.41 5.41 0 0 0 370 443v-12.8a5.41 5.41 0 0 0-2.44-4.23z" class="C"/><path d="M354 452.28c0 1.55 1.1 2.18 2.44 1.4l11.12-6.42A5.42 5.42 0 0 0 370 443v-12.8c0-1.55-1.1-2.18-2.44-1.4l-11.12 6.42a5.41 5.41 0 0 0-2.44 4.23z" class="B E"/><use xlink:href="#BT" class="C"/><g class="B"><use xlink:href="#BT" class="D"/><path d="M333 465.28c0 1.55 1.1 2.18 2.44 1.4l11.12-6.42A5.42 5.42 0 0 0 349 456v-12.8c0-1.55-1.1-2.18-2.44-1.4l-11.12 6.42a5.41 5.41 0 0 0-2.44 4.23z" class="E"/></g><path d="M313.44 446.55a5.42 5.42 0 0 0-4.88 0L297.44 453a5.41 5.41 0 0 0-2.44 4.2V470a5.41 5.41 0 0 0 2.44 4.23l11.12 6.42a5.42 5.42 0 0 0 4.88 0l11.12-6.42A5.41 5.41 0 0 0 327 470v-12.8a5.41 5.41 0 0 0-2.44-4.23z" class="C"/><path d="M311 479.28c0 1.55 1.1 2.18 2.44 1.4l11.12-6.42A5.41 5.41 0 0 0 327 470v-12.8c0-1.55-1.1-2.18-2.44-1.4l-11.12 6.42a5.41 5.41 0 0 0-2.44 4.23z" class="B E"/><g class="C"><use xlink:href="#BU"/><use xlink:href="#BV"/><use xlink:href="#BW"/><path d="M304.62 722l-.16 27.66H287.9v8.53h16.58l.16-27.66zm-16.02 17.76v-8.53l-31.77.34v8.53zm-78.34-9.46l51.8 52.12 13.46-7.77v8.53l-13.44 7.8-51.8-52.12zm-3.5 38.7v-8.53l-.7 18.4v8.53zM190 788.14h47.75v-1.07l-.05 9.6H190z"/></g><path d="M304.62 722l-.16 27.66H287.9v8.53h16.58l.16-27.66zm-16.02 17.76v-8.53l-31.77.34v8.53zm-78.34-9.46l51.8 52.12 13.46-7.77v8.53l-13.44 7.8-51.8-52.12zm-3.5 38.7v-8.53l-.7 18.4v8.53zM190 788.14h47.75v-1.07l-.05 9.6H190z" class="B G"/><g class="C"><use xlink:href="#BU"/><use xlink:href="#BV"/><use xlink:href="#BW"/></g><g class="B D"><use xlink:href="#BU"/><use xlink:href="#BV"/><use xlink:href="#BW"/></g><g class="C"><use xlink:href="#BX"/><use xlink:href="#BY"/><use xlink:href="#BZ"/><use xlink:href="#Ba"/><path d="M618.4 440.48L614 443a5.89 5.89 0 0 0 3-.73l4.4-2.56a5.91 5.91 0 0 1-3 .77z"/><use xlink:href="#Bb"/></g><g class="B G"><use xlink:href="#BZ"/><use xlink:href="#Ba"/><path d="M618.4 440.48L614 443a5.89 5.89 0 0 0 3-.73l4.4-2.56a5.91 5.91 0 0 1-3 .77z"/><use xlink:href="#Bb"/></g><g class="C"><use xlink:href="#BX"/><use xlink:href="#BY"/></g><g class="B D"><use xlink:href="#BX"/><path d="M637.56 488.83l10-58.5c13.2 10.4 23.18 29.48 23.13 45.46 0 18-12.8 25.26-28.45 16.2a43.15 43.15 0 0 1-4.68-3.16z"/></g><path d="M218.44 529.55a5.42 5.42 0 0 0-4.88 0L202.44 536a5.41 5.41 0 0 0-2.44 4.2V553a5.41 5.41 0 0 0 2.44 4.23l11.12 6.42a5.42 5.42 0 0 0 4.88 0l11.12-6.42A5.41 5.41 0 0 0 232 553v-12.8a5.41 5.41 0 0 0-2.44-4.23z" class="C"/><path d="M216 562.28c0 1.55 1.1 2.18 2.44 1.4l11.12-6.42A5.41 5.41 0 0 0 232 553v-12.8c0-1.55-1.1-2.18-2.44-1.4l-11.12 6.42a5.41 5.41 0 0 0-2.44 4.23z" class="B E"/><use xlink:href="#Bc" class="C"/><g class="B"><use xlink:href="#Bc" class="D"/><path d="M191 577.28c0 1.55 1.1 2.18 2.44 1.4l11.12-6.42A5.41 5.41 0 0 0 207 568v-12.8c0-1.55-1.1-2.18-2.44-1.4l-11.12 6.42a5.41 5.41 0 0 0-2.44 4.23z" class="E"/></g><g class="C"><use xlink:href="#Bd"/><use xlink:href="#Be"/></g><use xlink:href="#Be" opacity=".2" class="B"/><g class="C"><use xlink:href="#Bd"/><use xlink:href="#Bf"/></g><use xlink:href="#Bf" opacity=".75" class="B"/><path d="M143.15 444.25c-1.65-1-3-.2-3 1.7v3.43l79.7 46V492a6.57 6.57 0 0 0-3-5.16z" class="C"/><path d="M143.15 444.25c-1.65-1-3-.2-3 1.7v3.43l79.7 46V492a6.57 6.57 0 0 0-3-5.16z" class="B H"/><g class="C"><use xlink:href="#Bg"/><use xlink:href="#Bh"/><use xlink:href="#Bi"/></g><g class="B"><use xlink:href="#Bg" class="I"/><use xlink:href="#Bh" class="I"/><use xlink:href="#Bi" class="I"/></g><path d="M151.83 451.35a3.28 3.28 0 0 1 1.49 2.58c0 .95-.67 1.33-1.5.85a3.29 3.29 0 0 1-1.49-2.58c0-.95.67-1.33 1.5-.85zm-4.1-2.35a3.28 3.28 0 0 1 1.49 2.58c0 .95-.68 1.33-1.5.85a3.29 3.29 0 0 1-1.49-2.58c0-.97.67-1.35 1.5-.85zm-4.1-2.4a3.29 3.29 0 0 1 1.48 2.58c0 .95-.67 1.33-1.5.85a3.28 3.28 0 0 1-1.49-2.58c0-.95.67-1.33 1.5-.85zm63.87 72.84l-57.8-33.38a1.18 1.18 0 0 0-1.19-.12l-1 .58a1.19 1.19 0 0 1 1.19.12L206.52 520a3.68 3.68 0 0 1 1.67 2.89 1.18 1.18 0 0 1-.49 1.08l1-.58a1.17 1.17 0 0 0 .49-1.08 3.67 3.67 0 0 0-1.67-2.89zm-58.77-40.9L194.5 505a3.69 3.69 0 0 1 1.67 2.9 1.17 1.17 0 0 1-.49 1.08l1-.58a1.17 1.17 0 0 0 .49-1.07 3.68 3.68 0 0 0-1.67-2.9L149.72 478a1.2 1.2 0 0 0-1.2-.12l-1 .58a1.19 1.19 0 0 1 1.19.12zm.02-8.08l37.4 21.58a3.69 3.69 0 0 1 1.67 2.9 1.19 1.19 0 0 1-.1.61 1.17 1.17 0 0 1-.39.47l1-.58a1.17 1.17 0 0 0 .39-.47 1.19 1.19 0 0 0 .1-.61 3.69 3.69 0 0 0-1.68-2.9l-37.38-21.58a1.19 1.19 0 0 0-1.19-.12l-1 .58a1.18 1.18 0 0 1 1.19.12zm.02-8.1l50.53 29.17a3.7 3.7 0 0 1 1.67 2.9 1.18 1.18 0 0 1-.49 1.08l1-.58a1.17 1.17 0 0 0 .39-.47 1.18 1.18 0 0 0 .1-.6 3.69 3.69 0 0 0-1.67-2.9l-50.53-29.17a1.19 1.19 0 0 0-1.19-.12l-1 .58a1.19 1.19 0 0 1 1.19.12z" class="C"/><path d="M207.5 519.44l-57.8-33.38a1.19 1.19 0 0 0-1.19-.12l-1 .58a1.19 1.19 0 0 1 1.19.12L206.52 520a3.68 3.68 0 0 1 1.67 2.89 1.18 1.18 0 0 1-.49 1.08l1-.58a1.17 1.17 0 0 0 .49-1.08 3.68 3.68 0 0 0-1.67-2.89zm-58.77-40.9L194.5 505a3.68 3.68 0 0 1 1.67 2.9 1.17 1.17 0 0 1-.49 1.08l1-.58a1.17 1.17 0 0 0 .49-1.07 3.68 3.68 0 0 0-1.67-2.9L149.72 478a1.19 1.19 0 0 0-1.2-.12l-1 .58a1.19 1.19 0 0 1 1.19.12zm.02-8.08L186.13 492a3.69 3.69 0 0 1 1.67 2.9 1.18 1.18 0 0 1-.1.61 1.19 1.19 0 0 1-.39.47l1-.58a1.18 1.18 0 0 0 .49-1.08 3.69 3.69 0 0 0-1.67-2.9l-37.38-21.58a1.19 1.19 0 0 0-1.19-.12l-1 .58a1.19 1.19 0 0 1 1.19.12zm.02-8.1l50.53 29.17a3.7 3.7 0 0 1 1.67 2.9 1.18 1.18 0 0 1-.49 1.07l1-.58a1.17 1.17 0 0 0 .49-1.07 3.69 3.69 0 0 0-1.67-2.9l-50.53-29.17a1.18 1.18 0 0 0-1.19-.12l-1 .58a1.18 1.18 0 0 1 1.19.12z" opacity=".6" class="B"/><g class="C"><path d="M206.52 520l-57.82-33.36c-.93-.54-1.68-.1-1.68 1a3.68 3.68 0 0 0 1.67 2.9l57.82 33.38c.93.53 1.68.1 1.68-1a3.68 3.68 0 0 0-1.67-2.89z"/><use xlink:href="#Bj"/><use xlink:href="#Bk"/><use xlink:href="#Bl"/></g><g class="B D"><path d="M206.52 520l-57.82-33.36c-.93-.54-1.68-.1-1.68 1a3.69 3.69 0 0 0 1.67 2.9l57.82 33.38c.93.53 1.68.1 1.68-1a3.68 3.68 0 0 0-1.67-2.89z"/><use xlink:href="#Bj"/><use xlink:href="#Bk"/><use xlink:href="#Bl"/></g><use xlink:href="#Bm" class="C"/><g class="B"><use xlink:href="#Bm" class="D"/><path d="M264.5 684.48c0 1.8 1.27 2.53 2.82 1.63l12.86-7.42a6.26 6.26 0 0 0 2.82-4.89V659c0-1.8-1.27-2.52-2.82-1.63l-12.86 7.42a6.26 6.26 0 0 0-2.82 4.89z" class="E"/></g><path d="M241.32 661.64a6.26 6.26 0 0 0-5.64 0l-12.86 7.42A6.26 6.26 0 0 0 220 674v14.8a6.26 6.26 0 0 0 2.82 4.89l12.86 7.42a6.26 6.26 0 0 0 5.64 0l12.86-7.42a6.26 6.26 0 0 0 2.82-4.89V674a6.26 6.26 0 0 0-2.82-4.89z" class="C"/><path d="M238.5 699.48c0 1.8 1.27 2.53 2.82 1.63l12.86-7.42a6.26 6.26 0 0 0 2.82-4.89V674c0-1.8-1.27-2.52-2.82-1.63l-12.86 7.42a6.26 6.26 0 0 0-2.82 4.89z" class="B E"/><g class="C"><use xlink:href="#Bn"/><use xlink:href="#Bo"/><use xlink:href="#Bp"/><use xlink:href="#Bq"/><use xlink:href="#Br"/><use xlink:href="#Bs"/></g><g class="B G"><use xlink:href="#Bp"/><use xlink:href="#Bq"/><use xlink:href="#Br"/><use xlink:href="#Bs"/></g><g class="C"><use xlink:href="#Bn"/><use xlink:href="#Bo"/></g><g class="B D"><use xlink:href="#Bn"/><use xlink:href="#Bo"/></g><path d="M358.9 454.8c-4.86-2.8-12.8-2.8-17.68 0l-91 52.5c-4.86 2.8-8.84 9.7-8.84 15.3v105c0 5.6 4 12.5 8.84 15.3l40.27 23.24c4.85 2.8 12.82 2.8 17.68 0l91-52.5C404 610.9 408 604 408 598.4v-105c0-5.6-4-12.5-8.84-15.3z" class="C"/><g class="B"><path d="M248.67 535.37c0-1.12.8-1.58 1.77-1l39.92 23a3.92 3.92 0 0 1 1.77 3.06v4.28c0 1.12-.8 1.58-1.77 1l-39.92-23a3.92 3.92 0 0 1-1.77-3.06zm0 16.73c0-1.12.8-1.58 1.77-1l39.92 23a3.92 3.92 0 0 1 1.77 3.06v4.28c0 1.12-.8 1.58-1.77 1l-39.92-23a3.92 3.92 0 0 1-1.77-3.06zm28.97 39.77l21.73 12.54v16.73l-21.73-12.55z" class="D"/><path d="M263.15,583.5l14.48,8.36v16.72l-14.48-8.36Z" opacity=".6"/><path d="M241.43,571l21.73,12.54v16.72l-21.73-12.54Z" class="D"/></g><path d="M273 600.52c1.43-.82 1.43-3.5 0-6s-3.74-3.8-5.16-3-1.43 3.5 0 6 3.7 3.82 5.16 3z" class="C"/><path d="M299.37 661.1c0 5.6 4 7.9 8.84 5.1l91-52.5c4.8-2.8 8.8-9.7 8.8-15.3v-105c0-5.6-4-7.9-8.84-5.1l-91 52.52c-4.86 2.8-8.84 9.7-8.84 15.3z" class="B E"/><path d="M399.22 500.65l-33.66 19.43a2 2 0 0 0-1 1.77v1.34a1 1 0 0 0 1.53.88l33.66-19.43a2 2 0 0 0 1-1.77v-1.34a1 1 0 0 0-1.53-.89zm0 8.35l-33.66 19.43a2 2 0 0 0-1 1.77v1.33a1 1 0 0 0 1.53.88l33.64-19.4a2 2 0 0 0 1-1.77v-1.33a1 1 0 0 0-1.53-.88zm0 8.36l-33.66 19.43a2 2 0 0 0-1 1.77v1.33a1 1 0 0 0 1.53.88l33.66-19.43a2 2 0 0 0 1-1.77v-1.33a1 1 0 0 0-1.53-.89zm0 8.36l-33.66 19.43a2 2 0 0 0-1 1.77v1.33a1 1 0 0 0 1.53.88l33.66-19.43a2 2 0 0 0 1-1.77v-1.33a1 1 0 0 0-1.53-.88zm0 46.2l-33.66 19.43a2 2 0 0 0-1 1.77v1.33a1 1 0 0 0 1.51.88l33.66-19.43a2 2 0 0 0 1-1.77v-1.34a1 1 0 0 0-1.53-.88zm0 8.35l-33.66 19.43a2 2 0 0 0-1 1.77v1.33a1 1 0 0 0 1.53.88l33.66-19.43a2 2 0 0 0 1-1.77v-1.33a1 1 0 0 0-1.02-1.02 1 1 0 0 0-.51.14zm0 8.36l-33.66 19.43a2 2 0 0 0-1 1.77v1.33a1 1 0 0 0 1.53.88l33.66-19.43a2 2 0 0 0 1-1.77v-1.33a1 1 0 0 0-1.53-.89zm0 8.36l-33.66 19.43a2 2 0 0 0-1 1.77v1.33a1 1 0 0 0 1.51.86l33.66-19.4a2 2 0 0 0 1-1.77v-1.33a1 1 0 0 0-1.51-.88z" class="B E"/><use xlink:href="#Bt" class="C"/><g class="B"><use xlink:href="#Bt" class="H"/><path d="M342.85 588.48c0 1.8 1.27 2.52 2.82 1.63l12.86-7.42a6.26 6.26 0 0 0 2.82-4.89V563c0-1.8-1.27-2.53-2.82-1.63l-12.86 7.42a6.26 6.26 0 0 0-2.82 4.89z" class="E"/></g><path d="M373.67 565.64a6.26 6.26 0 0 0-5.64 0l-12.86 7.42a6.26 6.26 0 0 0-2.82 4.89v14.85a6.26 6.26 0 0 0 2.82 4.89L368 605.1a6.26 6.26 0 0 0 5.64 0l12.86-7.42a6.26 6.26 0 0 0 2.82-4.89V578a6.26 6.26 0 0 0-2.82-4.89z" class="C"/><path d="M370.85 603.48c0 1.8 1.27 2.52 2.82 1.63l12.86-7.42a6.26 6.26 0 0 0 2.82-4.89V578c0-1.8-1.27-2.53-2.82-1.63l-12.86 7.42a6.26 6.26 0 0 0-2.82 4.89z" class="B E"/><g class="J"><use xlink:href="#Bu"/><use xlink:href="#Bv"/></g><g class="C"><use xlink:href="#Bw"/><use xlink:href="#Bx"/><use xlink:href="#By"/></g><g class="B G"><use xlink:href="#Bw"/><use xlink:href="#Bx"/><use xlink:href="#By"/></g><g class="C"><use xlink:href="#Bu"/><use xlink:href="#Bv"/></g><g class="B D"><use xlink:href="#Bu"/><use xlink:href="#Bv"/></g><g class="C"><use xlink:href="#Bz"/><use xlink:href="#CA"/></g><use xlink:href="#CA" opacity=".2" class="B"/><g class="C"><use xlink:href="#Bz"/><use xlink:href="#CB"/></g><use xlink:href="#CB" opacity=".75" class="B"/><use xlink:href="#CC" class="C"/><use xlink:href="#CC" class="B H"/><g class="C"><path d="M342.06 642a7.39 7.39 0 0 0-3.37 5.82 2.38 2.38 0 0 0 1 2.15l1.12.65a2.38 2.38 0 0 1-1-2.15 7.4 7.4 0 0 1 3.37-5.82 2.38 2.38 0 0 1 2.38-.24l-1.12-.65a2.38 2.38 0 0 0-2.38.24zm9.24-5.34a7.41 7.41 0 0 0-3.36 5.82 2.37 2.37 0 0 0 1 2.16l1.1.65a2.37 2.37 0 0 1-1-2.16 7.42 7.42 0 0 1 3.37-5.82 2.38 2.38 0 0 1 2.38-.24l-1.12-.65a2.38 2.38 0 0 0-2.38.24z"/><use xlink:href="#CD"/></g><g class="B"><path d="M342.06 642a7.39 7.39 0 0 0-3.37 5.82 2.38 2.38 0 0 0 1 2.15l1.12.65a2.38 2.38 0 0 1-1-2.16 7.39 7.39 0 0 1 3.37-5.82 2.38 2.38 0 0 1 2.38-.24l-1.12-.65a2.38 2.38 0 0 0-2.38.24zm9.24-5.34a7.41 7.41 0 0 0-3.36 5.82 2.37 2.37 0 0 0 1 2.16l1.1.65a2.37 2.37 0 0 1-1-2.16 7.42 7.42 0 0 1 3.37-5.82 2.38 2.38 0 0 1 2.38-.24l-1.12-.65a2.37 2.37 0 0 0-2.38.24z" class="I"/><use xlink:href="#CD" class="I"/></g><g class="C"><path d="M343.18 642.65a7.39 7.39 0 0 0-3.37 5.82c0 2.14 1.52 3 3.38 1.92a7.39 7.39 0 0 0 3.37-5.82c-.01-2.14-1.56-3-3.38-1.92zm9.25-5.35a7.42 7.42 0 0 0-3.37 5.82c0 2.14 1.53 3 3.4 1.92a7.42 7.42 0 0 0 3.36-5.82c-.01-2.14-1.54-3-3.38-1.92zm9.25-5.3a7.39 7.39 0 0 0-3.36 5.82c0 2.14 1.52 3 3.38 1.92a7.4 7.4 0 0 0 3.37-5.82c-.01-2.18-1.53-3.03-3.4-1.92zm82.85 51.92l-83.2 48a8.31 8.31 0 0 0-3.77 6.54 2.64 2.64 0 0 0 1.1 2.42l2.23 1.3a2.64 2.64 0 0 1-1.1-2.42 8.32 8.32 0 0 1 3.77-6.54l83.2-48a2.65 2.65 0 0 1 2.69-.26l-2.24-1.33a2.65 2.65 0 0 0-2.68.29zm36.7-39.47l-119.9 69.23a8.33 8.33 0 0 0-3.78 6.54 2.66 2.66 0 0 0 1.11 2.43l2.2 1.3a2.66 2.66 0 0 1-1.11-2.43 8.31 8.31 0 0 1 3.78-6.54l119.9-69.23a2.67 2.67 0 0 1 2.69-.26l-2.23-1.3a2.69 2.69 0 0 0-2.67.26z"/><use xlink:href="#CE"/><path d="M363.45 678.5l94.42-54.5a2.68 2.68 0 0 1 2.69-.27l-2.27-1.3a2.68 2.68 0 0 0-2.69.27l-94.4 54.5a8.33 8.33 0 0 0-3.78 6.54 2.66 2.66 0 0 0 1.11 2.43l2.23 1.3a2.65 2.65 0 0 1-1.11-2.42 8.31 8.31 0 0 1 3.78-6.54zm130.85-95.13a2.67 2.67 0 0 0-2.69.26L361.16 659a8.32 8.32 0 0 0-3.77 6.54 2.64 2.64 0 0 0 1.1 2.42l2.23 1.3a2.64 2.64 0 0 1-1.1-2.42 8.32 8.32 0 0 1 3.77-6.54l130.46-75.32a2.65 2.65 0 0 1 2.69-.26z"/></g><g opacity=".6" class="B"><path d="M444.53 683.9l-83.2 48a8.31 8.31 0 0 0-3.77 6.54 2.64 2.64 0 0 0 1.1 2.42l2.23 1.3a2.64 2.64 0 0 1-1.1-2.42 8.32 8.32 0 0 1 3.77-6.54l83.2-48a2.66 2.66 0 0 1 2.69-.26l-2.24-1.33a2.65 2.65 0 0 0-2.69.29zm36.7-39.45l-119.9 69.23a8.33 8.33 0 0 0-3.78 6.54 2.66 2.66 0 0 0 1.11 2.43l2.2 1.3a2.66 2.66 0 0 1-1.11-2.43 8.31 8.31 0 0 1 3.78-6.54l119.9-69.23a2.67 2.67 0 0 1 2.69-.26l-2.23-1.3a2.7 2.7 0 0 0-2.67.26z"/><use xlink:href="#CE"/><path d="M363.45 678.5l94.42-54.5a2.68 2.68 0 0 1 2.69-.27l-2.27-1.3a2.68 2.68 0 0 0-2.69.27l-94.4 54.5a8.33 8.33 0 0 0-3.78 6.54 2.66 2.66 0 0 0 1.11 2.43l2.23 1.3a2.65 2.65 0 0 1-1.11-2.42 8.32 8.32 0 0 1 3.78-6.54zm130.85-95.13a2.67 2.67 0 0 0-2.69.26L361.16 659a8.33 8.33 0 0 0-3.77 6.54 2.64 2.64 0 0 0 1.1 2.42l2.23 1.3a2.64 2.64 0 0 1-1.1-2.42 8.32 8.32 0 0 1 3.77-6.54l130.46-75.32a2.66 2.66 0 0 1 2.69-.26z"/></g><g class="C"><use xlink:href="#CF"/><use xlink:href="#CG"/><path d="M472.9 642.28l-109.4 63.15c-2.1 1.2-3.8.24-3.8-2.15a8.32 8.32 0 0 1 3.77-6.54l109.4-63.16c2.1-1.2 3.8-.2 3.8 2.17a8.35 8.35 0 0 1-3.78 6.54z"/><use xlink:href="#CH"/><use xlink:href="#CI"/></g><g class="B D"><use xlink:href="#CF"/><use xlink:href="#CG"/><path d="M472.9 642.28l-109.4 63.15c-2.1 1.2-3.8.25-3.8-2.15a8.32 8.32 0 0 1 3.77-6.54l109.4-63.16c2.1-1.2 3.8-.2 3.8 2.17a8.35 8.35 0 0 1-3.78 6.54z"/><use xlink:href="#CH"/><use xlink:href="#CI"/></g><g class="C"><use xlink:href="#CJ"/><use xlink:href="#CK"/><use xlink:href="#CL"/><use xlink:href="#CM"/><use xlink:href="#CN"/><path d="M104 616.66l-7 4.08a9.4 9.4 0 0 0 4.83-1.17l7-4.08a9.43 9.43 0 0 1-4.83 1.17z"/><use xlink:href="#CO"/></g><g class="B G"><use xlink:href="#CL"/><use xlink:href="#CM"/><use xlink:href="#CN"/><path d="M104 616.66l-7 4.08a9.4 9.4 0 0 0 4.83-1.17l7-4.08a9.43 9.43 0 0 1-4.83 1.17z"/><use xlink:href="#CO"/></g><g class="C"><path d="M134.58 693.8l16-93.33c21.06 16.6 37 47 36.9 72.52-.08 28.7-20.4 40.3-45.4 25.86a69.47 69.47 0 0 1-7.51-5.05z"/><use xlink:href="#CJ"/><use xlink:href="#CK"/></g><g class="B D"><use xlink:href="#CJ"/><use xlink:href="#CK"/></g><g class="J"><use xlink:href="#CP"/><use xlink:href="#CQ"/></g><g class="C"><use xlink:href="#CR"/><path d="M266.5 489.76a4 4 0 0 0-.61-2.06v3.5a4.05 4.05 0 0 1 .6 2.06z"/><use xlink:href="#CS"/></g><g class="B G"><use xlink:href="#CR"/><path d="M266.5 489.76a4 4 0 0 0-.61-2.06v3.5a4.05 4.05 0 0 1 .6 2.06z"/><use xlink:href="#CS"/></g><g class="C"><use xlink:href="#CP"/><use xlink:href="#CQ"/></g><g class="B D"><use xlink:href="#CP"/><use xlink:href="#CQ"/></g></svg>