<svg id="bdfa1655-4acf-433b-ad0d-e212751f25f8" data-name="Layer 1" xmlns="http://www.w3.org/2000/svg" viewBox="0 0 32 32"><title>bountyhunter</title><path d="M20,15.13a2.21,2.21,0,0,1-1.24.37,2.16,2.16,0,0,1-1.23-.39,2.12,2.12,0,0,1-.8-1,2.18,2.18,0,0,1-.09-1.29l.85-3.69L15.16,6.83a2.25,2.25,0,0,1-.53-2.33,2.21,2.21,0,0,1,.3-.57.42.42,0,0,1-.15,0l-1.56-.78a.49.49,0,0,0-.44,0l-1.56.78a.49.49,0,0,1-.44,0L9.22,3.11a.49.49,0,0,0-.44,0l-1.56.78a.49.49,0,0,1-.44,0L5.36,3.18A.25.25,0,0,0,5,3.4V28.6a.25.25,0,0,0,.36.22l1.42-.71a.49.49,0,0,1,.44,0l1.56.78a.49.49,0,0,0,.44,0l1.56-.78a.49.49,0,0,1,.44,0l1.56.78a.49.49,0,0,0,.44,0l1.56-.78a.49.49,0,0,1,.44,0l1.56.78a.49.49,0,0,0,.44,0l1.56-.78a.49.49,0,0,1,.44,0l1.56.78a.49.49,0,0,0,.44,0l1.56-.78a.49.49,0,0,1,.44,0l1.42.71A.25.25,0,0,0,25,28.6V14.48l-2-1.34ZM9,10h5a1,1,0,0,1,0,2H9a1,1,0,0,1,0-2Zm0,4h5a1,1,0,0,1,0,2H9a1,1,0,0,1,0-2ZM21,24H9a1,1,0,0,1,0-2H21a1,1,0,0,1,0,2Zm0-4H9a1,1,0,0,1,0-2H21a1,1,0,0,1,0,2Z" style="fill:#f2f1ff"/><path d="M30,5a.64.64,0,0,0-.23-.33.67.67,0,0,0-.37-.15l-4-.31L23.64.41a.83.83,0,0,0-.26-.3A.7.7,0,0,0,23,0a.73.73,0,0,0-.38.11.83.83,0,0,0-.26.3L20.64,4.24l-4,.31a.67.67,0,0,0-.36.14A.82.82,0,0,0,16,5a.78.78,0,0,0,0,.4.72.72,0,0,0,.19.34l2.95,2.88-1,4.51a.71.71,0,0,0,0,.41.75.75,0,0,0,.25.33.69.69,0,0,0,.39.12h0a.69.69,0,0,0,.39-.12L23,11.34l3.81,2.54a.69.69,0,0,0,.39.12h0a.63.63,0,0,0,.4-.14.68.68,0,0,0,.25-.33.67.67,0,0,0,0-.42L26.59,8.63l3.18-2.86A.69.69,0,0,0,30,5Z" style="fill:#f2f1ff"/></svg>