<svg id="90ae1035-9c4d-4f13-a60d-89d6decf8048" data-name="Layer 1" xmlns="http://www.w3.org/2000/svg" viewBox="0 0 24 24"><title>bountymanager</title><path d="M19.8,5.7H12L10.05,3.75H4.2A2,2,0,0,0,2.25,5.7V17.4a2,2,0,0,0,1.95,2H19.8a2,2,0,0,0,2-2V7.65A2,2,0,0,0,19.8,5.7Zm-.46,5.47a.41.41,0,0,1,0,.63l-1.87,1.68.75,2.64a.41.41,0,0,1-.63.46l-2.25-1.5-2.25,1.5a.41.41,0,0,1-.63-.44l.61-2.66-1.74-1.69a.41.41,0,0,1,.26-.71L14,10.9l1-2.25a.41.41,0,0,1,.75,0l1,2.25,2.35.19A.41.41,0,0,1,19.34,11.17Z" style="fill:#f2f1ff"/></svg>