<svg id="8f9f3bc6-259c-4ad3-b188-8694b59aa694" data-name="Layer 1" xmlns="http://www.w3.org/2000/svg" viewBox="0 0 32 32"><title>bounty-complete</title><path d="M21,14a1,1,0,0,1,0,2H9a1,1,0,0,1,0-2h4.55l-2-2H9a1,1,0,0,1,0-2h.75a2.89,2.89,0,0,1,.4-3.47,2.85,2.85,0,0,1,4.08,0l1.71,1.74L21,3.06a.45.45,0,0,0-.25,0l-1.56.78a.49.49,0,0,1-.44,0l-1.56-.78a.49.49,0,0,0-.44,0l-1.56.78a.49.49,0,0,1-.44,0l-1.56-.78a.49.49,0,0,0-.44,0l-1.56.78a.49.49,0,0,1-.44,0L9.22,3.11a.49.49,0,0,0-.44,0l-1.56.78a.49.49,0,0,1-.44,0L5.36,3.18A.25.25,0,0,0,5,3.4V28.6a.25.25,0,0,0,.36.22l1.42-.71a.49.49,0,0,1,.44,0l1.56.78a.49.49,0,0,0,.44,0l1.56-.78a.49.49,0,0,1,.44,0l1.56.78a.49.49,0,0,0,.44,0l1.56-.78a.49.49,0,0,1,.44,0l1.56.78a.49.49,0,0,0,.44,0l1.56-.78a.49.49,0,0,1,.44,0l1.56.78a.49.49,0,0,0,.44,0l1.56-.78a.49.49,0,0,1,.44,0l1.42.71A.25.25,0,0,0,25,28.6V7.17L18.33,14ZM9,18h9a1,1,0,0,1,0,2H9a1,1,0,0,1,0-2Zm12,6H9a1,1,0,0,1,0-2H21a1,1,0,0,1,0,2Z" style="fill:#f2f1ff"/><path d="M27.08,1a1.36,1.36,0,0,0-1-.41,1.33,1.33,0,0,0-1,.41l-9.2,9.42L13.16,7.58a1.35,1.35,0,0,0-1.94,0,1.36,1.36,0,0,0,0,1.89l4.72,4.83L27.08,2.89A1.34,1.34,0,0,0,27.08,1Z" style="fill:#f2f1ff"/></svg>