<svg xmlns="http://www.w3.org/2000/svg" width="24" height="24" fill="none"><path d="M17.712 20.8l-1.356-1.697c2.692-.775 3.72-2.493 3.72-2.493-.842.566-1.644.964-2.363 1.236-1.027.44-2.014.733-2.98.9-1.973.377-3.78.272-5.322-.02-1.17-.23-2.178-.566-3.02-.9a11.93 11.93 0 0 1-1.5-.712c-.062-.042-.123-.063-.185-.105-.04-.02-.062-.042-.082-.063l-.575-.356s.986 1.676 3.596 2.472L6.267 20.8C1.726 20.653 0 17.615 0 17.615 0 10.87 2.96 5.4 2.96 5.4c2.96-2.263 5.774-2.2 5.774-2.2l.205.25c-3.7 1.1-5.404 2.745-5.404 2.745s.452-.25 1.212-.608c2.2-.985 3.945-1.257 4.664-1.32.123-.02.226-.042.35-.042 1.253-.168 2.67-.2 4.15-.042a16.52 16.52 0 0 1 6.185 2.011s-1.623-1.57-5.116-2.66l.288-.335s2.815-.063 5.774 2.2c0 0 2.96 5.47 2.96 12.215 0 0-1.747 3.038-6.288 3.185zm-9.555-9.785c-1.17 0-2.096 1.048-2.096 2.326s.945 2.326 2.096 2.326c1.17 0 2.096-1.048 2.096-2.326.02-1.278-.925-2.326-2.096-2.326zm7.5 0c-1.17 0-2.096 1.048-2.096 2.326s.945 2.326 2.096 2.326c1.17 0 2.096-1.048 2.096-2.326s-.925-2.326-2.096-2.326z" fill="#f2f1ff"/></svg>