<svg id="28f8ec2b-94c6-4e26-ba13-ffba864e59e6" data-name="Layer 1" xmlns="http://www.w3.org/2000/svg" viewBox="0 0 24 24"><title>discord</title><path d="M17.71,20.8s-.74-.9-1.36-1.7a6.49,6.49,0,0,0,3.72-2.49,11.67,11.67,0,0,1-2.36,1.24,13.33,13.33,0,0,1-3,.9,14.12,14.12,0,0,1-5.32,0,17,17,0,0,1-3-.9,11.93,11.93,0,0,1-1.5-.71L4.71,17a.28.28,0,0,1-.08-.06c-.37-.21-.58-.36-.58-.36a6.4,6.4,0,0,0,3.6,2.47c-.62.8-1.38,1.74-1.38,1.74A7.43,7.43,0,0,1,0,17.62,28.48,28.48,0,0,1,3,5.4,10,10,0,0,1,8.73,3.2l.21.25A13.78,13.78,0,0,0,3.53,6.2S4,5.94,4.75,5.59A15.19,15.19,0,0,1,9.41,4.27a2,2,0,0,1,.35,0,17.05,17.05,0,0,1,4.15,0,16.52,16.52,0,0,1,6.18,2A13.6,13.6,0,0,0,15,3.54l.29-.34A10,10,0,0,1,21,5.4a28.48,28.48,0,0,1,3,12.22A7.49,7.49,0,0,1,17.71,20.8ZM8.16,11a2.21,2.21,0,0,0-2.1,2.33,2.23,2.23,0,0,0,2.1,2.33,2.21,2.21,0,0,0,2.1-2.33A2.2,2.2,0,0,0,8.16,11Zm7.5,0a2.21,2.21,0,0,0-2.1,2.33,2.23,2.23,0,0,0,2.1,2.33,2.21,2.21,0,0,0,2.1-2.33A2.21,2.21,0,0,0,15.66,11Z" style="fill:#f2f1ff"/></svg>