<svg id="ec841bcc-6438-4577-b14e-49596deb10de" data-name="Layer 1" xmlns="http://www.w3.org/2000/svg" viewBox="0 0 24 24"><title>dribbble</title><path d="M0,12A11.75,11.75,0,0,1,1.61,6,11.92,11.92,0,0,1,6,1.61,11.75,11.75,0,0,1,12,0a11.75,11.75,0,0,1,6,1.61A11.91,11.91,0,0,1,22.39,6,11.76,11.76,0,0,1,24,12a11.75,11.75,0,0,1-1.61,6A11.92,11.92,0,0,1,18,22.39,11.75,11.75,0,0,1,12,24a11.75,11.75,0,0,1-6-1.61A11.91,11.91,0,0,1,1.61,18,11.76,11.76,0,0,1,0,12Zm2,0a9.67,9.67,0,0,0,2.52,6.6,13.65,13.65,0,0,1,3.65-4.3A12,12,0,0,1,13,11.74q-.33-.77-.7-1.51a29.15,29.15,0,0,1-8.93,1.32q-.94,0-1.39,0,0,.12,0,.24T2,12ZM2.3,9.53q.53,0,1.56,0A26.33,26.33,0,0,0,11.47,8.5a24.33,24.33,0,0,0-4-5.4A9.74,9.74,0,0,0,4.21,5.76,10.25,10.25,0,0,0,2.3,9.53ZM5.88,19.9a9.8,9.8,0,0,0,9.64,1.44,35.26,35.26,0,0,0-1.87-7.94A10.24,10.24,0,0,0,9.2,15.82,13.6,13.6,0,0,0,5.87,19.9ZM9.55,2.33a25.48,25.48,0,0,1,3.91,5.45A12,12,0,0,0,18.38,4.3,9.73,9.73,0,0,0,12,2,9.22,9.22,0,0,0,9.55,2.33Zm4.78,7.15q.36.77.82,1.94,1.78-.17,3.86-.17,1.49,0,3,.07a9.63,9.63,0,0,0-2.35-5.81,11.87,11.87,0,0,1-5.28,4Zm1.42,3.62a34.52,34.52,0,0,1,1.66,7.3,10,10,0,0,0,3.1-3.14,9.69,9.69,0,0,0,1.44-4.15Q20.34,13,18.74,13,17.42,13,15.74,13.1Z" style="fill:#f2f1ff"/></svg>