<svg id="a93db7f0-1af5-4cbb-bc8d-590561003eca" data-name="Layer 1" xmlns="http://www.w3.org/2000/svg" viewBox="0 0 32 32"><title>fee</title><path d="M6.38,18.25V15.44A3.49,3.49,0,0,0,4.5,12,3.49,3.49,0,0,0,6.38,8.56V5.75A1.56,1.56,0,0,1,7.94,4.19h2.18A2.13,2.13,0,0,0,12.31,2H7A2.8,2.8,0,0,0,4.19,4.81V8.09A4,4,0,0,1,2,12a4,4,0,0,1,2.19,3.91v3.28A2.8,2.8,0,0,0,7,22a2.19,2.19,0,0,0,1.22-.36V19.81H7.94A1.56,1.56,0,0,1,6.38,18.25Z" style="fill:#f2f1ff"/><path d="M21.26,8.22a10,10,0,0,0-7.45-6.06L12.69,8.53a3.71,3.71,0,0,1,1.49-.31Z" style="fill:#f2f1ff"/><path d="M21.81,10.16l-3.47,19.7a10,10,0,0,0,3.47-19.7Z" style="fill:#f2f1ff"/><path d="M14.38,16.56V13.75a1.57,1.57,0,0,1,1.56-1.56h2.19A2.14,2.14,0,0,0,20.31,10H15a2.8,2.8,0,0,0-2.81,2.81v3.28A4,4,0,0,1,10,20a4,4,0,0,1,2.19,3.91v3.28A2.8,2.8,0,0,0,15,30a2.14,2.14,0,0,0,2.19-2.19H15.94a1.57,1.57,0,0,1-1.56-1.56V23.44A3.49,3.49,0,0,0,12.5,20,3.49,3.49,0,0,0,14.38,16.56Z" style="fill:#f2f1ff"/></svg>