<svg id="46f3e73b-0086-4bd6-98a0-26d65ea1096a" data-name="Layer 1" xmlns="http://www.w3.org/2000/svg" viewBox="0 0 24 24"><title>github</title><path d="M12,0A12.09,12.09,0,0,0,.16,10.34,12.34,12.34,0,0,0,8.21,24c.6.11.82-.27.82-.59l0-2.09c-3.34.74-4-1.65-4-1.65a3.2,3.2,0,0,0-1.33-1.8c-1.09-.76.08-.75.08-.75a2.53,2.53,0,0,1,1.84,1.27,2.52,2.52,0,0,0,3.49,1,2.65,2.65,0,0,1,.76-1.64c-2.66-.31-5.47-1.37-5.47-6.08a4.83,4.83,0,0,1,1.23-3.3A4.53,4.53,0,0,1,5.7,5.1s1-.33,3.3,1.26a11.1,11.1,0,0,1,6,0C17.3,4.77,18.3,5.1,18.3,5.1a4.53,4.53,0,0,1,.12,3.26,4.82,4.82,0,0,1,1.23,3.3c0,4.73-2.81,5.77-5.48,6.07A3,3,0,0,1,15,20l0,3.38c0,.33.22.71.82.59a12.34,12.34,0,0,0,8-13.65A12.1,12.1,0,0,0,12,0Z" style="fill:#f2f1ff"/></svg>