<svg xmlns="http://www.w3.org/2000/svg" width="24" height="24" fill="none"><path fill-rule="evenodd" d="M12 0C6.114.001 1.098 4.378.156 10.336s2.468 11.736 8.05 13.644c.6.113.82-.267.82-.593L9 21.294c-3.337.744-4.04-1.65-4.04-1.65-.54-1.422-1.332-1.8-1.332-1.8-1.09-.763.082-.748.082-.748 1.205.087 1.838 1.268 1.838 1.268 1.07 1.88 2.808 1.338 3.492 1.022.11-.795.42-1.338.76-1.644-2.664-.31-5.465-1.366-5.465-6.08-.018-1.222.426-2.405 1.235-3.302-.123-.312-.535-1.562.117-3.256 0 0 1.007-.33 3.3 1.26a11.1 11.1 0 0 1 6.008 0c2.29-1.592 3.297-1.26 3.297-1.26.655 1.694.243 2.945.12 3.256.77.86 1.234 1.958 1.234 3.302 0 4.727-2.805 5.766-5.478 6.072.43.38.815 1.13.815 2.278l-.015 3.376c0 .33.216.712.825.592 5.58-1.912 8.987-7.69 8.043-13.646S17.883.001 12 0z" fill="#f2f1ff"/></svg>