<svg id="564f3912-aadb-4e72-9a0c-54e07f44b4e5" data-name="Layer 1" xmlns="http://www.w3.org/2000/svg" viewBox="0 0 24 24"><title>instagram</title><path d="M12,5.85A6.15,6.15,0,1,0,18.15,12,6.14,6.14,0,0,0,12,5.85ZM12,16a4,4,0,1,1,4-4,4,4,0,0,1-4,4ZM19.84,5.6a1.43,1.43,0,1,1-1.43-1.44A1.43,1.43,0,0,1,19.84,5.6Zm4.07,1.46A7.1,7.1,0,0,0,22,2a7.14,7.14,0,0,0-5-1.94C15,0,9,0,7,.08A7.14,7.14,0,0,0,2,2,7.12,7.12,0,0,0,.08,7C0,9,0,15,.08,16.95A7.1,7.1,0,0,0,2,22a7.16,7.16,0,0,0,5,1.94c2,.11,7.92.11,9.9,0A7.1,7.1,0,0,0,22,22a7.15,7.15,0,0,0,1.94-5c.11-2,.11-7.92,0-9.9Zm-2.56,12a4,4,0,0,1-2.28,2.28c-1.58.63-5.33.48-7.07.48s-5.5.14-7.07-.48a4,4,0,0,1-2.28-2.28C2,17.49,2.17,13.74,2.17,12S2,6.5,2.65,4.93A4,4,0,0,1,4.93,2.64C6.51,2,10.26,2.16,12,2.16s5.5-.14,7.07.48a4,4,0,0,1,2.28,2.28c.63,1.58.48,5.33.48,7.07s.14,5.5-.48,7.07Z" style="fill:#f2f1ff"/></svg>