<svg xmlns="http://www.w3.org/2000/svg" width="24" height="24" fill="none"><path d="M11.996 5.847c-3.405 0-6.15 2.748-6.15 6.153a6.15 6.15 0 0 0 6.151 6.153c3.4 0 6.158-2.747 6.158-6.153s-2.747-6.153-6.158-6.153zm0 10.154c-2.2 0-4-1.8-4-4a4.01 4.01 0 0 1 1.174-2.827 4 4 0 0 1 5.654-.002A4.01 4.01 0 0 1 16.001 12a4.01 4.01 0 0 1-3.999 4h-.006zM19.84 5.595a1.43 1.43 0 0 1-1.984 1.327c-.174-.072-.332-.178-.466-.31s-.24-.292-.31-.466-.11-.36-.11-.55c0-.792.642-1.435 1.435-1.435s1.435.642 1.435 1.435zm4.075 1.457c-.09-1.922-.53-3.626-1.938-5.028C20.573.62 18.87.18 16.95.084c-1.98-.112-7.918-.112-9.9 0-1.916.09-3.618.53-5.027 1.934S.18 5.124.085 7.047c-.113 1.98-.113 7.92 0 9.902.09 1.922.53 3.626 1.938 5.028s3.105 1.842 5.027 1.938c1.98.112 7.918.112 9.9 0 1.922-.09 3.624-.53 5.028-1.938s1.842-3.106 1.938-5.028c.113-1.98.113-7.915 0-9.896h-.001zm-2.56 12.023a4.05 4.05 0 0 1-.903 1.378c-.392.392-.86.7-1.377.903-1.58.626-5.327.482-7.073.482s-5.5.14-7.073-.482c-.516-.203-.985-.51-1.377-.903a4.05 4.05 0 0 1-.904-1.378c-.626-1.58-.482-5.335-.482-7.075s-.14-5.5.482-7.074a4.05 4.05 0 0 1 .904-1.378c.392-.393.86-.7 1.378-.904 1.58-.626 5.327-.482 7.073-.482s5.5-.14 7.073.482c.516.203.985.51 1.377.903a4.05 4.05 0 0 1 .903 1.378c.626 1.58.482 5.328.482 7.074s.144 5.5-.482 7.074v.001z" fill="#f2f1ff"/></svg>