<svg id="dee6c340-5f8a-44c8-83e7-3d6877ea9dab" data-name="Layer 1" xmlns="http://www.w3.org/2000/svg" viewBox="0 0 32 32"><title>light</title><circle cx="16" cy="16" r="6.01" style="fill:#f2f1ff"/><path d="M16,24.4a1.2,1.2,0,0,0-1.2,1.2v1.2a1.2,1.2,0,1,0,2.4,0V25.6A1.2,1.2,0,0,0,16,24.4Z" style="fill:#f2f1ff"/><path d="M16,7.6a1.2,1.2,0,0,0,1.2-1.2V5.2a1.2,1.2,0,0,0-2.4,0V6.4A1.2,1.2,0,0,0,16,7.6Z" style="fill:#f2f1ff"/><path d="M7.6,16a1.2,1.2,0,0,0-1.2-1.2H5.2a1.2,1.2,0,0,0,0,2.4H6.4A1.2,1.2,0,0,0,7.6,16Z" style="fill:#f2f1ff"/><path d="M26.8,14.8H25.6a1.2,1.2,0,0,0,0,2.4h1.2a1.2,1.2,0,1,0,0-2.4Z" style="fill:#f2f1ff"/><path d="M8.36,21.94l-.85.85a1.2,1.2,0,1,0,1.7,1.7l.85-.85a1.2,1.2,0,1,0-1.7-1.7Z" style="fill:#f2f1ff"/><path d="M23.64,10.06l.85-.85a1.2,1.2,0,0,0-1.7-1.7l-.85.85a1.2,1.2,0,1,0,1.7,1.7Z" style="fill:#f2f1ff"/><path d="M8.36,10.06a1.2,1.2,0,0,0,1.7-1.7l-.85-.85a1.2,1.2,0,1,0-1.7,1.7Z" style="fill:#f2f1ff"/><path d="M23.64,21.94a1.2,1.2,0,1,0-1.7,1.7l.85.85a1.2,1.2,0,1,0,1.7-1.7Z" style="fill:#f2f1ff"/></svg>