<svg xmlns="http://www.w3.org/2000/svg" width="24" height="24" fill="none"><path fill-rule="evenodd" d="M24 0v24H0V0h24zM8.693 5.416H4.018v.27L5.523 7.5c.073.066.13.148.165.24s.05.2.04.288v7.126c.044.257-.037.52-.218.708l-1.693 2.054v.27h4.802v-.27L6.924 15.86c-.182-.187-.27-.448-.234-.708V9l4.215 9.196h.49L15.015 9v7.396c.006.056-.002.113-.025.164s-.058.097-.103.13l-1.302 1.264v.27h6.323v-.27L18.65 16.71a.38.38 0 0 1-.144-.361V7.282c-.023-.138.032-.276.144-.36l1.287-1.234v-.27h-4.455l-3.177 7.924-3.613-7.924z" fill="#f2f1ff"/></svg>