<svg id="6281d12d-0a8b-4f50-a8f1-64dbd112acb4" data-name="Layer 1" xmlns="http://www.w3.org/2000/svg" viewBox="0 0 32 32"><title>new-bounty</title><path d="M20.93,10.65a1.53,1.53,0,0,1-.82.24A1.49,1.49,0,0,1,19,10.45a1.51,1.51,0,0,1-.2-1.88l2.52-3.88a4.44,4.44,0,0,1-.07-1.54l-.08,0a.49.49,0,0,0-.44,0l-1.56.78a.49.49,0,0,1-.44,0l-1.56-.78a.49.49,0,0,0-.44,0l-1.56.78a.49.49,0,0,1-.44,0l-1.56-.78a.49.49,0,0,0-.44,0l-1.56.78a.49.49,0,0,1-.44,0L9.22,3.11a.49.49,0,0,0-.44,0l-1.56.78a.49.49,0,0,1-.44,0L5.36,3.18A.25.25,0,0,0,5,3.4V28.6a.25.25,0,0,0,.36.22l1.42-.71a.49.49,0,0,1,.44,0l1.56.78a.49.49,0,0,0,.44,0l1.56-.78a.49.49,0,0,1,.44,0l1.56.78a.49.49,0,0,0,.44,0l1.56-.78a.49.49,0,0,1,.44,0l1.56.78a.49.49,0,0,0,.44,0l1.56-.78a.49.49,0,0,1,.44,0l1.56.78a.49.49,0,0,0,.44,0l1.56-.78a.49.49,0,0,1,.44,0l1.42.71A.25.25,0,0,0,25,28.6V8.16l-.18,0ZM9,10h5a1,1,0,0,1,0,2H9a1,1,0,0,1,0-2Zm0,4h8a1,1,0,0,1,0,2H9a1,1,0,0,1,0-2ZM21,24H9a1,1,0,0,1,0-2H21a1,1,0,0,1,0,2Zm0-4H9a1,1,0,0,1,0-2H21a1,1,0,0,1,0,2Z" style="fill:#f2f1ff"/><path d="M27.89,1.61a3,3,0,0,0-4.24,0A3,3,0,0,0,23,4.91l-2.9,4.48,4.48-2.9a3,3,0,0,0,3.3-4.88Z" style="fill:#f2f1ff"/></svg>