<svg id="59182f13-6106-47ba-993a-32dd70cbb2c4" data-name="Layer 1" xmlns="http://www.w3.org/2000/svg" viewBox="0 0 24 24"><title>overview</title><path d="M3,12.25a.75.75,0,0,0,.75.75h6.5a.75.75,0,0,0,.75-.75V3.75A.75.75,0,0,0,10.25,3H3.75A.75.75,0,0,0,3,3.75Zm0,8a.75.75,0,0,0,.75.75h6.5a.75.75,0,0,0,.75-.75v-4.5a.75.75,0,0,0-.75-.75H3.75a.75.75,0,0,0-.75.75Zm10,0a.75.75,0,0,0,.75.75h6.5a.75.75,0,0,0,.75-.75v-8.5a.75.75,0,0,0-.75-.75h-6.5a.75.75,0,0,0-.75.75ZM13.75,3a.75.75,0,0,0-.75.75v4.5a.75.75,0,0,0,.75.75h6.5A.75.75,0,0,0,21,8.25V3.75A.75.75,0,0,0,20.25,3Z" style="fill:#f2f1ff"/></svg>