<svg id="9776f15d-f6db-462d-a1ea-8a7976d39c82" data-name="Layer 1" xmlns="http://www.w3.org/2000/svg" viewBox="0 0 32 32"><title>personal-bounty</title><path d="M20.93,10.65a1.53,1.53,0,0,1-.82.24A1.49,1.49,0,0,1,19,10.45a1.51,1.51,0,0,1-.2-1.88l2.52-3.88a4.44,4.44,0,0,1-.07-1.54l-.08,0a.49.49,0,0,0-.44,0l-1.56.78a.49.49,0,0,1-.44,0l-1.56-.78a.49.49,0,0,0-.44,0l-1.56.78a.49.49,0,0,1-.44,0l-1.56-.78a.49.49,0,0,0-.44,0l-1.56.78a.49.49,0,0,1-.44,0L9.22,3.11a.49.49,0,0,0-.44,0l-1.56.78a.49.49,0,0,1-.44,0L5.36,3.18A.25.25,0,0,0,5,3.4V28.6a.25.25,0,0,0,.36.22l1.42-.71a.49.49,0,0,1,.44,0l1.56.78a.49.49,0,0,0,.44,0l1.56-.78a.49.49,0,0,1,.44,0l1.56.78a.49.49,0,0,0,.44,0l1.56-.78a.49.49,0,0,1,.44,0l1.56.78a.49.49,0,0,0,.44,0l1.56-.78a.49.49,0,0,1,.44,0l1.56.78a.49.49,0,0,0,.44,0l1.56-.78a.49.49,0,0,1,.44,0l1.42.71A.25.25,0,0,0,25,28.6V8.16l-.18,0ZM15,10.5a4,4,0,1,1-4,4A4,4,0,0,1,15,10.5ZM23,26H7V24c0-2.66,5.33-4,8-4s8,1.34,8,4Z" style="fill:#f2f1ff"/><path d="M27.89,1.61a3,3,0,0,0-4.24,0A3,3,0,0,0,23,4.91l-2.9,4.48,4.48-2.9a3,3,0,0,0,3.3-4.88Z" style="fill:#f2f1ff"/></svg>