<svg id="16a579ca-d7b6-43aa-bc5b-0930554a3d36" data-name="Layer 1" xmlns="http://www.w3.org/2000/svg" viewBox="0 0 24 24"><title>reddit</title><path d="M12,0A12,12,0,1,1,0,12,12,12,0,0,1,12,0Zm4.81,4.71a1.2,1.2,0,0,0-1.08.7l-2.81-.63a.29.29,0,0,0-.22,0,.27.27,0,0,0-.12.2l-.86,4.19A8.17,8.17,0,0,0,7.14,10.7,1.66,1.66,0,0,0,6,10.2a1.71,1.71,0,0,0-1.68,1.74,1.74,1.74,0,0,0,1,1.59,3.33,3.33,0,0,0,0,.53c0,2.69,3,4.88,6.75,4.88s6.75-2.18,6.75-4.88a3.47,3.47,0,0,0,0-.53,1.77,1.77,0,0,0,1-1.59A1.72,1.72,0,0,0,18,10.2a1.66,1.66,0,0,0-1.17.5,8.19,8.19,0,0,0-4.52-1.49l.78-3.75L15.61,6a1.2,1.2,0,1,0,1.2-1.3ZM14.63,15.94l.12,0a.3.3,0,0,1,.1.07.35.35,0,0,1,0,.46,4.29,4.29,0,0,1-2.86.91,4.36,4.36,0,0,1-2.86-.92.33.33,0,0,1,0-.46.3.3,0,0,1,.1-.07l.12,0,.12,0a.3.3,0,0,1,.1.07,3.67,3.67,0,0,0,2.42.73A3.62,3.62,0,0,0,14.41,16a.3.3,0,0,1,.1-.07Zm.43-3.88a1.24,1.24,0,0,1,.77,1.15,1.23,1.23,0,0,1-2.37.5,1.25,1.25,0,0,1,.25-1.36,1.23,1.23,0,0,1,1.35-.28ZM9.35,12a1.21,1.21,0,0,1,0,2.42,1.23,1.23,0,0,1-1.2-1.24A1.21,1.21,0,0,1,9.35,12Z" style="fill:#f2f1ff"/></svg>