<svg xmlns="http://www.w3.org/2000/svg" width="24" height="24" fill="none"><path fill-rule="evenodd" d="M12 0c6.628 0 12 5.372 12 12s-5.372 12-12 12S0 18.628 0 12 5.372 0 12 0zm4.81 4.714a1.2 1.2 0 0 0-1.077.7L12.93 4.78c-.076-.016-.156.001-.22.045a.27.27 0 0 0-.123.199L11.728 9.2a8.17 8.17 0 0 0-4.586 1.49 1.66 1.66 0 0 0-1.174-.497c-.942.014-1.695.792-1.683 1.74a1.74 1.74 0 0 0 .988 1.59 3.33 3.33 0 0 0-.042.529c0 2.693 3.025 4.884 6.753 4.884s6.753-2.176 6.753-4.884c-.001-.177-.015-.354-.042-.53.61-.294.998-.91 1-1.6.006-.454-.168-.892-.484-1.218s-.748-.513-1.202-.52c-.44.003-.863.182-1.174.497a8.19 8.19 0 0 0-4.517-1.49l.78-3.75 2.513.556c.023.314.168.606.403.815s.543.317.857.3c.652-.032 1.16-.58 1.143-1.236s-.547-1.18-1.2-1.182h-.005zm-2.184 11.222a.3.3 0 0 1 .221.097c.055.064.086.146.086.23s-.03.167-.086.23c-.827.86-2.402.912-2.86.912s-2.044-.072-2.86-.917a.33.33 0 0 1 0-.457.3.3 0 0 1 .221-.098.3.3 0 0 1 .221.098c.524.544 1.63.73 2.417.73s1.905-.18 2.417-.73a.3.3 0 0 1 .221-.097zm.43-3.88a1.24 1.24 0 0 1 .56.458c.137.205.21.446.2.693.007.675-.53 1.23-1.2 1.242-.246.007-.49-.06-.696-.193s-.37-.324-.47-.55c-.202-.462-.105-1.002.246-1.365a1.23 1.23 0 0 1 1.35-.285h-.001zm-5.712-.05c.66.012 1.188.556 1.182 1.22a1.21 1.21 0 0 1-1.203 1.2c-.673-.01-1.21-.566-1.204-1.242.018-.664.563-1.19 1.224-1.177h.001z" fill="#f2f1ff"/></svg>