<svg xmlns="http://www.w3.org/2000/svg" width="24" height="24" fill="none"><path fill-rule="evenodd" d="M7.548 21.6c9.057 0 14-7.387 14-13.8 0-.2 0-.42-.014-.626.964-.686 1.796-1.536 2.456-2.51a9.95 9.95 0 0 1-2.828.763 4.86 4.86 0 0 0 2.165-2.682c-.97.565-2.026.963-3.126 1.177-1.526-1.598-3.952-1.99-5.916-.96s-2.98 3.24-2.476 5.376C7.86 8.142 4.17 6.3 1.67 3.273.363 5.5 1.03 8.334 3.195 9.756c-.782-.023-1.548-.23-2.235-.607v.06c.001 2.308 1.653 4.296 3.956 4.752-.725.194-1.485.223-2.224.084.645 1.974 2.493 3.328 4.6 3.366a9.98 9.98 0 0 1-6.115 2.08A10.21 10.21 0 0 1 0 19.423a14.1 14.1 0 0 0 7.548 2.174" fill="#f2f1ff"/></svg>