<svg id="b02b4714-524c-4048-89c4-6e108c647217" data-name="Layer 1" xmlns="http://www.w3.org/2000/svg" viewBox="0 0 24 24"><title>twitter</title><path d="M7.55,21.6a13.8,13.8,0,0,0,14-13.8c0-.21,0-.42,0-.63A9.93,9.93,0,0,0,24,4.66a10,10,0,0,1-2.83.76,4.86,4.86,0,0,0,2.17-2.68,10,10,0,0,1-3.13,1.18,5,5,0,0,0-5.92-1,4.82,4.82,0,0,0-2.48,5.38A14.05,14.05,0,0,1,1.67,3.27,4.82,4.82,0,0,0,3.19,9.76,5,5,0,0,1,1,9.15v.06a4.87,4.87,0,0,0,4,4.75A5,5,0,0,1,2.69,14a4.92,4.92,0,0,0,4.6,3.37,10,10,0,0,1-6.12,2.08A10.21,10.21,0,0,1,0,19.42,14.1,14.1,0,0,0,7.55,21.6" style="fill:#f2f1ff"/></svg>