<svg xmlns="http://www.w3.org/2000/svg" xmlns:xlink="http://www.w3.org/1999/xlink" width="409" height="264" fill="none" xmlns:v="https://vecta.io/nano"><style><![CDATA[.B{fill:#7066ff}.C{fill:#010014}.D{fill-rule:evenodd}]]></style><use xlink:href="#B" class="B"/><use xlink:href="#B" opacity=".5" class="C"/><use xlink:href="#C" class="B"/><use xlink:href="#C" opacity=".3" class="C"/><use xlink:href="#D" class="B"/><use xlink:href="#D" opacity=".3" class="C"/><g class="B"><path d="M262.94 30.9525l118.4 68.8c4.67 2.7105 4.64 7.1095-.05 9.8295l-210 121.23c-4.7 2.72-12.3 2.72-17 0l-118.3698-68.8L262.94 30.9525z"/><path d="M271.53 101.147l2.986-10.0776-15.55-5.1547L259 93.86l12.54 7.287z"/><use xlink:href="#E"/><use xlink:href="#F"/><use xlink:href="#G"/><path d="M169.106 146.918l-13.868-1.11.012 7.945 12.54 7.287 1.317-14.123z"/><use xlink:href="#H"/></g><g opacity=".5" class="C"><path d="M271.53 101.147l2.986-10.0776-15.55-5.1547L259 93.86l12.54 7.287z"/><use xlink:href="#E"/><use xlink:href="#F"/><use xlink:href="#G"/><path d="M169.106 146.918l-13.868-1.11.012 7.945 12.54 7.287 1.317-14.123z"/><use xlink:href="#H"/></g><g class="B"><use xlink:href="#I"/><use xlink:href="#J"/><use xlink:href="#K" class="D"/><use xlink:href="#L"/></g><g opacity=".2" class="C"><use xlink:href="#I"/><use xlink:href="#J"/><use xlink:href="#K" class="D"/><use xlink:href="#L"/></g><use xlink:href="#M" class="B"/><use xlink:href="#M" opacity=".2" class="C"/><g class="B"><path d="M42.6898 145.493a9.337 9.337 0 0 0-4.245-1.021c-1.4757 0-2.9304.35-4.245 1.02-2.35 1.35-2.36 3.56 0 4.9a9.307 9.307 0 0 0 4.235 1.02c1.4726 0 2.924-.35 4.235-1.02 2.34-1.36 2.35-3.56.02-4.9z"/><use xlink:href="#N"/></g><use xlink:href="#N" opacity=".2" class="C"/><g class="B"><use xlink:href="#O"/><use xlink:href="#P"/></g><use xlink:href="#P" opacity=".2" class="C"/><use xlink:href="#O" x="11.7998" y="-6.6" class="B"/><defs ><path id="B" d="M262.94 30.9525L189 66 24 152.223v6.52c0 1.77 1.17 3.53 3.5 4.88l8.46 4.92 227-131.0695-.01-6.52z"/><path id="C" d="M237.52 26.0325c4.7-2.7 12.3-2.7 17 0l8.45 4.9L35.9702 162.013l-8.45-4.92c-4.68-2.72-4.66-7.12.05-9.83L237.52 26.0325z"/><path id="D" d="M384.84 104.693C384.84 106.483 238 119 238 119L35.9302 162.023v6.52l118.4798 68.8c4.67 2.7 12.26 2.7 17 0l210-121.23c2.37-1.37 3.55-3.16 3.54-4.95l-.1-6.48z"/><path id="E" d="M307.15 98.893l-12.942 2.534-9.943-4.874-29.247 14.623-10.967-9.75-15.684-28.6853.025 7.9453 7.823 32.988 17.95 10.43 28.54-16.464 11.503 6.678 12.966-7.482-.024-7.945z"/><path id="F" d="M183.887 118.317c2.72-1.58 5.79-2.463 8.933-2.57 2.925-.175 5.84.493 8.396 1.925l14.806 8.13c-1.364 4.776-13.858-3.613-15.842-4.875-2.7-1.576-7.216-2.042-7.202-2.108v7.945c-.006.037-.006.074 0 .1 0 .865.73 1.67 2.047 2.437l12.028 6.995c1.277.762 2.73 1.182 4.216 1.218 1.388.063 2.764-.266 3.973-.95 1.097-.634 1.645-1.365 1.645-2.18v-7.58l9.347 5.423c2.193 1.28 3.302 2.742 3.302 4.4 1.76-3.396 8.338-14.385 2.937-17.536-12.072-6.5-24.575-16.096-38.995-15.232-14.988.516-19.423 7.16-14.026 20.034-1.11-1.996 3.258-4.902 4.435-5.582z"/><path id="G" d="M246.62 128.615c-.322 2.334-5.253.923-6.836 2.668-7.145 8.14-19.718 12.186-30.465 9.75-6.445-1.414-47.123-19.333-47.197-23.97v7.945c.03 1.86.616 3.668 1.682 5.192 1.676 2.283 3.846 4.158 6.35 5.483l24.993 14.526a33.357 33.357 0 0 0 9.493 3.656 40.871 40.871 0 0 0 10.517.999c7.424-.276 14.666-2.368 21.094-6.093 2.813-1.528 5.334-3.54 7.445-5.947a11.777 11.777 0 0 0 2.925-6.263v-8.847a7.54 7.54 0 0 1 0 .902z"/><path id="H" d="M189.213 158.787l-10.968-5.57-24.372 14.306-17.06-8.737-12.186-26.15.024 7.945 7.836 32.988 17.95 10.43 28.527-16.476 11.504 6.69 12.966-7.483-.025-7.945h-14.196z"/><path id="I" d="M271.932 78.4325l-12.966 7.4822 12.54 7.2872-16.426 9.481-3.17-1.853-8.847-36.57-14.696 8.4814L236.2 105.73l17.95 10.43 28.54-16.475 11.504 6.69 12.965-7.4822-35.217-20.4603z"/><path id="J" d="M202.788 116.916l12.016 6.983c1.328.72 1.998 1.584 2.06 2.45s-.5 1.633-1.646 2.29a7.373 7.373 0 0 1-3.972.95c-1.487-.036-2.94-.456-4.217-1.218l-12.027-6.995c-1.316-.755-2-1.572-2.048-2.437s.488-1.62 1.646-2.29c1.206-.688 2.584-1.018 3.972-.95 1.486.04 2.938.46 4.216 1.22z"/><path id="K" d="M238.713 117.013l-24.994-14.525a32.968 32.968 0 0 0-9.456-3.656c-3.428-.7747-6.943-1.1024-10.455-.975a45.584 45.584 0 0 0-10.798 1.6939c-3.605 1.021-7.07 2.49-10.31 4.375-2.846 1.54-5.41 3.557-7.58 5.96-1.592 1.734-2.624 3.91-2.962 6.24-.193 2.162.4 4.322 1.646 6.093a18.783 18.783 0 0 0 6.348 5.484l24.994 14.477a33.792 33.792 0 0 0 9.505 3.655c3.444.78 6.975 1.117 10.505 1a45.439 45.439 0 0 0 21.094-6.093c2.812-1.528 5.333-3.54 7.445-5.947 1.583-1.746 2.603-3.93 2.925-6.264.2-2.16-.393-4.32-1.646-6.093a18.1 18.1 0 0 0-6.263-5.423zm-9.25 12.1c-.207 1.84-1.694 3.57-4.46 5.167-2.72 1.582-5.787 2.465-8.93 2.57-2.926.174-5.84-.494-8.397-1.925l-24.98-14.514c-2.437-1.413-3.498-3.034-3.29-4.874s1.694-3.57 4.46-5.167a19.086 19.086 0 0 1 8.932-2.571c2.925-.175 5.84.493 8.396 1.925l24.994 14.526c2.396 1.39 3.49 3 3.278 4.862z"/><path id="L" d="M155.24 145.81l12.527 7.287-16.414 9.48-3.18-1.852-8.847-36.57-14.696 8.482 7.836 32.987 17.95 10.432 28.528-16.476 11.516 6.7 12.953-7.482-35.217-20.46-12.954 7.482z"/><path id="M" d="M39 147.5s-6.4565 1.614-6.5698.462v3.26c.0506.524.238 1.025.5435 1.453s.718.77 1.1965.987a9.316 9.316 0 0 0 4.24 1.021c1.474 0 2.9272-.35 4.24-1.02a2.999 2.999 0 0 0 1.2151-.996 3.001 3.001 0 0 0 .5449-1.474v-3.26C44.327 148.864 39 147.5 39 147.5z"/><path id="N" d="M50.5698 140.628s-6.4565 1.614-6.5698.462v3.26c.0507.524.238 1.025.5435 1.453s.718.77 1.1965.987c1.3128.67 2.766 1.02 4.24 1.02s2.9272-.35 4.24-1.02a2.998 2.998 0 0 0 1.2151-.996 3 3 0 0 0 .5449-1.474v-3.26c-.0833.932-5.4102-.432-5.4102-.432z"/><path id="O" d="M54.2597 138.62c-1.3146-.67-2.7693-1.02-4.245-1.02s-2.9305.35-4.245 1.02c-2.35 1.35-2.36 3.56 0 4.9a9.295 9.295 0 0 0 8.47 0c2.34-1.36 2.35-3.56.02-4.9z"/><path id="P" d="M62.3696 134.028s-6.4565 1.614-6.5698.462v3.26c.0507.524.238 1.025.5435 1.453s.718.77 1.1965.987c1.3128.67 2.766 1.02 4.24 1.02s2.9273-.35 4.24-1.02a2.998 2.998 0 0 0 1.76-2.47v-3.26c-.0833.932-5.4102-.432-5.4102-.432z"/></defs></svg>