<svg xmlns="http://www.w3.org/2000/svg" xmlns:xlink="http://www.w3.org/1999/xlink" width="409" height="264" fill="none" xmlns:v="https://vecta.io/nano"><path d="M262.94 30.9526L189 66 24 152.223v6.52c0 1.77 1.17 3.53 3.5 4.88l8.46 4.92 227-131.0704-.01-6.52z" fill="#383389"/><path d="M237.52 26.0325c4.7-2.7 12.3-2.7 17 0l8.45 4.9L35.9702 162.013l-8.45-4.92c-4.68-2.72-4.66-7.12.05-9.83L237.52 26.0325z" fill="#4f47b9"/><use xlink:href="#B" fill="#7066ff"/><use xlink:href="#B" fill="#4f47b9"/><path d="M262.94 30.9526l118.4 68.8c4.67 2.7104 4.64 7.1104-.05 9.8304l-210 121.23c-4.7 2.72-12.3 2.72-17 0l-118.3698-68.8L262.94 30.9526z" fill="#7066ff"/><g fill="#383389"><path d="M271.53 101.147l2.986-10.0776-15.55-5.1547L259 93.86l12.54 7.287zm35.62-2.254l-12.942 2.534-9.943-4.874-29.247 14.623-10.967-9.75-15.684-28.6853.025 7.9453 7.823 32.987 17.95 10.432 28.54-16.464 11.503 6.678 12.966-7.482-.024-7.945zm-123.263 19.424c2.72-1.58 5.8-2.463 8.933-2.57 2.925-.175 5.84.493 8.396 1.925l14.806 8.128c-1.364 4.777-13.858-3.612-15.842-4.874-2.7-1.576-7.216-2.042-7.202-2.108v7.945c-.006.037-.006.074 0 .1 0 .865.73 1.67 2.047 2.437l12.028 6.995c1.277.762 2.73 1.182 4.216 1.218 1.388.063 2.764-.266 3.973-.95 1.097-.634 1.645-1.365 1.645-2.18v-7.58l9.347 5.423c2.193 1.28 3.302 2.742 3.302 4.4 1.76-3.396 8.338-14.385 2.937-17.536-12.072-6.5-24.575-16.096-38.995-15.232-14.988.516-19.423 7.16-14.026 20.033-1.1-1.995 3.258-4.9 4.435-5.58zm62.733 10.298c-.322 2.334-5.253.923-6.836 2.668-7.145 8.14-19.718 12.186-30.465 9.75-6.445-1.414-47.123-19.333-47.197-23.97v7.945c.03 1.86.616 3.668 1.682 5.192 1.676 2.283 3.846 4.158 6.35 5.483l24.993 14.526a33.357 33.357 0 0 0 9.493 3.656 40.871 40.871 0 0 0 10.517.999c7.424-.276 14.666-2.368 21.094-6.093a27.115 27.115 0 0 0 7.445-5.947 11.777 11.777 0 0 0 2.925-6.263v-8.847a7.54 7.54 0 0 1 0 .902zm-77.514 18.303l-13.868-1.1.012 7.945 12.54 7.287 1.317-14.123z"/><path d="M189.213 158.787l-10.968-5.57-24.372 14.306-17.06-8.737-12.186-26.15.024 7.945 7.836 32.988 17.95 10.43 28.527-16.476 11.504 6.69 12.966-7.483-.025-7.945h-14.196z"/></g><g fill="#5a52d0"><path d="M271.932 78.4326l-12.966 7.4822 12.54 7.2872-16.426 9.48-3.17-1.853-8.847-36.5697-14.696 8.4814L236.2 105.73l17.95 10.43 28.54-16.475 11.504 6.7 12.965-7.482-35.217-20.4603zm-69.144 38.4834l12.016 6.983c1.328.72 1.998 1.584 2.06 2.45s-.5 1.633-1.646 2.3a7.373 7.373 0 0 1-3.972.95 8.654 8.654 0 0 1-4.217-1.219l-12.027-6.995c-1.316-.755-2-1.572-2.048-2.437s.488-1.62 1.646-2.3c1.206-.688 2.584-1.017 3.972-.95 1.486.04 2.938.46 4.216 1.22z"/><path fill-rule="evenodd" d="M238.713 117.014l-24.994-14.526a32.997 32.997 0 0 0-9.456-3.6559 40.731 40.731 0 0 0-10.455-.9749 45.584 45.584 0 0 0-10.798 1.6938c-3.605 1.02-7.07 2.5-10.31 4.375-2.846 1.54-5.41 3.557-7.58 5.96-1.592 1.735-2.624 3.91-2.962 6.24-.193 2.162.4 4.322 1.646 6.093a18.783 18.783 0 0 0 6.348 5.484l24.994 14.477a33.792 33.792 0 0 0 9.505 3.655c3.444.782 6.975 1.117 10.505 1a45.439 45.439 0 0 0 21.094-6.093c2.812-1.528 5.333-3.54 7.445-5.947 1.583-1.746 2.603-3.93 2.925-6.264.2-2.16-.393-4.32-1.646-6.093-1.64-2.267-3.784-4.124-6.263-5.422zm-9.25 12.1c-.207 1.84-1.694 3.57-4.46 5.167-2.72 1.582-5.787 2.465-8.93 2.57-2.926.174-5.84-.494-8.397-1.925l-24.98-14.514c-2.437-1.413-3.498-3.034-3.29-4.874s1.694-3.57 4.46-5.167a19.086 19.086 0 0 1 8.932-2.571c2.925-.175 5.84.493 8.396 1.925l24.994 14.526c2.396 1.39 3.49 3 3.278 4.862z"/><path d="M155.24 145.81l12.527 7.287-16.414 9.48-3.18-1.852-8.847-36.57-14.696 8.48 7.836 32.988 17.95 10.43 28.528-16.476 11.516 6.7 12.953-7.482-35.217-20.46-12.954 7.482z"/></g><defs ><path id="B" d="M384.84 104.692C384.84 106.482 238 119 238 119L35.9302 162.022v6.52l118.4798 68.8c4.67 2.7 12.26 2.7 17 0l210-121.23c2.37-1.37 3.55-3.16 3.54-4.95l-.1-6.48z"/></defs></svg>