<svg xmlns="http://www.w3.org/2000/svg" xmlns:xlink="http://www.w3.org/1999/xlink" width="488" height="313" fill="none" xmlns:v="https://vecta.io/nano"><use xlink:href="#B" fill="#7066ff"/><use xlink:href="#B" opacity=".5" fill="#010014"/><use xlink:href="#C" fill="#7066ff"/><use xlink:href="#C" opacity=".3" fill="#010014"/><use xlink:href="#D" fill="#7066ff"/><use xlink:href="#D" opacity=".2" fill="#010014"/><g fill="#7066ff"><path d="M315.364 32.4657l144.39 83.9073c5.695 3.317 5.658 8.682-.085 11.987L203.593 276.2c-5.743 3.304-15 3.304-20.73 0L38.4863 192.293 315.364 32.4657z"/><use xlink:href="#E"/><use xlink:href="#F"/><use xlink:href="#G"/></g><g opacity=".2" fill="#010014"><use xlink:href="#E"/><use xlink:href="#F"/><use xlink:href="#G"/></g><g fill="#7066ff"><path d="M78.2877 153.662a11.491 11.491 0 0 0-5.1764-1.234 11.478 11.478 0 0 0-5.1764 1.234c-2.8656 1.66-2.8778 4.34 0 6a11.401 11.401 0 0 0 10.3528 0c2.83-1.66 2.8412-4.34 0-6zm-14.255 8.23c-1.603-.818-3.3768-1.244-5.1764-1.244a11.387 11.387 0 0 0-5.1763 1.244c-2.8534 1.646-2.8778 4.34 0 6a11.49 11.49 0 0 0 5.1763 1.233 11.477 11.477 0 0 0 5.1764-1.233c2.8412-1.66 2.8534-4.342 0-6zm-19.4188 6.98c1.8 0 3.5726.425 5.1764 1.24 2.8412 1.658 2.8412 4.34-.0122 6-1.6017.815-3.3732 1.24-5.1703 1.24a11.401 11.401 0 0 1-5.1703-1.24c-2.8656-1.658-2.8656-4.34 0-6 1.6038-.815 3.3774-1.24 5.1764-1.24z"/><use xlink:href="#H"/><path d="M321.9 126.713l-.024-9.95-17.718-10.292.036 9.95 17.706 10.3zm32.5-4.293l-.024-9.938-6.34 3.658.037 9.938 6.328-3.658z"/><use xlink:href="#I"/><use xlink:href="#J"/><path d="M202.118 185.915l-17.706-10.304.025 9.95 17.717 10.29-.036-9.938z"/><use xlink:href="#K"/></g><g opacity=".4" fill="#010014"><use xlink:href="#H"/><path d="M321.9 126.713l-.024-9.95-17.718-10.292.036 9.95 17.706 10.3zm32.5-4.293l-.024-9.938-6.34 3.658.037 9.938 6.328-3.658z"/><use xlink:href="#I"/><use xlink:href="#J"/><path d="M202.118 185.915l-17.706-10.304.025 9.95 17.717 10.29-.036-9.938z"/><use xlink:href="#K"/></g><g fill="#7066ff"><use xlink:href="#L"/><use xlink:href="#M" fill-rule="evenodd"/><use xlink:href="#N"/></g><g opacity=".2" fill="#010014"><use xlink:href="#L"/><use xlink:href="#M" fill-rule="evenodd"/><use xlink:href="#N"/></g><defs ><path id="B" d="M315.364 32.4657L38.5597 192.293l-10.3162-6C25.4145 184.66 24 182.5 24 180.355v9.938c0 2.158 1.4267 4.304 4.2435 5.95l10.3162 5.987L315.364 42.4038v-9.938z"/><path id="C" d="M284.354 26.4784c5.744-3.3045 15-3.3045 20.73 0l10.316 5.9873L38.596 192.293l-10.3162-6c-5.6946-3.304-5.658-8.67.0732-11.986L284.354 26.4784z"/><path id="D" d="M463.997 122.323c0 2.183-1.44 4.378-4.33 6.036L203.593 276.2c-5.743 3.304-15 3.304-20.73 0L38.4863 192.293v9.938l144.3897 83.907c5.694 3.304 14.95 3.304 20.73 0L459.68 138.3c2.9-1.67 4.33-3.866 4.317-6.097v-9.9z"/><path id="E" d="M80.4095 156.638a3.662 3.662 0 0 1-.6667 1.806c-.3796.532-.8946.952-1.4917 1.218a11.387 11.387 0 0 1-5.1763 1.244c-1.7996 0-3.5735-.426-5.1764-1.244a3.665 3.665 0 0 1-1.459-1.204 3.657 3.657 0 0 1-.6628-1.772v3.976a3.657 3.657 0 0 0 2.1218 2.975c1.603.818 3.3768 1.244 5.1764 1.244a11.387 11.387 0 0 0 5.1763-1.244c.597-.265 1.112-.686 1.4917-1.218a3.658 3.658 0 0 0 .6667-1.806v-3.975z"/><path id="F" d="M64.0083 167.893a11.478 11.478 0 0 1-5.1764 1.234c-1.7983 0-3.5714-.423-5.1764-1.234-.5874-.266-1.094-.682-1.4688-1.207a3.659 3.659 0 0 1-.6651-1.781v3.975c.061.642.2903 1.257.665 1.78s.8814.94 1.4688 1.207c1.605.81 3.378 1.234 5.1764 1.234a11.478 11.478 0 0 0 5.1764-1.234A3.663 3.663 0 0 0 65.5 170.65a3.657 3.657 0 0 0 .6666-1.806v-3.975c-.057.65-.287 1.274-.6666 1.806a3.663 3.663 0 0 1-1.4917 1.218z"/><path id="G" d="M44.5833 177.35a11.401 11.401 0 0 0 5.1703-1.24c.5953-.264 1.1092-.683 1.4887-1.212s.6106-1.15.6696-1.8v3.975a3.654 3.654 0 0 1-.6696 1.799c-.3795.53-.8934.948-1.4887 1.213a11.4 11.4 0 0 1-5.1703 1.239c-1.797 0-3.5687-.424-5.1703-1.24a3.658 3.658 0 0 1-2.1339-2.988v-3.975a3.658 3.658 0 0 0 .665 1.781c.3747.524.8815.94 1.469 1.206 1.6016.815 3.3732 1.24 5.1703 1.24z"/><path id="H" d="M345.398 130.445l13.67-7.902.025 9.938-13.67 7.902-11.023-6.414-30.997 17.9-12.5-7.256-24.84-40.496-.037-9.9383 24.85 40.4843 12.5 7.268 30.997-17.9 11.024 6.414z"/><path id="I" d="M220.31 143.407c7.134-4.122 18.206-4.122 25.29 0l23.315 13.548c3.524 2.048 5.28 4.658 5.292 7.316v-9.938c0-2.6-1.768-5.22-5.28-7.317l-23.327-13.547c-7.085-4.122-18.145-4.122-25.278 0-3.585 2.073-5.378 4.72-5.366 7.316v9.834c.024-2.564 1.816-5.167 5.353-7.212z"/><path id="J" d="M255.138 175.898a54.092 54.092 0 0 0 26.363-6.859c7.975-4.597 11.95-9.987 11.95-15.4v9.95c.012 5.378-3.963 10.755-11.938 15.352-7.105 3.955-15.007 6.266-23.123 6.762s-16.24-.836-23.775-3.896v9.755l-6.33 3.658v-9.938l6.097-3.536a46.847 46.847 0 0 1-5.597-2.768l-21.254-12.353c-7.828-4.548-11.767-9.852-11.767-15.17v-9.938c.012 5.304 3.926 10.62 11.755 15.17l21.254 12.353a54.093 54.093 0 0 0 26.364 6.859z"/><path id="K" d="M214.617 193.17l11.023 6.402 13.67-7.9.037 9.938-13.682 7.902-11.01-6.414-31 17.9-12.5-7.256-24.84-40.496-.036-9.938 24.85 40.484 12.5 7.268 30.997-17.9z"/><path id="L" d="M348.044 116.14l6.34-3.658-12.5-7.268-6.34 3.658-17.706-10.2913-13.68 7.8893 17.718 10.292-15.548 8.987-24.84-40.4963-15.462 8.926 24.85 40.4843 12.5 7.268 30.997-17.9 11.024 6.414 13.67-7.902-11.023-6.402z"/><path id="M" d="M281.672 138.505l-21.254-12.353c-8.057-4.503-17.134-6.868-26.364-6.868s-18.306 2.365-26.363 6.868c-15.853 9.146-15.914 21.39-.17 30.485L228.774 169c8.06 4.498 17.135 6.86 26.364 6.86a54.092 54.092 0 0 0 26.363-6.859c15.852-9.097 15.913-21.29.17-30.485zm-12.877 23.17c-7.12 4.12-18.18 4.12-25.266 0l-23.315-13.56c-7.085-4.1-7.06-10.51.073-14.633s18.194-4.122 25.278 0l23.327 13.548c7.085 4.11 7.036 10.51-.097 14.632v.013z"/><path id="N" d="M222.13 174.355l12.498 7.268-6.34 3.658 11.023 6.402-13.67 7.9-11.023-6.402-30.997 17.9-12.5-7.268-24.85-40.484 15.462-8.914 24.84 40.484 15.547-8.975-17.706-10.304 13.67-7.89 17.706 10.292 6.34-3.66z"/></defs></svg>