<svg xmlns="http://www.w3.org/2000/svg" width="512" height="512" fill="none" xmlns:v="https://vecta.io/nano"><path d="M96.6082 456.38l-.559-196.382L421.44 72.1304l-6.05-3.4976L90 256.5l.5447 196.295c0 3.842 1.3618 6.55 3.555 7.827l6.0633 3.526c-2.193-1.218-3.5548-3.927-3.5548-7.77z" fill="#5a52d0"/><path d="M421.44 72.202l.56 196.382c0 7.74-5.418 17.2-12.156 21.057L108.82 463.417c-6.722 3.9-12.2125.774-12.2268-6.966l-.56-196.382L421.44 72.202z" fill="#7066ff"/><path d="M411.78 46.8158c-2.207-1.2758-5.29-1.1037-8.6.86L102.156 221.452c-6.7232 3.885-12.1703 13.33-12.156 21.072v14.02l6.0635 3.526v-14.02c0-7.755 5.4185-17.2 12.1555-21.072L409.242 51.1878c3.383-1.9495 6.45-2.1358 8.6-.8457l-6.064-3.5263z" fill="#383389"/><path d="M409.17 51.1878c6.738-3.8847 12.213-.7598 12.242 6.9952v14.02L96.0195 260.07v-14.02c0-7.755 5.4185-17.2 12.1555-21.072L409.17 51.1878z" fill="#4f47b9"/><path d="M149.172 208c.755-.075 1.517.05 2.208.365l2.02 1.175a4.307 4.307 0 0 0-2.208-.365 4.304 4.304 0 0 0-2.092.795 13.368 13.368 0 0 0-6.078 10.536c-.07.748.057 1.502.37 2.186a4.293 4.293 0 0 0 1.409 1.713l-2.022-1.176a4.298 4.298 0 0 1-1.409-1.712 4.325 4.325 0 0 1-.368-2.187 13.365 13.365 0 0 1 1.77-5.999c1.057-1.832 2.533-3.387 4.308-4.536a4.304 4.304 0 0 1 2.092-.795zm-18.907 10.456c-1.772 1.152-3.247 2.707-4.303 4.54a13.421 13.421 0 0 0-1.775 5.997 4.3 4.3 0 0 0 .365 2.194 4.297 4.297 0 0 0 1.413 1.719l2.007 1.175a4.294 4.294 0 0 1-1.413-1.718 4.302 4.302 0 0 1-.365-2.195c.114-2.112.726-4.167 1.784-5.997a13.454 13.454 0 0 1 4.308-4.54 4.293 4.293 0 0 1 2.092-.794c.756-.076 1.518.05 2.2.364l-2.022-1.175a4.307 4.307 0 0 0-2.208-.365 4.304 4.304 0 0 0-2.092.795zm-16.742 9.676a13.364 13.364 0 0 0-4.314 4.535c-1.06 1.832-1.67 3.888-1.778 6a4.293 4.293 0 0 0 .368 2.187 4.305 4.305 0 0 0 1.409 1.712l2.02 1.175a4.298 4.298 0 0 1-1.409-1.712 4.293 4.293 0 0 1-.368-2.187 13.37 13.37 0 0 1 6.092-10.535 4.304 4.304 0 0 1 2.092-.795c.755-.075 1.517.05 2.208.365l-2.02-1.176a4.296 4.296 0 0 0-2.208-.364 4.293 4.293 0 0 0-2.092.794z" fill="#5a52d0"/><path d="M144.72 214.506c1.057-1.832 2.533-3.386 4.308-4.536 3.368-1.95 6.106-.4 6.12 3.483a13.386 13.386 0 0 1-1.78 6 13.389 13.389 0 0 1-4.312 4.536c-3.355 1.935-6.107.387-6.107-3.483a13.369 13.369 0 0 1 1.77-6zm-12.434 5.124c-1.773 1.153-3.25 2.708-4.307 4.54s-1.67 3.885-1.785 5.997c0 3.87 2.767 5.433 6.135 3.483a13.416 13.416 0 0 0 4.299-4.533 13.407 13.407 0 0 0 1.779-5.988c-.014-3.885-2.795-5.42-6.12-3.498zm-16.742 9.677c-1.776 1.15-3.255 2.704-4.314 4.535a13.379 13.379 0 0 0-1.778 6.001c0 3.87 2.752 5.42 6.12 3.47a13.377 13.377 0 0 0 4.31-4.528c1.058-1.828 1.67-3.883 1.78-5.993-.014-3.885-2.766-5.433-6.12-3.484z" fill="#7066ff"/><path d="M386.494 121.62c.857-.083 1.72.064 2.5.427l4.043 2.35a4.804 4.804 0 0 0-2.502-.432 4.796 4.796 0 0 0-2.372.905L152.12 261.147c-2 1.295-3.647 3.043-4.833 5.1s-1.868 4.367-2 6.74a4.772 4.772 0 0 0 .402 2.463 4.776 4.776 0 0 0 1.59 1.924l-4.042-2.35a4.776 4.776 0 0 1-1.59-1.924c-.35-.77-.5-1.62-.403-2.463.123-2.372.805-4.68 2-6.74s2.842-3.806 4.833-5.1L384.122 122.52a4.825 4.825 0 0 1 2.372-.9zM152.22 294.16l170.852-98.635a4.844 4.844 0 0 1 2.37-.905c.857-.085 1.72.06 2.503.418l-4.1-2.35a4.855 4.855 0 0 0-2.503-.418c-.857.086-1.675.398-2.37.905L148.176 291.8a15.06 15.06 0 0 0-4.836 5.093 15.063 15.063 0 0 0-2.001 6.733 4.802 4.802 0 0 0 2.007 4.4l4.042 2.337c-.693-.488-1.244-1.152-1.596-1.922s-.495-1.62-.4-2.465c.125-2.37.8-4.678 1.998-6.734a15.05 15.05 0 0 1 4.84-5.092zm-4.746 49.224l-4.042-2.35c-.7-.488-1.24-1.152-1.6-1.923a4.772 4.772 0 0 1-.402-2.463c.122-2.372.804-4.68 2-6.74s2.842-3.806 4.833-5.1l197.944-114.26a4.838 4.838 0 0 1 2.37-.905 4.855 4.855 0 0 1 2.503.418l4.028 2.35c-.78-.363-1.645-.5-2.502-.427a4.825 4.825 0 0 0-2.372.9l-197.93 114.274c-2 1.295-3.647 3.043-4.833 5.1s-1.868 4.367-2 6.74a4.772 4.772 0 0 0 .402 2.463c.35.77.9 1.435 1.6 1.923zM365.33 232.55L148.363 357.82a15.06 15.06 0 0 0-4.836 5.093 15.063 15.063 0 0 0-2.001 6.733 4.822 4.822 0 0 0 .41 2.47 4.801 4.801 0 0 0 1.596 1.93l4 2.35c-.693-.5-1.243-1.157-1.596-1.93s-.494-1.625-.4-2.47a15.046 15.046 0 0 1 1.998-6.735 15.038 15.038 0 0 1 4.84-5.091L369.328 234.9c.697-.506 1.516-.817 2.373-.9s1.72.064 2.5.427l-4.042-2.35a4.875 4.875 0 0 0-2.479-.407c-.847.083-1.658.386-2.352.88zm-66.413 71.414l-150.5 86.867a15.058 15.058 0 0 0-4.83 5.095c-1.186 2.055-1.87 4.36-1.993 6.73a4.772 4.772 0 0 0 1.992 4.386l4.042 2.35a4.773 4.773 0 0 1-1.992-4.386 15.049 15.049 0 0 1 6.823-11.826l150.5-86.867c.696-.5 1.515-.82 2.373-.904a4.808 4.808 0 0 1 2.501.431l-4.056-2.408a4.796 4.796 0 0 0-2.503-.399 4.803 4.803 0 0 0-2.357.929z" fill="#443da1"/><path d="M152.12 261.147L388.164 124.87c3.784-2.18 6.852-.43 6.866 3.927-.123 2.368-.806 4.673-1.992 6.726s-2.84 3.796-4.83 5.086L152.162 276.886c-3.784 2.193-6.866.402-6.866-3.9.122-2.372.804-4.68 2-6.74s2.842-3.806 4.833-5.1zm.142 48.75l170.852-98.635c2-1.297 3.645-3.045 4.83-5.103s1.87-4.366 1.994-6.737c0-4.3-3.082-6.092-6.867-3.9L152.22 294.16c-1.992 1.3-3.65 3.036-4.84 5.092a15.038 15.038 0 0 0-1.998 6.734c.014 4.343 3.096 6.05 6.88 3.913zm198.016-81.262l-197.93 114.26c-3.784 2.193-6.866.444-6.866-3.9.123-2.372.805-4.68 2-6.74s2.842-3.806 4.832-5.1l197.93-114.274c3.784-2.18 6.88-.373 6.88 3.927-.13 2.37-.818 4.675-2.006 6.73s-2.843 3.8-4.832 5.096zm19.094 6.264L152.406 360.17c-1.993 1.3-3.65 3.036-4.84 5.1s-1.874 4.364-2 6.735c0 4.3 3.096 6.106 6.88 3.913l216.966-125.27a15.005 15.005 0 0 0 4.834-5.092 15.002 15.002 0 0 0 1.989-6.733c-.015-4.344-3.082-6.093-6.866-3.914zm-66.412 71.4l-150.5 86.867c-2 1.293-3.644 3.04-4.83 5.094a15.044 15.044 0 0 0-1.993 6.732c0 4.3 3.08 6.092 6.866 3.9l150.5-86.867c2-1.3 3.645-3.033 4.83-5.086s1.87-4.358 1.992-6.726c-.014-4.33-3.096-6.077-6.866-3.913z" fill="#5a52d0"/></svg>