<svg xmlns="http://www.w3.org/2000/svg" xmlns:xlink="http://www.w3.org/1999/xlink" width="512" height="512" fill="none" xmlns:v="https://vecta.io/nano"><use xlink:href="#B" fill="#7066ff"/><use xlink:href="#B" opacity=".2" fill="#010014"/><g fill="#7066ff"><path d="M421.44 72.202l.56 196.382c0 7.74-5.418 17.2-12.156 21.057L108.82 463.417c-6.722 3.9-12.2125.774-12.2268-6.966l-.56-196.382L421.44 72.202z"/><use xlink:href="#C"/></g><use xlink:href="#C" opacity=".5" fill="#010014"/><path d="M409.17 51.1878c6.738-3.8847 12.213-.7598 12.242 6.9952v14.02L96.0195 260.07v-14.02c0-7.755 5.4185-17.2 12.1555-21.072L409.17 51.1878z" fill="#7066ff"/><path opacity=".3" d="M409.17 51.1878c6.737-3.8847 12.213-.7598 12.24 6.9952v14.02L96.0208 260.07v-14.02c0-7.755 5.4182-17.2 12.1552-21.072L409.17 51.1878z" fill="#010014"/><g fill="#7066ff"><use xlink:href="#D"/><path d="M130.265 218.456c-1.772 1.152-3.247 2.708-4.303 4.54s-1.664 3.886-1.775 5.997a4.298 4.298 0 0 0 .365 2.194 4.297 4.297 0 0 0 1.413 1.719l2.007 1.175a4.294 4.294 0 0 1-1.413-1.718 4.302 4.302 0 0 1-.365-2.195c.114-2.112.726-4.167 1.784-5.997s2.535-3.386 4.308-4.54c.615-.444 1.337-.72 2.092-.794s1.518.05 2.21.364l-2.022-1.175a4.307 4.307 0 0 0-2.208-.365 4.304 4.304 0 0 0-2.092.795z"/><use xlink:href="#E"/></g><g opacity=".2" fill="#010014"><use xlink:href="#D"/><path d="M130.265 218.456c-1.772 1.153-3.247 2.708-4.303 4.54s-1.664 3.886-1.775 5.997a4.302 4.302 0 0 0 .365 2.195 4.294 4.294 0 0 0 1.413 1.718l2.007 1.176a4.297 4.297 0 0 1-1.413-1.719 4.3 4.3 0 0 1-.365-2.194c.114-2.112.726-4.167 1.784-5.998a13.43 13.43 0 0 1 4.308-4.538 4.304 4.304 0 0 1 2.092-.795c.756-.075 1.518.05 2.21.365l-2.022-1.176a4.296 4.296 0 0 0-2.208-.364 4.293 4.293 0 0 0-2.092.794z"/><use xlink:href="#E"/></g><path d="M144.72 214.506c1.057-1.83 2.533-3.386 4.308-4.536 3.368-1.95 6.106-.4 6.12 3.483a13.386 13.386 0 0 1-1.78 6 13.389 13.389 0 0 1-4.312 4.536c-3.355 1.935-6.107.387-6.107-3.483a13.369 13.369 0 0 1 1.77-6zm-12.434 5.124c-1.773 1.153-3.25 2.708-4.307 4.54s-1.67 3.885-1.785 5.997c0 3.87 2.767 5.433 6.135 3.483 1.77-1.15 3.243-2.705 4.3-4.533a13.407 13.407 0 0 0 1.779-5.988c-.014-3.885-2.795-5.418-6.12-3.498zm-16.742 9.678c-1.776 1.15-3.255 2.703-4.314 4.534s-1.668 3.9-1.778 6c0 3.87 2.752 5.42 6.12 3.47a13.368 13.368 0 0 0 4.31-4.528c1.058-1.828 1.67-3.883 1.78-5.993-.014-3.885-2.766-5.433-6.12-3.483zm270.95-107.688c.857-.083 1.72.064 2.5.427l4.043 2.35a4.804 4.804 0 0 0-2.502-.432 4.796 4.796 0 0 0-2.372.905L152.12 261.147c-2 1.295-3.647 3.043-4.833 5.1s-1.868 4.367-2 6.74a4.772 4.772 0 0 0 .402 2.463c.35.77.9 1.435 1.6 1.923l-4.042-2.35a4.776 4.776 0 0 1-1.59-1.924 4.783 4.783 0 0 1-.403-2.463c.123-2.372.805-4.68 2-6.74s2.842-3.806 4.833-5.1L384.122 122.52a4.825 4.825 0 0 1 2.372-.9zM152.22 294.16l170.852-98.635a4.844 4.844 0 0 1 2.37-.905c.857-.085 1.72.06 2.503.418l-4.1-2.35a4.855 4.855 0 0 0-2.503-.418c-.857.086-1.675.398-2.37.905L148.177 291.8a15.091 15.091 0 0 0-4.836 5.094 15.045 15.045 0 0 0-2 6.732 4.804 4.804 0 0 0 .411 2.471 4.801 4.801 0 0 0 1.596 1.93l4.042 2.337c-.693-.5-1.244-1.152-1.596-1.922s-.495-1.62-.4-2.465a15.038 15.038 0 0 1 1.998-6.734 15.041 15.041 0 0 1 4.84-5.092zm-4.746 49.224l-4.042-2.35c-.7-.488-1.24-1.152-1.6-1.923a4.772 4.772 0 0 1-.402-2.463c.122-2.372.804-4.68 2-6.74s2.842-3.806 4.833-5.1l197.944-114.26a4.838 4.838 0 0 1 2.37-.905c.856-.085 1.72.06 2.503.418l4.028 2.35c-.78-.363-1.645-.5-2.502-.427a4.825 4.825 0 0 0-2.372.9l-197.93 114.274c-2 1.295-3.647 3.043-4.833 5.1s-1.868 4.367-2 6.74a4.772 4.772 0 0 0 1.992 4.386zM365.33 232.55L148.363 357.82a15.06 15.06 0 0 0-4.836 5.093 15.063 15.063 0 0 0-2.001 6.733 4.822 4.822 0 0 0 .41 2.47 4.801 4.801 0 0 0 1.596 1.93l4 2.35c-.693-.5-1.243-1.157-1.596-1.93s-.494-1.625-.4-2.47c.125-2.37.8-4.678 1.998-6.734a15.038 15.038 0 0 1 4.84-5.091L369.328 234.9c.697-.506 1.516-.817 2.373-.9s1.72.064 2.5.427l-4.042-2.35c-.776-.35-1.63-.5-2.48-.408a4.877 4.877 0 0 0-2.352.881zm-66.413 71.414l-150.5 86.867a15.049 15.049 0 0 0-4.83 5.095c-1.186 2.055-1.87 4.36-1.993 6.73a4.772 4.772 0 0 0 1.992 4.386l4.042 2.35c-.7-.5-1.24-1.153-1.6-1.923a4.772 4.772 0 0 1-.402-2.463c.124-2.37.808-4.676 1.993-6.732s2.84-3.8 4.83-5.094l150.5-86.867c.696-.5 1.515-.82 2.373-.904a4.788 4.788 0 0 1 2.501.431l-4.056-2.408c-.784-.355-1.648-.493-2.503-.4a4.814 4.814 0 0 0-2.357.93z" fill="#7066ff"/><path d="M298.918 303.964L148.406 390.83c-2 1.294-3.644 3.04-4.83 5.095a15.054 15.054 0 0 0-1.994 6.731c-.087.842.052 1.693.402 2.463s.9 1.435 1.6 1.924l4.042 2.35a4.776 4.776 0 0 1-1.59-1.924c-.35-.77-.5-1.62-.403-2.463a15.054 15.054 0 0 1 1.994-6.731 15.058 15.058 0 0 1 4.83-5.095l150.5-86.866a4.809 4.809 0 0 1 2.372-.905c.858-.083 1.722.066 2.502.432l-4.057-2.4a4.811 4.811 0 0 0-2.502-.399 4.791 4.791 0 0 0-2.357.93zm66.412-71.414L148.363 357.818a15.082 15.082 0 0 0-4.836 5.094 15.045 15.045 0 0 0-2 6.732 4.81 4.81 0 0 0 .41 2.47 4.821 4.821 0 0 0 1.596 1.93l4 2.35a4.821 4.821 0 0 1-2.007-4.4 15.038 15.038 0 0 1 1.998-6.734 15.032 15.032 0 0 1 4.84-5.092L369.328 234.9c.697-.505 1.516-.816 2.373-.9a4.837 4.837 0 0 1 2.501.426l-4.042-2.35c-.777-.35-1.63-.5-2.48-.408a4.877 4.877 0 0 0-2.352.881zM143.432 341.032l4.042 2.35a4.773 4.773 0 0 1-1.992-4.386c.122-2.372.804-4.68 2-6.74s2.842-3.806 4.833-5.1l197.93-114.274a4.825 4.825 0 0 1 2.372-.9 4.833 4.833 0 0 1 2.502.427l-4.028-2.35c-.783-.36-1.647-.504-2.503-.418a4.844 4.844 0 0 0-2.37.905l-197.944 114.26c-2 1.295-3.647 3.043-4.833 5.1s-1.868 4.367-2 6.74a4.772 4.772 0 0 0 .402 2.463c.35.77.9 1.435 1.6 1.923zm8.788-46.872l170.852-98.635a4.838 4.838 0 0 1 2.37-.905 4.853 4.853 0 0 1 2.503.418l-4.1-2.35c-.782-.36-1.646-.503-2.503-.418a4.844 4.844 0 0 0-2.37.905L148.177 291.8a15.091 15.091 0 0 0-4.836 5.094c-1.188 2.054-1.874 4.362-2.002 6.732-.083.846.06 1.698.4 2.47s.903 1.44 1.596 1.93l4.043 2.337c-.693-.5-1.244-1.152-1.597-1.922a4.793 4.793 0 0 1-.41-2.465 15.038 15.038 0 0 1 1.998-6.734c1.2-2.056 2.847-3.8 4.84-5.092zm236.775-172.115a4.827 4.827 0 0 0-2.501-.426c-.857.083-1.676.393-2.372.9L148.077 258.796c-2 1.295-3.647 3.043-4.833 5.1a15.04 15.04 0 0 0-1.99 6.74 4.783 4.783 0 0 0 .403 2.463c.35.77.9 1.435 1.6 1.923l4.042 2.35c-.7-.488-1.24-1.152-1.6-1.923a4.772 4.772 0 0 1-.402-2.463c.122-2.372.804-4.68 2-6.74s2.842-3.806 4.833-5.1L388.164 124.87a4.804 4.804 0 0 1 2.372-.904c.857-.083 1.72.066 2.502.43l-4.043-2.35z" opacity=".4" fill="#010014"/><path d="M152.12 261.147L388.164 124.87c3.784-2.18 6.852-.43 6.866 3.927-.123 2.368-.806 4.673-1.992 6.726s-2.84 3.796-4.83 5.086L152.162 276.886c-3.784 2.193-6.866.402-6.866-3.9.122-2.372.804-4.68 2-6.74s2.842-3.806 4.833-5.1zm.142 48.75l170.852-98.635c2-1.297 3.645-3.045 4.83-5.103s1.87-4.366 1.994-6.737c0-4.3-3.082-6.092-6.867-3.9L152.22 294.16c-1.992 1.3-3.65 3.036-4.84 5.092a15.038 15.038 0 0 0-1.998 6.734c.014 4.343 3.096 6.05 6.88 3.913zm198.016-81.262l-197.93 114.26c-3.784 2.193-6.866.444-6.866-3.9.123-2.372.805-4.68 2-6.74s2.842-3.806 4.832-5.1l197.93-114.274c3.784-2.18 6.88-.373 6.88 3.927-.13 2.37-.818 4.675-2.006 6.73s-2.843 3.8-4.832 5.096zm19.094 6.264L152.406 360.17c-1.993 1.3-3.65 3.036-4.84 5.1s-1.874 4.364-2 6.735c0 4.3 3.096 6.106 6.88 3.913l216.966-125.27a15.005 15.005 0 0 0 4.834-5.092 15.002 15.002 0 0 0 1.989-6.733c-.015-4.344-3.082-6.093-6.866-3.914zm-66.412 71.4l-150.5 86.867c-2 1.293-3.644 3.04-4.83 5.094a15.044 15.044 0 0 0-1.993 6.732c0 4.3 3.08 6.092 6.866 3.9l150.5-86.867c2-1.3 3.645-3.033 4.83-5.086s1.87-4.358 1.992-6.726c-.014-4.33-3.096-6.077-6.866-3.913z" fill="#7066ff"/><path d="M152.12 261.146L388.164 124.87c3.784-2.18 6.852-.43 6.866 3.928-.123 2.368-.806 4.672-1.992 6.725s-2.84 3.796-4.83 5.086L152.162 276.886c-3.784 2.193-6.866.4-6.866-3.9a15.04 15.04 0 0 1 1.99-6.739 15.06 15.06 0 0 1 4.833-5.102zm.142 48.752l170.852-98.635c2-1.297 3.645-3.046 4.83-5.103s1.87-4.366 1.994-6.738c0-4.3-3.082-6.092-6.867-3.9L152.22 294.16c-1.992 1.3-3.65 3.036-4.84 5.1s-1.873 4.363-1.998 6.734c.014 4.344 3.096 6.05 6.88 3.914zm198.016-81.263l-197.93 114.26c-3.784 2.193-6.866.445-6.866-3.9.123-2.372.805-4.68 2-6.74s2.842-3.806 4.832-5.1l197.93-114.274c3.784-2.18 6.88-.373 6.88 3.928-.13 2.37-.818 4.675-2.006 6.73s-2.843 3.8-4.832 5.096zm19.094 6.265L152.406 360.168c-1.993 1.292-3.65 3.036-4.84 5.092s-1.874 4.363-2 6.734c0 4.3 3.096 6.107 6.88 3.913l216.97-125.267a15.014 15.014 0 0 0 4.834-5.092c1.186-2.056 1.868-4.364 2-6.734-.015-4.343-3.082-6.092-6.866-3.913zm-66.412 71.4l-150.5 86.867a15.058 15.058 0 0 0-4.83 5.095c-1.186 2.055-1.87 4.36-1.993 6.73 0 4.3 3.08 6.092 6.866 3.9l150.5-86.867c2-1.3 3.645-3.032 4.83-5.085a15.006 15.006 0 0 0 1.992-6.726c-.014-4.33-3.096-6.078-6.866-3.914z" opacity=".2" fill="#010014"/><defs ><path id="B" d="M96.6082 456.38l-.559-196.382L421.44 72.1304l-6.05-3.4976L90 256.5l.5447 196.295c0 3.842 1.3618 6.55 3.555 7.827l6.0633 3.526c-2.193-1.218-3.5548-3.927-3.5548-7.77z"/><path id="C" d="M411.78 46.8158c-2.207-1.2758-5.29-1.1037-8.6.86L102.156 221.452c-6.7232 3.885-12.1703 13.33-12.156 21.072v14.02l6.0635 3.526v-14.02c0-7.755 5.4185-17.2 12.1555-21.072L409.242 51.1878c3.383-1.9495 6.45-2.1358 8.6-.8457l-6.064-3.5263z"/><path id="D" d="M149.172 208c.755-.075 1.517.05 2.208.365l2.02 1.175c-.69-.314-1.453-.44-2.208-.364a4.293 4.293 0 0 0-2.092.794c-1.775 1.15-3.25 2.705-4.308 4.536a13.369 13.369 0 0 0-1.77 6 4.308 4.308 0 0 0 .369 2.187c.312.684.797 1.274 1.41 1.712l-2.022-1.176a4.298 4.298 0 0 1-1.409-1.712c-.31-.684-.438-1.438-.368-2.187a13.365 13.365 0 0 1 1.77-5.999c1.057-1.832 2.533-3.386 4.308-4.536a4.304 4.304 0 0 1 2.092-.795z"/><path id="E" d="M113.523 228.132c-1.777 1.15-3.255 2.704-4.314 4.535s-1.67 3.888-1.778 6a4.293 4.293 0 0 0 .368 2.187 4.305 4.305 0 0 0 1.409 1.712l2.02 1.175a4.298 4.298 0 0 1-1.409-1.712 4.291 4.291 0 0 1-.368-2.186c.11-2.113.72-4.17 1.778-6a13.364 13.364 0 0 1 4.314-4.535 4.304 4.304 0 0 1 2.092-.795c.755-.075 1.517.05 2.208.365l-2.02-1.176c-.69-.314-1.453-.44-2.208-.364a4.293 4.293 0 0 0-2.092.794z"/></defs></svg>