<svg xmlns="http://www.w3.org/2000/svg" width="512" height="512" fill="none" xmlns:v="https://vecta.io/nano"><path d="M353.9 40.1662a1.876 1.876 0 0 0-.956-.1571c-.327.0322-.64.1497-.907.3408a4.796 4.796 0 0 0-1.155.9841l-14.656 16.8996c-.658.7854-1.443 1.455-2.322 1.9813a4.701 4.701 0 0 1-2.323.7085H315.42a4.698 4.698 0 0 0-2.309.7085 9.319 9.319 0 0 0-2.322 1.9682l-16.1 18.566c-.656.7783-1.436 1.4432-2.31 1.968-.7.434-1.5.6782-2.322.7085h-16.152a5.075 5.075 0 0 0-2.322.7085 9.081 9.081 0 0 0-2.31 1.9813l-16.1 18.5655c-.656.78-1.437 1.444-2.31 1.97-.705.434-1.51.678-2.336.708H232.39c-.823.03-1.623.275-2.323.71a9.564 9.564 0 0 0-2.322 1.968l-16.086 18.566c-.66.785-1.444 1.455-2.323 1.98-.698.436-1.5.68-2.322.71h-16.14c-.823.028-1.624.273-2.322.708-.88.52-1.665 1.186-2.323 1.968l-16.086 18.566c-.658.786-1.443 1.455-2.322 1.982-.7.433-1.5.678-2.323.708h-14.708a2.414 2.414 0 0 0-1.168.354c-.757.488-1.4 1.147-1.845 1.925s-.723 1.65-.78 2.55l.853 300.467c-.032.32.022.64.156.93a1.778 1.778 0 0 0 .605.723l13.87 8.07c6.822-20.32 4.7-263.987 5.34-301.762 76.927-3.937 162.213-68.23 198.95-116.776.328-.03.635-4.87.932-4.728L353.9 40.1662z" fill="#4f47b9"/><path d="M326.98 69.7012c.7-.4356 1.5-.68 2.322-.7085h16.14c.822-.0234 1.623-.2632 2.322-.6954.88-.5262 1.665-1.196 2.323-1.9812l14.656-16.9128c.33-.387.72-.719 1.155-.984 1.312-.7872 2.624-.2493 2.624 1.4827l.852 300.468c-.048.902-.312 1.78-.768 2.56s-1.093 1.44-1.856 1.926a2.389 2.389 0 0 1-1.167.354h-14.696c-.823.03-1.624.273-2.322.71-.88.524-1.67 1.188-2.336 1.968l-16.06 18.58c-.656.778-1.436 1.443-2.31 1.968a4.793 4.793 0 0 1-2.335.709h-16.14c-.823.03-1.623.274-2.322.708a9.55 9.55 0 0 0-2.323 1.968l-16.086 18.566c-.66.78-1.446 1.444-2.322 1.968-.7.436-1.5.68-2.323.71H267.87c-.823.03-1.623.275-2.323.708-.877.525-1.66 1.2-2.322 1.97l-16.086 18.566c-.662.778-1.446 1.443-2.323 1.968-.698.435-1.5.68-2.322.708h-16.152c-.818.043-1.612.29-2.31.722-.877.524-1.662 1.19-2.323 1.968l-16.1 18.7c-.656.78-1.437 1.444-2.31 1.97a4.776 4.776 0 0 1-2.323.708h-16.15a4.952 4.952 0 0 0-2.323.722c-.872.525-1.653 1.2-2.31 1.968l-14.67 16.913c-.323.394-.714.727-1.155.984-1.312.787-2.624.25-2.624-1.483l-.853-300.468c.05-.902.312-1.78.77-2.56a5.669 5.669 0 0 1 1.855-1.926 2.463 2.463 0 0 1 1.155-.354h14.708c.823-.03 1.623-.275 2.323-.71.877-.524 1.66-1.19 2.322-1.968l16.086-18.566a9.326 9.326 0 0 1 2.323-1.968 4.742 4.742 0 0 1 2.322-.709h16.14c.826-.03 1.63-.274 2.335-.708a9.29 9.29 0 0 0 2.31-1.968l16.02-18.606c.664-.775 1.448-1.44 2.323-1.968.7-.432 1.5-.676 2.322-.708h16.152a4.742 4.742 0 0 0 2.322-.709c.873-.525 1.653-1.2 2.31-1.968l16.1-18.566c.658-.782 1.443-1.4472 2.322-1.968a4.698 4.698 0 0 1 2.309-.7085h16.152a4.74 4.74 0 0 0 2.323-.7085 9.071 9.071 0 0 0 2.322-1.9682l16.086-18.566a9.326 9.326 0 0 1 2.375-2.1125h0z" fill="#7066ff"/><path d="M203.8 235.85l-4.618-2.624c-1.863-1.1-3.018-3.386-3.03-6.666-.026-6.573 4.618-14.603 10.34-17.9l51.906-30.02c2.887-1.667 5.498-1.824 7.387-.722l5.2 3.14c1.312 3.28-2.624 11.153-2.624 11.153l-64.57 43.64zm-4.486 45.097l4.618 2.625c16.016-10.585 48.987-30.855 71.863-44.92l22.096-13.65s2.06-15.522 3.936-14.433l-4.776-2.877c-1.9-1.103-4.5-.945-7.387.72l-83.03 47.944c-5.734 3.306-10.366 11.336-10.352 17.9.013 3.28 1.167 5.576 3.03 6.678zm4.763 50.32l-4.632-2.625c-1.863-1.1-3.017-3.385-3.083-6.665-.013-6.573 4.62-14.603 10.352-17.9L331.27 232.15c2.886-1.667 5.497-1.824 7.387-.722l4.652 2.613c-1.88-1.016-3.433 9.987-3.433 9.987-4.948 2.752-28.113 17.894-54.096 34.88l-.004.003-.004.002-81.696 52.353zm127.377-51.408c2.886-1.666 5.497-1.824 7.387-.722l4.58 2.7c-.858-.5-.937 1.2-1.038 3.342-.12 2.588-.273 5.843-1.85 6.753-19.223 11.26-123.337 77.413-123.337 77.413S202.344 377.9 204.208 379l-4.632-2.624c-1.85-1.1-3.018-3.385-3.018-6.665-.026-6.587 4.62-14.604 10.34-17.9l124.557-71.942z" fill="#443da1"/><path d="M263.082 205.227l-51.893 29.955c-5.733 3.32-10.404.72-10.418-5.865s4.62-14.604 10.353-17.9l51.893-30.034c5.734-3.32 10.405-.656 10.418 5.93s-4.606 14.603-10.353 17.923zM211.385 282.9l82.977-47.865c5.734-3.32 10.365-11.323 10.34-17.923s-4.67-9.25-10.405-5.93l-83.042 47.865c-5.734 3.32-10.365 11.337-10.34 17.923s4.67 9.237 10.47 5.93zm124.65-24.248l-124.57 71.954c-5.734 3.32-10.392.656-10.418-5.93s4.62-14.604 10.34-17.923l124.583-71.955c5.734-3.32 10.418-.63 10.418 5.93-.2 3.593-1.225 7.1-3.024 10.205s-4.3 5.76-7.33 7.72zM211.53 354.424l124.504-71.876c5.786-3.32 10.496-.656 10.496 5.93-.196 3.6-1.24 7.082-3.043 10.193s-4.317 5.75-7.335 7.703l-124.556 71.903c-5.734 3.254-10.405.656-10.418-5.93s4.618-14.603 10.352-17.923z" fill="#5a52d0"/></svg>