<svg xmlns="http://www.w3.org/2000/svg" width="512" height="512" fill="none" xmlns:v="https://vecta.io/nano"><path d="M353.9 40.1662a1.876 1.876 0 0 0-.956-.1571c-.327.0322-.64.1497-.907.3408a4.796 4.796 0 0 0-1.155.9841l-14.656 16.8996c-.658.7854-1.443 1.455-2.322 1.9813a4.701 4.701 0 0 1-2.323.7085H315.42a4.698 4.698 0 0 0-2.309.7085 9.319 9.319 0 0 0-2.322 1.9682l-16.1 18.566c-.656.7783-1.436 1.4432-2.31 1.968-.7.434-1.5.6782-2.322.7085h-16.152a5.075 5.075 0 0 0-2.322.7085 9.083 9.083 0 0 0-2.31 1.9813l-16.1 18.5665c-.656.778-1.437 1.443-2.31 1.968a4.782 4.782 0 0 1-2.336.708H232.39c-.823.03-1.623.275-2.323.71a9.564 9.564 0 0 0-2.322 1.968l-16.086 18.566c-.66.785-1.444 1.455-2.323 1.98-.698.436-1.5.68-2.322.71h-16.14c-.823.028-1.624.273-2.322.708-.88.52-1.665 1.186-2.323 1.968l-16.086 18.566c-.658.786-1.443 1.455-2.322 1.982a4.734 4.734 0 0 1-2.323.708h-14.708a2.414 2.414 0 0 0-1.168.354c-.757.488-1.4 1.147-1.845 1.925s-.723 1.65-.78 2.55l.853 300.467c-.032.32.022.64.156.93s.342.54.605.724l13.87 8.07c6.822-20.32 4.7-263.987 5.34-301.762 76.927-3.937 162.213-68.23 198.95-116.776.328-.03.635-4.87.932-4.728L353.9 40.1662z" fill="#4f47b9"/><path d="M326.98 69.7c.7-.4356 1.5-.68 2.323-.7085h16.138c.822-.0234 1.623-.2633 2.323-.6954.88-.5263 1.664-1.196 2.322-1.9813L364.74 49.403a4.817 4.817 0 0 1 1.155-.984c1.312-.7873 2.624-.2493 2.624 1.4826l.853 300.4674a5.693 5.693 0 0 1-.769 2.562c-.456.78-1.093 1.44-1.855 1.926a2.417 2.417 0 0 1-1.168.354h-14.695c-.823.03-1.624.273-2.323.71a9.322 9.322 0 0 0-2.335 1.968l-16.06 18.58a9.29 9.29 0 0 1-2.31 1.968c-.704.434-1.51.678-2.335.708h-16.14a4.742 4.742 0 0 0-2.322.709c-.874.528-1.658 1.192-2.323 1.968l-16.086 18.566c-.66.78-1.445 1.444-2.322 1.968-.7.436-1.5.68-2.323.71H267.87a4.734 4.734 0 0 0-2.323.708c-.876.525-1.66 1.2-2.322 1.968l-16.086 18.566c-.66.78-1.446 1.444-2.323 1.97-.698.435-1.5.68-2.322.708h-16.152c-.818.042-1.612.29-2.31.722-.877.524-1.66 1.19-2.322 1.968l-16.1 18.7a9.226 9.226 0 0 1-2.309 1.968 4.766 4.766 0 0 1-2.322.709h-16.152c-.822.043-1.62.292-2.323.722-.872.524-1.652 1.19-2.31 1.968l-14.67 16.913c-.323.394-.714.727-1.155.984-1.312.787-2.624.25-2.624-1.483l-.853-300.468c.05-.903.313-1.78.77-2.56s1.093-1.44 1.856-1.926c.35-.213.746-.334 1.154-.355h14.71c.822-.03 1.623-.274 2.322-.708.877-.524 1.66-1.19 2.322-1.968l16.087-18.566c.66-.78 1.445-1.444 2.322-1.968a4.742 4.742 0 0 1 2.322-.709h16.14c.827-.03 1.63-.274 2.336-.708.872-.525 1.652-1.2 2.31-1.968l16.02-18.606c.665-.776 1.45-1.44 2.323-1.968.7-.432 1.5-.676 2.322-.71h16.152c.823-.03 1.623-.274 2.322-.708a9.29 9.29 0 0 0 2.31-1.968l16.1-18.5662c.658-.782 1.443-1.4473 2.322-1.968.695-.4335 1.49-.6777 2.3-.7086h16.15a4.738 4.738 0 0 0 2.323-.7085 9.037 9.037 0 0 0 2.322-1.9681l16.086-18.566a9.339 9.339 0 0 1 2.375-2.1125h0z" fill="#7066ff"/><path d="M203.8 235.85l-4.62-2.624c-1.863-1.1-3.017-3.385-3.03-6.666-.027-6.573 4.618-14.603 10.34-17.9l51.906-30.02c2.886-1.666 5.497-1.824 7.387-.722l5.2 3.14c1.312 3.28-2.624 11.152-2.624 11.152l-64.57 43.64zm-4.488 45.098l4.62 2.624c16.016-10.584 48.986-30.855 71.862-44.92l22.097-13.65s2.06-15.522 3.936-14.432l-4.777-2.878c-1.9-1.102-4.5-.945-7.387.72l-83.028 47.944c-5.734 3.307-10.366 11.336-10.353 17.9.013 3.28 1.168 5.576 3.03 6.68zm4.764 50.318l-4.632-2.624c-1.863-1.1-3.018-3.385-3.083-6.666-.014-6.573 4.618-14.603 10.352-17.9L331.27 232.15c2.887-1.666 5.498-1.824 7.387-.722l4.652 2.614c-1.88-1.017-3.433 9.987-3.433 9.987-4.947 2.75-28.112 17.893-54.095 34.878l-.005.003-.003.002-81.696 52.353zm127.376-51.408c2.887-1.666 5.498-1.824 7.387-.72l4.58 2.7c-.857-.5-.936 1.2-1.037 3.342-.12 2.588-.274 5.843-1.85 6.753-19.222 11.26-123.336 77.413-123.336 77.413s-14.852 8.576-13 9.665l-4.632-2.624c-1.85-1.1-3.017-3.385-3.017-6.665-.027-6.587 4.618-14.604 10.34-17.9l124.556-71.942z" fill="#443da1"/><path d="M263.08 205.227l-51.893 29.955c-5.733 3.32-10.404.72-10.418-5.865s4.62-14.604 10.353-17.9l51.893-30.034c5.734-3.32 10.405-.656 10.418 5.93s-4.606 14.603-10.353 17.923zM211.384 282.9l82.977-47.865c5.734-3.32 10.365-11.323 10.34-17.923s-4.67-9.25-10.405-5.93l-83.042 47.865c-5.734 3.32-10.365 11.337-10.34 17.923s4.67 9.237 10.47 5.93zm124.65-24.248l-124.57 71.954c-5.734 3.32-10.392.656-10.418-5.93s4.62-14.604 10.34-17.923l124.583-71.955c5.734-3.32 10.418-.63 10.418 5.93-.2 3.593-1.225 7.1-3.024 10.205s-4.3 5.76-7.33 7.72zM211.53 354.424l124.504-71.876c5.786-3.32 10.497-.656 10.497 5.93-.197 3.6-1.24 7.082-3.043 10.193a22.805 22.805 0 0 1-7.336 7.703l-124.556 71.903c-5.734 3.254-10.405.656-10.418-5.93s4.618-14.603 10.352-17.923z" fill="#5a52d0"/><path d="M354.782 135.623l-7.768-4.517c-3.2-1.85-5.183-5.8-5.313-11.402-.026-11.296 7.912-25.047 17.74-30.7285 4.946-2.8472 9.433-3.1233 12.66-1.2333l7.778 4.4853c-5.14-2.9193-7.38 15.2725-7.38 15.2725s-20.897 26.263-17.718 28.123zm4.92-.095c10.43-6.035 19.88-6.56 26.702-2.624l7.872 4.54c-6.823-3.936-16.27-3.398-26.7 2.624-18.894 10.917-34.43 35.965-37.054 58.362-.25 1.915.302 3.28 1.312 3.87l-7.873-4.54c-.984-.578-1.535-1.956-1.312-3.858 2.572-22.397 18.16-47.458 37.054-58.375z" fill="#443da1"/><path d="M385.288 103.684c.027 11.297-7.9 25.048-17.74 30.73-9.893 5.668-17.897 1.18-17.923-10.142s7.977-25.0877 17.805-30.7556 17.83-1.13 17.857 10.1686zm-17.788 36.37c18.88-10.904 34.56-3.897 37.25 15.47.072 1.763-.32 3.514-1.135 5.08s-2.025 2.9-3.5 3.843L335.14 201.96c-2.886 1.706-5.092-.013-4.684-3.543 2.57-22.397 18.172-47.458 37.053-58.36z" fill="#5a52d0"/></svg>