<svg xmlns="http://www.w3.org/2000/svg" xmlns:xlink="http://www.w3.org/1999/xlink" width="512" height="512" fill="none" xmlns:v="https://vecta.io/nano"><use xlink:href="#B" fill="#7066ff"/><use xlink:href="#B" opacity=".3" fill="#010014"/><g fill="#7066ff"><path d="M292.506 111.45c7.957-4.6 20.833-4.6 28.752 0l146.755 85.288c7.92 4.6 7.88 12.062-.076 16.663l-213.13 123.05-13.626 36.86c-.54 1.276-1.512 2.32-2.745 2.95-2.232 1.138-4.702 1.732-7.207 1.732s-4.975-.594-7.207-1.732L43.9137 271.578c-7.9187-4.6-7.8806-12.062.089-16.65L292.506 111.45z"/><use xlink:href="#C"/><use xlink:href="#D"/><use xlink:href="#E"/></g><g fill="#010014"><use xlink:href="#C" opacity=".4"/><use xlink:href="#D" opacity=".4"/><use xlink:href="#E" opacity=".4"/></g><g fill="#7066ff"><use xlink:href="#F"/><use xlink:href="#G"/><use xlink:href="#H"/></g><g fill="#010014"><use xlink:href="#F" opacity=".2"/><use xlink:href="#G" opacity=".2"/><use xlink:href="#H" opacity=".2"/></g><defs ><path id="B" d="M473.936 205.013c0 3.038-22.932-2.313-26.936 0L246.5 309.5 89 254s-50.997 12.303-50.997 9.304l.0636 25.904c0 3 1.983 5.986 5.923 8.274L224.098 402.115c2.232 1.14 4.7 1.732 7.207 1.732s4.975-.593 7.207-1.732a5.928 5.928 0 0 0 2.745-2.948l13.613-36.86L468 239.255c4.017-2.313 6.012-5.35 6-8.39l-.064-25.853z"/><path id="C" d="M303.768 170.48v-8.288C279 164 194.5 214 194.5 214l-71.603 36.364v8.288c0 2.084 1.385 4.17 4.118 5.77a22.098 22.098 0 0 0 10.022 2.403c3.484 0 6.918-.823 10.022-2.403l152.527-88.096c2.783-1.615 4.182-3.725 4.182-5.847z"/><path id="D" d="M365.884 172.6C338 174.5 282 211 282 211l-119.256 62.586v8.288c0 2.084 1.373 4.17 4.118 5.77 5.517 3.203 14.5 3.203 20.045 0l174.757-100.91c2.796-1.614 4.194-3.724 4.194-5.846l.026-8.288z"/><path id="E" d="M272.5 266.5s-69.76 31.807-69.77 30.31v8.287c0 2.085 1.373 4.17 4.12 5.77 5.516 3.203 14.5 3.203 20.044 0L347.568 241.2c2.784-1.614 4.182-3.737 4.182-5.847v-8.287C340 225.5 272.5 266.5 272.5 266.5z"/><path id="F" d="M146.97 256.135c-3.104 1.58-6.538 2.403-10.022 2.403s-6.917-.824-10.022-2.403c-5.504-3.216-5.478-8.414.076-11.617l152.527-88.084a22.055 22.055 0 0 1 10.022-2.408 22.058 22.058 0 0 1 10.022 2.408c5.53 3.203 5.504 8.4 0 11.604L146.97 256.135z"/><path id="G" d="M341.72 166.844a22.058 22.058 0 0 1 10.022-2.408 22.062 22.062 0 0 1 10.023 2.408c5.516 3.203 5.49 8.4-.077 11.604L186.907 279.344c-3.103 1.586-6.538 2.413-10.023 2.413s-6.92-.827-10.022-2.413c-5.516-3.203-5.478-8.4.064-11.604L341.72 166.844z"/><path id="H" d="M327.587 221.295c3.105-1.58 6.54-2.402 10.023-2.402s6.917.823 10.022 2.402c5.516 3.203 5.478 8.415-.064 11.618L226.894 302.58c-5.54 3.203-14.528 3.203-20.044 0s-5.478-8.414.076-11.617l120.66-69.667z"/></defs></svg>