<svg xmlns="http://www.w3.org/2000/svg" width="191" height="156" fill="none" xmlns:v="https://vecta.io/nano"><path d="M5.1248 112.495c-5.7396-3.314-5.7396-8.686 0-12l62.9188-36.3234c17.219-9.9404 45.1364-9.9404 62.3554.0001l55.487 32.0327c5.74 3.3135 5.74 8.6856 0 11.9996l-62.92 36.323c-17.22 9.94-45.136 9.94-62.355 0L5.1248 112.495z" fill="#675cff"/><path d="M122.77 3.2188c-5.692-3.3072-13.083-3.684-21.346-.6517l-.798 5.7633-5.2404-3.0457-21.386 12.3467c-6.2908 3.6308-11.305 12.3156-11.287 19.5463l.0443 15.1795c.0266 8.6656-2.892 16.3825-8.7557 23.1506l6.25 3.6622.45-.27c1.4778 2.1634 2.131 5.2098 2.1577 9.5485l.0443 15.1795c0 3.59 1.259 6.11 3.2895 7.284l6.251 3.635c-2.0304-1.18-3.2806-3.697-3.2895-7.288l-.0443-15.1796c-.0177-6.2066-1.537-10.1966-4.5574-11.97L61.5 78.5c1.87-2.2822 4.232-2.8352 5.5-5.5l3.301.3577c1.2592-.033 2.504.2734 3.6043.8866l-6.2332-3.6397c-.4792-.2765.8635-.9663.3278-1.1046 1.933-4.398 3.5453-9.1962 3.5-14L70.301 41c-.022-7.2262 4.908-14.869 11.199-18.5l18.947-12.8707-12.222 88.3552-5.187-3.0146-5.0318 2.9082c-1.7423 1.002-3.325 1.0906-4.4732.4433l6.251 3.6306c1.1438.67 2.731.577 4.4688-.443l3.786-2.1856-.3414 2.4556 6.251 3.63L107.67 6.2157c8.268-3.028 15.66-2.66 21.35.6517l-6.25-3.6486z" fill="#221f5b"/><g fill="#443da1"><path fill-rule="evenodd" d="M93.9482 105.4L107.67 6.216c18.762-6.8804 33.028 3.786 33.095 26.47.07 25.55-17.893 56.644-40.126 69.5-2.142 1.25-4.3787 2.326-6.6898 3.223zm-1.0994-81.2618l-8.8045 5.085c-3.4535 1.995-6.2775 6.8804-6.242 10.857l.0355 13.0116a29.832 29.832 0 0 1-7.5055 20.2734c5.042-.0266 7.5735 3.8156 7.5942 11.5265l.0354 13.0117c.0133 3.9725 2.8506 5.5905 6.3086 3.5955l5.0317-2.9083c.0178 5.7853-3.7416 12.3023-8.7734 15.2063-6.2908 3.63-11.358.753-11.358-6.473l-.0444-15.1793c-.0325-8.6745-2.988-13.0028-8.8665-12.985 5.8578-6.7622 8.7764-14.479 8.7557-23.1506l-.0444-15.1795c-.03-7.2262 4.9875-15.8977 11.274-19.5463l21.382-12.3467c.017 5.78-3.742 12.298-8.7782 15.2017z"/><path d="M116.024 97.3666c4.615-2.6602 8.95-3.7547 11.9-2.047l2.524 1.467c-2.943-1.7075-7.28-.613-11.9 2.047-3.04 1.7565-6.2 4.6525-8.718 8.0025-1.704 2.305-3.082 4.834-4.094 7.516-1.05 2.74-.596 4.938.73 5.7l-2.52-1.466c-1.327-.77-1.784-2.968-.732-5.7 1.012-2.682 2.4-5.2 4.094-7.516 2.507-3.35 5.677-6.246 8.718-8.0024zm7.436 10.1734l-2.5-1.46c.147.087.283.192.403.313.663.606.86 1.784.87 3.152.008 2.66-.45 4.978-2.227 8.287l-3.332 5.518c-1.558 2.438-2.7 4.2-3.718 7.232-.374.962-.697 1.945-.967 2.942-.664 2.458-.143 4.3 1.073 5.014l2.524 1.466c-1.213-.705-1.737-2.557-1.072-5.013.27-1.002.6-1.988.967-2.955 1.025-3.016 2.156-4.786 3.712-7.22l3.337-5.53c1.778-3.3 2.235-5.628 2.228-8.287 0-1.367-.207-2.544-.87-3.152-.125-.12-.265-.224-.417-.308zm-7.734 34.9c-2.6 1.507-4.72 5.157-4.713 8.165v.074c0 1.492.53 2.54 1.378 3.033l2.524 1.467c-.848-.493-1.373-1.542-1.377-3.033v-.076c-.01-2.998 2.1-6.652 4.713-8.165 1.312-.76 2.502-.83 3.362-.33l-2.523-1.466c-.86-.5-2.05-.43-3.364.33z"/></g><path d="M118.553 98.8336c5.024-2.8995 9.724-3.9395 12.645-1.517 1.924 1.477 3.058 4.4735 3.08 7.8945.01 5.545-2.424 11.364-5.587 17.072l-1.678 2.974c-1.164 2.04-2.047 3.586-2.735 5.205-.407.945-.742 1.918-1.003 2.913-.618 2.578-2.385 5.13-4.414 6.303-3.233 1.866-5.476-.553-4.36-4.688a28.739 28.739 0 0 1 .967-2.942c1.026-3.02 2.16-4.793 3.717-7.23.935-1.462 2.023-3.164 3.332-5.518 1.778-3.3 2.235-5.63 2.228-8.288-.01-1.368-.206-2.545-.87-3.15-1.062-1.062-2.915-.676-4.9.47-1.52.878-3.04 2.136-4.028 3.62a9.946 9.946 0 0 0-1.318 2.607c-.725 2.192-2.306 4.202-4 5.186-3.402 1.964-5.557-1.022-3.88-5.4 1.012-2.682 2.4-5.2 4.094-7.516 2.507-3.35 5.678-6.246 8.72-8.0024zm-5.016 53.2384c-.014-3.008 2.102-6.658 4.713-8.165s4.734-.298 4.74 2.703v.076c.008 3.008-2.1 6.657-4.7 8.165s-4.735.298-4.744-2.703v-.076z" fill="#7066ff"/><path d="M29.9146 38.9305c5.522-3.1835 10.7112-4.4933 14.23-2.4498l3.0207 1.7555c-3.523-2.0435-8.7123-.7337-14.23 2.4498-3.6395 2.1018-7.4334 5.568-10.4334 9.5763a37.246 37.246 0 0 0-4.8996 8.9951c-1.258 3.28-.7135 5.9092.8727 6.8324l-3.0173-1.7546c-1.5875-.9223-2.1344-3.552-.876-6.8333a37.281 37.281 0 0 1 4.8996-8.9951c3-4.008 6.794-7.4745 10.4334-9.5763zm8.8974 12.1752l-3.0044-1.746a2.365 2.365 0 0 1 .4827.3745c.7937.7252 1.0286 2.1344 1.0406 3.7716.0085 3.1818-.5384 5.9573-2.6658 9.9174-1.5672 2.8174-2.87 4.854-3.9877 6.604-1.8647 2.9172-3.2206 5.0383-4.4486 8.6537-.4485 1.152-.8348 2.3276-1.157 3.5212-.7955 2.9418-.1715 5.1584 1.284 6.0002l3.0197 1.755c-1.4514-.844-2.0784-3.0602-1.283-5.9996a34.45 34.45 0 0 1 1.1572-3.5367c1.2267-3.6083 2.58-5.7275 4.4427-8.6408 1.12-1.7525 2.4236-3.7924 3.9935-6.6168 2.1275-3.96 2.6744-6.7356 2.6658-9.9174 0-1.6355-.247-3.0446-1.0406-3.7715a2.36 2.36 0 0 0-.499-.3686zm-9.254 41.7646c-3.1253 1.8035-5.6488 6.1716-5.6402 9.7717v.1c0 1.785.6343 3.04 1.6492 3.63l3.0204 1.756c-1.0147-.6-1.6438-1.845-1.65-3.63v-.1c-.0103-3.588 2.515-7.9616 5.64-9.772 1.5712-.908 2.995-.9925 4.0235-.3954l-3.02-1.7544c-1.0286-.5966-2.4532-.5126-4.0252.396z" fill="#443da1"/><path d="M32.9404 40.686c6.0122-3.4698 11.637-4.7144 15.1324-1.8155 2.3024 1.7675 3.66 5.354 3.6875 9.4477.012 6.6362-2.9006 13.5998-6.686 20.4297l-2.0082 3.56c-1.3936 2.442-2.4493 4.2916-3.2736 6.2298a24.562 24.562 0 0 0-1.2 3.4853c-.74 3.0858-2.8544 6.1407-5.282 7.543-3.8693 2.2338-6.554-.6617-5.2167-5.6093a34.398 34.398 0 0 1 1.1572-3.5212c1.228-3.6153 2.5838-5.7365 4.4486-8.6536 1.1186-1.75 2.4204-3.7865 3.9876-6.604 2.1275-3.96 2.6743-6.7356 2.6658-9.9174-.012-1.6372-.247-3.0463-1.0406-3.7715-1.272-1.2703-3.4887-.8092-5.863.5623-1.82 1.05-3.638 2.556-4.8208 4.332a11.959 11.959 0 0 0-1.577 3.12c-.8675 2.623-2.76 5.028-4.8002 6.206-4.0715 2.3503-6.65-1.2223-4.644-6.45a37.25 37.25 0 0 1 4.8996-8.9951c3-4.008 6.794-7.4745 10.4334-9.5762zm-6.002 63.712c-.017-3.6 2.515-7.9687 5.6402-9.772s5.664-.3566 5.6727 3.235v.09c.0103 3.6003-2.5115 7.9663-5.6367 9.7713s-5.666.357-5.6762-3.235v-.1z" fill="#7066ff"/><path d="M161.838 92.482c-1.18-.68-2.248-.7444-3.02-.2957l-2.266 1.3166c.772-.4487 1.84-.3857 3.02.2957 2.344 1.3526 4.237 4.6286 4.23 7.3284v.06c0 1.338-.476 2.28-1.237 2.72l2.266-1.307c.76-.442 1.233-1.384 1.236-2.722v-.0668c.008-2.6987-1.884-5.9786-4.228-7.3312zm3.44-17.2916c-1.716.9977-2.986 1.2728-4.034 1.88l-2.266 1.3166c1.048-.6082 2.315-.8833 4.035-1.88l2.265-1.3166zm-7.423-13.7418a1.949 1.949 0 0 1 .736-.783l-2.265 1.3166a1.958 1.958 0 0 0-.737.783c-.17.3258-.427.5978-.743.7856l2.265-1.3205a1.979 1.979 0 0 0 .744-.7817zM173.657 64.2c-2.6-5.1892-6.814-9.12-11.314-11.7245-2.73-1.5763-5.58-2.2654-7.843-1.863-.612.105-1.2.3187-1.738.6313l-2.266 1.3166a5.2 5.2 0 0 1 1.739-.6313c2.26-.4025 5.1.2867 7.843 1.863 4.5 2.6036 8.718 6.5353 11.314 11.7244 1.714 3.312 2.713 7.168 2.7 10.237-.014 4.977-2.22 7.6655-5.08 9.4976-1.845 1.188-3.094 1.696-3.985 2.7502-.45.58-.732 1.0556-.908 1.5737-.212.6287-.57 1.084-1.03 1.3513l2.263-1.3c.46-.2675.82-.7226 1.03-1.3513.176-.5143.457-.9926.907-1.5725.9-1.0555 2.145-1.5634 3.986-2.7514 2.86-1.8322 5.065-4.5206 5.08-9.4976.015-3.0755-.984-6.9313-2.698-10.2433z" fill="#443da1"/><path d="M159.572 93.7984c-2.342-1.3526-4.243-.266-4.256 2.4262v.068c-.007 2.7 1.885 5.9723 4.228 7.3283s4.243.268 4.257-2.426v-.067c.008-2.697-1.88-5.977-4.23-7.3296zm11.82-28.282c-2.6-5.1892-6.815-9.12-11.315-11.7245-2.73-1.5763-5.58-2.2654-7.842-1.863-1.503.257-2.756 1.134-3.7 2.4866-1.52 2.1767.386 7.0714 3.445 8.8393 1.528.8833 2.957.7213 3.613-.4912a1.883 1.883 0 0 1 .492-.6109 1.892 1.892 0 0 1 .698-.3585c.894-.3034 2.26.1427 3.625.93 1.78 1.0285 3.44 2.6 4.384 4.6478.6 1.2305.77 2.4918.762 3.7196-.006 2.3863-.427 3.9858-2.035 5.1082-3.155 2.003-4.878 1.4863-6.372 4.1066a7.698 7.698 0 0 0-.88 1.634c-1.02 2.5406.972 7.0265 3.875 8.7018 1.822 1.0517 3.415.6004 3.986-1.0685.176-.5143.458-.9925.908-1.5724.9-1.0556 2.144-1.5634 3.986-2.7514 2.86-1.8322 5.064-4.5206 5.078-9.4976.007-3.07-1-6.925-2.706-10.237z" fill="#7066ff"/></svg>