<svg xmlns="http://www.w3.org/2000/svg" xmlns:xlink="http://www.w3.org/1999/xlink" width="512" height="512" fill="none" xmlns:v="https://vecta.io/nano"><g fill="#7066ff"><use xlink:href="#B"/><use xlink:href="#C"/><use xlink:href="#D"/><use xlink:href="#E"/><use xlink:href="#F"/></g><g opacity=".3" fill="#010014"><use xlink:href="#B"/><use xlink:href="#C"/><use xlink:href="#D"/><use xlink:href="#E"/><use xlink:href="#F"/></g><path d="M161.256 121.753l-.13 47.973c-.077 28.472-9.413 42.697-28 42.675a110.069 110.069 0 0 1 27.665 74.723l-.13 47.973c-.05 14.667 10.366 32.685 23.136 40.06l18.54 10.7c-.05 21.338-14.012 29.284-32.57 18.574-23.202-13.4-41.63-45.438-41.63-72.1l.164-55.985c.087-31.982-10.677-60.443-32.293-85.383 21.714 0 32.603-16.002 32.67-48.006l.163-55.968c.066-26.668 18.7-37.2633 41.9-23.872l78.875 45.537c-.065 21.32-14.03 29.284-32.587 18.574l-32.472-18.754c-12.77-7.374-23.283-1.455-23.283 13.26zm58.06 308.914l52.535-306.298c69.114 54.465 121.338 154.335 121.093 238C392.683 456.6 325.99 494.58 244 447.245a227.597 227.597 0 0 1-24.673-16.579z" fill="#7066ff"/><defs ><path id="B" d="M164.002 46.7858c7.57-4.3983 18.084-3.728 29.76 3.0085L272.62 95.33l-23.054 13.39-78.843-45.5365c-11.675-6.7364-22.188-7.4068-29.775-3.0085l23.054-13.3912z"/><path id="C" d="M249.566 108.722l23.054-13.39c-.033 10.612-3.5 17.904-9.254 21.256l-23.055 13.39c5.756-3.368 9.255-10.66 9.255-21.256z"/><path id="D" d="M183.705 321.657l.13-47.973c.415-26.125-8.502-51.54-25.147-71.68l10.775-6.262c9.745-5.658 14.65-18.777 14.715-39.357l.147-47.973c0-7.288 2.614-12.4206 6.78-14.842l-23.047 13.387c-4.17 2.42-6.77 7.554-6.786 14.847l-.147 47.924c0 12.72-1.89 22.59-5.674 29.61l-22.335 12.966c18.23 20.578 28.1 47.234 27.665 74.722L160.65 335c0 14.716 10.366 32.702 23.136 40.06l18.542 10.7c0 10.595-3.483 17.904-9.24 21.256l23.04-13.293c5.755-3.27 9.22-10.644 9.254-21.256l-18.558-10.7c-12.77-7.423-23.17-25.44-23.12-40.108z"/><path id="E" d="M119.054 177.526L96 190.933c5.534.172 11.013-1.15 15.86-3.826l23.055-13.39a30.925 30.925 0 0 1-15.861 3.81z"/><path id="F" d="M271.852 124.37l23.038-13.39c69.13 54.464 121.338 154.334 121.11 238-.13 46.796-16.66 79.742-43.313 95.226l-23.054 13.392c26.65-15.484 43.182-48.415 43.313-95.227.245-83.666-51.98-183.536-121.093-238z"/></defs></svg>