<svg xmlns="http://www.w3.org/2000/svg" xmlns:xlink="http://www.w3.org/1999/xlink" width="880" height="311" fill="none" xmlns:v="https://vecta.io/nano"><style><![CDATA[.B{fill:#7066ff}.C{fill:#443da1}.D{fill:#010014}.E{fill:#2d2972}.F{opacity:.15}.G{fill:#302b77}.H{fill:#383389}.I{fill:#5a52d0}.J{color-interpolation-filters:sRGB}]]></style><g clip-path="url(#C)"><path d="M442.614 64.9047c-1.423-.8212-3.75-.8212-5.172 0l-11.78 6.802c-1.423.8212-2.586 2.8367-2.586 4.48v13.601c0 1.6423 1.163 3.6578 2.586 4.48l11.78 6.8022c1.423.82 3.75.82 5.172 0l11.78-6.8022c1.422-.8212 2.585-2.8367 2.585-4.48v-13.601c0-1.6423-1.163-3.6578-2.585-4.48l-11.78-6.802z" class="C"/><path d="M440.028 99.5746c0 1.6424 1.163 2.3144 2.586 1.4934l11.78-6.8024c1.422-.8212 2.585-2.8367 2.585-4.48v-13.601c0-1.6423-1.163-2.314-2.585-1.493l-11.78 6.8006c-1.423.821-2.586 2.8366-2.586 4.479v13.6026z" class="G"/><path d="M416.245 79.9723c-1.423-.821-3.75-.821-5.172 0l-11.78 6.802c-1.423.821-2.586 2.8366-2.586 4.479v13.6007c0 1.643 1.163 3.658 2.586 4.48l11.78 6.802c1.423.822 3.75.822 5.172 0l11.78-6.802c1.422-.82 2.586-2.836 2.586-4.48V91.2533c0-1.6423-1.164-3.6578-2.586-4.479l-11.78-6.802z" class="B"/><use xlink:href="#D" opacity=".3" class="D"/><path d="M389.876 95.04c-1.423-.821-3.75-.821-5.172 0l-11.78 6.802c-1.423.82-2.586 2.837-2.586 4.48v13.6c0 1.642 1.163 3.658 2.586 4.48l11.78 6.802c1.423.82 3.75.82 5.172 0l11.78-6.802c1.423-.82 2.586-2.837 2.586-4.48v-13.6c0-1.642-1.163-3.658-2.586-4.48l-11.78-6.802z" class="C"/><path d="M387.3 129.7c0 1.642 1.163 2.314 2.586 1.493l11.78-6.802c1.423-.82 2.586-2.837 2.586-4.48v-13.6c0-1.642-1.163-2.314-2.586-1.493l-11.78 6.8c-1.423.82-2.586 2.836-2.586 4.48V129.7z" class="G"/><path d="M363.507 110.108c-1.422-.82-3.748-.82-5.17 0l-11.78 6.802c-1.423.82-2.586 2.837-2.586 4.48V135c0 1.642 1.163 3.658 2.586 4.48l11.78 6.802c1.423.82 3.75.82 5.17 0l11.78-6.802c1.423-.82 2.586-2.837 2.586-4.48v-13.6c0-1.642-1.163-3.658-2.586-4.48l-11.78-6.802z" class="B"/><use xlink:href="#E" opacity=".3" class="D"/><path d="M468.983 79.9723c-1.423-.821-3.75-.821-5.172 0l-11.78 6.802c-1.423.821-2.586 2.8366-2.586 4.479v13.6007c0 1.643 1.163 3.658 2.586 4.48l11.78 6.802c1.423.822 3.75.822 5.172 0l11.78-6.802c1.423-.82 2.586-2.836 2.586-4.48V91.2533c0-1.6423-1.163-3.6578-2.586-4.479l-11.78-6.802z" class="B"/><path opacity=".3" d="M466.397 114.642c0 1.643 1.163 2.315 2.586 1.493l11.78-6.802c1.423-.82 2.586-2.836 2.586-4.48V91.2534c0-1.6423-1.163-2.3142-2.586-1.493l-11.78 6.8005c-1.423.8212-2.586 2.8367-2.586 4.479v13.602z" class="D"/><path d="M495.35 95.04c-1.422-.821-3.748-.821-5.17 0l-11.78 6.802c-1.423.82-2.586 2.837-2.586 4.48v13.6c0 1.642 1.163 3.658 2.586 4.48l11.78 6.802c1.423.82 3.75.82 5.17 0l11.78-6.802c1.423-.82 2.586-2.837 2.586-4.48v-13.6c0-1.642-1.163-3.658-2.586-4.48l-11.78-6.802z" class="C"/><path d="M492.766 129.7c0 1.642 1.163 2.314 2.585 1.493l11.78-6.802c1.423-.82 2.586-2.837 2.586-4.48v-13.6c0-1.642-1.163-2.314-2.586-1.493l-11.78 6.8c-1.422.82-2.585 2.836-2.585 4.48V129.7z" class="G"/><path d="M521.72 110.108c-1.422-.82-3.75-.82-5.17 0l-11.78 6.802c-1.423.82-2.586 2.837-2.586 4.48V135c0 1.642 1.163 3.658 2.586 4.48l11.78 6.802c1.422.82 3.75.82 5.17 0l11.78-6.802c1.423-.82 2.586-2.837 2.586-4.48v-13.6c0-1.642-1.163-3.658-2.586-4.48l-11.78-6.802z" class="B"/><path opacity=".3" d="M519.135 144.778c0 1.643 1.163 2.314 2.585 1.493l11.78-6.802c1.423-.82 2.586-2.837 2.586-4.48v-13.6c0-1.642-1.163-2.314-2.586-1.493l-11.78 6.8c-1.422.82-2.585 2.836-2.585 4.48v13.602z" class="D"/><path d="M396.058 212.58l-167.12 96.487c-1.916 1.107-4.1 1.69-6.302 1.69a12.595 12.595 0 0 1-6.302-1.689l-109.03-62.948c-1.916-1.107-3.506-2.698-4.612-4.614a12.606 12.606 0 0 1-1.69-6.302V109.308c.001-2.212.583-4.385 1.7-6.3a12.607 12.607 0 0 1 4.612-4.6144l167.085-96.463A12.601 12.601 0 0 1 280.644.25c2.196-.005 4.355.5645 6.263 1.6517l4.206 2.4008L114.46 102.526c-1.916 1.106-3.507 2.697-4.614 4.613a12.607 12.607 0 0 0-1.688 6.302V238.35l108.175 62.448a12.596 12.596 0 0 0 6.302 1.69c2.212 0 4.386-.583 6.302-1.7l173.4-103.757v4.626a12.602 12.602 0 0 1-1.678 6.297c-1.102 1.916-2.688 3.51-4.6 4.618z" fill="#544dc4"/><path d="M294.18 9.6762v121.271L108.157 238.35V113.44a12.607 12.607 0 0 1 1.688-6.302 12.602 12.602 0 0 1 4.614-4.613L284.73 4.2184c.958-.5526 2.044-.8434 3.15-.8432s2.192.2916 3.15.8446a6.3 6.3 0 0 1 2.306 2.3062 6.311 6.311 0 0 1 .845 3.1501z" class="H"/><path d="M287.026 14.6457V124.49c.002.706-.182 1.4-.533 2.014a4.033 4.033 0 0 1-1.467 1.479l-166.7 96.23a1.995 1.995 0 0 1-1.011.282c-.356.002-.706-.1-1.014-.27s-.564-.435-.74-.745-.266-.66-.26-1.017V112.62a4.033 4.033 0 0 1 .534-2.012 4.02 4.02 0 0 1 1.467-1.477L284 12.901a2.004 2.004 0 0 1 1.01-.2822 2 2 0 0 1 1.014.2676c.31.1777.564.4344.74.7436s.266.6598.26 1.0156z" fill="#282466"/><path d="M399.206 191.586l-105.025-60.64L108.157 238.35l108.175 62.448a12.595 12.595 0 0 0 6.302 1.689c2.212 0 4.386-.582 6.302-1.69l170.27-98.3c.958-.553 1.754-1.348 2.307-2.306s.845-2.044.845-3.15-.29-2.193-.845-3.15-1.35-1.753-2.307-2.306z" class="B"/><path opacity=".4" d="M335.218 224.773c3.05 1.76 3.05 4.642 0 6.402l-53.32 30.782c-3.05 1.76-8.04 1.76-11.088 0l-31.826-18.378c-3.05-1.76-3.05-4.64 0-6.402l53.317-30.782c3.05-1.76 8.04-1.76 11.088 0l31.83 18.378z" class="D"/><g opacity=".8" class="D"><path d="M288.243 159.08l4.177-2.4a.986.986 0 0 0 .4-.32.952.952 0 0 0 .18-.477v-1.068c-.016.173-.08.338-.18.48s-.24.25-.4.32l-4.177 2.4c-.43.22-.906.333-1.4.333s-.958-.114-1.388-.333l-4.153-2.4c-.157-.07-.293-.183-.392-.324a.977.977 0 0 1-.177-.476v1.064c.016.172.077.336.177.477a.971.971 0 0 0 .392.323l4.153 2.4c.43.22.906.333 1.388.333s.96-.114 1.4-.333zm-5.693 2.82v-1.064a.99.99 0 0 1-.182.475c-.1.14-.237.25-.394.32l-4.178 2.4c-.43.217-.906.33-1.388.33s-.958-.113-1.388-.33l-4.154-2.4a.972.972 0 0 1-.392-.324c-.1-.14-.16-.305-.176-.476v1.068c.014.172.074.337.174.478s.236.252.394.322l4.154 2.4c.43.217.906.33 1.388.33s.958-.113 1.388-.33l4.178-2.4c.158-.07.294-.182.395-.323a.982.982 0 0 0 .181-.477zm-10.452 4.967v1.088c-.017.172-.08.337-.18.478a.958.958 0 0 1-.396.322l-4.177 2.4c-.43.22-.907.333-1.4.333a3.034 3.034 0 0 1-1.39-.333l-4.15-2.4a.966.966 0 0 1-.393-.323c-.1-.14-.16-.305-.175-.477v-1.064a.966.966 0 0 0 .176.476.98.98 0 0 0 .392.324l4.153 2.4c.43.218.906.333 1.4.333a3.066 3.066 0 0 0 1.388-.333l4.177-2.4a.96.96 0 0 0 .404-.331c.102-.146.162-.316.173-.493zm-10.448 7.1V172.9a.976.976 0 0 1-.576.788l-4.177 2.4c-.43.217-.906.33-1.4.33s-.957-.113-1.388-.33l-4.153-2.4c-.158-.07-.294-.182-.393-.323a.973.973 0 0 1-.176-.477v1.068a.979.979 0 0 0 .176.477.966.966 0 0 0 .393.323l4.15 2.4c.43.217.906.33 1.388.33a3.097 3.097 0 0 0 1.39-.33l4.18-2.4a.988.988 0 0 0 .396-.323c.1-.14.163-.305.18-.477zm-10.447 4.973V180a.988.988 0 0 1-.18.478.987.987 0 0 1-.396.322l-4.182 2.4c-.43.22-.905.333-1.388.333s-.958-.114-1.388-.333l-4.15-2.4c-.157-.07-.293-.182-.393-.323a.968.968 0 0 1-.175-.477v-1.065c.015.172.075.337.175.478s.236.252.393.323l4.154 2.4c.43.218.906.332 1.388.332s.958-.114 1.388-.332l4.178-2.4c.158-.072.295-.184.396-.325s.163-.307.18-.48zm-10.447 7.1v-1.065a.99.99 0 0 1-.577.797l-4.177 2.4c-.43.22-.907.333-1.4.333a3.034 3.034 0 0 1-1.39-.333l-4.15-2.4a.974.974 0 0 1-.393-.323.962.962 0 0 1-.175-.478v1.07c.015.17.076.336.175.477a.966.966 0 0 0 .393.323l4.15 2.4c.43.217.906.33 1.4.33s.957-.113 1.388-.33l4.18-2.4a.973.973 0 0 0 .396-.323.992.992 0 0 0 .181-.477zm-10.448 4.964v1.07c-.017.172-.08.337-.18.477s-.238.252-.396.323l-4.18 2.4c-.43.22-.906.333-1.4.333s-.958-.114-1.388-.333l-4.154-2.4c-.156-.072-.3-.184-.4-.324a.992.992 0 0 1-.178-.476v-1.07a.973.973 0 0 0 .176.478.971.971 0 0 0 .392.323l4.15 2.4c.43.218.906.332 1.388.332s.958-.114 1.4-.332l4.18-2.4a.993.993 0 0 0 .398-.322.977.977 0 0 0 .182-.48zm-10.43 7.1v-1.065c-.018.172-.082.336-.183.476s-.24.25-.397.32l-4.182 2.4c-.43.22-.905.333-1.388.333s-.958-.114-1.4-.333l-4.15-2.4c-.157-.07-.293-.183-.393-.323a.968.968 0 0 1-.175-.478v1.07c.017.17.078.335.178.475a.963.963 0 0 0 .4.325l4.153 2.4c.43.217.907.33 1.4.33s.958-.113 1.388-.33l4.182-2.4c.158-.07.294-.182.395-.323a.982.982 0 0 0 .181-.477zm-10.463 4.965v1.068a.977.977 0 0 1-.182.479.973.973 0 0 1-.399.322l-4.177 2.4c-.43.218-.906.332-1.388.332s-.96-.114-1.4-.332l-4.153-2.4a.98.98 0 0 1-.392-.324.966.966 0 0 1-.176-.477v-1.068a.956.956 0 0 0 .173.477c.1.14.234.253.4.323l4.153 2.4c.43.218.906.332 1.4.332a3.065 3.065 0 0 0 1.388-.332l4.18-2.4a.962.962 0 0 0 .398-.322.992.992 0 0 0 .183-.478zm-10.448 7.098v-1.064a.987.987 0 0 1-.18.476c-.1.14-.237.25-.395.32l-4.18 2.4c-.43.22-.906.333-1.4.333s-.958-.114-1.388-.333l-4.154-2.4c-.156-.072-.3-.183-.4-.324s-.16-.304-.178-.476v1.068c.016.172.077.336.177.477a.988.988 0 0 0 .39.324l4.154 2.4c.43.217.906.33 1.388.33s.958-.114 1.4-.33l4.177-2.4a.993.993 0 0 0 .398-.322.977.977 0 0 0 .182-.48zm-10.446 4.966v1.068c-.015.173-.077.34-.178.48a.98.98 0 0 1-.398.32l-4.178 2.4c-.43.22-.906.333-1.388.333a3.074 3.074 0 0 1-1.39-.333l-4.153-2.4a.98.98 0 0 1-.392-.324c-.1-.14-.16-.305-.176-.477v-1.068a.979.979 0 0 0 .176.477c.1.14.235.252.392.323l4.153 2.4c.43.218.906.332 1.4.332a3.065 3.065 0 0 0 1.388-.332l4.178-2.4a.984.984 0 0 0 .395-.322c.1-.14.164-.306.18-.478zm-10.448 7.118v-1.068c-.017.172-.08.338-.18.478a.967.967 0 0 1-.397.322l-4.177 2.4c-.43.22-.906.333-1.388.333s-.96-.114-1.4-.333l-4.153-2.4c-.157-.07-.292-.183-.392-.323s-.16-.305-.176-.477v1.068a.962.962 0 0 0 .175.478.974.974 0 0 0 .393.323l4.153 2.4c.43.217.906.33 1.4.33s.957-.113 1.388-.33l4.177-2.4c.16-.07.296-.182.397-.323s.163-.305.18-.478zm-10.452 4.934v1.068c-.017.173-.08.337-.18.478a.971.971 0 0 1-.396.322l-4.177 2.4a3.072 3.072 0 0 1-1.391.333c-.483 0-.96-.114-1.4-.333l-4.15-2.4a.97.97 0 0 1-.393-.322.968.968 0 0 1-.175-.478v-1.068c.015.172.076.337.175.477a.974.974 0 0 0 .393.323l4.154 2.4c.43.217.906.33 1.388.33a3.097 3.097 0 0 0 1.39-.33l4.177-2.4c.16-.07.296-.18.398-.32a.953.953 0 0 0 .178-.48zm-17.978 9.256l-4.153-2.4c-.157-.07-.292-.183-.392-.323a.979.979 0 0 1-.176-.477v1.068c.015.172.075.337.175.478a.97.97 0 0 0 .393.322l4.15 2.4a3.098 3.098 0 0 0 1.391.33c.483 0 .96-.113 1.4-.33l4.178-2.4a.976.976 0 0 0 .395-.322c.1-.14.164-.306.18-.478v-1.068a.973.973 0 0 1-.179.478c-.102.14-.24.252-.397.322l-4.178 2.4c-.43.22-.906.333-1.388.333s-.96-.114-1.4-.333zM302.8 162.713l-4.177 2.4c-.43.217-.906.33-1.388.33a3.097 3.097 0 0 1-1.39-.33l-4.153-2.4a.972.972 0 0 1-.392-.324.982.982 0 0 1-.176-.476v-1.068c.016.17.077.335.177.476a.981.981 0 0 0 .39.324l4.153 2.4c.43.217.906.33 1.4.33s.957-.113 1.388-.33l4.18-2.4a.973.973 0 0 0 .396-.323.992.992 0 0 0 .181-.477v1.064c-.017.173-.08.34-.182.48s-.24.253-.4.323zm-17.406 7.363l-4.153-2.4a.96.96 0 0 1-.385-.318 1.011 1.011 0 0 1-.18-.466v1.064c.016.172.077.336.177.477a.971.971 0 0 0 .392.323l4.153 2.4c.43.22.906.333 1.388.333s.96-.114 1.4-.333l4.177-2.4a.96.96 0 0 0 .398-.321.953.953 0 0 0 .178-.48v-1.08c-.016.173-.078.338-.18.48s-.24.25-.4.32l-4.177 2.4c-.43.218-.906.33-1.4.33a3.076 3.076 0 0 1-1.388-.33zm-14.6 3.634l4.154 2.4c.43.218.905.333 1.388.333s.958-.115 1.388-.333l4.178-2.4c.158-.07.296-.182.398-.322a1.001 1.001 0 0 0 .182-.478v1.048c-.016.172-.078.337-.18.478a.971.971 0 0 1-.396.322l-4.178 2.4c-.43.217-.906.33-1.388.33s-.958-.113-1.388-.33l-4.154-2.4c-.157-.07-.292-.182-.392-.323a.979.979 0 0 1-.176-.477V172.9c.012.174.07.343.17.487s.235.26.394.333zm-6.293 8.43l-4.153-2.4c-.16-.07-.3-.18-.404-.32a.977.977 0 0 1-.184-.481v1.07a.955.955 0 0 0 .175.477.966.966 0 0 0 .393.323l4.15 2.4c.434.222.914.338 1.4.338a3.069 3.069 0 0 0 1.4-.338l4.177-2.4c.16-.07.295-.182.396-.322s.164-.306.18-.478v-1.07a.973.973 0 0 1-.179.479.97.97 0 0 1-.398.322l-4.177 2.4c-.43.218-.906.332-1.388.332s-.958-.114-1.4-.332zm-14.613 3.633l4.153 2.4c.43.22.906.333 1.388.333s.96-.114 1.4-.333l4.177-2.4a.997.997 0 0 0 .397-.322.994.994 0 0 0 .18-.48v1.065c-.017.172-.08.337-.18.477a.988.988 0 0 1-.396.323l-4.177 2.4a3.098 3.098 0 0 1-1.391.33c-.483 0-.96-.113-1.4-.33l-4.15-2.4a.974.974 0 0 1-.393-.323c-.1-.14-.16-.306-.176-.477v-1.07a.973.973 0 0 0 .569.805zm-6.283 8.43l-4.153-2.4c-.158-.07-.294-.182-.394-.322a.964.964 0 0 1-.174-.479v1.07a.968.968 0 0 0 .175.477c.1.14.236.252.393.323l4.15 2.4c.43.22.906.333 1.4.333s.958-.114 1.388-.333l4.182-2.4a.987.987 0 0 0 .396-.322.988.988 0 0 0 .18-.478v-1.07c-.017.173-.08.337-.18.478s-.237.252-.395.323l-4.178 2.4c-.43.218-.906.332-1.388.332s-.958-.114-1.4-.332zm-14.6 3.633l4.15 2.4c.43.22.907.333 1.4.333s.96-.114 1.4-.333l4.177-2.4a.979.979 0 0 0 .396-.322c.1-.14.163-.305.18-.478v1.065a.992.992 0 0 1-.181.477c-.1.14-.238.252-.396.323l-4.18 2.4c-.43.217-.906.33-1.388.33a3.097 3.097 0 0 1-1.39-.33l-4.15-2.4c-.157-.07-.293-.183-.393-.323a.968.968 0 0 1-.175-.477v-1.07a.964.964 0 0 0 .174.48.971.971 0 0 0 .394.324zm-6.298 8.43l-4.15-2.4a.974.974 0 0 1-.396-.32c-.1-.14-.16-.306-.176-.48v1.068c.017.172.078.336.178.476s.234.253.4.325l4.154 2.4c.43.22.906.334 1.388.334s.96-.115 1.4-.334l4.18-2.4a.973.973 0 0 0 .396-.323c.1-.14.163-.305.18-.478v-1.068a.988.988 0 0 1-.18.478c-.102.14-.238.25-.396.322l-4.18 2.4c-.43.218-.906.332-1.4.332a3.065 3.065 0 0 1-1.388-.332zM208.1 209.9l4.15 2.4c.43.22.906.333 1.4.333s.958-.114 1.388-.333l4.182-2.4a.971.971 0 0 0 .396-.322.988.988 0 0 0 .18-.478v1.068c-.017.173-.08.337-.18.478s-.237.252-.395.323l-4.182 2.4c-.43.217-.906.33-1.388.33s-.958-.114-1.4-.33l-4.153-2.4a.993.993 0 0 1-.39-.325c-.1-.14-.16-.304-.178-.476V209.1a.961.961 0 0 0 .177.478c.1.14.237.252.395.322zm-6.3 8.43l-4.153-2.4c-.158-.07-.294-.18-.394-.322a.964.964 0 0 1-.174-.478v1.068c.016.172.077.336.177.476s.234.253.4.325l4.153 2.4c.43.22.906.333 1.4.333s.958-.114 1.388-.333l4.177-2.4c.16-.07.297-.18.4-.322a.977.977 0 0 0 .182-.479v-1.068c-.018.172-.08.337-.18.478a.987.987 0 0 1-.396.322l-4.18 2.4c-.43.218-.906.332-1.388.332s-.96-.114-1.4-.332zm-14.6 3.642l4.154 2.4c.43.22.906.333 1.388.333s.96-.114 1.4-.333l4.18-2.4a.979.979 0 0 0 .396-.322.988.988 0 0 0 .18-.478v1.068a.988.988 0 0 1-.182.48.993.993 0 0 1-.398.322l-4.177 2.4c-.43.217-.907.33-1.4.33s-.958-.113-1.388-.33l-4.154-2.4a.98.98 0 0 1-.392-.324.989.989 0 0 1-.176-.477v-1.068a1.001 1.001 0 0 0 .177.476c.1.14.235.252.4.324zm1.25 6.27v-1.068a.993.993 0 0 1-.179.477c-.1.14-.236.252-.393.323l-4.182 2.4c-.43.217-.906.33-1.388.33a3.097 3.097 0 0 1-1.39-.33l-4.153-2.4c-.156-.072-.3-.184-.4-.325s-.16-.304-.178-.475v1.068a.979.979 0 0 0 .176.477c.1.14.235.252.392.323l4.153 2.4c.43.22.906.333 1.4.333s.958-.114 1.388-.333l4.178-2.4a.972.972 0 0 0 .398-.32c.1-.14.163-.307.178-.48zm-17.977 9.268l-4.153-2.4c-.157-.07-.292-.183-.392-.323s-.16-.305-.176-.477v-1.068a.973.973 0 0 0 .176.477c.1.14.235.252.392.323l4.153 2.4c.43.22.906.333 1.4.333s.958-.114 1.388-.333l4.177-2.4a.986.986 0 0 0 .4-.32c.103-.14.165-.306.18-.48v1.068c-.016.173-.078.338-.18.478a.967.967 0 0 1-.397.322l-4.177 2.4c-.43.218-.907.33-1.4.33s-.96-.113-1.4-.33zM160 242.463l-4.154-2.4a.984.984 0 0 1-.391-.324.977.977 0 0 1-.177-.476v1.068c.015.172.076.337.175.478a.97.97 0 0 0 .393.322l4.154 2.4c.43.22.906.333 1.388.333s.96-.114 1.4-.333l4.177-2.4a.971.971 0 0 0 .396-.322.988.988 0 0 0 .18-.478v-1.068c-.015.173-.077.338-.178.48s-.24.25-.398.32l-4.177 2.4c-.43.217-.907.33-1.4.33s-.958-.113-1.388-.33zm153.18-73.708l-4.178 2.4c-.43.22-.905.333-1.388.333s-.958-.114-1.388-.333l-4.154-2.4c-.156-.072-.3-.184-.4-.324s-.16-.305-.177-.476v-1.068c.015.17.075.336.175.477s.236.252.393.323l4.15 2.4c.43.218.906.33 1.388.33s.958-.113 1.388-.33l4.182-2.4c.158-.07.294-.182.395-.323a.982.982 0 0 0 .181-.477v1.068a.965.965 0 0 1-.18.478.971.971 0 0 1-.396.322zm-10.45 4.965l-4.18 2.4c-.433.213-.9.322-1.392.317a3.026 3.026 0 0 1-1.385-.35l-4.153-2.4c-.157-.072-.3-.184-.4-.325a.987.987 0 0 1-.177-.475v1.068c.016.17.077.336.176.476a.98.98 0 0 0 .392.324l4.153 2.4c.43.217.906.33 1.4.33s.957-.113 1.388-.33l4.177-2.4a.962.962 0 0 0 .398-.322.992.992 0 0 0 .183-.478v-1.036a.992.992 0 0 1-.181.477c-.1.14-.238.252-.396.323zm-10.43 7.087l-4.177 2.4c-.43.22-.906.333-1.4.333s-.958-.114-1.388-.333l-4.153-2.4c-.157-.07-.293-.183-.392-.324a.977.977 0 0 1-.177-.476v-1.07c.017.172.078.336.178.476a.973.973 0 0 0 .391.325l4.153 2.4c.43.218.906.332 1.388.332s.958-.114 1.4-.332l4.18-2.4c.158-.07.294-.183.396-.323s.163-.305.18-.478v1.07a.961.961 0 0 1-.179.48.986.986 0 0 1-.4.32zm-14.64 8.435l4.178-2.4a.985.985 0 0 0 .4-.323.972.972 0 0 0 .18-.48v-1.065a.998.998 0 0 1-.182.48c-.102.142-.24.25-.398.322l-4.178 2.4c-.43.22-.905.333-1.388.333s-.958-.114-1.388-.333l-4.154-2.4a.98.98 0 0 1-.392-.324.979.979 0 0 1-.176-.477v1.07a.977.977 0 0 0 .177.476c.1.14.234.252.4.324l4.154 2.4c.43.217.906.33 1.388.33s.958-.113 1.388-.33z"/><path d="M271.4 192.87l-4.177 2.4c-.43.22-.906.333-1.388.333s-.96-.114-1.4-.333l-4.153-2.4a.966.966 0 0 1-.393-.323c-.1-.14-.16-.305-.175-.477V191a.962.962 0 0 0 .175.478.974.974 0 0 0 .393.323l4.153 2.4c.43.218.906.332 1.4.332a3.065 3.065 0 0 0 1.388-.332l4.177-2.4a.97.97 0 0 0 .398-.322.973.973 0 0 0 .179-.479v1.07c-.017.172-.08.337-.18.478s-.237.25-.396.322zm-14.625 8.436l4.177-2.4a.988.988 0 0 0 .396-.323c.1-.14.163-.305.18-.477v-1.07c-.015.173-.076.34-.178.48s-.24.25-.398.32l-4.177 2.4c-.43.22-.906.333-1.4.333s-.958-.114-1.388-.333l-4.154-2.4c-.156-.07-.292-.183-.4-.323s-.16-.305-.177-.477v1.07c.016.17.076.336.176.477s.235.252.392.323l4.15 2.4c.43.217.907.33 1.4.33a3.098 3.098 0 0 0 1.391-.33zm-6.27 3.63l-4.182 2.4c-.43.22-.905.334-1.388.334s-.958-.115-1.4-.334l-4.15-2.4c-.157-.07-.293-.182-.393-.323s-.16-.306-.175-.478v-1.068c.014.172.074.337.174.478s.236.252.394.322l4.153 2.4c.43.218.906.332 1.4.332a3.065 3.065 0 0 0 1.388-.332l4.178-2.4a.971.971 0 0 0 .396-.322c.102-.14.164-.305.18-.478v1.068c-.017.173-.08.338-.18.478s-.238.252-.396.323zm-14.63 8.435l4.18-2.4c.158-.07.295-.183.396-.323s.163-.305.18-.478v-1.07c-.017.172-.08.337-.18.478a.958.958 0 0 1-.396.322l-4.177 2.4c-.43.22-.907.333-1.4.333a3.034 3.034 0 0 1-1.39-.333l-4.15-2.4c-.158-.07-.293-.182-.393-.322a.962.962 0 0 1-.175-.478v1.068a.962.962 0 0 0 .175.478.966.966 0 0 0 .393.323l4.15 2.4c.43.217.906.33 1.4.33s.957-.114 1.388-.33zM229.6 217l-4.18 2.4c-.43.22-.906.333-1.4.333s-.958-.114-1.388-.333l-4.154-2.4c-.156-.072-.3-.183-.4-.324s-.16-.305-.174-.477v-1.068c.015.172.076.336.176.477s.235.252.392.323l4.15 2.4c.43.217.906.33 1.388.33a3.097 3.097 0 0 0 1.39-.33l4.18-2.4c.158-.07.294-.182.396-.322a.988.988 0 0 0 .18-.478v1.068c-.017.173-.08.338-.18.478s-.238.252-.396.323zm-14.63 8.433l4.182-2.4a.985.985 0 0 0 .391-.321c.1-.14.163-.3.18-.472v-1.068a.988.988 0 0 1-.18.478c-.102.14-.238.252-.396.322l-4.182 2.4c-.43.22-.906.333-1.388.333a3.074 3.074 0 0 1-1.39-.333l-4.15-2.4c-.157-.07-.293-.182-.393-.323a.968.968 0 0 1-.175-.477v1.06c.016.172.077.336.177.476s.235.253.4.325l4.153 2.4c.43.217.907.33 1.4.33s.958-.113 1.388-.33zm-6.27 3.63l-4.177 2.4c-.43.22-.906.333-1.388.333s-.96-.114-1.4-.333l-4.153-2.4a.977.977 0 0 1-.391-.324c-.1-.14-.16-.304-.177-.476v-1.068a.968.968 0 0 0 .175.477c.1.14.236.252.393.323l4.15 2.4c.43.217.906.33 1.4.33s.957-.113 1.388-.33l4.18-2.4a.973.973 0 0 0 .396-.323.992.992 0 0 0 .181-.477v1.068c-.017.173-.08.338-.18.478a.967.967 0 0 1-.397.322zm-14.607 8.435l4.177-2.4c.158-.07.295-.18.397-.32s.165-.304.183-.476v-1.068a.988.988 0 0 1-.18.478.979.979 0 0 1-.396.322l-4.18 2.4c-.43.22-.906.333-1.4.333s-.958-.114-1.388-.333l-4.154-2.4c-.156-.072-.3-.184-.4-.324a1.001 1.001 0 0 1-.177-.476v1.064a.989.989 0 0 0 .176.477c.1.14.235.252.392.323l4.154 2.4c.43.217.906.33 1.388.33a3.097 3.097 0 0 0 1.39-.33zm-6.286 3.63l-4.178 2.4c-.43.22-.906.333-1.388.333s-.96-.114-1.4-.333l-4.153-2.4c-.157-.07-.292-.183-.392-.323a.979.979 0 0 1-.176-.477v-1.068c.017.17.078.335.178.475s.234.253.4.325l4.153 2.4c.43.217.907.33 1.4.33s.958-.113 1.388-.33l4.182-2.4c.158-.07.294-.182.395-.323a.982.982 0 0 0 .181-.477v1.068a.972.972 0 0 1-.18.48c-.102.14-.24.252-.4.32zm-17.394 7.367l-4.153-2.4c-.154-.07-.287-.177-.387-.313a.955.955 0 0 1-.18-.463v1.064c.015.172.076.336.176.477s.235.252.392.323l4.157 2.38c.43.217.906.33 1.388.33a3.097 3.097 0 0 0 1.39-.33l4.177-2.4a.967.967 0 0 0 .397-.322c.1-.14.163-.305.18-.478v-1.068c-.016.173-.08.338-.18.48s-.24.25-.4.32l-4.177 2.4c-.43.22-.906.333-1.4.333s-.958-.114-1.388-.333zm141.47-74.516v-1.068a.973.973 0 0 0 .176.477.974.974 0 0 0 .393.323l4.15 2.4c.43.218.906.333 1.388.333s.96-.115 1.4-.333l4.18-2.4c.158-.07.294-.183.396-.323a.971.971 0 0 0 .18-.477v1.048c-.017.172-.08.337-.18.477a.988.988 0 0 1-.396.323l-4.18 2.4c-.43.217-.906.33-1.4.33s-.957-.113-1.388-.33l-4.153-2.4a.985.985 0 0 1-.384-.317c-.1-.136-.16-.296-.18-.463zm-10.447 4.965v1.07a.982.982 0 0 0 .176.475c.1.14.232.252.388.325l4.154 2.4c.43.22.905.333 1.388.333s.958-.114 1.388-.333l4.178-2.4a.986.986 0 0 0 .4-.32c.103-.14.164-.306.18-.48v-1.07c-.017.173-.08.337-.18.478s-.237.252-.395.323l-4.182 2.4c-.43.218-.906.332-1.388.332s-.958-.114-1.388-.332l-4.15-2.4c-.158-.07-.294-.182-.394-.322s-.16-.306-.174-.48zm-10.447 7.098v-1.07c.016.172.077.336.177.476s.234.253.4.325l4.153 2.4c.43.22.906.333 1.4.333s.958-.114 1.388-.333l4.18-2.4c.16-.07.295-.182.396-.323s.164-.305.18-.478v1.065a.992.992 0 0 1-.183.478c-.102.14-.24.252-.398.322l-4.177 2.4c-.43.217-.906.33-1.388.33a3.097 3.097 0 0 1-1.39-.33l-4.153-2.4c-.156-.07-.3-.183-.4-.322a.976.976 0 0 1-.177-.474zm-10.448 4.966v1.07a.978.978 0 0 0 .178.477c.1.14.237.252.395.323l4.153 2.4c.43.22.906.333 1.388.333s.96-.114 1.4-.333l4.177-2.4a.96.96 0 0 0 .398-.321.953.953 0 0 0 .178-.48v-1.07c-.017.173-.08.337-.18.478s-.238.252-.396.323l-4.18 2.4c-.43.218-.906.332-1.4.332a3.065 3.065 0 0 1-1.388-.332l-4.153-2.4c-.157-.072-.293-.183-.392-.324s-.16-.305-.177-.477zm-10.447 7.1v-1.07a.979.979 0 0 0 .176.477c.1.14.235.252.392.323l4.153 2.4c.43.22.906.333 1.4.333s.958-.114 1.388-.333l4.178-2.4a.969.969 0 0 0 .399-.321c.102-.14.164-.306.18-.48v1.07c-.016.172-.078.337-.18.478a.979.979 0 0 1-.396.322l-4.178 2.4c-.43.217-.906.33-1.388.33a3.097 3.097 0 0 1-1.39-.33l-4.153-2.4a.961.961 0 0 1-.394-.323.972.972 0 0 1-.178-.477zm-10.447 4.965v1.068c.015.173.076.338.177.48a.96.96 0 0 0 .395.322l4.153 2.4c.43.218.906.333 1.4.333a3.066 3.066 0 0 0 1.388-.333l4.177-2.4c.16-.07.295-.182.396-.323s.164-.305.18-.478v-1.068c-.018.173-.08.338-.183.478s-.24.252-.398.322l-4.177 2.4c-.43.217-.906.33-1.388.33a3.097 3.097 0 0 1-1.39-.33l-4.153-2.4c-.158-.07-.293-.182-.393-.322a.962.962 0 0 1-.175-.478zm-10.448 7.098V209.1c.016.172.077.336.177.477a.977.977 0 0 0 .39.323l4.154 2.4c.43.22.906.333 1.388.333s.96-.114 1.4-.333l4.177-2.4a.96.96 0 0 0 .398-.321.953.953 0 0 0 .178-.479v1.068c-.017.173-.08.337-.18.478s-.238.252-.396.323l-4.177 2.4a3.086 3.086 0 0 1-1.391.331c-.483 0-.96-.113-1.4-.33l-4.15-2.4c-.157-.07-.293-.182-.393-.323s-.16-.306-.175-.478zm-10.448 4.966v1.068c.015.172.075.337.175.478s.236.252.393.323l4.15 2.4c.43.22.906.333 1.4.333s.958-.114 1.388-.333l4.182-2.4a.988.988 0 0 0 .396-.323c.1-.14.163-.305.18-.478v-1.068c-.017.173-.08.338-.18.478a.971.971 0 0 1-.396.322l-4.178 2.4c-.43.217-.906.33-1.388.33a3.097 3.097 0 0 1-1.39-.33l-4.153-2.4a.963.963 0 0 1-.392-.323c-.1-.14-.16-.305-.176-.477zm-10.446 7.098v-1.06a.955.955 0 0 0 .175.477.958.958 0 0 0 .393.323l4.15 2.4a3.073 3.073 0 0 0 1.401.338 3.069 3.069 0 0 0 1.4-.338l4.177-2.4c.16-.07.295-.182.396-.322s.164-.306.18-.478v1.068c-.018.173-.08.337-.18.478s-.238.252-.396.323l-4.18 2.4c-.43.217-.906.33-1.388.33a3.097 3.097 0 0 1-1.39-.33l-4.15-2.4c-.162-.07-.303-.18-.407-.323a.968.968 0 0 1-.181-.486zm-10.448 4.966v1.068c.015.172.076.337.175.478a.97.97 0 0 0 .393.322l4.15 2.4c.43.22.906.333 1.388.333s.96-.114 1.4-.333l4.18-2.4a.971.971 0 0 0 .396-.322c.1-.14.163-.305.18-.478v-1.068c-.017.172-.08.337-.18.477a.988.988 0 0 1-.396.323l-4.177 2.4a3.098 3.098 0 0 1-1.391.33c-.483 0-.96-.113-1.4-.33l-4.15-2.4c-.157-.07-.292-.182-.392-.323a.979.979 0 0 1-.176-.477zm-10.45 7.098v-1.064c.015.172.075.337.175.477s.236.252.393.323l4.15 2.4c.43.22.906.333 1.4.333s.958-.114 1.388-.333l4.182-2.4c.158-.07.294-.182.396-.322a.988.988 0 0 0 .18-.478v1.068c-.017.172-.08.337-.18.478a.976.976 0 0 1-.395.322l-4.182 2.4c-.43.217-.906.33-1.388.33a3.097 3.097 0 0 1-1.39-.33l-4.153-2.4a.979.979 0 0 1-.39-.326.98.98 0 0 1-.174-.478zm-10.447 4.966v1.068c.016.17.076.335.175.475a.974.974 0 0 0 .389.325l4.153 2.4c.43.22.906.333 1.388.333s.96-.114 1.4-.333l4.18-2.4a.971.971 0 0 0 .396-.322.965.965 0 0 0 .18-.478v-1.068c-.017.172-.08.337-.18.477s-.238.252-.396.323l-4.18 2.4c-.43.217-.906.33-1.4.33s-.957-.113-1.388-.33l-4.15-2.4c-.157-.07-.293-.183-.393-.323a.968.968 0 0 1-.175-.477zM186.5 246.38v-1.064a.973.973 0 0 0 .174.476c.1.14.234.253.4.324l4.154 2.4c.43.22.906.333 1.388.333s.96-.114 1.4-.333l4.18-2.4a.987.987 0 0 0 .396-.322.988.988 0 0 0 .18-.478v1.068c-.017.173-.08.338-.182.478s-.24.252-.398.322l-4.177 2.4c-.43.217-.907.33-1.4.33s-.958-.113-1.388-.33l-4.162-2.405c-.154-.073-.287-.185-.385-.325a.993.993 0 0 1-.171-.475zm-5.72 8.147l-4.153-2.4c-.158-.074-.293-.187-.393-.33a.993.993 0 0 1-.175-.482v1.068c.015.172.076.336.176.477s.235.252.392.323l4.153 2.4c.43.218.906.332 1.4.332a3.065 3.065 0 0 0 1.388-.332l4.178-2.4a.969.969 0 0 0 .399-.321c.102-.14.164-.306.18-.48v-1.056a.982.982 0 0 1-.181.477c-.1.14-.237.252-.395.323l-4.182 2.4c-.43.217-.906.33-1.388.33a3.097 3.097 0 0 1-1.39-.33z"/></g><g opacity=".4" class="D"><path d="M288.24 158.012l4.178-2.4c.768-.44.772-1.164-.004-1.6l-4.15-2.4c-.43-.217-.906-.33-1.388-.33a3.097 3.097 0 0 0-1.39.33l-4.177 2.4c-.756.436-.76 1.16 0 1.6l4.153 2.4c.43.22.906.333 1.4.333s.958-.114 1.388-.333zm-10.448 6.034l4.177-2.4c.768-.444.772-1.164 0-1.6l-4.15-2.4c-.43-.22-.906-.333-1.4-.333s-.958.114-1.388.333l-4.18 2.4c-.757.432-.76 1.156 0 1.6l4.153 2.4c.43.217.906.33 1.388.33a3.097 3.097 0 0 0 1.39-.33zm-6.27 3.63l-4.177 2.4c-.43.22-.906.333-1.4.333s-.958-.114-1.388-.333l-4.154-2.4c-.76-.44-.756-1.164 0-1.6l4.182-2.4c.43-.217.906-.33 1.388-.33a3.097 3.097 0 0 1 1.39.33l4.15 2.4c.772.436.772 1.16 0 1.6zm-14.61 8.425l4.178-2.4c.752-.444.756-1.164 0-1.6l-4.15-2.4c-.43-.22-.906-.333-1.388-.333s-.96.114-1.4.333l-4.18 2.4c-.756.433-.76 1.157 0 1.6l4.153 2.4c.43.217.907.33 1.4.33s.958-.113 1.388-.33zm-6.286 3.643l-4.177 2.4c-.43.218-.906.33-1.4.33a3.076 3.076 0 0 1-1.388-.33l-4.153-2.4c-.76-.44-.757-1.164 0-1.6l4.18-2.4a3.077 3.077 0 0 1 1.386-.33c.482 0 .957.113 1.387.33l4.153 2.4c.768.433.764 1.157 0 1.6zm-14.624 8.43l4.177-2.4c.764-.44.768-1.165 0-1.6l-4.153-2.4c-.43-.22-.906-.333-1.4-.333s-.958.114-1.388.333l-4.178 2.4c-.756.432-.76 1.157 0 1.6l4.15 2.4c.43.22.907.333 1.4.333a3.072 3.072 0 0 0 1.391-.333zm-6.27 3.633l-4.182 2.4c-.43.217-.906.33-1.388.33s-.958-.114-1.4-.33l-4.15-2.4c-.76-.44-.756-1.165 0-1.6l4.177-2.4c.43-.217.906-.33 1.4-.33a3.076 3.076 0 0 1 1.388.33l4.154 2.4c.768.432.764 1.157 0 1.6zm-14.63 8.43l4.18-2.4c.764-.44.768-1.165 0-1.6l-4.153-2.4c-.43-.218-.906-.333-1.4-.333a3.066 3.066 0 0 0-1.388.333l-4.177 2.4c-.76.432-.765 1.157 0 1.6l4.15 2.4c.43.22.906.333 1.388.333s.96-.114 1.4-.333zm-6.266 3.633l-4.182 2.4c-.43.218-.906.332-1.388.332s-.958-.114-1.388-.332l-4.154-2.4c-.76-.44-.756-1.165 0-1.6l4.178-2.4c.43-.22.905-.333 1.388-.333s.958.114 1.388.333l4.154 2.4c.772.432.768 1.156.004 1.6zM194.2 212.3l4.18-2.4c.765-.44.77-1.165-.004-1.6l-4.153-2.4c-.43-.217-.906-.33-1.388-.33a3.097 3.097 0 0 0-1.39.33l-4.177 2.4c-.756.436-.76 1.156 0 1.6l4.153 2.4c.43.22.906.333 1.4.333s.958-.114 1.388-.333zm-6.27 3.634l-4.177 2.4c-.43.218-.906.332-1.4.332a3.065 3.065 0 0 1-1.388-.332l-4.153-2.4c-.76-.44-.757-1.164 0-1.6l4.177-2.4c.43-.22.906-.333 1.388-.333s.96.114 1.4.333l4.15 2.4c.776.436.772 1.156.004 1.6zm-14.626 8.44l4.178-2.4c.772-.448.772-1.172 0-1.6l-4.15-2.4c-.43-.217-.906-.33-1.388-.33s-.958.113-1.388.33l-4.182 2.4c-.756.436-.76 1.156 0 1.6l4.154 2.4c.43.22.905.333 1.388.333s.958-.114 1.388-.333zm-6.254 3.625l-4.177 2.4c-.43.217-.906.33-1.388.33a3.097 3.097 0 0 1-1.39-.33l-4.153-2.4c-.76-.44-.756-1.164 0-1.6l4.18-2.4c.43-.22.906-.333 1.4-.333s.958.114 1.388.333l4.15 2.377c.757.456.753 1.2 0 1.624zm-17.38 2.022l-4.18 2.4c-.765.444-.77 1.156 0 1.6l4.153 2.4c.43.22.906.333 1.388.333s.96-.114 1.4-.333l4.177-2.4c.76-.432.764-1.156 0-1.6l-4.15-2.4c-.43-.217-.906-.33-1.4-.33s-.957.113-1.388.33zm153.12-68.375l-4.18 2.4c-.43.217-.907.33-1.4.33s-.958-.113-1.388-.33l-4.154-2.4c-.76-.444-.756-1.168 0-1.6l4.178-2.4c.43-.22.906-.333 1.388-.333a3.074 3.074 0 0 1 1.39.333l4.153 2.4c.772.436.768 1.156.004 1.6zm-17.37 2.02l-4.177 2.4c-.768.444-.772 1.168-.004 1.6l4.153 2.4c.43.218.906.33 1.4.33a3.076 3.076 0 0 0 1.388-.33l4.178-2.4c.76-.432.764-1.156 0-1.6l-4.15-2.4c-.43-.217-.906-.33-1.388-.33a3.097 3.097 0 0 0-1.39.33zm-14.628 8.434l4.18-2.4c.43-.22.906-.333 1.388-.333s.96.114 1.4.333l4.15 2.4c.764.445.76 1.17 0 1.6l-4.177 2.4c-.43.22-.906.333-1.4.333s-.958-.114-1.388-.333l-4.153-2.4c-.77-.436-.765-1.16 0-1.6zm-6.266 3.63l-4.182 2.4c-.764.445-.768 1.17 0 1.6l4.154 2.4c.43.218.906.33 1.388.33a3.097 3.097 0 0 0 1.39-.33l4.177-2.4c.76-.432.764-1.156 0-1.6l-4.15-2.4c-.43-.217-.907-.33-1.4-.33s-.958.114-1.388.33zm-14.65 8.434l4.18-2.4c.43-.22.906-.333 1.4-.333s.958.114 1.388.333l4.15 2.4c.764.444.76 1.17 0 1.6l-4.178 2.4c-.43.22-.906.333-1.388.333s-.96-.114-1.4-.333l-4.153-2.4c-.748-.436-.744-1.16 0-1.6zm-6.247 3.633l-4.18 2.4c-.777.44-.777 1.165 0 1.6l4.153 2.4c.43.218.906.33 1.388.33a3.097 3.097 0 0 0 1.39-.33l4.177-2.4c.756-.436.76-1.16 0-1.6l-4.153-2.4c-.43-.217-.905-.33-1.387-.33a3.077 3.077 0 0 0-1.386.33zm-14.628 8.43l4.178-2.4c.43-.217.906-.33 1.388-.33s.958.113 1.388.33l4.154 2.4c.76.444.756 1.17 0 1.6l-4.178 2.4c-.43.22-.907.334-1.4.334s-.96-.115-1.4-.334l-4.15-2.4c-.768-.436-.764-1.157 0-1.6zm-6.27 3.632l-4.177 2.4c-.764.44-.768 1.164 0 1.6l4.15 2.4c.43.218.906.332 1.4.332a3.065 3.065 0 0 0 1.388-.332l4.18-2.4c.757-.437.76-1.16 0-1.6l-4.153-2.4c-.43-.22-.906-.333-1.388-.333s-.96.114-1.4.333zm-14.624 8.432l4.177-2.4c.43-.217.906-.33 1.388-.33a3.097 3.097 0 0 1 1.39.33l4.153 2.4c.76.444.756 1.168 0 1.6l-4.18 2.4c-.43.22-.906.333-1.4.333s-.958-.114-1.388-.333l-4.15-2.4c-.773-.437-.77-1.157 0-1.6zm-6.27 3.633l-4.178 2.4c-.768.444-.772 1.164-.004 1.6l4.154 2.4c.43.218.906.332 1.388.332s.958-.114 1.388-.332l4.182-2.4c.756-.436.76-1.16 0-1.6l-4.154-2.4c-.43-.22-.905-.333-1.388-.333s-.958.114-1.388.333zm-14.625 8.447l4.177-2.4c.43-.217.906-.33 1.4-.33s.957.113 1.388.33l4.153 2.4c.76.444.757 1.168 0 1.6l-4.18 2.4c-.43.22-.906.333-1.388.333s-.96-.114-1.4-.333l-4.153-2.4c-.768-.452-.764-1.172.004-1.6zm-3.537 10.028l4.18-2.4c.772-.424.776-1.168 0-1.624L183.71 224c-.43-.22-.906-.333-1.4-.333s-.958.114-1.388.333l-4.177 2.4c-.757.432-.76 1.156 0 1.6l4.153 2.4c.43.217.906.33 1.388.33a3.097 3.097 0 0 0 1.39-.33zm-13.216 6.04l-4.154-2.4c-.76-.44-.756-1.164 0-1.6l4.182-2.4c.43-.217.906-.33 1.388-.33s.958.113 1.388.33l4.15 2.4c.764.444.76 1.168 0 1.6l-4.178 2.4c-.43.22-.905.333-1.388.333s-.958-.114-1.388-.333zm-10.432-.387l-4.18 2.4c-.744.44-.748 1.164 0 1.6l4.153 2.4c.43.217.906.33 1.4.33s.957-.113 1.388-.33l4.177-2.4c.76-.436.765-1.16 0-1.6l-4.15-2.4c-.43-.22-.906-.333-1.388-.333s-.96.114-1.4.333zM313.18 167.68l-4.18 2.4c-.43.218-.906.33-1.4.33a3.076 3.076 0 0 1-1.388-.33l-4.15-2.4c-.765-.44-.76-1.164 0-1.6l4.177-2.4c.43-.217.906-.33 1.388-.33a3.097 3.097 0 0 1 1.39.33l4.153 2.4c.768.432.764 1.156 0 1.6zm-10.44 4.408l-4.153-2.4a3.06 3.06 0 0 0-1.391-.334c-.483 0-.96.114-1.4.334l-4.178 2.4c-.756.433-.76 1.157 0 1.6l4.154 2.4c.43.22.906.333 1.388.333a3.074 3.074 0 0 0 1.39-.333l4.18-2.4c.756-.432.76-1.156 0-1.6zm-10.44 7.655l-4.182 2.4c-.43.218-.906.33-1.388.33a3.097 3.097 0 0 1-1.39-.33l-4.153-2.4c-.76-.44-.756-1.164 0-1.6l4.177-2.4c.43-.217.907-.33 1.4-.33s.958.113 1.388.33l4.154 2.4c.756.433.752 1.157.004 1.6zm-14.644 8.43l4.177-2.4c.768-.44.772-1.165 0-1.6l-4.15-2.4c-.43-.218-.906-.332-1.4-.332a3.065 3.065 0 0 0-1.388.332l-4.18 2.4c-.757.436-.76 1.157 0 1.6l4.153 2.4c.43.22.906.333 1.388.333s.96-.114 1.4-.333zm-6.27 3.633l-4.177 2.4c-.43.217-.907.33-1.4.33s-.958-.114-1.388-.33l-4.154-2.4c-.76-.44-.756-1.165 0-1.6l4.182-2.4c.43-.218.905-.333 1.388-.333s.958.115 1.4.333l4.15 2.4c.772.432.768 1.157 0 1.6zm-14.626 8.43l4.177-2.4c.77-.44.773-1.165 0-1.6l-4.15-2.4c-.43-.217-.906-.33-1.388-.33a3.097 3.097 0 0 0-1.39.33l-4.18 2.4c-.756.436-.76 1.157 0 1.6l4.153 2.4c.43.22.906.333 1.4.333s.958-.114 1.388-.333zm-6.27 3.633l-4.177 2.4c-.43.218-.906.332-1.4.332a3.065 3.065 0 0 1-1.388-.332l-4.153-2.4c-.76-.44-.757-1.165 0-1.6l4.18-2.4a3.048 3.048 0 0 1 1.386-.333c.482 0 .957.114 1.387.333l4.153 2.4c.772.432.768 1.156 0 1.6zm-14.624 8.43l4.178-2.4c.764-.44.768-1.165 0-1.6l-4.154-2.4a3.071 3.071 0 0 0-1.386-.33 3.074 3.074 0 0 0-1.386.33l-4.182 2.4c-.756.436-.76 1.156 0 1.6l4.15 2.4c.43.22.907.333 1.4.333s.96-.114 1.4-.333zm-6.27 3.634l-4.18 2.4c-.43.217-.906.33-1.388.33a3.097 3.097 0 0 1-1.39-.33l-4.15-2.4c-.76-.444-.756-1.168 0-1.6l4.177-2.4c.43-.22.906-.333 1.4-.333s.958.114 1.388.333l4.153 2.4c.77.436.765 1.156 0 1.6zm-14.628 8.44l4.18-2.4c.764-.448.768-1.172 0-1.6l-4.153-2.4c-.43-.217-.906-.33-1.4-.33s-.957.113-1.388.33l-4.177 2.4c-.76.436-.765 1.16 0 1.6l4.15 2.4c.43.22.906.333 1.388.333s.96-.114 1.4-.333zm-6.266 3.625l-4.182 2.4c-.43.217-.906.33-1.388.33s-.958-.113-1.388-.33l-4.15-2.4c-.764-.444-.76-1.168 0-1.6l4.178-2.4c.43-.22.905-.333 1.388-.333s.958.114 1.388.333l4.154 2.4c.772.432.772 1.176 0 1.6zM194.1 236.43l4.18-2.4c.75-.452.753-1.164-.004-1.6l-4.153-2.4c-.43-.217-.906-.33-1.388-.33a3.097 3.097 0 0 0-1.39.33l-4.177 2.4c-.756.436-.76 1.16 0 1.6l4.153 2.4c.43.22.906.333 1.4.333s.958-.114 1.388-.333zm-6.283 3.632l-4.18 2.4c-.43.217-.906.33-1.4.33a3.076 3.076 0 0 1-1.388-.33l-4.153-2.4c-.76-.444-.757-1.168 0-1.6l4.177-2.4c.43-.22.906-.333 1.388-.333s.96.114 1.4.333l4.153 2.4c.772.432.768 1.156.004 1.6zm-17.365 2.02l-4.182 2.4c-.768.444-.772 1.168 0 1.6l4.154 2.4c.43.22.905.333 1.388.333s.958-.114 1.388-.333l4.178-2.4c.76-.432.764-1.156 0-1.6l-4.15-2.4c-.43-.217-.906-.33-1.388-.33s-.958.113-1.388.33zM312.46 172.1l4.177-2.4c.43-.22.906-.333 1.4-.333s.958.114 1.388.333l4.154 2.4c.76.445.756 1.17 0 1.6l-4.182 2.4c-.43.22-.906.333-1.388.333s-.96-.114-1.4-.333l-4.15-2.4c-.772-.436-.768-1.16 0-1.6zm-6.27 3.634l-4.177 2.4c-.77.44-.773 1.165 0 1.6l4.15 2.4c.43.218.906.33 1.388.33a3.097 3.097 0 0 0 1.39-.33l4.18-2.4c.756-.436.76-1.16 0-1.6l-4.153-2.4c-.43-.22-.906-.333-1.4-.333s-.958.114-1.388.333zm-14.626 8.43l4.178-2.4c.43-.217.906-.33 1.388-.33s.958.114 1.4.33l4.153 2.4c.76.444.756 1.17 0 1.6l-4.18 2.4c-.43.22-.906.333-1.4.333s-.958-.114-1.388-.333l-4.154-2.4c-.768-.436-.764-1.157.004-1.6zm-6.3 3.633l-4.177 2.4c-.748.44-.752 1.165-.004 1.6l4.153 2.4c.43.218.906.33 1.4.33a3.076 3.076 0 0 0 1.388-.33l4.182-2.4c.756-.436.76-1.16 0-1.6l-4.154-2.4c-.43-.218-.906-.333-1.388-.333s-.96.115-1.4.333zm-14.608 8.43l4.18-2.4c.43-.217.906-.33 1.388-.33a3.097 3.097 0 0 1 1.39.33l4.15 2.4c.764.444.76 1.17 0 1.6l-4.177 2.4c-.43.22-.906.333-1.4.333s-.958-.114-1.388-.333l-4.153-2.4c-.773-.436-.773-1.157 0-1.6zm-6.266 3.632l-4.182 2.4c-.764.44-.768 1.164 0 1.6l4.154 2.4c.43.217.906.33 1.388.33s.958-.113 1.388-.33l4.178-2.4c.76-.437.764-1.16 0-1.6l-4.15-2.4c-.43-.22-.905-.333-1.388-.333s-.958.114-1.388.333zm-14.63 8.432l4.18-2.4c.43-.217.906-.33 1.4-.33a3.076 3.076 0 0 1 1.388.33l4.15 2.4c.765.444.76 1.168 0 1.6l-4.177 2.4c-.43.22-.906.333-1.388.333s-.96-.114-1.4-.333l-4.153-2.4c-.768-.433-.764-1.157 0-1.6zm-6.265 3.633l-4.18 2.4c-.765.444-.77 1.164 0 1.6l4.153 2.4c.43.217.906.33 1.388.33a3.097 3.097 0 0 0 1.39-.33l4.177-2.4c.76-.436.764-1.16 0-1.6l-4.153-2.4c-.43-.22-.905-.333-1.387-.333a3.048 3.048 0 0 0-1.386.333zm-14.63 8.447l4.182-2.4a3.074 3.074 0 0 1 1.386-.33 3.071 3.071 0 0 1 1.386.33l4.154 2.4c.76.444.756 1.168 0 1.6l-4.178 2.4a3.069 3.069 0 0 1-2.8 0l-4.15-2.4c-.748-.448-.744-1.172.02-1.6zm-6.27 3.6l-4.177 2.4c-.764.456-.768 1.2 0 1.6l4.15 2.4a3.098 3.098 0 0 0 1.391.33c.483 0 .96-.113 1.4-.33l4.177-2.4c.757-.436.76-1.16 0-1.6l-4.153-2.4c-.43-.22-.906-.333-1.388-.333s-.96.114-1.4.333zm-14.624 8.447l4.177-2.4c.43-.217.906-.33 1.388-.33a3.097 3.097 0 0 1 1.39.33l4.153 2.4c.76.444.756 1.168 0 1.6l-4.18 2.4c-.43.22-.906.333-1.4.333s-.958-.114-1.388-.333l-4.15-2.4c-.77-.444-.765-1.156 0-1.6zm-6.27 3.633l-4.178 2.4c-.768.44-.772 1.164 0 1.6l4.15 2.4c.43.217.906.33 1.388.33s.958-.113 1.388-.33l4.182-2.4c.756-.436.76-1.16 0-1.6l-4.154-2.4c-.43-.22-.905-.333-1.388-.333s-.958.114-1.388.333zm-14.645 8.43l4.177-2.4c.43-.217.906-.33 1.4-.33s.957.113 1.388.33l4.153 2.4c.76.444.757 1.168 0 1.6l-4.18 2.4c-.43.22-.906.333-1.388.333s-.96-.114-1.4-.333l-4.153-2.4c-.748-.432-.744-1.156.004-1.6zm-6.25 3.633l-4.178 2.4c-.776.44-.776 1.164-.004 1.6l4.154 2.4c.43.217.906.33 1.388.33a3.097 3.097 0 0 0 1.39-.33l4.18-2.4c.756-.436.76-1.16 0-1.6l-4.153-2.4c-.43-.22-.906-.333-1.4-.333s-.958.114-1.388.333z"/></g><g fill="#5f57dc"><path d="M262.84 104.38a2.413 2.413 0 0 0-1.248-.208 2.421 2.421 0 0 0-1.183.452l-117.75 67.98c-.993.643-1.818 1.512-2.4 2.537s-.932 2.174-.994 3.355a2.383 2.383 0 0 0 .2 1.232c.175.386.45.718.794.963l2.017 1.173c-.346-.245-.62-.578-.795-.963s-.243-.8-.2-1.233a7.508 7.508 0 0 1 .994-3.357 7.507 7.507 0 0 1 2.41-2.542l117.75-67.98c.348-.25.757-.404 1.184-.445a2.42 2.42 0 0 1 1.247.209l-2.017-1.173zm-122.632 59.845l2 1.173a2.401 2.401 0 0 1-.79-.96 2.408 2.408 0 0 1-.203-1.227 7.511 7.511 0 0 1 .997-3.36 7.513 7.513 0 0 1 2.413-2.541l93.195-53.808a2.417 2.417 0 0 1 1.186-.451c.428-.043.86.03 1.252.208l-2.017-1.173a2.413 2.413 0 0 0-1.248-.208 2.41 2.41 0 0 0-1.183.451l-93.2 53.8c-.994.644-1.82 1.515-2.413 2.54s-.935 2.176-.998 3.36c-.042.42.028.845.204 1.23a2.385 2.385 0 0 0 .797.958zm-.05-16.49l2.017 1.172c-.346-.245-.62-.577-.794-.963s-.244-.8-.2-1.232c.062-1.182.403-2.332.994-3.358a7.473 7.473 0 0 1 2.41-2.54l76.14-43.955c.347-.2538.756-.4096 1.184-.45a2.393 2.393 0 0 1 1.247.2152l-2.016-1.1727a2.395 2.395 0 0 0-2.431.2359l-76.14 43.9908c-.993.643-1.818 1.513-2.4 2.537s-.932 2.174-.994 3.355a2.387 2.387 0 0 0 .208 1.216 2.38 2.38 0 0 0 .786.95zm-.05-16.446l2.016 1.173c-.342-.246-.614-.577-.8-.96s-.245-.807-.204-1.227c.06-1.184.402-2.337.995-3.363s1.42-1.9 2.415-2.544l102.906-59.41c.347-.253.755-.4087 1.183-.4514s.858.03 1.248.2083l-2.016-1.1727a2.42 2.42 0 0 0-1.25-.2083 2.415 2.415 0 0 0-1.182.4514L142.532 123.2a7.497 7.497 0 0 0-2.415 2.54c-.593 1.025-.934 2.176-.996 3.36a2.392 2.392 0 0 0 .202 1.223c.173.383.444.713.785.958z"/></g><g class="B"><path d="M247.468 72.8184L144.563 132.233c-1.888 1.087-3.425.214-3.432-1.952.06-1.184.402-2.337.995-3.363s1.42-1.9 2.416-2.544l102.904-59.407c1.888-1.094 3.433-.193 3.433 1.9522-.066 1.182-.408 2.3322-1 3.357s-1.418 1.8958-2.4 2.542zM144.606 148.7l76.14-43.962a7.485 7.485 0 0 0 2.411-2.54c.592-1.026.932-2.177.993-3.3592 0-2.1452-1.538-3.04-3.426-1.952l-76.14 43.9553c-.993.645-1.818 1.516-2.4 2.54a7.512 7.512 0 0 0-.994 3.358c.007 2.174 1.537 3.046 3.425 1.96zm93.274-37.347l-93.202 53.8c-1.9 1.087-3.446.214-3.453-1.952a7.511 7.511 0 0 1 .997-3.36 7.522 7.522 0 0 1 2.413-2.541l93.216-53.808c1.895-1.094 3.432-.193 3.432 1.952a7.512 7.512 0 0 1-.994 3.358c-.592 1.025-1.417 1.896-2.4 2.54zm-93.203 62.417l117.75-67.98c1.888-1.087 3.42-.243 3.426 1.952a7.518 7.518 0 0 1-.993 3.362 7.51 7.51 0 0 1-2.411 2.545L144.7 181.63c-1.888 1.087-3.426.186-3.426-1.96a7.509 7.509 0 0 1 .995-3.357 7.504 7.504 0 0 1 2.409-2.542z"/></g><path d="M483.998 212.58l167.12 96.487a12.608 12.608 0 0 0 6.302 1.689 12.605 12.605 0 0 0 6.302-1.689l109.03-62.948c1.915-1.107 3.506-2.698 4.612-4.614s1.69-4.09 1.7-6.302V109.308c-.001-2.213-.584-4.386-1.7-6.302s-2.697-3.507-4.612-4.6138L605.67 1.9297C603.766.834 601.61.255 599.413.25s-4.356.5645-6.264 1.6517l-4.205 2.4007 176.65 98.2225c1.917 1.106 3.508 2.697 4.614 4.614s1.69 4.09 1.688 6.302v124.907l-108.174 62.448a12.595 12.595 0 0 1-6.302 1.689c-2.212 0-4.386-.582-6.302-1.69L477.72 197.04v4.626a12.603 12.603 0 0 0 1.679 6.297c1.102 1.916 2.688 3.51 4.6 4.618z" fill="#544dc4"/><path d="M585.874 9.676v121.27l186.023 107.402V113.44a12.604 12.604 0 0 0-1.688-6.302 12.597 12.597 0 0 0-4.614-4.614L595.325 4.2184c-.958-.5526-2.044-.8434-3.15-.8432s-2.193.2916-3.15.8446-1.753 1.3484-2.306 2.3062-.845 2.0442-.845 3.15z" class="H"/><path d="M593.028 14.6457V124.488c-.001.707.183 1.4.534 2.014a4.033 4.033 0 0 0 1.467 1.479l166.69 96.23c.306.182.655.28 1.01.282s.706-.1 1.014-.27.564-.435.74-.745a2.012 2.012 0 0 0 .26-1.017V112.62a4.029 4.029 0 0 0-.534-2.013 4.035 4.035 0 0 0-1.467-1.477l-166.69-96.23c-.305-.1822-.654-.2796-1-.2822a2.005 2.005 0 0 0-1.014.2676 2.001 2.001 0 0 0-.739.7436c-.176.3093-.266.6598-.262 1.0156z" fill="#282466"/><path d="M480.85 191.586l105.025-60.64 186.023 107.4-108.174 62.448c-1.916 1.107-4.1 1.69-6.302 1.69a12.595 12.595 0 0 1-6.302-1.689l-170.27-98.3a6.297 6.297 0 0 1-2.307-2.305c-.553-.958-.844-2.045-.844-3.15a6.3 6.3 0 0 1 .844-3.15c.553-.958 1.35-1.753 2.307-2.305z" class="B"/><path opacity=".4" d="M544.837 224.772c-3.05 1.76-3.05 4.64 0 6.402l53.32 30.782c3.05 1.76 8.038 1.76 11.087 0l31.826-18.378c3.05-1.76 3.05-4.642 0-6.402l-53.316-30.782c-3.05-1.76-8.04-1.76-11.088 0l-31.83 18.378z" class="D"/><g opacity=".8" class="D"><path d="M591.812 159.08l-4.178-2.4c-.158-.07-.296-.18-.398-.32a.97.97 0 0 1-.182-.477v-1.068a.988.988 0 0 0 .182.48c.102.142.24.252.398.32l4.178 2.4c.43.22.906.333 1.388.333s.96-.114 1.4-.333l4.153-2.4c.157-.07.292-.183.392-.323a.979.979 0 0 0 .176-.477v1.064a.979.979 0 0 1-.176.477.98.98 0 0 1-.392.324l-4.153 2.4c-.43.22-.906.333-1.4.333s-.958-.114-1.388-.333zm5.694 2.82v-1.064c.017.17.08.335.18.475s.237.25.395.32l4.177 2.4c.43.217.906.33 1.388.33a3.097 3.097 0 0 0 1.39-.33l4.153-2.4c.157-.07.292-.183.392-.323s.16-.305.176-.477v1.068c-.014.172-.074.338-.174.478s-.236.253-.394.322l-4.153 2.4c-.43.217-.906.33-1.4.33s-.957-.113-1.388-.33l-4.177-2.4a.979.979 0 0 1-.396-.322.988.988 0 0 1-.18-.478zm10.45 4.966v1.088c.017.173.08.337.18.478a.971.971 0 0 0 .396.322l4.177 2.4a3.072 3.072 0 0 0 1.391.333c.483 0 .96-.114 1.4-.333l4.15-2.4a.97.97 0 0 0 .393-.322.968.968 0 0 0 .175-.478V166.9a.977.977 0 0 1-.177.476.969.969 0 0 1-.391.324l-4.154 2.4c-.43.22-.906.333-1.388.333s-.96-.114-1.4-.333l-4.177-2.4a.966.966 0 0 1-.404-.331c-.102-.145-.16-.316-.172-.493zm10.447 7.1V172.9c.02.17.08.333.183.47s.237.248.393.317l4.178 2.4c.43.217.906.33 1.388.33a3.097 3.097 0 0 0 1.39-.33l4.153-2.4c.157-.07.293-.182.393-.323a.968.968 0 0 0 .175-.477v1.068c-.015.172-.076.336-.176.477s-.235.252-.392.323l-4.15 2.4c-.43.217-.906.33-1.388.33s-.958-.113-1.388-.33l-4.182-2.4c-.158-.07-.294-.182-.395-.323a.982.982 0 0 1-.181-.477zm10.446 4.974v1.068c.017.172.08.337.18.478a.958.958 0 0 0 .396.322l4.18 2.4c.43.22.906.333 1.388.333s.96-.114 1.4-.333l4.15-2.4a.958.958 0 0 0 .393-.323c.1-.14.16-.305.175-.477v-1.064a.968.968 0 0 1-.175.477.966.966 0 0 1-.393.323l-4.153 2.4c-.43.218-.906.33-1.4.33a3.076 3.076 0 0 1-1.388-.33l-4.177-2.4a.96.96 0 0 1-.397-.325.988.988 0 0 1-.18-.479zm10.45 7.098v-1.065c.018.172.08.336.18.476a.997.997 0 0 0 .395.321l4.177 2.4c.43.22.907.334 1.4.334s.96-.115 1.4-.334l4.15-2.4a.966.966 0 0 0 .393-.323.973.973 0 0 0 .176-.478v1.07a.979.979 0 0 1-.176.477.966.966 0 0 1-.393.323l-4.15 2.4c-.43.217-.906.33-1.388.33a3.097 3.097 0 0 1-1.39-.33l-4.18-2.4a.988.988 0 0 1-.396-.323c-.1-.14-.163-.305-.18-.477zm10.446 4.965v1.07a.988.988 0 0 0 .18.478.987.987 0 0 0 .396.322l4.182 2.4c.43.22.905.333 1.388.333s.958-.114 1.388-.333l4.154-2.4c.156-.072.3-.184.4-.324a1.001 1.001 0 0 0 .177-.476v-1.07c-.015.172-.075.337-.175.478s-.236.252-.393.323l-4.15 2.4c-.43.218-.906.332-1.388.332s-.958-.114-1.388-.332l-4.182-2.4c-.158-.07-.296-.182-.398-.322s-.164-.306-.182-.48zm10.43 7.1v-1.065c.02.172.082.336.184.476s.238.25.396.32l4.182 2.4c.43.22.906.333 1.388.333s.96-.114 1.4-.333l4.15-2.4c.157-.07.293-.183.393-.323a.968.968 0 0 0 .175-.478v1.07c-.017.17-.078.335-.178.475s-.234.253-.4.325l-4.153 2.4c-.43.217-.907.33-1.4.33s-.958-.113-1.388-.33l-4.182-2.4a.985.985 0 0 1-.395-.323.982.982 0 0 1-.181-.477zm10.463 4.965v1.07c.016.172.08.338.18.478s.24.252.4.322l4.177 2.4c.43.218.906.333 1.4.333a3.066 3.066 0 0 0 1.388-.333l4.153-2.4a.98.98 0 0 0 .392-.324.966.966 0 0 0 .176-.476v-1.07a.964.964 0 0 1-.172.477c-.1.14-.235.253-.392.323l-4.153 2.4c-.43.218-.906.332-1.388.332s-.96-.114-1.4-.332l-4.18-2.4a.962.962 0 0 1-.398-.322c-.102-.142-.165-.305-.182-.478zm10.448 7.098v-1.064a.987.987 0 0 0 .18.476c.1.14.237.25.395.32l4.18 2.4c.43.22.906.333 1.4.333s.958-.114 1.388-.333l4.154-2.4a.984.984 0 0 0 .391-.324c.1-.14.16-.304.177-.476v1.068c-.016.172-.077.336-.177.477a.988.988 0 0 1-.39.324l-4.154 2.4c-.43.217-.906.33-1.388.33s-.958-.114-1.4-.33l-4.177-2.4a.993.993 0 0 1-.398-.322.977.977 0 0 1-.182-.48zm10.447 4.965v1.068c.015.173.077.34.178.48a.98.98 0 0 0 .398.32l4.178 2.4c.43.22.906.333 1.388.333a3.074 3.074 0 0 0 1.39-.333l4.153-2.4a.98.98 0 0 0 .392-.324c.1-.14.16-.305.176-.477v-1.068a.979.979 0 0 1-.176.477c-.1.14-.235.252-.392.323l-4.153 2.4c-.43.218-.906.332-1.4.332a3.065 3.065 0 0 1-1.388-.332l-4.178-2.4c-.158-.07-.294-.182-.395-.323a.982.982 0 0 1-.181-.477zm10.447 7.12v-1.068a.988.988 0 0 0 .18.478.967.967 0 0 0 .397.322l4.177 2.4c.43.22.906.333 1.388.333s.96-.114 1.4-.333l4.153-2.4c.157-.07.292-.183.392-.323s.16-.305.176-.477v1.068a.962.962 0 0 1-.175.478c-.1.14-.235.252-.393.322l-4.153 2.4c-.43.217-.906.33-1.4.33s-.957-.113-1.388-.33l-4.177-2.4a.967.967 0 0 1-.397-.322c-.1-.14-.163-.305-.18-.478zm10.452 4.933v1.068c.017.173.08.337.18.478a.971.971 0 0 0 .396.322l4.177 2.4c.43.22.907.333 1.4.333s.96-.114 1.4-.333l4.15-2.4a.957.957 0 0 0 .393-.322.973.973 0 0 0 .176-.478v-1.068a.966.966 0 0 1-.176.477.974.974 0 0 1-.393.323l-4.153 2.4c-.43.217-.906.33-1.388.33a3.097 3.097 0 0 1-1.39-.33l-4.177-2.4c-.16-.07-.296-.18-.398-.32a.953.953 0 0 1-.178-.48zm17.976 9.255l4.154-2.4a.972.972 0 0 0 .392-.324c.1-.14.16-.305.176-.476v1.068c-.015.172-.075.337-.175.478a.97.97 0 0 1-.393.322l-4.15 2.4c-.43.217-.907.33-1.4.33s-.96-.113-1.4-.33l-4.178-2.4a.984.984 0 0 1-.395-.322c-.1-.14-.164-.306-.18-.478v-1.068a.973.973 0 0 0 .179.478c.102.14.24.252.397.322l4.178 2.4c.43.22.905.333 1.388.333s.958-.114 1.388-.333zm-153.155-73.716l4.177 2.4c.43.217.907.33 1.4.33s.958-.113 1.388-.33l4.154-2.4c.156-.07.3-.183.4-.323s.16-.305.177-.477v-1.068a1.001 1.001 0 0 1-.177.476c-.1.14-.235.252-.4.324l-4.154 2.4c-.43.217-.906.33-1.388.33a3.097 3.097 0 0 1-1.39-.33l-4.18-2.4c-.158-.07-.294-.182-.395-.323s-.164-.305-.18-.477v1.064a.994.994 0 0 0 .18.48.982.982 0 0 0 .399.323zm17.405 7.363l4.153-2.4c.153-.07.286-.18.385-.318s.16-.298.18-.466v1.064a.979.979 0 0 1-.176.477c-.1.14-.235.252-.392.323l-4.153 2.4c-.43.22-.906.333-1.4.333s-.958-.114-1.388-.333l-4.178-2.4c-.16-.07-.296-.18-.398-.32a.953.953 0 0 1-.178-.48v-1.08c.017.173.08.338.18.48a.969.969 0 0 0 .399.321l4.178 2.4c.43.218.906.33 1.388.33a3.097 3.097 0 0 0 1.39-.33zm14.6 3.633l-4.153 2.4c-.43.22-.906.333-1.4.333s-.958-.114-1.388-.333l-4.177-2.4c-.16-.07-.296-.182-.398-.322a.981.981 0 0 1-.182-.478v1.048c.016.173.078.338.18.478a.967.967 0 0 0 .397.322l4.177 2.4c.43.217.906.33 1.388.33a3.097 3.097 0 0 0 1.39-.33l4.153-2.4c.157-.07.293-.182.393-.323a.968.968 0 0 0 .175-.477v-1.068a.97.97 0 0 1-.169.487.989.989 0 0 1-.395.333zm6.295 8.432l4.154-2.4c.16-.07.3-.18.403-.32s.167-.307.185-.48v1.068c-.015.172-.076.337-.175.477a.966.966 0 0 1-.393.323l-4.15 2.4a3.069 3.069 0 0 1-2.8 0l-4.177-2.4a.979.979 0 0 1-.396-.322.988.988 0 0 1-.18-.478v-1.068c.015.172.077.338.178.48s.24.25.398.32l4.177 2.4c.43.218.906.33 1.4.33a3.076 3.076 0 0 0 1.388-.33zm14.613 3.632l-4.153 2.4c-.43.22-.906.333-1.4.333s-.958-.114-1.388-.333l-4.178-2.4a.987.987 0 0 1-.396-.322.988.988 0 0 1-.18-.479v1.065a.982.982 0 0 0 .181.477c.1.14.237.252.395.323l4.178 2.4c.43.217.907.33 1.4.33a3.098 3.098 0 0 0 1.391-.33l4.15-2.4c.157-.07.292-.182.392-.323a.979.979 0 0 0 .176-.477v-1.07c-.015.173-.075.338-.175.48s-.236.254-.393.326zm6.282 8.43l4.153-2.4c.158-.07.294-.182.394-.322s.16-.306.174-.48v1.07c-.015.172-.075.337-.175.477a.966.966 0 0 1-.393.323l-4.15 2.4c-.43.22-.906.333-1.4.333s-.958-.114-1.388-.333l-4.18-2.4c-.16-.07-.295-.182-.396-.322s-.164-.306-.18-.478V191c.018.173.08.337.18.478s.238.252.396.323l4.177 2.4c.43.218.906.332 1.388.332s.958-.114 1.4-.332zm14.6 3.634l-4.15 2.4c-.43.22-.907.333-1.4.333a3.034 3.034 0 0 1-1.39-.333l-4.177-2.4c-.158-.07-.294-.183-.396-.323s-.163-.305-.18-.478v1.065c.017.172.08.337.18.477a.988.988 0 0 0 .396.323l4.18 2.4c.43.217.906.33 1.4.33s.957-.113 1.388-.33l4.15-2.4a.974.974 0 0 0 .393-.323c.1-.14.16-.306.176-.477v-1.07a.975.975 0 0 1-.175.48c-.1.14-.236.254-.394.325zm6.298 8.43l4.15-2.4a.974.974 0 0 0 .396-.32.954.954 0 0 0 .176-.479v1.07a1.001 1.001 0 0 1-.177.476c-.1.14-.235.252-.4.324l-4.154 2.4c-.43.218-.905.333-1.388.333s-.958-.115-1.388-.333l-4.182-2.4a.973.973 0 0 1-.396-.323c-.1-.14-.163-.305-.18-.477v-1.07c.017.172.08.337.18.478a.984.984 0 0 0 .395.322l4.182 2.4c.43.218.906.332 1.388.332s.958-.114 1.388-.332zm14.597 3.634l-4.15 2.4c-.43.22-.906.333-1.4.333s-.958-.114-1.388-.333l-4.18-2.4c-.16-.07-.295-.18-.397-.322a.978.978 0 0 1-.18-.478v1.068c.018.173.08.337.18.478s.238.252.396.323l4.18 2.4c.43.217.906.33 1.388.33s.958-.114 1.4-.33l4.153-2.4a.993.993 0 0 0 .39-.325c.1-.14.16-.304.178-.476V209.1a.961.961 0 0 1-.177.478c-.1.14-.237.252-.395.322zm6.298 8.43l4.153-2.4c.158-.07.294-.18.394-.322a.975.975 0 0 0 .175-.478v1.068c-.017.172-.078.336-.178.476a.973.973 0 0 1-.391.325l-4.153 2.4c-.43.22-.906.333-1.388.333s-.96-.114-1.4-.333l-4.177-2.4c-.16-.07-.297-.18-.4-.322a.966.966 0 0 1-.181-.479v-1.068a.988.988 0 0 0 .18.478.987.987 0 0 0 .396.322l4.18 2.4c.43.218.906.332 1.4.332a3.065 3.065 0 0 0 1.388-.332zm14.6 3.64l-4.154 2.4c-.43.22-.906.333-1.388.333a3.074 3.074 0 0 1-1.39-.333l-4.18-2.4a.979.979 0 0 1-.396-.322.988.988 0 0 1-.18-.478v1.068c.017.173.08.338.182.478s.24.252.398.322l4.177 2.4c.43.217.907.33 1.4.33s.958-.113 1.388-.33l4.154-2.4c.157-.07.292-.183.392-.323a.989.989 0 0 0 .176-.477v-1.068a1.001 1.001 0 0 1-.177.476c-.1.14-.235.252-.4.324zm-1.24 6.27v-1.068a.993.993 0 0 0 .179.477c.1.14.236.252.393.323l4.182 2.4c.43.217.906.33 1.388.33a3.097 3.097 0 0 0 1.39-.33l4.153-2.4c.156-.072.3-.184.4-.325s.16-.304.178-.475v1.068a.979.979 0 0 1-.176.477c-.1.14-.235.252-.392.323l-4.153 2.4c-.43.22-.906.333-1.4.333s-.958-.114-1.388-.333l-4.178-2.4c-.16-.07-.296-.18-.398-.32a.953.953 0 0 1-.178-.48zm17.977 9.268l4.153-2.4c.157-.07.292-.183.392-.323s.16-.305.176-.477v-1.068a.966.966 0 0 1-.176.476.972.972 0 0 1-.392.324l-4.153 2.4c-.43.22-.906.333-1.4.333s-.958-.114-1.388-.333l-4.177-2.4a.986.986 0 0 1-.4-.32c-.103-.14-.165-.306-.18-.48v1.068c.016.173.078.338.18.478a.967.967 0 0 0 .397.322l4.177 2.4c.43.218.907.33 1.4.33s.96-.113 1.4-.33zm10.464 4.954l4.154-2.4c.156-.072.3-.184.4-.324s.16-.305.177-.476v1.068a.966.966 0 0 1-.176.477c-.1.14-.235.253-.392.323l-4.154 2.4c-.43.22-.906.333-1.388.333s-.96-.114-1.4-.333l-4.177-2.4a.979.979 0 0 1-.396-.322.988.988 0 0 1-.18-.478v-1.068c.015.172.077.338.178.48s.24.25.398.32l4.177 2.4c.43.217.907.33 1.4.33s.958-.113 1.388-.33zm-153.168-73.708l4.177 2.4c.43.22.906.333 1.4.333s.958-.114 1.388-.333l4.153-2.4a.961.961 0 0 0 .39-.324c.098-.14.16-.304.178-.476v-1.068a.966.966 0 0 1-.569.8l-4.15 2.4c-.43.218-.906.33-1.388.33a3.097 3.097 0 0 1-1.39-.33l-4.18-2.4a.973.973 0 0 1-.396-.323c-.1-.14-.163-.305-.18-.477v1.068c.016.173.078.338.18.478s.238.252.397.322zm10.447 4.966l4.18 2.4c.433.214.9.322 1.393.317a3.003 3.003 0 0 0 1.384-.35l4.154-2.4c.156-.072.3-.184.4-.324a1.001 1.001 0 0 0 .177-.476v1.068c-.016.172-.077.336-.177.476s-.235.253-.4.324l-4.154 2.4c-.43.217-.906.33-1.388.33a3.097 3.097 0 0 1-1.39-.33l-4.177-2.4a.962.962 0 0 1-.398-.322c-.102-.142-.164-.305-.182-.478v-1.036c.017.172.08.337.18.477s.237.252.395.323zm10.43 7.086l4.178 2.4c.43.22.906.333 1.388.333s.96-.114 1.4-.333l4.153-2.4c.157-.07.292-.183.392-.323s.16-.305.176-.477v-1.068c-.016.17-.077.335-.177.476a.988.988 0 0 1-.39.324l-4.153 2.4c-.43.218-.906.33-1.4.33a3.076 3.076 0 0 1-1.388-.33l-4.182-2.4a.985.985 0 0 1-.395-.323.982.982 0 0 1-.181-.477v1.068a.972.972 0 0 0 .18.48.962.962 0 0 0 .4.32zm14.64 8.434l-4.177-2.4c-.16-.07-.298-.18-.4-.323s-.164-.308-.18-.48v-1.065a.988.988 0 0 0 .182.48.993.993 0 0 0 .398.322l4.177 2.4c.43.22.906.333 1.4.333s.958-.114 1.388-.333l4.153-2.4a.98.98 0 0 0 .392-.324.966.966 0 0 0 .176-.477v1.07c-.016.17-.077.336-.176.476a.98.98 0 0 1-.392.324l-4.153 2.4c-.43.217-.906.33-1.388.33a3.097 3.097 0 0 1-1.39-.33z"/><path d="M608.665 192.87l4.177 2.4c.43.22.906.333 1.4.333s.958-.114 1.388-.333l4.154-2.4c.157-.07.293-.182.393-.323a.968.968 0 0 0 .175-.477V191c-.015.172-.076.337-.175.478a.966.966 0 0 1-.393.323l-4.154 2.4c-.43.218-.906.332-1.388.332s-.958-.114-1.4-.332l-4.177-2.4a.962.962 0 0 1-.398-.322c-.102-.142-.163-.306-.178-.48v1.07a.988.988 0 0 0 .18.478.987.987 0 0 0 .396.322zm14.635 8.435l-4.178-2.4c-.158-.07-.294-.182-.395-.323a.982.982 0 0 1-.181-.477v-1.07c.015.173.077.34.178.48a.98.98 0 0 0 .398.32l4.178 2.4c.43.22.906.333 1.388.333a3.074 3.074 0 0 0 1.39-.333l4.153-2.4a.98.98 0 0 0 .392-.324.979.979 0 0 0 .176-.477v1.07a.973.973 0 0 1-.176.477c-.1.14-.235.252-.392.323l-4.15 2.4a3.098 3.098 0 0 1-1.391.33c-.483 0-.96-.113-1.4-.33zm6.26 3.63l4.18 2.4c.43.218.906.333 1.388.333s.96-.115 1.4-.333l4.15-2.4a.966.966 0 0 0 .393-.323.962.962 0 0 0 .175-.477v-1.07c-.014.172-.074.338-.174.478s-.236.252-.394.322l-4.153 2.4c-.43.218-.906.332-1.4.332a3.065 3.065 0 0 1-1.388-.332l-4.177-2.4a.967.967 0 0 1-.397-.322c-.1-.14-.163-.305-.18-.478v1.07c.017.172.08.337.18.477a.976.976 0 0 0 .396.323zm14.628 8.434l-4.18-2.4c-.158-.07-.294-.183-.396-.323s-.163-.305-.18-.478V209.1c.017.173.08.337.18.478a.971.971 0 0 0 .396.322l4.177 2.4c.43.22.907.333 1.4.333s.96-.114 1.4-.333l4.15-2.4a.957.957 0 0 0 .393-.322.973.973 0 0 0 .176-.478v1.068a.973.973 0 0 1-.176.478.974.974 0 0 1-.393.323l-4.15 2.4c-.43.217-.906.33-1.388.33s-.958-.114-1.4-.33zm6.266 3.63l4.182 2.4c.43.22.905.333 1.388.333s.958-.114 1.388-.333l4.154-2.4c.156-.072.3-.183.4-.324s.16-.305.174-.477v-1.068c-.015.172-.076.336-.176.477s-.235.252-.392.323l-4.15 2.4c-.43.217-.906.33-1.388.33s-.958-.113-1.388-.33l-4.182-2.4a.984.984 0 0 1-.395-.322c-.1-.14-.164-.306-.18-.478v1.068c.017.173.08.338.18.478s.238.252.396.323zm14.63 8.434l-4.18-2.4c-.157-.07-.3-.18-.392-.32s-.163-.3-.18-.472v-1.068a.988.988 0 0 0 .18.478c.102.14.238.252.397.322l4.18 2.4c.43.22.906.333 1.388.333s.96-.114 1.4-.333l4.15-2.4c.157-.07.293-.182.393-.323a.968.968 0 0 0 .175-.477v1.06c-.016.172-.077.336-.177.476a.984.984 0 0 1-.391.324l-4.153 2.4c-.43.217-.906.33-1.4.33s-.957-.113-1.388-.33zm6.27 3.628l4.177 2.4c.43.22.906.333 1.4.333s.958-.114 1.388-.333l4.153-2.4a.961.961 0 0 0 .39-.324c.098-.14.16-.304.178-.476v-1.068a.979.979 0 0 1-.176.477.966.966 0 0 1-.393.323l-4.15 2.4c-.43.217-.906.33-1.388.33a3.097 3.097 0 0 1-1.39-.33l-4.18-2.4a.973.973 0 0 1-.396-.323c-.1-.14-.163-.305-.18-.477v1.068c.016.173.078.338.18.478s.238.252.397.322zm14.607 8.436l-4.177-2.4c-.158-.07-.295-.18-.397-.32s-.165-.304-.183-.476v-1.068a.988.988 0 0 0 .18.478.987.987 0 0 0 .396.322l4.18 2.4c.43.22.906.333 1.4.333s.958-.114 1.388-.333l4.154-2.4c.156-.072.3-.184.4-.324a1.001 1.001 0 0 0 .177-.476v1.064a.989.989 0 0 1-.176.477c-.1.14-.235.252-.392.323l-4.154 2.4c-.43.217-.906.33-1.388.33a3.097 3.097 0 0 1-1.39-.33zm6.287 3.63l4.178 2.4c.43.22.906.333 1.388.333s.96-.114 1.4-.333l4.153-2.4c.157-.07.292-.183.392-.323a.979.979 0 0 0 .176-.477v-1.068c-.017.17-.078.335-.178.475s-.234.253-.4.325l-4.153 2.4c-.43.217-.907.33-1.4.33s-.958-.113-1.388-.33l-4.182-2.4c-.158-.07-.294-.182-.395-.323a.982.982 0 0 1-.181-.477v1.068a.972.972 0 0 0 .18.48.962.962 0 0 0 .4.32zm17.393 7.367l4.153-2.4a.987.987 0 0 0 .387-.314c.1-.136.162-.295.18-.462v1.064c-.015.172-.076.336-.176.477s-.235.252-.392.323l-4.157 2.38c-.43.217-.906.33-1.4.33s-.957-.113-1.388-.33l-4.177-2.4a.967.967 0 0 1-.397-.322.977.977 0 0 1-.179-.478v-1.068c.016.172.08.338.18.478s.24.252.4.322l4.177 2.4c.43.218.906.333 1.388.333s.96-.115 1.4-.333zm-141.468-74.516v-1.068a.968.968 0 0 1-.175.477.966.966 0 0 1-.393.323l-4.15 2.4c-.43.22-.906.333-1.4.333s-.958-.114-1.388-.333l-4.18-2.4a.973.973 0 0 1-.396-.323.992.992 0 0 1-.181-.477v1.048c.018.172.08.337.18.478a.987.987 0 0 0 .396.322l4.18 2.4c.43.217.906.33 1.388.33a3.097 3.097 0 0 0 1.39-.33l4.153-2.4c.153-.07.285-.18.384-.316a.993.993 0 0 0 .18-.464zm10.448 4.966V180a.982.982 0 0 1-.176.475.974.974 0 0 1-.389.325l-4.153 2.4c-.43.22-.906.333-1.388.333s-.96-.114-1.4-.333l-4.177-2.4a.977.977 0 0 1-.399-.321c-.102-.14-.165-.306-.18-.48v-1.068c.017.172.08.337.18.477a.988.988 0 0 0 .396.323l4.18 2.4c.43.218.906.33 1.4.33a3.076 3.076 0 0 0 1.388-.33l4.15-2.4c.158-.07.294-.18.394-.322a.962.962 0 0 0 .175-.478zm10.447 7.098v-1.07c-.017.172-.078.336-.177.476a.992.992 0 0 1-.39.325l-4.154 2.4c-.43.22-.905.333-1.388.333s-.958-.114-1.388-.333l-4.182-2.4a.973.973 0 0 1-.396-.323c-.1-.14-.163-.305-.18-.478v1.065a.987.987 0 0 0 .182.478.983.983 0 0 0 .398.322l4.178 2.4c.43.217.906.33 1.388.33s.958-.113 1.388-.33l4.154-2.4a.976.976 0 0 0 .39-.322.981.981 0 0 0 .178-.474zm10.447 4.965v1.07c-.016.172-.077.337-.178.477s-.236.252-.394.323l-4.153 2.4c-.43.22-.906.333-1.4.333s-.958-.114-1.388-.333l-4.178-2.4c-.16-.07-.296-.18-.398-.32a.953.953 0 0 1-.178-.48v-1.07c.017.173.08.337.18.478s.238.252.395.323l4.182 2.4c.43.218.906.332 1.388.332s.958-.114 1.4-.332l4.153-2.4a.98.98 0 0 0 .392-.324.966.966 0 0 0 .176-.477zm10.446 7.1v-1.07c-.015.172-.076.336-.176.477a.98.98 0 0 1-.392.324l-4.153 2.4c-.43.22-.906.333-1.388.333s-.96-.114-1.4-.333l-4.177-2.4c-.16-.07-.297-.18-.4-.322a.966.966 0 0 1-.181-.479v1.07a.977.977 0 0 0 .179.478c.1.14.238.252.397.322l4.177 2.4c.43.217.906.33 1.4.33s.957-.113 1.388-.33l4.153-2.4c.158-.07.294-.182.395-.323s.16-.305.177-.477zm10.45 4.966v1.07c-.015.172-.077.337-.177.478a.976.976 0 0 1-.395.322l-4.154 2.4c-.43.218-.906.333-1.388.333s-.96-.115-1.4-.333l-4.177-2.4a.973.973 0 0 1-.396-.323c-.1-.14-.163-.305-.18-.477v-1.07c.017.173.08.338.182.478s.24.252.398.322l4.177 2.4c.43.217.907.33 1.4.33s.958-.113 1.388-.33l4.154-2.4a.97.97 0 0 0 .393-.322.968.968 0 0 0 .175-.478zm10.446 7.097V209.1a.979.979 0 0 1-.176.477c-.1.14-.235.252-.392.323l-4.153 2.4c-.43.22-.906.333-1.4.333s-.958-.114-1.388-.333l-4.178-2.4c-.16-.07-.296-.18-.398-.32a.953.953 0 0 1-.178-.48v1.068c.017.173.08.337.18.478s.237.252.395.323l4.178 2.4c.43.218.907.33 1.4.33a3.086 3.086 0 0 0 1.391-.331l4.15-2.4c.157-.07.293-.182.393-.323s.16-.306.175-.478zm10.447 4.966v1.068a.962.962 0 0 1-.175.478.974.974 0 0 1-.393.323l-4.15 2.4c-.43.22-.906.333-1.4.333s-.958-.114-1.388-.333l-4.18-2.4c-.16-.07-.295-.182-.396-.323s-.164-.305-.18-.478v-1.068c.017.173.08.338.18.478a.967.967 0 0 0 .397.322l4.177 2.4c.43.217.906.33 1.388.33a3.097 3.097 0 0 0 1.39-.33l4.153-2.4c.157-.07.293-.182.393-.323a.968.968 0 0 0 .175-.477zm10.447 7.097v-1.06a.966.966 0 0 1-.176.477.974.974 0 0 1-.393.323l-4.15 2.4a3.069 3.069 0 0 1-2.8 0l-4.177-2.4a.979.979 0 0 1-.396-.322.988.988 0 0 1-.18-.478v1.068a.988.988 0 0 0 .18.478c.102.14.238.252.396.322l4.18 2.4c.43.217.906.33 1.4.33s.957-.113 1.388-.33l4.15-2.4c.163-.068.303-.18.407-.322s.166-.3.182-.486zm10.448 4.967v1.068c-.015.172-.075.337-.175.478a.97.97 0 0 1-.393.322l-4.15 2.4c-.43.22-.905.333-1.388.333s-.958-.114-1.388-.333l-4.182-2.4a.971.971 0 0 1-.396-.322c-.1-.14-.163-.305-.18-.478v-1.068a.982.982 0 0 0 .181.477c.1.14.237.252.395.323l4.178 2.4c.43.217.907.33 1.4.33s.96-.113 1.4-.33l4.15-2.4c.157-.07.292-.182.392-.323a.979.979 0 0 0 .176-.477zm10.452 7.098v-1.064a.968.968 0 0 1-.175.477c-.1.14-.236.252-.393.323l-4.15 2.4c-.43.22-.906.333-1.4.333s-.958-.114-1.388-.333l-4.18-2.4c-.16-.07-.295-.182-.396-.322s-.164-.306-.18-.478v1.068c.018.172.08.337.18.478a.987.987 0 0 0 .396.322l4.18 2.4c.43.217.906.33 1.388.33a3.097 3.097 0 0 0 1.39-.33l4.153-2.4c.156-.073.3-.185.4-.326s.16-.306.174-.478zm10.447 4.965v1.068a.982.982 0 0 1-.176.475.974.974 0 0 1-.389.325l-4.153 2.4c-.43.22-.906.333-1.388.333s-.96-.114-1.4-.333l-4.18-2.4a.979.979 0 0 1-.396-.322c-.1-.14-.164-.306-.18-.478v-1.068c.017.172.08.337.18.477s.238.252.396.323l4.18 2.4c.43.217.906.33 1.4.33s.957-.113 1.388-.33l4.15-2.4a.974.974 0 0 0 .393-.323c.1-.14.16-.306.176-.477zm10.447 7.12v-1.064a.973.973 0 0 1-.174.476c-.1.14-.234.253-.4.324l-4.154 2.4c-.43.218-.905.333-1.388.333s-.958-.115-1.4-.333l-4.18-2.4a.973.973 0 0 1-.396-.323c-.1-.14-.163-.305-.18-.477v1.068c.018.173.08.338.182.478s.24.252.398.322l4.177 2.4c.43.217.907.33 1.4.33s.958-.113 1.388-.33l4.162-2.405c.154-.073.287-.185.385-.326a.968.968 0 0 0 .17-.474zm5.73 8.145l4.153-2.4c.158-.074.293-.187.393-.33a.993.993 0 0 0 .175-.483v1.07a.966.966 0 0 1-.176.476.972.972 0 0 1-.392.324l-4.153 2.4c-.43.218-.906.33-1.4.33a3.076 3.076 0 0 1-1.388-.33l-4.178-2.4a.969.969 0 0 1-.399-.321c-.102-.14-.164-.306-.18-.48v-1.057c.017.173.08.337.18.478s.238.252.395.323l4.182 2.4c.43.217.906.33 1.388.33s.958-.114 1.4-.33z"/></g><g opacity=".4" class="D"><path d="M591.816 158l-4.177-2.4c-.77-.44-.773-1.164.004-1.6l4.15-2.4c.43-.217.906-.33 1.388-.33a3.097 3.097 0 0 1 1.39.33l4.177 2.4c.756.436.76 1.16 0 1.6l-4.153 2.4c-.43.22-.906.333-1.4.333s-.958-.114-1.388-.333zm10.447 6.035l-4.177-2.4c-.768-.444-.772-1.164 0-1.6l4.15-2.4c.43-.22.906-.333 1.4-.333s.958.114 1.388.333l4.18 2.4c.757.432.76 1.156 0 1.6l-4.153 2.4c-.43.217-.906.33-1.388.33a3.097 3.097 0 0 1-1.39-.33zm6.27 3.63l4.178 2.4c.43.22.905.333 1.388.333s.958-.114 1.388-.333l4.154-2.4c.76-.44.756-1.164 0-1.6l-4.182-2.4c-.43-.217-.906-.33-1.388-.33s-.958.113-1.388.33l-4.15 2.4c-.772.436-.772 1.16 0 1.6zm14.61 8.436l-4.177-2.4c-.753-.444-.757-1.164 0-1.6l4.15-2.4c.43-.22.906-.333 1.388-.333s.96.114 1.4.333l4.18 2.4c.756.432.76 1.156 0 1.6l-4.153 2.4c-.43.217-.906.33-1.4.33s-.957-.113-1.388-.33zm6.286 3.632l4.177 2.4c.43.218.906.33 1.4.33a3.076 3.076 0 0 0 1.388-.33l4.153-2.4c.76-.44.757-1.164 0-1.6l-4.18-2.4a3.077 3.077 0 0 0-1.386-.33c-.482 0-.957.113-1.387.33l-4.153 2.4c-.768.432-.764 1.156 0 1.6zm14.625 8.43l-4.178-2.4c-.764-.44-.768-1.164 0-1.6l4.153-2.4c.43-.22.906-.333 1.4-.333s.958.114 1.388.333l4.178 2.4c.756.433.76 1.157 0 1.6l-4.15 2.4c-.43.22-.907.333-1.4.333s-.96-.114-1.4-.333zm6.27 3.633l4.182 2.4c.43.218.906.33 1.388.33a3.097 3.097 0 0 0 1.39-.33l4.15-2.4c.76-.44.756-1.165 0-1.6l-4.177-2.4c-.43-.217-.907-.33-1.4-.33s-.958.114-1.388.33l-4.154 2.4c-.768.432-.764 1.157 0 1.6zm14.628 8.43l-4.18-2.4c-.764-.44-.768-1.165 0-1.6l4.153-2.4c.43-.218.906-.333 1.4-.333a3.066 3.066 0 0 1 1.388.333l4.177 2.4c.76.432.765 1.157 0 1.6l-4.15 2.4c-.43.22-.906.333-1.388.333s-.96-.114-1.4-.333zm6.267 3.634l4.18 2.4c.43.218.906.332 1.4.332a3.065 3.065 0 0 0 1.388-.332l4.154-2.4c.76-.44.756-1.165 0-1.6l-4.178-2.4c-.43-.22-.906-.333-1.388-.333s-.96.114-1.4.333l-4.153 2.4c-.772.432-.768 1.156-.004 1.6zm14.63 8.43l-4.182-2.4c-.764-.44-.768-1.165.004-1.6l4.154-2.4c.43-.217.906-.33 1.388-.33a3.097 3.097 0 0 1 1.39.33l4.177 2.4c.756.436.76 1.156 0 1.6l-4.153 2.4c-.43.22-.906.333-1.4.333s-.958-.114-1.388-.333zm6.27 3.633l4.177 2.4c.43.218.906.332 1.388.332s.96-.114 1.4-.332l4.153-2.4c.76-.44.756-1.164 0-1.6l-4.177-2.4c-.43-.22-.906-.333-1.4-.333s-.958.114-1.388.333l-4.15 2.4c-.777.436-.773 1.156-.004 1.6zm14.624 8.44l-4.177-2.4c-.772-.448-.772-1.172 0-1.6l4.15-2.4c.43-.217.906-.33 1.4-.33a3.076 3.076 0 0 1 1.388.33l4.18 2.4c.757.436.76 1.156 0 1.6l-4.153 2.4c-.43.22-.906.333-1.388.333s-.96-.114-1.4-.333zm6.254 3.625l4.178 2.4c.43.217.906.33 1.388.33s.958-.113 1.388-.33l4.154-2.4c.76-.44.756-1.164 0-1.6l-4.182-2.4c-.43-.22-.905-.333-1.388-.333s-.958.114-1.388.333l-4.15 2.377c-.756.456-.752 1.2 0 1.624zm17.382 2.02l4.18 2.4c.764.444.768 1.156 0 1.6l-4.153 2.4c-.43.22-.906.333-1.4.333s-.958-.114-1.388-.333l-4.177-2.4c-.76-.432-.765-1.156 0-1.6l4.15-2.4c.43-.217.906-.33 1.388-.33a3.097 3.097 0 0 1 1.39.33zm-153.12-68.374l4.182 2.4c.43.217.906.33 1.388.33a3.097 3.097 0 0 0 1.39-.33l4.153-2.4c.76-.444.756-1.168 0-1.6l-4.177-2.4c-.43-.22-.906-.333-1.4-.333s-.958.114-1.388.333l-4.154 2.4c-.772.436-.768 1.156-.004 1.6zm17.37 2.02l4.177 2.4c.768.444.772 1.168.004 1.6l-4.153 2.4c-.43.218-.906.332-1.4.332a3.065 3.065 0 0 1-1.388-.332l-4.177-2.4c-.76-.432-.765-1.156 0-1.6l4.15-2.4c.43-.217.906-.33 1.388-.33a3.097 3.097 0 0 1 1.39.33zm14.63 8.435l-4.182-2.4c-.43-.22-.906-.333-1.388-.333s-.96.114-1.4.333l-4.15 2.4c-.764.444-.76 1.168 0 1.6l4.177 2.4c.43.22.906.333 1.4.333s.958-.114 1.388-.333l4.154-2.4c.768-.436.764-1.16 0-1.6zm6.266 3.63l4.18 2.4c.764.444.768 1.168 0 1.6l-4.153 2.4c-.43.218-.907.33-1.4.33s-.958-.113-1.388-.33l-4.178-2.4c-.76-.432-.764-1.156 0-1.6l4.15-2.4c.43-.217.906-.33 1.388-.33a3.097 3.097 0 0 1 1.39.33zm14.648 8.433l-4.18-2.4c-.43-.22-.906-.333-1.4-.333s-.958.114-1.388.333l-4.15 2.4c-.765.445-.76 1.17 0 1.6l4.177 2.4c.43.22.906.333 1.388.333s.96-.114 1.4-.333l4.153-2.4c.748-.436.744-1.16 0-1.6zm6.246 3.634l4.18 2.4c.777.44.777 1.165 0 1.6l-4.153 2.4c-.43.218-.906.33-1.388.33a3.097 3.097 0 0 1-1.39-.33l-4.177-2.4c-.756-.436-.76-1.16 0-1.6l4.153-2.4c.43-.217.905-.33 1.387-.33a3.077 3.077 0 0 1 1.386.33zm14.63 8.43l-4.178-2.4c-.43-.217-.906-.33-1.388-.33s-.958.113-1.388.33l-4.154 2.4c-.76.444-.756 1.17 0 1.6l4.178 2.4c.43.22.907.334 1.4.334s.96-.115 1.4-.334l4.15-2.4c.768-.436.764-1.157 0-1.6zm6.27 3.633l4.177 2.4c.764.44.768 1.164 0 1.6l-4.15 2.4c-.43.218-.906.332-1.4.332a3.065 3.065 0 0 1-1.388-.332l-4.182-2.4c-.756-.437-.76-1.16 0-1.6l4.154-2.4c.43-.22.906-.333 1.388-.333s.96.114 1.4.333zm14.624 8.43l-4.177-2.4c-.43-.217-.906-.33-1.388-.33a3.097 3.097 0 0 0-1.39.33l-4.153 2.4c-.76.444-.756 1.168 0 1.6l4.18 2.4c.43.22.906.333 1.4.333s.958-.114 1.388-.333l4.15-2.4c.773-.437.77-1.157 0-1.6zm6.27 3.634l4.178 2.4c.768.444.772 1.164.004 1.6l-4.154 2.4c-.43.218-.906.332-1.388.332s-.958-.114-1.4-.332l-4.18-2.4c-.756-.436-.76-1.16 0-1.6l4.153-2.4c.43-.22.906-.333 1.4-.333s.958.114 1.388.333zm14.625 8.446l-4.177-2.4c-.43-.217-.907-.33-1.4-.33s-.958.113-1.388.33l-4.154 2.4c-.76.444-.756 1.168 0 1.6l4.182 2.4c.43.22.906.333 1.388.333s.96-.114 1.4-.333l4.153-2.4c.768-.452.764-1.172-.004-1.6zm3.538 10.028l-4.18-2.4c-.773-.424-.777-1.168 0-1.624l4.157-2.377c.43-.22.906-.333 1.388-.333s.96.114 1.4.333l4.177 2.4c.756.432.76 1.156 0 1.6l-4.153 2.4c-.43.217-.906.33-1.4.33s-.957-.113-1.388-.33zm13.215 6.042l4.153-2.4c.76-.44.757-1.164 0-1.6l-4.18-2.4c-.43-.217-.906-.33-1.388-.33a3.097 3.097 0 0 0-1.39.33l-4.15 2.4c-.764.444-.76 1.168 0 1.6l4.177 2.4c.43.22.906.333 1.4.333s.958-.114 1.388-.333zm10.43-.388l4.182 2.4c.744.44.748 1.164 0 1.6l-4.154 2.4c-.43.217-.906.33-1.388.33s-.958-.113-1.388-.33l-4.178-2.4c-.76-.436-.764-1.16 0-1.6l4.15-2.4c.43-.22.905-.333 1.388-.333s.958.114 1.388.333zm-153.14-68.374l4.18 2.4c.43.218.906.332 1.4.332a3.065 3.065 0 0 0 1.388-.332l4.15-2.4c.764-.44.76-1.164 0-1.6l-4.178-2.4c-.43-.217-.906-.33-1.388-.33a3.097 3.097 0 0 0-1.39.33l-4.153 2.4c-.768.432-.764 1.156 0 1.6zm10.44 4.4l4.154-2.4c.43-.22.907-.334 1.4-.334a3.057 3.057 0 0 1 1.391.334l4.177 2.4c.756.432.76 1.156 0 1.6l-4.153 2.4c-.43.22-.906.333-1.4.333s-.958-.114-1.388-.333l-4.182-2.4c-.756-.432-.76-1.156 0-1.6zm10.44 7.654l4.18 2.4c.43.218.906.33 1.388.33s.96-.113 1.4-.33l4.153-2.4c.76-.44.756-1.164 0-1.6l-4.177-2.4c-.43-.217-.906-.33-1.4-.33s-.957.113-1.388.33l-4.153 2.4c-.757.432-.753 1.156-.004 1.6zm14.645 8.43l-4.177-2.4c-.768-.44-.772-1.164 0-1.6l4.15-2.4c.43-.218.906-.332 1.4-.332a3.065 3.065 0 0 1 1.388.332l4.182 2.4c.756.437.76 1.157 0 1.6l-4.154 2.4c-.43.22-.906.333-1.388.333s-.96-.114-1.4-.333zm6.27 3.633l4.178 2.4c.43.218.906.33 1.388.33a3.097 3.097 0 0 0 1.39-.33l4.153-2.4c.76-.44.756-1.165 0-1.6l-4.18-2.4c-.43-.22-.906-.333-1.4-.333s-.958.114-1.388.333l-4.15 2.4c-.772.432-.768 1.157 0 1.6zm14.624 8.43l-4.177-2.4c-.77-.44-.773-1.165 0-1.6l4.15-2.4c.43-.217.906-.33 1.388-.33a3.097 3.097 0 0 1 1.39.33l4.18 2.4c.756.436.76 1.157 0 1.6l-4.153 2.4c-.43.22-.906.333-1.4.333s-.958-.114-1.388-.333zm6.27 3.634l4.177 2.4c.43.218.906.332 1.4.332a3.065 3.065 0 0 0 1.388-.332l4.153-2.4c.76-.44.757-1.165 0-1.6l-4.18-2.4a3.061 3.061 0 0 0-1.386-.333c-.482 0-.957.115-1.387.333l-4.153 2.4c-.772.432-.768 1.156 0 1.6zm14.626 8.43l-4.178-2.4c-.764-.44-.768-1.165 0-1.6l4.154-2.4a3.071 3.071 0 0 1 1.386-.33 3.074 3.074 0 0 1 1.386.33l4.182 2.4c.756.436.76 1.156 0 1.6l-4.15 2.4c-.43.22-.907.333-1.4.333s-.96-.114-1.4-.333zm6.27 3.633l4.18 2.4c.43.217.906.33 1.388.33a3.097 3.097 0 0 0 1.39-.33l4.15-2.4c.76-.444.756-1.168 0-1.6l-4.177-2.4c-.43-.22-.906-.333-1.4-.333s-.958.114-1.388.333l-4.153 2.4c-.77.436-.765 1.156 0 1.6zm14.627 8.44l-4.18-2.4c-.764-.448-.768-1.172 0-1.6l4.153-2.4c.43-.217.906-.33 1.4-.33s.957.113 1.388.33l4.177 2.4c.76.436.765 1.16 0 1.6l-4.15 2.4c-.43.22-.906.333-1.388.333s-.96-.114-1.4-.333zm6.266 3.625l4.18 2.4c.43.217.907.33 1.4.33s.958-.113 1.388-.33l4.15-2.4c.764-.444.76-1.168 0-1.6l-4.178-2.4c-.43-.22-.906-.333-1.388-.333a3.074 3.074 0 0 0-1.39.333l-4.153 2.4c-.772.432-.772 1.176 0 1.6zm14.613 8.43l-4.182-2.4c-.748-.452-.752-1.164.004-1.6l4.154-2.4c.43-.217.906-.33 1.388-.33a3.097 3.097 0 0 1 1.39.33l4.177 2.4c.756.436.76 1.16 0 1.6l-4.153 2.4c-.43.22-.906.333-1.4.333s-.958-.114-1.388-.333zm6.282 3.632l4.18 2.4c.43.217.906.33 1.388.33a3.097 3.097 0 0 0 1.39-.33l4.153-2.4c.76-.444.756-1.168 0-1.6l-4.177-2.4c-.43-.22-.906-.333-1.4-.333s-.958.114-1.388.333l-4.153 2.4c-.773.432-.768 1.156-.004 1.6zm17.365 2.022l4.182 2.4c.768.445.772 1.17 0 1.6l-4.154 2.4c-.43.22-.906.333-1.388.333s-.96-.114-1.4-.333l-4.177-2.4c-.76-.432-.764-1.156 0-1.6l4.15-2.4c.43-.217.907-.33 1.4-.33s.958.113 1.388.33zM567.596 172.1l-4.177-2.4c-.43-.22-.906-.333-1.388-.333s-.96.114-1.4.333l-4.153 2.4c-.76.444-.756 1.168 0 1.6l4.18 2.4c.43.22.906.333 1.4.333s.958-.114 1.388-.333l4.15-2.4c.773-.436.77-1.16 0-1.6zm6.27 3.633l4.178 2.4c.768.44.772 1.164 0 1.6l-4.15 2.4c-.43.218-.906.33-1.388.33a3.097 3.097 0 0 1-1.39-.33l-4.18-2.4c-.756-.436-.76-1.16 0-1.6l4.153-2.4c.43-.22.906-.333 1.4-.333s.958.114 1.388.333zm14.624 8.43l-4.177-2.4c-.43-.217-.907-.33-1.4-.33s-.958.113-1.388.33l-4.154 2.4c-.76.445-.756 1.17 0 1.6l4.182 2.4c.43.22.906.333 1.388.333s.96-.114 1.4-.333l4.153-2.4c.768-.436.764-1.156-.004-1.6zm6.3 3.634l4.177 2.4c.748.44.753 1.165.004 1.6l-4.153 2.4c-.43.218-.906.33-1.388.33s-.96-.113-1.4-.33l-4.18-2.4c-.756-.436-.76-1.16 0-1.6l4.153-2.4c.43-.22.906-.333 1.4-.333s.958.114 1.388.333zm14.62 8.43l-4.182-2.4c-.43-.217-.906-.33-1.388-.33a3.097 3.097 0 0 0-1.39.33l-4.15 2.4c-.764.444-.76 1.17 0 1.6l4.177 2.4c.43.22.906.333 1.4.333s.958-.114 1.388-.333l4.154-2.4c.772-.436.772-1.157 0-1.6zm6.256 3.633l4.18 2.4c.764.44.768 1.164 0 1.6l-4.153 2.4c-.43.217-.907.33-1.4.33s-.958-.113-1.388-.33l-4.178-2.4c-.76-.437-.764-1.16 0-1.6l4.15-2.4c.43-.22.906-.333 1.388-.333a3.074 3.074 0 0 1 1.39.333zm14.628 8.43l-4.18-2.4c-.43-.217-.906-.33-1.4-.33s-.957.113-1.388.33l-4.15 2.4c-.765.444-.76 1.168 0 1.6l4.177 2.4c.43.22.906.333 1.388.333s.96-.114 1.4-.333l4.153-2.4c.768-.433.764-1.157 0-1.6zm6.266 3.634l4.18 2.4c.765.444.77 1.164 0 1.6l-4.153 2.4c-.43.217-.906.33-1.388.33a3.097 3.097 0 0 1-1.39-.33l-4.177-2.4c-.76-.436-.764-1.16 0-1.6l4.153-2.4c.43-.22.905-.333 1.387-.333a3.048 3.048 0 0 1 1.386.333zm14.63 8.446l-4.182-2.4a3.074 3.074 0 0 0-2.772 0l-4.154 2.4c-.76.444-.756 1.168 0 1.6l4.178 2.4a3.069 3.069 0 0 0 2.8 0l4.15-2.4c.748-.448.744-1.172-.02-1.6zm6.27 3.602l4.177 2.4c.764.456.768 1.2 0 1.6l-4.15 2.4a3.098 3.098 0 0 1-1.391.33c-.483 0-.96-.113-1.4-.33l-4.177-2.4c-.757-.436-.76-1.16 0-1.6l4.153-2.4c.43-.22.906-.333 1.388-.333s.96.114 1.4.333zm14.623 8.448l-4.177-2.4c-.43-.217-.906-.33-1.388-.33a3.097 3.097 0 0 0-1.39.33l-4.153 2.4c-.76.444-.756 1.168 0 1.6l4.18 2.4c.43.22.906.333 1.4.333s.958-.114 1.388-.333l4.15-2.4c.77-.444.765-1.156 0-1.6zm6.27 3.632l4.178 2.4c.768.44.772 1.164 0 1.6l-4.15 2.4c-.43.217-.906.33-1.388.33a3.097 3.097 0 0 1-1.39-.33l-4.18-2.4c-.756-.436-.76-1.16 0-1.6l4.153-2.4c.43-.22.906-.333 1.4-.333s.958.114 1.388.333zm14.645 8.43l-4.177-2.4c-.43-.217-.907-.33-1.4-.33s-.958.113-1.388.33l-4.154 2.4c-.76.445-.756 1.17 0 1.6l4.182 2.4c.43.22.906.333 1.388.333s.96-.114 1.4-.333l4.153-2.4c.748-.432.744-1.156-.004-1.6zm6.25 3.634l4.177 2.4c.776.44.776 1.165.004 1.6l-4.153 2.4c-.43.217-.906.33-1.4.33s-.957-.113-1.388-.33l-4.18-2.4c-.757-.436-.76-1.16 0-1.6l4.153-2.4c.43-.22.906-.333 1.4-.333s.958.114 1.388.333z"/></g><g class="B"><use xlink:href="#F"/><use xlink:href="#G"/><use xlink:href="#H"/><use xlink:href="#I"/></g><g class="D"><use xlink:href="#F" class="F"/><use xlink:href="#G" class="F"/><use xlink:href="#H" class="F"/><use xlink:href="#I" class="F"/></g><g class="B"><path d="M730.463 167.793l-108.758-62.8c-1.743-1-3.157-.204-3.163 1.797.056 1.093.37 2.157.917 3.105s1.3 1.754 2.227 2.35l108.757 62.8c1.744 1.004 3.157.198 3.164-1.8a6.923 6.923 0 0 0-.918-3.099c-.547-.946-1.3-1.75-2.226-2.343zm-108.73-70.748l96.26 55.577c1.744 1 3.164.2 3.164-1.803a6.922 6.922 0 0 0-.918-3.101 6.916 6.916 0 0 0-2.226-2.347l-96.26-55.578c-1.744-1.0105-3.164-.198-3.17 1.803.06 1.0923.374 2.1554.922 3.1023s1.3 1.75 2.23 2.3464zm.038-15.2104l108.77 62.7894c1.744 1 3.157.198 3.164-1.803a6.923 6.923 0 0 0-.918-3.099 6.913 6.913 0 0 0-2.226-2.343L621.8 74.5894c-1.743-1.0105-3.157-.2047-3.163 1.7964a6.922 6.922 0 0 0 .918 3.1018 6.929 6.929 0 0 0 2.225 2.347zm.048-15.2046l78.72 45.453c1.743 1.004 3.163.198 3.17-1.8-.06-1.1-.375-2.15-.922-3.097s-1.307-1.75-2.222-2.345l-78.727-45.4528c-1.743-1.0105-3.163-.2048-3.17 1.7964.058 1.0933.374 2.1572.922 3.1053s1.3 1.7533 2.23 2.35z"/></g><path d="M2.7866 183.81l-.2357-82.812L139.764 21.7762l-2.55-1.475L0 99.5224.2297 182.298c0 1.62.5742 2.762 1.499 3.3l2.557 1.487c-.9248-.514-1.499-1.656-1.499-3.276z" class="I"/><path d="M139.764 21.8064L140 104.618c0 3.264-2.285 7.254-5.126 8.88L7.9367 186.777c-2.835 1.644-5.15.326-5.156-2.938l-.2357-82.81 137.219-79.2216z" class="B"/><path d="M135.7 11.1013c-.93-.538-2.23-.4654-3.627.3627L5.126 84.7432C2.291 86.3813-.006 90.3648 0 93.629v5.9116l2.557 1.4875v-5.912c0-3.2702 2.285-7.2536 5.126-8.8857L134.62 12.945c1.427-.822 2.72-.9006 3.627-.3566l-2.557-1.487z" fill="#1d1a4f"/><path d="M134.6 12.9448c2.84-1.638 5.15-.3203 5.162 2.9498v5.9117L2.5386 101.027v-5.9112c0-3.2702 2.285-7.2536 5.126-8.8857L134.6 12.9448z" fill="#383388"/><g fill="#655ce7"><path d="M24.9522 79.0708a1.813 1.813 0 0 1 .9311.1536l.8523.4957a1.814 1.814 0 0 0-1.8134.1813c-.7483.485-1.3708 1.1405-1.8164 1.913a5.633 5.633 0 0 0-.7465 2.53c-.0297.3156.024.6335.1554.922s.3364.5375.594.722l-.8523-.4957c-.2577-.1846-.4626-.4335-.594-.722s-.185-.6064-.1554-.922c.045-.8905.3-1.7576.7465-2.53a5.634 5.634 0 0 1 1.8164-1.9128 1.813 1.813 0 0 1 .8823-.335zM16.9794 83.48a5.653 5.653 0 0 0-1.8145 1.9139 5.65 5.65 0 0 0-.7484 2.529 1.813 1.813 0 0 0 .1538.9255c.1316.2896.337.5396.5957.7247l.8463.4957a1.814 1.814 0 0 1-.5958-.7248c-.1315-.2896-.1846-.6088-.1538-.9254a5.664 5.664 0 0 1 .7524-2.5291c.4464-.772 1.07-1.4277 1.8166-1.9137a1.813 1.813 0 0 1 1.8134-.1814l-.8523-.4956a1.813 1.813 0 0 0-1.8134.1813zm-7.0602 4.08a5.64 5.64 0 0 0-2.5688 4.4428 1.814 1.814 0 0 0 .7495 1.6441l.8523.4956a1.812 1.812 0 0 1-.7494-1.644c.0463-.9.3033-1.7583.7498-2.5306a5.64 5.64 0 0 1 1.819-1.9123 1.815 1.815 0 0 1 1.8134-.1813l-.8523-.4957c-.2913-.1325-.6126-.1855-.93-.1536a1.814 1.814 0 0 0-.8823.335z"/></g><g class="B"><path d="M23.0754 81.8143c.4456-.7724 1.068-1.428 1.8164-1.913 1.4205-.822 2.575-.1692 2.58 1.47a5.647 5.647 0 0 1-2.569 4.4428c-1.4145.816-2.575.1632-2.575-1.4688.045-.8906.3-1.7577.7465-2.53zm-5.2437 2.1612c-.7478.486-1.3702 1.1417-1.8166 1.9137a5.664 5.664 0 0 0-.7524 2.5291c0 1.632 1.1666 2.29 2.587 1.4688a5.657 5.657 0 0 0 1.8125-1.9116 5.656 5.656 0 0 0 .7504-2.5251c-.006-1.638-1.1787-2.285-2.58-1.475zm-7.06 4.0802a5.64 5.64 0 0 0-1.819 1.9123c-.4465.7723-.7036 1.6396-.7498 2.5306 0 1.632 1.1606 2.2848 2.58 1.4628.7483-.484 1.3712-1.1384 1.8178-1.9096a5.64 5.64 0 0 0 .7512-2.5272c-.006-1.638-1.1666-2.29-2.58-1.47z"/></g><g filter="url(#A)"><path d="M88.098 119.537l-63.4688 36.63a6.356 6.356 0 0 0-2.0366 2.148 6.352 6.352 0 0 0-.8406 2.839 2.011 2.011 0 0 0 .1696 1.038c.1477.325.379.605.6706.81l1.7046.992c-.2915-.206-.523-.486-.6706-.81s-.2062-.684-.1696-1.04a6.344 6.344 0 0 1 .8406-2.838 6.35 6.35 0 0 1 2.0366-2.149l63.4688-36.63a2.021 2.021 0 0 1 1.0003-.382c.3616-.035.726.028 1.055.182l-1.7107-1.015c-.3303-.15-.6947-.208-1.055-.17s-.7037.175-.994.392z" class="E"/><path d="M116.103 89.423L24.61 142.247c-.8395.545-1.5382 1.28-2.0393 2.148s-.7903 1.84-.844 2.84a2.033 2.033 0 0 0 .1733 1.042c.1487.326.3808.606.673.814l1.6864.99c-.292-.207-.5243-.488-.673-.814s-.2084-.685-.1733-1.042a6.333 6.333 0 0 1 .8427-2.839 6.345 6.345 0 0 1 2.0406-2.148L117.79 90.4143c.294-.2134.64-.3444 1-.3795a2.035 2.035 0 0 1 1.054.18l-1.704-.9913c-.328-.1476-.688-.207-1.045-.172s-.7.163-.992.3713z" class="E"/><path d="M22.5317 135.17l1.7045.99c-.2915-.206-.523-.486-.6705-.81s-.2062-.684-.1697-1.04c.0517-1 .3393-1.974.8394-2.84s1.1984-1.605 2.038-2.152l83.4647-48.1874a2.033 2.033 0 0 1 1-.3794 2.038 2.038 0 0 1 1.055.1799l-1.7-.9913c-.33-.1514-.694-.2122-1.055-.176s-.706.168-1 .3816L24.5687 128.326c-.8395.546-1.538 1.283-2.038 2.15s-.7877 1.842-.8393 2.842c-.0366.355.022.714.1696 1.04a2.012 2.012 0 0 0 .6706.811z" class="E"/><path d="M26.237 115.403l72.0462-41.5932a2.042 2.042 0 0 1 2.0548-.2056l-1.7284-.9913c-.33-.1514-.6943-.2122-1.0555-.176s-.7063.168-.9997.3816l-72.022 41.5936a6.353 6.353 0 0 0-2.0394 2.147c-.501.867-.7902 1.84-.844 2.84-.035.357.0247.716.1734 1.042s.3807.607.673.814l1.7046.985c-.2922-.205-.5244-.485-.673-.8a2.02 2.02 0 0 1-.1732-1.039c.0528-1 .3416-1.973.8427-2.84s1.2004-1.602 2.0406-2.147z" class="E"/><path d="M126.082 42.8247a2.034 2.034 0 0 0-1.054-.1799c-.362.035-.707.166-1 .3794L24.49 100.49c-.8395.546-1.5378 1.283-2.038 2.15a6.341 6.341 0 0 0-.8393 2.842 2.011 2.011 0 0 0 .1696 1.038c.1477.325.379.605.6706.81l1.7046.992c-.2915-.207-.523-.487-.6706-.812a2.011 2.011 0 0 1-.1696-1.038c.0516-1 .3392-1.974.8393-2.842s1.1984-1.605 2.038-2.15l99.5373-57.4665a2.026 2.026 0 0 1 1-.3813 2.024 2.024 0 0 1 1.055.1819l-1.705-.9914z" class="E"/><path d="M26.195 101.482l99.537-57.4666c1.596-.9188 2.89-.1813 2.895 1.6563-.052.9984-.34 1.9704-.84 2.836a6.326 6.326 0 0 1-2.037 2.1446L26.213 108.12c-1.5958.925-2.8954.17-2.8954-1.644a6.351 6.351 0 0 1 .8393-2.842c.5-.868 1.1985-1.605 2.038-2.15z" class="C"/><path d="M26.2553 122.04l72.046-41.5936c.839-.547 1.5367-1.284 2.0366-2.1518a6.364 6.364 0 0 0 .841-2.841c0-1.8134-1.3-2.57-2.8957-1.6442l-72.046 41.5936c-.8402.544-1.5395 1.28-2.0406 2.147a6.337 6.337 0 0 0-.8427 2.839c.006 1.832 1.3056 2.55 2.9014 1.65z" class="C"/><path d="M109.756 87.7724L26.2916 135.954c-1.5958.925-2.8954.188-2.8954-1.644.0516-1 .3392-1.974.8393-2.842s1.1984-1.605 2.038-2.15l83.4646-48.1877c1.596-.9188 2.9-.157 2.9 1.6562-.055.9993-.345 1.9715-.846 2.838s-1.198 1.6026-2.037 2.15z" class="C"/><path d="M117.807 90.414l-91.4912 52.824a6.343 6.343 0 0 0-2.0407 2.147 6.342 6.342 0 0 0-.8426 2.84c0 1.813 1.3056 2.575 2.9014 1.65l91.492-52.824c.84-.5445 1.538-1.2804 2.038-2.1473s.788-1.84.84-2.8395c-.006-1.8315-1.3-2.57-2.896-1.6502z" class="C"/><path d="M89.8027 120.522l-63.4688 36.63a6.346 6.346 0 0 0-2.0366 2.148 6.347 6.347 0 0 0-.8406 2.839c0 1.813 1.2995 2.57 2.8953 1.644l63.4688-36.63c.839-.544 1.537-1.28 2.0372-2.144s.788-1.838.84-2.837c-.006-1.825-1.3056-2.562-2.8953-1.65z" class="C"/></g><path d="M877.178 193.67l.236-70.67-137.172-79.197 2.556-1.4866L879.97 121.513l-.236 70.7c0 1.625-.604 2.76-1.5 3.3L875.68 197c.925-.568 1.493-1.7 1.5-3.33z" class="I"/><path d="M740.236 43.802l-.236 70.7c0 3.263 2.3 7.25 5.13 8.877l126.9 73.263c2.84 1.638 5.155.32 5.16-2.943l.236-70.67-137.2-79.227z" class="B"/><path d="M744.31 33.106c.936-.5438 2.23-.4713 3.662.3565l126.9 73.2574c2.84 1.643 5.136 5.62 5.13 8.883v5.91L877.444 123v-5.9c0-3.27-2.3-7.25-5.13-8.883l-126.9-73.2568c-1.426-.828-2.725-.9065-3.655-.3626l2.55-1.4805z" fill="#1d1a4f"/><path d="M745.414 34.95c-2.84-1.6436-5.148-.3263-5.16 2.943v5.9098L877.426 123v-5.9c0-3.27-2.29-7.25-5.13-8.883L745.414 34.95z" class="H"/><g fill="#655ce7"><path d="M746.193 38.1766a1.814 1.814 0 0 0-.93.1566l-.846.4895a1.812 1.812 0 0 1 .931-.1537 1.814 1.814 0 0 1 .882.3349 5.662 5.662 0 0 1 1.809 1.9151c.444.7717.7 1.6372.747 2.5264a1.806 1.806 0 0 1-.154.9252 1.813 1.813 0 0 1-.595.7245l.852-.4955a1.813 1.813 0 0 0 .595-.7245 1.806 1.806 0 0 0 .154-.9252 5.659 5.659 0 0 0-2.562-4.4415 1.816 1.816 0 0 0-.883-.3318zm7.96 4.423a5.663 5.663 0 0 1 1.817 1.9128 5.651 5.651 0 0 1 .751 2.5287c.03.3156-.023.6334-.155.9218a1.806 1.806 0 0 1-.594.7218l-.852.4956a1.807 1.807 0 0 0 .594-.7219 1.825 1.825 0 0 0 .155-.9218c-.046-.8907-.303-1.7577-.75-2.5298a5.644 5.644 0 0 0-1.819-1.9117c-.26-.1875-.563-.303-.882-.335s-.64.0212-.93.1536l.852-.4955c.292-.1324.613-.1854.93-.1536a1.816 1.816 0 0 1 .882.335zm7.064 4.073a5.648 5.648 0 0 1 2.563 4.4415 1.826 1.826 0 0 1-.154.925 1.814 1.814 0 0 1-.596.7245l-.852.4956a1.815 1.815 0 0 0 .596-.7246 1.837 1.837 0 0 0 .154-.925 5.648 5.648 0 0 0-2.563-4.4415c-.26-.1875-.563-.303-.882-.335a1.81 1.81 0 0 0-.93.1536l.852-.4894c.3-.1334.6-.1874.93-.1566a1.808 1.808 0 0 1 .882.3318z"/></g><g class="B"><path d="M748.058 40.93a5.656 5.656 0 0 0-1.81-1.915c-1.426-.822-2.58-.1632-2.586 1.4744a5.641 5.641 0 0 0 .752 2.526 5.646 5.646 0 0 0 1.816 1.9094c1.42.822 2.575.1632 2.575-1.4684a5.666 5.666 0 0 0-.747-2.5264zm5.242 2.1638a5.643 5.643 0 0 1 1.819 1.9117c.446.772.703 1.64.75 2.5298 0 1.6316-1.166 2.2842-2.586 1.4684a5.663 5.663 0 0 1-1.809-1.915 5.666 5.666 0 0 1-.747-2.5265c0-1.6315 1.154-2.2902 2.574-1.4684zm7.064 4.073c.747.4858 1.37 1.1414 1.814 1.9134s.702 1.6382.748 2.528c0 1.6315-1.16 2.2902-2.58 1.4684a5.668 5.668 0 0 1-1.815-1.9105c-.446-.7707-.704-1.6358-.753-2.525.006-1.6377 1.166-2.2903 2.586-1.4745z"/></g><g filter="url(#B)"><path d="M856.192 164.368l-99.507-57.45c-.294-.214-.64-.345-1-.382s-.725.025-1.055.176l-1.704.99c.33-.15.694-.212 1.055-.176s.706.168 1 .382l99.508 57.45c.838.544 1.536 1.278 2.036 2.144s.788 1.837.84 2.835a2.025 2.025 0 0 1-.171 1.041c-.147.325-.378.606-.67.814l1.698-.99a2.01 2.01 0 0 0 .846-1.855c-.052-.998-.34-1.97-.84-2.835s-1.198-1.6-2.036-2.144z" class="E"/><path d="M755.023 93.9933l78.762 45.4717c.84.546 1.537 1.28 2.036 2.148a6.336 6.336 0 0 1 .84 2.838c.037.356-.02.715-.17 1.04s-.38.607-.67.814l1.704-.99a2.012 2.012 0 0 0 .671-.811c.147-.325.206-.683.17-1.038a6.337 6.337 0 0 0-.841-2.842c-.5-.868-1.2-1.605-2.04-2.15l-78.756-45.4718c-.295-.2136-.64-.3452-1.003-.3813s-.727.0246-1.058.176l-1.698.99a2.042 2.042 0 0 1 1.055-.176c.36.036.706.1678 1 .3815z" class="E"/><path d="M755.06 80.0825l64.344 37.1455a6.329 6.329 0 0 1 2.039 2.147c.5.866.8 1.84.843 2.838.035.356-.024.716-.173 1.042s-.38.606-.673.813l1.704-.99c.292-.207.525-.488.673-.813s.21-.686.173-1.042c-.053-1-.342-1.972-.843-2.838a6.329 6.329 0 0 0-2.039-2.147l-64.344-37.1455a2.04 2.04 0 0 0-.999-.3814c-.36-.0362-.726.0246-1.055.176l-1.705.99a2.046 2.046 0 0 1 1.056-.176 2.041 2.041 0 0 1 .999.3814z" class="E"/><path d="M755.1 66.166l86.962 50.204c.84.547 1.538 1.283 2.04 2.15s.8 1.84.844 2.84a2.023 2.023 0 0 1-.175 1.038 2.02 2.02 0 0 1-.671.811l1.704-.99a2.022 2.022 0 0 0 .673-.81c.148-.325.208-.683.173-1.04-.054-1-.343-1.972-.844-2.838a6.354 6.354 0 0 0-2.038-2.147l-86.963-50.21a2.04 2.04 0 0 0-.999-.3815 2.042 2.042 0 0 0-1.055.176l-1.704.99a2.042 2.042 0 0 1 1.055-.176 2.04 2.04 0 0 1 .999.3815z" class="E"/><path d="M854.487 165.36L754.98 107.9c-1.595-.925-2.894-.187-2.894 1.644.052 1 .34 1.973.84 2.84s1.198 1.604 2.037 2.15l99.507 57.45c1.596.92 2.89.18 2.895-1.656-.052-.998-.34-1.97-.84-2.835a6.323 6.323 0 0 0-2.037-2.144z" class="C"/><path d="M755.005 100.628l78.73 45.473c1.602.924 2.895.18 2.9-1.65a6.336 6.336 0 0 0-.84-2.838 6.339 6.339 0 0 0-2.036-2.147l-78.738-45.4726c-1.596-.9246-2.895-.1874-2.9 1.6496.053.9996.342 1.9724.843 2.839s1.2 1.602 2.04 2.146z" class="C"/><path d="M755.04 86.7178l64.344 37.1452c1.595.925 2.894.187 2.9-1.65-.053-1-.342-1.972-.843-2.838s-1.2-1.602-2.04-2.147L755.06 80.0828c-1.595-.9246-2.888-.1873-2.895 1.6436a6.35 6.35 0 0 0 .84 2.841c.5.8675 1.198 1.6044 2.037 2.1504z" class="C"/><path d="M755.083 72.8012l86.962 50.2098c1.596.918 2.895.18 2.9-1.65-.054-1-.344-1.973-.844-2.84s-1.2-1.604-2.04-2.15L755.1 66.1662c-1.595-.9246-2.894-.1874-2.9 1.6497.053.9993.343 1.9717.843 2.838s1.2 1.602 2.04 2.1472z" class="C"/></g><path d="M573.756 55.475l28.252 16.3115-28.252 16.31-28.253-16.31 28.253-16.3115z" class="C"/><g class="B"><path d="M573.756 83.437l28.252-16.3116-28.252-44.2737-28.252 44.2737 28.252 16.3116zm28.252-11.6506l-28.253 16.3V111.4l28.253-39.6126z"/><path d="M573.756 22.8516l28.252 44.2737-28.252 16.3116V22.8516z"/></g><g class="I"><path d="M545.503 71.8225l28.252 16.3v23.3024l-28.252-39.6125zm28.253-48.971V83.437l-28.252-16.3116 28.252-44.2737z"/></g><path d="M323.82 24.8575c-4.2-2.44-9.652-2.718-15.75-.4808l-.59 4.2522-3.866-2.247-15.78 9.1094c-4.642 2.679-8.34 9.0866-8.328 14.4215l.033 11.1995c.02 6.3936-2.134 12.087-6.46 17.0807l4.612 2.679.258-.327c1.1 1.5962 1.645 3.995 1.665 7.196l.033 11.1996c0 2.6497.93 4.5077 2.427 5.3737l4.612 2.683c-1.498-.87-2.42-2.728-2.427-5.378l-.033-11.1994c-.013-4.5793-1.134-7.523-3.362-8.8315l-2.568-1.4915c1.38-1.6838 2.55-3.53 3.487-5.495l3.323 2.005a5.185 5.185 0 0 1 2.659.6542l-4.6-2.6854a4.512 4.512 0 0 0-1.128-.4612c1.426-3.245 2.146-6.7558 2.113-10.3l-.033-11.1996c-.016-5.3316 3.686-11.7425 8.328-14.4214l14.902-8.6058-9.018 65.1892-3.827-2.2242-3.712 2.1457c-1.286.7392-2.453.8047-3.3.327l4.612 2.679c.844.494 2.015.4252 3.297-.327l2.794-1.6126-.252 1.812 4.612 2.6787 10.123-73.1863c6.1-2.234 11.553-1.9626 15.753.4808l-4.612-2.692z" fill="#4f47b9"/><path fill-rule="evenodd" d="M302.557 100.255l10.123-73.1864c13.843-5.0764 24.368 2.7934 24.417 19.5306.053 18.8503-13.2 41.7924-29.605 51.278-1.58.921-3.23 1.716-4.935 2.3778zm-.81-59.9555l-6.496 3.7518c-2.548 1.472-4.632 5.0764-4.606 8.0104l.026 9.6c.09 5.503-1.886 10.8396-5.537 14.958 3.72-.0197 5.587 2.815 5.603 8.5043l.026 9.6c.01 2.9308 2.103 4.1247 4.654 2.6528l3.713-2.1458c.013 4.2686-2.76 9.077-6.473 11.219-4.642 2.68-8.38.556-8.38-4.775l-.033-11.1998c-.024-6.4-2.205-9.5935-6.542-9.5804 4.322-4.9893 6.475-10.6828 6.46-17.0807l-.032-11.1996c-.023-5.3316 3.68-11.7295 8.317-14.4214l15.776-9.1095c.013 4.2653-2.76 9.0735-6.476 11.216z" class="B"/></g><defs><filter id="A" x="-2.3977" y="22.6353" width="139.025" height="153.544" filterUnits="userSpaceOnUse" class="J"><feFlood flood-opacity="0" result="A"/><feColorMatrix in="SourceAlpha" values="0 0 0 0 0 0 0 0 0 0 0 0 0 0 0 0 0 0 127 0"/><feOffset dx="-8" dy="-4"/><feGaussianBlur stdDeviation="8"/><feColorMatrix values="0 0 0 0 0 0 0 0 0 0 0 0 0 0 0 0 0 0 0.05 0"/><feBlend in2="A"/><feBlend in="SourceGraphic"/></filter><filter id="B" x="744.086" y="44.7834" width="138.993" height="139.606" filterUnits="userSpaceOnUse" class="J"><feFlood flood-opacity="0" result="A"/><feColorMatrix in="SourceAlpha" values="0 0 0 0 0 0 0 0 0 0 0 0 0 0 0 0 0 0 127 0"/><feOffset dx="8" dy="-4"/><feGaussianBlur stdDeviation="8"/><feColorMatrix values="0 0 0 0 0 0 0 0 0 0 0 0 0 0 0 0 0 0 0.1 0"/><feBlend in2="A"/><feBlend in="SourceGraphic"/></filter><clipPath id="C"><path fill="#fff" d="M0 0h880v311H0z"/></clipPath><path id="D" d="M413.66 114.642c0 1.643 1.163 2.315 2.586 1.493l11.78-6.802c1.423-.82 2.586-2.836 2.586-4.48V91.2534c0-1.6423-1.163-2.3142-2.586-1.493l-11.78 6.8005c-1.423.8212-2.586 2.8367-2.586 4.479v13.602z"/><path id="E" d="M360.922 144.778c0 1.643 1.163 2.314 2.585 1.493l11.78-6.802c1.423-.82 2.586-2.837 2.586-4.48v-13.6c0-1.642-1.163-2.314-2.586-1.493l-11.78 6.8c-1.422.82-2.585 2.836-2.585 4.48v13.602z"/><path id="F" d="M732.326 166.7l-108.778-62.8c-.32-.233-.697-.377-1.092-.416s-.793.026-1.153.192l-1.863 1.083c.36-.165.76-.232 1.154-.192s.77.183 1.092.417l108.758 62.79c.916.595 1.68 1.398 2.225 2.344a6.906 6.906 0 0 1 .918 3.098c.04.39-.025.782-.186 1.138s-.414.663-.732.9l1.863-1.083c.318-.227.57-.534.732-.9a2.204 2.204 0 0 0 .186-1.138 6.92 6.92 0 0 0-.909-3.096c-.543-.945-1.302-1.75-2.215-2.346z"/><path id="G" d="M621.752 89.7934l96.24 55.5776a6.925 6.925 0 0 1 2.226 2.347c.547.947.86 2 .918 3.102.04.39-.023.78-.184 1.138s-.415.663-.734.89l1.863-1.083a2.201 2.201 0 0 0 .733-.889 2.215 2.215 0 0 0 .185-1.138 6.935 6.935 0 0 0-.918-3.102c-.547-.947-1.31-1.752-2.226-2.347l-96.242-55.5778c-.32-.2344-.698-.3783-1.093-.4166a2.214 2.214 0 0 0-1.153.1987l-1.862 1.0765a2.232 2.232 0 0 1 1.153-.1923 2.234 2.234 0 0 1 1.093.4169z"/><path id="H" d="M621.79 74.5893l108.75 62.7897c.917.594 1.68 1.397 2.226 2.343s.86 2.008.918 3.1c.04.39-.023.782-.184 1.138a2.208 2.208 0 0 1-.734.89l1.863-1.083c.318-.228.57-.535.73-.89s.226-.748.187-1.137a6.923 6.923 0 0 0-.918-3.099 6.913 6.913 0 0 0-2.226-2.343l-108.75-62.79a2.236 2.236 0 0 0-1.092-.4169c-.395-.0395-.793.027-1.154.1924l-1.862 1.083a2.231 2.231 0 0 1 1.153-.1924 2.228 2.228 0 0 1 1.092.417z"/><path id="I" d="M621.837 59.379l78.727 45.453c.915.596 1.676 1.4 2.222 2.345s.862 2.006.922 3.097c.038.39-.027.782-.2 1.138a2.214 2.214 0 0 1-.735.889l1.863-1.083a2.201 2.201 0 0 0 .733-.889 2.215 2.215 0 0 0 .185-1.138 6.923 6.923 0 0 0-.918-3.099 6.935 6.935 0 0 0-2.226-2.344L623.7 58.2958a2.246 2.246 0 0 0-1.096-.4168 2.242 2.242 0 0 0-1.156.1922l-1.863 1.0832c.362-.1654.76-.2317 1.157-.1923s.773.1833 1.095.4168z"/></defs></svg>