<svg xmlns="http://www.w3.org/2000/svg" xmlns:xlink="http://www.w3.org/1999/xlink" width="409" height="264" fill="none" xmlns:v="https://vecta.io/nano"><path d="M262.94 30.9526L189 66 24 152.223v6.52c0 1.77 1.17 3.53 3.5 4.88l8.46 4.92 227-131.0704-.01-6.52z" fill="#383389"/><path d="M237.52 26.0325c4.7-2.7 12.3-2.7 17 0l8.45 4.9L35.9702 162.013l-8.45-4.92c-4.68-2.72-4.66-7.12.05-9.83L237.52 26.0325z" fill="#4f47b9"/><use xlink:href="#B" fill="#7066ff"/><use xlink:href="#B" fill="#4f47b9"/><path d="M262.94 30.9526l118.4 68.8c4.67 2.7104 4.64 7.1104-.05 9.8304l-210 121.23c-4.7 2.72-12.3 2.72-17 0l-118.3698-68.8L262.94 30.9526z" fill="#7066ff"/><g fill="#383389"><path d="M290.878 80.5466v-6.9578c-.045 1.4718-2.822 1.7622-3.697 2.9464l1.062 5.3113c.877-1.1715 2.6.1624 2.635-1.3zM218.517 115.4c-.035 1.473-3.216.382-4.1 1.56v5.025c.883-1.184 4.064 1.816 4.1.34V115.4zm-36.17 20.872c-.04 1.473-3.167 1.208-4.047 2.4l1.593 6.12c.88-1.182 2.415-.1 2.454-1.583v-6.926zM264.385 78.9a12.513 12.513 0 0 1 6.257-1.6996c2.168-.048 4.307.5033 6.182 1.5934 1.72 1.01 2.592 2.1245 2.592 3.3142 0 0 10.42-13-3.4-14.0712s-15.142 4.0116-19.12 6.9047l1.997 7.1453 5.48-3.1868zm51.593 4.5783l-10.74 3.6794-23.008-5.0708-6.735 3.4774 1.328 6.3736 5.407-1.4593 24.113 5.5025 9.645-5.5662-.01-6.9366zm-30.433 14.67l-43.138-22.148.02 6.926 43.117 25.06 8.986-5.184-.02-6.926-8.965 2.2732zm-60.888 5.1838c.074-1.232 1.062-2.4 2.953-3.4842 1.828-1.0758 3.902-1.6613 6.023-1.6996a10.623 10.623 0 0 1 5.757 1.4234l17.432 10.1344c1.636.956 2.443 2.007 2.443 3.186l2.953-7.287c0-9.2605-7.495-11.7004-14.34-14.7294-7.367-4.27-27.516-5.3983-26.557 5.8424l3.325 6.73c.002-.04.005-.078.01-.117zm38.623 8.572c-4.484 2.604-15.402 4.972-19.64 3.485-3.1-1.1-17.003-5.907-24.973-11.766-2.897-2.13-6.198-3.475-6.236-6.1334v6.9044c.028 1.302.442 2.567 1.2 3.633 1.166 1.592 2.676 2.9 4.42 3.824l17.43 10.124a23.106 23.106 0 0 0 6.618 2.59 28.143 28.143 0 0 0 7.33.702 31.6 31.6 0 0 0 14.723-4.249 18.815 18.815 0 0 0 5.183-4.143c1.102-1.22 1.816-2.74 2.05-4.366v-7.532c.133 2.06-6.437 6.024-8.095 6.926z"/><path d="M192.035 120.7a12.598 12.598 0 0 1 6.267-1.7c2.168-.047 4.307.504 6.183 1.593 1.72 1 2.6 2.124 2.6 3.304 1.006-3.726 3.994-10.148-.626-12.83-8.1-4.697-15.503.523-22.308 4.78l2.412 8.037 5.48-3.187zm41.98 8.427l-24.134-5.23-7.15 3.636 2.687 7.294 4.462-2.57 24.134 5.492 9.635-5.566-.01-6.926-9.624 3.87zm-20.82 13.7l-43.128-25.06.022 6.926 37.136 21.574-10.336 1.97-23.178-3.466-6.565 3.466 2.103 7.464 4.462-2.57 24.124 5.503 9.656-5.577-.022-6.64 5.737 3.335 8.986-5.183-.02-6.926-8.976 5.184zm-57.33-1.254a12.598 12.598 0 0 1 6.267-1.7c2.165-.047 4.3.504 6.172 1.593 1.73 1.062 2.592 2.124 2.602 3.304l2.805-7.687c0-14.606-22.53-3.318-29.403-.53l6.076 8.207 5.48-3.187zm21.16 22.137l-43.128-25.06.022 6.926 43.127 25.058 8.976-5.183-.02-6.926-8.976 5.184zm-43.16-9.082l-.022-6.926-20.873 8 2.507 9.54 18.388-10.612zm15.02 11.175l-.02-6.936-19.43 7.064 3.176 9.263 16.274-9.4zm-6.703 15.364L98.63 159.005l.0212 6.926L141.77 191l27.427-15.838-.02-6.926-26.992 12.93z"/></g><path d="M306.334 89.055l9.634-5.577-26.556-5.7786a6.479 6.479 0 0 0 1.257-2.828 6.492 6.492 0 0 0-.195-3.0888c-.623-1.9404-2.333-3.7108-5.13-5.3113-2.044-1.19-4.263-2.0546-6.575-2.56a27.486 27.486 0 0 0-7.202-.6269c-2.52.1175-5.016.5384-7.436 1.2536a33.688 33.688 0 0 0-7.319 3.1867l-14.468 8.36 43.117 25.06 8.987-5.1843-16.762-9.7514 4.46-2.5707 24.188 5.4175zm-29.988-10.102l-5.492 3.1868-11.972-6.9684 5.482-3.1867a12.521 12.521 0 0 1 6.267-1.6996c2.165-.0467 4.3.5047 6.172 1.5934 1.795 1.0622 2.666 2.1988 2.592 3.4628s-1.084 2.4964-3.05 3.6117zM265.84 97.5106L248.4 87.398a23.179 23.179 0 0 0-6.586-2.5707 28.765 28.765 0 0 0-7.298-.68c-5.18.2-10.233 1.6583-14.723 4.25a19.871 19.871 0 0 0-5.31 4.164c-1.134 1.1986-1.874 2.7142-2.125 4.3446-.13 1.5.28 3.0152 1.158 4.25a13.106 13.106 0 0 0 4.419 3.835l17.517 10.028a23.106 23.106 0 0 0 6.618 2.59c2.402.55 4.866.784 7.33.702a31.6 31.6 0 0 0 14.723-4.249 19.039 19.039 0 0 0 5.184-4.143c1.102-1.22 1.816-2.74 2.05-4.366.12-1.508-.3-3-1.158-4.25-1.145-1.582-2.64-2.8794-4.366-3.7924zm-9.56 12.0464a12.381 12.381 0 0 1-6.012 1.699 10.828 10.828 0 0 1-5.769-1.423L227.07 99.7c-1.7-.988-2.528-2.1245-2.432-3.3355s1.062-2.4 2.952-3.4843c1.83-1.073 3.904-1.6584 6.023-1.6995a10.623 10.623 0 0 1 5.758 1.4234l17.43 10.123c1.72 1 2.53 2.125 2.443 3.346s-1.062 2.4-2.963 3.485zm-43.2-1.317c2.8 1.594 4.5 3.364 5.13 5.312a6.466 6.466 0 0 1 .194 3.14c-.194 1.047-.644 2.03-1.3 2.86l26.557 5.78-9.646 5.566-24.134-5.5-4.46 2.57 16.772 9.752-8.976 5.183-43.127-25.058 14.468-8.36a33.162 33.162 0 0 1 7.32-3.187 31.25 31.25 0 0 1 7.436-1.253c2.417-.1 4.84.102 7.202.626 2.3.506 4.53 1.37 6.575 2.56zm-14.574 15.67l5.48-3.187c1.975-1.137 2.985-2.358 3.06-3.622s-.786-2.4-2.592-3.463c-1.875-1.1-4.014-1.64-6.182-1.594-2.2.007-4.357.594-6.257 1.7l-5.492 3.187 11.983 6.98zm-16.466 10.525c-.623-1.94-2.333-3.7-5.13-5.312-2.046-1.2-4.264-2.052-6.576-2.56a27.111 27.111 0 0 0-7.202-.626c-2.52.1-5.018.532-7.436 1.253-2.56.76-5.018 1.83-7.318 3.187l-14.468 8.35 43.127 25.07L186 158.57l-16.773-9.75 4.46-2.57 24.124 5.502 9.656-5.576-26.556-5.78c.66-.826 1.108-1.8 1.306-2.84s.14-2.1-.17-3.12zm-14.223 7.138l-5.482 3.187-11.93-6.947 5.493-3.187c1.9-1.105 4.057-1.695 6.256-1.7a11.944 11.944 0 0 1 6.183 1.604c1.795 1.062 2.655 2.2 2.58 3.463s-1.126 2.528-3.1 3.6z" fill-rule="evenodd" fill="#5a52d0"/><path d="M132.6 168.267l10.42 6.055 18.4-10.622 7.776 4.526-27.416 15.827-43.128-25.058 27.427-15.828 7.787 4.525-18.388 10.612 9.337 5.428 16.285-9.4 7.786 4.526-16.274 9.4zM39 147.5s-6.4565 1.614-6.5698.463v3.26c.0506.523.238 1.024.5435 1.452s.718.77 1.1965.987a9.316 9.316 0 0 0 4.24 1.021c1.474 0 2.9272-.35 4.24-1.02a2.999 2.999 0 0 0 1.2151-.996 3.001 3.001 0 0 0 .5449-1.474v-3.26C44.327 148.864 39 147.5 39 147.5zm11.5698-6.872s-6.4565 1.614-6.5698.462v3.26c.0507.524.238 1.025.5435 1.453s.718.77 1.1965.987c1.3128.67 2.766 1.02 4.24 1.02s2.9272-.35 4.24-1.02a2.998 2.998 0 0 0 1.2151-.996 3 3 0 0 0 .5449-1.474v-3.26c-.0833.932-5.4102-.432-5.4102-.432zm11.7998-6.6s-6.4565 1.614-6.5698.462v3.26c.0507.524.238 1.025.5435 1.453s.718.77 1.1965.987c1.3128.67 2.766 1.02 4.24 1.02a9.328 9.328 0 0 0 4.24-1.02 2.998 2.998 0 0 0 1.76-2.47v-3.26c-.0833.932-5.4102-.432-5.4102-.432z" fill="#5a52d0"/><g fill="#7066ff"><path d="M42.6898 145.493a9.337 9.337 0 0 0-4.245-1.021c-1.4757 0-2.9304.35-4.245 1.02-2.35 1.35-2.36 3.56 0 4.9a9.307 9.307 0 0 0 4.235 1.02c1.4726 0 2.924-.35 4.235-1.02 2.34-1.36 2.35-3.56.02-4.9z"/><use xlink:href="#C"/><use xlink:href="#C" x="11.7998" y="-6.6"/></g><defs ><path id="B" d="M384.84 104.692C384.84 106.482 238 119 238 119L35.9302 162.022v6.52l118.4798 68.8c4.67 2.7 12.26 2.7 17 0l210-121.23c2.37-1.37 3.55-3.16 3.54-4.95l-.1-6.48z"/><path id="C" d="M54.2597 138.62c-1.3146-.67-2.7693-1.02-4.245-1.02s-2.9305.35-4.245 1.02c-2.35 1.35-2.36 3.56 0 4.9a9.295 9.295 0 0 0 8.47 0c2.34-1.36 2.35-3.56.02-4.9z"/></defs></svg>