<svg xmlns="http://www.w3.org/2000/svg" xmlns:xlink="http://www.w3.org/1999/xlink" width="279" height="202" fill="none" xmlns:v="https://vecta.io/nano"><style><![CDATA[.B{fill:#010014}.C{fill:#7066ff}.D{fill-rule:evenodd}.E{opacity:.15}]]></style><use xlink:href="#B" class="C"/><use xlink:href="#B" opacity=".25" class="B"/><use xlink:href="#C" class="C"/><g class="B"><use xlink:href="#C" opacity=".5"/><path opacity=".3" d="M163.715 9.3416v71.2788c.001.4584-.118.909-.346 1.307s-.556.7288-.952.9598L54.25 145.333a1.306 1.306 0 0 1-.6561.183c-.231.001-.4584-.06-.6585-.174a1.302 1.302 0 0 1-.4796-.484c-.114-.2-.1723-.43-.1688-.66V72.9192a2.612 2.612 0 0 1 1.2983-2.2641L161.752 8.2095a1.302 1.302 0 0 1 .656-.1831 1.298 1.298 0 0 1 .658.1736 1.305 1.305 0 0 1 .48.4826c.114.2007.172.428.17.66h0z"/></g><path d="M236.5 124.16l-68.152-39.35-120.7136 69.695L117.84 195.03a8.175 8.175 0 0 0 8.178 0L236.5 131.24a4.079 4.079 0 0 0 1.498-1.496 4.084 4.084 0 0 0 0-4.088 4.079 4.079 0 0 0-1.498-1.496h0z" class="C"/><path opacity=".4" d="M194.987 145.696c1.98 1.143 1.98 3.012 0 4.155l-34.6 19.975c-1.98 1.142-5.217 1.142-7.195 0L132.54 157.9c-1.978-1.143-1.978-3.012 0-4.155l34.598-19.974c1.98-1.143 5.217-1.143 7.195 0l20.655 11.925z" class="B"/><g opacity=".8" class="B"><path d="M164.505 103.067l2.7-1.558c.103-.045.193-.116.26-.207s.107-.198.118-.3v-.694a.634.634 0 0 1-.118.311.638.638 0 0 1-.259.209l-2.7 1.558c-.28.142-.588.216-.9.216a1.984 1.984 0 0 1-.901-.216l-2.696-1.558c-.1-.047-.2-.12-.254-.2s-.104-.198-.114-.3v.7a.629.629 0 0 0 .114.309.631.631 0 0 0 .254.21l2.696 1.558a1.984 1.984 0 0 0 .901.216 1.986 1.986 0 0 0 .9-.216zm-3.705 1.83v-.7c-.012.1-.052.218-.118.308s-.154.163-.256.2l-2.7 1.558c-.28.14-.588.214-.9.214s-.62-.074-.9-.214l-2.695-1.558c-.102-.047-.2-.12-.254-.2a.63.63 0 0 1-.115-.31v.694c.01.1.048.22.113.3s.154.164.256.2l2.695 1.558a2.001 2.001 0 0 0 .901.214 1.998 1.998 0 0 0 .901-.214l2.7-1.558c.102-.046.2-.118.257-.2s.106-.198.117-.3zm-6.772 3.222v.706c-.01.112-.052.22-.117.3s-.155.164-.257.2l-2.7 1.558c-.28.142-.6.216-.902.216a1.988 1.988 0 0 1-.902-.216l-2.693-1.558a.625.625 0 0 1-.255-.209.627.627 0 0 1-.114-.3v-.7a.63.63 0 0 0 .115.309.626.626 0 0 0 .254.21l2.695 1.558a1.987 1.987 0 0 0 1.802 0l2.7-1.558a.623.623 0 0 0 .262-.215c.066-.095.105-.205.112-.32zm-6.78 4.6v-.686c-.012.1-.053.217-.118.306s-.154.16-.256.206l-2.7 1.558a2.001 2.001 0 0 1-.901.214 1.998 1.998 0 0 1-.901-.214l-2.695-1.558c-.103-.046-.2-.118-.255-.2s-.105-.198-.114-.3v.693a.636.636 0 0 0 .114.31.633.633 0 0 0 .255.209l2.692 1.558a2.001 2.001 0 0 0 .901.214 1.998 1.998 0 0 0 .901-.214l2.713-1.558c.103-.046.2-.118.257-.2s.106-.198.117-.3zm-6.778 3.228v.694a.64.64 0 0 1-.117.31.658.658 0 0 1-.257.21l-2.713 1.558a1.987 1.987 0 0 1-.901.216 1.984 1.984 0 0 1-.901-.216l-2.693-1.558c-.102-.046-.2-.118-.255-.2a.629.629 0 0 1-.114-.309v-.7c.01.112.05.218.114.3a.633.633 0 0 0 .255.209l2.695 1.558a1.988 1.988 0 0 0 .9.215 1.982 1.982 0 0 0 .9-.215l2.7-1.558c.103-.046.192-.12.257-.2s.106-.2.117-.312zm-6.78 4.607v-.7c-.01.1-.052.218-.117.308a.655.655 0 0 1-.256.21l-2.7 1.557c-.28.143-.6.217-.902.217s-.623-.074-.903-.217l-2.692-1.557c-.102-.046-.2-.12-.255-.2s-.104-.198-.114-.3v.694a.629.629 0 0 0 .114.309c.065.1.153.164.255.2l2.692 1.558a2.001 2.001 0 0 0 .901.214 1.998 1.998 0 0 0 .901-.214l2.714-1.558a.63.63 0 0 0 .256-.21.633.633 0 0 0 .117-.309zm-6.8 3.222v.693c-.01.112-.05.22-.117.3s-.154.164-.257.2l-2.713 1.558a1.987 1.987 0 0 1-1.802 0l-2.695-1.558c-.102-.046-.2-.12-.254-.2a.64.64 0 0 1-.115-.309v-.693a.636.636 0 0 0 .114.31.62.62 0 0 0 .255.209l2.692 1.558a1.999 1.999 0 0 0 1.802 0l2.713-1.558c.103-.046.193-.118.26-.2a.634.634 0 0 0 .118-.31zm-6.76 4.606v-.7c-.012.112-.053.218-.12.3a.631.631 0 0 1-.258.208l-2.713 1.558a1.987 1.987 0 0 1-1.802 0l-2.692-1.558a.62.62 0 0 1-.255-.209.636.636 0 0 1-.114-.31v.693a.641.641 0 0 0 .115.31c.065.092.152.163.254.2l2.695 1.558a1.998 1.998 0 0 0 .901.214 2.001 2.001 0 0 0 .901-.214l2.713-1.558c.103-.046.2-.118.257-.2s.106-.198.117-.3zm-6.8 3.222v.693c-.01.113-.05.22-.118.3s-.155.164-.258.2l-2.7 1.558a1.987 1.987 0 0 1-1.802 0l-2.695-1.558c-.102-.047-.2-.12-.255-.2s-.104-.198-.114-.3v-.693c.01.112.048.218.112.3a.63.63 0 0 0 .254.209l2.695 1.558c.28.142.588.216.9.216a1.987 1.987 0 0 0 .901-.216l2.714-1.558a.631.631 0 0 0 .258-.208c.066-.092.107-.2.118-.3zm-6.778 4.605v-.7c-.012.1-.052.218-.118.308s-.154.163-.256.208l-2.714 1.558a1.984 1.984 0 0 1-.901.216 1.986 1.986 0 0 1-.9-.216l-2.6946-1.558c-.1016-.046-.2-.12-.2537-.2a.64.64 0 0 1-.1151-.309v.693a.633.633 0 0 0 .1147.309c.0648.092.1524.164.254.2l2.6946 1.558c.28.14.6.214.9.214s.622-.074.9-.214l2.7-1.558a.636.636 0 0 0 .258-.21.669.669 0 0 0 .12-.31zm-6.7797 3.224v.693c-.01.112-.0498.22-.1156.3a.637.637 0 0 1-.2583.208l-2.7108 1.558c-.28.142-.5878.216-.9.216a1.987 1.987 0 0 1-.901-.216l-2.6952-1.558c-.1018-.046-.1896-.12-.2543-.2s-.1042-.198-.1144-.3v-.693c.0102.1.0496.218.1144.3s.1525.164.2543.2l2.6952 1.558c.2792.14.588.215.9.215a2.003 2.003 0 0 0 .901-.215l2.7108-1.558c.1025-.046.2-.118.2566-.2a.638.638 0 0 0 .1173-.309zm-6.7795 4.62v-.694c-.0106.112-.0508.22-.1165.3a.64.64 0 0 1-.2574.209l-2.7107 1.558a1.987 1.987 0 0 1-1.802 0l-2.695-1.558a.641.641 0 0 1-.2544-.21.633.633 0 0 1-.1143-.31v.694c.0096.1.0488.218.1137.3s.1528.163.255.2l2.695 1.558a2 2 0 0 0 .901.214c.313 0 .6215-.073.9-.214l2.7107-1.558a.64.64 0 0 0 .2574-.209.631.631 0 0 0 .1165-.31zm-6.782 3.2v.693a.631.631 0 0 1-.117.31.639.639 0 0 1-.257.209l-2.7107 1.558c-.2796.142-.5887.216-.9023.216s-.6227-.074-.9023-.216l-2.6925-1.558a.625.625 0 0 1-.2551-.21c-.0648-.1-.104-.198-.1136-.3v-.693c.0096.112.0488.22.1136.3s.153.164.255.2l2.695 1.558c.2795.14.588.215.9.215a2.001 2.001 0 0 0 .901-.215l2.7107-1.558a.63.63 0 0 0 .258-.208.628.628 0 0 0 .1159-.311zm-11.666 6.006l-2.6952-1.558c-.1018-.046-.1896-.12-.2543-.2s-.1042-.198-.1144-.3v.693c.0096.112.05.22.1137.3a.631.631 0 0 0 .255.209l2.6926 1.558a2.005 2.005 0 0 0 1.8045 0l2.7108-1.558a.639.639 0 0 0 .2566-.21.638.638 0 0 0 .1173-.31v-.693a.628.628 0 0 1-.1163.31.623.623 0 0 1-.2576.209l-2.7108 1.558c-.28.142-.5878.216-.9.216a1.987 1.987 0 0 1-.901-.216zm99.3852-47.835l-2.7 1.558a2.001 2.001 0 0 1-.901.214 1.998 1.998 0 0 1-.901-.214l-2.695-1.558c-.102-.047-.2-.12-.254-.2s-.105-.198-.115-.3v-.693a.64.64 0 0 0 .115.309.643.643 0 0 0 .254.211l2.695 1.557a1.999 1.999 0 0 0 .901.215 1.998 1.998 0 0 0 .9-.215l2.713-1.557c.103-.046.2-.12.257-.2s.106-.198.117-.3v.7a.635.635 0 0 1-.118.312.644.644 0 0 1-.258.21zm-11.294 4.777l-2.695-1.558c-.1-.046-.186-.117-.25-.206s-.104-.193-.116-.302v.7c.01.112.05.218.114.3a.63.63 0 0 0 .254.209l2.695 1.558c.28.142.588.216.9.216a1.984 1.984 0 0 0 .901-.216l2.7-1.558c.103-.044.193-.116.258-.208s.106-.2.116-.3v-.7c-.01.112-.05.22-.117.3s-.156.163-.26.208l-2.7 1.558a1.988 1.988 0 0 1-.9.215 1.982 1.982 0 0 1-.9-.215zm-9.476 2.358l2.695 1.558c.28.142.588.216.9.216a1.984 1.984 0 0 0 .901-.216l2.7-1.558a.636.636 0 0 0 .258-.21.645.645 0 0 0 .119-.31v.68c-.01.112-.05.22-.117.3s-.154.164-.257.2l-2.7 1.558a1.998 1.998 0 0 1-1.802 0l-2.695-1.558a.633.633 0 0 1-.255-.209.636.636 0 0 1-.114-.31v-.693a.642.642 0 0 0 .11.316.638.638 0 0 0 .256.216zm-4.083 5.47l-2.695-1.558c-.104-.045-.195-.116-.262-.208s-.1-.2-.12-.3v.693a.636.636 0 0 0 .114.31.633.633 0 0 0 .255.209l2.692 1.558c.282.144.593.22.9.22s.628-.075.9-.22l2.7-1.558c.102-.046.2-.118.257-.2s.106-.198.117-.3v-.693a.641.641 0 0 1-.116.31.636.636 0 0 1-.258.21l-2.7 1.558a1.999 1.999 0 0 1-1.802 0zm-9.482 2.358l2.695 1.558a1.987 1.987 0 0 0 1.802 0l2.7-1.558a.62.62 0 0 0 .258-.21c.066-.093.106-.198.116-.3v.7c-.01.112-.05.218-.117.3s-.154.163-.257.2l-2.7 1.558c-.28.14-.6.214-.903.214s-.622-.073-.902-.214l-2.692-1.558c-.102-.046-.2-.118-.255-.2a.629.629 0 0 1-.114-.309v-.694a.635.635 0 0 0 .114.31.617.617 0 0 0 .255.211zm-4.077 5.472l-2.695-1.558c-.103-.045-.2-.117-.256-.2a.618.618 0 0 1-.113-.31v.693c.01.112.05.22.114.3s.153.164.255.2l2.693 1.557a1.985 1.985 0 0 0 .901.217 1.984 1.984 0 0 0 .9-.217l2.714-1.557c.102-.046.2-.118.257-.2s.106-.198.117-.3v-.693a.634.634 0 0 1-.118.31.636.636 0 0 1-.256.209l-2.7 1.558a1.988 1.988 0 0 1-.9.215 1.982 1.982 0 0 1-.9-.215zm-9.474 2.357l2.692 1.558c.28.142.6.216.902.216s.623-.074.903-.216l2.7-1.558c.103-.046.2-.12.257-.2s.106-.198.117-.3v.7c-.01.112-.05.22-.117.3s-.154.163-.257.2l-2.713 1.558a1.999 1.999 0 0 1-.901.215 1.998 1.998 0 0 1-.9-.215l-2.692-1.558a.633.633 0 0 1-.255-.209c-.065-.092-.104-.198-.114-.3v-.693a.625.625 0 0 0 .113.311.626.626 0 0 0 .256.211zm-4.087 5.47l-2.693-1.558c-.103-.045-.192-.117-.257-.2s-.105-.2-.114-.3v.694c.01.1.05.217.115.3s.152.163.254.2l2.695 1.558a1.984 1.984 0 0 0 .901.216 1.987 1.987 0 0 0 .901-.216l2.713-1.558c.103-.046.2-.118.257-.2a.64.64 0 0 0 .117-.31v-.694c-.01.112-.052.22-.117.3a.648.648 0 0 1-.257.21l-2.713 1.558c-.28.14-.588.215-.9.215a1.999 1.999 0 0 1-.901-.215zm-9.472 2.357l2.692 1.558a1.987 1.987 0 0 0 1.802 0l2.714-1.558c.102-.046.2-.118.257-.2s.106-.198.116-.3v.693c-.01.112-.05.22-.117.3a.636.636 0 0 1-.256.209l-2.713 1.56a1.999 1.999 0 0 1-.901.215 1.998 1.998 0 0 1-.9-.215l-2.695-1.558a.719.719 0 0 1-.253-.2c-.063-.08-.105-.198-.116-.3v-.693a.63.63 0 0 0 .115.31c.065.092.154.164.257.2zm-4.087 5.47l-2.695-1.558a.629.629 0 0 1-.256-.209c-.065-.1-.104-.2-.113-.3v.693a.64.64 0 0 0 .115.309c.065.1.152.164.254.2l2.695 1.558a1.987 1.987 0 0 0 1.802 0l2.7-1.558a.637.637 0 0 0 .26-.208c.067-.09.107-.2.118-.3v-.693c-.01.112-.052.218-.117.3s-.154.163-.257.2l-2.713 1.558c-.28.14-.588.215-.9.215a1.999 1.999 0 0 1-.901-.215zm-9.4748 2.364l2.6948 1.558a1.987 1.987 0 0 0 .901.216 1.984 1.984 0 0 0 .901-.216l2.714-1.558c.102-.046.2-.118.257-.2a.65.65 0 0 0 .117-.311v.694a.645.645 0 0 1-.119.31.661.661 0 0 1-.258.21l-2.7 1.558a1.998 1.998 0 0 1-.901.214 2.001 2.001 0 0 1-.901-.214l-2.6948-1.558c-.1018-.046-.1896-.12-.2543-.2s-.1043-.198-.1144-.3v-.694c.0107.112.0503.218.115.3a.625.625 0 0 0 .2537.21zm.8048 4.067v-.693a.642.642 0 0 1-.1161.31.635.635 0 0 1-.2552.209l-2.7133 1.558a2.001 2.001 0 0 1-1.802 0l-2.695-1.558c-.1014-.046-.1887-.12-.2534-.2s-.1044-.198-.1153-.3v.693a.633.633 0 0 0 .1143.31.641.641 0 0 0 .2544.21l2.695 1.558a1.987 1.987 0 0 0 1.802 0l2.7107-1.558a.629.629 0 0 0 .2584-.208.628.628 0 0 0 .1155-.312zm-11.666 6.013l-2.6952-1.558c-.1018-.046-.1896-.12-.2543-.2s-.1042-.198-.1144-.3v-.694a.633.633 0 0 0 .1144.31c.0647.1.1525.163.2543.2l2.6952 1.558a1.987 1.987 0 0 0 1.802 0l2.7108-1.558a.622.622 0 0 0 .2588-.21.638.638 0 0 0 .1177-.31v.694a.631.631 0 0 1-.1166.31.639.639 0 0 1-.2573.209l-2.7108 1.558a2.005 2.005 0 0 1-.9022.215c-.3135 0-.6225-.074-.9023-.215zm-6.7897 3.215l-2.6952-1.557a.643.643 0 0 1-.254-.211.633.633 0 0 1-.1147-.309v.693c.0096.112.05.22.1137.3s.153.164.255.2l2.6952 1.558a1.987 1.987 0 0 0 1.802 0l2.7108-1.558c.1026-.046.1913-.118.257-.2a.647.647 0 0 0 .117-.31v-.693a.629.629 0 0 1-.1159.311c-.0658.1-.155.163-.258.2l-2.7108 1.557c-.2794.14-.588.215-.9.215a1.993 1.993 0 0 1-.9-.215zm99.3937-47.83l-2.7 1.558a1.987 1.987 0 0 1-1.802 0l-2.695-1.558c-.102-.046-.2-.12-.254-.2s-.104-.198-.115-.3v-.693a.636.636 0 0 0 .114.31.633.633 0 0 0 .255.209l2.693 1.558a1.983 1.983 0 0 0 .901.215 1.985 1.985 0 0 0 .9-.215l2.713-1.558c.102-.046.2-.118.257-.2s.106-.198.117-.3v.693a.64.64 0 0 1-.117.311c-.066.1-.154.163-.257.208zm-6.78 3.223l-2.713 1.558c-.28.138-.6.2-.903.205s-.62-.08-.9-.226l-2.695-1.558c-.102-.047-.2-.12-.254-.2s-.104-.198-.115-.3v.693a.64.64 0 0 0 .115.309c.065.1.152.164.254.2l2.695 1.558a2.001 2.001 0 0 0 .901.214 1.998 1.998 0 0 0 .901-.214l2.7-1.558a.628.628 0 0 0 .258-.21.634.634 0 0 0 .118-.31v-.673c-.01.112-.05.22-.117.3s-.154.164-.257.2zm-6.77 4.598l-2.7 1.558a1.987 1.987 0 0 1-.901.216 1.984 1.984 0 0 1-.901-.216l-2.695-1.558c-.102-.046-.2-.12-.255-.2a.629.629 0 0 1-.114-.309v-.693c.01.1.05.217.115.308a.635.635 0 0 0 .254.211l2.695 1.558a1.999 1.999 0 0 0 .901.215 1.998 1.998 0 0 0 .9-.215l2.713-1.558c.102-.046.2-.118.257-.2s.106-.198.117-.3v.693c-.01.112-.05.22-.117.3a.615.615 0 0 1-.26.208zm-9.5 5.474l2.7-1.557a.639.639 0 0 0 .259-.21c.066-.092.107-.2.117-.312v-.7a.634.634 0 0 1-.118.31.636.636 0 0 1-.258.21l-2.7 1.558a1.987 1.987 0 0 1-1.802 0l-2.695-1.558c-.102-.046-.2-.118-.255-.2s-.104-.198-.114-.3v.693c.01.112.05.218.115.3s.152.164.254.2l2.695 1.557a1.999 1.999 0 0 0 .901.215 1.998 1.998 0 0 0 .9-.215z"/><path d="M153.568 124.995l-2.7 1.557a1.985 1.985 0 0 1-.901.217c-.313 0-.62-.075-.9-.217l-2.695-1.557c-.102-.046-.2-.12-.255-.2a.618.618 0 0 1-.113-.31v-.693c.01.112.048.218.113.3a.633.633 0 0 0 .255.209l2.695 1.558a1.988 1.988 0 0 0 .9.215 1.982 1.982 0 0 0 .9-.215l2.7-1.558a.631.631 0 0 0 .258-.208.629.629 0 0 0 .116-.311v.693c-.01.112-.05.22-.117.3a.633.633 0 0 1-.257.21zm-9.5 5.473l2.7-1.558a.636.636 0 0 0 .256-.209c.066-.092.106-.198.118-.3v-.694c-.01.113-.05.22-.116.312a.631.631 0 0 1-.258.208l-2.7 1.558a1.987 1.987 0 0 1-1.802 0l-2.695-1.558c-.102-.047-.2-.12-.255-.2s-.104-.198-.114-.3v.694a.629.629 0 0 0 .114.309c.065.092.153.164.255.2l2.692 1.558c.28.14.6.214.903.214s.622-.073.902-.214zM140 132.823l-2.713 1.558a1.987 1.987 0 0 1-1.802 0l-2.693-1.558c-.102-.046-.2-.118-.255-.2s-.104-.198-.113-.3v-.694a.625.625 0 0 0 .113.311.633.633 0 0 0 .255.209l2.696 1.558a1.996 1.996 0 0 0 .901.215 1.998 1.998 0 0 0 .9-.215l2.7-1.558a.636.636 0 0 0 .258-.21c.066-.092.106-.2.116-.3v.694a.64.64 0 0 1-.117.31.632.632 0 0 1-.257.209zm-9.493 5.473l2.713-1.558a.636.636 0 0 0 .256-.209.634.634 0 0 0 .118-.31v-.693c-.01.112-.05.22-.117.3s-.155.163-.257.2l-2.7 1.558c-.28.142-.6.216-.902.216a1.988 1.988 0 0 1-.902-.216l-2.693-1.558a.633.633 0 0 1-.255-.209.636.636 0 0 1-.114-.31v.693c.01.112.05.22.114.3a.625.625 0 0 0 .255.209l2.693 1.558a1.999 1.999 0 0 0 .901.215c.312 0 .62-.074.9-.215zm-4.067 2.354l-2.713 1.558a1.987 1.987 0 0 1-1.802 0l-2.695-1.558c-.102-.046-.2-.118-.254-.2s-.103-.198-.112-.3v-.693a.629.629 0 0 0 .114.309c.065.092.153.164.255.2l2.692 1.558a2.001 2.001 0 0 0 .901.214 1.998 1.998 0 0 0 .901-.214l2.713-1.558c.103-.046.2-.118.257-.2s.106-.198.117-.3v.693c-.01.112-.05.22-.117.3s-.154.164-.257.2zm-9.492 5.475l2.713-1.558c.1-.046.2-.118.254-.208a.632.632 0 0 0 .117-.306v-.694a.64.64 0 0 1-.117.311.632.632 0 0 1-.257.209l-2.713 1.558a1.987 1.987 0 0 1-1.802 0l-2.692-1.558c-.103-.046-.2-.118-.255-.2s-.105-.198-.114-.3v.7c.01.1.05.217.115.308a.635.635 0 0 0 .254.211l2.695 1.558a1.998 1.998 0 0 0 .901.214 2.001 2.001 0 0 0 .901-.214zm-4.068 2.355l-2.7 1.558a1.987 1.987 0 0 1-1.802 0l-2.695-1.558a.65.65 0 0 1-.254-.211c-.064-.1-.104-.197-.115-.3v-.693c.01.112.05.22.114.3a.633.633 0 0 0 .255.209l2.693 1.558a1.999 1.999 0 0 0 .901.215 1.998 1.998 0 0 0 .9-.215l2.713-1.558c.102-.046.2-.118.257-.2s.106-.198.117-.3v.693c-.01.112-.05.22-.117.3a.632.632 0 0 1-.257.209zm-9.48 5.473l2.7-1.558c.103-.045.2-.117.257-.208a.619.619 0 0 0 .119-.308v-.694a.623.623 0 0 1-.117.31c-.065.092-.154.164-.257.2l-2.713 1.558a1.987 1.987 0 0 1-1.802 0l-2.695-1.558a.643.643 0 0 1-.2536-.211c-.0648-.1-.1044-.197-.115-.3v.7c.0102.1.0497.218.1144.3s.1525.164.2543.2l2.695 1.558a2.001 2.001 0 0 0 .901.214 1.998 1.998 0 0 0 .901-.214zm-4.08 2.355l-2.7108 1.558c-.28.142-.5878.216-.9.216a1.987 1.987 0 0 1-.901-.216l-2.6952-1.558c-.1018-.046-.1896-.12-.2543-.2s-.1042-.198-.1144-.3v-.693a.639.639 0 0 0 .1154.308.643.643 0 0 0 .2533.211l2.6952 1.558c.2794.14.588.214.9.214a2.003 2.003 0 0 0 .901-.214l2.7134-1.558c.1025-.046.2-.118.2566-.2a.638.638 0 0 0 .1173-.309v.693c-.01.112-.0504.22-.1167.3s-.156.164-.2598.208zm-11.287 4.78l-2.695-1.558a.636.636 0 0 1-.2507-.203c-.0647-.088-.1053-.192-.118-.3v.7a.636.636 0 0 0 .1144.31c.0647.1.1525.163.2543.2l2.6977 1.545a2.013 2.013 0 0 0 .901.214c.313 0 .6216-.074.9-.214l2.7107-1.558c.1028-.046.1917-.118.2574-.2a.638.638 0 0 0 .1165-.311V159a.633.633 0 0 1-.3765.519l-2.7107 1.558a1.987 1.987 0 0 1-1.802 0zm91.802-48.354v-.693a.618.618 0 0 0 .113.309c.065.092.153.164.255.2l2.693 1.558a1.987 1.987 0 0 0 1.802 0l2.713-1.558a.633.633 0 0 0 .257-.21.639.639 0 0 0 .117-.31v.68c-.01.112-.052.22-.117.3s-.154.163-.257.2l-2.713 1.558a2.001 2.001 0 0 1-.901.214 1.998 1.998 0 0 1-.901-.214l-2.695-1.558c-.1-.046-.185-.117-.25-.205s-.105-.192-.117-.3zm-6.78 3.222v.693a.649.649 0 0 0 .114.309.637.637 0 0 0 .252.211l2.695 1.558c.28.142.588.216.9.216a1.984 1.984 0 0 0 .901-.216l2.7-1.558c.103-.046.193-.117.26-.2a.634.634 0 0 0 .118-.311v-.693c-.012.112-.052.22-.118.3a.636.636 0 0 1-.256.209l-2.714 1.558a1.988 1.988 0 0 1-1.8 0l-2.692-1.558c-.103-.045-.2-.117-.256-.2a.618.618 0 0 1-.113-.31zm-6.78 4.606v-.693a.63.63 0 0 0 .115.309c.064.1.152.164.253.2l2.696 1.558a1.984 1.984 0 0 0 .901.216 1.986 1.986 0 0 0 .9-.216l2.713-1.558c.103-.045.2-.118.257-.2s.106-.198.117-.3v.7c-.012.112-.052.22-.12.3s-.155.163-.258.2l-2.7 1.558a2.001 2.001 0 0 1-.901.214 1.998 1.998 0 0 1-.901-.214l-2.696-1.558a.635.635 0 0 1-.253-.21.64.64 0 0 1-.115-.308zm-6.78 3.223v.693a.645.645 0 0 0 .116.31.629.629 0 0 0 .256.209l2.695 1.558a1.987 1.987 0 0 0 1.802 0l2.7-1.558a.637.637 0 0 0 .26-.208.618.618 0 0 0 .115-.311v-.693a.633.633 0 0 1-.374.519l-2.713 1.558a1.999 1.999 0 0 1-1.802 0l-2.695-1.558a.626.626 0 0 1-.254-.21.63.63 0 0 1-.115-.309zm-6.78 4.605v-.694c.01.112.05.22.114.3s.153.163.255.2l2.695 1.558a1.987 1.987 0 0 0 1.802 0l2.7-1.558a.622.622 0 0 0 .259-.209.634.634 0 0 0 .118-.311v.694c-.01.112-.05.22-.117.3a.632.632 0 0 1-.257.209l-2.7 1.558a1.998 1.998 0 0 1-.901.214 2.001 2.001 0 0 1-.901-.214l-2.695-1.558c-.102-.046-.2-.118-.256-.2s-.105-.2-.115-.3zm-6.78 3.223v.693c.01.112.05.22.115.3a.651.651 0 0 0 .257.21l2.695 1.557a1.988 1.988 0 0 0 1.802 0l2.7-1.557c.102-.046.2-.118.257-.2s.106-.198.116-.3v-.693a.634.634 0 0 1-.118.31c-.066.1-.155.164-.258.2l-2.7 1.558a1.998 1.998 0 0 1-.901.214 2.001 2.001 0 0 1-.901-.214l-2.695-1.558a.633.633 0 0 1-.255-.209c-.065-.092-.104-.198-.114-.3zm-6.78 4.607v-.693a.65.65 0 0 0 .114.31c.064.092.153.164.255.2l2.695 1.558a1.987 1.987 0 0 0 1.802 0l2.7-1.558a.631.631 0 0 0 .258-.208c.066-.1.106-.2.115-.3v.693c-.01.112-.05.22-.117.3a.636.636 0 0 1-.256.209l-2.7 1.558c-.28.14-.6.215-.902.215s-.623-.074-.903-.215l-2.692-1.558a.625.625 0 0 1-.255-.209.627.627 0 0 1-.114-.3zm-6.778 3.22v.694a.618.618 0 0 0 .113.309c.065.092.153.164.255.2l2.693 1.558a1.987 1.987 0 0 0 1.802 0l2.713-1.558c.103-.046.2-.118.257-.2s.106-.198.117-.3v-.694a.64.64 0 0 1-.117.311.632.632 0 0 1-.257.209l-2.7 1.558c-.28.14-.588.214-.9.214s-.62-.074-.9-.214l-2.695-1.558a.626.626 0 0 1-.254-.21c-.065-.1-.105-.198-.114-.3zm-6.78 4.608v-.7c.01.112.05.22.114.3s.153.164.255.2l2.692 1.558c.282.144.593.22.9.22s.628-.075.9-.22l2.7-1.558c.102-.046.2-.118.257-.2a.65.65 0 0 0 .117-.311v.694c-.012.112-.052.218-.118.3a.636.636 0 0 1-.256.209l-2.714 1.558a1.998 1.998 0 0 1-.901.214 2.001 2.001 0 0 1-.901-.214l-2.692-1.558a.629.629 0 0 1-.264-.209.636.636 0 0 1-.118-.315zm-6.78 3.222v.693c.01.112.05.22.113.3a.633.633 0 0 0 .255.209l2.693 1.558a1.987 1.987 0 0 0 1.802 0l2.713-1.558a.619.619 0 0 0 .257-.21c.065-.092.106-.198.117-.3v-.693c-.01.112-.05.218-.117.3s-.154.163-.257.2l-2.7 1.558c-.28.14-.6.214-.903.214s-.622-.073-.902-.214l-2.693-1.558c-.102-.046-.2-.118-.254-.2a.629.629 0 0 1-.114-.309zm-6.782 4.606v-.7c.01.112.05.22.113.3s.153.164.255.2l2.693 1.558a1.987 1.987 0 0 0 1.802 0l2.713-1.558c.103-.046.192-.118.257-.2s.106-.198.117-.3v.694a.633.633 0 0 1-.374.519l-2.713 1.558a2.001 2.001 0 0 1-.901.214 1.998 1.998 0 0 1-.901-.214l-2.695-1.558c-.102-.047-.2-.12-.253-.212s-.103-.2-.113-.3zm-6.78 3.222v.693a.649.649 0 0 0 .114.309.637.637 0 0 0 .252.211l2.696 1.558a1.983 1.983 0 0 0 1.801 0l2.714-1.558c.102-.046.2-.118.257-.2a.65.65 0 0 0 .117-.311v-.693a.634.634 0 0 1-.118.31c-.065.1-.154.163-.256.2l-2.714 1.557a1.999 1.999 0 0 1-.901.215 1.998 1.998 0 0 1-.9-.215l-2.693-1.557c-.102-.047-.2-.12-.255-.2s-.104-.198-.114-.3zm-6.7792 4.62v-.7a.628.628 0 0 0 .1126.309.629.629 0 0 0 .2535.21l2.695 1.558a1.987 1.987 0 0 0 1.802 0l2.713-1.558a.632.632 0 0 0 .374-.509v.693a.634.634 0 0 1-.118.31c-.066.1-.155.164-.258.2l-2.7 1.558a1.998 1.998 0 0 1-.901.214 2.001 2.001 0 0 1-.901-.214l-2.7003-1.56a.635.635 0 0 1-.25-.212c-.0635-.092-.1016-.197-.1-.308zm-3.7182 5.287l-2.695-1.558a.649.649 0 0 1-.2552-.214.645.645 0 0 1-.1135-.313v.693c.01.112.0496.218.1143.3a.625.625 0 0 0 .2544.21l2.695 1.558a1.987 1.987 0 0 0 .901.215 1.98 1.98 0 0 0 .9-.215l2.7107-1.558a.633.633 0 0 0 .2592-.208.631.631 0 0 0 .1173-.311v-.685a.637.637 0 0 1-.1172.309.633.633 0 0 1-.2567.21l-2.7133 1.558c-.2795.14-.588.214-.9.214a2 2 0 0 1-.901-.214z"/></g><g class="C"><use xlink:href="#D"/><use xlink:href="#E"/><path d="M153.654 108.644l-2.71 1.558a1.984 1.984 0 0 1-.901.216 1.987 1.987 0 0 1-.901-.216l-2.695-1.558c-.493-.285-.5-.755 0-1.038l2.714-1.558a1.998 1.998 0 0 1 .901-.214 2.001 2.001 0 0 1 .901.214l2.692 1.558c.5.283.5.753 0 1.038z"/><use xlink:href="#F"/><use xlink:href="#G"/><path d="M130.605 121.946l2.71-1.558c.496-.285.498-.755 0-1.038l-2.695-1.558a1.987 1.987 0 0 0-1.802 0l-2.71 1.558c-.49.28-.493.75 0 1.038l2.693 1.558a1.988 1.988 0 0 0 .902.216c.313 0 .623-.074.902-.216z"/><use xlink:href="#H"/><use xlink:href="#I"/><use xlink:href="#J"/><use xlink:href="#K"/><path d="M99.416 139.96l-2.7107 1.558c-.2793.14-.588.215-.9.215a2 2 0 0 1-.901-.215l-2.695-1.558c-.4933-.286-.4907-.756 0-1.04l2.7107-1.558a1.987 1.987 0 0 1 1.802 0l2.6925 1.558c.5038.283.5012.75.0026 1.04zm-9.5 5.477l2.7107-1.558c.5-.3.5-.76 0-1.04l-2.6925-1.558a2 2 0 0 0-.901-.214c-.313 0-.6215.073-.9.214L85.43 142.84c-.4908.283-.4934.75 0 1.04l2.695 1.558a1.987 1.987 0 0 0 1.802 0z"/><use xlink:href="#L"/><path d="M74.5884 149.1l-2.7133 1.558c-.496.288-.4985.75 0 1.04l2.695 1.558a1.987 1.987 0 0 0 1.802 0l2.7107-1.558c.4934-.28.496-.75 0-1.04l-2.6925-1.558c-.2795-.14-.588-.214-.9-.214a2.013 2.013 0 0 0-.901.214z"/><use xlink:href="#M"/><use xlink:href="#N"/><use xlink:href="#O"/><use xlink:href="#P"/><use xlink:href="#Q"/><use xlink:href="#R"/><use xlink:href="#S"/><use xlink:href="#T"/><use xlink:href="#U"/><use xlink:href="#V"/><path d="M98.9513 142.84l2.7107-1.558a1.998 1.998 0 0 1 1.802 0l2.695 1.558c.493.288.5.758 0 1.04l-2.713 1.558a1.987 1.987 0 0 1-1.802 0l-2.6953-1.558c-.4985-.294-.496-.76.0026-1.04zm-2.2953 6.507l2.7133-1.558c.5-.275.5037-.758 0-1.054l-2.6978-1.542c-.28-.142-.5878-.216-.9-.216a1.987 1.987 0 0 0-.901.216l-2.7108 1.558c-.4907.28-.4933.75 0 1.038l2.6952 1.558a2 2 0 0 0 1.802 0zm-8.5762 3.92l-2.6952-1.558c-.4933-.286-.4907-.756 0-1.04l2.7134-1.558c.2794-.14.588-.214.9-.214s.6216.074.9.214l2.6926 1.558c.496.288.4933.758 0 1.04l-2.7107 1.558a1.987 1.987 0 0 1-1.802 0z"/><use xlink:href="#W"/><use xlink:href="#X"/><use xlink:href="#Y"/><use xlink:href="#Z"/><use xlink:href="#a"/><use xlink:href="#b"/><path d="M144.076 129.775l2.7-1.558c.5-.286.502-.756 0-1.04l-2.692-1.558a2.001 2.001 0 0 0-.901-.214 1.998 1.998 0 0 0-.901.214l-2.713 1.558c-.49.283-.494.75 0 1.04l2.695 1.558a1.987 1.987 0 0 0 1.802 0z"/><use xlink:href="#c"/><path d="M130.517 137.603l2.71-1.558c.495-.285.498-.755 0-1.038l-2.696-1.558a1.993 1.993 0 0 0-1.799 0l-2.713 1.558c-.49.283-.494.75 0 1.038l2.692 1.558c.28.142.59.216.903.216s.622-.074.902-.216z"/><use xlink:href="#d"/><path d="M116.955 145.437l2.714-1.558c.496-.29.498-.76 0-1.04l-2.695-1.558c-.28-.14-.59-.214-.9-.214a1.998 1.998 0 0 0-.901.214l-2.71 1.558c-.494.283-.496.753 0 1.04l2.692 1.558a1.987 1.987 0 0 0 .901.216 1.984 1.984 0 0 0 .901-.216z"/><use xlink:href="#e"/><use xlink:href="#f"/><use xlink:href="#g"/><use xlink:href="#h"/><use xlink:href="#i"/><use xlink:href="#j"/><use xlink:href="#k"/><use xlink:href="#l"/><use xlink:href="#m"/><use xlink:href="#n"/><use xlink:href="#o"/><use xlink:href="#p"/><use xlink:href="#q"/><use xlink:href="#r"/><use xlink:href="#s"/><use xlink:href="#t"/><use xlink:href="#u"/><path d="M94.7943 160.844l-2.7107 1.558c-.5038.286-.5038.756-.0026 1.04L94.776 165a2 2 0 0 0 .901.214c.313 0 .6215-.073.9-.214l2.7133-1.558c.4908-.283.4934-.753 0-1.04l-2.695-1.558a1.987 1.987 0 0 0-1.802 0z"/></g><g opacity=".4" class="B"><use xlink:href="#D"/><use xlink:href="#E"/><path d="M153.654 108.644l-2.71 1.558a1.984 1.984 0 0 1-.901.216 1.987 1.987 0 0 1-.901-.216l-2.695-1.558c-.493-.285-.5-.755 0-1.038l2.714-1.558a1.998 1.998 0 0 1 .901-.214c.312 0 .62.073.9.214l2.692 1.558c.5.283.5.753 0 1.038z"/><use xlink:href="#F"/><use xlink:href="#G"/><path d="M130.605 121.946l2.71-1.558c.496-.285.498-.755 0-1.038l-2.695-1.558a1.987 1.987 0 0 0-.901-.216 1.984 1.984 0 0 0-.901.216l-2.71 1.558c-.49.28-.493.75 0 1.038l2.693 1.558a1.988 1.988 0 0 0 .902.216c.313 0 .623-.074.902-.216z"/><use xlink:href="#H"/><use xlink:href="#I"/><use xlink:href="#J"/><use xlink:href="#K"/><path d="M99.416 139.96l-2.7107 1.558c-.2793.14-.588.215-.9.215a2 2 0 0 1-.901-.215l-2.695-1.558c-.4933-.286-.4908-.756 0-1.04l2.7107-1.558a1.987 1.987 0 0 1 1.802 0l2.6925 1.558c.5038.283.5012.75.0026 1.04zm-9.5 5.477l2.7107-1.558c.5-.3.5-.76 0-1.04l-2.6925-1.558a2.013 2.013 0 0 0-.901-.214c-.313 0-.6216.074-.9.214l-2.7134 1.558c-.4907.283-.4933.75 0 1.04l2.6952 1.558a1.987 1.987 0 0 0 1.802 0z"/><use xlink:href="#L"/><path d="M74.5884 149.1l-2.7133 1.558c-.496.288-.4985.75 0 1.04l2.695 1.558a1.987 1.987 0 0 0 1.802 0l2.7107-1.558c.4934-.28.496-.75 0-1.04l-2.6925-1.558a2.013 2.013 0 0 0-1.802 0z"/><use xlink:href="#M"/><use xlink:href="#N"/><use xlink:href="#O"/><use xlink:href="#P"/><use xlink:href="#Q"/><use xlink:href="#R"/><use xlink:href="#S"/><use xlink:href="#T"/><use xlink:href="#U"/><use xlink:href="#V"/><path d="M98.9513 142.84l2.7107-1.558c.28-.14.588-.214.9-.214a2.007 2.007 0 0 1 .9.214l2.695 1.558c.493.288.5.758 0 1.04l-2.713 1.558a1.987 1.987 0 0 1-1.802 0l-2.6953-1.558c-.4985-.294-.496-.76.0026-1.04zm-2.2953 6.507l2.7133-1.558c.5-.275.5037-.758 0-1.054l-2.6978-1.542c-.28-.142-.5878-.216-.9-.216a1.987 1.987 0 0 0-.901.216l-2.7108 1.558c-.4907.28-.4933.75 0 1.038l2.6952 1.558c.2795.14.588.214.9.214a2 2 0 0 0 .901-.214zm-8.5762 3.92l-2.6952-1.558c-.4933-.286-.4907-.756 0-1.04l2.7134-1.558c.2794-.14.588-.214.9-.214s.6216.074.9.214l2.6926 1.558c.496.288.4933.758 0 1.04l-2.7108 1.558c-.28.142-.5878.216-.9.216a1.987 1.987 0 0 1-.901-.216z"/><use xlink:href="#W"/><use xlink:href="#X"/><use xlink:href="#Y"/><use xlink:href="#Z"/><use xlink:href="#a"/><use xlink:href="#b"/><path d="M144.076 129.775l2.7-1.558c.5-.286.502-.756 0-1.04l-2.692-1.558a2.001 2.001 0 0 0-.901-.214 1.998 1.998 0 0 0-.901.214l-2.713 1.558c-.49.283-.494.75 0 1.04l2.695 1.558a1.984 1.984 0 0 0 .901.216 1.987 1.987 0 0 0 .901-.216z"/><use xlink:href="#c"/><path d="M130.517 137.603l2.71-1.558c.495-.285.498-.755 0-1.038l-2.696-1.558a1.993 1.993 0 0 0-1.799 0l-2.713 1.558c-.49.283-.494.75 0 1.038l2.692 1.558c.28.142.59.216.902.216s.623-.074.903-.216z"/><use xlink:href="#d"/><path d="M116.955 145.437l2.714-1.558c.496-.29.498-.76 0-1.04l-2.696-1.558c-.28-.14-.588-.214-.9-.214s-.622.074-.9.214l-2.71 1.558c-.494.283-.496.753 0 1.04l2.692 1.558a1.987 1.987 0 0 0 .901.216 1.984 1.984 0 0 0 .901-.216z"/><use xlink:href="#e"/><use xlink:href="#f"/><use xlink:href="#g"/><use xlink:href="#h"/><use xlink:href="#i"/><use xlink:href="#j"/><use xlink:href="#k"/><use xlink:href="#l"/><use xlink:href="#m"/><use xlink:href="#n"/><use xlink:href="#o"/><use xlink:href="#p"/><use xlink:href="#q"/><use xlink:href="#r"/><use xlink:href="#s"/><use xlink:href="#t"/><use xlink:href="#u"/><path d="M94.7943 160.844l-2.7108 1.558c-.5037.286-.5037.756-.0025 1.04L94.776 165a2 2 0 0 0 1.802 0l2.7133-1.558c.4907-.283.4933-.753 0-1.04l-2.695-1.558a1.987 1.987 0 0 0-1.802 0z"/></g><g class="C"><use xlink:href="#v"/><use xlink:href="#w"/><use xlink:href="#x"/><use xlink:href="#y"/></g><g class="B"><use xlink:href="#v" class="E"/><use xlink:href="#w" class="E"/><use xlink:href="#x" class="E"/><use xlink:href="#y" class="E"/></g><g class="C"><path d="M147.752 68.4864L71.3425 112.6c-.6438.42-1.1795.984-1.5634 1.65s-.605 1.412-.6453 2.18c0 1.392.9976 1.977 2.2226 1.272l76.4096-44.114a4.877 4.877 0 0 0 1.564-1.6513 4.862 4.862 0 0 0 .644-2.1815c-.004-1.4245-.997-1.972-2.222-1.2668zM71.3427 107.014l60.4793-34.9175c.644-.4188 1.18-.984 1.564-1.6492s.605-1.412.645-2.18c0-1.392-.998-1.9767-2.227-1.2668L71.315 101.92a4.871 4.871 0 0 0-1.566 1.648 4.874 4.874 0 0 0-.6473 2.18c.0046 1.406 1.0022 1.972 2.24 1.267zm-.0463-10.682l49.4086-28.5276a4.853 4.853 0 0 0 1.564-1.6483 4.855 4.855 0 0 0 .644-2.1798c0-1.392-.997-1.972-2.222-1.2667l-49.4086 28.523c-.6438.4188-1.1795.984-1.5633 1.6492s-.605 1.412-.6454 2.18c.0047 1.4106.9977 1.9767 2.2227 1.2714zm-.028-10.6864l66.7765-38.555a4.892 4.892 0 0 0 2.213-3.8282c0-1.392-1.002-1.9767-2.227-1.2667L71.2546 80.546c-.6456.4185-1.1828.984-1.5675 1.6503s-.606 1.414-.6458 2.1824c.0046 1.406 1.0022 1.972 2.2272 1.2668z"/><use xlink:href="#z" class="D"/></g><use xlink:href="#z" opacity=".7" class="B D"/><g class="C D"><path d="M60.3015 103.5l14.8305 8.618c4.6732 2.714 4.6552 5.96-.072 8.684l-3.6284 2.093-6.4495-3.747 3.1167-1.802c.8215-.475.825-1.243-.036-1.743l-14.326-8.324c-1.625-.944-2.688-2.154-3.088-3.513l-.3603-1.326-2.2916-.21c-2.122-.167-4.185-.78-6.0532-1.8l-14.3224-8.3197a3.243 3.243 0 0 0-1.4773-.356c-.5136 0-1.02.122-1.4773.356L21.55 93.902l-6.4856-3.7797 3.6283-2.097C20.9664 86.699 23.5515 86 26.1837 86s5.2172.699 7.4908 2.0252l14.8304 8.615c.335.179.7027.2893 1.08.3243l5.5524.562c1.8844.21 3.2968 1.045 3.657 2.1258l.9476 3.2176c.1014.27.301.49.5585.62zm-7.8474 22.37a3.268 3.268 0 0 0 1.5059-.351l3.1348-1.797 6.4495 3.747-3.632 2.097a14.803 14.803 0 0 1-7.4891 2.035c-2.633 0-5.2182-.703-7.49-2.035l-14.8305-8.62c-.3332-.183-.7017-.294-1.081-.324l-5.5488-.562c-1.8844-.206-3.2968-1.042-3.6572-2.122l-.9512-3.218c-.1073-.266-.3034-.486-.5548-.623l-14.8305-8.615c-4.6192-2.688-4.6372-5.9636.0468-8.6804l3.632-2.0934 6.4856 3.776-3.1167 1.8017c-.807.472-.8143 1.24 0 1.71l14.3116 8.316c1.625.944 2.6915 2.155 3.088 3.5l.3603 1.33 2.2915.21c2.122.168 4.1847.782 6.0533 1.802l14.3223 8.327a3.279 3.279 0 0 0 1.4991.379z"/><use xlink:href="#AA"/></g><use xlink:href="#AA" opacity=".4" class="B D"/><use xlink:href="#AB" class="C D"/><use xlink:href="#AB" opacity=".7" class="B D"/><use xlink:href="#AC" class="C D"/><use xlink:href="#AC" opacity=".4" class="B D"/><defs ><path id="B" d="M234.468 137.785l-108.448 62.61c-1.243.72-2.654 1.097-4.09 1.097s-2.847-.378-4.1-1.097L47.0894 159.55c-1.243-.72-2.2752-1.75-2.993-2.995s-1.096-2.653-1.0964-4.09V70.7694c.0005-1.4356.3786-2.846 1.0964-4.089s1.75-2.276 2.993-2.9942L155.514 1.1A8.171 8.171 0 0 1 159.573 0a8.172 8.172 0 0 1 4.065 1.0718l2.73 1.558L51.7345 66.3683c-1.2435.7177-2.2762 1.75-2.994 2.9935s-1.0957 2.654-1.0954 4.0897v81.0545l70.196 40.524a8.178 8.178 0 0 0 4.09 1.096 8.177 8.177 0 0 0 4.089-1.096l112.522-67.33v3.002c.001 1.434-.375 2.843-1.1 4.086s-1.744 2.277-2.984 2.997h0z"/><path id="C" d="M168.358 6.1168v78.6944L47.6446 154.506V73.4516c-.0003-1.4358.3775-2.8463 1.0954-4.0897s1.7505-2.276 2.994-2.9936l110.49-63.793a4.091 4.091 0 0 1 2.044-.5471 4.093 4.093 0 0 1 3.541 2.0446c.36.6215.548 1.3265.548 2.0442h0z"/><path id="D" d="M164.502 102.374l2.71-1.558c.498-.286.5-.756-.003-1.0385l-2.692-1.558c-.28-.141-.588-.2142-.9-.2142s-.622.0733-.9.2142l-2.71 1.558c-.49.2825-.493.7525 0 1.0385l2.695 1.558a1.987 1.987 0 0 0 1.802 0z"/><path id="E" d="M157.723 106.29l2.71-1.557c.498-.29.5-.756 0-1.04l-2.693-1.558a1.987 1.987 0 0 0-1.802 0l-2.713 1.558c-.49.28-.494.75 0 1.04l2.695 1.557a1.999 1.999 0 0 0 .901.215c.313 0 .62-.074.9-.215z"/><path id="F" d="M144.174 114.118l2.71-1.558c.488-.288.49-.756 0-1.04l-2.693-1.558a1.983 1.983 0 0 0-1.801 0l-2.714 1.558c-.49.28-.493.75 0 1.04l2.695 1.558a2.001 2.001 0 0 0 .901.214 1.998 1.998 0 0 0 .901-.214z"/><path id="G" d="M140.095 116.475l-2.71 1.558a1.983 1.983 0 0 1-1.801 0l-2.696-1.558c-.493-.285-.5-.755 0-1.038l2.714-1.558a1.993 1.993 0 0 1 1.799 0l2.695 1.558c.5.28.496.75 0 1.038z"/><path id="H" d="M126.536 124.304l-2.713 1.558a1.999 1.999 0 0 1-1.802 0l-2.692-1.558c-.494-.286-.49-.756 0-1.04l2.7-1.558c.28-.14.588-.214.9-.214s.622.074.9.214l2.695 1.558c.5.28.496.75 0 1.04z"/><path id="I" d="M117.044 129.775l2.713-1.558c.496-.286.498-.756 0-1.04l-2.695-1.558a1.987 1.987 0 0 0-1.802 0l-2.71 1.558c-.493.28-.496.75 0 1.04l2.693 1.558a1.984 1.984 0 0 0 .901.216 1.987 1.987 0 0 0 .901-.216z"/><path id="J" d="M112.977 132.132l-2.713 1.558c-.28.142-.588.215-.9.215s-.622-.073-.9-.215l-2.695-1.558c-.493-.285-.49-.755 0-1.038l2.71-1.558a1.987 1.987 0 0 1 1.802 0l2.695 1.558c.5.28.498.75.002 1.038z"/><path id="K" d="M103.485 137.603l2.713-1.558c.496-.285.5-.755-.003-1.038l-2.695-1.558a1.998 1.998 0 0 0-.901-.214 2.001 2.001 0 0 0-.901.214l-2.7104 1.558c-.4907.283-.4933.75 0 1.038l2.6954 1.558a1.987 1.987 0 0 0 1.802 0z"/><path id="L" d="M85.8676 147.79l-2.7108 1.558c-.2794.14-.588.214-.901.214s-.6216-.073-.9-.214l-2.6952-1.558c-.4933-.285-.4907-.755 0-1.038l2.7133-1.558a1.987 1.987 0 0 1 1.802 0l2.6926 1.542c.4907.296.488.78 0 1.054z"/><path id="M" d="M173.95 104.732l-2.713 1.557c-.28.14-.59.215-.9.215a1.999 1.999 0 0 1-.901-.215l-2.696-1.557c-.493-.29-.5-.76 0-1.04l2.71-1.558a1.987 1.987 0 0 1 1.802 0l2.695 1.558c.5.283.5.75.003 1.04z"/><path id="N" d="M162.68 106.043l-2.7 1.558c-.5.288-.5.758-.003 1.038l2.695 1.558c.28.142.588.215.9.215s.622-.073.9-.215l2.71-1.558c.493-.28.496-.75 0-1.038l-2.693-1.558a1.998 1.998 0 0 0-.901-.214c-.312 0-.62.073-.9.214z"/><path id="O" d="M153.187 111.516l2.713-1.558a1.987 1.987 0 0 1 1.802 0l2.693 1.558c.496.288.493.758 0 1.04l-2.71 1.558a1.987 1.987 0 0 1-1.802 0l-2.695-1.558c-.5-.283-.496-.753 0-1.04z"/><path id="P" d="M149.12 113.87l-2.714 1.558c-.496.288-.498.758 0 1.04l2.695 1.558c.28.14.588.215.9.215a1.999 1.999 0 0 0 .901-.215l2.71-1.558c.493-.28.496-.75 0-1.04l-2.692-1.558a2.001 2.001 0 0 0-.901-.214 1.998 1.998 0 0 0-.901.214z"/><path id="Q" d="M139.615 119.345l2.713-1.558a1.987 1.987 0 0 1 1.802 0l2.693 1.558c.496.288.493.758 0 1.038l-2.71 1.558a1.987 1.987 0 0 1-1.802 0l-2.695-1.558c-.486-.283-.483-.753 0-1.038z"/><path id="R" d="M135.562 121.702l-2.714 1.558c-.503.286-.503.756 0 1.04l2.696 1.558a1.999 1.999 0 0 0 .901.215c.313 0 .62-.074.9-.215l2.7-1.558c.49-.283.494-.753 0-1.04l-2.695-1.558a1.994 1.994 0 0 0-1.799 0z"/><path id="S" d="M126.07 127.173l2.71-1.558a1.998 1.998 0 0 1 .901-.214 2.001 2.001 0 0 1 .901.214l2.695 1.558c.493.288.49.758 0 1.04l-2.71 1.558c-.28.142-.59.216-.902.216a1.988 1.988 0 0 1-.902-.216l-2.693-1.558c-.5-.283-.496-.75 0-1.04z"/><path id="T" d="M122 129.53l-2.7 1.558c-.496.285-.5.755 0 1.038l2.692 1.558a1.999 1.999 0 0 0 1.802 0l2.713-1.558c.49-.283.494-.753 0-1.038l-2.695-1.558a1.987 1.987 0 0 0-1.802 0z"/><path id="U" d="M112.5 135l2.71-1.557a1.999 1.999 0 0 1 .901-.215c.313 0 .62.074.9.215l2.695 1.557c.493.29.49.76 0 1.04l-2.713 1.558a1.987 1.987 0 0 1-1.802 0l-2.693-1.558c-.5-.283-.498-.75 0-1.04z"/><path id="V" d="M108.44 137.36l-2.7 1.558c-.5.288-.5.756-.003 1.04l2.695 1.557c.28.142.588.216.9.216a1.987 1.987 0 0 0 .901-.216l2.714-1.557c.5-.283.493-.753 0-1.04l-2.696-1.558a1.984 1.984 0 0 0-.901-.216c-.313 0-.62.074-.9.216z"/><path id="W" d="M81.3107 153.016l-2.7133 1.558c-.483.285-.4855.755 0 1.038l2.6952 1.558c.2794.14.588.214.901.214s.6216-.073.9-.214l2.7108-1.558c.4933-.283.496-.753 0-1.038l-2.6926-1.558a1.987 1.987 0 0 0-1.802 0z"/><path id="X" d="M180.686 108.647l-2.713 1.558a1.999 1.999 0 0 1-1.802 0l-2.693-1.558c-.496-.286-.493-.756 0-1.04l2.71-1.557a1.999 1.999 0 0 1 1.802 0l2.695 1.557c.5.28.496.75 0 1.04z"/><path id="Y" d="M173.912 111.508l-2.695-1.557c-.28-.143-.59-.217-.903-.217s-.622.074-.902.217l-2.71 1.557c-.5.28-.493.75 0 1.04l2.696 1.558a1.984 1.984 0 0 0 .901.216c.313 0 .62-.074.9-.216l2.713-1.558c.49-.28.493-.75 0-1.04z"/><path id="Z" d="M167.138 116.475l-2.714 1.558a1.987 1.987 0 0 1-.901.216c-.313 0-.62-.074-.9-.216l-2.695-1.558c-.493-.285-.49-.755 0-1.038l2.71-1.558a1.998 1.998 0 0 1 .901-.214 2.001 2.001 0 0 1 .901.214l2.695 1.558c.49.28.488.75.003 1.038z"/><path id="a" d="M157.635 121.946l2.7-1.558c.5-.285.5-.755 0-1.038l-2.692-1.558c-.28-.142-.588-.215-.9-.215s-.622.073-.9.215l-2.714 1.558c-.5.283-.493.75 0 1.038l2.696 1.558a1.984 1.984 0 0 0 .901.216c.313 0 .62-.074.9-.216z"/><path id="b" d="M153.566 124.304l-2.71 1.558a1.999 1.999 0 0 1-1.802 0l-2.695-1.558c-.493-.286-.49-.756 0-1.04l2.713-1.558a1.987 1.987 0 0 1 1.802 0l2.693 1.558c.5.28.498.75 0 1.04z"/><path id="c" d="M140.007 132.132l-2.71 1.558c-.28.142-.588.215-.9.215s-.62-.073-.9-.215l-2.695-1.558c-.493-.285-.49-.755 0-1.038l2.713-1.558a1.983 1.983 0 0 1 1.8 0l2.695 1.558c.5.28.498.75 0 1.038z"/><path id="d" d="M126.448 139.96l-2.713 1.558c-.28.14-.588.214-.9.214s-.622-.074-.9-.214l-2.693-1.558c-.493-.288-.5-.758 0-1.04l2.71-1.558a1.987 1.987 0 0 1 1.802 0l2.695 1.558c.5.283.496.75 0 1.04z"/><path id="e" d="M112.89 147.79l-2.713 1.558a2.001 2.001 0 0 1-.901.214 1.998 1.998 0 0 1-.901-.214l-2.693-1.558c-.496-.288-.493-.758 0-1.038l2.71-1.558a1.987 1.987 0 0 1 1.802 0l2.695 1.558c.5.28.5.763 0 1.038z"/><path id="f" d="M103.407 153.26l2.713-1.558c.486-.293.488-.756-.002-1.04l-2.696-1.557a1.999 1.999 0 0 0-.901-.215c-.313 0-.62.074-.9.215l-2.7103 1.557c-.4907.283-.4933.753 0 1.04l2.6953 1.558a1.987 1.987 0 0 0 1.802 0z"/><path id="g" d="M99.3303 155.618l-2.7133 1.557c-.2794.14-.588.215-.9.215s-.6215-.074-.901-.215l-2.6952-1.557c-.4933-.29-.4907-.76 0-1.04l2.7107-1.558a1.987 1.987 0 0 1 1.802 0l2.6952 1.558c.501.28.4985.75.0025 1.04z"/><path id="h" d="M88.0616 156.93l-2.7133 1.558c-.4986.288-.5012.758 0 1.038l2.695 1.558a1.987 1.987 0 0 0 1.802 0l2.7107-1.558c.4934-.28.496-.75 0-1.038l-2.6925-1.558a2 2 0 0 0-.901-.214c-.313 0-.6215.073-.9.214z"/><path id="i" d="M180.22 111.516l2.71-1.558a1.983 1.983 0 0 1 1.801 0l2.696 1.558c.493.288.5.758 0 1.04l-2.714 1.558a1.987 1.987 0 0 1-1.802 0l-2.692-1.558c-.5-.283-.5-.753 0-1.04z"/><path id="j" d="M176.15 113.874l-2.71 1.558c-.498.285-.5.755 0 1.038l2.693 1.558c.28.142.588.215.9.215s.622-.073.9-.215l2.713-1.558c.49-.283.494-.753 0-1.038l-2.695-1.558a1.987 1.987 0 0 0-1.802 0z"/><path id="k" d="M166.66 119.345l2.71-1.558a1.998 1.998 0 0 1 .901-.214 2.001 2.001 0 0 1 .901.214l2.695 1.558c.493.288.5.758 0 1.038l-2.714 1.558a1.984 1.984 0 0 1-.901.216c-.313 0-.62-.074-.9-.216l-2.695-1.558c-.498-.283-.496-.75.003-1.038z"/><path id="l" d="M162.578 121.702l-2.71 1.558c-.485.286-.488.756-.002 1.04l2.695 1.558a1.999 1.999 0 0 0 1.802 0l2.713-1.558c.49-.283.494-.753 0-1.04l-2.695-1.558a1.987 1.987 0 0 0-1.802 0z"/><path id="m" d="M153.098 127.173l2.714-1.558a1.998 1.998 0 0 1 .901-.214 2.001 2.001 0 0 1 .901.214l2.692 1.558c.496.288.494.758 0 1.04l-2.7 1.558c-.28.142-.588.216-.9.216a1.984 1.984 0 0 1-.901-.216l-2.696-1.558c-.5-.283-.5-.75 0-1.04z"/><path id="n" d="M149.032 129.53l-2.713 1.558c-.496.285-.5.755 0 1.038l2.695 1.558a2.001 2.001 0 0 0 .901.214 1.998 1.998 0 0 0 .901-.214l2.71-1.558c.493-.283.496-.753 0-1.038l-2.693-1.558a1.987 1.987 0 0 0-1.802 0z"/><path id="o" d="M139.54 135l2.713-1.557a1.999 1.999 0 0 1 .901-.215c.313 0 .62.074.9.215l2.692 1.557c.496.29.494.76 0 1.04l-2.7 1.558a1.987 1.987 0 0 1-1.802 0l-2.695-1.558c-.5-.28-.496-.75 0-1.04z"/><path id="p" d="M135.473 137.36l-2.713 1.558c-.496.288-.498.756 0 1.04l2.695 1.557c.28.14.588.215.9.215a1.999 1.999 0 0 0 .901-.215l2.71-1.557c.493-.283.496-.753 0-1.04l-2.695-1.558a1.983 1.983 0 0 0-1.8 0z"/><path id="q" d="M125.98 142.84l2.713-1.558a2.007 2.007 0 0 1 .9-.214 2.006 2.006 0 0 1 .899.214l2.696 1.558c.493.288.5.758 0 1.04l-2.71 1.558c-.28.144-.593.22-.91.22s-.627-.075-.91-.22l-2.692-1.558c-.486-.29-.483-.76.013-1.04z"/><path id="r" d="M121.912 145.177l-2.71 1.558c-.496.296-.498.78 0 1.04l2.693 1.557c.28.14.59.215.902.215s.622-.074.902-.215l2.71-1.557c.49-.283.493-.753 0-1.04l-2.695-1.558a1.987 1.987 0 0 0-1.802 0z"/><path id="s" d="M112.422 150.658l2.71-1.558c.28-.14.588-.214.9-.214s.62.074.9.214l2.695 1.558c.493.288.5.758 0 1.04l-2.714 1.558a1.984 1.984 0 0 1-.901.216c-.313 0-.62-.074-.9-.216l-2.692-1.558c-.5-.288-.496-.75 0-1.04z"/><path id="t" d="M108.353 153.016l-2.71 1.558c-.498.285-.5.755 0 1.038l2.693 1.558a1.998 1.998 0 0 0 .901.214 2.001 2.001 0 0 0 .901-.214l2.713-1.558c.49-.283.494-.753 0-1.038l-2.695-1.558a1.987 1.987 0 0 0-1.802 0z"/><path id="u" d="M98.85 158.487l2.71-1.558a1.998 1.998 0 0 1 .901-.214 2.001 2.001 0 0 1 .901.214l2.695 1.558c.493.288.49.758 0 1.038l-2.713 1.558c-.28.142-.588.216-.9.216a1.984 1.984 0 0 1-.901-.216l-2.6956-1.558c-.4855-.28-.483-.75.0026-1.038z"/><path id="v" d="M148.02 67.5724a1.568 1.568 0 0 0-.81-.1352 1.575 1.575 0 0 0-.768.293L70.0342 111.844a4.866 4.866 0 0 0-1.5639 1.646 4.86 4.86 0 0 0-.6448 2.177c-.0285.274.0163.55.1296.8s.2912.466.5153.625l1.3086.76c-.2242-.16-.402-.375-.5154-.625s-.158-.526-.1296-.8a4.866 4.866 0 0 1 .6453-2.178c.3838-.666.9195-1.23 1.5634-1.65l76.4093-44.1135c.226-.1624.49-.2622.768-.289s.556.02.8.136l-1.31-.76z"/><path id="w" d="M68.4426 106.406l1.304.76c-.2227-.16-.3996-.375-.5128-.624s-.1588-.524-.1322-.796a4.874 4.874 0 0 1 .6474-2.18 4.87 4.87 0 0 1 1.5659-1.648L131.8 67.0016a1.578 1.578 0 0 1 .77-.2928c.278-.0277.558.019.812.135l-1.308-.76a1.572 1.572 0 0 0-.811-.1352c-.277.0278-.542.129-.767.293L70.0063 101.158a4.871 4.871 0 0 0-1.566 1.648 4.874 4.874 0 0 0-.6473 2.18 1.546 1.546 0 0 0 .1322.798 1.552 1.552 0 0 0 .5174.622h0z"/><path id="x" d="M68.41 95.7055l1.3086.76c-.2242-.159-.402-.3746-.5154-.625a1.549 1.549 0 0 1-.1296-.7995c.0403-.767.2614-1.5137.6453-2.179a4.871 4.871 0 0 1 1.5634-1.6492L120.69 62.691a1.554 1.554 0 0 1 .767-.2928c.278-.027.558.0213.8.1397l-1.308-.76a1.554 1.554 0 0 0-.81-.1396 1.553 1.553 0 0 0-.768.2927L69.974 90.476a4.858 4.858 0 0 0-1.5639 1.6463c-.384.6646-.605 1.4107-.6448 2.177-.025.2704.0213.5425.1345.7893a1.55 1.55 0 0 0 .5104.6167h0z"/><path id="y" d="M68.3776 85.0333l1.3085.76a1.563 1.563 0 0 1-.5121-.6238 1.564 1.564 0 0 1-.1329-.7961c.0398-.7683.261-1.5162.646-2.1824s.922-1.2318 1.5675-1.6503L138.03 41.9914c.225-.164.5-.2652.767-.293a1.567 1.567 0 0 1 .81.1351l-1.308-.76a1.567 1.567 0 0 0-.81-.1351c-.278.0277-.543.1288-.768.293L69.9506 79.8c-.6452.4177-1.1822.9825-1.567 1.648a4.864 4.864 0 0 0-.6464 2.1802 1.555 1.555 0 0 0 .6404 1.4152h0z"/><path id="z" d="M24.71 96.4996l-3.1167 1.8016-6.4964-3.769v-4.4066l6.4856 3.7797 3.1167-1.8016a3.243 3.243 0 0 1 1.4773-.356c.5136 0 1.02.122 1.4772.356l14.3224 8.3192a15.091 15.091 0 0 0 6.0532 1.802l2.2916.21.3603 1.326c.4 1.35 1.463 2.57 3.088 3.513l14.326 8.323c.178.077.332.2.446.356s.184.34.2024.534v4.407c-.0184-.193-.0883-.377-.2024-.534s-.2682-.28-.446-.356l-14.3116-8.33c-1.625-.944-2.688-2.154-3.0915-3.513l-.3603-1.326-2.2916-.21a15.14 15.14 0 0 1-6.0532-1.801l-14.3188-8.3234a3.268 3.268 0 0 0-1.479-.3538c-.514 0-1.0208.1212-1.479.3538zm50.3715 24.2854c2.3673-1.366 3.542-2.865 3.542-4.364v4.414c.0036 1.5-1.1782 2.998-3.542 4.364l-3.6283 2.093-6.4496-3.747v-4.407l6.4496 3.747 3.6283-2.1zM10.55 104.68l3.1203-1.802v-4.4065l-3.1167 1.8015c-.1706.075-.3178.195-.4262.346s-.174.33-.2.515v4.407a1.051 1.051 0 0 1 .1903-.513 1.04 1.04 0 0 1 .4223-.348zm41.859 26.907c2.633 0 5.2182-.703 7.49-2.035l3.632-2.097v4.407l-3.6284 2.097c-2.2708 1.332-4.856 2.035-7.49 2.035a14.803 14.803 0 0 1-7.4891-2.035l-14.8304-8.62a2.688 2.688 0 0 0-1.0809-.324l-5.5488-.562c-1.8845-.206-3.297-1.045-3.6572-2.126l-.9476-3.218c-.11-.265-.3063-.484-.5585-.62L3.4734 109.87C1.1674 108.527 0 107.04 0 105.547v-4.403c.0072 1.495 1.17 2.983 3.4734 4.324l14.8304 8.615a1.236 1.236 0 0 1 .5549.623l.9512 3.218c.3495 1.09 1.7727 1.917 3.6572 2.122l5.5416.562a2.687 2.687 0 0 1 1.0809.324l14.8304 8.62a14.803 14.803 0 0 0 7.4891 2.035z"/><path id="AA" d="M60.3016 103.5l14.8305 8.618c4.6732 2.714 4.6552 5.96-.072 8.684l-3.6283 2.093-6.4496-3.747 3.1167-1.802c.8215-.475.825-1.243-.036-1.743l-14.326-8.324c-1.625-.944-2.688-2.154-3.088-3.513l-.3603-1.326-2.2916-.21c-2.122-.167-4.185-.78-6.0532-1.8l-14.3224-8.3197a3.243 3.243 0 0 0-1.4773-.356c-.5136 0-1.02.122-1.4772.356l-3.1167 1.8016-6.4856-3.7797 3.6283-2.097a14.867 14.867 0 0 1 14.9818 0l14.8304 8.615a2.85 2.85 0 0 0 1.0809.3243l5.5524.562c1.8844.21 3.2968 1.045 3.6572 2.1258l.9476 3.2176a1.142 1.142 0 0 0 .5584.62zm-7.8474 22.37c.5227.005 1.039-.115 1.506-.35l3.1347-1.797 6.4495 3.747-3.632 2.097c-2.2708 1.332-4.856 2.035-7.489 2.035s-5.2182-.703-7.49-2.035l-14.8304-8.62a2.687 2.687 0 0 0-1.081-.324l-5.5488-.562c-1.8844-.206-3.2968-1.042-3.657-2.122l-.9512-3.218c-.1074-.266-.3035-.486-.555-.623l-14.8304-8.615c-4.6192-2.688-4.6372-5.9636.0468-8.6804l3.632-2.0934 6.4856 3.776-3.1167 1.8017c-.807.472-.8143 1.24 0 1.71l14.3116 8.316c1.625.944 2.6915 2.155 3.088 3.5l.3603 1.33 2.2916.21a15.125 15.125 0 0 1 6.0532 1.802l14.3224 8.327a3.279 3.279 0 0 0 1.499.379z"/><path id="AB" d="M278.645 101l-.103 18.252h-10.94l.016 5.63 10.94.002.103-18.255-.016-5.628zm-10.568 11.738l-.016-5.63-20.966.225.016 5.63 20.966-.226zm-51.71-6.233l34.185 34.395 8.882-5.13.016 5.63-8.882 5.13-34.185-34.398-.016-5.628zm-2.3 25.543l-.016-5.63-.458 12.143.016 5.63.458-12.143zM203 144.672h31.515l.032-6.336.018 5.63-.034 6.334h-31.515l-.016-5.628z"/><path id="AC" d="M247.13 101l-.035 6.334 20.966-.225-.458 12.143h10.938l.103-18.252H247.13zm-30.762 5.505l34.185 34.395 8.882-5.13-34.185-34.396-8.882 5.13zm-13.265 19.912l10.94.002-.458 12.143 20.963-.226-.032 6.336H203l.103-18.255z"/></defs></svg>