<svg xmlns="http://www.w3.org/2000/svg" xmlns:xlink="http://www.w3.org/1999/xlink" width="314" height="213" fill="none" xmlns:v="https://vecta.io/nano"><style><![CDATA[.B{fill:#7066ff}.C{opacity:.3}.D{fill:#010014}.E{opacity:.4}.F{fill-rule:evenodd}]]></style><g clip-path="url(#A)"><use xlink:href="#B" class="B"/><use xlink:href="#B" class="C D"/><g class="B"><path d="M47.616 100.172l7.3093-52.842c9.9944-3.6653 17.5942 2.0168 17.6296 14.1013.0378 13.6102-9.5316 30.1747-21.3752 37.0235a25.201 25.201 0 0 1-3.5637 1.7172zm-.5855-43.2892l-4.6902 2.7088c-1.8398 1.0628-3.344 3.6653-3.3252 5.7837l.019 6.9314a15.892 15.892 0 0 1-3.9983 10.7998c2.686-.0142 4.0345 2.0326 4.0455 6.1403l.019 6.9314c.007 2.116 1.5185 2.978 3.3606 1.9153l2.6805-1.5493c.0094 3.082-1.9933 6.5538-4.6737 8.1008-3.3512 1.934-6.0506.4-6.0506-3.448l-.0236-8.0866c-.0173-4.621-1.5917-6.9267-4.7233-6.9172 3.1206-3.6023 4.6753-7.7132 4.6643-12.3325l-.0236-8.0863c-.0166-3.8495 2.6568-8.4688 6.0056-10.4125l11.3902-6.577c.0095 3.0795-1.9932 6.5512-4.676 8.098z" class="F"/><use xlink:href="#C"/></g><g class="D"><use xlink:href="#C" class="E"/><path d="M205.472 120.74c0 2.263 1.603 3.19 3.564 2.057l16.237-9.375c1.962-1.132 3.565-3.91 3.565-6.174V88.5c0-2.2637-1.603-3.1898-3.565-2.058l-16.237 9.3738c-1.96 1.132-3.564 3.91-3.564 6.174v18.75z" class="C"/></g><use xlink:href="#D" class="B"/><g class="D"><use xlink:href="#D" class="E"/><path d="M267.78 120.74c0 2.263 1.603 3.19 3.564 2.057l16.237-9.375c1.96-1.132 3.565-3.91 3.565-6.174V88.5c0-2.2637-1.604-3.1898-3.565-2.058l-16.237 9.3738c-1.96 1.132-3.564 3.91-3.564 6.174v18.75z" class="C"/></g><path d="M177.882 90.7528c-1.96-1.1318-5.167-1.1318-7.128 0l-16.237 9.3762c-1.96 1.132-3.565 3.9-3.565 6.173v18.748c0 2.264 1.604 5.042 3.565 6.174l16.237 9.376c1.96 1.132 5.167 1.132 7.128 0l16.237-9.376c1.962-1.132 3.565-3.9 3.565-6.174v-18.748c0-2.263-1.603-5.04-3.565-6.173l-16.237-9.3762z" class="B"/><use xlink:href="#E" class="C D"/><use xlink:href="#F" class="B"/><g class="D"><use xlink:href="#F" class="E"/><path d="M80.8555 120.74c0 2.263 1.603 3.19 3.5643 2.057l16.2372-9.375c1.96-1.132 3.564-3.91 3.564-6.174V88.5c0-2.2637-1.603-3.1898-3.564-2.058L84.4198 95.816c-1.9612 1.132-3.5643 3.91-3.5643 6.174v18.75z" class="C"/></g><path d="M115.574 90.7528c-1.96-1.1318-5.167-1.1318-7.128 0L92.2086 100.13c-1.9612 1.132-3.5643 3.9-3.5643 6.173v18.748c0 2.264 1.603 5.042 3.5643 6.174l16.2374 9.376c1.96 1.132 5.167 1.132 7.128 0l16.237-9.376c1.96-1.132 3.565-3.9 3.565-6.174v-18.748c0-2.263-1.604-5.04-3.565-6.173l-16.237-9.3762z" class="B"/><path d="M112 138.542c0 2.264 1.603 3.2 3.564 2.058l16.237-9.376c1.962-1.132 3.565-3.9 3.565-6.174v-18.747c0-2.264-1.603-3.2-3.565-2.058l-16.237 9.374c-1.96 1.13-3.564 3.9-3.564 6.173v18.75z" class="C D"/><path d="M240.19 90.7528c-1.96-1.1318-5.168-1.1318-7.13 0l-16.237 9.3762c-1.96 1.132-3.564 3.9-3.564 6.173v18.748c0 2.264 1.603 5.042 3.564 6.174l16.237 9.376c1.96 1.132 5.168 1.132 7.13 0l16.237-9.376c1.96-1.132 3.564-3.9 3.564-6.174v-18.748c0-2.263-1.603-5.04-3.564-6.173l-16.237-9.3762z" class="B"/><path d="M236.626 138.542c0 2.264 1.604 3.2 3.565 2.058l16.237-9.376c1.96-1.132 3.564-3.9 3.564-6.174v-18.747c0-2.264-1.603-3.2-3.564-2.058l-16.237 9.374c-1.96 1.13-3.565 3.9-3.565 6.173v18.75z" class="C D"/><use xlink:href="#G" class="B"/><g class="D"><use xlink:href="#G" class="E"/><path d="M143.164 156.344c0 2.264 1.603 3.2 3.564 2.058l16.237-9.376c1.96-1.13 3.564-3.9 3.564-6.173v-18.748c0-2.264-1.603-3.2-3.564-2.058l-16.237 9.374c-1.96 1.132-3.564 3.9-3.564 6.174v18.75z" class="C"/></g><path d="M177.882 126.358c-1.96-1.132-5.167-1.132-7.128 0l-16.237 9.375c-1.96 1.132-3.565 3.91-3.565 6.174v18.748c0 2.264 1.604 5.042 3.565 6.174l16.237 9.376c1.96 1.13 5.167 1.13 7.128 0l16.237-9.376c1.962-1.132 3.565-3.9 3.565-6.174v-18.748c0-2.263-1.603-5.042-3.565-6.174l-16.237-9.375z" class="B"/><use xlink:href="#H" class="C D"/><use xlink:href="#I" class="B"/><g class="D"><use xlink:href="#I" class="E"/><path d="M205.472 191.95c0 2.264 1.603 3.2 3.564 2.058l16.237-9.376c1.962-1.132 3.565-3.9 3.565-6.174V159.7c0-2.264-1.603-3.2-3.565-2.058l-16.237 9.374c-1.96 1.13-3.564 3.9-3.564 6.173v18.75z" class="C"/></g><path d="M240.19 161.962c-1.96-1.13-5.168-1.13-7.13 0l-16.237 9.376c-1.96 1.132-3.564 3.9-3.564 6.174v18.748c0 2.263 1.603 5.042 3.564 6.174l16.237 9.375c1.96 1.132 5.168 1.132 7.13 0l16.237-9.375c1.96-1.132 3.564-3.91 3.564-6.174v-18.748c0-2.264-1.603-5.042-3.564-6.174l-16.237-9.376z" class="B"/><path d="M236.626 209.75c0 2.264 1.604 3.2 3.565 2.058l16.237-9.376c1.96-1.13 3.564-3.9 3.564-6.173v-18.748c0-2.264-1.603-3.2-3.564-2.058l-16.237 9.374c-1.96 1.132-3.565 3.9-3.565 6.174v18.75z" class="C D"/><path d="M115.574 126.358c-1.96-1.132-5.167-1.132-7.128 0l-16.2374 9.375c-1.9612 1.132-3.5643 3.91-3.5643 6.174v18.748c0 2.264 1.603 5.042 3.5643 6.174l16.2374 9.376c1.96 1.13 5.167 1.13 7.128 0l16.237-9.376c1.96-1.132 3.565-3.9 3.565-6.174v-18.748c0-2.263-1.604-5.042-3.565-6.174l-16.237-9.375z" class="B"/><path d="M112 174.147c0 2.263 1.603 3.2 3.564 2.058l16.237-9.376c1.962-1.132 3.565-3.9 3.565-6.174v-18.748c0-2.263-1.603-3.19-3.565-2.058l-16.237 9.374c-1.96 1.132-3.564 3.9-3.564 6.174v18.75z" class="C D"/><use xlink:href="#J" class="B"/><g class="D"><use xlink:href="#J" class="E"/><path d="M80.8555 191.95c0 2.264 1.603 3.2 3.5643 2.058l16.2372-9.376c1.96-1.132 3.564-3.9 3.564-6.174V159.7c0-2.264-1.603-3.2-3.564-2.058l-16.2372 9.374c-1.9612 1.13-3.5643 3.9-3.5643 6.173v18.75z" class="C"/></g><path d="M146.728 70.725c-1.96-1.1318-5.167-1.1318-7.13 0L123.362 80.1c-1.96 1.132-3.564 3.91-3.564 6.1738v18.7472c0 2.264 1.603 5.042 3.564 6.174l16.237 9.376c1.962 1.132 5.168 1.132 7.13 0l16.237-9.376c1.96-1.132 3.564-3.9 3.564-6.174V86.2748c0-2.2637-1.603-5.042-3.564-6.1738l-16.237-9.376z" class="B"/><path d="M143.164 118.514c0 2.264 1.603 3.2 3.564 2.058l16.237-9.376c1.96-1.132 3.564-3.9 3.564-6.173V86.275c0-2.2637-1.603-3.1898-3.564-2.058l-16.237 9.3738c-1.96 1.1318-3.564 3.9-3.564 6.1738v18.7494z" class="C D"/><use xlink:href="#K" class="B"/><g class="D"><use xlink:href="#K" class="E"/><path d="M143.164 80.684c0 2.2637 1.603 3.1897 3.564 2.058l16.237-9.376c1.96-1.132 3.564-3.91 3.564-6.1738V48.4446c0-2.2638-1.603-3.1898-3.564-2.058l-16.237 9.374c-1.96 1.1318-3.564 3.9-3.564 6.1737V80.684z" class="C"/></g><g class="F"><use xlink:href="#L" class="B"/><use xlink:href="#L" class="C D"/><g class="B"><path d="M116.34 20.473c-1.802 1.0486-1.792 2.762.02 3.8084l2.644 1.5253c-2.62 1.523-6.568 1.523-9.205 0-3.295-1.9066-3.316-4.9524-.04-6.8567l6.883-4.0014c3.932-2.2832 5.123-4.7587 3.573-7.4263 4.612.8913 8.883.1938 12.814-2.0926l6.884-4.0014c3.276-1.9042 8.538-1.9042 11.837 0l11.216 6.4753c-2.622 1.523-6.57 1.523-9.21 0l-4.618-2.667c-1.813-1.0486-4.773-1.0486-6.575 0l-5.9 3.4272a15.647 15.647 0 0 1-11.16 1.9042c1.327 2.2864.242 4.4456-3.255 6.4777l-5.91 3.4272zm.796 9.2235l48.647-19.763c8.045 6.7125 6.943 15.9895-3.343 21.958-11.58 6.731-30.426 6.731-42.084 0a24.922 24.922 0 0 1-3.22-2.1949z"/><use xlink:href="#M"/></g><use xlink:href="#M" class="C D"/><g class="B"><path d="M13.554 132.758l-.0272 9.964c-.0158 5.914-1.955 8.868-5.8176 8.864a22.862 22.862 0 0 1 5.7463 15.52l-.027 9.965c-.0102 3.046 2.153 6.79 4.8055 8.32l3.8513 2.225c-.0102 4.432-2.9105 6.082-6.7652 3.858-4.819-2.782-8.6466-9.438-8.6466-14.974l.034-11.628c.018-6.643-2.2177-12.555-6.7074-17.735 4.51 0 6.772-3.324 6.7856-9.97l.034-11.625c.0136-5.54 3.8818-7.74 8.7-4.96l16.383 9.46c-.0136 4.428-2.914 6.082-6.7685 3.858l-6.7448-3.896c-2.6524-1.53-4.8362-.302-4.8362 2.755zM25.614 196.92l10.912-63.62c14.3556 11.312 25.203 32.056 25.152 49.434-.0543 19.573-13.9073 27.462-30.939 17.63a47.181 47.181 0 0 1-5.1248-3.444z"/></g></g><use xlink:href="#N" class="B"/><use xlink:href="#N" class="C D"/><g class="B"><path d="M289.06 102.397l7.31-52.8418c9.995-3.6653 17.595 2.0168 17.63 14.1013.038 13.6102-9.532 30.1747-21.375 37.0235a25.176 25.176 0 0 1-3.564 1.717zm-.585-43.289l-4.69 2.7088c-1.84 1.0627-3.344 3.6653-3.325 5.7837l.02 6.9314a15.894 15.894 0 0 1-3.998 10.7998c2.686-.0142 4.034 2.0326 4.045 6.1402l.02 6.9315c.007 2.1155 1.52 2.9775 3.36 1.9155l2.68-1.5495c.01 3.0815-1.993 6.5535-4.673 8.1005-3.352 1.934-6.05.4-6.05-3.448l-.024-8.0863c-.017-4.62-1.59-6.9267-4.723-6.9173 3.12-3.6022 4.675-7.713 4.664-12.3325l-.023-8.0862c-.017-3.8495 2.657-8.469 6.005-10.4125L293.152 51c.01 3.0796-1.994 6.5512-4.676 8.098z" class="F"/><use xlink:href="#O"/></g><use xlink:href="#O" class="C D"/><path d="M257.37 189.986l7.3-52.842c9.994-3.665 17.594 2.017 17.63 14.102.038 13.6-9.53 30.174-21.375 37.023a25.176 25.176 0 0 1-3.564 1.717zm-.585-43.29l-4.69 2.71c-1.84 1.063-3.344 3.665-3.325 5.784l.02 6.93a15.891 15.891 0 0 1-3.998 10.8c2.686-.014 4.034 2.032 4.045 6.14l.02 6.932c.007 2.116 1.52 2.978 3.36 1.915l2.68-1.55c.01 3.082-1.993 6.553-4.673 8.1-3.35 1.934-6.05.4-6.05-3.448l-.023-8.086c-.018-4.62-1.592-6.927-4.724-6.918 3.12-3.602 4.676-7.713 4.665-12.332l-.024-8.086c-.017-3.85 2.657-8.47 6.006-10.413l11.4-6.577c.01 3.08-1.993 6.55-4.676 8.098z" class="B F"/></g><defs><clipPath id="A"><path fill="#fff" d="M0 0h314v213H0z"/></clipPath><path id="B" d="M62.97 45.7335c-3.0324-1.7618-6.9692-1.9625-11.3713-.3472l-.425 3.0702-2.7915-1.6225-11.3925 6.5772c-3.3512 1.9342-6.0222 6.5606-6.0128 10.4125l.0236 8.0862c.0142 4.6162-1.5405 8.727-4.6642 12.3325l3.33 1.9342.1866-.2362c.7872 1.1525 1.188 2.8844 1.202 5.1956l.0236 8.0863c0 1.9127.6707 3.2547 1.7523 3.8797l3.33 1.937c-1.0816-.628-1.7476-1.97-1.7523-3.883l-.0236-8.0858c-.0095-3.3063-.8187-5.4317-2.4278-6.3764l-1.854-1.077a19.412 19.412 0 0 0 2.5175-3.9676L35.02 83.097a3.743 3.743 0 0 1 1.92.4724l-3.3205-1.94c-.2553-.1472-.5294-.2592-.8148-.333a18.059 18.059 0 0 0 1.5257-7.4369l-.0237-8.0862c-.0118-3.8495 2.6616-8.4783 6.0128-10.4125l10.7596-6.2135-6.51 47.0675-2.763-1.606-2.6805 1.5493c-.928.5337-1.7712.581-2.383.236l3.33 1.9342c.6093.3566 1.4548.307 2.3805-.236l2.017-1.1643-.182 1.3083 3.33 1.9345 7.3092-52.842c4.4045-1.613 8.3414-1.417 11.3737.347l-3.33-1.9436z"/><path id="C" d="M209.037 72.9505c-1.962-1.132-5.168-1.132-7.13 0l-16.237 9.3758c-1.96 1.132-3.564 3.91-3.564 6.1738v18.748c0 2.263 1.603 5.042 3.564 6.174l16.237 9.375c1.96 1.132 5.167 1.132 7.13 0l16.237-9.375c1.96-1.132 3.564-3.91 3.564-6.174V88.5c0-2.2637-1.603-5.042-3.564-6.1738l-16.237-9.3758z"/><path id="D" d="M271.345 72.9505c-1.96-1.132-5.167-1.132-7.13 0l-16.237 9.3758c-1.96 1.132-3.564 3.91-3.564 6.1738v18.748c0 2.263 1.603 5.042 3.564 6.174l16.237 9.375c1.962 1.132 5.168 1.132 7.13 0l16.237-9.375c1.96-1.132 3.564-3.91 3.564-6.174V88.5c0-2.2637-1.603-5.042-3.564-6.1738l-16.237-9.3758z"/><path id="E" d="M174.318 138.542c0 2.264 1.603 3.2 3.564 2.058l16.237-9.376c1.962-1.132 3.565-3.9 3.565-6.174v-18.747c0-2.264-1.603-3.2-3.565-2.058l-16.237 9.374c-1.96 1.13-3.564 3.9-3.564 6.173v18.75z"/><path id="F" d="M84.4197 72.9505c-1.9612-1.132-5.1674-1.132-7.1286 0l-16.237 9.3758c-1.9612 1.132-3.5644 3.91-3.5644 6.1738v18.748c0 2.263 1.6032 5.042 3.5644 6.174l16.237 9.375c1.9612 1.132 5.1674 1.132 7.1286 0l16.2373-9.375c1.96-1.132 3.564-3.91 3.564-6.174V88.5c0-2.2637-1.603-5.042-3.564-6.1738l-16.2373-9.3758z"/><path id="G" d="M146.728 108.555c-1.96-1.132-5.167-1.132-7.13 0l-16.237 9.376c-1.96 1.132-3.564 3.9-3.564 6.174v18.748c0 2.263 1.603 5.04 3.564 6.173l16.237 9.376c1.962 1.132 5.168 1.132 7.13 0l16.237-9.376c1.96-1.132 3.564-3.9 3.564-6.173v-18.748c0-2.264-1.603-5.042-3.564-6.174l-16.237-9.376z"/><path id="H" d="M174.318 174.147c0 2.263 1.603 3.2 3.564 2.058l16.237-9.376c1.962-1.132 3.565-3.9 3.565-6.174v-18.748c0-2.263-1.603-3.19-3.565-2.058l-16.237 9.374c-1.96 1.132-3.564 3.9-3.564 6.174v18.75z"/><path id="I" d="M209.037 144.16c-1.962-1.132-5.168-1.132-7.13 0l-16.237 9.376c-1.96 1.132-3.564 3.9-3.564 6.174v18.747c0 2.264 1.603 5.042 3.564 6.174l16.237 9.376c1.96 1.132 5.167 1.132 7.13 0l16.237-9.376c1.96-1.132 3.564-3.9 3.564-6.174V159.7c0-2.264-1.603-5.042-3.564-6.174l-16.237-9.376z"/><path id="J" d="M84.4197 144.16c-1.9612-1.132-5.1674-1.132-7.1286 0l-16.237 9.376c-1.9612 1.132-3.5644 3.9-3.5644 6.174v18.747c0 2.264 1.6032 5.042 3.5644 6.174l16.237 9.376c1.9612 1.132 5.1674 1.132 7.1286 0l16.2373-9.376c1.96-1.132 3.564-3.9 3.564-6.174V159.7c0-2.264-1.603-5.042-3.564-6.174l-16.2373-9.376z"/><path id="K" d="M146.728 32.8948c-1.96-1.132-5.167-1.132-7.13 0l-16.237 9.376c-1.96 1.1318-3.564 3.9-3.564 6.1738V67.192c0 2.2637 1.603 5.042 3.564 6.1738l16.237 9.376c1.962 1.1318 5.168 1.1318 7.13 0l16.237-9.376c1.96-1.132 3.564-3.91 3.564-6.1738V48.4445c0-2.2638-1.603-5.042-3.564-6.1738l-16.237-9.376z"/><path id="L" d="M116.33 24.265l5.9-3.4295c2.526-1.4695 3.793-3.0056 3.8-4.6083v-1.7717c3.664.616 7.428-.0928 10.616-1.9996l5.904-3.4295c1.802-1.0463 4.76-1.0463 6.575 0l4.62 2.667c2.64 1.523 6.584 1.523 9.207 0l.012-3.79c-2.623 1.5253-6.57 1.5253-9.2 0l-4.617-2.667c-1.814-1.0486-4.774-1.0486-6.576 0l-5.894 3.4272c-3.352 2.0055-7.333 2.6847-11.16 1.9043l-.012 3.676c-.598.9595-1.678 1.8895-3.24 2.79l-5.9 3.427c-.895.521-1.344 1.2067-1.346 1.8926v3.6992c-.001.0303-.001.0605 0 .0907v-.0907c.02-.6447.466-1.2927 1.32-1.788zm4.54-14.5178c-.015-.7875-.242-1.5564-.658-2.225v3.79a4.404 4.404 0 0 1 .644 2.2251l.014-3.79zm-.517 22.1533c11.656 6.731 30.503 6.731 42.084 0 5.748-3.3404 8.63-7.7075 8.636-12.0832v3.7687c-.012 4.3828-2.893 8.761-8.647 12.1044-11.58 6.7427-30.424 6.7427-42.084 0-1.13-.645-2.206-1.3782-3.22-2.1926V30.366c-2.407.679-5.278.4254-7.345-.7696-1.66-.958-2.486-2.2065-2.486-3.4528l.012-3.786c-.003 1.245.827 2.4897 2.485 3.45 2.637 1.523 6.585 1.523 9.205 0v3.79c-.4.229-.822.4218-1.258.5766.837.6284 1.712 1.2053 2.618 1.7275z"/><path id="M" d="M14.1247 117.186c1.5724-.914 3.7562-.774 6.18.625l16.3798 9.458-4.7886 2.782-16.3764-9.46c-2.4248-1.4-4.6086-1.538-6.1844-.624l4.7886-2.782zm4.0926 57.093l.027-9.964c.0863-5.427-1.7658-10.706-5.2233-14.89l2.238-1.3c2.024-1.175 3.043-3.9 3.0566-8.174l.0305-9.965c0-1.514.5428-2.58 1.408-3.083l-4.7873 2.78c-.866.503-1.406 1.57-1.4094 3.084l-.0305 9.954c0 2.642-.393 4.692-1.1785 6.15l-4.6392 2.693a22.865 22.865 0 0 1 5.7464 15.521l-.0272 9.964c0 3.057 2.1532 6.793 4.8056 8.32l3.8512 2.224c0 2.2-.7234 3.72-1.9188 4.415l4.7852-2.76c1.1954-.68 1.9154-2.21 1.9222-4.415l-3.8546-2.224c-2.6524-1.542-4.8124-5.285-4.8022-8.33zM4.7886 144.342L0 147.127c1.1495.035 2.2875-.24 3.2943-.795l4.7886-2.78c-1.0075.553-2.1452.827-3.2943.79zm27.1086-14.29c0 2.2-.7268 3.715-1.9222 4.415l4.7886-2.782c1.1954-.696 1.9154-2.21 1.9222-4.415l-4.7886 2.782zm4.6287 3.25l4.7852-2.782c14.36 11.313 25.203 32.057 25.1554 49.435-.0272 9.72-3.4607 16.563-8.9965 19.78l-4.7885 2.782c5.5357-3.217 8.9692-10.056 8.9964-19.78.05-17.378-10.7964-38.122-25.152-49.434z"/><path id="N" d="M304.414 47.9587c-3.032-1.7618-6.97-1.9625-11.37-.3472l-.425 3.0702-2.792-1.6225-11.392 6.5772c-3.35 1.9342-6.022 6.5606-6.013 10.4125l.024 8.0862c.014 4.6163-1.54 8.727-4.665 12.3325l3.33 1.9342.187-.236c.787 1.1524 1.188 2.8843 1.202 5.1956l.024 8.0867c0 1.912.67 3.254 1.752 3.88l3.33 1.936c-1.082-.628-1.748-1.97-1.753-3.882l-.023-8.0865c-.01-3.3063-.82-5.4318-2.428-6.3765l-1.854-1.077a19.429 19.429 0 0 0 2.518-3.9675l2.4 1.4476a3.743 3.743 0 0 1 1.92.4724l-3.32-1.939a3.281 3.281 0 0 0-.815-.333c1.03-2.343 1.55-4.8778 1.526-7.4368l-.024-8.0863c-.012-3.8495 2.662-8.4783 6.013-10.4125l10.76-6.2135-6.51 47.0676-2.763-1.606-2.68 1.5493c-.928.5337-1.772.581-2.383.2362l3.33 1.9343c.61.356 1.454.307 2.38-.236l2.017-1.1646-.182 1.3086 3.33 1.934 7.31-52.8418c4.405-1.613 8.342-1.417 11.374.347l-3.33-1.9436z"/><path id="O" d="M272.724 135.548c-3.032-1.762-6.97-1.963-11.37-.347l-.425 3.07-2.792-1.623-11.392 6.578c-3.35 1.934-6.022 6.56-6.013 10.412l.024 8.086c.014 4.617-1.54 8.727-4.664 12.333l3.33 1.934.187-.236c.787 1.152 1.188 2.884 1.202 5.196l.024 8.086c0 1.913.67 3.254 1.752 3.88l3.33 1.936c-1.082-.628-1.748-1.97-1.752-3.882l-.024-8.086c-.01-3.307-.82-5.432-2.428-6.377l-1.854-1.077c.997-1.215 1.842-2.548 2.518-3.967l2.4 1.447c.67-.017 1.334.146 1.92.473l-3.32-1.94c-.255-.147-.53-.26-.815-.333a18.059 18.059 0 0 0 1.526-7.437l-.024-8.086c-.012-3.85 2.662-8.478 6.013-10.413l10.76-6.213-6.51 47.067-2.763-1.606-2.68 1.55c-.928.533-1.77.58-2.383.236l3.33 1.934c.61.357 1.455.307 2.38-.236l2.017-1.164-.182 1.308 3.33 1.934 7.3-52.842c4.404-1.613 8.34-1.417 11.373.348l-3.33-1.944z"/></defs></svg>