<svg xmlns="http://www.w3.org/2000/svg" width="482" height="74" fill="none" xmlns:v="https://vecta.io/nano"><g clip-path="url(#A)"><path d="M479.05 70.99a2.9 2.9 0 0 0 .19 1.159 2.87 2.87 0 0 0 .634.987 2.88 2.88 0 0 0 .973.652c.366.148.758.22 1.152.2V15.843a3.8 3.8 0 0 0-.283-1.459 3.79 3.79 0 0 0-.82-1.238c-.352-.354-.77-.635-1.232-.826a3.77 3.77 0 0 0-1.454-.287h-228.41c-4.89 0-7.478-8.403-8.807-12.032-1 3.63-3.918 12.032-8.807 12.032H3.79c-.498-.001-.99.096-1.45.287s-.878.47-1.23.823a3.79 3.79 0 0 0-.821 1.234A3.8 3.8 0 0 0 0 15.833V73.99a2.87 2.87 0 0 0 1.152-.21c.366-.148.697-.37.973-.652a2.89 2.89 0 0 0 .634-.987c.142-.37.206-.764.2-1.16V17.106a2.13 2.13 0 0 1 .613-1.447c.38-.386.895-.61 1.436-.63h227.82c2.13-.03 4.165-.88 5.687-2.372s2.413-3.516 2.5-5.65a8.32 8.32 0 0 0 2.488 5.653 8.27 8.27 0 0 0 5.689 2.369h227.77c.56.003 1.093.226 1.488.623a2.13 2.13 0 0 1 .621 1.493V70.99z" fill="#675cff"/></g><defs><clipPath id="A"><path fill="#fff" d="M0 0h482v74H0z"/></clipPath></defs></svg>