<svg xmlns="http://www.w3.org/2000/svg" width="482" height="74" fill="none" xmlns:v="https://vecta.io/nano"><g clip-path="url(#A)"><path d="M479.05 70.99c-.016.3952.048.7896.2 1.1588s.357.705.634.9872.608.504.973.6524a2.875 2.875 0 0 0 1.152.2097V15.8426a3.8 3.8 0 0 0-.283-1.4589 3.788 3.788 0 0 0-.82-1.2377c-.352-.3542-.77-.635-1.232-.826s-.955-.289-1.454-.2875h-228.41c-4.89 0-7.478-8.4026-8.807-12.0324-1 3.6298-3.918 12.0324-8.807 12.0324H3.7885c-.498-.0014-.991.096-1.4514.2866s-.8784.4703-1.2305.8235a3.791 3.791 0 0 0-.821 1.2342A3.801 3.801 0 0 0 0 15.8326V73.989a2.872 2.872 0 0 0 1.1518-.2098c.3656-.1483.697-.3703.9734-.6524a2.888 2.888 0 0 0 .6339-.9872c.1417-.369.2062-.7635.1897-1.1587V17.106a2.129 2.129 0 0 1 .6129-1.4468 2.116 2.116 0 0 1 1.4363-.6288h227.82c2.13-.0294 4.165-.8786 5.687-2.3716s2.413-3.516 2.5-5.65a8.321 8.321 0 0 0 2.488 5.6526 8.271 8.271 0 0 0 5.689 2.3689h227.77c.56.0027 1.093.2264 1.488.6226a2.131 2.131 0 0 1 .621 1.4931V70.99z" fill="#675cff"/></g><defs><clipPath id="A"><path fill="#fff" d="M0 0h482v74H0z"/></clipPath></defs></svg>