<svg xmlns="http://www.w3.org/2000/svg" xmlns:xlink="http://www.w3.org/1999/xlink" width="512" height="512" fill="none" xmlns:v="https://vecta.io/nano"><g fill="#7066ff"><use xlink:href="#B"/><use xlink:href="#C"/><use xlink:href="#D"/></g><g opacity=".3" fill="#010014"><use xlink:href="#B"/><use xlink:href="#C"/><use xlink:href="#D"/></g><g fill="#7066ff"><path d="M266.916 197.07c18.808-10.857 49.485-10.857 68.16 0l118.88 69.083c18.7 10.856 18.585 28.622-.223 39.478l-170.93 98.643c-18.808 10.872-49.47 10.872-68.16 0L95.764 335.2c-18.6892-10.856-18.585-28.622.2085-39.478l-16.9767-9.873c-46.8645-27.237-46.6263-71.48.566-98.688s123.4983-27.237 170.3773 0l16.977 9.918zm-34.25 19.73l-16.873-9.903c-28.13-16.38-73.893-16.38-102.217 0s-28.4735 42.874-.343 59.225l16.932 9.873L232.74 216.77l-.074.03zm65.717 81.697c6.716-9.978 3.366-21.817-10.573-29.903-18.674-10.856-49.337-10.856-68.13 0s-18.913 28.622-.238 39.463c13.938 8.102 34.37 10.082 51.585 6.225l36.857 21.43 27.356-15.8-36.857-21.43M212.56 98.5155l-21.266-12.27-.06 20.6404 21.265 12.27.06-20.6405z"/><use xlink:href="#E"/><use xlink:href="#F"/></g><g opacity=".3" fill="#010014"><path d="M212.56 98.5155l-21.266-12.271-.06 20.6404 21.265 12.27.06-20.6405z"/><use xlink:href="#E"/><use xlink:href="#F"/></g><path d="M391.233 133.035c24.7 14.266 24.824 37.438.298 51.69s-64.556 14.267-89.262 0c-9.248-5.33-15.413-12.21-17.647-19.657s-.432-15.1 5.153-21.906l-47.37-27.356-22.234 12.926-29.858-17.29 22.25-12.9264-21.266-12.271L220.945 69l98.48 56.857c12.318-3.31 25.135-4.348 37.826-3.068 12.85 1.31 24.735 4.84 33.983 10.246zm-59.285 34.4c8.206 4.75 21.594 4.736 29.784 0s8.1-12.48-.104-17.23-21.593-4.735-29.784 0-8.116 12.494.09 17.23" fill="#7066ff"/><defs ><path id="B" d="M113.62 237.278c28.295-16.38 74.087-16.38 102.218 0l16.976 9.873-.074-30.35-16.947-9.903c-28.13-16.38-73.893-16.38-102.217 0-14.252 8.235-21.3702 19.047-21.3405 29.784l.088 29.896.0013.453-.0013-.453c.0696-10.616 7.2304-21.225 21.2964-29.3z"/><path id="C" d="M205.502 288.46l.09 30.35c0-7.207 4.706-14.415 14.177-19.88 18.794-10.856 49.456-10.856 68.13 0a31.903 31.903 0 0 1 10.514 9.262v23.62l36.857 21.414-.09-33.328-33.477-19.463v-12.3c0-7.073-4.602-14.147-13.91-19.553-18.674-10.856-49.337-10.856-68.13 0-9.456 5.465-14.177 12.673-14.162 19.88z"/><path id="D" d="M453.734 305.586c9.47-5.465 14.177-12.673 14.177-19.88l.09 30.35c.015 7.208-4.706 14.416-14.177 19.88L282.88 434.624c-18.81 10.856-49.47 10.856-68.16 0L95.8384 365.54c-9.2776-5.39-13.9387-12.494-13.9387-19.598l-.0894-28.16-2.7252-1.594c-23.2908-13.52-34.9958-31.243-34.9958-48.994L44 236.846c.0596 17.72 11.705 35.472 34.9958 48.994l16.9767 9.873.0893 30.35-14.0728-8.176c.9084 6.314 5.4802 12.494 13.775 17.304l118.881 69.083c18.7 10.872 49.352 10.872 68.16 0l170.93-98.688z"/><path id="E" d="M331.785 170.845c8.145-4.735 21.533-4.735 29.783 0 4.096 2.366 6.165 5.495 6.18 8.615l1-21.573c0-3.142-3.055-6.3-7.18-8.682-8.205-4.735-21.593-4.735-29.783 0-4.05 2.353-7.09 5.45-7.09 8.563l1 21.64c0-3.112 2.04-6.165 6.09-8.563z"/><path id="F" d="M302.254 184.665c24.706 14.266 64.72 14.266 89.262 0 12.196-7.074 18.302-16.366 18.317-25.704v20.64c-.03 9.277-6.136 18.57-18.317 25.658-24.542 14.267-64.556 14.267-89.262 0-9.248-5.346-15.413-12.21-17.647-19.657a22.1 22.1 0 0 1-.938-6.329v-19.062l-41.34-23.827-22.233 12.927-29.784-17.23v-20.64l29.77 17.23 22.233-12.927 47.37 27.357v20.64l-5.956-3.455a21.789 21.789 0 0 0 .878 4.721c2.234 7.445 8.4 14.326 17.647 19.657z"/></defs></svg>