<svg xmlns="http://www.w3.org/2000/svg" width="279" height="202" fill="none" xmlns:v="https://vecta.io/nano"><path d="M63 55.4896a8 8 0 0 1 4.0225-6.9411l81.9835-46.979C150.242.86 151.76.42 154.365 2.7128c.415.365.628.9052.615 1.4575L152 130.638a9 9 0 0 1-4.525 7.809l-78.6833 47.67c-.3213.194-.6915.298-1.0666.278-2.956-.158-4.725-1.216-4.725-3.992V55.4896z" fill="#5f57dc"/><path d="M66 56.4897c0-2.8674 1.5346-5.5155 4.0225-6.9412l81.9835-46.979c1.333-.764 2.994.1986 2.994 1.7353V131.638a9 9 0 0 1-4.525 7.809l-81.4806 46.69c-1.3333.764-2.9944-.2-2.9944-1.736V56.4897z" fill="#7066ff"/><path d="M122.367 14.26l-.001 9.411-8.15 4.7057c-3.406 1.967-3.28 9.0328 1.56 7.097l6.59-5.7022v9.411c0 3.9326 5.75 3.6118 5.75-.3208l-.467-12.1405 10.873-5.7668c3.406-1.967.684-7.0063-2.723-5.0394l-8.15 4.7058 1.677-8.862c0-3.933-7.018-2.904-6.96 2.5016z" fill="#221f5b"/><path d="M124.096 15.1896v9.411l-8.15 4.7057c-3.407 1.967-3.407 8.0674 0 6.1005l8.15-4.7058-.001 9.411c0 3.9326 5.283.8822 5.283-3.0505l.001-9.4108 8.15-4.7057c3.407-1.967 3.407-8.0674.001-6.1005l-8.15 4.7058v-9.411c0-3.933-5.283-.8827-5.283 3.0504z" fill="#443da1"/><path d="M87 62.4896a8 8 0 0 1 4.0225-6.9411l81.9835-46.979c1.236-.7084 2.754-1.1484 5.36 1.1434.415.365.628.9052.615 1.4575L176 137.638a9 9 0 0 1-4.525 7.809l-78.6833 47.67c-.3213.194-.6915.298-1.0666.278-2.956-.158-4.725-1.216-4.725-3.992V62.4896z" fill="#5f57dc"/><path d="M90 63.4897c0-2.8674 1.5346-5.5155 4.0225-6.9412l81.9835-46.979c1.333-.764 2.994.1986 2.994 1.7353V138.638a9 9 0 0 1-4.525 7.809l-81.4806 46.69c-1.3333.764-2.9944-.2-2.9944-1.736V63.4897z" fill="#7066ff"/><path d="M113 70.636c0-2.8674 1.535-5.5155 4.022-6.941l81.984-46.979c1.236-.7084 2.754-1.1485 5.36 1.1434.415.3648.628.9052.615 1.4575L202 145.784a9 9 0 0 1-4.525 7.809l-78.683 47.67c-.322.195-.692.3-1.067.28-2.956-.158-4.725-1.217-4.725-3.992V70.636z" fill="#5f57dc"/><path d="M116 71.6362c0-2.8674 1.535-5.5155 4.022-6.9412l81.984-46.979c1.333-.764 2.994.1986 2.994 1.7353V146.784a9 9 0 0 1-4.525 7.809l-81.48 46.69c-1.333.764-2.994-.198-2.994-1.735V71.6362z" fill="#7066ff"/><g fill="#2d2972"><path d="M187.355 48.3104c.197-.02.395.0147.574.0978l.927.54a1.101 1.101 0 0 0-.574-.0989c-.196.02-.384.0907-.544.2073L133.622 80.3c-.457.297-.836.6977-1.108 1.1695a3.448 3.448 0 0 0-.456 1.5451c-.02.193.01.388.092.5646a1.095 1.095 0 0 0 .364.441l-.926-.54c-.16-.112-.285-.2642-.365-.44a1.096 1.096 0 0 1-.092-.5647 3.448 3.448 0 0 1 .456-1.545c.272-.4718.652-.8726 1.108-1.1695l54.117-31.2435c.16-.116.347-.1872.543-.2062zm-53.7 41.55l39.17-22.6135a1.108 1.108 0 0 1 .543-.2074c.197-.0197.395.0134.574.0957l-.94-.54a1.11 1.11 0 0 0-.573-.0957c-.196.0196-.384.0912-.544.2075l-39.157 22.6134a3.478 3.478 0 0 0-1.11 1.1677 3.47 3.47 0 0 0-.459 1.5436 1.103 1.103 0 0 0 .095.5663c.08.1772.207.33.366.4426l.926.5356c-.16-.112-.285-.264-.366-.4406a1.108 1.108 0 0 1-.094-.565 3.457 3.457 0 0 1 .458-1.5439 3.452 3.452 0 0 1 1.11-1.1673zm-1.088 13.2776l-.927-.54c-.158-.112-.284-.264-.364-.44a1.096 1.096 0 0 1-.092-.565 3.448 3.448 0 0 1 .456-1.545 3.437 3.437 0 0 1 1.108-1.1694l45.38-26.1956c.16-.1162.347-.1878.544-.2074a1.111 1.111 0 0 1 .574.0957l.923.54c-.18-.083-.377-.117-.573-.0978s-.385.0903-.544.2063l-45.378 26.1988c-.457.297-.837.6975-1.108 1.1695a3.449 3.449 0 0 0-.457 1.545c-.02.193.012.388.092.565a1.079 1.079 0 0 0 .365.44zm49.946-23.4185L132.76 108.438c-.457.296-.837.697-1.1 1.168a3.456 3.456 0 0 0-.459 1.543c-.02.194.014.4.094.567s.207.33.366.442l.917.54a1.107 1.107 0 0 1-.366-.442c-.08-.178-.113-.373-.094-.567.03-.543.186-1.072.458-1.544s.653-.87 1.1-1.167l49.742-28.7195c.16-.116.347-.1872.544-.2063a1.105 1.105 0 0 1 .573.0978l-.926-.54a1.119 1.119 0 0 0-.569-.0935c-.194.02-.38.0887-.54.202z"/><path d="M167.277 98.0832L132.77 118a3.441 3.441 0 0 0-1.108 1.168c-.272.47-.428 1-.457 1.543a1.092 1.092 0 0 0 .092.564 1.103 1.103 0 0 0 .365.441l.927.54a1.087 1.087 0 0 1-.365-.441 1.092 1.092 0 0 1-.092-.564c.03-.543.185-1.072.457-1.543a3.438 3.438 0 0 1 1.107-1.168l34.507-19.9158a1.102 1.102 0 0 1 .544-.2074 1.095 1.095 0 0 1 .573.099l-.93-.552c-.18-.0813-.377-.113-.573-.0915a1.103 1.103 0 0 0-.541.2131zm20.078-1.9657c.197-.02.395.0147.574.0978l.927.54a1.102 1.102 0 0 0-.574-.0989c-.196.02-.384.0907-.544.2073l-54.116 31.2433c-.457.297-.836.698-1.108 1.17a3.444 3.444 0 0 0-.456 1.545 1.082 1.082 0 0 0 .092.564c.08.177.206.33.364.44l-.926-.54a1.087 1.087 0 0 1-.365-.441 1.092 1.092 0 0 1-.092-.564 3.444 3.444 0 0 1 .456-1.545 3.456 3.456 0 0 1 1.108-1.17l54.117-31.2432c.16-.116.347-.1872.543-.2063zm-53.7 41.5495l39.17-22.614c.16-.116.347-.188.543-.207a1.109 1.109 0 0 1 .574.095l-.94-.54a1.107 1.107 0 0 0-.573-.095c-.197.02-.384.1-.544.207l-39.157 22.614a3.472 3.472 0 0 0-1.11 1.167 3.469 3.469 0 0 0-.459 1.544c-.02.194.014.4.095.566s.207.33.366.443l.926.535a1.101 1.101 0 0 1-.366-.44c-.08-.177-.113-.372-.094-.565a3.455 3.455 0 0 1 .458-1.544c.273-.47.653-.87 1.1-1.167zm-1.088 13.277l-.927-.54c-.158-.112-.284-.264-.364-.44a1.096 1.096 0 0 1-.092-.565 3.448 3.448 0 0 1 .456-1.545 3.446 3.446 0 0 1 1.108-1.17l45.38-26.196c.16-.116.347-.188.544-.207a1.121 1.121 0 0 1 .574.095l.923.54a1.108 1.108 0 0 0-.573-.097c-.197.02-.385.1-.544.206l-45.378 26.2a3.434 3.434 0 0 0-1.108 1.169 3.449 3.449 0 0 0-.457 1.545c-.02.193.012.388.092.565a1.103 1.103 0 0 0 .365.441zm49.946-23.418l-49.742 28.72a3.465 3.465 0 0 0-1.11 1.168 3.456 3.456 0 0 0-.459 1.543 1.115 1.115 0 0 0 .094.567c.08.177.207.33.366.442l.917.54c-.16-.112-.285-.265-.366-.442s-.113-.373-.094-.567c.03-.543.186-1.072.458-1.544s.653-.87 1.1-1.167l49.742-28.72c.16-.116.347-.188.544-.207a1.107 1.107 0 0 1 .573.098l-.926-.54a1.122 1.122 0 0 0-.569-.093 1.11 1.11 0 0 0-.539.202zM167.277 145.9l-34.506 19.916a3.45 3.45 0 0 0-1.108 1.168c-.272.47-.428 1-.457 1.543-.02.193.012.388.092.565a1.079 1.079 0 0 0 .365.44l.927.54a1.096 1.096 0 0 1-.365-.44c-.08-.175-.112-.372-.092-.565.03-.543.185-1.072.457-1.543a3.447 3.447 0 0 1 1.107-1.168l34.507-19.916c.16-.116.347-.188.544-.207s.395.015.573.1l-.93-.552a1.095 1.095 0 0 0-.573-.092c-.196.022-.383.095-.54.213z"/></g><path d="M133.622 80.2988l54.116-31.2434c.868-.4996 1.57-.0986 1.574.9004-.028.543-.185 1.0713-.456 1.542a3.444 3.444 0 0 1-1.108 1.166l-54.116 31.2434c-.868.5028-1.575.092-1.575-.894a3.449 3.449 0 0 1 .457-1.545 3.446 3.446 0 0 1 1.108-1.1695zm.033 13.1688l39.17-22.6134c.456-.2974.835-.6982 1.107-1.17a3.457 3.457 0 0 0 .457-1.5446c0-.986-.707-1.3968-1.574-.894L133.645 89.86c-.457.296-.837.696-1.1 1.1673s-.43 1.0004-.458 1.544c.003.9958.7 1.387 1.578.8972zM179.052 76.83l-45.378 26.196c-.867.503-1.574.102-1.574-.894.028-.544.185-1.073.456-1.545s.652-.8728 1.108-1.1697l45.378-26.2c.868-.4995 1.578-.0854 1.578.9005-.03.5433-.188 1.0718-.46 1.543a3.46 3.46 0 0 1-1.108 1.1683zm4.378 3.4282l-49.743 28.7198c-.456.296-.837.696-1.1 1.167a3.43 3.43 0 0 0-.458 1.544c0 .986.7 1.4 1.577.897l49.743-28.7193c.456-.296.836-.6962 1.108-1.1675s.428-1.0004.456-1.5438c-.003-.9957-.707-1.3967-1.574-.8972zm-15.226 18.3614l-34.507 19.9154a3.456 3.456 0 0 0-1.107 1.168c-.272.47-.428 1-.457 1.543 0 .986.707 1.397 1.574.894l34.507-19.915c.456-.296.836-.696 1.107-1.166a3.437 3.437 0 0 0 .457-1.5422c-.003-.9925-.7-1.3935-1.574-.8972zm-34.582 29.4874l54.116-31.2433c.868-.4995 1.57-.0986 1.574.9005a3.448 3.448 0 0 1-.456 1.542 3.446 3.446 0 0 1-1.108 1.1658l-54.116 31.244c-.868.502-1.575.092-1.575-.894.028-.544.185-1.074.457-1.545a3.446 3.446 0 0 1 1.108-1.17zm.033 13.17l39.17-22.613c.456-.298.835-.7 1.107-1.17s.428-1 .457-1.545c0-.986-.707-1.397-1.574-.894l-39.17 22.614c-.457.296-.837.696-1.1 1.167a3.455 3.455 0 0 0-.458 1.544c.003.996.7 1.387 1.578.897zm45.397-16.64l-45.378 26.196c-.867.503-1.574.102-1.574-.894.028-.544.185-1.073.456-1.545a3.453 3.453 0 0 1 1.108-1.169l45.378-26.2c.868-.5 1.578-.086 1.578.9a3.466 3.466 0 0 1-.46 1.543 3.459 3.459 0 0 1-1.108 1.168zm4.378 3.43l-49.743 28.72c-.456.296-.837.696-1.1 1.167a3.43 3.43 0 0 0-.458 1.544c0 .986.7 1.4 1.577.898l49.743-28.72a3.447 3.447 0 0 0 1.108-1.167c.272-.472.428-1 .456-1.544-.003-.996-.707-1.397-1.574-.897zm-15.226 18.36l-34.507 19.915a3.456 3.456 0 0 0-1.107 1.168c-.272.472-.428 1-.457 1.544 0 .985.707 1.396 1.574.893l34.507-19.915c.456-.296.836-.695 1.107-1.166a3.437 3.437 0 0 0 .457-1.542c-.003-.992-.7-1.393-1.574-.897z" fill="#443da1"/><path d="M168.29 14.8514l-.001 9.442-8.176 4.7213c-3.418 1.9735-3.293 9.0627 1.563 7.1204l6.613-5.72v9.442c0 3.9457 5.77 3.6238 5.77-.3218l-.468-12.1807 10.908-5.786c3.418-1.9734.687-7.0295-2.73-5.056l-8.177 4.7213 1.682-8.8914c0-3.946-7.04-2.9134-6.982 2.51z" fill="#221f5b"/><path d="M170.026 15.784v9.442l-8.177 4.7213c-3.418 1.9734-3.418 8.094 0 6.1206l8.177-4.7213-.001 9.442c0 3.9456 5.3.885 5.3-3.0605v-9.442l8.177-4.7213c3.418-1.9735 3.418-8.094 0-6.1206l-8.177 4.7213.001-9.442c0-3.9462-5.3-.8857-5.3 3.0605z" fill="#443da1"/><path d="M87.4748 51.0156l-.0003 7.5293-6.5204 3.765c-2.7255 1.5737-2.6255 7.2268 1.2467 5.678l5.2735-4.5622-.0002 7.5293c-.0002 3.1464 4.6006 2.8898 4.6007-.2566l-.3737-9.7132 8.699-4.614c2.725-1.5737.547-5.6055-2.1783-4.0318l-6.5204 3.765 1.3416-7.0902c.0001-3.1468-5.6147-2.3233-5.568 2.0015z" fill="#221f5b"/><path d="M88.8586 51.759l-.0003 7.5293-6.5204 3.765c-2.7255 1.5737-2.7257 6.4544-.0002 4.8808l6.5204-3.765-.0003 7.5293c-.0001 3.1463 4.2267.7058 4.2268-2.4406l.0003-7.5293 6.5204-3.765c2.7257-1.5737 2.7257-6.4545.0002-4.8808l-6.5204 3.765.0003-7.5293c.0001-3.1468-4.2267-.7062-4.2268 2.4406z" fill="#443da1"/></svg>