<svg xmlns="http://www.w3.org/2000/svg" xmlns:xlink="http://www.w3.org/1999/xlink" width="279" height="202" fill="none" xmlns:v="https://vecta.io/nano"><style><![CDATA[.B{fill:#010014}.C{fill:#7066ff}.D{opacity:.15}.E{opacity:.4}.F{fill-rule:evenodd}]]></style><use xlink:href="#B" class="C"/><use xlink:href="#B" class="B D"/><use xlink:href="#C" class="C"/><use xlink:href="#C" class="B D"/><use xlink:href="#D" class="C"/><use xlink:href="#D" class="B D"/><g class="C"><path d="M155.618 8.0833l.154 123.7698c0 2.13-1.49 4.734-3.346 5.796l-82.8516 47.83c-1.8504 1.073-3.3614.213-3.3654-1.918l-.1538-123.7693L155.618 8.0833z"/><use xlink:href="#E"/></g><use xlink:href="#E" class="B D"/><g class="C"><path d="M152.24 2.2993c1.854-1.0692 3.36-.209 3.37 1.9253V8.083L66.051 59.7906V55.932c0-2.1344 1.4914-4.7344 3.3457-5.7996L152.24 2.2993z"/><use xlink:href="#F"/></g><use xlink:href="#F" opacity=".7" class="B"/><use xlink:href="#G" class="C"/><use xlink:href="#G" class="B E"/><use xlink:href="#H" class="C"/><use xlink:href="#H" class="B D"/><use xlink:href="#I" class="C"/><use xlink:href="#I" class="B D"/><use xlink:href="#J" class="C"/><use xlink:href="#J" class="B D"/><g class="C"><path d="M179.522 16.05l.153 123.77c0 2.13-1.49 4.734-3.345 5.795l-82.852 47.83c-1.8504 1.073-3.3615.213-3.3654-1.918l-.154-123.7695L179.522 16.05z"/><use xlink:href="#K"/></g><use xlink:href="#K" class="B D"/><g class="C"><path d="M176.144 10.2673c1.855-1.0692 3.362-.209 3.37 1.9253v3.8585L89.9548 67.7586V63.9c0-2.1345 1.4914-4.7344 3.3457-5.7997l82.8435-47.833z"/><use xlink:href="#L"/></g><use xlink:href="#L" class="B D"/><use xlink:href="#M" class="C"/><use xlink:href="#M" class="B D"/><use xlink:href="#N" class="C"/><use xlink:href="#N" class="B D"/><g class="C"><path d="M203.425 24.1433l.154 123.7697c0 2.13-1.49 4.734-3.346 5.796l-82.85 47.83c-1.85 1.073-3.362.213-3.366-1.918l-.154-123.7693 89.563-51.7074z"/><use xlink:href="#O"/></g><use xlink:href="#O" class="B D"/><path d="M200.048 18.3596c1.854-1.0692 3.36-.21 3.37 1.9253v3.8585l-89.56 51.7075v-3.8586c0-2.1344 1.492-4.7344 3.346-5.7996l82.844-47.833zm-32.77 79.7236L132.77 118a3.438 3.438 0 0 0-1.107 1.168c-.272.47-.428 1-.457 1.543a1.092 1.092 0 0 0 .092.564 1.095 1.095 0 0 0 .365.441l.927.54a1.087 1.087 0 0 1-.365-.441 1.092 1.092 0 0 1-.092-.564 3.437 3.437 0 0 1 .457-1.543 3.45 3.45 0 0 1 1.107-1.169l34.507-19.9148a1.102 1.102 0 0 1 .544-.2074 1.1 1.1 0 0 1 .573.0989l-.93-.552c-.18-.0813-.377-.113-.573-.0916a1.096 1.096 0 0 0-.54.2132h0zm15.226-18.3648L132.76 108.438c-.457.296-.837.697-1.1 1.168s-.43 1-.46 1.543c-.02.194.013.4.094.567a1.107 1.107 0 0 0 .366.442l.917.54a1.107 1.107 0 0 1-.366-.442c-.08-.178-.113-.373-.094-.567a3.459 3.459 0 0 1 .458-1.544c.273-.47.653-.87 1.1-1.167l49.742-28.7196c.16-.116.347-.1872.544-.2063a1.103 1.103 0 0 1 .573.098l-.927-.54c-.178-.0803-.373-.1125-.568-.0935s-.38.0887-.54.202h0zM131.63 102.598l.927.54c-.16-.112-.284-.265-.365-.44s-.112-.372-.092-.565c.028-.544.185-1.073.456-1.545s.652-.8726 1.108-1.1695l45.378-26.2a1.11 1.11 0 0 1 .544-.2062c.197-.02.395.0147.574.0978l-.924-.54a1.11 1.11 0 0 0-.573-.0957c-.196.0196-.384.0913-.544.2075l-45.38 26.1955c-.457.297-.836.6977-1.108 1.1695a3.449 3.449 0 0 0-.457 1.545 1.088 1.088 0 0 0 .093.565 1.099 1.099 0 0 0 .364.441zm2.015-12.7387l39.17-22.6135a1.108 1.108 0 0 1 .543-.2074c.197-.0197.395.0134.574.0957l-.94-.54a1.112 1.112 0 0 0-.574-.0957c-.197.0196-.384.0913-.543.2075l-39.157 22.6134a3.478 3.478 0 0 0-1.11 1.1677 3.47 3.47 0 0 0-.459 1.5436 1.103 1.103 0 0 0 .46 1.0089l.927.5356c-.16-.112-.285-.264-.366-.4406s-.113-.3716-.094-.565a3.457 3.457 0 0 1 .458-1.5439 3.452 3.452 0 0 1 1.11-1.1673zm54.285-41.451c-.18-.083-.377-.117-.574-.0978a1.11 1.11 0 0 0-.544.2062L132.695 79.76c-.456.297-.836.6977-1.108 1.1695a3.448 3.448 0 0 0-.456 1.545 1.096 1.096 0 0 0 .092.5647 1.094 1.094 0 0 0 .364.4409l.927.54a1.095 1.095 0 0 1-.364-.441c-.08-.1767-.112-.3716-.093-.5646.028-.5438.185-1.0733.457-1.545s.65-.8725 1.108-1.1695l54.116-31.2434a1.102 1.102 0 0 1 .544-.2073 1.101 1.101 0 0 1 .574.0989l-.927-.54z" class="C"/><path opacity=".6" d="M187.355 48.3104c.197-.019.395.0147.574.0978l.927.54a1.101 1.101 0 0 0-.574-.0989 1.102 1.102 0 0 0-.544.2073L133.622 80.3c-.457.297-.836.6977-1.108 1.1695s-.43 1.0013-.457 1.545c-.02.193.012.388.093.5646a1.095 1.095 0 0 0 .364.441l-.927-.54a1.094 1.094 0 0 1-.364-.4409 1.096 1.096 0 0 1-.092-.5647 3.448 3.448 0 0 1 .456-1.545c.272-.4718.652-.8726 1.108-1.1695l54.116-31.2435a1.11 1.11 0 0 1 .544-.2062zm-53.7 41.55l39.17-22.6135a1.108 1.108 0 0 1 .543-.2074c.197-.0197.395.0134.574.0957l-.94-.54c-.18-.0823-.377-.1153-.574-.0957s-.384.0912-.543.2075l-39.157 22.6134c-.456.2965-.836.6966-1.11 1.1677a3.47 3.47 0 0 0-.459 1.5436 1.103 1.103 0 0 0 .46 1.0089l.927.5356c-.16-.112-.285-.264-.366-.4406s-.113-.3716-.094-.565a3.457 3.457 0 0 1 .458-1.5439 3.452 3.452 0 0 1 1.11-1.1673zm-1.088 13.2776l-.927-.54c-.158-.112-.284-.264-.364-.44s-.112-.372-.093-.565a3.449 3.449 0 0 1 .457-1.545c.272-.4717.65-.8725 1.108-1.1694l45.38-26.1956c.16-.1162.347-.1878.544-.2074s.394.0133.573.0957l.924.539c-.18-.083-.377-.117-.574-.0978a1.111 1.111 0 0 0-.544.2063l-45.378 26.1988c-.456.297-.836.6975-1.108 1.1695s-.428 1-.456 1.545c-.02.193.012.388.092.565s.206.33.365.44zm49.946-23.4185L132.76 108.438c-.457.296-.837.697-1.11 1.168s-.43 1-.46 1.543c-.02.194.013.39.094.567s.207.33.366.442l.917.54a1.107 1.107 0 0 1-.366-.442c-.08-.178-.113-.373-.094-.567.03-.543.186-1.072.458-1.544s.653-.87 1.11-1.167l49.743-28.7195c.16-.116.347-.1872.544-.2063s.394.0147.573.0978l-.927-.539c-.178-.0803-.373-.1125-.568-.0935s-.38.0887-.54.202zm-15.226 18.3647L132.77 118a3.438 3.438 0 0 0-1.107 1.168c-.272.47-.428 1-.457 1.543a1.092 1.092 0 0 0 .092.564 1.095 1.095 0 0 0 .365.441l.927.54a1.087 1.087 0 0 1-.365-.441 1.092 1.092 0 0 1-.092-.564 3.441 3.441 0 0 1 .457-1.543 3.438 3.438 0 0 1 1.107-1.168l34.507-19.9158c.16-.1167.347-.1883.544-.2074a1.101 1.101 0 0 1 .573.0989l-.93-.552c-.18-.0813-.377-.113-.573-.0915a1.103 1.103 0 0 0-.541.2131z" class="B F"/><path d="M133.622 80.2988l54.116-31.2434c.868-.4996 1.57-.0986 1.574.9004-.028.543-.185 1.0713-.456 1.542a3.444 3.444 0 0 1-1.108 1.166l-54.116 31.2434c-.868.5028-1.575.092-1.575-.894a3.449 3.449 0 0 1 .457-1.545 3.446 3.446 0 0 1 1.108-1.1695zm.033 13.1688l39.17-22.6134c.456-.2974.835-.6982 1.107-1.17a3.457 3.457 0 0 0 .457-1.5446c0-.986-.707-1.3968-1.574-.894L133.645 89.86c-.457.296-.837.696-1.1 1.1673s-.43 1.0004-.458 1.544c.003.9958.7 1.387 1.578.8972zM179.052 76.83l-45.378 26.196c-.867.503-1.574.102-1.574-.894.028-.544.185-1.073.456-1.545s.652-.8728 1.108-1.1697l45.378-26.2c.868-.4995 1.578-.0854 1.578.9005-.03.5433-.188 1.0718-.46 1.543a3.46 3.46 0 0 1-1.108 1.1683zm4.378 3.4282l-49.743 28.7198c-.456.296-.837.696-1.1 1.167a3.43 3.43 0 0 0-.458 1.544c0 .986.7 1.4 1.577.897l49.743-28.7193c.456-.296.836-.6962 1.108-1.1675s.428-1.0004.456-1.5438c-.003-.9957-.707-1.3967-1.574-.8972zm-15.226 18.3614l-34.507 19.9154a3.456 3.456 0 0 0-1.107 1.168c-.272.47-.428 1-.457 1.543 0 .986.707 1.397 1.574.894l34.507-19.915c.456-.296.836-.696 1.107-1.166a3.437 3.437 0 0 0 .457-1.5423c-.003-.9924-.7-1.3934-1.574-.897z" class="B E"/><path d="M167.277 145.9l-34.507 19.916a3.447 3.447 0 0 0-1.107 1.168c-.272.47-.428 1-.457 1.543-.02.193.012.388.092.565a1.084 1.084 0 0 0 .365.44l.927.538c-.16-.112-.285-.264-.365-.44a1.096 1.096 0 0 1-.092-.565 3.441 3.441 0 0 1 .457-1.543 3.438 3.438 0 0 1 1.107-1.168l34.507-19.916c.16-.116.347-.188.544-.207s.394.015.573.1l-.93-.552a1.095 1.095 0 0 0-.573-.092c-.196.022-.383.095-.54.213h0zm15.226-18.374l-49.742 28.72a3.465 3.465 0 0 0-1.11 1.168c-.273.47-.43 1-.46 1.543-.02.194.013.4.094.567s.207.33.366.442l.917.54c-.16-.112-.285-.265-.366-.442s-.113-.373-.094-.567c.03-.543.186-1.072.458-1.544s.653-.87 1.1-1.167l49.742-28.72c.16-.116.347-.188.544-.207a1.107 1.107 0 0 1 .573.098l-.927-.54a1.118 1.118 0 0 0-.568-.093 1.11 1.11 0 0 0-.539.202h0zm-50.873 22.88l.927.54a1.095 1.095 0 0 1-.365-.441c-.08-.177-.112-.372-.092-.565.028-.544.185-1.073.456-1.545a3.453 3.453 0 0 1 1.108-1.169l45.378-26.2c.16-.116.348-.187.544-.207s.395.015.574.098l-.924-.54a1.107 1.107 0 0 0-.573-.095c-.197.02-.384.1-.544.207l-45.38 26.196c-.457.297-.836.697-1.108 1.17a3.449 3.449 0 0 0-.457 1.545 1.088 1.088 0 0 0 .093.565c.08.177.206.33.364.44zm2.015-12.738l39.17-22.614c.16-.116.347-.188.543-.207a1.109 1.109 0 0 1 .574.095l-.94-.538a1.101 1.101 0 0 0-.574-.096c-.197.02-.384.1-.543.207l-39.157 22.614a3.472 3.472 0 0 0-1.569 2.711c-.02.194.014.4.095.566s.207.33.365.443l.927.536a1.093 1.093 0 0 1-.366-.44 1.099 1.099 0 0 1-.094-.565 3.455 3.455 0 0 1 .458-1.544c.273-.47.653-.87 1.1-1.167zm54.285-41.4517c-.18-.083-.377-.117-.574-.0978a1.111 1.111 0 0 0-.544.2063l-54.116 31.2432a3.456 3.456 0 0 0-1.108 1.17 3.444 3.444 0 0 0-.456 1.545 1.092 1.092 0 0 0 .092.564c.08.177.206.33.364.44l.927.54c-.158-.112-.284-.264-.364-.44s-.112-.37-.093-.564c.028-.544.185-1.074.457-1.545a3.446 3.446 0 0 1 1.108-1.17l54.116-31.2433a1.103 1.103 0 0 1 1.118-.1084l-.927-.54z" class="C"/><path opacity=".6" d="M187.355 96.1175c.197-.019.395.0147.574.0978l.927.54a1.102 1.102 0 0 0-1.118.1084l-54.116 31.2433c-.457.297-.836.698-1.108 1.17s-.43 1-.457 1.545c-.02.193.012.388.093.564s.206.33.364.44l-.927-.54c-.158-.112-.284-.264-.364-.44a1.092 1.092 0 0 1-.092-.564 3.444 3.444 0 0 1 .456-1.545 3.456 3.456 0 0 1 1.108-1.17l54.116-31.2432a1.111 1.111 0 0 1 .544-.2063zm-53.7 41.5495l39.17-22.614c.16-.116.347-.188.543-.207a1.109 1.109 0 0 1 .574.095l-.94-.54a1.109 1.109 0 0 0-.574-.095c-.196.02-.384.09-.543.207l-39.157 22.614c-.456.296-.836.696-1.11 1.167a3.469 3.469 0 0 0-.459 1.544c-.02.194.014.39.095.566s.207.33.365.443l.927.535a1.101 1.101 0 0 1-.366-.44 1.099 1.099 0 0 1-.094-.565 3.455 3.455 0 0 1 .458-1.544c.273-.47.653-.87 1.1-1.167zm-1.088 13.277l-.927-.54c-.158-.112-.284-.264-.364-.44s-.112-.372-.093-.565a3.449 3.449 0 0 1 .457-1.545c.272-.472.65-.872 1.108-1.17l45.38-26.196c.16-.116.347-.188.544-.207a1.107 1.107 0 0 1 .573.095l.924.54a1.11 1.11 0 0 0-.574-.097c-.196.02-.384.1-.544.206l-45.378 26.2a3.453 3.453 0 0 0-1.108 1.169c-.27.472-.428 1-.456 1.545-.02.193.012.388.092.565a1.095 1.095 0 0 0 .365.441zm49.946-23.418l-49.742 28.72c-.457.297-.837.697-1.11 1.168s-.43 1-.46 1.543c-.02.194.013.4.094.567s.207.33.366.442l.917.54c-.16-.112-.285-.265-.366-.442s-.113-.373-.094-.567c.03-.543.186-1.072.458-1.544s.653-.87 1.11-1.167l49.743-28.72c.16-.116.347-.188.544-.207s.394.015.573.098l-.927-.54a1.118 1.118 0 0 0-.568-.093 1.11 1.11 0 0 0-.539.202zM167.277 145.9l-34.507 19.916a3.447 3.447 0 0 0-1.107 1.168c-.272.47-.428 1-.457 1.543-.02.193.012.388.092.565s.206.33.365.44l.927.54c-.16-.113-.285-.265-.365-.44s-.112-.372-.092-.565a3.441 3.441 0 0 1 .457-1.543 3.447 3.447 0 0 1 1.107-1.168l34.507-19.916c.16-.116.347-.188.544-.207s.394.015.573.1l-.93-.552a1.095 1.095 0 0 0-.573-.092c-.196.022-.383.095-.54.213z" class="B F"/><path d="M133.622 128.106l54.116-31.2433c.868-.4995 1.57-.0986 1.574.9005-.028.543-.185 1.0713-.456 1.542a3.446 3.446 0 0 1-1.108 1.1658l-54.116 31.244c-.868.502-1.575.092-1.575-.894.028-.544.185-1.074.457-1.545a3.446 3.446 0 0 1 1.108-1.17zm.033 13.17l39.17-22.613c.456-.298.835-.7 1.107-1.17s.428-1 .457-1.545c0-.986-.707-1.397-1.574-.894l-39.17 22.614c-.457.296-.837.696-1.1 1.167a3.455 3.455 0 0 0-.458 1.544c.003.996.7 1.387 1.578.897zm45.397-16.64l-45.378 26.196c-.867.503-1.574.102-1.574-.894.028-.544.185-1.073.456-1.545a3.453 3.453 0 0 1 1.108-1.169l45.378-26.2c.868-.5 1.578-.086 1.578.9a3.466 3.466 0 0 1-.46 1.543 3.459 3.459 0 0 1-1.108 1.168zm4.378 3.43l-49.743 28.72c-.456.296-.837.696-1.1 1.167a3.43 3.43 0 0 0-.458 1.544c0 .986.7 1.4 1.577.898l49.743-28.72a3.447 3.447 0 0 0 1.108-1.167c.272-.472.428-1 .456-1.544-.003-.996-.707-1.397-1.574-.897zm-15.226 18.36l-34.507 19.915a3.456 3.456 0 0 0-1.107 1.168c-.272.472-.428 1-.457 1.544 0 .985.707 1.396 1.574.893l34.507-19.915c.456-.296.836-.695 1.107-1.166a3.437 3.437 0 0 0 .457-1.542c-.003-.992-.7-1.393-1.574-.897z" class="B E"/><use xlink:href="#P" class="C"/><use xlink:href="#P" opacity=".7" class="B"/><use xlink:href="#Q" class="C"/><use xlink:href="#Q" class="B E"/><use xlink:href="#R" class="C"/><use xlink:href="#R" opacity=".7" class="B"/><use xlink:href="#S" class="C"/><use xlink:href="#S" class="B E"/><defs ><path id="B" d="M64.7188 182.67L64.565 58.8993l89.56-51.7074-1.665-.9627L62.9 57.9367l.15 123.7463c0 1.057.375 1.803.9785 2.154l1.669.97c-.6037-.335-.9785-1.08-.9785-2.138z"/><path id="C" d="M151.465.2245c-.608-.351-1.456-.3038-2.368.2367l-82.8513 47.829C64.3953 49.3596 62.896 51.9596 62.9 54.09v3.8585l1.669.9705v-3.8585c0-2.1344 1.4913-4.7344 3.3456-5.7996L150.766 1.428c.93-.5366 1.776-.588 2.368-.2328l-1.67-.9706z"/><path id="D" d="M66.2128 183.54L66.06 59.771l89.56-51.7074-1.665-.9627-89.56 51.7075.15 123.7457c0 1.058.3748 1.803.9784 2.154l1.669.97c-.6037-.335-.9785-1.08-.9785-2.138z"/><path id="E" d="M152.96 1.096c-.608-.351-1.456-.3038-2.367.2367L67.7397 49.162c-1.8504 1.0692-3.3496 3.6692-3.3456 5.7996v3.8586l1.6688.9705v-3.8585c0-2.1344 1.4914-4.7344 3.3457-5.7996L152.26 2.2994c.93-.5366 1.776-.588 2.368-.2328l-1.67-.9705z"/><path id="F" d="M122.367 14.2602l-.001 9.4108-8.15 4.7057c-3.407 1.967-3.282 9.0328 1.558 7.097l6.59-5.7022v9.411c0 3.9326 5.75 3.6118 5.75-.3208L127.65 26.72l10.873-5.7668c3.406-1.967.684-7.0063-2.723-5.0394l-8.15 4.7058 1.677-8.862c0-3.933-7.017-2.9038-6.96 2.5017z"/><path id="G" d="M124.096 15.1898v9.4108l-8.15 4.7057c-3.406 1.967-3.407 8.0674 0 6.1005l8.15-4.7058-.001 9.411c0 3.9326 5.283.8822 5.283-3.0504l.001-9.411 8.15-4.7057c3.406-1.967 3.406-8.0674 0-6.1004l-8.15 4.7057v-9.411c0-3.933-5.283-.8827-5.283 3.0505z"/><path id="H" d="M88.6224 190.637l-.154-123.7696L178.027 15.16l-1.665-.9626-89.5584 51.7074.15 123.7463c0 1.057.3748 1.803.9785 2.154l1.6688.97c-.6036-.335-.9784-1.08-.9784-2.138z"/><path id="I" d="M175.368 8.1923c-.607-.351-1.456-.3038-2.367.2367L90.1492 56.2582c-1.8503 1.0692-3.3495 3.6692-3.3456 5.7996v3.8586l1.669.9705v-3.8585c0-2.1344 1.4913-4.7344 3.3456-5.7996L174.67 9.3956c.93-.5366 1.775-.588 2.367-.2328l-1.67-.9705z"/><path id="J" d="M90.1165 191.508l-.1538-123.7693 89.5593-51.7074-1.665-.9627L88.2977 66.776l.15 123.746c0 1.057.3748 1.803.9784 2.154l1.669.97c-.6037-.336-.9785-1.08-.9785-2.14z"/><path id="K" d="M176.862 9.064c-.607-.351-1.456-.3038-2.367.2367L91.6433 57.1298c-1.8504 1.0692-3.3496 3.669-3.3457 5.7996v3.8586l1.669.9705V63.9c0-2.1344 1.4913-4.7344 3.3456-5.7997l82.852-47.833c.93-.5366 1.775-.5878 2.367-.2328l-1.67-.9705z"/><path id="L" d="M112.526 198.73l-.154-123.7694 89.56-51.7074-1.665-.9626-89.56 51.7074.15 123.746c0 1.057.375 1.803.98 2.154l1.668.97c-.603-.336-.978-1.08-.978-2.14z"/><path id="M" d="M199.272 16.2848c-.608-.351-1.456-.3037-2.367.2368l-82.852 47.829c-1.85 1.0692-3.35 3.6692-3.346 5.7997v3.8585l1.67.9705V71.121c0-2.1344 1.49-4.7344 3.346-5.7996l82.852-47.833c.93-.5366 1.775-.588 2.367-.2328l-1.67-.9706z"/><path id="N" d="M114.02 199.6l-.154-123.77 89.56-51.7075-1.665-.9626-89.56 51.7074.15 123.7457c0 1.058.375 1.803.98 2.155l1.67.97c-.604-.335-.98-1.08-.98-2.138z"/><path id="O" d="M200.766 17.1562c-.608-.3512-1.456-.3038-2.367.2367L115.547 65.222c-1.85 1.0692-3.35 3.669-3.346 5.7996v3.8585l1.67.9706v-3.8585c0-2.1345 1.49-4.7344 3.346-5.7997l82.852-47.833c.93-.5366 1.775-.588 2.367-.2328l-1.67-.9705z"/><path id="P" d="M198.29 14.8512l-.001 9.442-8.176 4.7213c-3.418 1.9735-3.293 9.0627 1.563 7.1204l6.613-5.721v9.442c0 3.9457 5.77 3.6238 5.77-.3218l-.468-12.1807 10.908-5.786c3.418-1.9735.687-7.0295-2.73-5.056l-8.177 4.7213 1.682-8.8914c0-3.946-7.04-2.9135-6.982 2.51z"/><path id="Q" d="M200.026 15.7838v9.442l-8.177 4.7213c-3.418 1.9734-3.418 8.094 0 6.1206l8.176-4.7213v9.442c0 3.9456 5.3.885 5.3-3.0605v-9.442l8.177-4.7213c3.418-1.9735 3.418-8.094 0-6.1207l-8.177 4.7213.001-9.442c0-3.9462-5.3-.8857-5.3 3.0605z"/><path id="R" d="M87.475 51.0154l-.0002 7.5293-6.5205 3.765c-2.7255 1.5737-2.6255 7.227 1.2467 5.678l5.2736-4.562-.0003 7.5293c-.0001 3.1464 4.6006 2.8897 4.6007-.2566l-.3736-9.7132 8.6987-4.614c2.726-1.5737.547-5.6055-2.178-4.0318l-6.5205 3.765 1.3416-7.0902c.0001-3.1468-5.6147-2.3233-5.568 2.0014z"/><path id="S" d="M88.8587 51.759l-.0003 7.5293-6.5204 3.765c-2.7255 1.5737-2.7257 6.4544-.0002 4.8808l6.5204-3.765-.0002 7.5293c-.0002 3.1463 4.2266.7058 4.2267-2.4406l.0003-7.5293 6.5205-3.765c2.7255-1.5737 2.7255-6.4545.0001-4.8808l-6.5204 3.765.0003-7.5293c.0001-3.1468-4.2267-.7062-4.2268 2.4406z"/></defs></svg>