<svg xmlns="http://www.w3.org/2000/svg" xmlns:xlink="http://www.w3.org/1999/xlink" width="512" height="512" fill="none" xmlns:v="https://vecta.io/nano"><g fill="#7066ff"><use xlink:href="#B"/><use xlink:href="#C"/></g><g opacity=".3" fill="#010014"><use xlink:href="#B"/><use xlink:href="#C"/></g><path d="M145.154 74.1243c9.178 5.307 16.592 18.1372 16.56 28.6727l-.42 151.404c.188 3.6 1.222 7.084 3.017 10.198s4.303 5.76 7.315 7.72l141.93 81.945-47.123-79.073c-6.71-11.254-6.68-23.6 0-27.097 3.122-1.64 7.227-1.014 11.285 1.31 4.66 2.9 8.524 6.92 11.24 11.69L377.13 409.04l-88.69 46.077c-3.12 1.56-7.21 1.014-11.27-1.31-4.66-2.9-8.523-6.92-11.238-11.69-6.696-11.254-6.65-23.57.094-27.05l47.434-24.506-164.765-95.12c-11.472-6.618-20.744-22.664-20.697-35.9l.5-175.9715c.03-10.49 7.492-14.7345 16.654-9.4432z" fill="#7066ff"/><defs ><path id="B" d="M305.268 233.255a32.768 32.768 0 0 1 11.239 11.675l88.126 148.126-27.502 15.983-45.437-54.134-19.51 3.903c-37.823-21.838-131.738-57.05-153.745-95.213-10.403-18.04-24.974-173.256-25.754-177.9386s2.394-13.5548.67-12.5544l27.49-15.9753c3.028-1.7637 7.21-1.514 11.815 1.155 9.178 5.26 16.56 18.1373 16.56 28.673l-.42 151.404c.188 3.59 1.222 7.084 3.018 10.198s4.302 5.76 7.315 7.72l132.564 76.483c-21.718-23.94-56.123-52.29-65.54-84.615l27.503-16.03.327-.17c3.17-1.655 7.227-1.03 11.285 1.31z"/><path id="C" d="M265.685 415.252l27.502-15.984.344-.187 47.435-24.505 14.14 17-88.954 32.778-.468-9.112z"/></defs></svg>