<svg xmlns="http://www.w3.org/2000/svg" xmlns:xlink="http://www.w3.org/1999/xlink" width="512" height="512" fill="none" xmlns:v="https://vecta.io/nano"><g fill="#7066ff"><use xlink:href="#B"/><path d="M274.424 250.254l-.273.16.22-.126.052-.033z"/><use xlink:href="#C"/></g><g opacity=".3" fill="#010014"><use xlink:href="#B"/><path d="M274.424 250.254l-.273.16.22-.126.052-.033z"/><use xlink:href="#C"/></g><path d="M189.266 72.1544l85.107 151.9626c6.073 10.82 6.026 22.337 0 26.14-3.25 2.02-7.588 1.467-11.91-1.025-5.02-3.13-9.128-7.526-11.9-12.747l-45.385-81.195-.473 164.82c.193 3.63 1.24 7.162 3.06 10.31s4.353 5.82 7.4 7.8l133.19 76.888c9.26 5.364 16.754 18.347 16.722 28.995s-7.572 14.955-16.832 9.59l-154.786-89.366c-11.595-6.69-20.95-22.905-20.918-36.283l.552-191.352-45.748 28.616c-3.25 2.035-7.588 1.483-11.926-1.026-4.998-3.09-9.095-7.443-11.878-12.62-6.0738-10.837-6.0265-22.353.078-26.14l85.66-53.3676z" fill="#7066ff"/><defs ><path id="B" d="M242.885 322.064l133.2 76.888c9.26 5.332 16.753 18.347 16.674 28.995-.016 5.284-1.877 9.007-4.9 10.774l-27.812 16.138c5.572-3.238-10.966-6.624-14.954-10.8-37.277-38.946-144.978-68.168-147.94-123.835V155.29l-7.95-27.407V72.1538L216.998 56l85.107 151.962c6.136 10.822 6.09 22.338 0 26.14l-.22.126-27.46 16.026c5.975-3.835-9.785-15.206-13.728-27.037s-27.828-55.86-27.828-55.86l-.442 136.597a23.062 23.062 0 0 0 3.059 10.309c1.817 3.147 4.353 5.82 7.4 7.8z"/><path id="C" d="M127.08 165.496l.22-.127.047-.03 27.748-16.124 29.1-18.284-29.1-4.733-27.748 39.14-.268.156z"/></defs></svg>