<svg xmlns="http://www.w3.org/2000/svg" width="180" height="120" fill="none" fill-rule="evenodd" xmlns:v="https://vecta.io/nano"><path d="M105.688 13.4788c1.3-.756 3.108-.6407 5.115.517l13.554 7.8266c-.006 1.824-.602 3.0773-1.59 3.6534l-3.963 2.3016c1-.579 1.59-1.8323 1.59-3.6534h0l-13.55-7.8266c-2.007-1.1578-3.814-1.273-5.118-.517l3.963-2.3016zm3.386 47.2435l.023-8.2453a18.87 18.87 0 0 0-4.322-12.3203l1.852-1.0763c1.674-.9724 2.518-3.227 2.53-6.7643l.025-8.2454c0-1.2527.45-2.135 1.165-2.55l-3.96 2.301c-.717.416-1.164 1.2984-1.166 2.5517l-.026 8.237c0 2.1863-.325 3.8828-.975 5.0894l-3.84 2.2285c3.134 3.537 4.83 8.1184 4.755 12.843l-.022 8.2453c0 2.5292 1.782 5.6205 3.976 6.8852l3.187 1.8407c0 1.821-.598 3.0773-1.588 3.6534l3.96-2.2848c.99-.562 1.585-1.8295 1.59-3.6534l-3.2-1.8407c-2.195-1.2758-3.982-4.3728-3.974-6.8936zM97.9625 35.9497L94 38.2542a5.301 5.301 0 0 0 2.726-.6576l3.962-2.3016c-.8332.4583-1.7746.6844-2.7255.6547zm26.2625-9.136l3.96-2.3017C140.066 33.873 149.04 51.038 149 65.4183c-.023 8.043-2.864 13.7057-7.445 16.367l-3.962 2.3016c4.58-2.6613 7.422-8.3212 7.444-16.367.043-14.3802-8.933-31.5453-20.812-40.9063z" fill="#4f47b9"/><path d="M105.216 26.3638l-.023 8.2454c-.013 4.8936-1.617 7.3385-4.814 7.3348 3.134 3.537 4.83 8.1184 4.755 12.843l-.022 8.2454c-.01 2.5208 1.782 5.6177 3.976 6.8852l3.187 1.8407c-.008 3.6674-2.408 5.0332-5.598 3.1925-3.988-2.3017-7.1548-7.8098-7.1548-12.3905l.028-9.6224c.015-5.497-1.835-10.3887-5.5503-14.6753 3.732 0 5.6037-2.7503 5.615-8.251l.028-9.6196c.0113-4.5835 3.212-6.4046 7.2-4.103l13.557 7.8266c-.012 3.6646-2.412 5.0332-5.6 3.1925l-5.58-3.2234c-2.195-1.2674-4.002-.25-4.002 2.279zm9.98 53.0946l9.03-52.645c11.88 9.36 20.855 26.5262 20.813 40.9063-.045 16.1957-11.508 22.724-25.6 14.5882-1.474-.8565-2.89-1.8084-4.24-2.8496z" fill="#7066ff"/><path d="M73.688 22.4788c1.3012-.756 3.1082-.6407 5.1147.517l13.554 7.8266c-.0056 1.824-.6014 3.0773-1.5906 3.6534l-3.9625 2.3016c.9893-.579 1.5907-1.8323 1.5907-3.6534h0l-13.551-7.8266c-2.0066-1.1578-3.8136-1.273-5.1176-.517l3.9625-2.3016zm3.3864 47.2435l.0225-8.2453c.0713-4.4903-1.4612-8.8587-4.3222-12.3203l1.852-1.0763c1.675-.9724 2.518-3.227 2.5292-6.7643l.0253-8.2454c0-1.2527.4492-2.135 1.165-2.55l-3.9613 2.301c-.7166.416-1.1635 1.2984-1.1663 2.5517l-.0253 8.237c0 2.1863-.325 3.8828-.975 5.0894l-3.839 2.2285a18.919 18.919 0 0 1 4.755 12.843l-.0225 8.2453c0 2.5292 1.7817 5.6205 3.9766 6.8852l3.1868 1.8407c0 1.821-.5986 3.0773-1.5878 3.6534L82.647 82.1c.9892-.562 1.585-1.8295 1.5906-3.6534L81.048 76.616c-2.1948-1.2758-3.982-4.3728-3.9737-6.8936zM65.9625 44.9497L62 47.2542a5.301 5.301 0 0 0 2.726-.6576l3.9625-2.3016c-.8337.4583-1.775.6844-2.726.6547zm26.262-9.136l3.9597-2.3017C108.066 42.873 117.04 60.038 117 74.4183c-.023 8.043-2.864 13.7057-7.445 16.367l-3.962 2.3016c4.58-2.6613 7.422-8.3212 7.444-16.367.043-14.3802-8.933-31.5453-20.8125-40.9063z" fill="#4f47b9"/><path d="M73.2158 35.3638l-.0225 8.2454c-.013 4.8936-1.6178 7.3385-4.814 7.3348 3.1332 3.537 4.8295 8.1184 4.755 12.843l-.0225 8.2454c-.0084 2.5208 1.7817 5.6177 3.9766 6.8852l3.1868 1.8407c-.0084 3.6674-2.4084 5.0332-5.598 3.1925-3.9877-2.3017-7.155-7.8098-7.155-12.3905l.028-9.6224c.015-5.497-1.835-10.3887-5.5503-14.6753 3.732 0 5.6037-2.7503 5.615-8.251l.028-9.6196c.0113-4.5835 3.2122-6.4046 7.2-4.103l13.5568 7.8266c-.0112 3.6646-2.4112 5.0332-5.601 3.1925l-5.5812-3.2234c-2.1948-1.2674-4.0018-.25-4.0018 2.279zm9.9792 53.0946l9.0294-52.645c11.8786 9.36 20.8546 26.5262 20.8126 40.9063-.045 16.1957-11.508 22.724-25.6013 14.5882a39.145 39.145 0 0 1-4.2407-2.8496z" fill="#7066ff"/><path d="M41.688 31.4788c1.3012-.756 3.1082-.6407 5.1147.517l13.554 7.8266c-.0056 1.824-.6014 3.0773-1.5906 3.6534l-3.9625 2.3016c.9893-.579 1.5907-1.8323 1.5907-3.6534h0l-13.551-7.8266c-2.0066-1.1578-3.8136-1.273-5.1176-.517l3.9625-2.3016zm3.3864 47.2435l.0225-8.2453c.0713-4.4903-1.4612-8.8587-4.3222-12.3203l1.852-1.0763c1.675-.9724 2.518-3.227 2.5292-6.7643l.0253-8.2454c0-1.2527.4492-2.135 1.165-2.55l-3.9613 2.301c-.7166.416-1.1635 1.2984-1.1663 2.5517l-.0253 8.237c0 2.1863-.325 3.8828-.975 5.0894l-3.839 2.2285a18.919 18.919 0 0 1 4.755 12.843l-.0225 8.2453c0 2.5292 1.7817 5.6205 3.9766 6.8852l3.1868 1.8407c0 1.821-.5986 3.0773-1.5878 3.6534L50.647 91.1c.9892-.562 1.585-1.8295 1.5906-3.6534L49.048 85.616c-2.1948-1.2758-3.982-4.3728-3.9737-6.8936zM33.9625 53.9497L30 56.2542a5.301 5.301 0 0 0 2.726-.6576l3.9625-2.3016c-.8337.4583-1.775.6844-2.726.6547zm26.262-9.136l3.9597-2.3017C76.066 51.873 85.0392 69.038 85 83.4183c-.0225 8.043-2.8637 13.7057-7.4444 16.367l-3.9625 2.3017c4.5807-2.6614 7.422-8.3213 7.4444-16.367.0422-14.3802-8.934-31.5453-20.813-40.9063z" fill="#4f47b9"/><path d="M41.2158 44.3638l-.0225 8.2454c-.013 4.8936-1.6178 7.3385-4.814 7.3348 3.1332 3.537 4.8295 8.1184 4.755 12.843l-.0225 8.2454c-.0084 2.5208 1.7817 5.6177 3.9766 6.8852l3.1868 1.8407c-.0084 3.6674-2.4084 5.0332-5.598 3.1925-3.9877-2.3017-7.155-7.8098-7.155-12.3905l.028-9.6224c.015-5.497-1.835-10.3887-5.5503-14.6753 3.732 0 5.6037-2.7503 5.615-8.251l.028-9.6196c.0113-4.5835 3.2122-6.4046 7.2-4.103l13.5568 7.8266c-.0112 3.6646-2.4112 5.0332-5.601 3.1925l-5.5812-3.2234c-2.1948-1.2674-4.0018-.25-4.0018 2.279zm9.9792 53.0946l9.0294-52.645c11.879 9.36 20.855 26.5262 20.813 40.9063-.045 16.1952-11.508 22.7242-25.6016 14.5882a39.145 39.145 0 0 1-4.2407-2.8496z" fill="#7066ff"/></svg>