<svg xmlns="http://www.w3.org/2000/svg" width="180" height="120" fill="none" xmlns:v="https://vecta.io/nano"><path d="M107.203 22.763c-1.762-1.0172-4.644-1.0172-6.406 0l-14.5935 8.4267C84.4408 32.2068 83 34.7038 83 36.7383V53.588c0 2.0345 1.4408 4.5314 3.2035 5.5487l14.5935 8.4266c1.762 1.0173 4.644 1.0173 6.406 0l14.594-8.4266C123.56 58.1193 125 55.6224 125 53.588V36.7383c0-2.0345-1.44-4.5315-3.203-5.5487l-14.594-8.4267z" fill="#7066ff"/><path opacity=".3" d="M104 65.7137c0 2.0345 1.44 2.8668 3.203 1.8495l14.594-8.4266C123.56 58.1193 125 55.6224 125 53.588V36.7383c0-2.0345-1.44-2.8668-3.203-1.8495l-14.594 8.4247C105.44 44.3308 104 46.8277 104 48.8622v16.8515z" fill="#010014"/><path d="M79.2035 38.763c-1.7627-1.0172-4.6443-1.0172-6.407 0l-14.593 8.4267C56.4408 48.2068 55 50.7038 55 52.7383V69.588c0 2.0345 1.4408 4.5314 3.2035 5.5487l14.593 8.4266c1.7627 1.0173 4.6443 1.0173 6.407 0l14.593-8.4266C95.5592 74.1193 97 71.6224 97 69.588V52.7383c0-2.0345-1.4408-4.5315-3.2035-5.5487l-14.593-8.4267z" fill="#7066ff"/><path opacity=".3" d="M76 81.7137c0 2.0345 1.4408 2.8668 3.2035 1.8495l14.593-8.4266C95.5592 74.1193 97 71.6224 97 69.588V52.7383c0-2.0345-1.4408-2.8668-3.2035-1.8495l-14.593 8.4247C77.4408 60.3308 76 62.8277 76 64.8622v16.8515z" fill="#010014"/><path d="M135.203 38.763c-1.762-1.0172-4.644-1.0172-6.406 0l-14.594 8.4267C112.44 48.2068 111 50.7038 111 52.7383V69.588c0 2.0345 1.44 4.5314 3.203 5.5487l14.594 8.4266c1.762 1.0173 4.644 1.0173 6.406 0l14.594-8.4266C151.56 74.1193 153 71.6224 153 69.588V52.7383c0-2.0345-1.44-4.5315-3.203-5.5487l-14.594-8.4267z" fill="#7066ff"/><path opacity=".3" d="M132 81.7137c0 2.0345 1.44 2.8668 3.203 1.8495l14.594-8.4266C151.56 74.1193 153 71.6224 153 69.588V52.7383c0-2.0345-1.44-2.8668-3.203-1.8495l-14.594 8.4247C133.44 60.3308 132 62.8277 132 64.8622v16.8515z" fill="#010014"/><path d="M51.2035 54.763c-1.7627-1.0172-4.6443-1.0172-6.407 0l-14.593 8.4267C28.4408 64.2068 27 66.7038 27 68.7383V85.588c0 2.0345 1.4408 4.5314 3.2035 5.5487l14.593 8.4266c1.7627 1.0168 4.6443 1.0168 6.407 0l14.593-8.4266C67.5592 90.1193 69 87.6224 69 85.588V68.7383c0-2.0345-1.4408-4.5315-3.2035-5.5487l-14.593-8.4267z" fill="#7066ff"/><path opacity=".3" d="M48 97.7137c0 2.0345 1.4408 2.8663 3.2035 1.8495l14.593-8.4266C67.5592 90.1193 69 87.6224 69 85.588V68.7383c0-2.0345-1.4408-2.8668-3.2035-1.8495l-14.593 8.4247C49.4408 76.3308 48 78.8277 48 80.8622v16.8515z" fill="#010014"/><path d="M51.2035 20.763c-1.7627-1.0172-4.6443-1.0172-6.407 0l-14.593 8.4267C28.4408 30.2068 27 32.7038 27 34.7383V51.588c0 2.0345 1.4408 4.5314 3.2035 5.5487l14.593 8.4266c1.7627 1.0173 4.6443 1.0173 6.407 0l14.593-8.4266C67.5592 56.1193 69 53.6224 69 51.588V34.7383c0-2.0345-1.4408-4.5315-3.2035-5.5487l-14.593-8.4267z" fill="#7066ff"/><path opacity=".3" d="M48 63.7137c0 2.0345 1.4408 2.8668 3.2035 1.8495l14.593-8.4266C67.5592 56.1193 69 53.6224 69 51.588V34.7383c0-2.0345-1.4408-2.8668-3.2035-1.8495l-14.593 8.4247C49.4408 42.3308 48 44.8277 48 46.8622v16.8515z" fill="#010014"/></svg>