<svg xmlns="http://www.w3.org/2000/svg" xmlns:xlink="http://www.w3.org/1999/xlink" width="180" height="120" fill="none" xmlns:v="https://vecta.io/nano"><g fill-rule="evenodd"><use xlink:href="#B" fill="#7066ff"/><use xlink:href="#B" opacity=".3" fill="#010014"/><g fill="#7066ff"><use xlink:href="#C"/><use xlink:href="#C" opacity=".4"/></g></g><defs ><path id="B" d="M151.75 20l-.167 29.6182h-17.75l.026 9.1333 17.75.0037.167-29.622L151.75 20zM134.6 39.047l-.026-9.1333-34.02.364.026 9.137 34.02-.368zM50.6926 28.9327l55.4724 55.814 14.413-8.3232.026 9.137-14.413 8.3233-55.4724-55.818-.026-9.1333zm-3.7493 41.449l-.026-9.1333-.743 19.7046.026 9.1333.743-19.7046zM29 90.8667h51.1398l.052-10.2815.0297 9.137L80.1658 100H29.026L29 90.8667z"/><path id="C" d="M100.6 20l-.056 10.2778 34.02-.3642-.743 19.7046h17.75L151.75 20H100.6zm-49.9174 8.9327l55.4724 55.814 14.413-8.3232-55.472-55.8142-14.4133 8.3233zm-21.5254 32.312l17.75.0037-.743 19.7046 34.0176-.368-.052 10.2815H29l.1672-29.622z"/></defs></svg>