<svg id="b1daff50-053b-4434-9724-915162bdd75a" data-name="Layer 1" xmlns="http://www.w3.org/2000/svg" viewBox="0 0 32 32"><title>Authereum</title><path d="M9.61,4,5.73,5.24,5,5.47v5.08c0,3,0,5.33.06,5.71a12.51,12.51,0,0,0,3.33,7.28c.44.48,7.39,6.53,7.58,6.61S22.16,25,23.16,24a12.87,12.87,0,0,0,3.58-6.39C27,16.41,27,16,27,10.54l0-5.09L23.07,4.22,19.14,3s.32.65.73,1.43l.74,1.41,1.11.36,2.05.65.94.29,0,4.68c0,4.49,0,4.7-.14,5.23a10.24,10.24,0,0,1-2.73,5.07c-.26.27-1.61,1.46-3,2.64l-.72.62-1.94,1.68L16,27.2l-2.64-2.28c-3.23-2.79-3.72-3.26-4.49-4.45a10,10,0,0,1-1.3-2.92c-.26-1-.28-1.42-.28-6V7.15l.82-.26,2-.65c.67-.21,1.22-.41,1.22-.43s.32-.65.72-1.41S12.83,3,12.83,3a23.17,23.17,0,0,0-3,.92Z" style="fill:#ff4c2f"/><path d="M13.39,7.87l0,.09-.71,1.36-3.12,6,0,.48a7.09,7.09,0,0,0,1.07,3c.21.35.28.41.33.35s1.18-2.19,2.53-4.79S16,9.62,16,9.62s1.16,2.1,2.53,4.65L21.08,19c.06.1.07.09.16,0a7.16,7.16,0,0,0,1.22-3.2l.07-.58-3.27-6.1C17.46,5.77,16,3,16,3s-.06.06-.12.17Z" style="fill:#ff4c2f"/><path d="M12.81,21l1.58-3.16c.87-1.74,1.59-3.16,1.6-3.16s.73,1.42,1.6,3.16L19.16,21l-1.42,1.24c-.78.69-1.49,1.3-1.58,1.37l-.16.13-.71-.59-1.6-1.37Z" style="fill:#ff4c2f"/></svg>