<svg id="9504cd67-d2a4-4602-8b9c-910db9b23621" data-name="Layer 1" xmlns="http://www.w3.org/2000/svg" viewBox="0 0 32 32"><title>MetaMask</title><path d="M26.81,5l-9.38,6.77,1.74-4Z" style="fill:#e17726;stroke:#e17726;stroke-linecap:round;stroke-linejoin:round;stroke-width:0.25px"/><path d="M5.19,5l9.29,6.83L12.82,7.78ZM23.44,20.7l-2.5,3.72,5.34,1.43,1.53-5.07Zm-19.24.08,1.52,5.07L11,24.41,8.56,20.7Z" style="fill:#e27625;stroke:#e27625;stroke-linecap:round;stroke-linejoin:round;stroke-width:0.25px"/><path d="M10.76,14.41,9.28,16.6l5.29.23-.18-5.55Zm10.48,0-3.68-3.2-.12,5.61,5.29-.23ZM11,24.41l3.2-1.51-2.75-2.09Zm6.71-1.51,3.19,1.51-.44-3.6Z" style="fill:#e27625;stroke:#e27625;stroke-linecap:round;stroke-linejoin:round;stroke-width:0.25px"/><path d="M20.94,24.41l-3.19-1.51.26,2,0,.86Zm-9.9,0,3,1.37,0-.86.25-2Z" style="fill:#d5bfb2;stroke:#d5bfb2;stroke-linecap:round;stroke-linejoin:round;stroke-width:0.25px"/><path d="M14.07,19.48l-2.65-.76,1.87-.84Zm3.86,0,.78-1.6,1.88.84Z" style="fill:#233447;stroke:#233447;stroke-linecap:round;stroke-linejoin:round;stroke-width:0.25px"/><path d="M11,24.41l.46-3.72-2.95.08Zm9.44-3.72.45,3.72,2.49-3.64Zm2.24-4.1-5.29.24.49,2.64.78-1.6,1.88.84ZM11.42,18.72l1.87-.84.78,1.6.49-2.64L9.28,16.6Z" style="fill:#cc6228;stroke:#cc6228;stroke-linecap:round;stroke-linejoin:round;stroke-width:0.25px"/><path d="M9.28,16.6l2.22,4.22-.07-2.09Zm11.31,2.12-.08,2.09,2.22-4.21Zm-6-1.89-.49,2.64.62,3.12.14-4.12Zm2.87,0-.26,1.64.13,4.13.62-3.12Z" style="fill:#e27525;stroke:#e27525;stroke-linecap:round;stroke-linejoin:round;stroke-width:0.25px"/><path d="M17.93,19.48l-.62,3.12.44.31,2.75-2.09.08-2.09Zm-6.51-.76.07,2.09,2.75,2.09.45-.31-.62-3.12Z" style="fill:#f5841f;stroke:#f5841f;stroke-linecap:round;stroke-linejoin:round;stroke-width:0.25px"/><path d="M18,25.79l0-.86-.24-.2H14.23l-.23.2,0,.86-3-1.37,1,.83,2.11,1.42H17.8l2.11-1.42,1-.83Z" style="fill:#c0ac9d;stroke:#c0ac9d;stroke-linecap:round;stroke-linejoin:round;stroke-width:0.25px"/><path d="M17.75,22.91l-.45-.31H14.69l-.45.31-.25,2,.23-.2h3.54l.24.2Z" style="fill:#161616;stroke:#161616;stroke-linecap:round;stroke-linejoin:round;stroke-width:0.25px"/><path d="M27.21,12.21,28,8.48,26.81,5l-9.06,6.54,3.49,2.87,4.92,1.4,1.09-1.24-.47-.33.75-.67L27,13.14l.75-.56ZM4,8.48l.8,3.74-.51.37.76.56-.57.43.75.67-.47.33,1.09,1.24,4.92-1.4,3.49-2.87L5.19,5Z" style="fill:#763e1a;stroke:#763e1a;stroke-linecap:round;stroke-linejoin:round;stroke-width:0.25px"/><path d="M26.16,15.81l-4.92-1.4,1.48,2.18-2.22,4.21,2.93,0h4.38Zm-15.4-1.4-4.92,1.4-1.64,5H8.56l2.93,0L9.28,16.6Zm6.68,2.42.32-5.29,1.43-3.76H12.82l1.43,3.76.32,5.29.12,1.66V22.6h2.61V18.49Z" style="fill:#f5841f;stroke:#f5841f;stroke-linecap:round;stroke-linejoin:round;stroke-width:0.25px"/></svg>