<svg id="f1d180de-87a8-4ebf-b746-958e969bdf0a" data-name="Layer 1" xmlns="http://www.w3.org/2000/svg" viewBox="0 0 32 32"><title>Portis</title><path d="M7.266,17.655l.653-.284L16,13.858l8.734,3.8-3.282,6.775-8.023,1.135L7.4,19.054Z" style="fill:#133444"/><path d="M22.917,13.477a8.984,8.984,0,0,0-5.723-3.165l-.143-.018a9.091,9.091,0,0,0-2.1,0l-.143.018a8.985,8.985,0,0,0-5.723,3.165l-.363.6-.605,1-.443.735-.024.06-.005.014.977.578,6.187,3.66L16,20.833V12.085l-1.195.542v-1.31L16,10.774l1.194.543,6.086,2.764Z" style="fill:#c42370"/><path d="M25,19.831a9.65,9.65,0,0,1-3.531,7.4A8.927,8.927,0,0,1,18.624,28.8,8.334,8.334,0,0,1,16,29.227c-4.97,0-9-4.425-9-9.4a8.988,8.988,0,0,1,.266-2.177L16,22.821l8.734-5.167A8.99,8.99,0,0,1,25,19.831Z" style="fill:#1c4d6b"/><path d="M14.949,10.3,16,10.772l-1.194.543V10.23Z"/><path d="M14.806,12.627,16,12.085v8.751l-1.194-.706Z"/><path d="M16,12.085v8.751l8.369-4.951Z" style="fill:#1d4259"/><path d="M16,2V12.085l8.369,3.8Z" style="fill:#4b6b9a"/><path d="M16,12.085v8.752l-1.194-.707L7.642,15.889l-.011-.007.016-.007.024-.06,1.047-1.737,6.087-2.761v1.314Z" style="fill:#343535"/><path d="M16,12.085v8.751l-1.194-.706L7.642,15.892l-.011-.007.016-.007,7.159-3.251Z" style="fill:#3e5578"/><path d="M16,2V12.085l-8.369,3.8Z" style="fill:#6db2d8"/><path d="M12.614,28.509c.125.055.251.107.379.156Q12.8,28.591,12.614,28.509Z" style="fill:#335f8a"/><path d="M12.99,28.665c.128.049.256.095.386.138Q13.181,28.739,12.99,28.665Z" style="fill:#335f8a"/><path d="M13.709,28.906c.1.028.2.055.3.08Q13.858,28.948,13.709,28.906Z" style="fill:#335f8a"/><path d="M7.266,17.654,16,22.821a10,10,0,0,1-.625,2.292c-.7,1.689-2.111,3.475-4.842,2.117A9.654,9.654,0,0,1,7,19.831,8.988,8.988,0,0,1,7.266,17.654Z" style="fill:#6db2d8"/><path d="M21.468,27.229l-.021.017-.137.109-.012.01q-.075.06-.15.115c-.054.041-.109.081-.165.119l-.167.116-.149.1-.028.018c-.052.034-.105.068-.158.1l-.02.012q-.081.051-.164.1l-.179.1-.179.1-.007,0-.179.091c-.06.031-.12.06-.184.089s-.124.06-.186.085c-.125.055-.251.107-.379.156s-.256.095-.386.138l-.156.05-.176.053c-.1.028-.2.055-.3.079l-.114.027-.064.015-.16.034-.148.029-.136.024-.15.023-.074.011-.113.015-.063.008-.125.014-.153.014-.119.009-.1.006h0c-.041,0-.081,0-.12.006-.056,0-.113,0-.17.005s-.113,0-.171,0h-.171c-.057,0-.113,0-.17-.005s-.082,0-.122-.006h0c-.035,0-.07,0-.1-.006l-.119-.009-.154-.014-.125-.014-.06-.008-.113-.015a.44.44,0,0,1-.074-.011l-.151-.023-.136-.024-.148-.029-.16-.034-.064-.015-.114-.027c-.1-.024-.2-.051-.3-.079l-.179-.053-.156-.05c-.13-.043-.259-.089-.386-.138s-.256-.1-.376-.155l-.186-.085c-.062-.029-.123-.06-.184-.089s-.119-.06-.179-.091l-.007,0-.179-.1c-.06-.032-.119-.067-.179-.1s-.107-.063-.161-.1l-.02-.012c-.053-.032-.105-.066-.158-.1l-.028-.018-.149-.1c-.049-.033-.112-.077-.167-.116l-.165-.119c-.054-.039-.1-.076-.151-.115l-.012-.01-.137-.109-.022-.017c2.732,1.359,4.144-.428,4.843-2.117A10,10,0,0,0,16,22.823a10,10,0,0,0,.625,2.291C17.324,26.8,18.736,28.587,21.468,27.229Z" style="fill:#529bba"/><path d="M17.989,28.985c.1-.024.2-.051.3-.08Q18.142,28.949,17.989,28.985Z" style="fill:#335f8a"/><path d="M18.624,28.8c.13-.043.259-.089.386-.138Q18.819,28.739,18.624,28.8Z" style="fill:#335f8a"/><path d="M19.01,28.665c.127-.049.254-.1.379-.156Q19.2,28.591,19.01,28.665Z" style="fill:#335f8a"/><path d="M25,19.831a9.651,9.651,0,0,1-3.532,7.4c-2.732,1.359-4.144-.428-4.843-2.117A10,10,0,0,1,16,22.821l8.734-5.167A8.985,8.985,0,0,1,25,19.831Z" style="fill:#4b6b9a"/></svg>