<svg id="d08cdc33-918b-4f8e-9cdd-0ec327b3cad4" data-name="Layer 1" xmlns="http://www.w3.org/2000/svg" viewBox="0 0 340 217"><title>brackets</title><g style="opacity:0.6000000238418579"><path d="M106.76,45.42,93.29,53.21,65.23,36.92v-19l28,16.33,13.47-7.78a14,14,0,0,1,12.76,0l61.88,35.94a65.26,65.26,0,0,0,26.15,7.78l9.9.9L219,76.79c1.73,5.84,6.32,11.1,13.34,15.18l61.9,36a4.67,4.67,0,0,1,2.8,3.84v19a4.67,4.67,0,0,0-2.8-3.85l-61.83-36c-7-4.08-11.61-9.31-13.36-15.18l-1.56-5.73-9.9-.9a65.38,65.38,0,0,1-26.15-7.78l-61.86-36a14.12,14.12,0,0,0-12.78,0ZM324.39,150.35c10.23-5.9,15.3-12.38,15.3-18.85v19.07c0,6.48-5.09,13-15.3,18.85l-15.68,9-27.87-16.19v-19l27.87,16.19ZM45.58,80.76,59.06,73v-19L45.6,61.72a4.48,4.48,0,0,0-2.66,3.72v19a4.55,4.55,0,0,1,2.65-3.72ZM226.43,197a63.93,63.93,0,0,0,32.36-8.79l15.69-9.06v19l-15.68,9.06a63.94,63.94,0,0,1-64.71,0L130,170a11.64,11.64,0,0,0-4.67-1.4l-24-2.43c-8.14-.89-14.24-4.51-15.8-9.18l-4.09-13.9a5.35,5.35,0,0,0-2.41-2.68L15,103.19C5,97.39,0,91,0,84.51v-19C0,72,5.06,78.38,15,84.17l64.07,37.22a5.36,5.36,0,0,1,2.4,2.69L85.59,138c1.51,4.72,7.66,8.28,15.8,9.17l23.94,2.43A11.61,11.61,0,0,1,130,151l64.07,37.24A63.93,63.93,0,0,0,226.43,197Z" style="fill:#181726"/><path d="M106.76,45.42,93.29,53.21,65.23,36.92v-19l28,16.33,13.47-7.78a14,14,0,0,1,12.76,0l61.88,35.94a65.26,65.26,0,0,0,26.15,7.78l9.9.9L219,76.79c1.73,5.84,6.32,11.1,13.34,15.18l61.9,36a4.67,4.67,0,0,1,2.8,3.84v19a4.67,4.67,0,0,0-2.8-3.85l-61.83-36c-7-4.08-11.61-9.31-13.36-15.18l-1.56-5.73-9.9-.9a65.38,65.38,0,0,1-26.15-7.78l-61.86-36a14.12,14.12,0,0,0-12.78,0ZM324.39,150.35c10.23-5.9,15.3-12.38,15.3-18.85v19.07c0,6.48-5.09,13-15.3,18.85l-15.68,9-27.87-16.19v-19l27.87,16.19ZM45.58,80.76,59.06,73v-19L45.6,61.72a4.48,4.48,0,0,0-2.66,3.72v19a4.55,4.55,0,0,1,2.65-3.72ZM226.43,197a63.93,63.93,0,0,0,32.36-8.79l15.69-9.06v19l-15.68,9.06a63.94,63.94,0,0,1-64.71,0L130,170a11.64,11.64,0,0,0-4.67-1.4l-24-2.43c-8.14-.89-14.24-4.51-15.8-9.18l-4.09-13.9a5.35,5.35,0,0,0-2.41-2.68L15,103.19C5,97.39,0,91,0,84.51v-19C0,72,5.06,78.38,15,84.17l64.07,37.22a5.36,5.36,0,0,1,2.4,2.69L85.59,138c1.51,4.72,7.66,8.28,15.8,9.17l23.94,2.43A11.61,11.61,0,0,1,130,151l64.07,37.24A63.93,63.93,0,0,0,226.43,197Z" style="fill:#010014;opacity:0.30000001192092896;isolation:isolate"/><path d="M260.53,75.62l64.07,37.24c20.19,11.72,20.11,25.75-.31,37.52l-15.68,9-27.87-16.19,13.47-7.78c3.55-2.06,3.57-5.37-.16-7.53L232.17,92c-7-4.08-11.61-9.31-13.34-15.18L217.27,71l-9.9-.9a65.25,65.25,0,0,1-26.15-7.78L119.34,26.42a14,14,0,0,0-12.76,0L93.11,34.2l-28-16.33L80.76,8.81a64.23,64.23,0,0,1,64.73,0L209.57,46a12.32,12.32,0,0,0,4.67,1.4l24,2.43c8.14.9,14.24,4.51,15.8,9.18l4.1,13.9A4.93,4.93,0,0,0,260.53,75.62Zm-33.9,96.64a14.17,14.17,0,0,0,6.51-1.51L246.68,163l27.87,16.19-15.69,9.06a63.94,63.94,0,0,1-64.71,0L130.06,151a11.58,11.58,0,0,0-4.67-1.4l-24-2.43c-8.14-.89-14.24-4.5-15.8-9.17l-4.11-13.9a5.36,5.36,0,0,0-2.4-2.69L15,84.19c-20-11.61-20-25.76.2-37.5l15.69-9L59,54,45.49,61.74c-3.49,2-3.52,5.36,0,7.39l61.83,35.93c7,4.08,11.63,9.31,13.34,15.16l1.56,5.75,9.9.9a65.37,65.37,0,0,1,26.15,7.78l61.88,36A14.16,14.16,0,0,0,226.63,172.27Z" style="fill:#181726"/><path d="M260.53,75.62l64.08,37.24c20.19,11.72,20.11,25.75-.31,37.52l-15.68,9-27.86-16.19,13.46-7.78c3.55-2.06,3.57-5.37-.15-7.53l-61.9-36c-7-4.08-11.61-9.31-13.34-15.18L217.27,71l-9.9-.9a65.26,65.26,0,0,1-26.15-7.78L119.34,26.42a14,14,0,0,0-12.76,0L93.11,34.2l-28-16.33L80.76,8.81a64.23,64.23,0,0,1,64.73,0L209.57,46a12.31,12.31,0,0,0,4.67,1.4l24,2.43c8.14.9,14.24,4.51,15.8,9.18l4.09,13.9A4.94,4.94,0,0,0,260.53,75.62Zm-33.9,96.64a14.18,14.18,0,0,0,6.51-1.51L246.68,163l27.87,16.19-15.69,9.06a63.94,63.94,0,0,1-64.71,0L130.06,151a11.6,11.6,0,0,0-4.67-1.4l-24-2.43c-8.14-.89-14.24-4.5-15.8-9.17l-4.11-13.9a5.35,5.35,0,0,0-2.4-2.69L15,84.19c-20-11.61-20-25.76.2-37.5l15.69-9L59,54,45.49,61.74c-3.49,2-3.52,5.36,0,7.39l61.83,35.93c7,4.08,11.63,9.31,13.34,15.16l1.56,5.74,9.9.9a65.38,65.38,0,0,1,26.15,7.78l61.88,36A14.16,14.16,0,0,0,226.63,172.27Z" style="fill:#181726"/></g></svg>