<svg id="dc912b34-2ddf-495b-adbc-7eb804cc5388" data-name="Layer 1" xmlns="http://www.w3.org/2000/svg" viewBox="0 0 215 139"><title>compass</title><g style="opacity:0.6000000238418579"><path d="M.25,75.25q0,.57,0,1.15c0,34.16,48,61.88,107.19,61.88S214.62,110.56,214.62,76.4q0-.56,0-1.12V62.52h-2.69c-10.92-27.48-53.58-48-104.48-48S13.87,35,2.95,62.52H.25V75.25Z" style="fill:#181726"/><path d="M.25,75.25q0,.57,0,1.15c0,34.16,48,61.88,107.19,61.88S214.62,110.56,214.62,76.4q0-.56,0-1.12V62.52h-2.69c-10.92-27.48-53.58-48-104.48-48S13.87,35,2.95,62.52H.25V75.25Z" style="fill:#010014;opacity:0.30000001192092896;isolation:isolate"/><path d="M107.43,0C48.26,0,.24,27.72.24,61.88s48,61.88,107.19,61.88S214.62,96,214.62,61.88,166.6,0,107.43,0Z" style="fill:#181726"/><path d="M158.53,18.19h8.93v7.73a1.48,1.48,0,0,1-.36,1.25L132.95,69.55a10,10,0,0,1-5.19,3.38L53.1,93c-3,.8-6-.66-5.7-2.35V82.84h6.05L81.91,47.52a10,10,0,0,1,5.19-3.38L158.53,25Zm-51.1,33.54c-6.54,0-11.79,3-11.79,6.81s5.25,6.81,11.79,6.81,11.79-3,11.79-6.81S114,51.73,107.43,51.73Z" style="fill:#010014;opacity:0.4000000059604645;isolation:isolate"/><path d="M107.43,43.91c-6.54,0-11.79,3-11.79,6.81s5.25,6.81,11.79,6.81,11.79-3,11.79-6.81S114,43.91,107.43,43.91Zm25.76,17.53a11.17,11.17,0,0,1-5.8,3.78l-74.29,20c-3.4.91-6.92-1.12-5.34-3.08L81.67,40a11.17,11.17,0,0,1,5.8-3.78l74.29-20c3.4-.91,6.92,1.12,5.34,3.08Z" style="fill:#181726"/><path d="M107.43,43.91c-6.54,0-11.79,3-11.79,6.81s5.25,6.81,11.79,6.81,11.79-3,11.79-6.81S114,43.91,107.43,43.91Zm25.76,17.53a11.17,11.17,0,0,1-5.8,3.78l-74.29,20c-3.4.91-6.92-1.12-5.34-3.08L81.67,40a11.17,11.17,0,0,1,5.8-3.78l74.29-20c3.4-.91,6.92,1.12,5.34,3.08Z" style="fill:#010014;opacity:0.15000000596046448;isolation:isolate"/></g></svg>