<svg id="45053e50-42b3-4d56-9609-1f795f96a1f6" data-name="Layer 1" xmlns="http://www.w3.org/2000/svg" viewBox="0 0 300 230"><title>create-bounty</title><path d="M74.82,196.67,74.66,72.9l89.56-51.71-1.66-1L73,71.94l.15,123.75a2.34,2.34,0,0,0,1,2.15l1.67,1A2.3,2.3,0,0,1,74.82,196.67Z" style="fill:#7066ff"/><path d="M74.82,196.67,74.66,72.9l89.56-51.71-1.66-1L73,71.94l.15,123.75a2.34,2.34,0,0,0,1,2.15l1.67,1A2.3,2.3,0,0,1,74.82,196.67Z" style="fill:#010014;opacity:0.15000000596046448;isolation:isolate"/><path d="M161.56,14.22a2.33,2.33,0,0,0-2.37.24L76.35,62.29A7.39,7.39,0,0,0,73,68.09v3.86l1.67,1V69.06A7.38,7.38,0,0,1,78,63.26l82.85-47.83a2.33,2.33,0,0,1,2.37-.23Z" style="fill:#7066ff"/><path d="M161.56,14.22a2.33,2.33,0,0,0-2.37.24L76.35,62.29A7.39,7.39,0,0,0,73,68.09v3.86l1.67,1V69.06A7.38,7.38,0,0,1,78,63.26l82.85-47.83a2.33,2.33,0,0,1,2.37-.23Z" style="fill:#010014;opacity:0.15000000596046448;isolation:isolate"/><path d="M76.31,197.54,76.16,73.77l89.56-51.71-1.67-1L74.49,72.81l.15,123.75a2.34,2.34,0,0,0,1,2.15l1.67,1A2.3,2.3,0,0,1,76.31,197.54Z" style="fill:#7066ff"/><path d="M76.31,197.54,76.16,73.77l89.56-51.71-1.67-1L74.49,72.81l.15,123.75a2.34,2.34,0,0,0,1,2.15l1.67,1A2.3,2.3,0,0,1,76.31,197.54Z" style="fill:#010014;opacity:0.15000000596046448;isolation:isolate"/><path d="M165.72,22.08l.15,123.77a7.38,7.38,0,0,1-3.35,5.8L79.67,199.48c-1.85,1.07-3.36.21-3.37-1.92L76.16,73.79Z" style="fill:#7066ff"/><path d="M163.06,15.1a2.33,2.33,0,0,0-2.37.24L77.84,63.16A7.39,7.39,0,0,0,74.49,69v3.86l1.67,1V69.93a7.38,7.38,0,0,1,3.35-5.8L162.36,16.3a2.33,2.33,0,0,1,2.37-.23Z" style="fill:#7066ff"/><path d="M163.06,15.1a2.33,2.33,0,0,0-2.37.24L77.84,63.16A7.39,7.39,0,0,0,74.49,69v3.86l1.67,1V69.93a7.38,7.38,0,0,1,3.35-5.8L162.36,16.3a2.33,2.33,0,0,1,2.37-.23Z" style="fill:#010014;opacity:0.15000000596046448;isolation:isolate"/><path d="M162.34,16.3c1.85-1.07,3.36-.21,3.37,1.93v3.86L76.15,73.79V69.93a7.38,7.38,0,0,1,3.35-5.8Z" style="fill:#7066ff"/><path d="M132.47,28.26v9.41l-8.15,4.71c-3.41,2-3.28,9,1.56,7.1l6.59-5.7v9.41c0,3.93,5.75,3.61,5.75-.32l-.47-12.14L148.62,35c3.41-2,.68-7-2.72-5l-8.15,4.71,1.68-8.86C139.43,21.83,132.41,22.85,132.47,28.26Z" style="fill:#7066ff"/><path d="M132.47,28.26v9.41l-8.15,4.71c-3.41,2-3.28,9,1.56,7.1l6.59-5.7v9.41c0,3.93,5.75,3.61,5.75-.32l-.47-12.14L148.62,35c3.41-2,.68-7-2.72-5l-8.15,4.71,1.68-8.86C139.43,21.83,132.41,22.85,132.47,28.26Z" style="fill:#010014;opacity:0.699999988079071;isolation:isolate"/><path d="M134.2,29.19V38.6L126,43.31c-3.41,2-3.41,8.07,0,6.1l8.15-4.71v9.41c0,3.93,5.28.88,5.28-3.05V41.65l8.15-4.71c3.41-2,3.41-8.07,0-6.1l-8.15,4.71V26.14C139.48,22.21,134.2,25.26,134.2,29.19Z" style="fill:#7066ff"/><path d="M134.2,29.19V38.6L126,43.31c-3.41,2-3.41,8.07,0,6.1l8.15-4.71v9.41c0,3.93,5.28.88,5.28-3.05V41.65l8.15-4.71c3.41-2,3.41-8.07,0-6.1l-8.15,4.71V26.14C139.48,22.21,134.2,25.26,134.2,29.19Z" style="fill:#010014;opacity:0.4000000059604645;isolation:isolate"/><path d="M98.72,204.64,98.57,80.87l89.56-51.71-1.67-1L96.9,79.9l.15,123.75a2.34,2.34,0,0,0,1,2.15l1.67,1A2.3,2.3,0,0,1,98.72,204.64Z" style="fill:#7066ff"/><path d="M98.72,204.64,98.57,80.87l89.56-51.71-1.67-1L96.9,79.9l.15,123.75a2.34,2.34,0,0,0,1,2.15l1.67,1A2.3,2.3,0,0,1,98.72,204.64Z" style="fill:#010014;opacity:0.15000000596046448;isolation:isolate"/><path d="M185.47,22.19a2.33,2.33,0,0,0-2.37.24L100.25,70.26a7.39,7.39,0,0,0-3.35,5.8v3.86l1.67,1V77a7.38,7.38,0,0,1,3.35-5.8L184.77,23.4a2.33,2.33,0,0,1,2.37-.23Z" style="fill:#7066ff"/><path d="M185.47,22.19a2.33,2.33,0,0,0-2.37.24L100.25,70.26a7.39,7.39,0,0,0-3.35,5.8v3.86l1.67,1V77a7.38,7.38,0,0,1,3.35-5.8L184.77,23.4a2.33,2.33,0,0,1,2.37-.23Z" style="fill:#010014;opacity:0.15000000596046448;isolation:isolate"/><path d="M100.22,205.51l-.15-123.77L189.62,30l-1.67-1L98.4,80.78l.15,123.75a2.34,2.34,0,0,0,1,2.15l1.67,1A2.3,2.3,0,0,1,100.22,205.51Z" style="fill:#7066ff"/><path d="M100.22,205.51l-.15-123.77L189.62,30l-1.67-1L98.4,80.78l.15,123.75a2.34,2.34,0,0,0,1,2.15l1.67,1A2.3,2.3,0,0,1,100.22,205.51Z" style="fill:#010014;opacity:0.15000000596046448;isolation:isolate"/><path d="M189.62,30.05l.15,123.77a7.37,7.37,0,0,1-3.35,5.79l-82.85,47.83c-1.85,1.07-3.36.21-3.37-1.92l-.15-123.77Z" style="fill:#7066ff"/><path d="M187,23.06a2.33,2.33,0,0,0-2.37.24L101.74,71.13a7.39,7.39,0,0,0-3.35,5.8v3.86l1.67,1V77.9a7.38,7.38,0,0,1,3.35-5.8l82.85-47.83a2.33,2.33,0,0,1,2.37-.23Z" style="fill:#7066ff"/><path d="M187,23.06a2.33,2.33,0,0,0-2.37.24L101.74,71.13a7.39,7.39,0,0,0-3.35,5.8v3.86l1.67,1V77.9a7.38,7.38,0,0,1,3.35-5.8l82.85-47.83a2.33,2.33,0,0,1,2.37-.23Z" style="fill:#010014;opacity:0.15000000596046448;isolation:isolate"/><path d="M186.24,24.27c1.85-1.07,3.36-.21,3.37,1.93v3.86L100.05,81.76V77.9a7.38,7.38,0,0,1,3.35-5.8Z" style="fill:#7066ff"/><path d="M122.63,212.73,122.47,89,212,37.25l-1.67-1L120.81,88,121,211.74a2.34,2.34,0,0,0,1,2.15l1.67,1A2.3,2.3,0,0,1,122.63,212.73Z" style="fill:#7066ff"/><path d="M122.63,212.73,122.47,89,212,37.25l-1.67-1L120.81,88,121,211.74a2.34,2.34,0,0,0,1,2.15l1.67,1A2.3,2.3,0,0,1,122.63,212.73Z" style="fill:#010014;opacity:0.15000000596046448;isolation:isolate"/><path d="M209.37,30.28a2.33,2.33,0,0,0-2.37.24L124.15,78.35a7.39,7.39,0,0,0-3.35,5.8V88l1.67,1V85.12a7.38,7.38,0,0,1,3.35-5.8l82.85-47.83a2.34,2.34,0,0,1,2.37-.23Z" style="fill:#7066ff"/><path d="M209.37,30.28a2.33,2.33,0,0,0-2.37.24L124.15,78.35a7.39,7.39,0,0,0-3.35,5.8V88l1.67,1V85.12a7.38,7.38,0,0,1,3.35-5.8l82.85-47.83a2.34,2.34,0,0,1,2.37-.23Z" style="fill:#010014;opacity:0.15000000596046448;isolation:isolate"/><path d="M124.12,213.6,124,89.83l89.56-51.71-1.66-1L122.3,88.87l.15,123.75a2.35,2.35,0,0,0,1,2.15l1.67,1A2.3,2.3,0,0,1,124.12,213.6Z" style="fill:#7066ff"/><path d="M124.12,213.6,124,89.83l89.56-51.71-1.66-1L122.3,88.87l.15,123.75a2.35,2.35,0,0,0,1,2.15l1.67,1A2.3,2.3,0,0,1,124.12,213.6Z" style="fill:#010014;opacity:0.15000000596046448;isolation:isolate"/><path d="M213.52,38.14l.15,123.77a7.37,7.37,0,0,1-3.35,5.8l-82.85,47.83c-1.85,1.07-3.36.21-3.37-1.92L124,89.85Z" style="fill:#7066ff"/><path d="M210.87,31.16a2.33,2.33,0,0,0-2.37.24L125.65,79.22A7.39,7.39,0,0,0,122.3,85v3.86l1.67,1V86a7.38,7.38,0,0,1,3.35-5.8l82.85-47.83a2.33,2.33,0,0,1,2.37-.23Z" style="fill:#7066ff"/><path d="M210.87,31.16a2.33,2.33,0,0,0-2.37.24L125.65,79.22A7.39,7.39,0,0,0,122.3,85v3.86l1.67,1V86a7.38,7.38,0,0,1,3.35-5.8l82.85-47.83a2.33,2.33,0,0,1,2.37-.23Z" style="fill:#010014;opacity:0.15000000596046448;isolation:isolate"/><path d="M210.15,32.36c1.85-1.07,3.36-.21,3.37,1.93v3.86L124,89.85V86a7.38,7.38,0,0,1,3.35-5.8Z" style="fill:#7066ff"/><path d="M177.38,112.08,142.87,132a3.45,3.45,0,0,0-1.56,2.71,1.09,1.09,0,0,0,.46,1l.93.54a1.09,1.09,0,0,1-.46-1,3.45,3.45,0,0,1,1.56-2.71l34.51-19.91a1.1,1.1,0,0,1,1.12-.11l-.93-.55a1.1,1.1,0,0,0-1.11.12Z" style="fill:#7066ff"/><path d="M192.6,93.72l-49.74,28.72a3.46,3.46,0,0,0-1.57,2.71,1.1,1.1,0,0,0,.46,1l.92.54a1.1,1.1,0,0,1-.46-1,3.45,3.45,0,0,1,1.57-2.71l49.74-28.72a1.11,1.11,0,0,1,1.12-.11l-.93-.54a1.12,1.12,0,0,0-1.11.11Z" style="fill:#7066ff"/><path d="M141.73,116.6l.93.54a1.09,1.09,0,0,1-.46-1,3.45,3.45,0,0,1,1.56-2.71l45.38-26.2a1.11,1.11,0,0,1,1.12-.11l-.92-.54a1.11,1.11,0,0,0-1.12.11l-45.38,26.2a3.45,3.45,0,0,0-1.56,2.71,1.1,1.1,0,0,0,.46,1Z" style="fill:#7066ff"/><path d="M143.74,103.86l39.17-22.61a1.11,1.11,0,0,1,1.12-.11l-.94-.54a1.11,1.11,0,0,0-1.12.11l-39.16,22.61a3.45,3.45,0,0,0-1.57,2.71,1.1,1.1,0,0,0,.46,1l.93.54a1.1,1.1,0,0,1-.46-1,3.45,3.45,0,0,1,1.57-2.71Z" style="fill:#7066ff"/><path d="M198,62.41a1.11,1.11,0,0,0-1.12.11L142.79,93.76a3.45,3.45,0,0,0-1.56,2.71,1.09,1.09,0,0,0,.46,1l.93.54a1.09,1.09,0,0,1-.46-1,3.45,3.45,0,0,1,1.56-2.71l54.12-31.24a1.1,1.1,0,0,1,1.12-.11Z" style="fill:#7066ff"/><path d="M197.46,62.31a1.11,1.11,0,0,1,.57.1l.93.54a1.1,1.1,0,0,0-1.12.11L143.72,94.3A3.45,3.45,0,0,0,142.16,97a1.09,1.09,0,0,0,.46,1l-.93-.54a1.09,1.09,0,0,1-.46-1,3.45,3.45,0,0,1,1.56-2.71l54.12-31.24A1.11,1.11,0,0,1,197.46,62.31Zm-53.71,41.55,39.17-22.61a1.11,1.11,0,0,1,1.12-.11l-.94-.54a1.11,1.11,0,0,0-1.12.11l-39.16,22.61a3.45,3.45,0,0,0-1.57,2.71,1.1,1.1,0,0,0,.46,1l.93.54a1.1,1.1,0,0,1-.46-1,3.45,3.45,0,0,1,1.57-2.71Zm-1.09,13.28-.93-.54a1.09,1.09,0,0,1-.46-1,3.45,3.45,0,0,1,1.56-2.71l45.38-26.2a1.11,1.11,0,0,1,1.12-.11l.92.54a1.11,1.11,0,0,0-1.12.11l-45.38,26.2a3.45,3.45,0,0,0-1.56,2.71,1.09,1.09,0,0,0,.46,1ZM192.6,93.72l-49.74,28.72a3.45,3.45,0,0,0-1.57,2.71,1.1,1.1,0,0,0,.46,1l.92.54a1.1,1.1,0,0,1-.46-1,3.45,3.45,0,0,1,1.57-2.71l49.74-28.72a1.11,1.11,0,0,1,1.12-.11l-.93-.54a1.12,1.12,0,0,0-1.11.11Zm-15.23,18.36L142.87,132a3.45,3.45,0,0,0-1.56,2.71,1.09,1.09,0,0,0,.46,1l.93.54a1.09,1.09,0,0,1-.46-1,3.45,3.45,0,0,1,1.56-2.71l34.51-19.92a1.1,1.1,0,0,1,1.12-.11l-.93-.55a1.1,1.1,0,0,0-1.11.12Z" style="fill:#010014;opacity:0.6000000238418579;isolation:isolate"/><g style="opacity:0.4000000059604645"><path d="M143.72,94.3l54.12-31.24c.87-.5,1.57-.1,1.57.9a3.44,3.44,0,0,1-1.56,2.71L143.73,97.91c-.87.5-1.57.09-1.57-.89a3.45,3.45,0,0,1,1.56-2.71Z" style="fill:#010014"/><path d="M143.75,107.47l39.17-22.61a3.46,3.46,0,0,0,1.56-2.71c0-1-.71-1.4-1.57-.89l-39.17,22.61a3.45,3.45,0,0,0-1.57,2.71C142.18,107.57,142.89,108,143.75,107.47Z" style="fill:#010014"/><path d="M189.15,90.83,143.77,117c-.87.5-1.57.1-1.57-.89a3.45,3.45,0,0,1,1.56-2.71l45.38-26.2c.87-.5,1.58-.09,1.58.9a3.46,3.46,0,0,1-1.57,2.71Z" style="fill:#010014"/><path d="M193.53,94.26,143.79,123a3.45,3.45,0,0,0-1.57,2.71c0,1,.71,1.4,1.58.9l49.74-28.72a3.44,3.44,0,0,0,1.56-2.71C195.1,94.16,194.4,93.76,193.53,94.26Z" style="fill:#010014"/><path d="M178.3,112.62,143.8,132.53a3.45,3.45,0,0,0-1.56,2.71c0,1,.71,1.4,1.57.89l34.51-19.92a3.44,3.44,0,0,0,1.56-2.71C179.88,112.52,179.17,112.12,178.3,112.62Z" style="fill:#010014"/></g><path d="M177.38,159.89l-34.51,19.92a3.45,3.45,0,0,0-1.56,2.71,1.1,1.1,0,0,0,.46,1l.93.54a1.09,1.09,0,0,1-.46-1,3.45,3.45,0,0,1,1.56-2.71l34.51-19.92a1.1,1.1,0,0,1,1.12-.11l-.93-.55a1.1,1.1,0,0,0-.57-.09A1.11,1.11,0,0,0,177.38,159.89Z" style="fill:#7066ff"/><path d="M192.6,141.53l-49.74,28.72a3.46,3.46,0,0,0-1.57,2.71,1.1,1.1,0,0,0,.46,1l.92.54a1.1,1.1,0,0,1-.46-1,3.45,3.45,0,0,1,1.57-2.71l49.74-28.72a1.1,1.1,0,0,1,1.12-.11l-.93-.54a1.12,1.12,0,0,0-1.11.11Z" style="fill:#7066ff"/><path d="M141.73,164.4l.93.54a1.09,1.09,0,0,1-.46-1,3.45,3.45,0,0,1,1.56-2.71L189.14,135a1.11,1.11,0,0,1,1.12-.11l-.92-.54a1.11,1.11,0,0,0-1.12.11l-45.38,26.2a3.45,3.45,0,0,0-1.56,2.71,1.1,1.1,0,0,0,.46,1Z" style="fill:#7066ff"/><path d="M143.74,151.67l39.17-22.61a1.11,1.11,0,0,1,1.12-.11l-.94-.54a1.11,1.11,0,0,0-1.12.11l-39.16,22.61a3.45,3.45,0,0,0-1.57,2.71,1.11,1.11,0,0,0,.46,1l.93.54a1.1,1.1,0,0,1-.46-1,3.45,3.45,0,0,1,1.57-2.71Z" style="fill:#7066ff"/><path d="M198,110.22a1.11,1.11,0,0,0-1.12.11l-54.12,31.24a3.45,3.45,0,0,0-1.56,2.71,1.09,1.09,0,0,0,.46,1l.93.54a1.09,1.09,0,0,1-.46-1,3.45,3.45,0,0,1,1.56-2.71l54.12-31.24a1.1,1.1,0,0,1,1.12-.11Z" style="fill:#7066ff"/><path d="M197.46,110.12a1.11,1.11,0,0,1,.57.1l.93.54a1.1,1.1,0,0,0-1.12.11l-54.12,31.24a3.45,3.45,0,0,0-1.56,2.71,1.09,1.09,0,0,0,.46,1l-.93-.54a1.09,1.09,0,0,1-.46-1,3.45,3.45,0,0,1,1.56-2.71l54.12-31.24A1.11,1.11,0,0,1,197.46,110.12Zm-53.71,41.55,39.17-22.61a1.11,1.11,0,0,1,1.12-.11l-.94-.54a1.11,1.11,0,0,0-1.12.11l-39.16,22.61a3.45,3.45,0,0,0-1.57,2.71,1.11,1.11,0,0,0,.46,1l.93.53a1.1,1.1,0,0,1-.46-1,3.45,3.45,0,0,1,1.57-2.71Zm-1.09,13.28-.93-.54a1.09,1.09,0,0,1-.46-1,3.45,3.45,0,0,1,1.56-2.71l45.38-26.2a1.11,1.11,0,0,1,1.12-.11l.92.54a1.11,1.11,0,0,0-1.12.11l-45.38,26.2a3.45,3.45,0,0,0-1.56,2.71,1.09,1.09,0,0,0,.46,1Zm49.95-23.42-49.74,28.72a3.45,3.45,0,0,0-1.57,2.71,1.1,1.1,0,0,0,.46,1l.92.54a1.1,1.1,0,0,1-.46-1,3.45,3.45,0,0,1,1.57-2.71l49.74-28.72a1.1,1.1,0,0,1,1.12-.11l-.93-.54a1.12,1.12,0,0,0-1.11.11Zm-15.23,18.36-34.51,19.92a3.45,3.45,0,0,0-1.56,2.71,1.09,1.09,0,0,0,.46,1l.93.54a1.09,1.09,0,0,1-.46-1,3.45,3.45,0,0,1,1.56-2.71l34.51-19.92a1.1,1.1,0,0,1,1.12-.11l-.93-.55a1.1,1.1,0,0,0-.57-.09A1.11,1.11,0,0,0,177.38,159.89Z" style="fill:#010014;opacity:0.6000000238418579;isolation:isolate"/><g style="opacity:0.4000000059604645"><path d="M143.72,142.11l54.12-31.24c.87-.5,1.57-.1,1.57.9a3.44,3.44,0,0,1-1.56,2.71l-54.12,31.24c-.87.5-1.57.09-1.57-.89a3.45,3.45,0,0,1,1.56-2.71Z" style="fill:#010014"/><path d="M143.75,155.27l39.17-22.61a3.46,3.46,0,0,0,1.56-2.72c0-1-.71-1.4-1.57-.89l-39.17,22.61a3.45,3.45,0,0,0-1.57,2.71C142.18,155.37,142.89,155.76,143.75,155.27Z" style="fill:#010014"/><path d="M189.15,138.64l-45.38,26.2c-.87.5-1.57.1-1.57-.89a3.45,3.45,0,0,1,1.56-2.71L189.14,135c.87-.5,1.58-.09,1.58.9a3.46,3.46,0,0,1-1.57,2.71Z" style="fill:#010014"/><path d="M193.53,142.07l-49.74,28.72a3.45,3.45,0,0,0-1.57,2.71c0,1,.71,1.4,1.58.9l49.74-28.72A3.44,3.44,0,0,0,195.1,143C195.1,142,194.4,141.57,193.53,142.07Z" style="fill:#010014"/><path d="M178.3,160.43,143.8,180.34a3.45,3.45,0,0,0-1.56,2.71c0,1,.71,1.4,1.57.89L178.31,164a3.44,3.44,0,0,0,1.56-2.71C179.88,160.33,179.17,159.93,178.3,160.43Z" style="fill:#010014"/></g><path d="M208.39,28.85v9.44L200.21,43c-3.42,2-3.29,9.06,1.56,7.12l6.61-5.72v9.44c0,3.95,5.77,3.62,5.77-.32l-.47-12.18,10.91-5.79c3.42-2,.69-7-2.73-5.06l-8.18,4.72,1.68-8.89C215.37,22.4,208.33,23.43,208.39,28.85Z" style="fill:#7066ff"/><path d="M208.39,28.85v9.44L200.21,43c-3.42,2-3.29,9.06,1.56,7.12l6.61-5.72v9.44c0,3.95,5.77,3.62,5.77-.32l-.47-12.18,10.91-5.79c3.42-2,.69-7-2.73-5.06l-8.18,4.72,1.68-8.89C215.37,22.4,208.33,23.43,208.39,28.85Z" style="fill:#010014;opacity:0.699999988079071;isolation:isolate"/><path d="M210.13,29.78v9.44l-8.18,4.72c-3.42,2-3.42,8.09,0,6.12l8.18-4.72v9.44c0,3.95,5.3.89,5.3-3.06V42.29l8.18-4.72c3.42-2,3.42-8.09,0-6.12l-8.18,4.72V26.72C215.43,22.78,210.13,25.84,210.13,29.78Z" style="fill:#7066ff"/><path d="M210.13,29.78v9.44l-8.18,4.72c-3.42,2-3.42,8.09,0,6.12l8.18-4.72v9.44c0,3.95,5.3.89,5.3-3.06V42.29l8.18-4.72c3.42-2,3.42-8.09,0-6.12l-8.18,4.72V26.72C215.43,22.78,210.13,25.84,210.13,29.78Z" style="fill:#010014;opacity:0.4000000059604645;isolation:isolate"/><path d="M97.57,65v7.53l-6.52,3.76c-2.73,1.57-2.63,7.23,1.25,5.68l5.27-4.56V85c0,3.15,4.6,2.89,4.6-.26L101.8,75l8.7-4.61c2.73-1.57.55-5.61-2.18-4L101.8,70.1,103.14,63C103.14,59.87,97.53,60.69,97.57,65Z" style="fill:#7066ff"/><path d="M97.57,65v7.53l-6.52,3.76c-2.73,1.57-2.63,7.23,1.25,5.68l5.27-4.56V85c0,3.15,4.6,2.89,4.6-.26L101.8,75l8.7-4.61c2.73-1.57.55-5.61-2.18-4L101.8,70.1,103.14,63C103.14,59.87,97.53,60.69,97.57,65Z" style="fill:#010014;opacity:0.699999988079071;isolation:isolate"/><path d="M99,65.76v7.53l-6.52,3.76c-2.73,1.57-2.73,6.45,0,4.88L99,78.17V85.7c0,3.15,4.23.71,4.23-2.44V75.73L109.71,72c2.73-1.57,2.73-6.45,0-4.88l-6.52,3.76V63.32C103.19,60.17,99,62.61,99,65.76Z" style="fill:#7066ff"/><path d="M99,65.76v7.53l-6.52,3.76c-2.73,1.57-2.73,6.45,0,4.88L99,78.17V85.7c0,3.15,4.23.71,4.23-2.44V75.73L109.71,72c2.73-1.57,2.73-6.45,0-4.88l-6.52,3.76V63.32C103.19,60.17,99,62.61,99,65.76Z" style="fill:#010014;opacity:0.4000000059604645;isolation:isolate"/></svg>