<svg id="354d77e2-301b-452b-af6c-3abac1f2bf3e" data-name="Layer 1" xmlns="http://www.w3.org/2000/svg" viewBox="0 0 154 202"><title>create-bounty</title><path d="M1.82,182.67,1.66,58.9,91.22,7.19l-1.66-1L0,57.94.15,181.68a2.34,2.34,0,0,0,1,2.15l1.67,1A2.3,2.3,0,0,1,1.82,182.67Z" style="fill:#7066ff"/><path d="M1.82,182.67,1.66,58.9,91.22,7.19l-1.66-1L0,57.94.15,181.68a2.34,2.34,0,0,0,1,2.15l1.67,1A2.3,2.3,0,0,1,1.82,182.67Z" style="fill:#010014;opacity:0.15000000596046448;isolation:isolate"/><path d="M88.56.22A2.33,2.33,0,0,0,86.2.46L3.35,48.29A7.39,7.39,0,0,0,0,54.09v3.86l1.67,1V55.06A7.38,7.38,0,0,1,5,49.26L87.87,1.43a2.33,2.33,0,0,1,2.37-.23Z" style="fill:#7066ff"/><path d="M88.56.22A2.33,2.33,0,0,0,86.2.46L3.35,48.29A7.39,7.39,0,0,0,0,54.09v3.86l1.67,1V55.06A7.38,7.38,0,0,1,5,49.26L87.87,1.43a2.33,2.33,0,0,1,2.37-.23Z" style="fill:#010014;opacity:0.15000000596046448;isolation:isolate"/><path d="M3.31,183.54,3.16,59.77,92.72,8.06l-1.67-1L1.49,58.81l.15,123.75a2.34,2.34,0,0,0,1,2.15l1.67,1A2.3,2.3,0,0,1,3.31,183.54Z" style="fill:#7066ff"/><path d="M3.31,183.54,3.16,59.77,92.72,8.06l-1.67-1L1.49,58.81l.15,123.75a2.34,2.34,0,0,0,1,2.15l1.67,1A2.3,2.3,0,0,1,3.31,183.54Z" style="fill:#010014;opacity:0.15000000596046448;isolation:isolate"/><path d="M92.72,8.08l.15,123.77a7.38,7.38,0,0,1-3.35,5.8L6.67,185.48c-1.85,1.07-3.36.21-3.37-1.92L3.16,59.79Z" style="fill:#7066ff"/><path d="M90.06,1.1a2.33,2.33,0,0,0-2.37.24L4.84,49.16A7.39,7.39,0,0,0,1.49,55v3.86l1.67,1V55.93a7.38,7.38,0,0,1,3.35-5.8L89.36,2.3a2.33,2.33,0,0,1,2.37-.23Z" style="fill:#7066ff"/><path d="M90.06,1.1a2.33,2.33,0,0,0-2.37.24L4.84,49.16A7.39,7.39,0,0,0,1.49,55v3.86l1.67,1V55.93a7.38,7.38,0,0,1,3.35-5.8L89.36,2.3a2.33,2.33,0,0,1,2.37-.23Z" style="fill:#010014;opacity:0.15000000596046448;isolation:isolate"/><path d="M89.34,2.3c1.85-1.07,3.36-.21,3.37,1.93V8.08L3.15,59.79V55.93a7.38,7.38,0,0,1,3.35-5.8Z" style="fill:#7066ff"/><path d="M59.47,14.26v9.41l-8.15,4.71c-3.41,2-3.28,9,1.56,7.1l6.59-5.7v9.41c0,3.93,5.75,3.61,5.75-.32l-.47-12.14L75.62,21c3.41-2,.68-7-2.72-5l-8.15,4.71,1.68-8.86C66.43,7.83,59.41,8.85,59.47,14.26Z" style="fill:#7066ff"/><path d="M59.47,14.26v9.41l-8.15,4.71c-3.41,2-3.28,9,1.56,7.1l6.59-5.7v9.41c0,3.93,5.75,3.61,5.75-.32l-.47-12.14L75.62,21c3.41-2,.68-7-2.72-5l-8.15,4.71,1.68-8.86C66.43,7.83,59.41,8.85,59.47,14.26Z" style="fill:#010014;opacity:0.699999988079071;isolation:isolate"/><path d="M61.2,15.19V24.6L53,29.31c-3.41,2-3.41,8.07,0,6.1L61.2,30.7v9.41c0,3.93,5.28.88,5.28-3.05V27.65l8.15-4.71c3.41-2,3.41-8.07,0-6.1l-8.15,4.71V12.14C66.48,8.21,61.2,11.26,61.2,15.19Z" style="fill:#7066ff"/><path d="M61.2,15.19V24.6L53,29.31c-3.41,2-3.41,8.07,0,6.1L61.2,30.7v9.41c0,3.93,5.28.88,5.28-3.05V27.65l8.15-4.71c3.41-2,3.41-8.07,0-6.1l-8.15,4.71V12.14C66.48,8.21,61.2,11.26,61.2,15.19Z" style="fill:#010014;opacity:0.4000000059604645;isolation:isolate"/><path d="M25.72,190.64,25.57,66.87l89.56-51.71-1.67-1L23.9,65.9l.15,123.75a2.34,2.34,0,0,0,1,2.15l1.67,1A2.3,2.3,0,0,1,25.72,190.64Z" style="fill:#7066ff"/><path d="M25.72,190.64,25.57,66.87l89.56-51.71-1.67-1L23.9,65.9l.15,123.75a2.34,2.34,0,0,0,1,2.15l1.67,1A2.3,2.3,0,0,1,25.72,190.64Z" style="fill:#010014;opacity:0.15000000596046448;isolation:isolate"/><path d="M112.47,8.19a2.33,2.33,0,0,0-2.37.24L27.25,56.26a7.39,7.39,0,0,0-3.35,5.8v3.86l1.67,1V63a7.38,7.38,0,0,1,3.35-5.8L111.77,9.4a2.33,2.33,0,0,1,2.37-.23Z" style="fill:#7066ff"/><path d="M112.47,8.19a2.33,2.33,0,0,0-2.37.24L27.25,56.26a7.39,7.39,0,0,0-3.35,5.8v3.86l1.67,1V63a7.38,7.38,0,0,1,3.35-5.8L111.77,9.4a2.33,2.33,0,0,1,2.37-.23Z" style="fill:#010014;opacity:0.15000000596046448;isolation:isolate"/><path d="M27.22,191.51,27.06,67.74,116.62,16l-1.67-1L25.4,66.78l.15,123.75a2.34,2.34,0,0,0,1,2.15l1.67,1A2.3,2.3,0,0,1,27.22,191.51Z" style="fill:#7066ff"/><path d="M27.22,191.51,27.06,67.74,116.62,16l-1.67-1L25.4,66.78l.15,123.75a2.34,2.34,0,0,0,1,2.15l1.67,1A2.3,2.3,0,0,1,27.22,191.51Z" style="fill:#010014;opacity:0.15000000596046448;isolation:isolate"/><path d="M116.62,16.05l.15,123.77a7.37,7.37,0,0,1-3.35,5.79L30.58,193.45c-1.85,1.07-3.36.21-3.37-1.92L27.06,67.76Z" style="fill:#7066ff"/><path d="M114,9.06a2.33,2.33,0,0,0-2.37.24L28.74,57.13a7.39,7.39,0,0,0-3.35,5.8v3.86l1.67,1V63.9a7.38,7.38,0,0,1,3.35-5.8l82.85-47.83a2.33,2.33,0,0,1,2.37-.23Z" style="fill:#7066ff"/><path d="M114,9.06a2.33,2.33,0,0,0-2.37.24L28.74,57.13a7.39,7.39,0,0,0-3.35,5.8v3.86l1.67,1V63.9a7.38,7.38,0,0,1,3.35-5.8l82.85-47.83a2.33,2.33,0,0,1,2.37-.23Z" style="fill:#010014;opacity:0.15000000596046448;isolation:isolate"/><path d="M113.24,10.27c1.85-1.07,3.36-.21,3.37,1.93v3.86L27.05,67.76V63.9a7.38,7.38,0,0,1,3.35-5.8Z" style="fill:#7066ff"/><path d="M49.63,198.73,49.47,75,139,23.25l-1.67-1L47.81,74,48,197.74a2.34,2.34,0,0,0,1,2.15l1.67,1A2.3,2.3,0,0,1,49.63,198.73Z" style="fill:#7066ff"/><path d="M49.63,198.73,49.47,75,139,23.25l-1.67-1L47.81,74,48,197.74a2.34,2.34,0,0,0,1,2.15l1.67,1A2.3,2.3,0,0,1,49.63,198.73Z" style="fill:#010014;opacity:0.15000000596046448;isolation:isolate"/><path d="M136.37,16.28a2.33,2.33,0,0,0-2.37.24L51.15,64.35a7.39,7.39,0,0,0-3.35,5.8V74l1.67,1V71.12a7.38,7.38,0,0,1,3.35-5.8l82.85-47.83a2.34,2.34,0,0,1,2.37-.23Z" style="fill:#7066ff"/><path d="M136.37,16.28a2.33,2.33,0,0,0-2.37.24L51.15,64.35a7.39,7.39,0,0,0-3.35,5.8V74l1.67,1V71.12a7.38,7.38,0,0,1,3.35-5.8l82.85-47.83a2.34,2.34,0,0,1,2.37-.23Z" style="fill:#010014;opacity:0.15000000596046448;isolation:isolate"/><path d="M51.12,199.6,51,75.83l89.56-51.71-1.66-1L49.3,74.87l.15,123.75a2.35,2.35,0,0,0,1,2.15l1.67,1A2.3,2.3,0,0,1,51.12,199.6Z" style="fill:#7066ff"/><path d="M51.12,199.6,51,75.83l89.56-51.71-1.66-1L49.3,74.87l.15,123.75a2.35,2.35,0,0,0,1,2.15l1.67,1A2.3,2.3,0,0,1,51.12,199.6Z" style="fill:#010014;opacity:0.15000000596046448;isolation:isolate"/><path d="M140.52,24.14l.15,123.77a7.37,7.37,0,0,1-3.35,5.8L54.48,201.54c-1.85,1.07-3.36.21-3.37-1.92L51,75.85Z" style="fill:#7066ff"/><path d="M137.87,17.16a2.33,2.33,0,0,0-2.37.24L52.65,65.22A7.39,7.39,0,0,0,49.3,71v3.86l1.67,1V72a7.38,7.38,0,0,1,3.35-5.8l82.85-47.83a2.33,2.33,0,0,1,2.37-.23Z" style="fill:#7066ff"/><path d="M137.87,17.16a2.33,2.33,0,0,0-2.37.24L52.65,65.22A7.39,7.39,0,0,0,49.3,71v3.86l1.67,1V72a7.38,7.38,0,0,1,3.35-5.8l82.85-47.83a2.33,2.33,0,0,1,2.37-.23Z" style="fill:#010014;opacity:0.15000000596046448;isolation:isolate"/><path d="M137.15,18.36c1.85-1.07,3.36-.21,3.37,1.93v3.86L51,75.85V72a7.38,7.38,0,0,1,3.35-5.8Z" style="fill:#7066ff"/><path d="M104.38,98.08,69.87,118a3.45,3.45,0,0,0-1.56,2.71,1.09,1.09,0,0,0,.46,1l.93.54a1.09,1.09,0,0,1-.46-1,3.45,3.45,0,0,1,1.56-2.71L105.3,98.62a1.1,1.1,0,0,1,1.12-.11l-.93-.55a1.1,1.1,0,0,0-1.11.12Z" style="fill:#7066ff"/><path d="M119.6,79.72,69.86,108.44a3.46,3.46,0,0,0-1.57,2.71,1.1,1.1,0,0,0,.46,1l.92.54a1.1,1.1,0,0,1-.46-1A3.45,3.45,0,0,1,70.78,109l49.74-28.72a1.11,1.11,0,0,1,1.12-.11l-.93-.54a1.12,1.12,0,0,0-1.11.11Z" style="fill:#7066ff"/><path d="M68.73,102.6l.93.54a1.09,1.09,0,0,1-.46-1,3.45,3.45,0,0,1,1.56-2.71l45.38-26.2a1.11,1.11,0,0,1,1.12-.11l-.92-.54a1.11,1.11,0,0,0-1.12.11L69.84,98.88a3.45,3.45,0,0,0-1.56,2.71,1.1,1.1,0,0,0,.46,1Z" style="fill:#7066ff"/><path d="M70.74,89.86l39.17-22.61a1.11,1.11,0,0,1,1.12-.11l-.94-.54a1.11,1.11,0,0,0-1.12.11L69.82,89.32A3.45,3.45,0,0,0,68.25,92a1.1,1.1,0,0,0,.46,1l.93.54a1.1,1.1,0,0,1-.46-1,3.45,3.45,0,0,1,1.57-2.71Z" style="fill:#7066ff"/><path d="M125,48.41a1.11,1.11,0,0,0-1.12.11L69.79,79.76a3.45,3.45,0,0,0-1.56,2.71,1.09,1.09,0,0,0,.46,1l.93.54a1.09,1.09,0,0,1-.46-1,3.45,3.45,0,0,1,1.56-2.71l54.12-31.24a1.1,1.1,0,0,1,1.12-.11Z" style="fill:#7066ff"/><path d="M124.46,48.31a1.11,1.11,0,0,1,.57.1l.93.54a1.1,1.1,0,0,0-1.12.11L70.72,80.3A3.45,3.45,0,0,0,69.16,83a1.09,1.09,0,0,0,.46,1l-.93-.54a1.09,1.09,0,0,1-.46-1,3.45,3.45,0,0,1,1.56-2.71l54.12-31.24A1.11,1.11,0,0,1,124.46,48.31ZM70.74,89.86l39.17-22.61a1.11,1.11,0,0,1,1.12-.11l-.94-.54a1.11,1.11,0,0,0-1.12.11L69.82,89.32A3.45,3.45,0,0,0,68.25,92a1.1,1.1,0,0,0,.46,1l.93.54a1.1,1.1,0,0,1-.46-1,3.45,3.45,0,0,1,1.57-2.71Zm-1.09,13.28-.93-.54a1.09,1.09,0,0,1-.46-1,3.45,3.45,0,0,1,1.56-2.71l45.38-26.2a1.11,1.11,0,0,1,1.12-.11l.92.54a1.11,1.11,0,0,0-1.12.11L70.76,99.42a3.45,3.45,0,0,0-1.56,2.71,1.09,1.09,0,0,0,.46,1ZM119.6,79.72,69.86,108.44a3.45,3.45,0,0,0-1.57,2.71,1.1,1.1,0,0,0,.46,1l.92.54a1.1,1.1,0,0,1-.46-1A3.45,3.45,0,0,1,70.78,109l49.74-28.72a1.11,1.11,0,0,1,1.12-.11l-.93-.54a1.12,1.12,0,0,0-1.11.11ZM104.38,98.08,69.87,118a3.45,3.45,0,0,0-1.56,2.71,1.09,1.09,0,0,0,.46,1l.93.54a1.09,1.09,0,0,1-.46-1,3.45,3.45,0,0,1,1.56-2.71L105.3,98.62a1.1,1.1,0,0,1,1.12-.11l-.93-.55a1.1,1.1,0,0,0-1.11.12Z" style="fill:#010014;opacity:0.6000000238418579;isolation:isolate"/><g style="opacity:0.4000000059604645"><path d="M70.72,80.3l54.12-31.24c.87-.5,1.57-.1,1.57.9a3.44,3.44,0,0,1-1.56,2.71L70.73,83.91c-.87.5-1.57.09-1.57-.89a3.45,3.45,0,0,1,1.56-2.71Z" style="fill:#010014"/><path d="M70.75,93.47l39.17-22.61a3.46,3.46,0,0,0,1.56-2.71c0-1-.71-1.4-1.57-.89L70.74,89.86a3.45,3.45,0,0,0-1.57,2.71C69.18,93.57,69.89,94,70.75,93.47Z" style="fill:#010014"/><path d="M116.15,76.83,70.77,103c-.87.5-1.57.1-1.57-.89a3.45,3.45,0,0,1,1.56-2.71l45.38-26.2c.87-.5,1.58-.09,1.58.9a3.46,3.46,0,0,1-1.57,2.71Z" style="fill:#010014"/><path d="M120.53,80.26,70.79,109a3.45,3.45,0,0,0-1.57,2.71c0,1,.71,1.4,1.58.9l49.74-28.72a3.44,3.44,0,0,0,1.56-2.71C122.1,80.16,121.4,79.76,120.53,80.26Z" style="fill:#010014"/><path d="M105.3,98.62,70.8,118.53a3.45,3.45,0,0,0-1.56,2.71c0,1,.71,1.4,1.57.89l34.51-19.92a3.44,3.44,0,0,0,1.56-2.71C106.88,98.52,106.17,98.12,105.3,98.62Z" style="fill:#010014"/></g><path d="M104.38,145.89,69.87,165.81a3.45,3.45,0,0,0-1.56,2.71,1.1,1.1,0,0,0,.46,1l.93.54a1.09,1.09,0,0,1-.46-1,3.45,3.45,0,0,1,1.56-2.71l34.51-19.92a1.1,1.1,0,0,1,1.12-.11l-.93-.55a1.1,1.1,0,0,0-.57-.09A1.11,1.11,0,0,0,104.38,145.89Z" style="fill:#7066ff"/><path d="M119.6,127.53,69.86,156.24A3.46,3.46,0,0,0,68.29,159a1.1,1.1,0,0,0,.46,1l.92.54a1.1,1.1,0,0,1-.46-1,3.45,3.45,0,0,1,1.57-2.71l49.74-28.72a1.1,1.1,0,0,1,1.12-.11l-.93-.54a1.12,1.12,0,0,0-1.11.11Z" style="fill:#7066ff"/><path d="M68.73,150.4l.93.54a1.09,1.09,0,0,1-.46-1,3.45,3.45,0,0,1,1.56-2.71L116.14,121a1.11,1.11,0,0,1,1.12-.11l-.92-.54a1.11,1.11,0,0,0-1.12.11l-45.38,26.2a3.45,3.45,0,0,0-1.56,2.71,1.1,1.1,0,0,0,.46,1Z" style="fill:#7066ff"/><path d="M70.74,137.67l39.17-22.61a1.11,1.11,0,0,1,1.12-.11l-.94-.54a1.11,1.11,0,0,0-1.12.11L69.82,137.13a3.45,3.45,0,0,0-1.57,2.71,1.11,1.11,0,0,0,.46,1l.93.54a1.1,1.1,0,0,1-.46-1,3.45,3.45,0,0,1,1.57-2.71Z" style="fill:#7066ff"/><path d="M125,96.22a1.11,1.11,0,0,0-1.12.11L69.79,127.57a3.45,3.45,0,0,0-1.56,2.71,1.09,1.09,0,0,0,.46,1l.93.54a1.09,1.09,0,0,1-.46-1,3.45,3.45,0,0,1,1.56-2.71l54.12-31.24a1.1,1.1,0,0,1,1.12-.11Z" style="fill:#7066ff"/><path d="M124.46,96.12a1.11,1.11,0,0,1,.57.1l.93.54a1.1,1.1,0,0,0-1.12.11L70.72,128.11a3.45,3.45,0,0,0-1.56,2.71,1.09,1.09,0,0,0,.46,1l-.93-.54a1.09,1.09,0,0,1-.46-1,3.45,3.45,0,0,1,1.56-2.71l54.12-31.24A1.11,1.11,0,0,1,124.46,96.12ZM70.74,137.67l39.17-22.61a1.11,1.11,0,0,1,1.12-.11l-.94-.54a1.11,1.11,0,0,0-1.12.11L69.82,137.13a3.45,3.45,0,0,0-1.57,2.71,1.11,1.11,0,0,0,.46,1l.93.53a1.1,1.1,0,0,1-.46-1,3.45,3.45,0,0,1,1.57-2.71Zm-1.09,13.28-.93-.54a1.09,1.09,0,0,1-.46-1,3.45,3.45,0,0,1,1.56-2.71l45.38-26.2a1.11,1.11,0,0,1,1.12-.11l.92.54a1.11,1.11,0,0,0-1.12.11l-45.38,26.2a3.45,3.45,0,0,0-1.56,2.71,1.09,1.09,0,0,0,.46,1Zm49.95-23.42L69.86,156.24A3.45,3.45,0,0,0,68.29,159a1.1,1.1,0,0,0,.46,1l.92.54a1.1,1.1,0,0,1-.46-1,3.45,3.45,0,0,1,1.57-2.71l49.74-28.72a1.1,1.1,0,0,1,1.12-.11l-.93-.54a1.12,1.12,0,0,0-1.11.11Zm-15.23,18.36L69.87,165.81a3.45,3.45,0,0,0-1.56,2.71,1.09,1.09,0,0,0,.46,1l.93.54a1.09,1.09,0,0,1-.46-1,3.45,3.45,0,0,1,1.56-2.71l34.51-19.92a1.1,1.1,0,0,1,1.12-.11l-.93-.55a1.1,1.1,0,0,0-.57-.09A1.11,1.11,0,0,0,104.38,145.89Z" style="fill:#010014;opacity:0.6000000238418579;isolation:isolate"/><g style="opacity:0.4000000059604645"><path d="M70.72,128.11l54.12-31.24c.87-.5,1.57-.1,1.57.9a3.44,3.44,0,0,1-1.56,2.71L70.73,131.71c-.87.5-1.57.09-1.57-.89a3.45,3.45,0,0,1,1.56-2.71Z" style="fill:#010014"/><path d="M70.75,141.27l39.17-22.61a3.46,3.46,0,0,0,1.56-2.72c0-1-.71-1.4-1.57-.89L70.74,137.67a3.45,3.45,0,0,0-1.57,2.71C69.18,141.37,69.89,141.76,70.75,141.27Z" style="fill:#010014"/><path d="M116.15,124.64l-45.38,26.2c-.87.5-1.57.1-1.57-.89a3.45,3.45,0,0,1,1.56-2.71L116.14,121c.87-.5,1.58-.09,1.58.9a3.46,3.46,0,0,1-1.57,2.71Z" style="fill:#010014"/><path d="M120.53,128.07,70.79,156.78a3.45,3.45,0,0,0-1.57,2.71c0,1,.71,1.4,1.58.9l49.74-28.72A3.44,3.44,0,0,0,122.1,129C122.1,128,121.4,127.57,120.53,128.07Z" style="fill:#010014"/><path d="M105.3,146.43,70.8,166.34a3.45,3.45,0,0,0-1.56,2.71c0,1,.71,1.4,1.57.89L105.31,150a3.44,3.44,0,0,0,1.56-2.71C106.88,146.33,106.17,145.93,105.3,146.43Z" style="fill:#010014"/></g><path d="M135.39,14.85v9.44L127.21,29c-3.42,2-3.29,9.06,1.56,7.12l6.61-5.72v9.44c0,3.95,5.77,3.62,5.77-.32l-.47-12.18,10.91-5.79c3.42-2,.69-7-2.73-5.06l-8.18,4.72,1.68-8.89C142.37,8.4,135.33,9.43,135.39,14.85Z" style="fill:#7066ff"/><path d="M135.39,14.85v9.44L127.21,29c-3.42,2-3.29,9.06,1.56,7.12l6.61-5.72v9.44c0,3.95,5.77,3.62,5.77-.32l-.47-12.18,10.91-5.79c3.42-2,.69-7-2.73-5.06l-8.18,4.72,1.68-8.89C142.37,8.4,135.33,9.43,135.39,14.85Z" style="fill:#010014;opacity:0.699999988079071;isolation:isolate"/><path d="M137.13,15.78v9.44l-8.18,4.72c-3.42,2-3.42,8.09,0,6.12l8.18-4.72v9.44c0,3.95,5.3.89,5.3-3.06V28.29l8.18-4.72c3.42-2,3.42-8.09,0-6.12l-8.18,4.72V12.72C142.43,8.78,137.13,11.84,137.13,15.78Z" style="fill:#7066ff"/><path d="M137.13,15.78v9.44l-8.18,4.72c-3.42,2-3.42,8.09,0,6.12l8.18-4.72v9.44c0,3.95,5.3.89,5.3-3.06V28.29l8.18-4.72c3.42-2,3.42-8.09,0-6.12l-8.18,4.72V12.72C142.43,8.78,137.13,11.84,137.13,15.78Z" style="fill:#010014;opacity:0.4000000059604645;isolation:isolate"/><path d="M24.57,51v7.53l-6.52,3.76c-2.73,1.57-2.63,7.23,1.25,5.68l5.27-4.56V71c0,3.15,4.6,2.89,4.6-.26L28.8,61l8.7-4.61c2.73-1.57.55-5.61-2.18-4L28.8,56.1,30.14,49C30.14,45.87,24.53,46.69,24.57,51Z" style="fill:#7066ff"/><path d="M24.57,51v7.53l-6.52,3.76c-2.73,1.57-2.63,7.23,1.25,5.68l5.27-4.56V71c0,3.15,4.6,2.89,4.6-.26L28.8,61l8.7-4.61c2.73-1.57.55-5.61-2.18-4L28.8,56.1,30.14,49C30.14,45.87,24.53,46.69,24.57,51Z" style="fill:#010014;opacity:0.699999988079071;isolation:isolate"/><path d="M26,51.76v7.53l-6.52,3.76c-2.73,1.57-2.73,6.45,0,4.88L26,64.17V71.7c0,3.15,4.23.71,4.23-2.44V61.73L36.71,58c2.73-1.57,2.73-6.45,0-4.88l-6.52,3.76V49.32C30.19,46.17,26,48.61,26,51.76Z" style="fill:#7066ff"/><path d="M26,51.76v7.53l-6.52,3.76c-2.73,1.57-2.73,6.45,0,4.88L26,64.17V71.7c0,3.15,4.23.71,4.23-2.44V61.73L36.71,58c2.73-1.57,2.73-6.45,0-4.88l-6.52,3.76V49.32C30.19,46.17,26,48.61,26,51.76Z" style="fill:#010014;opacity:0.4000000059604645;isolation:isolate"/></svg>