<svg id="ef39a350-0ed1-4e6b-a7bb-5df725c62644" data-name="Layer 1" xmlns="http://www.w3.org/2000/svg" viewBox="0 0 275 304"><title>cube</title><g style="opacity:0.6000000238418579"><path d="M158.48,5c-11.54-6.66-30.41-6.66-42,0L21,60.17C9.43,66.83,0,83.18,0,96.5V206.82c0,13.32,9.43,29.67,21,36.33l95.55,55.17c11.54,6.66,30.41,6.66,42,0L254,243.16c11.54-6.66,21-23,21-36.33V96.5c0-13.32-9.43-29.67-21-36.33Z" style="fill:#181726"/><path d="M137.5,286.22c0,13.32,9.43,18.77,21,12.11L254,243.15c11.54-6.66,21-23,21-36.33V96.5c0-13.32-9.43-18.77-21-12.11l-95.55,55.16c-11.54,6.66-21,23-21,36.33Z" style="fill:#010014;opacity:0.30000001192092896;isolation:isolate"/></g></svg>