<svg id="fe6e577a-2cbf-4101-bcc9-764c4ce5dd4b" data-name="Layer 1" xmlns="http://www.w3.org/2000/svg" viewBox="0 0 279 202"><title>hunt-bounties</title><path d="M234.47,137.79,126,200.4a8.17,8.17,0,0,1-8.18,0L47.09,159.55A8.19,8.19,0,0,1,43,152.46V70.77a8.18,8.18,0,0,1,4.09-7.08L155.51,1.09a8.17,8.17,0,0,1,8.12,0l2.73,1.56L51.73,66.37a8.18,8.18,0,0,0-4.09,7.08v81.05L117.84,195a8.18,8.18,0,0,0,8.18,0L238.54,127.7v3a8.19,8.19,0,0,1-4.07,7.08Z" style="fill:#7066ff"/><path d="M234.47,137.79,126,200.4a8.17,8.17,0,0,1-8.18,0L47.09,159.55A8.19,8.19,0,0,1,43,152.46V70.77a8.18,8.18,0,0,1,4.09-7.08L155.51,1.09a8.17,8.17,0,0,1,8.12,0l2.73,1.56L51.73,66.37a8.18,8.18,0,0,0-4.09,7.08v81.05L117.84,195a8.18,8.18,0,0,0,8.18,0L238.54,127.7v3a8.19,8.19,0,0,1-4.07,7.08Z" style="fill:#010014;opacity:0.25;isolation:isolate"/><path d="M168.36,6.12V84.81L47.64,154.51V73.45a8.18,8.18,0,0,1,4.09-7.08L162.23,2.58a4.09,4.09,0,0,1,6.13,3.54Z" style="fill:#7066ff"/><path d="M168.36,6.12V84.81L47.64,154.51V73.45a8.18,8.18,0,0,1,4.09-7.08L162.23,2.58a4.09,4.09,0,0,1,6.13,3.54Z" style="fill:#010014;opacity:0.5;isolation:isolate"/><path d="M163.71,9.34V80.62a2.62,2.62,0,0,1-1.3,2.27L54.25,145.33a1.3,1.3,0,0,1-2-1.13V72.92a2.61,2.61,0,0,1,1.3-2.26L161.75,8.21a1.3,1.3,0,0,1,2,1.13Z" style="fill:#010014;opacity:0.30000001192092896;isolation:isolate"/><path d="M236.51,124.16,168.36,84.81,47.64,154.51,117.84,195a8.17,8.17,0,0,0,8.18,0l110.49-63.79a4.09,4.09,0,0,0,0-7.08Z" style="fill:#7066ff"/><path d="M195,145.7c2,1.14,2,3,0,4.15l-34.6,20a8,8,0,0,1-7.19,0L132.54,157.9c-2-1.14-2-3,0-4.15l34.6-20a8,8,0,0,1,7.2,0Z" style="fill:#010014;opacity:0.4000000059604645;isolation:isolate"/><g style="opacity:0.800000011920929"><path d="M164.51,103.07l2.71-1.56a.63.63,0,0,0,.38-.52v-.69a.64.64,0,0,1-.38.52l-2.71,1.56a2,2,0,0,1-1.8,0l-2.7-1.56a.65.65,0,0,1-.25-.21.63.63,0,0,1-.11-.31V101a.63.63,0,0,0,.37.52l2.7,1.56a2,2,0,0,0,1.8,0Z" style="fill:#010014"/><path d="M160.81,104.9v-.69a.64.64,0,0,1-.37.52l-2.71,1.56a2,2,0,0,1-1.8,0l-2.7-1.56a.64.64,0,0,1-.37-.52v.69a.62.62,0,0,0,.11.31.63.63,0,0,0,.26.21l2.7,1.56a2,2,0,0,0,1.8,0l2.71-1.56a.64.64,0,0,0,.37-.52Z" style="fill:#010014"/><path d="M154,108.12v.71a.64.64,0,0,1-.37.52l-2.71,1.56a2,2,0,0,1-1.8,0l-2.69-1.56a.63.63,0,0,1-.37-.52v-.69a.64.64,0,0,0,.37.52l2.7,1.56a2,2,0,0,0,1.8,0l2.71-1.56a.63.63,0,0,0,.26-.21A.62.62,0,0,0,154,108.12Z" style="fill:#010014"/><path d="M147.25,112.72V112a.63.63,0,0,1-.37.51l-2.71,1.56a2,2,0,0,1-1.8,0l-2.69-1.56a.63.63,0,0,1-.37-.52v.69a.63.63,0,0,0,.37.52l2.69,1.56a2,2,0,0,0,1.8,0l2.71-1.56a.64.64,0,0,0,.37-.52Z" style="fill:#010014"/><path d="M140.47,115.95v.69a.64.64,0,0,1-.37.52l-2.71,1.56a2,2,0,0,1-1.8,0l-2.69-1.56a.63.63,0,0,1-.37-.52V116a.63.63,0,0,0,.37.52l2.7,1.56a2,2,0,0,0,1.8,0l2.71-1.56a.64.64,0,0,0,.37-.52Z" style="fill:#010014"/><path d="M133.69,120.56v-.69a.64.64,0,0,1-.12.31.64.64,0,0,1-.26.21l-2.71,1.56a2,2,0,0,1-1.8,0l-2.69-1.56a.63.63,0,0,1-.37-.52v.69a.63.63,0,0,0,.11.31.64.64,0,0,0,.26.21l2.69,1.56a2,2,0,0,0,1.8,0l2.71-1.56a.64.64,0,0,0,.37-.52Z" style="fill:#010014"/><path d="M126.91,123.78v.69a.64.64,0,0,1-.37.52l-2.71,1.56a2,2,0,0,1-1.8,0l-2.7-1.56a.63.63,0,0,1-.25-.21.64.64,0,0,1-.11-.31v-.69a.64.64,0,0,0,.11.31.62.62,0,0,0,.25.21l2.69,1.56a2,2,0,0,0,1.8,0l2.71-1.56a.64.64,0,0,0,.26-.21A.63.63,0,0,0,126.91,123.78Z" style="fill:#010014"/><path d="M120.14,128.38v-.69a.64.64,0,0,1-.12.31.63.63,0,0,1-.26.21l-2.71,1.56a2,2,0,0,1-1.8,0l-2.69-1.56a.62.62,0,0,1-.25-.21.64.64,0,0,1-.11-.31v.69a.65.65,0,0,0,.11.31.64.64,0,0,0,.25.21l2.69,1.56a2,2,0,0,0,1.8,0l2.71-1.56a.64.64,0,0,0,.37-.52Z" style="fill:#010014"/><path d="M113.35,131.6v.69a.64.64,0,0,1-.38.52l-2.71,1.56a2,2,0,0,1-1.8,0l-2.69-1.56a.63.63,0,0,1-.37-.52v-.69a.62.62,0,0,0,.37.52l2.69,1.56a2,2,0,0,0,1.8,0l2.71-1.56a.63.63,0,0,0,.26-.21A.64.64,0,0,0,113.35,131.6Z" style="fill:#010014"/><path d="M106.57,136.21v-.69a.64.64,0,0,1-.12.31.63.63,0,0,1-.26.21l-2.71,1.56a2,2,0,0,1-1.8,0L99,136a.63.63,0,0,1-.25-.21.64.64,0,0,1-.12-.31v.69a.64.64,0,0,0,.37.52l2.69,1.56a2,2,0,0,0,1.8,0l2.71-1.56a.64.64,0,0,0,.26-.21A.65.65,0,0,0,106.57,136.21Z" style="fill:#010014"/><path d="M99.79,139.43v.69a.63.63,0,0,1-.37.52l-2.71,1.56a2,2,0,0,1-1.8,0l-2.7-1.56a.63.63,0,0,1-.37-.52v-.69a.63.63,0,0,0,.37.52l2.7,1.56a2,2,0,0,0,1.8,0L99.42,140a.64.64,0,0,0,.37-.52Z" style="fill:#010014"/><path d="M93,144.05v-.69a.63.63,0,0,1-.37.52l-2.71,1.56a2,2,0,0,1-1.8,0l-2.7-1.56a.64.64,0,0,1-.25-.21.63.63,0,0,1-.11-.31v.69a.63.63,0,0,0,.37.52l2.7,1.56a2,2,0,0,0,1.8,0l2.71-1.56a.64.64,0,0,0,.26-.21A.63.63,0,0,0,93,144.05Z" style="fill:#010014"/><path d="M86.23,147.25v.69a.64.64,0,0,1-.37.52L83.15,150a2,2,0,0,1-1.8,0l-2.69-1.56a.63.63,0,0,1-.37-.52v-.69a.63.63,0,0,0,.37.52l2.7,1.56a2,2,0,0,0,1.8,0l2.71-1.56a.63.63,0,0,0,.37-.52Z" style="fill:#010014"/><path d="M74.56,153.26l-2.7-1.56a.63.63,0,0,1-.37-.52v.69a.63.63,0,0,0,.37.52L74.56,154a2,2,0,0,0,1.8,0l2.71-1.56a.64.64,0,0,0,.37-.52v-.69a.63.63,0,0,1-.37.52l-2.71,1.56a2,2,0,0,1-1.8,0Z" style="fill:#010014"/><path d="M174,105.43,171.24,107a2,2,0,0,1-1.8,0l-2.7-1.56a.64.64,0,0,1-.37-.52v-.69a.64.64,0,0,0,.37.52l2.7,1.56a2,2,0,0,0,1.8,0l2.71-1.56a.64.64,0,0,0,.37-.52v.69a.64.64,0,0,1-.38.52Z" style="fill:#010014"/><path d="M162.66,110.2l-2.7-1.56a.64.64,0,0,1-.37-.51v.69a.63.63,0,0,0,.37.52l2.7,1.56a2,2,0,0,0,1.8,0l2.71-1.56a.61.61,0,0,0,.26-.21.63.63,0,0,0,.12-.31v-.7a.63.63,0,0,1-.38.52l-2.71,1.56a2,2,0,0,1-1.8,0Z" style="fill:#010014"/><path d="M153.18,112.56l2.7,1.56a2,2,0,0,0,1.8,0l2.71-1.56a.64.64,0,0,0,.38-.52v.68a.63.63,0,0,1-.12.31.62.62,0,0,1-.26.21l-2.71,1.56a2,2,0,0,1-1.8,0l-2.69-1.56a.63.63,0,0,1-.37-.52V112a.63.63,0,0,0,.37.53Z" style="fill:#010014"/><path d="M149.1,118l-2.7-1.56A.64.64,0,0,1,146,116v.69a.63.63,0,0,0,.37.52l2.69,1.56a2,2,0,0,0,1.82,0l2.71-1.56a.64.64,0,0,0,.37-.52V116a.64.64,0,0,1-.12.31.63.63,0,0,1-.26.21L150.9,118a2,2,0,0,1-1.8,0Z" style="fill:#010014"/><path d="M139.62,120.39l2.69,1.56a2,2,0,0,0,1.8,0l2.71-1.56a.63.63,0,0,0,.37-.52v.69a.64.64,0,0,1-.37.52l-2.71,1.56a2,2,0,0,1-1.8,0l-2.69-1.56a.63.63,0,0,1-.37-.52v-.69a.63.63,0,0,0,.11.31A.62.62,0,0,0,139.62,120.39Z" style="fill:#010014"/><path d="M135.54,125.86l-2.69-1.56a.62.62,0,0,1-.37-.52v.69a.63.63,0,0,0,.11.31.64.64,0,0,0,.26.21l2.69,1.56a2,2,0,0,0,1.8,0l2.71-1.56a.64.64,0,0,0,.37-.52v-.69a.64.64,0,0,1-.37.52l-2.71,1.56a2,2,0,0,1-1.8,0Z" style="fill:#010014"/><path d="M126.06,128.22l2.69,1.56a2,2,0,0,0,1.81,0l2.71-1.56a.64.64,0,0,0,.26-.21.63.63,0,0,0,.12-.31v.69a.64.64,0,0,1-.37.52l-2.71,1.56a2,2,0,0,1-1.8,0l-2.69-1.56a.63.63,0,0,1-.37-.52v-.69a.63.63,0,0,0,.37.52Z" style="fill:#010014"/><path d="M122,133.69l-2.69-1.56a.62.62,0,0,1-.37-.52v.69a.63.63,0,0,0,.11.31.64.64,0,0,0,.25.21l2.69,1.56a2,2,0,0,0,1.8,0l2.71-1.56a.64.64,0,0,0,.37-.52v-.69a.64.64,0,0,1-.37.52l-2.71,1.56a2,2,0,0,1-1.8,0Z" style="fill:#010014"/><path d="M112.5,136l2.69,1.56a2,2,0,0,0,1.8,0l2.71-1.56a.65.65,0,0,0,.26-.21.63.63,0,0,0,.12-.31v.69a.64.64,0,0,1-.37.52L117,138.3a2,2,0,0,1-1.8,0l-2.69-1.56a.64.64,0,0,1-.37-.52v-.69a.63.63,0,0,0,.11.31A.62.62,0,0,0,112.5,136Z" style="fill:#010014"/><path d="M108.42,141.52,105.72,140a.63.63,0,0,1-.26-.21.62.62,0,0,1-.11-.31v.69a.64.64,0,0,0,.12.31.63.63,0,0,0,.25.21l2.69,1.56a2,2,0,0,0,1.8,0l2.71-1.56a.63.63,0,0,0,.26-.21.64.64,0,0,0,.12-.31v-.69a.65.65,0,0,1-.12.31.64.64,0,0,1-.26.21l-2.71,1.56a2,2,0,0,1-1.8,0Z" style="fill:#010014"/><path d="M98.94,143.88l2.69,1.56a2,2,0,0,0,1.8,0l2.71-1.56a.64.64,0,0,0,.37-.52v.69a.64.64,0,0,1-.38.52l-2.71,1.56a2,2,0,0,1-1.8,0l-2.69-1.56a.63.63,0,0,1-.37-.52v-.69a.64.64,0,0,0,.11.31A.64.64,0,0,0,98.94,143.88Z" style="fill:#010014"/><path d="M99.75,147.95v-.69a.64.64,0,0,1-.12.31.63.63,0,0,1-.26.21l-2.71,1.56a2,2,0,0,1-1.8,0l-2.7-1.56a.63.63,0,0,1-.25-.21.64.64,0,0,1-.12-.31v.69a.63.63,0,0,0,.11.31.64.64,0,0,0,.25.21l2.7,1.56a2,2,0,0,0,1.8,0l2.71-1.56a.62.62,0,0,0,.37-.52Z" style="fill:#010014"/><path d="M88.08,154l-2.7-1.56a.63.63,0,0,1-.37-.52v-.69a.63.63,0,0,0,.11.31.64.64,0,0,0,.25.21l2.7,1.56a2,2,0,0,0,1.8,0l2.71-1.56a.64.64,0,0,0,.38-.52v.69a.63.63,0,0,1-.12.31.64.64,0,0,1-.26.21L89.89,154a2,2,0,0,1-1.8,0Z" style="fill:#010014"/><path d="M81.29,157.18l-2.7-1.56a.64.64,0,0,1-.25-.21.63.63,0,0,1-.11-.31v.69a.63.63,0,0,0,.37.52l2.7,1.56a2,2,0,0,0,1.8,0l2.71-1.56a.64.64,0,0,0,.37-.52v-.69a.63.63,0,0,1-.12.31.64.64,0,0,1-.26.21l-2.71,1.56a2,2,0,0,1-1.8,0Z" style="fill:#010014"/><path d="M180.69,109.35,178,110.9a2,2,0,0,1-1.8,0l-2.7-1.56a.63.63,0,0,1-.25-.21.65.65,0,0,1-.12-.31v-.69a.63.63,0,0,0,.37.52l2.69,1.56a2,2,0,0,0,1.8,0l2.71-1.56a.64.64,0,0,0,.37-.52v.69a.64.64,0,0,1-.12.31A.63.63,0,0,1,180.69,109.35Z" style="fill:#010014"/><path d="M173.91,112.57l-2.71,1.56a2,2,0,0,1-1.8,0l-2.7-1.56a.64.64,0,0,1-.25-.21.65.65,0,0,1-.12-.31v.69a.64.64,0,0,0,.12.31.63.63,0,0,0,.25.21l2.7,1.56a2,2,0,0,0,1.8,0l2.71-1.56a.64.64,0,0,0,.38-.52V112a.63.63,0,0,1-.12.31A.64.64,0,0,1,173.91,112.57Z" style="fill:#010014"/><path d="M167.14,117.17l-2.71,1.56a2,2,0,0,1-1.8,0l-2.7-1.56a.64.64,0,0,1-.25-.21.63.63,0,0,1-.11-.31V116a.63.63,0,0,0,.11.31.63.63,0,0,0,.25.21l2.7,1.56a2,2,0,0,0,1.8,0l2.71-1.56a.64.64,0,0,0,.37-.52v.69a.63.63,0,0,1-.38.52Z" style="fill:#010014"/><path d="M157.64,122.64l2.71-1.56a.64.64,0,0,0,.38-.52v-.69a.63.63,0,0,1-.12.31.63.63,0,0,1-.26.21l-2.71,1.56a2,2,0,0,1-1.8,0l-2.7-1.56a.63.63,0,0,1-.26-.21.64.64,0,0,1-.11-.31v.69a.64.64,0,0,0,.37.52l2.7,1.56a2,2,0,0,0,1.8,0Z" style="fill:#010014"/><path d="M153.57,125l-2.71,1.56a2,2,0,0,1-1.8,0L146.36,125a.64.64,0,0,1-.26-.21.62.62,0,0,1-.11-.31v-.69a.62.62,0,0,0,.11.31.63.63,0,0,0,.26.21l2.69,1.56a2,2,0,0,0,1.8,0l2.71-1.56a.63.63,0,0,0,.37-.52v.69a.64.64,0,0,1-.37.52Z" style="fill:#010014"/><path d="M144.08,130.47l2.71-1.56a.64.64,0,0,0,.26-.21.65.65,0,0,0,.12-.31v-.69a.63.63,0,0,1-.37.52l-2.71,1.56a2,2,0,0,1-1.8,0l-2.7-1.56a.63.63,0,0,1-.37-.52v.69a.63.63,0,0,0,.37.52l2.69,1.56a2,2,0,0,0,1.81,0Z" style="fill:#010014"/><path d="M140,132.82l-2.71,1.56a2,2,0,0,1-1.8,0l-2.69-1.56a.63.63,0,0,1-.37-.52v-.69a.62.62,0,0,0,.11.31.63.63,0,0,0,.25.21l2.7,1.56a2,2,0,0,0,1.8,0l2.71-1.56a.63.63,0,0,0,.37-.52v.69a.64.64,0,0,1-.12.31A.63.63,0,0,1,140,132.82Z" style="fill:#010014"/><path d="M130.52,138.3l2.71-1.56a.64.64,0,0,0,.37-.52v-.69a.63.63,0,0,1-.12.31.65.65,0,0,1-.26.21l-2.71,1.56a2,2,0,0,1-1.8,0L126,136a.63.63,0,0,1-.37-.52v.69a.63.63,0,0,0,.37.52l2.69,1.56a2,2,0,0,0,1.8,0Z" style="fill:#010014"/><path d="M126.45,140.65l-2.71,1.56a2,2,0,0,1-1.8,0l-2.69-1.56a.63.63,0,0,1-.37-.52v-.69a.63.63,0,0,0,.37.52l2.69,1.56a2,2,0,0,0,1.8,0l2.71-1.56a.64.64,0,0,0,.37-.52v.69a.63.63,0,0,1-.12.31A.62.62,0,0,1,126.45,140.65Z" style="fill:#010014"/><path d="M117,146.13l2.71-1.56a.64.64,0,0,0,.25-.21.63.63,0,0,0,.12-.31v-.69a.64.64,0,0,1-.12.31.63.63,0,0,1-.26.21L117,145.44a2,2,0,0,1-1.8,0l-2.69-1.56a.63.63,0,0,1-.37-.52V144a.63.63,0,0,0,.11.31.63.63,0,0,0,.25.21l2.69,1.56a2,2,0,0,0,1.8,0Z" style="fill:#010014"/><path d="M112.89,148.48,110.18,150a2,2,0,0,1-1.8,0l-2.69-1.56a.64.64,0,0,1-.37-.52v-.69a.63.63,0,0,0,.37.52l2.69,1.56a2,2,0,0,0,1.8,0l2.71-1.56a.64.64,0,0,0,.37-.52V148a.64.64,0,0,1-.37.52Z" style="fill:#010014"/><path d="M103.41,154l2.71-1.56a.63.63,0,0,0,.26-.21.62.62,0,0,0,.12-.31v-.69a.64.64,0,0,1-.37.52l-2.71,1.56a2,2,0,0,1-1.8,0l-2.69-1.56a.64.64,0,0,1-.25-.21.64.64,0,0,1-.11-.31v.69a.63.63,0,0,0,.11.31.63.63,0,0,0,.25.21l2.69,1.56a2,2,0,0,0,1.8,0Z" style="fill:#010014"/><path d="M99.33,156.31l-2.71,1.56a2,2,0,0,1-1.8,0l-2.7-1.56a.63.63,0,0,1-.37-.52v-.69a.64.64,0,0,0,.37.52l2.7,1.56a2,2,0,0,0,1.8,0l2.71-1.56a.64.64,0,0,0,.37-.52v.69a.62.62,0,0,1-.12.31A.62.62,0,0,1,99.33,156.31Z" style="fill:#010014"/><path d="M88,161.09l-2.7-1.56A.63.63,0,0,1,85,159v.69a.63.63,0,0,0,.37.52l2.7,1.54a2,2,0,0,0,1.8,0l2.71-1.56a.63.63,0,0,0,.37-.52V159a.63.63,0,0,1-.38.52l-2.71,1.56a2,2,0,0,1-1.8,0Z" style="fill:#010014"/><path d="M179.85,112.73V112a.62.62,0,0,0,.11.31.63.63,0,0,0,.26.21l2.69,1.56a2,2,0,0,0,1.8,0l2.71-1.56a.63.63,0,0,0,.26-.21.64.64,0,0,0,.12-.31v.68a.64.64,0,0,1-.37.52l-2.71,1.56a2,2,0,0,1-1.8,0l-2.7-1.56a.64.64,0,0,1-.25-.2A.63.63,0,0,1,179.85,112.73Z" style="fill:#010014"/><path d="M173.07,116v.69a.65.65,0,0,0,.11.31.64.64,0,0,0,.25.21l2.7,1.56a2,2,0,0,0,1.8,0l2.71-1.56a.64.64,0,0,0,.38-.52V116a.64.64,0,0,1-.12.31.64.64,0,0,1-.26.21L177.93,118a2,2,0,0,1-1.8,0l-2.69-1.56a.62.62,0,0,1-.37-.52Z" style="fill:#010014"/><path d="M166.29,120.56v-.69a.64.64,0,0,0,.37.52l2.7,1.56a2,2,0,0,0,1.8,0l2.71-1.56a.64.64,0,0,0,.37-.52v.69a.64.64,0,0,1-.12.31.64.64,0,0,1-.26.21l-2.71,1.56a2,2,0,0,1-1.8,0l-2.7-1.56a.64.64,0,0,1-.37-.52Z" style="fill:#010014"/><path d="M159.51,123.79v.69a.65.65,0,0,0,.12.31.63.63,0,0,0,.26.21l2.69,1.56a2,2,0,0,0,1.8,0l2.71-1.56a.63.63,0,0,0,.26-.21.62.62,0,0,0,.12-.31v-.69a.64.64,0,0,1-.37.52l-2.71,1.56a2,2,0,0,1-1.8,0l-2.7-1.56a.64.64,0,0,1-.37-.52Z" style="fill:#010014"/><path d="M152.73,128.39v-.69a.63.63,0,0,0,.11.31.64.64,0,0,0,.25.21l2.7,1.56a2,2,0,0,0,1.8,0l2.71-1.56a.62.62,0,0,0,.26-.21.63.63,0,0,0,.12-.31v.69a.64.64,0,0,1-.37.52l-2.71,1.56a2,2,0,0,1-1.8,0l-2.69-1.56a.63.63,0,0,1-.37-.52Z" style="fill:#010014"/><path d="M145.95,131.61v.69a.63.63,0,0,0,.37.52l2.7,1.56a2,2,0,0,0,1.8,0l2.71-1.56a.64.64,0,0,0,.26-.21.63.63,0,0,0,.12-.31v-.69a.64.64,0,0,1-.38.52l-2.71,1.56a2,2,0,0,1-1.8,0l-2.7-1.56a.63.63,0,0,1-.37-.52Z" style="fill:#010014"/><path d="M139.17,136.22v-.69a.63.63,0,0,0,.37.52l2.69,1.56a2,2,0,0,0,1.8,0l2.71-1.56a.63.63,0,0,0,.26-.21.61.61,0,0,0,.11-.31v.69a.64.64,0,0,1-.37.52L144,138.3a2,2,0,0,1-1.8,0l-2.69-1.56a.63.63,0,0,1-.37-.52Z" style="fill:#010014"/><path d="M132.39,139.44v.69a.62.62,0,0,0,.11.31.63.63,0,0,0,.26.21l2.69,1.56a2,2,0,0,0,1.8,0l2.71-1.56a.64.64,0,0,0,.37-.52v-.69a.64.64,0,0,1-.12.31.63.63,0,0,1-.26.21l-2.71,1.56a2,2,0,0,1-1.8,0L132.76,140a.63.63,0,0,1-.25-.21A.62.62,0,0,1,132.39,139.44Z" style="fill:#010014"/><path d="M125.61,144v-.69a.63.63,0,0,0,.37.52l2.69,1.56a2,2,0,0,0,1.82,0l2.71-1.56a.64.64,0,0,0,.37-.52v.69a.65.65,0,0,1-.12.31.64.64,0,0,1-.26.21l-2.71,1.56a2,2,0,0,1-1.8,0L126,144.57a.63.63,0,0,1-.26-.21A.64.64,0,0,1,125.61,144Z" style="fill:#010014"/><path d="M118.83,147.27V148a.62.62,0,0,0,.37.52l2.69,1.56a2,2,0,0,0,1.8,0l2.71-1.56a.62.62,0,0,0,.26-.21.63.63,0,0,0,.12-.31v-.69a.64.64,0,0,1-.37.52l-2.71,1.56a2,2,0,0,1-1.81,0l-2.69-1.56a.63.63,0,0,1-.37-.52Z" style="fill:#010014"/><path d="M112,151.88v-.69a.63.63,0,0,0,.11.31.64.64,0,0,0,.25.21l2.69,1.56a2,2,0,0,0,1.8,0l2.71-1.56a.64.64,0,0,0,.37-.52v.69a.64.64,0,0,1-.37.52L116.91,154a2,2,0,0,1-1.8,0l-2.69-1.56a.64.64,0,0,1-.25-.21A.64.64,0,0,1,112,151.88Z" style="fill:#010014"/><path d="M105.27,155.1v.69a.65.65,0,0,0,.11.31.64.64,0,0,0,.25.21l2.7,1.56a2,2,0,0,0,1.8,0l2.71-1.56a.64.64,0,0,0,.37-.52v-.69a.63.63,0,0,1-.12.31.65.65,0,0,1-.26.21l-2.71,1.56a2,2,0,0,1-1.8,0l-2.69-1.56a.64.64,0,0,1-.25-.21A.63.63,0,0,1,105.27,155.1Z" style="fill:#010014"/><path d="M98.49,159.72V159a.63.63,0,0,0,.37.52l2.7,1.56a2,2,0,0,0,1.8,0l2.71-1.56a.64.64,0,0,0,.37-.52v.69a.64.64,0,0,1-.38.52l-2.71,1.56a2,2,0,0,1-1.8,0l-2.7-1.56a.64.64,0,0,1-.25-.21A.63.63,0,0,1,98.49,159.72Z" style="fill:#010014"/><path d="M94.77,165l-2.7-1.56a.64.64,0,0,1-.37-.53v.69a.63.63,0,0,0,.37.52l2.7,1.56a2,2,0,0,0,1.8,0l2.71-1.56a.63.63,0,0,0,.38-.52v-.68a.64.64,0,0,1-.37.52L96.57,165a2,2,0,0,1-1.8,0Z" style="fill:#010014"/></g><path d="M164.5,102.37l2.71-1.56a.55.55,0,0,0,0-1l-2.69-1.56a2,2,0,0,0-1.8,0L160,99.78a.55.55,0,0,0,0,1l2.69,1.56a2,2,0,0,0,1.8,0Z" style="fill:#7066ff"/><path d="M157.72,106.29l2.71-1.56c.5-.29.5-.76,0-1l-2.69-1.56a2,2,0,0,0-1.8,0l-2.71,1.56a.55.55,0,0,0,0,1l2.7,1.56a2,2,0,0,0,1.8,0Z" style="fill:#7066ff"/><path d="M153.65,108.64l-2.71,1.56a2,2,0,0,1-1.8,0l-2.7-1.56a.55.55,0,0,1,0-1l2.71-1.56a2,2,0,0,1,1.8,0l2.69,1.56A.55.55,0,0,1,153.65,108.64Z" style="fill:#7066ff"/><path d="M144.17,114.12l2.71-1.56a.55.55,0,0,0,0-1L144.19,110a2,2,0,0,0-1.8,0l-2.71,1.56a.55.55,0,0,0,0,1l2.69,1.56a2,2,0,0,0,1.8,0Z" style="fill:#7066ff"/><path d="M140.1,116.47,137.38,118a2,2,0,0,1-1.8,0l-2.7-1.56a.55.55,0,0,1,0-1l2.71-1.56a2,2,0,0,1,1.8,0l2.7,1.56A.55.55,0,0,1,140.1,116.47Z" style="fill:#7066ff"/><path d="M130.6,121.95l2.71-1.56a.55.55,0,0,0,0-1l-2.69-1.56a2,2,0,0,0-1.8,0l-2.71,1.56a.55.55,0,0,0,0,1l2.69,1.56a2,2,0,0,0,1.8,0Z" style="fill:#7066ff"/><path d="M126.54,124.3l-2.71,1.56a2,2,0,0,1-1.8,0l-2.69-1.56a.55.55,0,0,1,0-1l2.71-1.56a2,2,0,0,1,1.8,0l2.69,1.56A.55.55,0,0,1,126.54,124.3Z" style="fill:#7066ff"/><path d="M117,129.77l2.71-1.56a.55.55,0,0,0,0-1l-2.7-1.56a2,2,0,0,0-1.8,0l-2.71,1.56a.55.55,0,0,0,0,1l2.69,1.56a2,2,0,0,0,1.8,0Z" style="fill:#7066ff"/><path d="M113,132.13l-2.71,1.56a2,2,0,0,1-1.8,0l-2.69-1.56a.55.55,0,0,1,0-1l2.71-1.56a2,2,0,0,1,1.8,0l2.69,1.56A.55.55,0,0,1,113,132.13Z" style="fill:#7066ff"/><path d="M103.49,137.6,106.2,136a.55.55,0,0,0,0-1l-2.69-1.56a2,2,0,0,0-1.8,0L99,135a.55.55,0,0,0,0,1l2.7,1.56a2,2,0,0,0,1.8,0Z" style="fill:#7066ff"/><path d="M99.42,140l-2.71,1.56a2,2,0,0,1-1.8,0L92.21,140a.55.55,0,0,1,0-1l2.71-1.56a2,2,0,0,1,1.8,0l2.69,1.56A.55.55,0,0,1,99.42,140Z" style="fill:#7066ff"/><path d="M89.93,145.44l2.71-1.56c.5-.29.5-.76,0-1l-2.69-1.56a2,2,0,0,0-1.8,0l-2.71,1.56a.55.55,0,0,0,0,1l2.7,1.56a2,2,0,0,0,1.8,0Z" style="fill:#7066ff"/><path d="M85.87,147.79l-2.71,1.56a2,2,0,0,1-1.8,0l-2.7-1.56a.55.55,0,0,1,0-1l2.71-1.56a2,2,0,0,1,1.8,0l2.69,1.54A.56.56,0,0,1,85.87,147.79Z" style="fill:#7066ff"/><path d="M74.59,149.1l-2.71,1.56a.55.55,0,0,0,0,1l2.7,1.56a2,2,0,0,0,1.8,0l2.71-1.56a.55.55,0,0,0,0-1l-2.69-1.56a2,2,0,0,0-1.8,0Z" style="fill:#7066ff"/><path d="M174,104.73l-2.71,1.56a2,2,0,0,1-1.8,0l-2.7-1.56a.55.55,0,0,1,0-1l2.71-1.56a2,2,0,0,1,1.8,0l2.69,1.56A.55.55,0,0,1,174,104.73Z" style="fill:#7066ff"/><path d="M162.68,106,160,107.6c-.5.29-.5.76,0,1l2.69,1.56a2,2,0,0,0,1.8,0l2.71-1.56a.55.55,0,0,0,0-1L164.48,106a2,2,0,0,0-1.8,0Z" style="fill:#7066ff"/><path d="M153.19,111.52,155.9,110a2,2,0,0,1,1.8,0l2.69,1.56a.55.55,0,0,1,0,1l-2.71,1.56a2,2,0,0,1-1.8,0l-2.7-1.56A.55.55,0,0,1,153.19,111.52Z" style="fill:#7066ff"/><path d="M149.12,113.87l-2.71,1.56a.55.55,0,0,0,0,1l2.7,1.56a2,2,0,0,0,1.8,0l2.71-1.56a.55.55,0,0,0,0-1l-2.69-1.56a2,2,0,0,0-1.8,0Z" style="fill:#7066ff"/><path d="M139.62,119.35l2.71-1.56a2,2,0,0,1,1.8,0l2.69,1.56a.55.55,0,0,1,0,1l-2.71,1.56a2,2,0,0,1-1.8,0l-2.69-1.56A.55.55,0,0,1,139.62,119.35Z" style="fill:#7066ff"/><path d="M135.56,121.7l-2.71,1.56a.55.55,0,0,0,0,1l2.7,1.56a2,2,0,0,0,1.8,0l2.71-1.56a.55.55,0,0,0,0-1l-2.7-1.56a2,2,0,0,0-1.8,0Z" style="fill:#7066ff"/><path d="M126.07,127.17l2.71-1.56a2,2,0,0,1,1.8,0l2.69,1.56a.55.55,0,0,1,0,1l-2.71,1.56a2,2,0,0,1-1.8,0l-2.69-1.56A.55.55,0,0,1,126.07,127.17Z" style="fill:#7066ff"/><path d="M122,129.53l-2.71,1.56a.55.55,0,0,0,0,1l2.69,1.56a2,2,0,0,0,1.8,0l2.71-1.56a.55.55,0,0,0,0-1l-2.69-1.56a2,2,0,0,0-1.8,0Z" style="fill:#7066ff"/><path d="M112.51,135l2.71-1.56a2,2,0,0,1,1.8,0l2.69,1.56a.55.55,0,0,1,0,1L117,137.6a2,2,0,0,1-1.8,0L112.51,136C112,135.76,112,135.29,112.51,135Z" style="fill:#7066ff"/><path d="M108.44,137.36l-2.71,1.56a.55.55,0,0,0,0,1l2.69,1.56a2,2,0,0,0,1.8,0l2.71-1.56a.55.55,0,0,0,0-1l-2.7-1.56a2,2,0,0,0-1.8,0Z" style="fill:#7066ff"/><path d="M99,142.84l2.71-1.56a2,2,0,0,1,1.8,0l2.69,1.56a.55.55,0,0,1,0,1l-2.71,1.56a2,2,0,0,1-1.8,0l-2.7-1.56C98.45,143.59,98.45,143.12,99,142.84Z" style="fill:#7066ff"/><path d="M96.66,149.35l2.71-1.56c.5-.27.5-.76,0-1.05l-2.7-1.54a2,2,0,0,0-1.8,0l-2.71,1.56a.55.55,0,0,0,0,1l2.7,1.56a2,2,0,0,0,1.8,0Z" style="fill:#7066ff"/><path d="M88.08,153.27l-2.7-1.56a.55.55,0,0,1,0-1l2.71-1.56a2,2,0,0,1,1.8,0l2.69,1.56a.55.55,0,0,1,0,1l-2.71,1.56a2,2,0,0,1-1.8,0Z" style="fill:#7066ff"/><path d="M81.31,153l-2.71,1.56a.55.55,0,0,0,0,1l2.7,1.56a2,2,0,0,0,1.8,0l2.71-1.56a.55.55,0,0,0,0-1L83.11,153a2,2,0,0,0-1.8,0Z" style="fill:#7066ff"/><path d="M180.69,108.65,178,110.21a2,2,0,0,1-1.8,0l-2.69-1.56a.55.55,0,0,1,0-1l2.71-1.56a2,2,0,0,1,1.8,0l2.7,1.56A.55.55,0,0,1,180.69,108.65Z" style="fill:#7066ff"/><path d="M173.91,111.51l-2.7-1.56a2,2,0,0,0-1.8,0l-2.71,1.56a.55.55,0,0,0,0,1l2.7,1.56a2,2,0,0,0,1.8,0l2.71-1.56A.55.55,0,0,0,173.91,111.51Z" style="fill:#7066ff"/><path d="M167.14,116.47,164.42,118a2,2,0,0,1-1.8,0l-2.69-1.56a.55.55,0,0,1,0-1l2.71-1.56a2,2,0,0,1,1.8,0l2.69,1.56A.55.55,0,0,1,167.14,116.47Z" style="fill:#7066ff"/><path d="M157.63,121.95l2.71-1.56a.55.55,0,0,0,0-1l-2.69-1.56a2,2,0,0,0-1.8,0l-2.71,1.56a.55.55,0,0,0,0,1l2.7,1.56a2,2,0,0,0,1.8,0Z" style="fill:#7066ff"/><path d="M153.57,124.3l-2.71,1.56a2,2,0,0,1-1.8,0l-2.69-1.56a.55.55,0,0,1,0-1l2.71-1.56a2,2,0,0,1,1.8,0l2.69,1.56C154.07,123.55,154.06,124,153.57,124.3Z" style="fill:#7066ff"/><path d="M144.08,129.77l2.71-1.56a.55.55,0,0,0,0-1l-2.69-1.56a2,2,0,0,0-1.8,0l-2.71,1.56a.55.55,0,0,0,0,1l2.7,1.56a2,2,0,0,0,1.8,0Z" style="fill:#7066ff"/><path d="M140,132.13l-2.71,1.56a2,2,0,0,1-1.8,0l-2.7-1.56a.55.55,0,0,1,0-1l2.71-1.56a2,2,0,0,1,1.8,0l2.7,1.56C140.51,131.37,140.51,131.84,140,132.13Z" style="fill:#7066ff"/><path d="M130.52,137.6l2.71-1.56a.55.55,0,0,0,0-1l-2.7-1.56a2,2,0,0,0-1.8,0L126,135a.55.55,0,0,0,0,1l2.69,1.56a2,2,0,0,0,1.8,0Z" style="fill:#7066ff"/><path d="M126.45,140l-2.71,1.56a2,2,0,0,1-1.8,0L119.24,140a.55.55,0,0,1,0-1l2.71-1.56a2,2,0,0,1,1.8,0l2.69,1.56A.55.55,0,0,1,126.45,140Z" style="fill:#7066ff"/><path d="M117,145.44l2.71-1.56c.5-.29.5-.76,0-1L117,141.28a2,2,0,0,0-1.8,0l-2.71,1.56a.55.55,0,0,0,0,1l2.69,1.56a2,2,0,0,0,1.8,0Z" style="fill:#7066ff"/><path d="M112.89,147.79l-2.71,1.56a2,2,0,0,1-1.8,0l-2.69-1.56a.55.55,0,0,1,0-1l2.71-1.56a2,2,0,0,1,1.8,0l2.69,1.56A.55.55,0,0,1,112.89,147.79Z" style="fill:#7066ff"/><path d="M103.41,153.26l2.71-1.56a.55.55,0,0,0,0-1l-2.7-1.56a2,2,0,0,0-1.8,0l-2.71,1.56a.55.55,0,0,0,0,1l2.7,1.56a2,2,0,0,0,1.8,0Z" style="fill:#7066ff"/><path d="M99.33,155.62l-2.71,1.56a2,2,0,0,1-1.8,0l-2.7-1.56a.55.55,0,0,1,0-1L94.83,153a2,2,0,0,1,1.8,0l2.7,1.56A.55.55,0,0,1,99.33,155.62Z" style="fill:#7066ff"/><path d="M88.06,156.93l-2.71,1.56c-.5.29-.5.76,0,1l2.7,1.56a2,2,0,0,0,1.8,0l2.71-1.56a.55.55,0,0,0,0-1l-2.69-1.56a2,2,0,0,0-1.8,0Z" style="fill:#7066ff"/><path d="M180.22,111.52l2.71-1.56a2,2,0,0,1,1.8,0l2.7,1.56a.55.55,0,0,1,0,1l-2.71,1.56a2,2,0,0,1-1.8,0l-2.69-1.56A.55.55,0,0,1,180.22,111.52Z" style="fill:#7066ff"/><path d="M176.15,113.87l-2.71,1.56a.55.55,0,0,0,0,1l2.69,1.56a2,2,0,0,0,1.8,0l2.71-1.56a.55.55,0,0,0,0-1l-2.7-1.56a2,2,0,0,0-1.8,0Z" style="fill:#7066ff"/><path d="M166.66,119.35l2.71-1.56a2,2,0,0,1,1.8,0l2.69,1.56a.55.55,0,0,1,0,1l-2.71,1.56a2,2,0,0,1-1.8,0l-2.7-1.56C166.16,120.1,166.16,119.63,166.66,119.35Z" style="fill:#7066ff"/><path d="M162.58,121.7l-2.71,1.56a.55.55,0,0,0,0,1l2.69,1.56a2,2,0,0,0,1.8,0l2.71-1.56a.55.55,0,0,0,0-1l-2.69-1.56a2,2,0,0,0-1.8,0Z" style="fill:#7066ff"/><path d="M153.1,127.17l2.71-1.56a2,2,0,0,1,1.8,0l2.69,1.56a.55.55,0,0,1,0,1l-2.71,1.56a2,2,0,0,1-1.8,0l-2.7-1.56A.55.55,0,0,1,153.1,127.17Z" style="fill:#7066ff"/><path d="M149,129.53l-2.71,1.56a.55.55,0,0,0,0,1l2.7,1.56a2,2,0,0,0,1.8,0l2.71-1.56a.55.55,0,0,0,0-1l-2.69-1.56a2,2,0,0,0-1.8,0Z" style="fill:#7066ff"/><path d="M139.54,135l2.71-1.56a2,2,0,0,1,1.8,0l2.69,1.56a.55.55,0,0,1,0,1L144,137.6a2,2,0,0,1-1.8,0l-2.7-1.56C139,135.76,139,135.29,139.54,135Z" style="fill:#7066ff"/><path d="M135.47,137.36l-2.71,1.56a.55.55,0,0,0,0,1l2.7,1.56a2,2,0,0,0,1.8,0L140,140a.55.55,0,0,0,0-1l-2.7-1.56a2,2,0,0,0-1.8,0Z" style="fill:#7066ff"/><path d="M126,142.84l2.71-1.56a2,2,0,0,1,1.8,0l2.7,1.56a.55.55,0,0,1,0,1l-2.71,1.56a2,2,0,0,1-1.82,0L126,143.88A.55.55,0,0,1,126,142.84Z" style="fill:#7066ff"/><path d="M121.91,145.18l-2.71,1.56c-.5.3-.5.78,0,1l2.69,1.56a2,2,0,0,0,1.8,0l2.71-1.56a.55.55,0,0,0,0-1l-2.69-1.56a2,2,0,0,0-1.8,0Z" style="fill:#7066ff"/><path d="M112.42,150.66l2.71-1.56a2,2,0,0,1,1.8,0l2.69,1.56a.55.55,0,0,1,0,1l-2.71,1.56a2,2,0,0,1-1.8,0l-2.69-1.56A.55.55,0,0,1,112.42,150.66Z" style="fill:#7066ff"/><path d="M108.35,153l-2.71,1.56a.55.55,0,0,0,0,1l2.69,1.56a2,2,0,0,0,1.8,0l2.71-1.56a.55.55,0,0,0,0-1L110.15,153a2,2,0,0,0-1.8,0Z" style="fill:#7066ff"/><path d="M98.85,158.49l2.71-1.56a2,2,0,0,1,1.8,0l2.69,1.56a.55.55,0,0,1,0,1l-2.71,1.56a2,2,0,0,1-1.8,0l-2.7-1.56A.55.55,0,0,1,98.85,158.49Z" style="fill:#7066ff"/><path d="M94.79,160.84l-2.71,1.56a.55.55,0,0,0,0,1l2.7,1.56a2,2,0,0,0,1.8,0l2.71-1.56a.55.55,0,0,0,0-1l-2.7-1.56a2,2,0,0,0-1.8,0Z" style="fill:#7066ff"/><g style="opacity:0.4000000059604645"><path d="M164.5,102.37l2.71-1.56a.55.55,0,0,0,0-1l-2.69-1.56a2,2,0,0,0-1.8,0L160,99.78a.55.55,0,0,0,0,1l2.69,1.56a2,2,0,0,0,1.8,0Z" style="fill:#010014"/><path d="M157.72,106.29l2.71-1.56c.5-.29.5-.76,0-1l-2.69-1.56a2,2,0,0,0-1.8,0l-2.71,1.56a.55.55,0,0,0,0,1l2.7,1.56a2,2,0,0,0,1.8,0Z" style="fill:#010014"/><path d="M153.65,108.64l-2.71,1.56a2,2,0,0,1-1.8,0l-2.7-1.56a.55.55,0,0,1,0-1l2.71-1.56a2,2,0,0,1,1.8,0l2.69,1.56A.55.55,0,0,1,153.65,108.64Z" style="fill:#010014"/><path d="M144.17,114.12l2.71-1.56a.55.55,0,0,0,0-1L144.19,110a2,2,0,0,0-1.8,0l-2.71,1.56a.55.55,0,0,0,0,1l2.69,1.56a2,2,0,0,0,1.8,0Z" style="fill:#010014"/><path d="M140.1,116.47,137.38,118a2,2,0,0,1-1.8,0l-2.7-1.56a.55.55,0,0,1,0-1l2.71-1.56a2,2,0,0,1,1.8,0l2.7,1.56A.55.55,0,0,1,140.1,116.47Z" style="fill:#010014"/><path d="M130.6,121.95l2.71-1.56a.55.55,0,0,0,0-1l-2.69-1.56a2,2,0,0,0-1.8,0l-2.71,1.56a.55.55,0,0,0,0,1l2.69,1.56a2,2,0,0,0,1.8,0Z" style="fill:#010014"/><path d="M126.54,124.3l-2.71,1.56a2,2,0,0,1-1.8,0l-2.69-1.56a.55.55,0,0,1,0-1l2.71-1.56a2,2,0,0,1,1.8,0l2.69,1.56A.55.55,0,0,1,126.54,124.3Z" style="fill:#010014"/><path d="M117,129.77l2.71-1.56a.55.55,0,0,0,0-1l-2.7-1.56a2,2,0,0,0-1.8,0l-2.71,1.56a.55.55,0,0,0,0,1l2.69,1.56a2,2,0,0,0,1.8,0Z" style="fill:#010014"/><path d="M113,132.13l-2.71,1.56a2,2,0,0,1-1.8,0l-2.69-1.56a.55.55,0,0,1,0-1l2.71-1.56a2,2,0,0,1,1.8,0l2.69,1.56A.55.55,0,0,1,113,132.13Z" style="fill:#010014"/><path d="M103.49,137.6,106.2,136a.55.55,0,0,0,0-1l-2.69-1.56a2,2,0,0,0-1.8,0L99,135a.55.55,0,0,0,0,1l2.7,1.56a2,2,0,0,0,1.8,0Z" style="fill:#010014"/><path d="M99.42,140l-2.71,1.56a2,2,0,0,1-1.8,0L92.21,140a.55.55,0,0,1,0-1l2.71-1.56a2,2,0,0,1,1.8,0l2.69,1.56A.55.55,0,0,1,99.42,140Z" style="fill:#010014"/><path d="M89.93,145.44l2.71-1.56c.5-.29.5-.76,0-1l-2.69-1.56a2,2,0,0,0-1.8,0l-2.71,1.56a.55.55,0,0,0,0,1l2.7,1.56a2,2,0,0,0,1.8,0Z" style="fill:#010014"/><path d="M85.87,147.79l-2.71,1.56a2,2,0,0,1-1.8,0l-2.7-1.56a.55.55,0,0,1,0-1l2.71-1.56a2,2,0,0,1,1.8,0l2.69,1.54A.56.56,0,0,1,85.87,147.79Z" style="fill:#010014"/><path d="M74.59,149.1l-2.71,1.56a.55.55,0,0,0,0,1l2.7,1.56a2,2,0,0,0,1.8,0l2.71-1.56a.55.55,0,0,0,0-1l-2.69-1.56a2,2,0,0,0-1.8,0Z" style="fill:#010014"/><path d="M174,104.73l-2.71,1.56a2,2,0,0,1-1.8,0l-2.7-1.56a.55.55,0,0,1,0-1l2.71-1.56a2,2,0,0,1,1.8,0l2.69,1.56A.55.55,0,0,1,174,104.73Z" style="fill:#010014"/><path d="M162.68,106,160,107.6c-.5.29-.5.76,0,1l2.69,1.56a2,2,0,0,0,1.8,0l2.71-1.56a.55.55,0,0,0,0-1L164.48,106a2,2,0,0,0-1.8,0Z" style="fill:#010014"/><path d="M153.19,111.52,155.9,110a2,2,0,0,1,1.8,0l2.69,1.56a.55.55,0,0,1,0,1l-2.71,1.56a2,2,0,0,1-1.8,0l-2.7-1.56A.55.55,0,0,1,153.19,111.52Z" style="fill:#010014"/><path d="M149.12,113.87l-2.71,1.56a.55.55,0,0,0,0,1l2.7,1.56a2,2,0,0,0,1.8,0l2.71-1.56a.55.55,0,0,0,0-1l-2.69-1.56a2,2,0,0,0-1.8,0Z" style="fill:#010014"/><path d="M139.62,119.35l2.71-1.56a2,2,0,0,1,1.8,0l2.69,1.56a.55.55,0,0,1,0,1l-2.71,1.56a2,2,0,0,1-1.8,0l-2.69-1.56A.55.55,0,0,1,139.62,119.35Z" style="fill:#010014"/><path d="M135.56,121.7l-2.71,1.56a.55.55,0,0,0,0,1l2.7,1.56a2,2,0,0,0,1.8,0l2.71-1.56a.55.55,0,0,0,0-1l-2.7-1.56a2,2,0,0,0-1.8,0Z" style="fill:#010014"/><path d="M126.07,127.17l2.71-1.56a2,2,0,0,1,1.8,0l2.69,1.56a.55.55,0,0,1,0,1l-2.71,1.56a2,2,0,0,1-1.8,0l-2.69-1.56A.55.55,0,0,1,126.07,127.17Z" style="fill:#010014"/><path d="M122,129.53l-2.71,1.56a.55.55,0,0,0,0,1l2.69,1.56a2,2,0,0,0,1.8,0l2.71-1.56a.55.55,0,0,0,0-1l-2.69-1.56a2,2,0,0,0-1.8,0Z" style="fill:#010014"/><path d="M112.51,135l2.71-1.56a2,2,0,0,1,1.8,0l2.69,1.56a.55.55,0,0,1,0,1L117,137.6a2,2,0,0,1-1.8,0L112.51,136C112,135.76,112,135.29,112.51,135Z" style="fill:#010014"/><path d="M108.44,137.36l-2.71,1.56a.55.55,0,0,0,0,1l2.69,1.56a2,2,0,0,0,1.8,0l2.71-1.56a.55.55,0,0,0,0-1l-2.7-1.56a2,2,0,0,0-1.8,0Z" style="fill:#010014"/><path d="M99,142.84l2.71-1.56a2,2,0,0,1,1.8,0l2.69,1.56a.55.55,0,0,1,0,1l-2.71,1.56a2,2,0,0,1-1.8,0l-2.7-1.56C98.45,143.59,98.45,143.12,99,142.84Z" style="fill:#010014"/><path d="M96.66,149.35l2.71-1.56c.5-.27.5-.76,0-1.05l-2.7-1.54a2,2,0,0,0-1.8,0l-2.71,1.56a.55.55,0,0,0,0,1l2.7,1.56a2,2,0,0,0,1.8,0Z" style="fill:#010014"/><path d="M88.08,153.27l-2.7-1.56a.55.55,0,0,1,0-1l2.71-1.56a2,2,0,0,1,1.8,0l2.69,1.56a.55.55,0,0,1,0,1l-2.71,1.56a2,2,0,0,1-1.8,0Z" style="fill:#010014"/><path d="M81.31,153l-2.71,1.56a.55.55,0,0,0,0,1l2.7,1.56a2,2,0,0,0,1.8,0l2.71-1.56a.55.55,0,0,0,0-1L83.11,153a2,2,0,0,0-1.8,0Z" style="fill:#010014"/><path d="M180.69,108.65,178,110.21a2,2,0,0,1-1.8,0l-2.69-1.56a.55.55,0,0,1,0-1l2.71-1.56a2,2,0,0,1,1.8,0l2.7,1.56A.55.55,0,0,1,180.69,108.65Z" style="fill:#010014"/><path d="M173.91,111.51l-2.7-1.56a2,2,0,0,0-1.8,0l-2.71,1.56a.55.55,0,0,0,0,1l2.7,1.56a2,2,0,0,0,1.8,0l2.71-1.56A.55.55,0,0,0,173.91,111.51Z" style="fill:#010014"/><path d="M167.14,116.47,164.42,118a2,2,0,0,1-1.8,0l-2.69-1.56a.55.55,0,0,1,0-1l2.71-1.56a2,2,0,0,1,1.8,0l2.69,1.56A.55.55,0,0,1,167.14,116.47Z" style="fill:#010014"/><path d="M157.63,121.95l2.71-1.56a.55.55,0,0,0,0-1l-2.69-1.56a2,2,0,0,0-1.8,0l-2.71,1.56a.55.55,0,0,0,0,1l2.7,1.56a2,2,0,0,0,1.8,0Z" style="fill:#010014"/><path d="M153.57,124.3l-2.71,1.56a2,2,0,0,1-1.8,0l-2.69-1.56a.55.55,0,0,1,0-1l2.71-1.56a2,2,0,0,1,1.8,0l2.69,1.56C154.07,123.55,154.06,124,153.57,124.3Z" style="fill:#010014"/><path d="M144.08,129.77l2.71-1.56a.55.55,0,0,0,0-1l-2.69-1.56a2,2,0,0,0-1.8,0l-2.71,1.56a.55.55,0,0,0,0,1l2.7,1.56a2,2,0,0,0,1.8,0Z" style="fill:#010014"/><path d="M140,132.13l-2.71,1.56a2,2,0,0,1-1.8,0l-2.7-1.56a.55.55,0,0,1,0-1l2.71-1.56a2,2,0,0,1,1.8,0l2.7,1.56C140.51,131.37,140.51,131.84,140,132.13Z" style="fill:#010014"/><path d="M130.52,137.6l2.71-1.56a.55.55,0,0,0,0-1l-2.7-1.56a2,2,0,0,0-1.8,0L126,135a.55.55,0,0,0,0,1l2.69,1.56a2,2,0,0,0,1.8,0Z" style="fill:#010014"/><path d="M126.45,140l-2.71,1.56a2,2,0,0,1-1.8,0L119.24,140a.55.55,0,0,1,0-1l2.71-1.56a2,2,0,0,1,1.8,0l2.69,1.56A.55.55,0,0,1,126.45,140Z" style="fill:#010014"/><path d="M117,145.44l2.71-1.56c.5-.29.5-.76,0-1l-2.7-1.56a2,2,0,0,0-1.8,0l-2.71,1.56a.55.55,0,0,0,0,1l2.69,1.56a2,2,0,0,0,1.8,0Z" style="fill:#010014"/><path d="M112.89,147.79l-2.71,1.56a2,2,0,0,1-1.8,0l-2.69-1.56a.55.55,0,0,1,0-1l2.71-1.56a2,2,0,0,1,1.8,0l2.69,1.56A.55.55,0,0,1,112.89,147.79Z" style="fill:#010014"/><path d="M103.41,153.26l2.71-1.56a.55.55,0,0,0,0-1l-2.7-1.56a2,2,0,0,0-1.8,0l-2.71,1.56a.55.55,0,0,0,0,1l2.7,1.56a2,2,0,0,0,1.8,0Z" style="fill:#010014"/><path d="M99.33,155.62l-2.71,1.56a2,2,0,0,1-1.8,0l-2.7-1.56a.55.55,0,0,1,0-1L94.83,153a2,2,0,0,1,1.8,0l2.7,1.56A.55.55,0,0,1,99.33,155.62Z" style="fill:#010014"/><path d="M88.06,156.93l-2.71,1.56c-.5.29-.5.76,0,1l2.7,1.56a2,2,0,0,0,1.8,0l2.71-1.56a.55.55,0,0,0,0-1l-2.69-1.56a2,2,0,0,0-1.8,0Z" style="fill:#010014"/><path d="M180.22,111.52l2.71-1.56a2,2,0,0,1,1.8,0l2.7,1.56a.55.55,0,0,1,0,1l-2.71,1.56a2,2,0,0,1-1.8,0l-2.69-1.56A.55.55,0,0,1,180.22,111.52Z" style="fill:#010014"/><path d="M176.15,113.87l-2.71,1.56a.55.55,0,0,0,0,1l2.69,1.56a2,2,0,0,0,1.8,0l2.71-1.56a.55.55,0,0,0,0-1l-2.7-1.56a2,2,0,0,0-1.8,0Z" style="fill:#010014"/><path d="M166.66,119.35l2.71-1.56a2,2,0,0,1,1.8,0l2.69,1.56a.55.55,0,0,1,0,1l-2.71,1.56a2,2,0,0,1-1.8,0l-2.7-1.56C166.16,120.1,166.16,119.63,166.66,119.35Z" style="fill:#010014"/><path d="M162.58,121.7l-2.71,1.56a.55.55,0,0,0,0,1l2.69,1.56a2,2,0,0,0,1.8,0l2.71-1.56a.55.55,0,0,0,0-1l-2.69-1.56a2,2,0,0,0-1.8,0Z" style="fill:#010014"/><path d="M153.1,127.17l2.71-1.56a2,2,0,0,1,1.8,0l2.69,1.56a.55.55,0,0,1,0,1l-2.71,1.56a2,2,0,0,1-1.8,0l-2.7-1.56A.55.55,0,0,1,153.1,127.17Z" style="fill:#010014"/><path d="M149,129.53l-2.71,1.56a.55.55,0,0,0,0,1l2.7,1.56a2,2,0,0,0,1.8,0l2.71-1.56a.55.55,0,0,0,0-1l-2.69-1.56a2,2,0,0,0-1.8,0Z" style="fill:#010014"/><path d="M139.54,135l2.71-1.56a2,2,0,0,1,1.8,0l2.69,1.56a.55.55,0,0,1,0,1L144,137.6a2,2,0,0,1-1.8,0l-2.7-1.56C139,135.76,139,135.29,139.54,135Z" style="fill:#010014"/><path d="M135.47,137.36l-2.71,1.56a.55.55,0,0,0,0,1l2.7,1.56a2,2,0,0,0,1.8,0L140,140a.55.55,0,0,0,0-1l-2.7-1.56a2,2,0,0,0-1.8,0Z" style="fill:#010014"/><path d="M126,142.84l2.71-1.56a2,2,0,0,1,1.8,0l2.7,1.56a.55.55,0,0,1,0,1l-2.71,1.56a2,2,0,0,1-1.82,0L126,143.88A.55.55,0,0,1,126,142.84Z" style="fill:#010014"/><path d="M121.91,145.18l-2.71,1.56c-.5.3-.5.78,0,1l2.69,1.56a2,2,0,0,0,1.8,0l2.71-1.56a.55.55,0,0,0,0-1l-2.69-1.56a2,2,0,0,0-1.8,0Z" style="fill:#010014"/><path d="M112.42,150.66l2.71-1.56a2,2,0,0,1,1.8,0l2.69,1.56a.55.55,0,0,1,0,1l-2.71,1.56a2,2,0,0,1-1.8,0l-2.69-1.56A.55.55,0,0,1,112.42,150.66Z" style="fill:#010014"/><path d="M108.35,153l-2.71,1.56a.55.55,0,0,0,0,1l2.69,1.56a2,2,0,0,0,1.8,0l2.71-1.56a.55.55,0,0,0,0-1L110.15,153a2,2,0,0,0-1.8,0Z" style="fill:#010014"/><path d="M98.85,158.49l2.71-1.56a2,2,0,0,1,1.8,0l2.69,1.56a.55.55,0,0,1,0,1l-2.71,1.56a2,2,0,0,1-1.8,0l-2.7-1.56A.55.55,0,0,1,98.85,158.49Z" style="fill:#010014"/><path d="M94.79,160.84l-2.71,1.56a.55.55,0,0,0,0,1l2.7,1.56a2,2,0,0,0,1.8,0l2.71-1.56a.55.55,0,0,0,0-1l-2.7-1.56a2,2,0,0,0-1.8,0Z" style="fill:#010014"/></g><path d="M148,67.57a1.57,1.57,0,0,0-1.58.16L70,111.84a4.86,4.86,0,0,0-2.21,3.82,1.55,1.55,0,0,0,.64,1.43l1.31.76a1.55,1.55,0,0,1-.64-1.42,4.88,4.88,0,0,1,2.21-3.83l76.41-44.11a1.58,1.58,0,0,1,1.58-.15Z" style="fill:#7066ff"/><path d="M68.44,106.41l1.3.76a1.56,1.56,0,0,1-.64-1.42,4.87,4.87,0,0,1,2.21-3.83L131.79,67a1.58,1.58,0,0,1,1.58-.16l-1.31-.76a1.57,1.57,0,0,0-1.58.16L70,101.16A4.87,4.87,0,0,0,67.79,105a1.55,1.55,0,0,0,.65,1.42Z" style="fill:#7066ff"/><path d="M68.41,95.71l1.31.76A1.55,1.55,0,0,1,69.07,95a4.87,4.87,0,0,1,2.21-3.83l49.41-28.52a1.55,1.55,0,0,1,1.58-.15L121,61.78a1.56,1.56,0,0,0-1.58.15L70,90.48a4.86,4.86,0,0,0-2.21,3.82,1.55,1.55,0,0,0,.64,1.41Z" style="fill:#7066ff"/><path d="M68.38,85l1.31.76A1.56,1.56,0,0,1,69,84.37a4.87,4.87,0,0,1,2.21-3.83L138,42a1.57,1.57,0,0,1,1.58-.16l-1.31-.76a1.57,1.57,0,0,0-1.58.16L70,79.79a4.86,4.86,0,0,0-2.21,3.83A1.55,1.55,0,0,0,68.38,85Z" style="fill:#7066ff"/><path d="M148,67.57a1.57,1.57,0,0,0-1.58.16L70,111.84a4.86,4.86,0,0,0-2.21,3.82,1.55,1.55,0,0,0,.64,1.43l1.31.76a1.55,1.55,0,0,1-.64-1.42,4.88,4.88,0,0,1,2.21-3.83l76.41-44.11a1.58,1.58,0,0,1,1.58-.15Z" style="fill:#010014;opacity:0.15000000596046448;isolation:isolate"/><path d="M68.44,106.41l1.3.76a1.56,1.56,0,0,1-.64-1.42,4.87,4.87,0,0,1,2.21-3.83L131.79,67a1.58,1.58,0,0,1,1.58-.16l-1.31-.76a1.57,1.57,0,0,0-1.58.16L70,101.16A4.87,4.87,0,0,0,67.79,105a1.55,1.55,0,0,0,.65,1.42Z" style="fill:#010014;opacity:0.15000000596046448;isolation:isolate"/><path d="M68.41,95.71l1.31.76A1.55,1.55,0,0,1,69.07,95a4.87,4.87,0,0,1,2.21-3.83l49.41-28.52a1.55,1.55,0,0,1,1.58-.15L121,61.78a1.56,1.56,0,0,0-1.58.15L70,90.48a4.86,4.86,0,0,0-2.21,3.82,1.55,1.55,0,0,0,.64,1.41Z" style="fill:#010014;opacity:0.15000000596046448;isolation:isolate"/><path d="M68.38,85l1.31.76A1.56,1.56,0,0,1,69,84.37a4.87,4.87,0,0,1,2.21-3.83L138,42a1.57,1.57,0,0,1,1.58-.16l-1.31-.76a1.57,1.57,0,0,0-1.58.16L70,79.79a4.86,4.86,0,0,0-2.21,3.83A1.55,1.55,0,0,0,68.38,85Z" style="fill:#010014;opacity:0.15000000596046448;isolation:isolate"/><path d="M147.75,68.49,71.34,112.6a4.87,4.87,0,0,0-2.21,3.83c0,1.39,1,2,2.22,1.27l76.41-44.11A4.87,4.87,0,0,0,150,69.75C150,68.33,149,67.78,147.75,68.49Z" style="fill:#7066ff"/><path d="M71.34,107,131.82,72.1A4.87,4.87,0,0,0,134,68.27c0-1.39-1-2-2.23-1.27L71.31,101.92a4.87,4.87,0,0,0-2.21,3.83C69.11,107.15,70.1,107.72,71.34,107Z" style="fill:#7066ff"/><path d="M71.3,96.33,120.71,67.8A4.86,4.86,0,0,0,122.91,64c0-1.39-1-2-2.22-1.27L71.28,91.23a4.87,4.87,0,0,0-2.21,3.83C69.08,96.47,70.07,97,71.3,96.33Z" style="fill:#7066ff"/><path d="M71.27,85.65,138,47.09a4.89,4.89,0,0,0,2.21-3.83c0-1.39-1-2-2.23-1.27L71.25,80.55A4.87,4.87,0,0,0,69,84.38C69,85.78,70,86.35,71.27,85.65Z" style="fill:#7066ff"/><path d="M147.75,68.49,71.34,112.6a4.87,4.87,0,0,0-2.21,3.83c0,1.39,1,2,2.22,1.27l76.41-44.11A4.87,4.87,0,0,0,150,69.75C150,68.33,149,67.78,147.75,68.49Z" style="fill:#7066ff"/><path d="M71.34,107,131.82,72.1A4.87,4.87,0,0,0,134,68.27c0-1.39-1-2-2.23-1.27L71.31,101.92a4.87,4.87,0,0,0-2.21,3.83C69.11,107.15,70.1,107.72,71.34,107Z" style="fill:#7066ff"/><path d="M71.3,96.33,120.71,67.8A4.86,4.86,0,0,0,122.91,64c0-1.39-1-2-2.22-1.27L71.28,91.23a4.87,4.87,0,0,0-2.21,3.83C69.08,96.47,70.07,97,71.3,96.33Z" style="fill:#7066ff"/><path d="M71.27,85.65,138,47.09a4.89,4.89,0,0,0,2.21-3.83c0-1.39-1-2-2.23-1.27L71.25,80.55A4.87,4.87,0,0,0,69,84.38C69,85.78,70,86.35,71.27,85.65Z" style="fill:#7066ff"/><path d="M24.71,96.5l-3.12,1.8-6.5-3.77V90.13l6.49,3.78,3.12-1.8a3.24,3.24,0,0,1,3,0L42,100.42a15.09,15.09,0,0,0,6.05,1.8l2.29.21.36,1.33a6.32,6.32,0,0,0,3.09,3.51L68.1,115.6a1.08,1.08,0,0,1,.65.89v4.41a1.08,1.08,0,0,0-.65-.89l-14.31-8.33a6.32,6.32,0,0,1-3.09-3.51l-.36-1.33L48,106.62a15.14,15.14,0,0,1-6.05-1.8L27.67,96.5a3.27,3.27,0,0,0-3,0Zm50.37,24.29c2.37-1.37,3.54-2.87,3.54-4.36v4.41c0,1.5-1.18,3-3.54,4.36l-3.63,2.09L65,123.54v-4.41l6.45,3.75ZM10.55,104.68l3.12-1.8V98.47l-3.12,1.8a1,1,0,0,0-.62.86v4.41a1.05,1.05,0,0,1,.19-.51A1,1,0,0,1,10.55,104.68Zm41.86,26.91a14.8,14.8,0,0,0,7.49-2l3.63-2.1v4.41L59.9,134a14.8,14.8,0,0,1-15,0l-14.83-8.62A2.69,2.69,0,0,0,29,125l-5.55-.56c-1.88-.21-3.3-1-3.66-2.13l-.95-3.22a1.24,1.24,0,0,0-.56-.62L3.47,109.87C1.17,108.53,0,107,0,105.55v-4.4c0,1.5,1.17,3,3.47,4.32l14.83,8.61a1.24,1.24,0,0,1,.55.62l1,3.22c.35,1.09,1.77,1.92,3.66,2.12l5.54.56a2.69,2.69,0,0,1,1.08.32l14.83,8.62A14.8,14.8,0,0,0,52.41,131.59Z" style="fill:#7066ff"/><path d="M24.71,96.5l-3.12,1.8-6.5-3.77V90.13l6.49,3.78,3.12-1.8a3.24,3.24,0,0,1,3,0L42,100.42a15.09,15.09,0,0,0,6.05,1.8l2.29.21.36,1.33a6.32,6.32,0,0,0,3.09,3.51L68.1,115.6a1.08,1.08,0,0,1,.65.89v4.41a1.08,1.08,0,0,0-.65-.89l-14.31-8.33a6.32,6.32,0,0,1-3.09-3.51l-.36-1.33L48,106.62a15.14,15.14,0,0,1-6.05-1.8L27.67,96.5a3.27,3.27,0,0,0-3,0Zm50.37,24.29c2.37-1.37,3.54-2.87,3.54-4.36v4.41c0,1.5-1.18,3-3.54,4.36l-3.63,2.09L65,123.54v-4.41l6.45,3.75ZM10.55,104.68l3.12-1.8V98.47l-3.12,1.8a1,1,0,0,0-.62.86v4.41a1.05,1.05,0,0,1,.19-.51A1,1,0,0,1,10.55,104.68Zm41.86,26.91a14.8,14.8,0,0,0,7.49-2l3.63-2.1v4.41L59.9,134a14.8,14.8,0,0,1-15,0l-14.83-8.62A2.69,2.69,0,0,0,29,125l-5.55-.56c-1.88-.21-3.3-1-3.66-2.13l-.95-3.22a1.24,1.24,0,0,0-.56-.62L3.47,109.87C1.17,108.53,0,107,0,105.55v-4.4c0,1.5,1.17,3,3.47,4.32l14.83,8.61a1.24,1.24,0,0,1,.55.62l1,3.22c.35,1.09,1.77,1.92,3.66,2.12l5.54.56a2.69,2.69,0,0,1,1.08.32l14.83,8.62A14.8,14.8,0,0,0,52.41,131.59Z" style="fill:#010014;opacity:0.699999988079071;isolation:isolate"/><path d="M60.3,103.49l14.83,8.62c4.67,2.71,4.66,6-.07,8.68l-3.63,2.09L65,119.14l3.12-1.8c.82-.47.83-1.24,0-1.74l-14.33-8.32a6.29,6.29,0,0,1-3.09-3.51l-.36-1.33L48,102.22a15.11,15.11,0,0,1-6.05-1.8L27.62,92.1a3.24,3.24,0,0,0-3,0l-3.12,1.8-6.49-3.78L18.69,88a14.87,14.87,0,0,1,15,0L48.5,96.64a2.85,2.85,0,0,0,1.08.32l5.55.56c1.88.21,3.3,1,3.66,2.13l.95,3.22A1.14,1.14,0,0,0,60.3,103.49Zm-7.85,22.37a3.27,3.27,0,0,0,1.51-.35l3.13-1.8,6.45,3.75-3.63,2.1a14.8,14.8,0,0,1-15,0L30.1,120.94a2.69,2.69,0,0,0-1.08-.32l-5.55-.56c-1.88-.21-3.3-1-3.66-2.12l-1-3.22a1.24,1.24,0,0,0-.55-.62L3.48,105.47c-4.62-2.69-4.64-6,0-8.68L7.16,94.7l6.49,3.78-3.12,1.8a.91.91,0,0,0,0,1.71l14.31,8.32a6.29,6.29,0,0,1,3.09,3.51l.36,1.33,2.29.21a15.13,15.13,0,0,1,6.05,1.8L51,125.48A3.28,3.28,0,0,0,52.45,125.86Z" style="fill:#7066ff"/><path d="M60.3,103.49l14.83,8.62c4.67,2.71,4.66,6-.07,8.68l-3.63,2.09L65,119.14l3.12-1.8c.82-.47.83-1.24,0-1.74l-14.33-8.32a6.29,6.29,0,0,1-3.09-3.51l-.36-1.33L48,102.22a15.11,15.11,0,0,1-6.05-1.8L27.62,92.1a3.24,3.24,0,0,0-3,0l-3.12,1.8-6.49-3.78L18.69,88a14.87,14.87,0,0,1,15,0l14.83,8.61a2.85,2.85,0,0,0,1.08.32l5.55.56c1.88.21,3.3,1,3.66,2.13l.95,3.22A1.14,1.14,0,0,0,60.3,103.49Zm-7.85,22.37a3.27,3.27,0,0,0,1.51-.35l3.13-1.8,6.45,3.75-3.63,2.1a14.8,14.8,0,0,1-15,0L30.1,120.94a2.69,2.69,0,0,0-1.08-.32l-5.55-.56c-1.88-.21-3.3-1-3.66-2.12l-1-3.22a1.24,1.24,0,0,0-.55-.62L3.48,105.47c-4.62-2.69-4.64-6,0-8.68L7.16,94.7l6.49,3.78-3.12,1.8a.91.91,0,0,0,0,1.71l14.31,8.32a6.29,6.29,0,0,1,3.09,3.51l.36,1.33,2.29.21a15.12,15.12,0,0,1,6.05,1.8L51,125.48A3.28,3.28,0,0,0,52.45,125.86Z" style="fill:#7066ff"/><path d="M60.3,103.49l14.83,8.62c4.67,2.71,4.66,6-.07,8.68l-3.63,2.09L65,119.14l3.12-1.8c.82-.47.83-1.24,0-1.74l-14.33-8.32a6.29,6.29,0,0,1-3.09-3.51l-.36-1.33L48,102.22a15.11,15.11,0,0,1-6.05-1.8L27.62,92.1a3.24,3.24,0,0,0-3,0l-3.12,1.8-6.49-3.78L18.69,88a14.87,14.87,0,0,1,15,0l14.83,8.61a2.85,2.85,0,0,0,1.08.32l5.55.56c1.88.21,3.3,1,3.66,2.13l.95,3.22A1.14,1.14,0,0,0,60.3,103.49Zm-7.85,22.37a3.27,3.27,0,0,0,1.51-.35l3.13-1.8,6.45,3.75-3.63,2.1a14.8,14.8,0,0,1-15,0L30.1,120.94a2.69,2.69,0,0,0-1.08-.32l-5.55-.56c-1.88-.21-3.3-1-3.66-2.12l-1-3.22a1.24,1.24,0,0,0-.55-.62L3.48,105.47c-4.62-2.69-4.64-6,0-8.68L7.16,94.7l6.49,3.78-3.12,1.8a.91.91,0,0,0,0,1.71l14.31,8.32a6.29,6.29,0,0,1,3.09,3.51l.36,1.33,2.29.21a15.12,15.12,0,0,1,6.05,1.8L51,125.48A3.28,3.28,0,0,0,52.45,125.86Z" style="fill:#010014;opacity:0.4000000059604645;isolation:isolate"/><path d="M278.64,101l-.1,18.25H267.6l0,5.63h10.94l.1-18.26Zm-10.57,11.74,0-5.63-21,.22,0,5.63Zm-51.71-6.23,34.18,34.39,8.88-5.13,0,5.63-8.88,5.13-34.18-34.4ZM214.06,132l0-5.63-.46,12.14,0,5.63ZM203,144.67h31.51l0-6.34,0,5.63,0,6.33H203Z" style="fill:#7066ff"/><path d="M278.64,101l-.1,18.25H267.6l0,5.63h10.94l.1-18.26Zm-10.57,11.74,0-5.63-21,.22,0,5.63Zm-51.71-6.23,34.18,34.39,8.88-5.13,0,5.63-8.88,5.13-34.18-34.4ZM214.06,132l0-5.63-.46,12.14,0,5.63ZM203,144.67h31.51l0-6.34,0,5.63,0,6.33H203Z" style="fill:#010014;opacity:0.699999988079071;isolation:isolate"/><path d="M247.13,101l0,6.33,21-.22-.46,12.14h10.94l.1-18.25Zm-30.76,5.5,34.18,34.39,8.88-5.13-34.18-34.4ZM203.1,126.42H214l-.46,12.14,21-.23,0,6.34H203Z" style="fill:#7066ff"/><path d="M247.13,101l0,6.33,21-.22-.46,12.14h10.94l.1-18.25Zm-30.76,5.5,34.18,34.39,8.88-5.13-34.18-34.4ZM203.1,126.42H214l-.46,12.14,21-.23,0,6.34H203Z" style="fill:#010014;opacity:0.4000000059604645;isolation:isolate"/></svg>