<svg id="518e2c5c-c0df-4e60-8e8c-932fbedf200d" data-name="Layer 1" xmlns="http://www.w3.org/2000/svg" viewBox="0 0 314 212.66"><title>IBO</title><path d="M63,45.73c-3-1.76-7-2-11.37-.35l-.43,3.07-2.79-1.62L37,53.41a13.18,13.18,0,0,0-6,10.41l0,8.09a18.22,18.22,0,0,1-4.66,12.33l3.33,1.93.19-.24a9.37,9.37,0,0,1,1.2,5.2l0,8.09c0,1.91.67,3.25,1.75,3.88L36.16,105c-1.08-.63-1.75-2-1.75-3.88l0-8.09q0-5-2.43-6.38L30.1,85.62a19.41,19.41,0,0,0,2.52-4L35,83.1a3.74,3.74,0,0,1,1.92.47l-3.32-1.94a3.27,3.27,0,0,0-.81-.33,18.06,18.06,0,0,0,1.53-7.44l0-8.09a13.18,13.18,0,0,1,6-10.41l10.76-6.21L44.57,96.22,41.8,94.61l-2.68,1.55a2.39,2.39,0,0,1-2.38.24l3.33,1.93a2.34,2.34,0,0,0,2.38-.24l2-1.16-.18,1.31,3.33,1.93,7.31-52.84c4.4-1.61,8.34-1.42,11.37.35Z" style="fill:#7066ff"/><path d="M63,45.73c-3-1.76-7-2-11.37-.35l-.43,3.07-2.79-1.62L37,53.41a13.18,13.18,0,0,0-6,10.41l0,8.09a18.22,18.22,0,0,1-4.66,12.33l3.33,1.93.19-.24a9.37,9.37,0,0,1,1.2,5.2l0,8.09c0,1.91.67,3.25,1.75,3.88L36.16,105c-1.08-.63-1.75-2-1.75-3.88l0-8.09q0-5-2.43-6.38L30.1,85.62a19.41,19.41,0,0,0,2.52-4L35,83.1a3.74,3.74,0,0,1,1.92.47l-3.32-1.94a3.27,3.27,0,0,0-.81-.33,18.06,18.06,0,0,0,1.53-7.44l0-8.09a13.18,13.18,0,0,1,6-10.41l10.76-6.21L44.57,96.22,41.8,94.61l-2.68,1.55a2.39,2.39,0,0,1-2.38.24l3.33,1.93a2.34,2.34,0,0,0,2.38-.24l2-1.16-.18,1.31,3.33,1.93,7.31-52.84c4.4-1.61,8.34-1.42,11.37.35Z" style="fill:#010014;opacity:0.30000001192092896;isolation:isolate"/><path d="M47.62,100.17l7.31-52.84c10-3.67,17.59,2,17.63,14.1,0,13.61-9.53,30.17-21.38,37A25.2,25.2,0,0,1,47.62,100.17ZM47,56.88l-4.69,2.71A7.34,7.34,0,0,0,39,65.38l0,6.93a15.89,15.89,0,0,1-4,10.8q4,0,4,6.14l0,6.93c0,2.12,1.52,3,3.36,1.92l2.68-1.55a10,10,0,0,1-4.67,8.1c-3.35,1.93-6.05.4-6.05-3.45l0-8.09q0-6.93-4.72-6.92a18.24,18.24,0,0,0,4.66-12.33l0-8.09a13.18,13.18,0,0,1,6-10.41l11.39-6.58A10,10,0,0,1,47,56.88Z" style="fill:#7066ff"/><path d="M209,73a7.91,7.91,0,0,0-7.13,0l-16.24,9.38a7.91,7.91,0,0,0-3.56,6.17v18.75a7.91,7.91,0,0,0,3.56,6.17l16.24,9.38a7.91,7.91,0,0,0,7.13,0l16.24-9.37a7.91,7.91,0,0,0,3.56-6.17V88.5a7.91,7.91,0,0,0-3.56-6.17Z" style="fill:#7066ff"/><path d="M209,73a7.91,7.91,0,0,0-7.13,0l-16.24,9.38a7.91,7.91,0,0,0-3.56,6.17v18.75a7.91,7.91,0,0,0,3.56,6.17l16.24,9.38a7.91,7.91,0,0,0,7.13,0l16.24-9.37a7.91,7.91,0,0,0,3.56-6.17V88.5a7.91,7.91,0,0,0-3.56-6.17Z" style="fill:#010014;opacity:0.4000000059604645;isolation:isolate"/><path d="M205.47,120.74c0,2.26,1.6,3.19,3.56,2.06l16.24-9.37a7.91,7.91,0,0,0,3.57-6.17V88.5c0-2.26-1.6-3.19-3.57-2.06L209,95.82a7.91,7.91,0,0,0-3.56,6.17Z" style="fill:#010014;opacity:0.30000001192092896;isolation:isolate"/><path d="M271.35,73a7.91,7.91,0,0,0-7.13,0L248,82.33a7.91,7.91,0,0,0-3.56,6.17v18.75a7.91,7.91,0,0,0,3.56,6.17l16.24,9.38a7.91,7.91,0,0,0,7.13,0l16.24-9.37a7.91,7.91,0,0,0,3.56-6.17V88.5a7.91,7.91,0,0,0-3.56-6.17Z" style="fill:#7066ff"/><path d="M271.35,73a7.91,7.91,0,0,0-7.13,0L248,82.33a7.91,7.91,0,0,0-3.56,6.17v18.75a7.91,7.91,0,0,0,3.56,6.17l16.24,9.38a7.91,7.91,0,0,0,7.13,0l16.24-9.37a7.91,7.91,0,0,0,3.56-6.17V88.5a7.91,7.91,0,0,0-3.56-6.17Z" style="fill:#010014;opacity:0.4000000059604645;isolation:isolate"/><path d="M267.78,120.74c0,2.26,1.6,3.19,3.56,2.06l16.24-9.37a7.91,7.91,0,0,0,3.57-6.17V88.5c0-2.26-1.6-3.19-3.57-2.06l-16.24,9.37a7.91,7.91,0,0,0-3.56,6.17Z" style="fill:#010014;opacity:0.30000001192092896;isolation:isolate"/><path d="M177.88,90.75a7.91,7.91,0,0,0-7.13,0l-16.24,9.38A7.91,7.91,0,0,0,151,106.3v18.75a7.91,7.91,0,0,0,3.57,6.17l16.24,9.38a7.91,7.91,0,0,0,7.13,0l16.24-9.38a7.9,7.9,0,0,0,3.57-6.17V106.3a7.9,7.9,0,0,0-3.57-6.17Z" style="fill:#7066ff"/><path d="M174.32,138.54c0,2.26,1.6,3.19,3.56,2.06l16.24-9.38a7.9,7.9,0,0,0,3.57-6.17V106.3c0-2.26-1.6-3.19-3.57-2.06l-16.24,9.37a7.9,7.9,0,0,0-3.56,6.17Z" style="fill:#010014;opacity:0.30000001192092896;isolation:isolate"/><path d="M84.42,73a7.91,7.91,0,0,0-7.13,0L61.05,82.33a7.91,7.91,0,0,0-3.56,6.17v18.75a7.91,7.91,0,0,0,3.56,6.17l16.24,9.38a7.91,7.91,0,0,0,7.13,0l16.24-9.37a7.91,7.91,0,0,0,3.56-6.17V88.5a7.91,7.91,0,0,0-3.56-6.17Z" style="fill:#7066ff"/><path d="M84.42,73a7.91,7.91,0,0,0-7.13,0L61.05,82.33a7.91,7.91,0,0,0-3.56,6.17v18.75a7.91,7.91,0,0,0,3.56,6.17l16.24,9.38a7.91,7.91,0,0,0,7.13,0l16.24-9.37a7.91,7.91,0,0,0,3.56-6.17V88.5a7.91,7.91,0,0,0-3.56-6.17Z" style="fill:#010014;opacity:0.4000000059604645;isolation:isolate"/><path d="M80.86,120.74c0,2.26,1.6,3.19,3.56,2.06l16.24-9.37a7.91,7.91,0,0,0,3.56-6.17V88.5c0-2.26-1.6-3.19-3.56-2.06L84.42,95.82A7.91,7.91,0,0,0,80.86,102Z" style="fill:#010014;opacity:0.30000001192092896;isolation:isolate"/><path d="M115.57,90.75a7.91,7.91,0,0,0-7.13,0l-16.24,9.38a7.91,7.91,0,0,0-3.56,6.17v18.75a7.91,7.91,0,0,0,3.56,6.17l16.24,9.38a7.91,7.91,0,0,0,7.13,0l16.24-9.38a7.91,7.91,0,0,0,3.57-6.17V106.3a7.91,7.91,0,0,0-3.57-6.17Z" style="fill:#7066ff"/><path d="M112,138.54c0,2.26,1.6,3.19,3.56,2.06l16.24-9.38a7.9,7.9,0,0,0,3.57-6.17V106.3c0-2.26-1.6-3.19-3.57-2.06l-16.24,9.37a7.9,7.9,0,0,0-3.56,6.17Z" style="fill:#010014;opacity:0.30000001192092896;isolation:isolate"/><path d="M240.19,90.75a7.91,7.91,0,0,0-7.13,0l-16.24,9.38a7.91,7.91,0,0,0-3.56,6.17v18.75a7.91,7.91,0,0,0,3.56,6.17l16.24,9.38a7.91,7.91,0,0,0,7.13,0l16.24-9.38a7.91,7.91,0,0,0,3.56-6.17V106.3a7.91,7.91,0,0,0-3.56-6.17Z" style="fill:#7066ff"/><path d="M236.63,138.54c0,2.26,1.6,3.19,3.56,2.06l16.24-9.38a7.91,7.91,0,0,0,3.56-6.17V106.3c0-2.26-1.6-3.19-3.56-2.06l-16.24,9.37a7.9,7.9,0,0,0-3.56,6.17Z" style="fill:#010014;opacity:0.30000001192092896;isolation:isolate"/><path d="M146.73,108.55a7.91,7.91,0,0,0-7.13,0l-16.24,9.38a7.91,7.91,0,0,0-3.56,6.17v18.75a7.91,7.91,0,0,0,3.56,6.17l16.24,9.38a7.91,7.91,0,0,0,7.13,0L163,149a7.91,7.91,0,0,0,3.56-6.17V124.11a7.91,7.91,0,0,0-3.56-6.17Z" style="fill:#7066ff"/><path d="M146.73,108.55a7.91,7.91,0,0,0-7.13,0l-16.24,9.38a7.91,7.91,0,0,0-3.56,6.17v18.75a7.91,7.91,0,0,0,3.56,6.17l16.24,9.38a7.91,7.91,0,0,0,7.13,0L163,149a7.91,7.91,0,0,0,3.56-6.17V124.11a7.91,7.91,0,0,0-3.56-6.17Z" style="fill:#010014;opacity:0.4000000059604645;isolation:isolate"/><path d="M143.16,156.34c0,2.26,1.6,3.19,3.56,2.06L163,149a7.9,7.9,0,0,0,3.56-6.17V124.11c0-2.26-1.6-3.19-3.56-2.06l-16.24,9.37a7.91,7.91,0,0,0-3.56,6.17Z" style="fill:#010014;opacity:0.30000001192092896;isolation:isolate"/><path d="M177.88,126.36a7.91,7.91,0,0,0-7.13,0l-16.24,9.38a7.91,7.91,0,0,0-3.57,6.17v18.75a7.91,7.91,0,0,0,3.57,6.17l16.24,9.38a7.91,7.91,0,0,0,7.13,0l16.24-9.38a7.9,7.9,0,0,0,3.57-6.17V141.91a7.91,7.91,0,0,0-3.57-6.17Z" style="fill:#7066ff"/><path d="M174.32,174.15c0,2.26,1.6,3.19,3.56,2.06l16.24-9.38a7.9,7.9,0,0,0,3.57-6.17V141.91c0-2.26-1.6-3.19-3.57-2.06l-16.24,9.37a7.91,7.91,0,0,0-3.56,6.17Z" style="fill:#010014;opacity:0.30000001192092896;isolation:isolate"/><path d="M209,144.16a7.91,7.91,0,0,0-7.13,0l-16.24,9.38a7.91,7.91,0,0,0-3.56,6.17v18.75a7.91,7.91,0,0,0,3.56,6.17L201.91,194a7.91,7.91,0,0,0,7.13,0l16.24-9.38a7.91,7.91,0,0,0,3.56-6.17V159.71a7.91,7.91,0,0,0-3.56-6.17Z" style="fill:#7066ff"/><path d="M209,144.16a7.91,7.91,0,0,0-7.13,0l-16.24,9.38a7.91,7.91,0,0,0-3.56,6.17v18.75a7.91,7.91,0,0,0,3.56,6.17L201.91,194a7.91,7.91,0,0,0,7.13,0l16.24-9.38a7.91,7.91,0,0,0,3.56-6.17V159.71a7.91,7.91,0,0,0-3.56-6.17Z" style="fill:#010014;opacity:0.4000000059604645;isolation:isolate"/><path d="M205.47,191.95c0,2.26,1.6,3.19,3.56,2.06l16.24-9.38a7.9,7.9,0,0,0,3.57-6.17V159.71c0-2.26-1.6-3.19-3.57-2.06L209,167a7.9,7.9,0,0,0-3.56,6.17Z" style="fill:#010014;opacity:0.30000001192092896;isolation:isolate"/><path d="M240.19,162a7.91,7.91,0,0,0-7.13,0l-16.24,9.38a7.91,7.91,0,0,0-3.56,6.17v18.75a7.91,7.91,0,0,0,3.56,6.17l16.24,9.38a7.91,7.91,0,0,0,7.13,0l16.24-9.37a7.91,7.91,0,0,0,3.56-6.17V177.51a7.91,7.91,0,0,0-3.56-6.17Z" style="fill:#7066ff"/><path d="M236.63,209.75c0,2.26,1.6,3.19,3.56,2.06l16.24-9.38a7.9,7.9,0,0,0,3.56-6.17V177.51c0-2.26-1.6-3.19-3.56-2.06l-16.24,9.37a7.9,7.9,0,0,0-3.56,6.17Z" style="fill:#010014;opacity:0.30000001192092896;isolation:isolate"/><path d="M115.57,126.36a7.91,7.91,0,0,0-7.13,0l-16.24,9.38a7.91,7.91,0,0,0-3.56,6.17v18.75a7.91,7.91,0,0,0,3.56,6.17l16.24,9.38a7.91,7.91,0,0,0,7.13,0l16.24-9.38a7.91,7.91,0,0,0,3.57-6.17V141.91a7.91,7.91,0,0,0-3.57-6.17Z" style="fill:#7066ff"/><path d="M112,174.15c0,2.26,1.6,3.19,3.56,2.06l16.24-9.38a7.9,7.9,0,0,0,3.57-6.17V141.91c0-2.26-1.6-3.19-3.57-2.06l-16.24,9.37A7.91,7.91,0,0,0,112,155.4Z" style="fill:#010014;opacity:0.30000001192092896;isolation:isolate"/><path d="M84.42,144.16a7.91,7.91,0,0,0-7.13,0l-16.24,9.38a7.91,7.91,0,0,0-3.56,6.17v18.75a7.91,7.91,0,0,0,3.56,6.17L77.29,194a7.91,7.91,0,0,0,7.13,0l16.24-9.38a7.91,7.91,0,0,0,3.56-6.17V159.71a7.91,7.91,0,0,0-3.56-6.17Z" style="fill:#7066ff"/><path d="M84.42,144.16a7.91,7.91,0,0,0-7.13,0l-16.24,9.38a7.91,7.91,0,0,0-3.56,6.17v18.75a7.91,7.91,0,0,0,3.56,6.17L77.29,194a7.91,7.91,0,0,0,7.13,0l16.24-9.38a7.91,7.91,0,0,0,3.56-6.17V159.71a7.91,7.91,0,0,0-3.56-6.17Z" style="fill:#010014;opacity:0.4000000059604645;isolation:isolate"/><path d="M80.86,191.95c0,2.26,1.6,3.19,3.56,2.06l16.24-9.38a7.91,7.91,0,0,0,3.56-6.17V159.71c0-2.26-1.6-3.19-3.56-2.06L84.42,167a7.9,7.9,0,0,0-3.56,6.17Z" style="fill:#010014;opacity:0.30000001192092896;isolation:isolate"/><path d="M146.73,70.73a7.91,7.91,0,0,0-7.13,0L123.36,80.1a7.91,7.91,0,0,0-3.56,6.17V105a7.91,7.91,0,0,0,3.56,6.17l16.24,9.38a7.91,7.91,0,0,0,7.13,0L163,111.2a7.91,7.91,0,0,0,3.56-6.17V86.27A7.91,7.91,0,0,0,163,80.1Z" style="fill:#7066ff"/><path d="M143.16,118.51c0,2.26,1.6,3.19,3.56,2.06L163,111.2a7.91,7.91,0,0,0,3.56-6.17V86.27c0-2.26-1.6-3.19-3.56-2.06l-16.24,9.37a7.91,7.91,0,0,0-3.56,6.17Z" style="fill:#010014;opacity:0.30000001192092896;isolation:isolate"/><path d="M146.73,32.89a7.91,7.91,0,0,0-7.13,0l-16.24,9.38a7.91,7.91,0,0,0-3.56,6.17V67.19a7.91,7.91,0,0,0,3.56,6.17l16.24,9.38a7.91,7.91,0,0,0,7.13,0L163,73.37a7.91,7.91,0,0,0,3.56-6.17V48.44A7.91,7.91,0,0,0,163,42.27Z" style="fill:#7066ff"/><path d="M146.73,32.89a7.91,7.91,0,0,0-7.13,0l-16.24,9.38a7.91,7.91,0,0,0-3.56,6.17V67.19a7.91,7.91,0,0,0,3.56,6.17l16.24,9.38a7.91,7.91,0,0,0,7.13,0L163,73.37a7.91,7.91,0,0,0,3.56-6.17V48.44A7.91,7.91,0,0,0,163,42.27Z" style="fill:#010014;opacity:0.4000000059604645;isolation:isolate"/><path d="M143.16,80.68c0,2.26,1.6,3.19,3.56,2.06L163,73.37a7.91,7.91,0,0,0,3.56-6.17V48.44c0-2.26-1.6-3.19-3.56-2.06l-16.24,9.37a7.91,7.91,0,0,0-3.56,6.17Z" style="fill:#010014;opacity:0.30000001192092896;isolation:isolate"/><path d="M116.33,24.27l5.9-3.43q3.79-2.2,3.8-4.61V14.46a15.63,15.63,0,0,0,10.62-2L142.55,9a7.28,7.28,0,0,1,6.57,0l4.62,2.67a9.85,9.85,0,0,0,9.21,0V7.9a9.84,9.84,0,0,1-9.21,0l-4.62-2.67a7.27,7.27,0,0,0-6.58,0l-5.89,3.43a15.65,15.65,0,0,1-11.16,1.9v3.68A9,9,0,0,1,122.25,17l-5.9,3.43A2.31,2.31,0,0,0,115,22.35v3.7s0,.06,0,.09v-.09A2.28,2.28,0,0,1,116.33,24.27Zm4.54-14.52a4.37,4.37,0,0,0-.66-2.23v3.79a4.4,4.4,0,0,1,.64,2.23Zm-.52,22.15c11.66,6.73,30.5,6.73,42.08,0,5.75-3.34,8.63-7.71,8.64-12.08v3.77c0,4.38-2.89,8.76-8.65,12.1-11.58,6.74-30.42,6.74-42.08,0a24.69,24.69,0,0,1-3.22-2.19V30.37a9.93,9.93,0,0,1-7.35-.77c-1.66-1-2.49-2.21-2.49-3.45V22.36c0,1.25.83,2.49,2.49,3.45a9.84,9.84,0,0,0,9.21,0V29.6a7.81,7.81,0,0,1-1.26.58A25.92,25.92,0,0,0,120.35,31.9Z" style="fill:#7066ff"/><path d="M116.33,24.27l5.9-3.43q3.79-2.2,3.8-4.61V14.46a15.63,15.63,0,0,0,10.62-2L142.55,9a7.28,7.28,0,0,1,6.57,0l4.62,2.67a9.85,9.85,0,0,0,9.21,0V7.9a9.84,9.84,0,0,1-9.21,0l-4.62-2.67a7.27,7.27,0,0,0-6.58,0l-5.89,3.43a15.65,15.65,0,0,1-11.16,1.9v3.68A9,9,0,0,1,122.25,17l-5.9,3.43A2.31,2.31,0,0,0,115,22.35v3.7s0,.06,0,.09v-.09A2.28,2.28,0,0,1,116.33,24.27Zm4.54-14.52a4.37,4.37,0,0,0-.66-2.23v3.79a4.4,4.4,0,0,1,.64,2.23Zm-.52,22.15c11.66,6.73,30.5,6.73,42.08,0,5.75-3.34,8.63-7.71,8.64-12.08v3.77c0,4.38-2.89,8.76-8.65,12.1-11.58,6.74-30.42,6.74-42.08,0a24.69,24.69,0,0,1-3.22-2.19V30.37a9.93,9.93,0,0,1-7.35-.77c-1.66-1-2.49-2.21-2.49-3.45V22.36c0,1.25.83,2.49,2.49,3.45a9.84,9.84,0,0,0,9.21,0V29.6a7.81,7.81,0,0,1-1.26.58A25.92,25.92,0,0,0,120.35,31.9Z" style="fill:#010014;opacity:0.30000001192092896;isolation:isolate"/><path d="M116.34,20.47c-1.8,1-1.79,2.76,0,3.81L119,25.81a9.84,9.84,0,0,1-9.2,0c-3.3-1.91-3.32-5,0-6.86l6.88-4q5.9-3.42,3.57-7.43A17.92,17.92,0,0,0,133,5.43l6.88-4a13,13,0,0,1,11.84,0L163,7.9a9.85,9.85,0,0,1-9.21,0l-4.62-2.67a7.26,7.26,0,0,0-6.58,0l-5.9,3.43a15.65,15.65,0,0,1-11.16,1.9q2,3.43-3.26,6.48Zm.8,9.22L165.78,9.93c8,6.71,6.94,16-3.34,22-11.58,6.73-30.43,6.73-42.08,0A24.92,24.92,0,0,1,117.14,29.7Z" style="fill:#7066ff"/><path d="M14.12,117.19c1.57-.91,3.76-.77,6.18.63l16.38,9.46-4.79,2.78-16.38-9.46c-2.42-1.4-4.61-1.54-6.18-.62Zm4.09,57.09,0-10A22.8,22.8,0,0,0,13,149.43l2.24-1.3q3-1.76,3.06-8.17l0-10a3.36,3.36,0,0,1,1.41-3.08L15,129.68a3.36,3.36,0,0,0-1.41,3.08l0,10a13.14,13.14,0,0,1-1.18,6.15l-4.64,2.69a22.86,22.86,0,0,1,5.75,15.52l0,10a10.63,10.63,0,0,0,4.81,8.32l3.85,2.22c0,2.2-.72,3.72-1.92,4.41L25,189.25c1.2-.68,1.92-2.21,1.92-4.41L23,182.61A10.65,10.65,0,0,1,18.22,174.28ZM4.79,144.34,0,147.13a6.41,6.41,0,0,0,3.29-.79l4.79-2.78A6.43,6.43,0,0,1,4.79,144.34ZM31.9,130.05c0,2.2-.73,3.72-1.92,4.42l4.79-2.78c1.2-.7,1.92-2.21,1.92-4.42Zm4.63,3.25,4.79-2.78c14.36,11.31,25.2,32.06,25.16,49.43,0,9.72-3.46,16.56-9,19.78l-4.79,2.78c5.54-3.22,9-10.06,9-19.78C61.73,165.36,50.88,144.61,36.53,133.3Z" style="fill:#7066ff"/><path d="M14.12,117.19c1.57-.91,3.76-.77,6.18.63l16.38,9.46-4.79,2.78-16.38-9.46c-2.42-1.4-4.61-1.54-6.18-.62Zm4.09,57.09,0-10A22.8,22.8,0,0,0,13,149.43l2.24-1.3q3-1.76,3.06-8.17l0-10a3.36,3.36,0,0,1,1.41-3.08L15,129.68a3.36,3.36,0,0,0-1.41,3.08l0,10a13.14,13.14,0,0,1-1.18,6.15l-4.64,2.69a22.86,22.86,0,0,1,5.75,15.52l0,10a10.63,10.63,0,0,0,4.81,8.32l3.85,2.22c0,2.2-.72,3.72-1.92,4.41L25,189.25c1.2-.68,1.92-2.21,1.92-4.41L23,182.61A10.65,10.65,0,0,1,18.22,174.28ZM4.79,144.34,0,147.13a6.41,6.41,0,0,0,3.29-.79l4.79-2.78A6.43,6.43,0,0,1,4.79,144.34ZM31.9,130.05c0,2.2-.73,3.72-1.92,4.42l4.79-2.78c1.2-.7,1.92-2.21,1.92-4.42Zm4.63,3.25,4.79-2.78c14.36,11.31,25.2,32.06,25.16,49.43,0,9.72-3.46,16.56-9,19.78l-4.79,2.78c5.54-3.22,9-10.06,9-19.78C61.73,165.36,50.88,144.61,36.53,133.3Z" style="fill:#010014;opacity:0.30000001192092896;isolation:isolate"/><path d="M13.55,132.76l0,10q0,8.87-5.82,8.86a22.86,22.86,0,0,1,5.75,15.52l0,10a10.62,10.62,0,0,0,4.81,8.32l3.85,2.22c0,4.43-2.91,6.08-6.77,3.86-4.82-2.78-8.65-9.44-8.65-15l0-11.63A26.2,26.2,0,0,0,0,147.14q6.77,0,6.79-10l0-11.62c0-5.54,3.88-7.74,8.7-5L31.9,130c0,4.43-2.91,6.08-6.77,3.86L18.39,130C15.74,128.47,13.55,129.7,13.55,132.76Zm12.06,64.16L36.53,133.3c14.36,11.31,25.2,32.06,25.15,49.43-.05,19.57-13.91,27.46-30.94,17.63A47.18,47.18,0,0,1,25.61,196.92Z" style="fill:#7066ff"/><path d="M13.55,132.76l0,10q0,8.87-5.82,8.86a22.86,22.86,0,0,1,5.75,15.52l0,10a10.62,10.62,0,0,0,4.81,8.32l3.85,2.22c0,4.43-2.91,6.08-6.77,3.86-4.82-2.78-8.65-9.44-8.65-15l0-11.63A26.2,26.2,0,0,0,0,147.14q6.77,0,6.79-10l0-11.63c0-5.54,3.88-7.74,8.7-5L31.9,130c0,4.43-2.91,6.08-6.77,3.86L18.39,130C15.74,128.47,13.55,129.7,13.55,132.76Zm12.06,64.16L36.53,133.3c14.36,11.31,25.2,32.06,25.15,49.43-.05,19.57-13.91,27.46-30.94,17.63A47.33,47.33,0,0,1,25.61,196.92Z" style="fill:#7066ff"/><path d="M304.41,48c-3-1.76-7-2-11.37-.35l-.42,3.07-2.79-1.62-11.39,6.58a13.18,13.18,0,0,0-6,10.41l0,8.09a18.22,18.22,0,0,1-4.67,12.33l3.33,1.93.19-.24a9.37,9.37,0,0,1,1.2,5.2l0,8.09c0,1.91.67,3.25,1.75,3.88l3.33,1.94c-1.08-.63-1.75-2-1.75-3.88l0-8.09q0-5-2.43-6.38l-1.85-1.08a19.43,19.43,0,0,0,2.52-4l2.4,1.45a3.74,3.74,0,0,1,1.92.47l-3.32-1.94a3.28,3.28,0,0,0-.82-.33,18.06,18.06,0,0,0,1.53-7.44l0-8.09a13.18,13.18,0,0,1,6-10.41l10.76-6.21L286,98.44l-2.76-1.61-2.68,1.55a2.39,2.39,0,0,1-2.38.24l3.33,1.93a2.34,2.34,0,0,0,2.38-.24l2-1.16-.18,1.31,3.33,1.93,7.31-52.84c4.4-1.61,8.34-1.42,11.37.35Z" style="fill:#7066ff"/><path d="M304.41,48c-3-1.76-7-2-11.37-.35l-.42,3.07-2.79-1.62-11.39,6.58a13.18,13.18,0,0,0-6,10.41l0,8.09a18.22,18.22,0,0,1-4.67,12.33l3.33,1.93.19-.24a9.37,9.37,0,0,1,1.2,5.2l0,8.09c0,1.91.67,3.25,1.75,3.88l3.33,1.94c-1.08-.63-1.75-2-1.75-3.88l0-8.09q0-5-2.43-6.38l-1.85-1.08a19.43,19.43,0,0,0,2.52-4l2.4,1.45a3.74,3.74,0,0,1,1.92.47l-3.32-1.94a3.28,3.28,0,0,0-.82-.33,18.06,18.06,0,0,0,1.53-7.44l0-8.09a13.18,13.18,0,0,1,6-10.41l10.76-6.21L286,98.44l-2.76-1.61-2.68,1.55a2.39,2.39,0,0,1-2.38.24l3.33,1.93a2.34,2.34,0,0,0,2.38-.24l2-1.16-.18,1.31,3.33,1.93,7.31-52.84c4.4-1.61,8.34-1.42,11.37.35Z" style="fill:#010014;opacity:0.30000001192092896;isolation:isolate"/><path d="M289.06,102.4l7.31-52.84c10-3.67,17.6,2,17.63,14.1,0,13.61-9.53,30.17-21.37,37A25.18,25.18,0,0,1,289.06,102.4Zm-.58-43.29-4.69,2.71a7.34,7.34,0,0,0-3.33,5.78l0,6.93a15.89,15.89,0,0,1-4,10.8q4,0,4,6.14l0,6.93c0,2.12,1.52,3,3.36,1.92l2.68-1.55a10,10,0,0,1-4.67,8.1c-3.35,1.93-6.05.4-6.05-3.45l0-8.09q0-6.93-4.72-6.92a18.23,18.23,0,0,0,4.66-12.33l0-8.09a13.18,13.18,0,0,1,6-10.41L293.15,51A10,10,0,0,1,288.48,59.11Z" style="fill:#7066ff"/><path d="M272.72,135.55c-3-1.76-7-2-11.37-.35l-.42,3.07-2.79-1.62-11.39,6.58a13.18,13.18,0,0,0-6,10.41l0,8.09a18.22,18.22,0,0,1-4.66,12.33l3.33,1.93.19-.24a9.37,9.37,0,0,1,1.2,5.2l0,8.09c0,1.91.67,3.25,1.75,3.88l3.33,1.94c-1.08-.63-1.75-2-1.75-3.88l0-8.09q0-5-2.43-6.38l-1.85-1.08a19.42,19.42,0,0,0,2.52-4l2.4,1.45a3.74,3.74,0,0,1,1.92.47l-3.32-1.94a3.29,3.29,0,0,0-.81-.33,18.06,18.06,0,0,0,1.53-7.44l0-8.09a13.18,13.18,0,0,1,6-10.41L260.83,139,254.32,186l-2.76-1.61L248.88,186a2.4,2.4,0,0,1-2.38.24l3.33,1.93a2.34,2.34,0,0,0,2.38-.24l2-1.16-.18,1.31,3.33,1.93,7.31-52.84c4.4-1.61,8.34-1.42,11.37.35Z" style="fill:#7066ff"/><path d="M272.72,135.55c-3-1.76-7-2-11.37-.35l-.42,3.07-2.79-1.62-11.39,6.58a13.18,13.18,0,0,0-6,10.41l0,8.09a18.22,18.22,0,0,1-4.66,12.33l3.33,1.93.19-.24a9.37,9.37,0,0,1,1.2,5.2l0,8.09c0,1.91.67,3.25,1.75,3.88l3.33,1.94c-1.08-.63-1.75-2-1.75-3.88l0-8.09q0-5-2.43-6.38l-1.85-1.08a19.42,19.42,0,0,0,2.52-4l2.4,1.45a3.74,3.74,0,0,1,1.92.47l-3.32-1.94a3.29,3.29,0,0,0-.81-.33,18.06,18.06,0,0,0,1.53-7.44l0-8.09a13.18,13.18,0,0,1,6-10.41L260.83,139,254.32,186l-2.76-1.61L248.88,186a2.4,2.4,0,0,1-2.38.24l3.33,1.93a2.34,2.34,0,0,0,2.38-.24l2-1.16-.18,1.31,3.33,1.93,7.31-52.84c4.4-1.61,8.34-1.42,11.37.35Z" style="fill:#010014;opacity:0.30000001192092896;isolation:isolate"/><path d="M257.37,190l7.31-52.84c10-3.66,17.59,2,17.63,14.1,0,13.61-9.53,30.17-21.37,37A25.17,25.17,0,0,1,257.37,190Zm-.58-43.29-4.69,2.71a7.34,7.34,0,0,0-3.32,5.78l0,6.93a15.89,15.89,0,0,1-4,10.8q4,0,4,6.14l0,6.93c0,2.12,1.52,3,3.36,1.92l2.68-1.55a10,10,0,0,1-4.67,8.1c-3.35,1.93-6.05.4-6.05-3.45l0-8.09q0-6.93-4.72-6.92a18.23,18.23,0,0,0,4.66-12.33l0-8.09a13.18,13.18,0,0,1,6-10.41l11.39-6.58A10,10,0,0,1,256.79,146.7Z" style="fill:#7066ff"/></svg>