<svg id="80cc7d50-e363-4c84-8761-f957b3a19625" data-name="Layer 1" xmlns="http://www.w3.org/2000/svg" viewBox="0 0 32 32"><title>language</title><path d="M16,3A13,13,0,1,0,29,16,13,13,0,0,0,16,3Zm9,7.8H21.16a20.34,20.34,0,0,0-1.79-4.63A10.44,10.44,0,0,1,25,10.8ZM16,5.65a18.31,18.31,0,0,1,2.48,5.15h-5A18.31,18.31,0,0,1,16,5.65ZM5.94,18.6a10.17,10.17,0,0,1,0-5.2h4.39a21.47,21.47,0,0,0-.18,2.6,21.47,21.47,0,0,0,.18,2.6ZM7,21.2h3.83a20.34,20.34,0,0,0,1.79,4.63A10.38,10.38,0,0,1,7,21.2Zm3.83-10.4H7a10.38,10.38,0,0,1,5.63-4.63,20.34,20.34,0,0,0-1.79,4.63ZM16,26.35a18.31,18.31,0,0,1-2.48-5.15h5A18.31,18.31,0,0,1,16,26.35Zm3-7.75H13a19.13,19.13,0,0,1-.21-2.6A19,19,0,0,1,13,13.4H19a19,19,0,0,1,.21,2.6A19.11,19.11,0,0,1,19,18.6Zm.33,7.23a20.34,20.34,0,0,0,1.79-4.63H25a10.44,10.44,0,0,1-5.63,4.63Zm2.3-7.23a21.47,21.47,0,0,0,.18-2.6,21.47,21.47,0,0,0-.18-2.6h4.39a10.17,10.17,0,0,1,0,5.2Z" style="fill:#f2f1ff"/></svg>