<svg id="f5c76d4e-e765-4b4b-96ef-db78ac630880" data-name="Layer 1" xmlns="http://www.w3.org/2000/svg" viewBox="0 0 206 116"><title>arrows-right</title><g style="opacity:0.05000000074505806"><path d="M13.2,127.38a6.28,6.28,0,0,1-2.85-.69h0a6.16,6.16,0,0,1-2.43-2.25,6.07,6.07,0,0,1-.9-3.19V47a6.06,6.06,0,0,1,.9-3.18,6.17,6.17,0,0,1,2.43-2.25,6.27,6.27,0,0,1,6.38.39l54.6,37.11a6.18,6.18,0,0,1,2,2.19,6.05,6.05,0,0,1,0,5.71,6.18,6.18,0,0,1-2,2.19L16.71,126.3a6.26,6.26,0,0,1-3.14,1.06Zm-1-4.25a2.28,2.28,0,0,0,2.31-.14l54.6-37.1a2.16,2.16,0,0,0,.69-.76,2.05,2.05,0,0,0,0-1.94,2.16,2.16,0,0,0-.69-.77L14.47,45.31a2.27,2.27,0,0,0-2.3-.14,2.18,2.18,0,0,0-.86.79A2.07,2.07,0,0,0,11,47v74.21a2.07,2.07,0,0,0,.31,1.09A2.17,2.17,0,0,0,12.16,123.13Z" style="fill:#010014"/><path d="M117.75,139.55a3.3,3.3,0,0,0,3.38-.21l42.47-29.15a3.23,3.23,0,0,0,0-5.33L121.13,75.71a3.28,3.28,0,0,0-4.65,1,3.21,3.21,0,0,0-.47,1.68v58.31a3.24,3.24,0,0,0,1.75,2.87Z" style="fill:#010014"/><path d="M76.47,40.47a2.73,2.73,0,0,0,2.82-.18l35.53-24.74a2.76,2.76,0,0,0,0-4.52L79.29-13.7a2.72,2.72,0,0,0-1.39-.48,2.72,2.72,0,0,0-1.44.31,2.74,2.74,0,0,0-1.07,1A2.76,2.76,0,0,0,75-11.44V38a2.75,2.75,0,0,0,1.47,2.44Z" style="fill:#010014"/><path d="M168.27,74.23a5.3,5.3,0,0,1-2.43-.59h0A5.23,5.23,0,0,1,163,69V10.68a5.26,5.26,0,0,1,5.59-5.23,5.29,5.29,0,0,1,2.67.92l42.47,29.16a5.23,5.23,0,0,1,0,8.62L171.26,73.3a5.32,5.32,0,0,1-2.67.92Zm-.6-4.14a1.38,1.38,0,0,0,.68.14A1.31,1.31,0,0,0,169,70l42.46-29.15a1.25,1.25,0,0,0,.4-.45,1.21,1.21,0,0,0,0-1.14,1.24,1.24,0,0,0-.4-.44L169,9.67a1.29,1.29,0,0,0-1.32-.08,1.26,1.26,0,0,0-.5.46,1.21,1.21,0,0,0-.18.63V69a1.22,1.22,0,0,0,.18.64A1.26,1.26,0,0,0,167.67,70.08Z" style="fill:#010014"/></g></svg>