<svg xmlns="http://www.w3.org/2000/svg" xmlns:xlink="http://www.w3.org/1999/xlink" width="79" height="50" fill="none" xmlns:v="https://vecta.io/nano"><g fill="#7066ff"><use xlink:href="#B"/><use xlink:href="#C"/><use xlink:href="#D"/><use xlink:href="#E"/></g><g opacity=".3" fill="#010014"><use xlink:href="#B"/><use xlink:href="#C"/><use xlink:href="#D"/><use xlink:href="#E"/></g><g fill="#7066ff" fill-rule="evenodd"><path d="M60.3015 17.4897l14.8305 8.6187c4.6732 2.713 4.6552 5.9595-.072 8.6835l-3.6284 2.0934-6.4495-3.7473 3.1167-1.8015c.8215-.4756.825-1.243-.036-1.744l-14.326-8.3232c-1.625-.944-2.688-2.1547-3.088-3.513l-.3603-1.326-2.2916-.21c-2.122-.1672-4.185-.7812-6.0532-1.8015L27.6213 6.1003a3.243 3.243 0 0 0-2.9546 0L21.55 7.902l-6.4856-3.7797 3.6283-2.097C20.9664.699 23.5515 0 26.1837 0a14.866 14.866 0 0 1 7.4908 2.0252l14.8304 8.615c.335.179.7027.2893 1.08.3243l5.5524.562c1.8844.21 3.2968 1.045 3.657 2.1258l.9476 3.2176a1.142 1.142 0 0 0 .5585.6197zm-7.8474 22.369c.5227.005 1.04-.115 1.506-.35l3.1348-1.798 6.4495 3.7472-3.632 2.097a14.798 14.798 0 0 1-7.4891 2.0349c-2.633 0-5.2182-.7024-7.49-2.035L30.1038 34.936c-.3332-.1834-.7017-.294-1.081-.3243l-5.5488-.562c-1.8844-.2053-3.2968-1.0413-3.6572-2.1222l-.9512-3.2176c-.1073-.2656-.3034-.486-.5548-.6233l-14.8305-8.615c-4.6192-2.688-4.6372-5.9632.0468-8.68l3.632-2.0934 6.4856 3.776-3.1167 1.8016c-.807.472-.8143 1.2394 0 1.7114l14.3116 8.316c1.625.944 2.6915 2.1547 3.088 3.5095l.3603 1.3295 2.2915.21a15.133 15.133 0 0 1 6.0533 1.8016l14.3223 8.3267a3.279 3.279 0 0 0 1.4991.379z"/><path d="M60.3017 17.4897l14.8304 8.6187c4.6732 2.713 4.6552 5.9595-.072 8.6835l-3.6283 2.0934-6.4496-3.7473 3.1167-1.8015c.8215-.4756.825-1.243-.036-1.744l-14.326-8.3232c-1.625-.944-2.688-2.1547-3.088-3.513l-.3603-1.326-2.2916-.21a15.103 15.103 0 0 1-6.0532-1.8015L27.6214 6.1003a3.243 3.243 0 0 0-1.4773-.356c-.5136 0-1.02.122-1.4772.356L21.5502 7.902l-6.4856-3.7797 3.6283-2.097C20.9666.699 23.5516 0 26.1838 0s5.2172.699 7.491 2.0252l14.8304 8.615a2.85 2.85 0 0 0 1.0809.3243l5.5524.562c1.8844.21 3.2968 1.045 3.6572 2.1258l.9476 3.2176c.1013.2696.3008.49.5585.6197zm-7.8475 22.369a3.279 3.279 0 0 0 1.506-.3501l3.1347-1.798 6.4495 3.7472-3.632 2.097c-2.2708 1.3325-4.856 2.035-7.489 2.035s-5.2182-.7024-7.49-2.035L30.104 34.936a2.686 2.686 0 0 0-1.081-.3243l-5.5488-.562c-1.8844-.2054-3.2968-1.0414-3.657-2.1223L18.866 28.71a1.24 1.24 0 0 0-.5549-.6233l-14.8304-8.615c-4.6192-2.688-4.6372-5.9632.0468-8.68l3.632-2.0934 6.4856 3.776-3.1167 1.8016c-.807.472-.8143 1.2394 0 1.7114l14.3116 8.316c1.625.944 2.6915 2.1547 3.088 3.5095l.3603 1.3295 2.2916.21c2.122.168 4.1846.782 6.0532 1.8016l14.3224 8.3267c.4623.244.9762.374 1.5.38z"/></g><defs ><path id="B" d="M24.71 10.4996l-3.1167 1.8016-6.4964-3.769V4.1257L21.5 7c8.1812-6.545 21.85 1.0562 30 7.5 6.967 5.5078 18.6367 9.9565 19.9998 19.498-.04-.2148-3.2033.0915-3.4046.0048l-14.3116-8.3303c-1.625-.944-2.688-2.1547-3.0915-3.513l-.3603-1.326-2.2916-.21a15.133 15.133 0 0 1-6.0532-1.8016l-14.3188-8.3232a3.268 3.268 0 0 0-1.479-.3538c-.514 0-1.0208.1212-1.479.3538z"/><path id="C" d="M75.0816 34.7848c2.3673-1.3656 3.542-2.8645 3.542-4.3634v4.4138c.0036 1.499-1.1782 2.9978-3.542 4.3634l-3.6283 2.0934-6.4496-3.7473V33.138l6.4496 3.7473 3.6283-2.1006z"/><path id="D" d="M10.55 18.6786l3.1203-1.8015v-4.4066L10.1277 13c-1.4552.64-1.4848 6.545.4223 5.6786z"/><path id="E" d="M52 43c4.054 0 7.47-1.5048 11.53-1.546v4.4066l-3.6284 2.097c-2.2708 1.3325-4.856 2.035-7.49 2.035a14.798 14.798 0 0 1-7.4891-2.035L30.0932 39.339c-.3334-.183-.7018-.2935-1.081-.3242l-5.5488-.562c-1.8845-.2054-3.297-1.045-3.6572-2.126l-.9476-3.2175a1.24 1.24 0 0 0-.5585-.6198L3.4734 23.8708C1.1674 22.5268 0 21.0387 0 19.547v-4.403C.017 18.6897 28.1472 31.379 32 33.5c6.173 3.7988 12.4393 9.5 20 9.5z"/></defs></svg>