<svg xmlns="http://www.w3.org/2000/svg" width="79" height="50" fill="none" xmlns:v="https://vecta.io/nano"><path d="M24.7 10.4996l-3.1167 1.8016-6.4964-3.77V4.1257L21.5 7c8.1812-6.545 21.85 1.0562 30 7.5 6.967 5.5078 18.6367 9.9565 19.9998 19.498-.04-.2148-3.2033.0915-3.4046.0048l-14.3116-8.3303c-1.625-.944-2.688-2.1547-3.0915-3.513l-.3603-1.326-2.2916-.2a15.133 15.133 0 0 1-6.0532-1.8016l-14.3188-8.3232a3.268 3.268 0 0 0-1.479-.3538c-.514 0-1.0208.1212-1.48.3538zm50.3716 24.2852c2.3673-1.3656 3.542-2.8645 3.542-4.3634v4.4138c.0036 1.5-1.1782 2.9978-3.542 4.3634l-3.6283 2.0934-6.4496-3.7473V33.138l6.4496 3.7473 3.6283-2.1006zM10.55 18.6786l3.1203-1.8015v-4.4066L10.1277 13c-1.4552.64-1.4848 6.545.4223 5.6786zM52 43c4.054 0 7.47-1.5048 11.53-1.546v4.4066l-3.6284 2.097c-2.2708 1.3325-4.856 2.035-7.5 2.035a14.798 14.798 0 0 1-7.4891-2.035L30.0932 39.34c-.3334-.183-.7018-.2935-1.08-.3242l-5.5488-.562c-1.8845-.2054-3.297-1.045-3.6572-2.126l-.9476-3.2175a1.24 1.24 0 0 0-.5585-.6198L3.4734 23.8708C1.1674 22.5268 0 21.0387 0 19.547v-4.403C.017 18.6897 28.1472 31.38 32 33.5c6.173 3.7988 12.4393 9.5 20 9.5z" fill="#4f47b9"/><path d="M60.3015 17.4897l14.8305 8.6187c4.6732 2.713 4.6552 5.9595-.072 8.6835l-3.6284 2.0934-6.4495-3.7473 3.1167-1.8015c.8215-.4756.825-1.243-.036-1.744l-14.326-8.3232c-1.625-.944-2.688-2.1547-3.088-3.513l-.3603-1.326-2.2916-.2c-2.122-.1672-4.185-.78-6.0532-1.8015L27.6213 6.1003a3.243 3.243 0 0 0-2.9546 0L21.55 7.902l-6.4856-3.7797 3.6283-2.097C20.9664.7 23.5515 0 26.1837 0a14.866 14.866 0 0 1 7.4908 2.0252l14.8304 8.615c.335.18.7027.2893 1.08.3243l5.5524.562c1.8844.2 3.2968 1.045 3.657 2.1258l.9476 3.2176a1.142 1.142 0 0 0 .5585.6197zm-7.8475 22.369c.5227.005 1.04-.115 1.506-.35l3.1348-1.798 6.4495 3.7472-3.632 2.097a14.798 14.798 0 0 1-7.4891 2.0349c-2.633 0-5.2182-.7024-7.5-2.035L30.1038 34.936c-.3332-.1834-.7017-.294-1.08-.3243l-5.5488-.562c-1.8844-.2054-3.2968-1.0414-3.6572-2.1223l-.9512-3.2176a1.239 1.239 0 0 0-.5548-.6233l-14.8305-8.615c-4.6192-2.688-4.6372-5.9632.0468-8.68L7.159 8.698l6.4856 3.776-3.1167 1.8016c-.807.472-.8143 1.2394 0 1.7114l14.3116 8.316c1.625.944 2.6915 2.1547 3.088 3.5095l.3603 1.3295 2.2915.2a15.133 15.133 0 0 1 6.0533 1.8016l14.3223 8.3267a3.279 3.279 0 0 0 1.4991.379z" fill="#7066ff"/></svg>