<svg xmlns="http://www.w3.org/2000/svg" width="76" height="50" fill="none" xmlns:v="https://vecta.io/nano"><path d="M75.8146.35l-.103 18.2522H64.773l.016 5.6284 10.9385.0023.103-18.2545L75.8146.35zM65.247 12.088l-.016-5.6284-20.9656.2244.016 5.6307 20.9657-.2267zm-51.71-6.233l34.185 34.3955 8.8823-5.1292.016 5.6307-8.8822 5.1292-34.185-34.3978-.016-5.6284zm-2.3103 25.543l-.016-5.6284-.458 12.143.016 5.6284.458-12.143zM.17 44.0217h31.515l.032-6.336.0183 5.6307L31.7 49.65H.186L.17 44.0217z" fill="#4f47b9"/><path d="M44.2996.35l-.0343 6.3337 20.9656-.2244-.458 12.143h10.9385L75.8145.35h-31.515zM13.538 5.8548l34.185 34.3955 8.8823-5.1292L22.4203.7256 13.538 5.8548zM.273 25.767l10.9385.0023-.458 12.143 20.9634-.2267-.032 6.336H.17L.273 25.767z" fill="#7066ff"/></svg>