<svg xmlns="http://www.w3.org/2000/svg" xmlns:xlink="http://www.w3.org/1999/xlink" width="76" height="50" fill="none" xmlns:v="https://vecta.io/nano"><g fill-rule="evenodd"><use xlink:href="#B" fill="#7066ff"/><use xlink:href="#B" opacity=".3" fill="#010014"/><path d="M44.2996.35l-.0343 6.3337 20.9656-.2244-.458 12.143h10.9385L75.8145.35h-31.515zM13.538 5.8547L47.723 40.2502l8.8823-5.1292L22.4203.7255 13.538 5.8547zM.273 25.767l10.9385.0023-.458 12.143 20.9634-.2267-.032 6.336H.17L.273 25.767z" fill="#7066ff"/></g><defs ><path id="B" d="M75.8146.35l-.103 18.2522H64.773l.016 5.6284 10.9385.0023.103-18.2545L75.8146.35zM65.247 12.0878l-.016-5.6284-20.9656.2244.016 5.6307 20.9657-.2267zM13.538 5.855L47.723 40.2504l8.8823-5.1292.016 5.6307L47.74 45.881 13.554 11.4833l-.016-5.6284zm-2.3104 25.543l-.016-5.6284-.458 12.143.016 5.6284.458-12.143zM.17 44.0217h31.515l.032-6.336.0183 5.6307L31.7 49.65H.186L.17 44.0217z"/></defs></svg>