<svg xmlns="http://www.w3.org/2000/svg" xmlns:xlink="http://www.w3.org/1999/xlink" width="215" height="139" fill="none" xmlns:v="https://vecta.io/nano"><g fill-rule="evenodd"><use xlink:href="#B" fill="#7066ff"/><use xlink:href="#B" opacity=".3" fill="#010014"/></g><path d="M107.493.36C48.3226.36.3 28.0834.3 62.2426s48.0226 61.8824 107.193 61.8824 107.193-27.7232 107.193-61.8824S166.664.36 107.493.36z" fill="#7066ff"/><path opacity=".4" fill-rule="evenodd" d="M158.594 18.548h8.932v7.727c.083.4006-.02.8284-.362 1.253l-34.15 42.3794c-1.33 1.6492-3.147 2.834-5.192 3.3833L53.1625 93.3406c-2.9758.7992-6.0456-.6594-5.7037-2.3517v-7.79h6.0518l28.462-35.3206a10 10 0 0 1 5.1928-3.3832l71.4285-19.1828V18.548zm-51.1 33.5377c-6.54 0-11.7912 3.0322-11.7912 6.807s5.2522 6.807 11.7912 6.807 11.79-3.0323 11.79-6.807-5.252-6.807-11.79-6.807z" fill="#010014"/><use xlink:href="#C" fill="#7066ff"/><use xlink:href="#C" opacity=".15" fill="#010014"/><defs ><path id="B" d="M.3183 75.6062L.3 76.7583C.3 110.918 48.3226 138.64 107.493 138.64s107.193-27.723 107.193-61.8827c0-.3757-.005-.7506-.017-1.1248V62.877h-2.694c-10.924-27.4828-53.577-48.0013-104.482-48.0013S13.935 35.3942 3.011 62.877H.3163v12.7292h.002z"/><path id="C" d="M107.493 44.2695c-6.54 0-11.791 3.0322-11.791 6.807s5.252 6.807 11.791 6.807 11.79-3.0323 11.79-6.807-5.252-6.807-11.79-6.807zm25.76 17.5256c-1.484 1.8415-3.514 3.1643-5.798 3.7777L53.1626 85.5245c-3.3994.913-6.9216-1.1204-5.34-3.083L81.7343 40.358c1.484-1.8415 3.5143-3.1643 5.7983-3.7777l74.2914-19.9516c3.4-.913 6.92 1.1204 5.34 3.083L133.252 61.795z"/></defs></svg>