<svg width="120" height="140" viewBox="0 0 120 140" fill="none" xmlns="http://www.w3.org/2000/svg">
<g clip-path="url(#clip0)">
<path opacity="0.05" fill-rule="evenodd" clip-rule="evenodd" d="M84.8438 -22C84.8438 -18.625 82.3125 -16.0938 78.9375 -16.0938H73.0312C70.7109 -16.0938 68.8125 -14.1953 68.8125 -11.875V-4.28125C68.8125 0.21875 67.125 3.3125 63.75 5C67.125 6.6875 68.8125 9.78125 68.8125 14.2812V21.875C68.8125 24.1953 70.7109 26.0938 73.0312 26.0938H76.4062C76.4062 29.4688 73.875 32 70.5 32C66.2812 32 62.9062 28.625 62.9062 24.4062L62.9057 15.5469C62.9061 10.4844 60.9375 6.96875 57 5C60.9375 3.03125 62.9062 -0.484375 62.9062 -5.54688L62.9062 -14.4062C62.9062 -18.625 66.2812 -22 70.5 -22H84.8438ZM88.8914 -21.558C101.468 -19.2566 111 -8.24145 111 5C111 19.9117 98.9117 32 84 32C82.4713 32 80.9724 31.873 79.513 31.6289L88.8914 -21.558Z" fill="#010014"/>
<path opacity="0.05" fill-rule="evenodd" clip-rule="evenodd" d="M51.2813 80C51.2813 85.125 47.4375 88.9688 42.3125 88.9688H33.3438C29.8203 88.9688 26.9375 91.8516 26.9375 95.375V106.906C26.9375 113.74 24.375 118.438 19.25 121C24.375 123.563 26.9375 128.26 26.9375 135.094V146.625C26.9375 150.148 29.8203 153.031 33.3438 153.031H38.4688C38.4688 158.156 34.625 162 29.5 162C23.0938 162 17.9688 156.875 17.9688 150.469L17.9679 137.016C17.9685 129.328 14.9792 123.99 9 121C14.9792 118.01 17.9687 112.672 17.9687 104.984L17.9688 91.5313C17.9688 85.125 23.0938 80 29.5 80H51.2813ZM57.4277 80.6711C76.5255 84.1659 91 100.893 91 121C91 143.644 72.6437 162 50 162C47.6787 162 45.4025 161.807 43.1865 161.436L57.4277 80.6711Z" fill="#010014"/>
</g>
<defs>
<clipPath id="clip0">
<rect width="120" height="140" fill="white"/>
</clipPath>
</defs>
</svg>
