<svg xmlns="http://www.w3.org/2000/svg" width="47" height="52" fill="none" xmlns:v="https://vecta.io/nano"><path d="M27.06 1.079c-1.9612-1.132-5.1675-1.132-7.1287 0l-16.237 9.376C1.733 11.5867.13 14.365.13 16.6286v18.7476c0 2.2637 1.603 5.042 3.5643 6.1738l16.237 9.376c1.9612 1.1318 5.1675 1.1318 7.1287 0l16.237-9.376c1.9612-1.132 3.5643-3.91 3.5643-6.1738V16.6286c0-2.2637-1.603-5.042-3.5643-6.1738L27.06 1.079z" fill="#7066ff"/><path opacity=".3" d="M23.4957 48.868c0 2.2637 1.6032 3.1898 3.5644 2.058l16.237-9.376c1.9612-1.132 3.5643-3.91 3.5643-6.1738V16.6287c0-2.2637-1.603-3.1898-3.5643-2.058l-16.237 9.374c-1.9612 1.1318-3.5644 3.9-3.5644 6.1737V48.868z" fill="#010014"/></svg>