<svg xmlns="http://www.w3.org/2000/svg" xmlns:xlink="http://www.w3.org/1999/xlink" width="67" height="88" fill="none" xmlns:v="https://vecta.io/nano"><g fill-rule="evenodd"><use xlink:href="#B" fill="#7066ff"/><use xlink:href="#B" opacity=".3" fill="#010014"/><path d="M13.814 16.15l-.027 9.9644c-.016 5.9138-1.955 8.8685-5.8177 8.864a22.863 22.863 0 0 1 5.7463 15.5204l-.027 9.9644c-.0102 3.0464 2.153 6.79 4.8055 8.3206l3.8513 2.2245c-.0102 4.432-2.9105 6.0826-6.7652 3.858-4.819-2.7815-8.6466-9.438-8.6466-14.9737l.034-11.6285c.018-6.643-2.2177-12.5545-6.7074-17.7348 4.51 0 6.772-3.3237 6.7856-9.9712l.034-11.625c.0136-5.539 3.8818-7.74 8.7-4.9584l16.383 9.4584c-.0136 4.4286-2.914 6.0825-6.7685 3.858l-6.7448-3.8954c-2.6524-1.5317-4.8362-.3022-4.8362 2.7543zM25.874 80.3138l10.912-63.6204c14.3556 11.3126 25.203 32.0564 25.152 49.4346-.0543 19.572-13.9073 27.4614-30.939 17.6295a47.28 47.28 0 0 1-5.1248-3.4437z" fill="#7066ff"/></g><defs ><path id="B" d="M14.3847.5786c1.5725-.9136 3.7562-.7743 6.181.625l16.3797 9.4584-4.7886 2.7814L15.7806 3.985c-2.425-1.3992-4.6086-1.5385-6.1845-.625L14.3847.5786zm4.0926 57.093l.0272-9.9644c.0862-5.4264-1.766-10.7056-5.2233-14.8888l2.238-1.3007c2.024-1.175 3.043-3.9 3.0566-8.1746l.0305-9.9643c0-1.514.543-2.58 1.408-3.083l-4.7872 2.7807c-.866.5026-1.406 1.57-1.4095 3.0837l-.0305 9.9542c0 2.6422-.3928 4.6924-1.1785 6.1505l-4.6392 2.693c3.7865 4.2744 5.8363 9.811 5.7464 15.5205l-.0272 9.9644c0 3.0565 2.1532 6.7923 4.8056 8.3206l3.8512 2.2245c0 2.2007-.7234 3.7188-1.9188 4.415l4.7852-2.761c1.1954-.6792 1.9154-2.211 1.9222-4.415l-3.8546-2.2245c-2.6524-1.542-4.8124-5.2844-4.8022-8.3308zM5.0486 27.7344L.26 30.5193a6.406 6.406 0 0 0 3.2943-.7947L8.343 26.943c-1.0075.554-2.1452.8272-3.2943.7913zm27.1086-14.2912c0 2.2007-.7268 3.7154-1.9222 4.415l4.7886-2.7814c1.1954-.6963 1.9154-2.211 1.9222-4.415l-4.7886 2.7815zm4.6287 3.25l4.7852-2.7814c14.36 11.3126 25.203 32.0564 25.1554 49.4346-.0272 9.7198-3.4607 16.563-8.9964 19.7793l-4.7886 2.7814c5.5357-3.216 8.9692-10.056 8.9964-19.7792.05-17.3782-10.7964-38.122-25.152-49.4347z"/></defs></svg>