<svg id="68b1c8ac-d506-4546-ac6f-28ddf2ff49f8" data-name="Layer 1" xmlns="http://www.w3.org/2000/svg" viewBox="0 0 320 200"><title>explore-right</title><g style="opacity:0.05000000074505806;isolation:isolate"><path d="M255.53,489.88h-105v-2c0-25.33,19.1-44.42,44.42-44.42h42.42a28.34,28.34,0,0,0,28.3-28.3V360.61c0-31.47,11.47-53.88,34.1-66.67-22.64-12.79-34.1-35.2-34.1-66.67V172.73a28.34,28.34,0,0,0-28.3-28.3H194.92c-25.33,0-44.42-19.1-44.42-44.42V98h105a56.32,56.32,0,0,1,56.55,56.55v63.64c0,35.37,13.9,60.26,41.32,74l3.58,1.79-3.58,1.79c-27.42,13.71-41.32,38.59-41.32,74v63.64a56.32,56.32,0,0,1-56.55,56.55Zm-101-4h101a52.32,52.32,0,0,0,52.55-52.55V369.7c0-35.54,13.5-61,40.13-75.76-26.64-14.76-40.13-40.22-40.13-75.76V154.55A52.32,52.32,0,0,0,255.53,102h-101c1,22,18,38.42,40.38,38.42h42.42a32.34,32.34,0,0,1,32.3,32.3v54.55c0,31.35,11.86,53.18,35.26,64.88l3.58,1.79-3.58,1.79c-23.39,11.7-35.26,33.52-35.26,64.88v54.55a32.34,32.34,0,0,1-32.3,32.3H194.92C172.55,447.46,155.52,463.83,154.54,485.88Z" style="fill:#010014"/></g><path d="M-7.37-23.86c36.63,62.33,114,91.51,184.87,65.72,79.8-29,121.11-116.8,92.28-196a152.6,152.6,0,0,0-10.66-23.11Z" style="fill:#010014;opacity:0.05000000074505806;isolation:isolate"/></svg>