<svg id="1877f5ea-bbd9-4983-8121-8f88afa65c5a" data-name="Layer 1" xmlns="http://www.w3.org/2000/svg" viewBox="0 0 155 200"><title>explore-left</title><g style="opacity:0.05000000074505806;isolation:isolate"><path d="M146.5,75.94H54.29A49.56,49.56,0,0,1,4.53,26.18V-29.54c0-30.87-12.13-52.59-36-64.54l-3.58-1.79,3.58-1.79c23.91-12,36-33.67,36-64.54v-55.72A49.47,49.47,0,0,1,19-253.16a49.47,49.47,0,0,1,35.24-14.52H146.5v2c0,22.32-16.83,39.15-39.14,39.15H70.21A24.56,24.56,0,0,0,45.68-202v47.76c0,27.48-10,47.09-29.61,58.37C35.72-84.59,45.68-65,45.68-37.5V10.26A24.56,24.56,0,0,0,70.21,34.79h37.15c22.32,0,39.14,16.83,39.14,39.15ZM-26.34-95.87C-3.2-82.87,8.53-60.58,8.53-29.54V26.18A45.56,45.56,0,0,0,54.29,71.94h88.16c-1-19-15.73-33.15-35.09-33.15H70.21A28.56,28.56,0,0,1,41.68,10.26V-37.5c0-27.73-10.05-46.24-30.73-56.58L7.37-95.87l3.58-1.79C31.62-108,41.68-126.51,41.68-154.24V-202a28.56,28.56,0,0,1,28.53-28.53h37.15c19.36,0,34.13-14.11,35.09-33.15H54.29a45.5,45.5,0,0,0-32.42,13.34A45.5,45.5,0,0,0,8.53-217.92v55.72C8.53-131.17-3.2-108.87-26.34-95.87Z" style="fill:#010014"/></g><path d="M-122,314.41c46.9,55,128.17,70.32,193.47,32.62C145,304.57,170.47,211,128.32,138a152.51,152.51,0,0,0-14.51-20.91Z" style="fill:#010014;opacity:0.05000000074505806;isolation:isolate"/></svg>