<svg xmlns="http://www.w3.org/2000/svg" width="238" height="152" fill="none" xmlns:v="https://vecta.io/nano"><path fill-rule="evenodd" d="M158.185 100.757l36.084 9.946 30.22 17.448v-2.146h13.31v14.048c.19 2.99-1.692 6.018-5.648 8.3-7.548 4.357-19.785 4.356-27.332-.002l-37.87-21.872-17.23-20.83c-15.89 8.027-36.6 12.937-59.3187 12.937-48.927 0-88.8776-22.6046-90.1767-50.6625H.2187v-.0848a30.481 30.481 0 0 1-.0288-1.3253A30.489 30.489 0 0 1 .2187 65.19V53.4056h2.867C13.181 31.0213 48.4985 14.443 90.3993 14.443s77.2177 16.5783 87.3137 38.9626h2.854V64.92a30.192 30.192 0 0 1 .042 1.5944c-.005 12.609-7.978 24.7837-22.424 34.2416zM25.964 66.5154c0 20.509 28.9057 37.1946 64.4353 37.1946s64.4357-16.6855 64.4357-37.1946-28.906-37.1946-64.4357-37.1946S25.964 46.0063 25.964 66.5154z" fill="#4f47b9"/><path d="M194.27 96.6345l-36.084-9.9458c14.446-9.4576 22.42-21.6324 22.424-34.2413C180.61 23.7406 140.143.375 90.3993.375S.19 23.7406.19 52.4474 40.6553 104.52 90.3993 104.52c22.7197 0 43.4297-4.91 59.3187-12.9365l17.23 20.8285 37.87 21.872c7.547 4.358 19.784 4.36 27.332.002s7.55-11.42.002-15.778L194.27 96.6345zM90.3993 89.642c-35.5296 0-64.4353-16.6854-64.4353-37.1945s28.9057-37.1946 64.4353-37.1946 64.4357 16.6855 64.4357 37.1946S125.93 89.642 90.3993 89.642z" fill="#7066ff"/></svg>