<svg width="140" height="140" viewBox="0 0 140 140" fill="none" xmlns="http://www.w3.org/2000/svg">
<g clip-path="url(#clip0)">
<g opacity="0.05">
<path d="M117.334 56.334H100C97.5953 56.334 95.667 58.2623 95.667 60.6673V95.334C95.667 96.4833 96.1235 97.5855 96.9362 98.3981C97.7489 99.2108 98.8511 99.6673 100 99.6673H126C127.15 99.6673 128.252 99.2108 129.064 98.3981C129.877 97.5855 130.334 96.4833 130.334 95.334V69.334L117.334 56.334ZM114.17 93.969V89.6357H105.504V85.324H114.17V80.9907L120.67 87.4907L114.17 93.969V93.969ZM115.167 71.5007V59.584L127.084 71.5007H115.167Z" fill="#010014"/>
</g>
<g opacity="0.05">
<path d="M24.3337 73.334H-12.9997C-18.1797 73.334 -22.333 77.4873 -22.333 82.6673V157.334C-22.333 159.809 -21.3497 162.183 -19.5993 163.934C-17.849 165.684 -15.475 166.667 -12.9997 166.667H43.0003C45.4757 166.667 47.8496 165.684 49.6 163.934C51.3503 162.183 52.3337 159.809 52.3337 157.334V101.334L24.3337 73.334ZM17.5203 154.394V145.061H-1.14634V135.774H17.5203V126.441L31.5203 140.441L17.5203 154.394V154.394ZM19.667 106.001V80.334L45.3337 106.001H19.667Z" fill="#010014"/>
</g>
<g opacity="0.05">
<path d="M64.8337 -21.167H41.5003C38.2628 -21.167 35.667 -18.5712 35.667 -15.3337V31.333C35.667 32.8801 36.2816 34.3638 37.3755 35.4578C38.4695 36.5518 39.9532 37.1663 41.5003 37.1663H76.5003C78.0474 37.1663 79.5311 36.5518 80.6251 35.4578C81.7191 34.3638 82.3337 32.8801 82.3337 31.333V-3.66699L64.8337 -21.167ZM60.5753 29.4955V23.6622H48.9087V17.858H60.5753V12.0247L69.3253 20.7747L60.5753 29.4955V29.4955ZM61.917 -0.750325V-16.792L77.9587 -0.750325H61.917Z" fill="#010014"/>
</g>
</g>
<defs>
<clipPath id="clip0">
<rect width="140" height="140" fill="white"/>
</clipPath>
</defs>
</svg>
