<svg xmlns="http://www.w3.org/2000/svg" xmlns:xlink="http://www.w3.org/1999/xlink" width="190" height="224" fill="none" xmlns:v="https://vecta.io/nano"><style><![CDATA[.B{fill:#7066ff}.C{fill:#010014}]]></style><g clip-path="url(#B)"><g class="B"><use xlink:href="#C"/><use xlink:href="#D"/></g><use xlink:href="#D" opacity=".2" class="C"/><g class="B"><use xlink:href="#C"/><use xlink:href="#E"/></g><use xlink:href="#E" opacity=".75" class="C"/><use xlink:href="#F" class="B"/><use xlink:href="#F" opacity=".5" class="C"/><g class="B"><use xlink:href="#G"/><use xlink:href="#H"/><use xlink:href="#I"/></g><g class="C"><use xlink:href="#G" opacity=".1"/><use xlink:href="#H" opacity=".1"/><use xlink:href="#I" opacity=".1"/></g><g class="B"><path d="M27.637 19.867c1.014.6593 1.8574 1.55 2.4618 2.5967a7.668 7.668 0 0 1 1.0154 3.431c0 2.2142-1.5746 3.108-3.5018 1.9928a7.685 7.685 0 0 1-2.4628-2.5928c-.6056-1.046-.956-2.22-1.0226-3.4267.0082-2.2225 1.5828-3.1082 3.5-2zm-9.5866-5.5276c1.0163.6574 1.862 1.5466 2.468 2.5944a7.651 7.651 0 0 1 1.0174 3.4333c0 2.2143-1.5828 3.1-3.5 1.993a7.684 7.684 0 0 1-3.469-6.0277c0-2.2143 1.5663-3.1082 3.4936-1.993zM8.48 8.804a7.684 7.684 0 0 1 2.4554 2.5989c.6028 1.0474.95 2.222 1.0136 3.4288 0 2.2143-1.5664 3.1082-3.4936 1.993A7.66 7.66 0 0 1 5.99 14.2332a7.659 7.659 0 0 1-1.02-3.4282c.0082-2.2224 1.5746-3.1163 3.5-2z"/></g><g filter="url(#A)"><path d="M157.69 178.925L22.6432 100.96c-.398-.3-.8662-.47-1.3563-.518s-.9844.033-1.432.24l-2.3127 1.345c.4477-.206.942-.288 1.432-.24s.9583.228 1.3564.518L155.376 180.27a8.591 8.591 0 0 1 2.764 2.91 8.595 8.595 0 0 1 1.14 3.848c.048.483-.032.97-.232 1.412s-.513.823-.908 1.105l2.304-1.344a2.745 2.745 0 0 0 .917-1.103c.202-.443.28-.93.23-1.415-.07-1.355-.46-2.673-1.14-3.848a8.591 8.591 0 0 0-2.764-2.91h0z" class="B"/><path d="M20.3878 83.4166L127.28 145.13a8.593 8.593 0 0 1 2.764 2.914c.68 1.176 1.07 2.496 1.14 3.852a2.745 2.745 0 0 1-.229 1.413 2.748 2.748 0 0 1-.911 1.104l2.313-1.345a2.725 2.725 0 0 0 .909-1.1 2.73 2.73 0 0 0 .231-1.409c-.07-1.358-.462-2.68-1.142-3.857s-1.63-2.177-2.77-2.917L22.7005 82.0717c-.3997-.3-.8692-.4685-1.3606-.5175a2.788 2.788 0 0 0-1.4359.2386l-2.3045 1.345c.4476-.2054.942-.288 1.432-.239s.9582.2277 1.3563.5177h0z" class="B"/><path d="M20.437 64.538l87.324 50.41c1.14.74 2.088 1.738 2.768 2.914a8.607 8.607 0 0 1 1.144 3.852c.048.484-.034.97-.235 1.414a2.761 2.761 0 0 1-.913 1.104l2.312-1.345c.397-.28.712-.662.913-1.104a2.762 2.762 0 0 0 .236-1.414 8.621 8.621 0 0 0-1.145-3.852c-.68-1.176-1.628-2.174-2.767-2.914l-87.3242-50.41c-.398-.3-.8662-.4687-1.3563-.5177s-.9844.0335-1.432.239l-2.3127 1.345a2.772 2.772 0 0 1 1.432-.2388c.49.05.9582.2277 1.3563.5177z" class="B"/><path d="M20.494 45.651l118.02 68.134a8.633 8.633 0 0 1 2.766 2.919c.68 1.177 1.073 2.498 1.146 3.855.046.482-.036.968-.237 1.41s-.516.82-.91 1.1l2.313-1.345c.396-.28.71-.658.913-1.1a2.736 2.736 0 0 0 .235-1.41 8.621 8.621 0 0 0-3.912-6.766L22.8068 44.3062c-.398-.3-.8662-.4687-1.3563-.5177s-.9844.0334-1.432.239l-2.3127 1.345c.4476-.2054.942-.288 1.432-.239s.9582.2277 1.3563.5177z" class="B"/><g opacity=".6" class="C"><path d="M157.69 178.924L22.6432 100.958c-.398-.3-.8662-.47-1.3563-.518s-.9844.033-1.432.24l-2.3127 1.345c.4477-.206.942-.288 1.432-.24s.9583.228 1.3564.518L155.376 180.27a8.591 8.591 0 0 1 2.764 2.91c.678 1.175 1.07 2.493 1.14 3.848.048.483-.032.97-.232 1.412a2.76 2.76 0 0 1-.908 1.106l2.304-1.345c.398-.28.715-.66.917-1.103s.28-.93.23-1.415c-.07-1.355-.46-2.673-1.14-3.848a8.591 8.591 0 0 0-2.764-2.91z"/><path d="M20.388 83.4158l106.89 61.7122a8.593 8.593 0 0 1 2.764 2.914c.68 1.176 1.07 2.496 1.14 3.852.05.483-.03.97-.23 1.413a2.743 2.743 0 0 1-.911 1.105l2.313-1.345a2.745 2.745 0 0 0 .91-1.101c.2-.44.28-.927.23-1.41-.07-1.358-.462-2.68-1.142-3.857s-1.63-2.177-2.77-2.917L22.7007 82.0708a2.789 2.789 0 0 0-1.3606-.5175c-.4914-.05-.987.0334-1.436.2387l-2.3045 1.345c.4477-.2055.942-.288 1.432-.239a2.772 2.772 0 0 1 1.3564.5177z"/><path d="M20.4372 64.537l87.3238 50.411c1.14.74 2.088 1.738 2.768 2.914a8.607 8.607 0 0 1 1.144 3.852c.048.484-.034.97-.235 1.414a2.761 2.761 0 0 1-.913 1.104l2.312-1.345c.397-.28.712-.662.914-1.104s.282-.93.235-1.414a8.621 8.621 0 0 0-1.145-3.852c-.68-1.176-1.628-2.174-2.767-2.914L22.75 63.192a2.772 2.772 0 0 0-1.3564-.5177c-.49-.05-.9843.0334-1.432.239l-2.3126 1.345a2.772 2.772 0 0 1 1.4319-.2389 2.773 2.773 0 0 1 1.3564.5177z"/><path d="M20.4946 45.6503L138.515 113.784c1.138.742 2.086 1.742 2.766 2.92a8.66 8.66 0 0 1 1.146 3.855 2.755 2.755 0 0 1-.238 1.409 2.743 2.743 0 0 1-.911 1.1l2.313-1.345c.396-.28.712-.658.913-1.1a2.736 2.736 0 0 0 .235-1.41 8.621 8.621 0 0 0-3.912-6.766L22.8073 44.3053a2.772 2.772 0 0 0-1.3564-.5177c-.5-.05-.9843.0335-1.432.239l-2.3126 1.345c.4476-.2055.942-.288 1.432-.239a2.772 2.772 0 0 1 1.3563.5177z"/></g><path d="M155.376 180.27L20.3305 102.303c-2.165-1.255-3.9283-.255-3.9283 2.23a8.617 8.617 0 0 0 1.1387 3.856 8.613 8.613 0 0 0 2.765 2.918l135.045 77.967c2.165 1.246 3.92.246 3.928-2.247a8.581 8.581 0 0 0-1.139-3.848 8.591 8.591 0 0 0-2.764-2.91z" class="B"/><path d="M20.3633 92.4203L127.214 154.133c2.173 1.254 3.928.246 3.936-2.24-.07-1.356-.46-2.676-1.14-3.852s-1.626-2.174-2.765-2.914L20.388 83.4157c-2.165-1.2548-3.9283-.2543-3.9365 2.2388a8.604 8.604 0 0 0 3.9119 6.7658z" class="B"/><path d="M20.4125 73.5417l87.3235 50.4113c2.165 1.255 3.93.254 3.937-2.24a8.607 8.607 0 0 0-1.144-3.852 8.624 8.624 0 0 0-2.768-2.914l-87.324-50.41c-2.165-1.2547-3.92-.2542-3.9283 2.2307a8.612 8.612 0 0 0 1.1388 3.8556c.6784 1.1773 1.626 2.1774 2.765 2.9184z" class="B"/><path d="M20.47 54.6548L138.5 122.797c2.165 1.246 3.928.246 3.936-2.24a8.646 8.646 0 0 0-1.145-3.855c-.68-1.177-1.628-2.177-2.766-2.92L20.4945 45.6502c-2.165-1.2548-3.9283-.2543-3.9365 2.2388a8.62 8.62 0 0 0 1.1451 3.8518c.6798 1.1758 1.6278 2.1742 2.7668 2.914z" class="B"/><g opacity=".4" class="C"><path d="M155.376 180.27L20.3305 102.303c-2.165-1.255-3.9283-.254-3.9283 2.23a8.609 8.609 0 0 0 1.1387 3.855 8.607 8.607 0 0 0 2.765 2.919l135.045 77.966c2.165 1.247 3.92.246 3.928-2.247-.07-1.354-.46-2.673-1.14-3.848a8.597 8.597 0 0 0-2.764-2.909z"/><path d="M20.3633 92.421l106.8507 61.712c2.173 1.255 3.928.246 3.936-2.24-.07-1.355-.46-2.675-1.14-3.85s-1.626-2.175-2.765-2.915L20.388 83.4162c-2.165-1.2547-3.9283-.2542-3.9365 2.239.0716 1.3565.4634 2.6767 1.1433 3.8527s1.6287 2.1742 2.7686 2.913z"/><path d="M20.4125 73.5422l87.3235 50.4118c2.165 1.254 3.93.254 3.937-2.24-.072-1.357-.464-2.677-1.144-3.853a8.621 8.621 0 0 0-2.768-2.913L20.437 64.5376c-2.165-1.2548-3.92-.2543-3.9283 2.2306a8.611 8.611 0 0 0 1.1388 3.8556c.6784 1.1774 1.626 2.1774 2.765 2.9184z"/><path d="M20.47 54.6554L138.5 122.797c2.165 1.247 3.928.246 3.936-2.24-.073-1.357-.466-2.677-1.145-3.854s-1.628-2.178-2.766-2.92L20.4945 45.6507c-2.165-1.2547-3.9283-.2542-3.9365 2.239a8.619 8.619 0 0 0 3.9119 6.7658z"/></g></g></g><defs><filter id="A" x="-2.2844" y="-2.9428" width="219.951" height="220.783" filterUnits="userSpaceOnUse" color-interpolation-filters="sRGB"><feFlood flood-opacity="0" result="A"/><feColorMatrix in="SourceAlpha" values="0 0 0 0 0 0 0 0 0 0 0 0 0 0 0 0 0 0 127 0"/><feOffset dx="18.6867" dy="-9.34333"/><feGaussianBlur stdDeviation="18.6867"/><feColorMatrix values="0 0 0 0 0 0 0 0 0 0 0 0 0 0 0 0 0 0 0.1 0"/><feBlend in2="A"/><feBlend in="SourceGraphic"/></filter><clipPath id="B"><path fill="#fff" d="M0 0h190v224H0z"/></clipPath><path id="C" d="M.3198 15.3L0 111.25c0 4.43 3.1082 9.842 6.9626 12.048l172.2204 99.428c3.854 2.223 6.995.435 7.004-3.994l.32-95.9L.3198 15.3z"/><path id="D" d="M186.17 218.69l.32-95.9L.328 15.299l3.47-2.0174L189.96 120.764l-.32 95.95c0 2.206-.82 3.748-2.034 4.478l-3.47 2.017c1.255-.77 2.026-2.32 2.034-4.52z"/><path id="E" d="M5.8474.7833c1.2712-.738 3.026-.6397 4.9698.484L183.038 100.688c3.854 2.23 6.97 7.626 6.962 12.055v8.02l-3.47 2.018v-8.02c0-4.436-3.108-9.84-6.962-12.055L7.3482 3.2846c-1.9354-1.1235-3.6986-1.23-4.9616-.492L5.8474.7833z"/><path id="F" d="M7.348 3.2845C3.4937 1.0538.361 2.8416.3445 7.2784v8.0206L186.506 122.78v-8.02c0-4.436-3.108-9.84-6.962-12.055L7.348 3.2845z"/><path id="G" d="M28.7935 19.1946c1.014.6593 1.8574 1.549 2.4618 2.5967s.9522 2.2233 1.0154 3.43a2.46 2.46 0 0 1-1.0169 2.2389l-1.1563.6725a2.46 2.46 0 0 0 1.0169-2.2389c-.0632-1.2077-.411-2.3834-1.0155-3.43a7.667 7.667 0 0 0-2.4617-2.5967c-.352-.2545-.765-.4113-1.197-.4545a2.46 2.46 0 0 0-1.2633.2085l1.1563-.6643c.3946-.181.83-.2542 1.2622-.2125a2.46 2.46 0 0 1 1.1981.4503z"/><path id="H" d="M19.2067 13.6672a7.676 7.676 0 0 1 2.4655 2.5959c.6057 1.0476.9552 2.2235 1.02 3.4318.0403.4283-.0324.8596-.2108 1.25s-.4564.7292-.806.9797l-1.1563.6724c.3497-.2504.6276-.5882.806-.9796s.251-.8228.2108-1.25c-.0628-1.2088-.4114-2.3855-1.0173-3.4333a7.651 7.651 0 0 0-2.4681-2.5944c-.352-.2545-.765-.4114-1.197-.4546a2.46 2.46 0 0 0-1.2633.2085l1.1563-.6724a2.459 2.459 0 0 1 2.4603.246z"/><path id="I" d="M7.143 7.877a2.46 2.46 0 0 1 1.2622-.2125c.432.0418.8455.197 1.198.4503 1.014.6593 1.8574 1.549 2.4617 2.5967s.9523 2.2233 1.0155 3.43a2.46 2.46 0 0 1-1.0169 2.2389l-1.1564.6725c.35-.2512.6298-.5903.8083-.9833a2.46 2.46 0 0 0 .2086-1.2556 7.684 7.684 0 0 0-1.0135-3.4287c-.6028-1.0474-1.444-1.9378-2.4555-2.6-.352-.2545-.765-.4113-1.197-.4545s-.868.0287-1.2633.2085l1.148-.6643z"/></defs></svg>