<svg xmlns="http://www.w3.org/2000/svg" xmlns:xlink="http://www.w3.org/1999/xlink" width="190" height="240" fill="none" xmlns:v="https://vecta.io/nano"><style><![CDATA[.B{fill:#7066ff}.C{fill:#010014}]]></style><g clip-path="url(#B)"><g class="B"><use xlink:href="#C"/><use xlink:href="#D"/></g><use xlink:href="#D" opacity=".2" class="C"/><g class="B"><use xlink:href="#C"/><use xlink:href="#E"/></g><use xlink:href="#E" opacity=".75" class="C"/><path d="M182.658 3.0488c3.855-2.223 6.99-.4348 7.006 4.0033v8.023L3.4454 122.59v-8.023c0-4.438 3.101-9.844 6.9565-12.06L182.658 3.0488z" class="B"/><path opacity=".5" d="M182.658 3.0488c3.856-2.223 6.99-.4348 7.006 4.0033v8.023L3.4456 122.59v-8.023c0-4.438 3.101-9.844 6.9565-12.06L182.658 3.0488z" class="C"/><g class="B"><path d="M13.462 104.312c-1.0166.658-1.8628 1.547-2.4688 2.595s-.955 2.225-1.0177 3.435a2.461 2.461 0 0 0 .2109 1.251c.1785.392.4565.73.8063.98l1.1567.673a2.468 2.468 0 0 1-.8063-.98 2.463 2.463 0 0 1-.2109-1.252c.0628-1.2.4116-2.386 1.0177-3.434s1.452-1.938 2.4688-2.595a2.455 2.455 0 0 1 1.1973-.455 2.462 2.462 0 0 1 1.2637.209l-1.1567-.673c-.3954-.18-.8314-.252-1.2636-.2a2.475 2.475 0 0 0-1.1974.455h0zm9.5815-5.537a7.668 7.668 0 0 0-2.4625 2.5971 7.671 7.671 0 0 0-1.0157 3.432 2.461 2.461 0 0 0 .2087 1.256c.1786.393.4574.733.8085.984l1.1485.673c-.35-.252-.63-.6-.8085-.984a2.462 2.462 0 0 1-.2088-1.256c.0654-1.208.4153-2.384 1.0212-3.432a7.684 7.684 0 0 1 2.4653-2.5975 2.461 2.461 0 0 1 2.461-.246l-1.1566-.6727a2.461 2.461 0 0 0-1.2637-.2086c-.4323.0432-.8454.2-1.1974.4547h0z"/><use xlink:href="#F"/></g><g class="C"><path opacity=".1" d="M13.462 104.312c-1.0166.658-1.8628 1.547-2.4688 2.596a7.652 7.652 0 0 0-1.0177 3.434c-.0403.428.0324.86.21 1.25a2.469 2.469 0 0 0 .8063.98l1.1567.673c-.3498-.25-.6278-.588-.8063-.98a2.461 2.461 0 0 1-.2109-1.251c.0628-1.2.4116-2.387 1.0177-3.435s1.452-1.937 2.4688-2.595a2.475 2.475 0 0 1 1.1973-.455 2.462 2.462 0 0 1 1.2637.209l-1.1567-.673a2.461 2.461 0 0 0-1.2636-.208c-.4323.043-.8454.2-1.1974.454h0zm9.5815-5.537c-1.0142.6595-1.858 1.55-2.4625 2.598a7.667 7.667 0 0 0-1.0157 3.432 2.461 2.461 0 0 0 .2087 1.256 2.458 2.458 0 0 0 .8085.983l1.1485.673c-.35-.25-.63-.6-.8085-.984a2.462 2.462 0 0 1-.2088-1.256c.0654-1.208.4153-2.384 1.0212-3.432s1.4505-1.938 2.4653-2.5972a2.461 2.461 0 0 1 2.461-.2461l-1.1566-.6727a2.462 2.462 0 0 0-1.2637-.2086c-.4323.0433-.8454.2-1.1974.4547h0z"/><use xlink:href="#F" opacity=".1"/></g><g class="B"><path d="M14.6185 104.985c-1.0166.658-1.8627 1.547-2.4688 2.595a7.652 7.652 0 0 0-1.0176 3.434c0 2.215 1.575 3.1 3.5028 1.986a7.654 7.654 0 0 0 2.4671-2.592 7.656 7.656 0 0 0 1.0194-3.43c-.0082-2.223-1.5833-3.1-3.503-1.993zm9.5817-5.5375a7.684 7.684 0 0 0-2.4653 2.5975 7.68 7.68 0 0 0-1.0212 3.432c0 2.215 1.5833 3.1 3.51 1.993 1.0127-.66 1.8555-1.548 2.4598-2.594a7.677 7.677 0 0 0 1.0185-3.427c-.0082-2.223-1.5997-3.1008-3.503-2.0015zm9.5815-5.53a7.646 7.646 0 0 0-2.4651 2.5959 7.645 7.645 0 0 0-1.0131 3.4336c0 2.215 1.575 3.1 3.4946 1.993 1.0162-.658 1.862-1.547 2.468-2.5953s.955-2.2248 1.0185-3.4338c-.0082-2.223-1.575-3.11-3.503-1.9934z"/></g><g filter="url(#A)"><path d="M119.56 147.7l-86.1358 49.713a8.621 8.621 0 0 0-2.764 2.916c-.6786 1.176-1.0695 2.496-1.141 3.852a2.733 2.733 0 0 0 .2303 1.41 2.725 2.725 0 0 0 .91 1.1l2.3134 1.346c-.3956-.28-.7097-.66-.91-1.1a2.733 2.733 0 0 1-.2302-1.41c.0714-1.356.4623-2.675 1.141-3.852s1.6257-2.175 2.764-2.915l86.1365-49.713c.398-.29.866-.47 1.357-.518s.985.038 1.432.247l-2.322-1.378c-.448-.203-.943-.282-1.432-.23s-.955.237-1.35.532h0z" class="B"/><path d="M157.568 106.84l-124.1673 71.7c-1.1394.74-2.0877 1.74-2.7677 2.915s-1.0725 2.496-1.1454 3.853c-.0476.483.0335.97.2352 1.413s.5168.824.9133 1.105l2.2888 1.345a2.755 2.755 0 0 1-.9133-1.104c-.2017-.442-.2828-.93-.2352-1.414.0716-1.357.4635-2.678 1.1436-3.854s1.6292-2.175 2.7694-2.914l124.1676-71.7c.398-.29.867-.467 1.357-.515s.985.037 1.432.245l-2.313-1.346a2.791 2.791 0 0 0-1.419-.233 2.781 2.781 0 0 0-1.346.504h0z" class="B"/><path d="M30.5787 168.925l2.3134 1.345c-.3956-.28-.7097-.66-.91-1.1s-.2798-.927-.2302-1.41a8.614 8.614 0 0 1 1.1391-3.857 8.607 8.607 0 0 1 2.7657-2.919L148.93 95.5858c.398-.2896.867-.4674 1.358-.515a2.763 2.763 0 0 1 1.431.2443l-2.305-1.3454a2.774 2.774 0 0 0-1.433-.239 2.771 2.771 0 0 0-1.356.5179L33.3433 159.638c-1.1394.74-2.087 1.742-2.7658 2.92a8.61 8.61 0 0 0-1.1391 3.856 2.733 2.733 0 0 0 .2303 1.41c.2003.44.5144.82.9 1.1z" class="B"/><path d="M35.6074 142.1l97.7766-56.4477c.398-.29.867-.469 1.357-.518s.985.0335 1.432.24l-2.346-1.3454a2.771 2.771 0 0 0-1.432-.2389c-.5.05-.96.2277-1.357.5178l-97.744 56.448c-1.1393.74-2.0877 1.74-2.7677 2.915s-1.0724 2.496-1.1454 3.853c-.0476.483.0336.97.2353 1.413a2.751 2.751 0 0 0 .9132 1.105l2.3134 1.337a2.738 2.738 0 0 1-.9135-1.1c-.2017-.44-.2828-.927-.235-1.4.0716-1.357.4635-2.678 1.1437-3.854s1.629-2.175 2.7694-2.914z" class="B"/><path d="M171.112 43.6004a2.766 2.766 0 0 0-1.432-.2442c-.5.0476-.96.2254-1.357.515L33.2366 121.86c-1.1394.742-2.087 1.742-2.7658 2.92a8.61 8.61 0 0 0-1.1391 3.856 2.733 2.733 0 0 0 .2303 1.41c.2003.44.5144.82.9 1.1l2.3134 1.345c-.3956-.28-.7097-.66-.91-1.1s-.2798-.927-.2302-1.41a8.614 8.614 0 0 1 1.1391-3.857c.6787-1.178 1.6264-2.178 2.7658-2.92l135.086-77.9905a2.749 2.749 0 0 1 1.358-.5176c.5-.0476.985.0377 1.43.247l-2.313-1.3454z" class="B"/><g opacity=".6" class="C"><path d="M119.56 147.7l-86.1358 49.713c-1.1382.74-2.0853 1.74-2.764 2.916s-1.0695 2.496-1.141 3.852c-.0496.482.03.968.2302 1.41s.5145.82.91 1.1l2.3134 1.345a2.726 2.726 0 0 1-.9101-1.1 2.733 2.733 0 0 1-.2302-1.41 8.611 8.611 0 0 1 1.1409-3.852c.6786-1.176 1.6257-2.175 2.764-2.916l86.1364-49.713a2.754 2.754 0 0 1 1.357-.517c.49-.048.985.038 1.432.247l-2.322-1.378a2.751 2.751 0 0 0-1.432-.229 2.745 2.745 0 0 0-1.349.532z"/><path d="M157.568 106.84l-124.1674 71.7a8.623 8.623 0 0 0-2.7676 2.915 8.624 8.624 0 0 0-1.1454 3.853c-.0476.484.0335.972.2352 1.414s.5168.823.9133 1.105l2.2888 1.345c-.3966-.28-.7116-.662-.9133-1.105s-.283-.93-.2352-1.413c.0716-1.357.4635-2.678 1.1436-3.854s1.6292-2.175 2.7694-2.914l124.1676-71.7c.398-.3.867-.468 1.357-.515s.985.037 1.432.244l-2.313-1.345c-.445-.2-.934-.28-1.42-.234a2.801 2.801 0 0 0-1.346.504z"/><path d="M30.5787 168.924l2.3133 1.345c-.3956-.28-.7096-.66-.9-1.1s-.28-.928-.2302-1.4c.07-1.357.4604-2.68 1.14-3.857s1.6264-2.178 2.7658-2.92L148.93 95.5852c.398-.2896.867-.4673 1.357-.515a2.766 2.766 0 0 1 1.432.2442l-2.305-1.3454a2.773 2.773 0 0 0-1.433-.2389 2.771 2.771 0 0 0-1.356.5178l-113.2818 65.4c-1.1393.74-2.087 1.74-2.7658 2.92a8.615 8.615 0 0 0-1.139 3.857c-.0496.482.0298.968.2302 1.41s.5145.82.91 1.1z"/><path d="M35.6074 142.1l97.7766-56.448c.398-.29.867-.4688 1.357-.5178s.985.0334 1.432.239l-2.346-1.3454a2.772 2.772 0 0 0-1.432-.2389c-.5.05-.96.2278-1.357.518L33.294 140.754a8.615 8.615 0 0 0-2.7677 2.915c-.68 1.176-1.0724 2.496-1.1453 3.853-.0477.483.0335.97.2352 1.413a2.751 2.751 0 0 0 .9132 1.105l2.3134 1.337a2.738 2.738 0 0 1-.9135-1.1 2.741 2.741 0 0 1-.235-1.41c.0716-1.357.4636-2.678 1.1437-3.854s1.629-2.175 2.7694-2.914z"/><path d="M171.112 43.6a2.766 2.766 0 0 0-1.432-.2442 2.761 2.761 0 0 0-1.357.515L33.2366 121.86c-1.1394.74-2.087 1.742-2.7658 2.92a8.614 8.614 0 0 0-1.1391 3.857c-.0496.482.03.968.2303 1.41a2.728 2.728 0 0 0 .91 1.101l2.3134 1.346c-.3956-.28-.7097-.66-.91-1.1a2.734 2.734 0 0 1-.2302-1.41 8.61 8.61 0 0 1 1.1391-3.856c.6787-1.178 1.6264-2.178 2.7658-2.92l135.086-77.99c.398-.291.867-.47 1.358-.5175s.985.0376 1.43.2468L171.112 43.6z"/></g><path d="M35.55 123.206l135.086-77.9897c2.166-1.247 3.92-.246 3.93 2.2478a8.591 8.591 0 0 1-1.141 3.849 8.585 8.585 0 0 1-2.764 2.9106L35.5746 132.214c-2.1657 1.255-3.9295.23-3.9295-2.23a8.61 8.61 0 0 1 1.1391-3.857c.6787-1.178 1.6264-2.178 2.7658-2.92z" class="B"/><path d="M35.632 151.106l97.777-56.4476a8.638 8.638 0 0 0 2.764-2.9203c.678-1.1775 1.07-2.4986 1.14-3.8557 0-2.461-1.764-3.4865-3.93-2.2314L35.6074 142.1c-1.1403.74-2.0893 1.737-2.7694 2.914s-1.072 2.497-1.1437 3.854c.0082 2.485 1.772 3.462 3.9377 2.24z" class="B"/><path d="M148.954 104.6L35.6812 170c-2.1657 1.256-3.9294.255-3.9294-2.23.07-1.357.4604-2.68 1.139-3.857s1.6264-2.178 2.7657-2.92L148.93 95.5852c2.165-1.247 3.937-.2133 3.937 2.2477-.074 1.3562-.468 2.675-1.148 3.851s-1.627 2.175-2.765 2.917z" class="B"/><path d="M159.88 108.186l-124.167 71.7c-1.1402.74-2.0893 1.737-2.7694 2.913a8.612 8.612 0 0 0-1.1436 3.854c0 2.46 1.772 3.495 3.9376 2.24l124.1674-71.7a8.593 8.593 0 0 0 2.767-2.914 8.608 8.608 0 0 0 1.138-3.854c-.008-2.485-1.764-3.486-3.93-2.24z" class="B"/><path d="M121.875 149.047L35.7386 198.76c-1.1382.74-2.0853 1.74-2.764 2.916s-1.0695 2.496-1.141 3.852c0 2.46 1.7637 3.486 3.9295 2.23L121.9 158.046c1.14-.738 2.086-1.735 2.765-2.9s1.07-2.494 1.14-3.85c-.008-2.478-1.772-3.48-3.93-2.24z" class="B"/><g opacity=".4" class="C"><path d="M35.55 123.206l135.086-77.9898c2.166-1.247 3.92-.246 3.93 2.2478a8.591 8.591 0 0 1-1.141 3.849 8.585 8.585 0 0 1-2.764 2.9106L35.5746 132.214c-2.1657 1.255-3.9295.23-3.9295-2.232a8.61 8.61 0 0 1 1.1391-3.856c.6787-1.178 1.6264-2.178 2.7658-2.92z"/><path d="M35.632 151.106l97.777-56.4477a8.638 8.638 0 0 0 2.764-2.9203c.678-1.1775 1.07-2.4986 1.14-3.8558 0-2.46-1.764-3.4864-3.93-2.2313L35.6074 142.1c-1.1403.74-2.0893 1.737-2.7694 2.914s-1.072 2.497-1.1437 3.854c.0082 2.485 1.772 3.46 3.9377 2.24z"/><path d="M148.954 104.6L35.6812 170c-2.1657 1.255-3.9294.255-3.9294-2.23a8.614 8.614 0 0 1 1.1391-3.857c.6786-1.177 1.6264-2.178 2.7657-2.92L148.93 95.585c2.165-1.247 3.937-.2132 3.937 2.2478-.074 1.356-.468 2.6752-1.148 3.8512s-1.627 2.175-2.765 2.917z"/><path d="M159.88 108.186l-124.167 71.69c-1.1402.74-2.0893 1.738-2.7694 2.914s-1.072 2.497-1.1436 3.854c0 2.46 1.772 3.495 3.9376 2.24l124.1674-71.7a8.593 8.593 0 0 0 2.767-2.914 8.608 8.608 0 0 0 1.138-3.854c-.008-2.486-1.764-3.486-3.93-2.24z"/><path d="M121.875 149.047L35.7386 198.76c-1.1382.74-2.0853 1.74-2.764 2.915s-1.0695 2.497-1.141 3.853c0 2.46 1.7637 3.486 3.9295 2.23L121.9 158.046c1.14-.738 2.086-1.735 2.765-2.9a8.578 8.578 0 0 0 1.14-3.85c-.008-2.477-1.772-3.478-3.93-2.24z"/></g></g></g><defs><filter id="A" x="4.4662" y="22.6336" width="178.383" height="198.088" filterUnits="userSpaceOnUse" color-interpolation-filters="sRGB"><feFlood flood-opacity="0" result="A"/><feColorMatrix in="SourceAlpha" values="0 0 0 0 0 0 0 0 0 0 0 0 0 0 0 0 0 0 127 0"/><feOffset dx="-8.28371" dy="-4.14186"/><feGaussianBlur stdDeviation="8.2837"/><feColorMatrix values="0 0 0 0 0 0 0 0 0 0 0 0 0 0 0 0 0 0 0.05 0"/><feBlend in2="A"/><feBlend in="SourceGraphic"/></filter><clipPath id="B"><path fill="#fff" d="M0 0h190v240H0z"/></clipPath><path id="C" d="M189.68 15.075l.32 112.387c0 4.43-3.1 9.844-6.956 12.05l-172.2728 99.45c-3.8474 2.232-6.9893.443-6.9975-3.986l-.32-112.388L189.68 15.075z"/><path id="D" d="M3.7818 234.936l-.32-112.388L189.68 15.034l-3.462-2.0016L0 120.547.3117 232.885c0 2.198.7793 3.75 2.0345 4.48l3.47 2.018c-1.255-.697-2.0344-2.248-2.0344-4.446z"/><path id="E" d="M184.15.547c-1.263-.73-3.027-.6317-4.922.4922L6.9565 100.49C3.109 102.713-.0082 108.12 0 112.55v8.022l3.47 2.02v-8.023c0-4.438 3.101-9.845 6.9565-12.06L182.7 3.049c1.936-1.1157 3.69-1.2223 4.922-.484L184.15.547z"/><path id="F" d="M35.127 92.9997c-.3954-.18-.8314-.2518-1.2637-.2086s-.8453.2-1.1973.4546a7.645 7.645 0 0 0-2.4651 2.596c-.6047 1.0482-.952 2.225-1.0132 3.4336a2.463 2.463 0 0 0 .2109 1.2517 2.468 2.468 0 0 0 .8063.98l1.1567.672c-.3498-.25-.6278-.588-.8063-.98s-.2512-.823-.211-1.25a7.645 7.645 0 0 1 3.4783-6.0296c.352-.2545.765-.4114 1.1973-.4547s.8683.0288 1.2637.2086l-1.1567-.6726z"/></defs></svg>