<svg xmlns="http://www.w3.org/2000/svg" width="190" height="224" fill="none" xmlns:v="https://vecta.io/nano"><path d="M186.17 218.38l.32-95.9L.328 14.989l3.47-2.0174L189.96 120.453l-.32 95.952c0 2.206-.82 3.748-2.034 4.477l-3.47 2.018c1.255-.77 2.026-2.32 2.034-4.52z" fill="#5a52d0"/><path d="M.3198 14.9893L0 110.94c0 4.428 3.1082 9.84 6.9626 12.047l172.2204 99.428c3.854 2.223 6.995.435 7.003-3.994l.32-95.9L.3198 14.9893z" fill="#7066ff"/><path d="M5.8475.4733c1.271-.738 3.0262-.6397 4.9698.484L183.038 100.377c3.854 2.23 6.97 7.627 6.962 12.056v8.02l-3.47 2.018v-8.02c0-4.436-3.108-9.84-6.962-12.055L7.3483 2.9746c-1.9354-1.1235-3.6986-1.23-4.9616-.492L5.8475.4733z" fill="#1d1a4f"/><path d="M7.348 2.9744C3.4937.7438.361 2.5316.3445 6.9683v8.0205L186.506 122.47v-8.02c0-4.437-3.108-9.84-6.962-12.055L7.348 2.9744z" fill="#383389"/><path d="M8.4047 7.3548c-.432-.0418-.8676.0315-1.2622.2125l-1.148.6643a2.46 2.46 0 0 1 1.2633-.2085c.432.0432.845.2 1.197.4545a7.684 7.684 0 0 1 2.4554 2.5989c.6028 1.0474.95 2.222 1.0136 3.4288a2.461 2.461 0 0 1-1.0169 2.2389l1.1563-.6725a2.46 2.46 0 0 0 1.0169-2.2389c-.0632-1.2077-.41-2.3834-1.0155-3.43s-1.448-1.9384-2.4618-2.5978a2.46 2.46 0 0 0-1.1981-.4503zm10.8017 6.0025a7.676 7.676 0 0 1 2.4655 2.5959c.6057 1.0476.9552 2.2235 1.02 3.4318a2.455 2.455 0 0 1-.2108 1.25 2.468 2.468 0 0 1-.806.9797l-1.1563.6725c.3497-.2505.6276-.5883.806-.9797s.25-.8227.2108-1.25a7.652 7.652 0 0 0-1.0173-3.4333 7.651 7.651 0 0 0-2.4681-2.5944 2.462 2.462 0 0 0-1.197-.4546 2.461 2.461 0 0 0-1.2633.2085l1.1563-.6724c.3954-.1798.8312-.2517 1.2634-.2085a2.46 2.46 0 0 1 1.1969.4545zm9.5872 5.5277a7.667 7.667 0 0 1 2.4617 2.5967c.6043 1.0476.9523 2.2233 1.0155 3.43a2.46 2.46 0 0 1-1.0169 2.2389l-1.1564.6725c.35-.2512.6298-.5903.8083-.9833a2.46 2.46 0 0 0 .2086-1.2556 7.667 7.667 0 0 0-1.0154-3.431c-.6043-1.0476-1.448-1.9374-2.4618-2.5967a2.46 2.46 0 0 0-1.1969-.4545c-.4322-.0433-.868.0287-1.2634.2085l1.1564-.6643c.3946-.18.83-.2543 1.2622-.2125s.8454.197 1.198.4503z" fill="#655ce7"/><path d="M10.9354 11.093A7.684 7.684 0 0 0 8.48 8.494c-1.9354-1.1153-3.5018-.2214-3.5 2 .0647 1.2072.4142 2.382 1.02 3.4282a7.66 7.66 0 0 0 2.4654 2.5913c1.9272 1.1153 3.4936.2214 3.4936-1.9928a7.684 7.684 0 0 0-1.0136-3.4288zm7.115 2.9364c1.0163.6574 1.862 1.5466 2.468 2.5944a7.652 7.652 0 0 1 1.0174 3.4333c0 2.2143-1.5828 3.1-3.5 1.993a7.685 7.685 0 0 1-3.469-6.0278c0-2.2142 1.5663-3.108 3.4936-1.9928zm9.5866 5.5276c1.014.6593 1.8575 1.55 2.4618 2.5967s.9523 2.2233 1.0154 3.43c0 2.2143-1.5745 3.1082-3.5018 1.9928a7.684 7.684 0 0 1-3.4854-6.0195c.0082-2.2224 1.5828-3.108 3.5-2z" fill="#7066ff"/><g filter="url(#A)"><path d="M157.688 178.614L22.6432 100.648a2.772 2.772 0 0 0-1.3563-.518c-.49-.05-.9844.034-1.432.24l-2.3127 1.345c.4477-.205.942-.288 1.432-.24s.9583.228 1.3564.518L155.376 179.96a8.591 8.591 0 0 1 2.764 2.91c.678 1.175 1.07 2.493 1.14 3.848.05.483-.03.97-.23 1.412s-.514.824-.908 1.106l2.304-1.345c.398-.28.715-.66.917-1.103a2.742 2.742 0 0 0 .231-1.415c-.07-1.355-.46-2.673-1.14-3.848a8.581 8.581 0 0 0-2.764-2.91z" fill="#2d2972"/><path d="M20.388 83.106l106.89 61.712a8.596 8.596 0 0 1 2.764 2.915c.68 1.175 1.07 2.495 1.14 3.85.05.483-.03.97-.23 1.413s-.515.824-.91 1.105l2.313-1.345a2.745 2.745 0 0 0 .91-1.101c.2-.44.28-.927.23-1.41-.07-1.358-.462-2.68-1.142-3.857s-1.63-2.177-2.77-2.917L22.7006 81.76c-.3997-.29-.8692-.4685-1.3605-.5175s-.987.0334-1.436.2387l-2.3045 1.345c.4477-.2055.942-.288 1.432-.239a2.772 2.772 0 0 1 1.3564.5177z" fill="#2d2972"/><path d="M20.4372 64.2272L107.76 114.638c1.14.74 2.088 1.738 2.768 2.914a8.607 8.607 0 0 1 1.144 3.852c.048.484-.034.972-.235 1.414a2.761 2.761 0 0 1-.913 1.104l2.312-1.345c.397-.28.712-.662.913-1.104a2.76 2.76 0 0 0 .236-1.414 8.621 8.621 0 0 0-1.145-3.852c-.68-1.176-1.628-2.174-2.767-2.913L22.75 62.8822a2.772 2.772 0 0 0-1.3564-.5177c-.49-.05-.9843.0335-1.432.239l-2.3126 1.345a2.772 2.772 0 0 1 2.7883.2789z" fill="#2d2972"/><path d="M20.4946 45.3405L138.515 113.474c1.138.742 2.086 1.742 2.766 2.92a8.646 8.646 0 0 1 1.145 3.855 2.744 2.744 0 0 1-.237 1.409 2.746 2.746 0 0 1-.911 1.101l2.313-1.345c.396-.28.712-.66.913-1.1s.283-.927.235-1.4a8.621 8.621 0 0 0-1.145-3.852 8.63 8.63 0 0 0-2.767-2.914L22.8073 43.9956a2.772 2.772 0 0 0-1.3564-.5177c-.5-.05-.9843.0334-1.432.239l-2.3126 1.345c.4476-.2054.942-.288 1.432-.239a2.772 2.772 0 0 1 1.3563.5177z" fill="#2d2972"/><path d="M155.376 179.96L20.3306 101.993c-2.165-1.255-3.9283-.254-3.9283 2.23a8.608 8.608 0 0 0 1.1388 3.855 8.615 8.615 0 0 0 2.7649 2.919l135.045 77.966c2.165 1.247 3.92.246 3.928-2.247-.07-1.355-.46-2.673-1.14-3.848a8.6 8.6 0 0 0-2.764-2.91z" fill="#443da1"/><path d="M20.3634 92.1107L127.214 153.823c2.173 1.255 3.928.246 3.936-2.24a8.597 8.597 0 0 0-1.139-3.851c-.68-1.176-1.626-2.175-2.764-2.915L20.388 83.106c-2.165-1.2548-3.9283-.2543-3.9365 2.2388a8.604 8.604 0 0 0 3.9119 6.7658z" fill="#443da1"/><path d="M20.4126 73.232l87.3234 50.411c2.166 1.255 3.93.255 3.937-2.238-.072-1.357-.464-2.677-1.144-3.853a8.602 8.602 0 0 0-2.768-2.913L20.4372 64.2274c-2.165-1.2547-3.92-.2542-3.9282 2.2307.07 1.357.4602 2.6782 1.1387 3.8556s1.626 2.1774 2.765 2.9184z" fill="#443da1"/><path d="M20.47 54.3453L138.5 122.487c2.165 1.247 3.928.246 3.937-2.24a8.66 8.66 0 0 0-1.146-3.855c-.68-1.177-1.628-2.177-2.766-2.92L20.4946 45.3406c-2.165-1.2548-3.9282-.2542-3.9364 2.239a8.618 8.618 0 0 0 3.9118 6.7658z" fill="#443da1"/></g><defs><filter id="A" x="8.4023" y="23.4641" width="177.204" height="178.036" filterUnits="userSpaceOnUse" color-interpolation-filters="sRGB"><feFlood flood-opacity="0" result="A"/><feColorMatrix in="SourceAlpha" values="0 0 0 0 0 0 0 0 0 0 0 0 0 0 0 0 0 0 127 0"/><feOffset dx="8" dy="-4"/><feGaussianBlur stdDeviation="8"/><feColorMatrix values="0 0 0 0 0 0 0 0 0 0 0 0 0 0 0 0 0 0 0.1 0"/><feBlend in2="A"/><feBlend in="SourceGraphic"/></filter></defs></svg>