<svg xmlns="http://www.w3.org/2000/svg" width="190" height="240" fill="none" xmlns:v="https://vecta.io/nano"><path d="M3.7818 234.856l-.32-112.388L189.68 14.9542l-3.462-2.0017L0 120.467.3117 232.805c0 2.198.7793 3.75 2.0345 4.48l3.47 2.018c-1.255-.697-2.0344-2.248-2.0344-4.446z" fill="#5a52d0"/><path d="M189.68 14.995l.32 112.387c0 4.43-3.1 9.844-6.956 12.05l-172.2727 99.45c-3.8474 2.232-6.9893.443-6.9975-3.986l-.32-112.388L189.68 14.995z" fill="#7066ff"/><path d="M184.15.467c-1.264-.73-3.027-.6317-4.922.4922L6.9565 100.41C3.109 102.633-.0082 108.04 0 112.468v8.023l3.47 2.018v-8.022c0-4.44 3.101-9.845 6.9565-12.06L182.7 2.969c1.936-1.1157 3.69-1.2223 4.922-.484L184.15.467z" fill="#1d1a4f"/><path d="M182.658 2.9688c3.855-2.223 6.99-.4348 7.005 4.0033v8.023L3.4453 122.51v-8.023c0-4.438 3.101-9.844 6.9565-12.06L182.658 2.9688z" fill="#383388"/><path d="M33.8637 92.71c.4323-.0432.8683.0288 1.2637.2086l1.1567.6727c-.3954-.18-.8314-.2518-1.2637-.2086a2.459 2.459 0 0 0-1.1973.4547c-1.0156.658-1.8605 1.5477-2.4652 2.596a7.646 7.646 0 0 0-1.0131 3.4335c-.0403.4282.0324.8602.21 1.2512a2.462 2.462 0 0 0 .8063.98l-1.1567-.673c-.3498-.25-.6278-.588-.8063-.98a2.465 2.465 0 0 1-.211-1.252c.0613-1.2085.4085-2.3853 1.0132-3.4335a7.646 7.646 0 0 1 2.465-2.596 2.461 2.461 0 0 1 1.1973-.4547zm-10.8202 5.984a7.668 7.668 0 0 0-2.4625 2.5971 7.671 7.671 0 0 0-1.0157 3.432 2.461 2.461 0 0 0 .2087 1.256 2.455 2.455 0 0 0 .8085.984l1.1485.673c-.35-.252-.63-.6-.8085-.984a2.461 2.461 0 0 1-.2087-1.256c.0654-1.208.4152-2.384 1.02-3.432a7.683 7.683 0 0 1 2.4653-2.5974 2.461 2.461 0 0 1 2.461-.2461l-1.1566-.6727a2.462 2.462 0 0 0-1.2637-.2086c-.4323.0433-.8454.2-1.1974.4547zm-9.5815 5.537c-1.0166.658-1.8628 1.547-2.4688 2.595a7.66 7.66 0 0 0-1.0177 3.435c-.0403.428.0324.86.21 1.25a2.469 2.469 0 0 0 .8063.98l1.1567.673a2.468 2.468 0 0 1-.8063-.98 2.463 2.463 0 0 1-.2109-1.252c.0628-1.2.4116-2.386 1.0177-3.434s1.452-1.938 2.4688-2.595a2.455 2.455 0 0 1 1.1973-.455 2.462 2.462 0 0 1 1.2637.209l-1.1567-.673c-.3954-.18-.8314-.252-1.2636-.2a2.475 2.475 0 0 0-1.1974.455z" fill="#655ce7"/><path d="M31.3165 96.4343a7.647 7.647 0 0 1 2.4651-2.596c1.9278-1.1157 3.4947-.2297 3.503 1.9934-.0635 1.2-.4125 2.3858-1.0185 3.434s-1.4518 1.9374-2.468 2.5954c-1.9196 1.108-3.4946.222-3.4946-1.9932a7.645 7.645 0 0 1 1.0131-3.4335zM24.2 99.3673c-1.0148.6597-1.8594 1.5497-2.4653 2.5977s-.9557 2.223-1.02 3.432c0 2.215 1.5832 3.1 3.51 1.993 1.0126-.66 1.8554-1.548 2.4598-2.594s.9533-2.22 1.0184-3.427c-.0082-2.2232-1.5997-3.1-3.503-2.0017zm-9.5815 5.5377c-1.0166.657-1.8627 1.547-2.4688 2.595a7.652 7.652 0 0 0-1.0176 3.434c0 2.215 1.575 3.1 3.5028 1.986a7.654 7.654 0 0 0 2.4671-2.592 7.656 7.656 0 0 0 1.0194-3.43c-.0082-2.223-1.5833-3.1-3.503-1.993z" fill="#7066ff"/><g filter="url(#A)"><path d="M119.56 147.63l-86.1358 49.713c-1.1382.74-2.0853 1.74-2.764 2.916s-1.0695 2.496-1.141 3.852c-.0496.482.03.968.2302 1.41s.5145.82.91 1.1l2.3134 1.345a2.726 2.726 0 0 1-.9101-1.1 2.733 2.733 0 0 1-.2302-1.41 8.611 8.611 0 0 1 1.1409-3.852c.6786-1.176 1.6257-2.175 2.764-2.916l86.1364-49.713c.398-.29.866-.47 1.357-.517s.985.037 1.432.247l-2.322-1.378a2.751 2.751 0 0 0-1.432-.229 2.745 2.745 0 0 0-1.349.532z" fill="#2d2972"/><path d="M157.568 106.76l-124.1674 71.7a8.623 8.623 0 0 0-2.7676 2.915 8.624 8.624 0 0 0-1.1454 3.853c-.0476.484.0335.972.2352 1.414s.5168.823.9133 1.105l2.2888 1.345c-.3966-.28-.7116-.662-.9133-1.105s-.283-.93-.2352-1.413c.0716-1.357.4635-2.678 1.1436-3.854s1.6292-2.175 2.7694-2.914l124.1676-71.7c.398-.3.867-.468 1.357-.515s.985.037 1.432.244l-2.314-1.345a2.786 2.786 0 0 0-1.418-.234 2.801 2.801 0 0 0-1.346.504z" fill="#2d2972"/><path d="M30.5787 168.844l2.3133 1.345c-.3956-.28-.7096-.66-.9-1.1s-.28-.928-.2302-1.4a8.616 8.616 0 0 1 1.139-3.857c.6787-1.177 1.6264-2.178 2.7658-2.92L148.93 95.5052c.398-.2896.867-.4673 1.357-.515a2.766 2.766 0 0 1 1.432.2442l-2.305-1.3454a2.776 2.776 0 0 0-1.433-.2389 2.777 2.777 0 0 0-1.357.5179l-113.2808 65.39c-1.1393.74-2.087 1.74-2.7658 2.92a8.615 8.615 0 0 0-1.139 3.857c-.0496.482.0298.968.2302 1.41s.5145.82.91 1.1z" fill="#2d2972"/><path d="M35.6074 142.02l97.7766-56.4478c.398-.29.867-.469 1.357-.518s.985.0334 1.432.239l-2.346-1.3453a2.772 2.772 0 0 0-1.432-.239c-.5.05-.96.2278-1.357.518L33.294 140.674a8.615 8.615 0 0 0-2.7677 2.915c-.68 1.176-1.0724 2.496-1.1453 3.853-.0477.483.0335.97.2352 1.413a2.751 2.751 0 0 0 .9132 1.105l2.3134 1.337a2.738 2.738 0 0 1-.9135-1.1 2.741 2.741 0 0 1-.235-1.41c.0716-1.357.4636-2.678 1.1437-3.854s1.629-2.175 2.7694-2.914z" fill="#2d2972"/><path d="M171.112 43.52a2.766 2.766 0 0 0-1.432-.2442c-.5.0476-.96.2253-1.357.515L33.2366 121.78c-1.1394.74-2.087 1.742-2.7658 2.92a8.614 8.614 0 0 0-1.1391 3.857c-.0496.482.03.968.2303 1.41a2.728 2.728 0 0 0 .91 1.101l2.3134 1.346c-.3956-.28-.7097-.66-.91-1.1a2.734 2.734 0 0 1-.2302-1.41 8.61 8.61 0 0 1 1.1391-3.856c.6787-1.178 1.6264-2.178 2.7658-2.92l135.086-77.9898a2.749 2.749 0 0 1 1.357-.5176c.49-.0476.986.0376 1.432.247l-2.313-1.3454z" fill="#2d2972"/><path d="M35.55 123.126l135.086-78c2.166-1.247 3.92-.246 3.93 2.2478a8.591 8.591 0 0 1-1.141 3.849 8.585 8.585 0 0 1-2.764 2.9106L35.5747 132.133c-2.1657 1.256-3.9294.23-3.9294-2.23.07-1.357.4604-2.68 1.14-3.857s1.6265-2.178 2.7658-2.92z" fill="#443da1"/><path d="M35.632 151.026l97.777-56.448c1.138-.7423 2.085-1.743 2.764-2.9204s1.07-2.4985 1.14-3.8557c0-2.46-1.764-3.4864-3.93-2.2313L35.6075 142.02c-1.1402.74-2.0893 1.737-2.7694 2.913s-1.072 2.497-1.1436 3.854c.0082 2.486 1.772 3.462 3.9376 2.24z" fill="#443da1"/><path d="M148.954 104.52L35.6813 169.9c-2.1657 1.255-3.9294.254-3.9294-2.23a8.614 8.614 0 0 1 1.1391-3.857 8.607 8.607 0 0 1 2.7657-2.919L148.93 95.5048c2.166-1.247 3.938-.2133 3.938 2.2478a8.66 8.66 0 0 1-1.148 3.8514 8.643 8.643 0 0 1-2.766 2.916z" fill="#443da1"/><path d="M159.88 108.105l-124.167 71.7c-1.1402.74-2.0892 1.738-2.7694 2.914s-1.072 2.497-1.1436 3.854c0 2.46 1.772 3.495 3.9377 2.24l124.1672-71.7a8.593 8.593 0 0 0 2.767-2.914c.678-1.177 1.068-2.498 1.138-3.854-.008-2.486-1.764-3.487-3.93-2.24z" fill="#443da1"/><path d="M121.875 148.967L35.7388 198.68c-1.1383.74-2.0854 1.74-2.764 2.915s-1.0695 2.496-1.141 3.852c0 2.46 1.7638 3.487 3.9295 2.232L121.9 157.966a8.578 8.578 0 0 0 2.765-2.911c.68-1.175 1.07-2.494 1.14-3.85-.008-2.477-1.772-3.478-3.93-2.24z" fill="#443da1"/></g><defs><filter id="A" x="5.3174" y="23.2629" width="177.248" height="196.953" filterUnits="userSpaceOnUse" color-interpolation-filters="sRGB"><feFlood flood-opacity="0" result="A"/><feColorMatrix in="SourceAlpha" values="0 0 0 0 0 0 0 0 0 0 0 0 0 0 0 0 0 0 127 0"/><feOffset dx="-8" dy="-4"/><feGaussianBlur stdDeviation="8"/><feColorMatrix values="0 0 0 0 0 0 0 0 0 0 0 0 0 0 0 0 0 0 0.05 0"/><feBlend in2="A"/><feBlend in="SourceGraphic"/></filter></defs></svg>